<svg id="the_svg_wrapper" class="svg_wrapper" width="100%" height="100%" version="1.1" xmlns="http://www.w3.org/2000/svg"><g id="master_group" transform="translate(0,0) scale(0.02734375)" width="56704" height="73600" image_id="102291577" image_url="/external/devhuman/prod14/3760000440/3760000440.aff"><g id="157963748" order="0" group_label_id="31" group_label="Atlas - Developing Human" sub_image_id="102291577"><clippath><path id="zap_container_graphics_clip" d="M 0 0 L 1498 0 L 1498 312 L 0 312 L 0 0" style="fill:#000000;fill-opacity:1;stroke-width:10;stroke:rgb(0,0,0)"></path></clippath><path id="157963750" parent_id="157963748" order="0" structure_id="10557" d="
			M4861.969,7685.404c-30.091-23.755-65.404-46.234-104.846-48.212c-13.483-0.676-36.408-2.628-40.529,12.438
			c-4.184,15.298,8.41,32.818,14.825,45.689c25.09,50.334,25.387,106.883,24.565,161.873c-0.6,40.166-3.123,80.262-6.855,120.25
			c-3.401,36.429-15.206,65.817-26.628,100.174c-7.488,22.523-12.713,46.111-16.907,70.037
			c-6.156,35.12-10.091,70.97-15.701,105.254c-4.485,27.408-13.053,64.627,5.697,88.663c18.607,23.853,50.987,21.444,77.42,15.738
			c34.887-7.53,69.365-16.923,103.995-25.52c33.338-8.274,65.605-15.759,98.212-26.593c16.497-5.481,32.932-13.526,47.294-23.293
			c53.282-36.23,90.963-107.118,95.173-171.15c3.472-52.793-27.121-100.744-47.619-147.057
			c-14.566-32.91-28.449-66.172-45.26-98.028c-21.57-40.876-40.488-77.528-76.32-107.97
			C4919.938,7733.446,4891.363,7708.608,4861.969,7685.404z" color="15921648" style="fill:#f2f1f0;fill-opacity:1;stroke-width:10;stroke:rgb(0,0,0)"></path><path id="157963751" parent_id="157963748" order="1" structure_id="10557" d="
			M5401,6122.495c60.619-25.913,115.075-35.917,182-28.495c49.807,5.523,97.785,9.369,150,11.954
			c87.205,4.316,173.693,16.661,261.129,20.676c133.24,6.118,265.559,1.37,398.872,1.37c72.235,0,142.487,7.825,214.651,3.438
			c57.435-3.492,107.887-23.789,162.644-35.07c53.062-10.933,105.235-30.541,150.696-60.368
			c35.035-22.985,136.225-102.758,101.485-154.958c-20.987-31.521-89.54-16.769-119.476-11.256
			c-66.374,12.221-130.549,34.361-196.99,46.505c-68.013,12.431-136.426,22.503-204.834,32.466
			c-42.605,6.205-84.719,15.696-127.479,20.84c-44.243,5.321-88.831,5.881-133.338,5.702c-100.48-0.402-201.58,1.422-301.36-12.299
			c-127.334-17.509-261.646-45.851-385.129-82.601c-30.682-9.131-56.613-19.952-84.871-35.65
			c-16.905-9.392-34.014-18.344-50.023-29.026c-33.207-22.158-66.449-44.987-94.977-72.699
			c-10.699-10.395-20.678-21.554-28.753-34.026c-17.841-27.556-26.422-50.264-29.977-82.781c-3.475-31.79,0.378-64.023,9.841-94.502
			c19.242-61.982,60.231-116.422,109.549-157.869c13.098-11.008,26.916-21.167,41.38-30.31c6.226-3.935,12.563-7.681,18.996-11.257
			c42.49-23.628,89.2-39.698,136.187-51.501c28.345-7.119,58.629-9.981,87.447-13.934c34.561-4.739,69.454-6.838,104.33-6.844
			c67.169-0.011,128.891,10.736,194,13.993c40.922,2.047,81.393,6.203,122.238,2.926c105.299-8.449,204.514-13.723,301.812-56.869
			c46.855-20.777,104.618-65.812,80.448-124.494c-41.754-101.378-178.303-85.214-266.602-97.452
			c-61.545-8.53-121.207-17.779-183.943-24.057c-24.381-2.44-46.78-7.689-69.958-14.048
			c-53.185-14.589-102.025-37.252-151.995-60.005c-28.32-12.896-56.059-26.078-82.05-43.498c-1.775-1.19-3.523-2.406-5.253-3.641
			c-0.566-0.404-1.12-0.822-1.683-1.231c-1.155-0.841-2.309-1.685-3.444-2.545c-0.651-0.494-1.292-0.998-1.938-1.498
			c-1.029-0.797-2.056-1.596-3.069-2.408c-0.668-0.535-1.328-1.078-1.99-1.619c-0.976-0.799-1.948-1.603-2.911-2.415
			c-0.658-0.556-1.312-1.116-1.965-1.678c-0.954-0.822-1.902-1.651-2.844-2.486c-0.633-0.561-1.264-1.124-1.891-1.69
			c-0.96-0.867-1.91-1.742-2.857-2.622c-0.587-0.546-1.176-1.09-1.758-1.64c-1.002-0.946-1.993-1.903-2.981-2.862
			c-0.509-0.495-1.022-0.986-1.529-1.484c-1.147-1.129-2.282-2.271-3.413-3.416c-0.332-0.336-0.669-0.668-1-1.007
			c-2.972-3.037-5.887-6.129-8.757-9.266c-0.278-0.305-0.554-0.613-0.831-0.919c-1.143-1.256-2.281-2.517-3.41-3.787
			c-0.385-0.433-0.766-0.869-1.149-1.304c-1.023-1.159-2.044-2.322-3.057-3.491c-0.404-0.467-0.807-0.936-1.21-1.403
			c-0.994-1.155-1.986-2.314-2.973-3.478c-0.391-0.46-0.779-0.922-1.169-1.384c-1.014-1.204-2.024-2.41-3.03-3.621
			c-0.341-0.41-0.682-0.819-1.021-1.229c-1.092-1.319-2.181-2.643-3.266-3.969c-0.238-0.292-0.479-0.584-0.717-0.876
			c-1.276-1.564-2.549-3.132-3.816-4.704c-0.027-0.033-0.055-0.066-0.081-0.099c-0.008-0.01-0.016-0.02-0.023-0.029
			c-4.869-6.035-9.692-12.118-14.525-18.195c-1.396-1.756-2.794-3.511-4.194-5.265c-0.588-0.735-1.177-1.47-1.766-2.205
			c-1.704-2.128-3.413-4.251-5.13-6.369c-0.316-0.391-0.632-0.783-0.949-1.174c-1.913-2.354-3.839-4.696-5.775-7.03
			c-0.374-0.451-0.747-0.903-1.123-1.353c-1.933-2.32-3.882-4.625-5.847-6.917c-0.372-0.434-0.745-0.867-1.119-1.3
			c-2.009-2.329-4.034-4.643-6.085-6.934c-0.284-0.317-0.571-0.632-0.856-0.948c-2.172-2.413-4.362-4.809-6.59-7.171
			c-46.927-49.753-86.844-112.297-120.458-172.273c-39.776-70.971-89.054-138.328-114.344-216.436
			c-12.154-37.537-19.82-79.549-14.762-119.052c5.576-43.552,4.26-88.405,10.936-132.439
			c22.892-151.004,135.275-275.499,224.166-393.635c48.439-64.376,109.44-122.373,165.632-180.507
			c57.65-59.644,119.865-117.046,193.613-156.234c61.746-32.811,125.107-57.018,190.494-81.094
			c59.73-21.994,114.342-19.148,177.759-22.165c34.548-1.643,74.015-0.343,103.16-22.084
			c70.748-52.774-36.498-114.069-79.25-129.858c-41.388-15.284-85.157-19.538-126.177-36.235
			c-63.676-25.919-159.052-70.665-188.221-137.377c-25.475-58.261-24.272-116.427-31.057-178.445
			c-3.603-32.926-16.17-63.639-22.556-96c-8.604-43.604-12.677-98.426-42.414-133.861c-49.626-59.135-91.21,22.1-99.914,67.864
			c-11.221,58.994-28.867,116.917-45.904,174.434c-31.308,105.694-82.156,204.367-139.293,298.216
			c-24.458,40.173-49.064,79.315-76.228,117.216c-27.129,37.854-42.886,82.62-70.632,120.081
			c-30.997,41.851-74.687,80.771-113.06,116.153c-49.513,45.653-98.08,92.857-146.94,139.401
			c-33.314,31.735-69.743,62.053-105.401,90.94c-46.149,37.386-101.755,74.361-155.613,98.054
			c-89.098,39.193-176.784,61.399-274.49,61.501c-39.274,0.042-79.663-4.672-117.219-15.542
			c-61.173-17.706-120.874-53.475-183.756-63.681c-59.793-9.705-136.481,23.378-184.582,55.772
			c-49.67,33.451-74.034,89.211-116.397,127.347c-58.889,53.014-130.214,77.43-208.994,74.383
			c-85.566-3.309-150.065-39.941-203.593-103.881c-19.562-23.367-34.962-52.015-49.954-78.405
			c-33.958-59.78-36.318-119.208-35.505-187.993c1.564-132.375,62.765-250.806,121.554-368.044
			c47.671-95.067,115.598-160.717,194.938-229.949c46.414-40.5,95.56-80.604,145.071-116.502
			c31.333-22.718,63.991-44.725,96.542-67.053c103.191-70.786,213.584-120.184,327.591-171.734c0.225-0.102,0.449-0.203,0.674-0.304
			c115.129-51.92,237.256-104.114,333.632-186.912c15.884-13.646,33.104-27.776,49.896-40.057
			C4963.499,2343.483,5057,2246,5118,2131c14.043-26.474,17.967-56.828,26.943-84.954c15.896-49.803,16.304-105.626-1.785-154.917
			c-11.998-32.692-46.806-92.639-89.706-76.678c-32.843,12.223-47.312,50.676-56.325,81.526
			c-23.211,79.449-75.899,151.08-128.622,213.52c-68.826,81.512-157.958,135.608-259.95,164.056
			c-106.17,29.615-225.906,20.346-333.56,4.897c-79.711-11.438-151.401-25.817-222.618-66.167
			c-69.067-39.132-131.262-89.341-201.377-126.73c-23.745-12.662-50.947-28.201-77.998-27.555
			c-40.473,0.967-49.489,60.652-65.828,87.786c-26.06,43.279-55.583,84.596-87.656,123.618
			c-27.365,33.294-47.423,72.603-77.014,104.101c-51.476,54.793-100.21,112.045-147.626,170.309
			c-56.596,69.543-117.889,137.217-181.782,200.133c-49.858,49.095-101.053,81.144-168.103,100.491
			c-2.828,0.816-5.669,1.603-8.517,2.375c-0.649,0.176-1.298,0.352-1.949,0.526c-2.805,0.75-5.617,1.483-8.438,2.191
			c-0.382,0.096-0.767,0.187-1.149,0.283c-2.566,0.638-5.141,1.257-7.721,1.86c-0.608,0.142-1.215,0.287-1.823,0.426
			c-2.824,0.65-5.654,1.281-8.493,1.889c-0.565,0.122-1.132,0.238-1.698,0.357c-2.557,0.54-5.119,1.064-7.687,1.57
			c-0.483,0.096-0.966,0.194-1.45,0.288c-2.865,0.558-5.738,1.09-8.616,1.605c-0.653,0.117-1.306,0.23-1.959,0.345
			c-2.761,0.484-5.526,0.954-8.298,1.398c-0.211,0.034-0.421,0.071-0.632,0.104c-2.93,0.468-5.868,0.906-8.809,1.33
			c-0.677,0.098-1.354,0.194-2.032,0.29c-2.941,0.414-5.885,0.812-8.836,1.181c-0.248,0.031-0.497,0.06-0.746,0.09
			c-2.774,0.345-5.553,0.666-8.335,0.971c-0.646,0.071-1.291,0.144-1.937,0.212c-2.937,0.313-5.876,0.607-8.821,0.877
			c-0.495,0.045-0.99,0.085-1.485,0.13c-2.66,0.237-5.324,0.457-7.989,0.659c-0.543,0.041-1.085,0.085-1.629,0.125
			c-2.954,0.216-5.911,0.409-8.871,0.582c-0.615,0.036-1.23,0.068-1.845,0.102c-2.764,0.153-5.529,0.29-8.297,0.405
			c-0.322,0.013-0.643,0.03-0.965,0.042c-2.999,0.12-6,0.212-9.002,0.288c-0.651,0.017-1.303,0.031-1.955,0.045
			c-3.043,0.066-6.088,0.118-9.134,0.139c-0.003,0-0.006,0-0.009,0c-3.039,0.021-6.078,0.011-9.118-0.015
			c-0.638-0.006-1.275-0.01-1.912-0.018c-3.008-0.034-6.016-0.087-9.024-0.166c-0.364-0.01-0.728-0.023-1.092-0.034
			c-2.775-0.079-5.549-0.177-8.323-0.294c-0.558-0.023-1.116-0.044-1.673-0.069c-2.998-0.134-5.995-0.291-8.99-0.469
			c-0.533-0.032-1.065-0.068-1.597-0.102c-2.765-0.172-5.528-0.363-8.29-0.574c-0.391-0.029-0.781-0.056-1.171-0.087
			c-3.011-0.235-6.018-0.498-9.024-0.779c-0.601-0.056-1.201-0.115-1.801-0.173c-2.998-0.29-5.994-0.596-8.985-0.932
			c-0.05-0.005-0.1-0.01-0.15-0.016c-3.043-0.342-6.083-0.715-9.119-1.104c-0.611-0.078-1.223-0.157-1.833-0.237
			c-3.02-0.397-6.036-0.812-9.047-1.255c-0.191-0.028-0.381-0.059-0.572-0.087c-2.872-0.426-5.738-0.878-8.601-1.347
			c-0.557-0.091-1.113-0.181-1.668-0.273c-2.977-0.496-5.949-1.014-8.915-1.557c-0.432-0.079-0.863-0.162-1.295-0.242
			c-2.732-0.507-5.46-1.033-8.183-1.579c-0.437-0.088-0.874-0.172-1.311-0.261c-2.954-0.601-5.901-1.225-8.842-1.871
			c-0.541-0.119-1.081-0.241-1.621-0.361c-2.816-0.628-5.627-1.273-8.431-1.943c-0.2-0.048-0.4-0.093-0.599-0.141
			c-2.949-0.709-5.889-1.447-8.822-2.204c-0.581-0.149-1.161-0.301-1.741-0.453c-32.053-8.378-63.147-19.603-92.588-33.755
			c-114.49-55.033-197.967-157.574-258.522-266.671c-20.234-36.455-42.493-73.786-58.502-112.053
			c-40.212-96.123-42.979-202.903-29.915-304.974c10.613-82.928,27.265-164.923,44.272-246.73
			c7.371-35.455,7.792-70.189,15.993-105.181c8.599-36.695,19.679-73.158,20.191-111.164
			c1.49-110.812-106.574-120.376-175.95-172.343c-55.02-41.212-106.316-87.194-130.534-153.162
			c-25.994-70.805-38.043-147.644-6.535-218.584c16.667-37.525,42.282-67.167,70.789-95.803
			c31.57-31.712,61.727-48.864,75.696-94.513c19.493-63.705-52.329-103.723-104.688-117.76
			c-59.285-15.894-117.332-1.786-177.27-1.786c-41.573,0-78.899,1.375-120.237-2.379c-39.74-3.609-85.091,0.179-121.198,17.983
			c-40.121,19.784-67.275,56.294-85.847,96.011c-23.167,49.542-35.896,100.564-44.495,154.385
			c-4.651,29.113-10.483,57.675-29.746,80.885c-9.381,11.305-16.972,22.491-28.637,32.04c-12.357,10.115-25.92,18.628-38.506,28.442
			c-31.759,24.767-62.573,50.815-95.755,73.702c-29.769,20.532-62.698,35.49-95.859,49.604
			c-67.783,28.851-130.632,68.424-202.919,85.78c-21.253,5.102-42.908,9.629-62.755,19.103
			c-80.647,38.497-110.816,142.378-49.104,212.395c30.09,34.141,88.295,60.127,131.504,73.552
			c61.935,19.243,122.798,25.993,187.21,26.993c44.382,0.688,89.005-5.499,132.788,5.06c46.153,11.13,91.794,25.243,133.492,48.16
			c44.737,24.588,85.923,55.164,125.261,87.562c18.669,15.377,35.119,29.591,50.13,48.22c14.417,17.89,25.772,37.514,35.031,58.527
			c18.593,42.202,29.192,87.357,40.199,131.969c22.422,90.881,32.479,190.737,27.883,284.001
			c-3.264,66.229-5.075,135.971-23.994,200.112c-33.003,111.894-71.994,222.851-132.438,323.46
			c-22.145,36.859-54.37,71.524-68.714,111.702c-16.976,47.546-38.838,95.276-38.848,146.729
			c-0.009,49.195,13.692,107.771,50.224,143.352c40.641,39.584,106.2,55.073,159.769,66.213
			c62.112,12.917,122.008,40.204,186.011,46.438c129.958,12.66,255.412,45.565,372.048,103.752
			c29.498,14.716,59.623,32.858,83.896,55.224c23.29,21.46,48.511,39.719,70.243,62.829c31.942,33.968,61.304,67.701,89.087,104.968
			c18.483,24.793,32.409,57.097,42.5,86.226c14.129,40.784,29.343,86.334,27.223,130c-1.786,36.784-7.74,73.601-19.764,108.48
			c-12.571,36.467-33.447,64.851-54.692,96.397c-24.533,36.428-53.556,69.841-85.778,99.662
			c-34.952,32.347-84.823,55.243-128.82,73.964c-152.156,64.743-342.675,77.289-506.346,65.581
			c-73.679-5.271-146.277-17.905-217.984-35.356c-56.493-13.749-110.967-22.066-168.384-28.101
			c-44.42-4.669-87.233-18.833-131.185,0.819c-65.746,29.398-81.048,139.031-101.401,199.09
			c-21.284,62.807-42.73,124.388-65.147,186.465c-23.059,63.854-26.007,123.419-3.001,185.945
			c9.936,27.003,11.954,74.289,38.726,91.808c10.464,6.844,24.373,11.018,35.777,14.025c65.36,17.235,138.238,16.657,198.226,50.948
			c12.556,7.178,25.37,13.839,37.028,22.029c61.127,42.943,123.36,95.271,153.908,165.496c12.887,29.624,21.779,64.321,20.72,96.854
			c-1.115,34.21-33.782,79.762-62.35,97.671c-17.614,11.042-39.931,15.594-62.177,18.546c0.062-0.009,0.125-0.014,0.187-0.022
			c-0.062,0.009-0.125,0.014-0.187,0.022c-14.598,1.937-29.165,3.187-42.351,5.123c-37.816,5.556-76.245,2.309-113.711,7.529
			c-43.658,6.083-83.568,19.549-126.189,30.137c-96.087,23.87-194.338,21.86-292.104,31.89c-66.127,6.783-130.789-2.461-192-18.438
			c-33.65-8.783-67.766-19.856-102-25.562c-84-14-136.144,7.803-136.144,7.803s-3.571,68.879-4.895,95.521
			c-1.623,32.665-3.239,65.33-4.826,97.997C488.942,5876.846,483.301,6004.396,479,6132c-4.253,126.168-17.985,331.757-16,462
			c0.683,44.822,0.015,153.635,0,155.962c0.006-0.901,71.33,5.784,76,6.038c20.383,1.106,36.488-1.268,54.458-7.504
			c7.323-2.541,14.562-5.247,21.737-8.082c16.937-6.692,33.524-14.061,49.963-21.672c62.206-28.8,122.265-61.118,190.846-73.861
			c84.654-15.73,171.797-11.386,256.997-2.874c47.23,4.719,306.39,10.751,277.658,99.651
			c-4.804,14.864-108.18,15.613-124.908,18.504c-44.881,7.752-88.347,27.098-119.245,61.343c-18.89,20.937-32.658,41.648-55.555,58
			c-21.133,15.092-50.827,19.325-63.514,43.003c-14.509,26.978,10.375,43.191,31.73,53.12
			c28.947,13.457,59.426,18.063,87.648,34.478c32.461,18.88,66.351,6.795,100.192,17.396c47.194,14.785,92.888,41.354,135.421,66.28
			c1.298,0.761,2.581,1.543,3.854,2.336c0.38,0.237,0.757,0.478,1.135,0.717c0.928,0.588,1.849,1.184,2.763,1.788
			c0.383,0.253,0.767,0.505,1.148,0.762c1.114,0.748,2.218,1.508,3.312,2.281c0.127,0.09,0.258,0.178,0.385,0.269
			c1.213,0.862,2.412,1.743,3.601,2.635c0.345,0.26,0.687,0.523,1.031,0.785c0.868,0.661,1.73,1.33,2.586,2.008
			c0.372,0.294,0.743,0.588,1.112,0.885c0.959,0.771,1.91,1.553,2.852,2.344c0.203,0.171,0.409,0.337,0.611,0.508
			c1.126,0.954,2.239,1.923,3.341,2.904c0.315,0.28,0.626,0.565,0.939,0.848c0.809,0.729,1.611,1.465,2.406,2.208
			c0.36,0.336,0.719,0.673,1.075,1.012c0.833,0.79,1.657,1.59,2.475,2.395c0.251,0.248,0.505,0.491,0.755,0.74
			c1.038,1.033,2.063,2.08,3.078,3.139c0.288,0.301,0.571,0.606,0.858,0.91c0.746,0.787,1.486,1.581,2.219,2.382
			c0.351,0.383,0.7,0.768,1.047,1.153c0.721,0.801,1.434,1.607,2.142,2.42c0.283,0.324,0.569,0.646,0.85,0.972
			c0.946,1.101,1.882,2.211,2.806,3.333c0.271,0.328,0.536,0.662,0.805,0.993c0.677,0.833,1.349,1.67,2.014,2.514
			c0.343,0.437,0.685,0.875,1.025,1.314c0.615,0.794,1.224,1.594,1.829,2.398c0.308,0.409,0.619,0.816,0.924,1.229
			c0.853,1.151,1.696,2.311,2.527,3.48c0.26,0.366,0.514,0.737,0.771,1.104c0.602,0.858,1.2,1.72,1.79,2.588
			c0.34,0.499,0.676,1.001,1.012,1.503c0.521,0.778,1.035,1.562,1.546,2.347c0.322,0.495,0.646,0.988,0.964,1.486
			c0.72,1.126,1.432,2.259,2.133,3.399c0.295,0.48,0.585,0.966,0.877,1.448c0.521,0.861,1.038,1.724,1.549,2.592
			c0.337,0.573,0.669,1.149,1.001,1.727c0.428,0.742,0.852,1.488,1.272,2.236c0.331,0.588,0.662,1.176,0.989,1.768
			c0.482,0.876,0.957,1.758,1.43,2.641c0.45,0.84,0.895,1.684,1.336,2.53c0.426,0.819,0.852,1.638,1.269,2.463
			c0.335,0.662,0.665,1.327,0.995,1.993c0.34,0.686,0.677,1.372,1.011,2.062c0.334,0.688,0.667,1.378,0.995,2.071
			c0.335,0.708,0.663,1.419,0.992,2.131c0.542,1.17,1.074,2.346,1.599,3.525c0.311,0.699,0.623,1.396,0.928,2.098
			c0.332,0.765,0.657,1.533,0.982,2.302c0.259,0.611,0.517,1.224,0.771,1.838c0.329,0.793,0.655,1.586,0.977,2.382
			c0.232,0.576,0.459,1.154,0.688,1.731c0.639,1.612,1.262,3.231,1.871,4.858c0.152,0.407,0.308,0.812,0.458,1.219
			c0.327,0.887,0.646,1.776,0.964,2.667c0.183,0.511,0.365,1.021,0.545,1.533c0.317,0.903,0.631,1.807,0.939,2.713
			c0.155,0.455,0.305,0.911,0.458,1.367c1.053,3.148,2.054,6.319,3.001,9.511c0.116,0.393,0.233,0.783,0.349,1.176
			c0.295,1.01,0.585,2.02,0.87,3.033c0.097,0.344,0.191,0.688,0.286,1.033c0.943,3.4,1.827,6.819,2.653,10.256
			c0.059,0.246,0.12,0.492,0.178,0.739c0.265,1.113,0.522,2.229,0.775,3.345c0.055,0.246,0.11,0.492,0.165,0.738
			c0.815,3.65,1.566,7.316,2.251,10.994c0.013,0.071,0.027,0.143,0.041,0.213c0.225,1.214,0.441,2.428,0.652,3.644
			c0.026,0.152,0.052,0.305,0.078,0.456c0.872,5.069,1.62,10.156,2.246,15.252c0.01,0.076,0.019,0.154,0.028,0.231
			c0.631,5.167,1.136,10.341,1.515,15.511c0.002,0.021,0.003,0.043,0.005,0.064c0.624,8.529,0.906,17.044,0.85,25.491
			c0,0.021,0,0.041,0,0.062c-0.012,1.614-0.035,3.226-0.07,4.834c-0.001,0.054-0.003,0.106-0.004,0.159
			c-0.036,1.574-0.083,3.146-0.143,4.715c-0.004,0.095-0.008,0.189-0.012,0.284c-0.06,1.529-0.129,3.056-0.211,4.578
			c-0.008,0.137-0.016,0.273-0.023,0.41c-0.082,1.48-0.172,2.958-0.275,4.432c-0.013,0.186-0.027,0.371-0.041,0.557
			c-0.102,1.424-0.212,2.846-0.334,4.264c-0.021,0.242-0.044,0.483-0.066,0.726c-0.12,1.36-0.246,2.718-0.385,4.071
			c-0.031,0.308-0.066,0.613-0.099,0.92c-0.136,1.29-0.277,2.578-0.43,3.862c-0.044,0.37-0.093,0.739-0.138,1.108
			c-0.15,1.219-0.303,2.437-0.467,3.648c-0.061,0.442-0.126,0.882-0.188,1.323c-0.16,1.139-0.322,2.276-0.495,3.409
			c-0.08,0.522-0.167,1.041-0.25,1.562c-0.167,1.051-0.333,2.102-0.512,3.146c-0.104,0.608-0.217,1.212-0.325,1.818
			c-0.17,0.955-0.337,1.913-0.517,2.863c-0.136,0.718-0.282,1.43-0.423,2.145c-0.165,0.834-0.325,1.672-0.497,2.502
			c-0.186,0.895-0.384,1.781-0.578,2.67c-0.142,0.649-0.277,1.302-0.424,1.947c-0.348,1.535-0.708,3.062-1.082,4.58
			c-28.854,117.119-105.542,184.758-205.444,244.502c-50.364,30.118-99.246,64.484-150.662,90.9
			c-58.587,30.101-135.644,68.101-141.94,142.551c-2.715,32.109,8.635,64.601,18.538,94c7.602,22.567,16.057,60.474,43.405,66.104
			c50.098,10.312,84.596-30.563,114.565-60.975c42.649-43.277,91.787-79.376,139.539-116.691
			c53.852-42.082,110.598-84.946,172.495-115.941c98.618-49.384,185.66-90.536,299.401-80.393
			c60.938,5.435,122.816,15.646,163.601,66.444c10.43,12.99,20.271,27.007,29.35,41.756c27.822,45.196,48.46,97.308,56.707,148.142
			c17.153,105.722-28.493,208.533-80.006,297.062c-28.929,49.717-63.175,99.148-96.801,145.338
			c-48.007,65.943-118.626,116.862-179.566,170.207c-37.858,33.141-75.66,66.382-117.132,94.997
			c-65.788,45.399-143.366,86.807-194.025,150.205c-32,40.047-58.044,84.8-77.42,132.244
			c-19.104,46.778-22.345,95.477-36.106,143.501c-7.623,26.602-16.552,54.178-24.555,79.896
			c-32.152,103.33-60.488,211.779-76.754,318.664c-4.759,31.271-9.513,64.215-17.437,94.779
			c-9.424,36.348-4.982,69.167,0.255,106.653c3.573,25.575-1.59,67.675,11.935,90.061c29.882,49.459,68.047-52.664,76.561-74.008
			c18.82-47.183,32.674-97.569,53.996-143.544c9.023-19.455,17.386-38.779,25.495-58.502c13.074-31.801,28.876-62.291,41.509-94.053
			c25.968-65.292,61.426-117.938,106.602-171.994c30.945-37.028,67.198-73.459,103.999-105.561
			c69.146-60.316,132.553-125.843,202.784-184.887c68.988-57.998,152.938-122.252,239.346-151.043
			c1.259-0.42,2.524-0.825,3.792-1.223c0.408-0.127,0.817-0.248,1.226-0.373c0.865-0.266,1.731-0.528,2.601-0.783
			c0.483-0.142,0.969-0.278,1.454-0.417c0.802-0.229,1.604-0.455,2.409-0.675c0.507-0.139,1.016-0.275,1.524-0.41
			c0.795-0.212,1.592-0.42,2.391-0.623c0.506-0.129,1.012-0.258,1.518-0.383c0.828-0.205,1.658-0.404,2.489-0.6
			c0.472-0.111,0.942-0.225,1.415-0.333c0.936-0.215,1.874-0.422,2.812-0.626c0.368-0.08,0.735-0.163,1.104-0.241
			c2.646-0.562,5.306-1.081,7.979-1.559c0.333-0.06,0.666-0.114,0.999-0.173c1.001-0.174,2.004-0.346,3.008-0.51
			c0.427-0.069,0.855-0.135,1.283-0.202c0.921-0.146,1.844-0.287,2.768-0.423c0.447-0.066,0.896-0.13,1.344-0.193
			c0.924-0.131,1.849-0.258,2.775-0.379c0.432-0.058,0.865-0.114,1.298-0.169c0.978-0.124,1.958-0.242,2.938-0.356
			c0.373-0.043,0.745-0.088,1.118-0.129c1.149-0.129,2.3-0.25,3.452-0.365c0.204-0.021,0.406-0.043,0.61-0.063
			c2.802-0.274,5.615-0.51,8.436-0.707c0.149-0.011,0.298-0.019,0.448-0.029c1.233-0.085,2.468-0.162,3.705-0.232
			c0.286-0.016,0.573-0.03,0.86-0.046c1.113-0.06,2.227-0.115,3.342-0.164c0.317-0.014,0.636-0.026,0.953-0.039
			c1.108-0.046,2.217-0.086,3.326-0.119c0.298-0.01,0.596-0.02,0.894-0.027c1.186-0.033,2.372-0.061,3.56-0.082
			c0.205-0.004,0.409-0.009,0.613-0.012c5.743-0.093,11.51-0.045,17.291,0.131c0.105,0.004,0.21,0.008,0.316,0.011
			c1.329,0.042,2.659,0.09,3.989,0.145c0.155,0.007,0.31,0.014,0.464,0.021c1.313,0.055,2.627,0.117,3.941,0.186
			c0.126,0.007,0.252,0.014,0.378,0.02c1.416,0.075,2.832,0.157,4.249,0.246c0.003,0.001,0.005,0.001,0.008,0.001
			c7.353,0.464,14.714,1.12,22.061,1.94c0.025,0.004,0.051,0.006,0.076,0.01c1.451,0.162,2.901,0.33,4.351,0.506
			c0.007,0,0.014,0.001,0.021,0.002c0.004,0,0.007,0.001,0.011,0.002c15.404,1.86,30.727,4.427,45.764,7.463
			c0.042,0.009,0.083,0.017,0.125,0.025c2.126,0.43,4.247,0.868,6.361,1.316c0.016,0.003,0.032,0.006,0.048,0.01
			c4.212,0.893,8.398,1.819,12.556,2.775c0.091,0.021,0.182,0.042,0.272,0.062c1.995,0.46,3.982,0.926,5.963,1.398
			c0.18,0.043,0.36,0.086,0.541,0.13c1.977,0.473,3.947,0.951,5.909,1.436c0.062,0.015,0.123,0.03,0.185,0.046
			c1.961,0.484,3.914,0.975,5.858,1.471c0.103,0.025,0.207,0.052,0.309,0.078c1.871,0.477,3.732,0.959,5.586,1.444
			c0.296,0.077,0.591,0.154,0.886,0.232c1.798,0.472,3.588,0.948,5.37,1.427c0.28,0.076,0.559,0.152,0.839,0.228
			c1.838,0.496,3.669,0.995,5.489,1.497c43.57,12.029,72.68,42.621,97.258,78.943c24.527,36.248,49.14,66.011,55.108,111.161
			c12.817,96.979-29.846,182.248-79.803,261.939c-67.063,106.979-152.46,200.272-219.994,306.382
			c-15.182,23.854-43.839,61.082-41.141,90.993c5.185,57.46,95.782-17.285,114.784-29.526
			c56.296-36.266,107.661-69.459,156.154-116.16c52.201-50.272,101.174-103.75,152.508-154.887
			c109.107-108.689,223.52-206.936,343.288-304.408c38.046-30.963,68.692-65.947,98.322-104.724
			c22.947-30.032,53.678-62.278,62.753-100.13c9.061-37.793-7.932-77.672-18.637-113.639c-9.83-33.027-20.056-64.764-30.548-98.047
			c-18.184-57.684-33.484-120.627-42.046-179.85c-9.299-64.316-13.722-131.01-3.89-196.097c1.691-11.194,3.323-22.638,4.981-34.216
			c7.327-51.149,15.172-104.943,30.957-151.752c33.508-99.342,83.475-172.21,175.61-226.032
			c57.951-33.854,121.532-38.072,186.891-28.451c78.282,11.522,157.856,24.719,235.45,40.555
			c56.985,11.63,137.453,29.673,194.208,11.89c58.555-18.351,44.261-88.587,27.997-132.47
			c-12.147-32.776-38.631-56.274-61.122-82.703c-24.353-28.615-48.933-57.103-72.821-86.032
			c-22.207-26.895-35.429-59.858-57.531-85.875c-22.065-25.974-36.955-54.287-47.066-86.92c-18.914-61.046-10.709-125.311,8.431-186
			c10.192-32.316,26.131-63.307,44.502-91.603c16.5-25.414,36.393-47.682,58.704-67.177l0,0
			c53.963-47.15,122.099-78.062,190.778-97.889c115.249-33.271,227.582-23.691,346.022-17.777
			c66.954,3.344,132.821-0.053,198,10.491c54.624,8.838,108.271,11.995,163.555,20.399c26.088,3.965,53.636,8.233,80.451,13.659
			c53.375,10.8,107.694,24.792,161.897,27.965c3.65,0.214,7.312,0.397,10.979,0.562c1.229,0.055,2.463,0.096,3.694,0.146
			c2.443,0.098,4.887,0.193,7.337,0.271c1.473,0.046,2.947,0.082,4.422,0.121c2.222,0.059,4.443,0.113,6.669,0.155
			c1.562,0.03,3.127,0.053,4.692,0.075c2.154,0.029,4.311,0.053,6.469,0.068c1.592,0.011,3.184,0.02,4.777,0.023
			c2.156,0.005,4.314,0,6.474-0.01c1.579-0.007,3.157-0.012,4.738-0.025c2.232-0.021,4.467-0.053,6.702-0.087
			c1.497-0.022,2.993-0.04,4.49-0.069c2.605-0.05,5.213-0.117,7.82-0.186c1.119-0.029,2.238-0.051,3.358-0.083
			c3.614-0.106,7.228-0.23,10.841-0.369c1.568-0.06,3.135-0.132,4.702-0.198c2.146-0.091,4.29-0.18,6.435-0.281
			c1.754-0.083,3.506-0.175,5.258-0.265c1.956-0.101,3.911-0.2,5.865-0.31c1.823-0.102,3.644-0.209,5.465-0.316
			c1.88-0.112,3.759-0.227,5.638-0.346c1.854-0.118,3.708-0.239,5.562-0.363c1.841-0.124,3.68-0.253,5.519-0.383
			c1.867-0.133,3.733-0.266,5.598-0.404c1.829-0.137,3.654-0.279,5.48-0.422c1.858-0.145,3.716-0.287,5.57-0.438
			c1.84-0.15,3.675-0.308,5.512-0.463c1.83-0.155,3.662-0.306,5.488-0.465c0.006-0.001,0.011-0.002,0.017-0.002l0,0
			c0.164-0.015,0.328-0.029,0.493-0.045c3.604-0.317,7.203-0.643,10.791-0.979c3.757-0.353,7.505-0.715,11.241-1.086
			c64.399-6.406,130.928-12.393,196-5.896c86.134,8.599,170.002,32.496,251.843,59.835c38.474,12.853,76.439,27.533,115.3,38.726
			c40.819,11.757,83.486,19.714,122.857,35.935c34.382,14.165,68.438,28.139,102,43.451c60.059,27.402,121.252,56.682,182,84.549
			c107.703,49.407,215.186,106.568,313.993,172.003c40.382,26.742,77.185,58.956,108.858,95.606
			c30.369,35.142,62.183,69.521,85.901,110.114c14.622,25.025,27.665,51.056,44.304,74.853
			c16.252,23.245,35.637,45.046,53.721,66.983c17.898,21.714,40.51,44.286,71.422,40.574c27.602-3.314,59.347-35.426,73.343-58.081
			c33.08-53.548,30.909-91.04-0.037-144.594c-12.957-22.421-32.009-44.438-51.01-62.449
			c-40.542-38.431-84.743-69.311-130.545-101.01c-49.458-34.229-101.372-60.188-153.505-88.933
			c-97.264-53.629-216.561-155.992-168.777-281.037c3.124-8.175,6.551-15.996,10.231-23.516
			c63.658-130.063,208.024-164.18,345.045-170.12c52.609-2.281,456.372,84.333,426.564-38.844
			c-11.409-47.134-78.571-54.152-117.509-58.046c-53.063-5.306-106.361-5.755-159.577-8.43
			c-119.783-6.021-238.78-23.162-357.857-36.296c-160.264-17.677-319.396-40.075-476.188-78.332
			c-45.134-11.013-90.008-23.158-134.378-36.942c-134.905-41.912-268.99-98.791-323.825-240.955
			c-0.005-0.013-0.011-0.025-0.016-0.038c-0.008-0.021-0.017-0.04-0.025-0.061c-0.005-0.011-0.01-0.022-0.015-0.035
			c-18.958-46.062-51.942-114.296-22.118-162.918C5347.313,6152.658,5376.204,6133.095,5401,6122.495z" color="15921648" style="fill:#f2f1f0;fill-opacity:1;stroke-width:10;stroke:rgb(0,0,0)"></path></g><g id="157963753" order="0" group_label_id="113753815" group_label="Atlas - Developing Human Gyri" sub_image_id="102291577"><path id="157963763" parent_id="157963753" order="0" structure_id="12157" d="
			M2321.192,4039.999c-1.289,1.244-2.938,1.771-4.707,1.79c-1.84,0.02-3.622,0.082-5.457-0.033
			c-13.494-0.845-26.656-3.365-39.722-6.829c-13.286-3.521-26.38-7.722-39.669-11.231c-31.961-8.44-63.183-18.004-96.01-26.266
			c-84.635-21.298-167.512-42.281-249.933-69.586c-43.651-14.461-89.311-21.566-134.053-31.727
			c-41.699-9.47-83.328-19.637-125.548-26.576c-25.898-4.256-51.928-7.766-77.684-12.851c-24.731-4.883-48.479-12.792-73.522-16.078
			c-54.783-7.188-110.73-2.701-164.92-14.86c-26.846-6.023-51.846-12.436-77.174-22.555c-24.247-9.688-50.441-12.854-75.571-19.42
			c-29.111-7.606-58.881-15.597-89.223-21.726c-14.486-2.926-29.14-4.045-44-6.274c-31.353-4.702-57.456-5.348-88.975,1.25
			c-22.974,4.81-44.222,15.334-66.918,21.094c-19.419,4.929-38.142,12.714-56.21,21.637c-37.538,18.538-72.009,44.06-98.392,76.761
			c-17.924,22.216-31.778,47.666-39.856,75.084c-5.194,17.629-14.151,32.391-16.929,51.201c-3.003,20.337-2.662,40.937-3.696,61.417
			c-0.777,15.396,0.638,31.006,2,46.555c3.99,45.576,1.556,92.159,1.457,137.941c-0.063,29.055,3.227,56.264,5.931,84.756
			c4.563,48.154,10.275,100.891-0.742,147.892c-20.63,88.003-46.119,175.724-72.223,262.63
			c-20.031,66.69-46.632,131.363-69.669,197.032c-7.972,22.727-15.009,44.917-20.532,67.972c-7.926,33.089-13.499,68.841-15.246,103
			c-1.621,31.707-4.652,63.586-3,96c2.533,49.681,10.608,93.665,31.506,139.033c13.927,30.236,31.773,57.166,52.117,83.273
			c20.066,25.751,35.37,54.342,64.6,71.471c28.225,16.54,60.692,31.722,91.777,41.445c46.523,14.553,94.521,25.094,143.105,29.55
			c77.693,7.126,152.521-4.858,229.895-5.772c16.872-0.199,33.604-0.669,50.023-3.223c22.095-3.437,44.711-7.298,66.765-9.295
			c27.727-2.511,55.041-13.007,82.315-18.426c44.479-8.835,94.633-28.942,139.896-26.057c22.802,1.454,53.391,10.372,76.356,7.321
			c22.246-2.952,44.563-7.504,62.177-18.546c28.568-17.909,61.235-63.461,62.35-97.671c1.059-32.533-7.833-67.23-20.72-96.854
			c-30.548-70.224-92.781-122.553-153.908-165.496c-11.658-8.19-24.472-14.851-37.028-22.029
			c-59.988-34.291-132.866-33.713-198.226-50.948c-11.404-3.007-25.313-7.181-35.777-14.025
			c-26.771-17.519-28.79-64.804-38.726-91.808c-23.006-62.526-20.058-122.091,3.001-185.945
			c22.417-62.078,43.864-123.658,65.147-186.465c20.353-60.059,35.655-169.691,101.401-199.09
			c43.952-19.652,86.765-5.488,131.185-0.819c57.417,6.035,111.891,14.352,168.384,28.101
			c71.707,17.451,144.306,30.085,217.984,35.356c163.67,11.708,354.189-0.837,506.346-65.581
			c43.998-18.721,93.868-41.617,128.82-73.964c32.222-29.821,61.245-63.234,85.778-99.662c8.202-12.18,16.344-23.89,23.979-35.774
			L2321.2,4039.991C2321.197,4039.993,2321.195,4039.996,2321.192,4039.999z" color="14837888" style="fill:#e26880;fill-opacity:1;stroke-width:10;stroke:rgb(0,0,0)"></path><path id="157963764" parent_id="157963753" order="1" structure_id="12157" d="
			M1934.498,7712.548c-40.785-50.798-102.664-61.01-163.601-66.444c-113.741-10.144-200.783,31.009-299.401,80.393
			c-61.897,30.995-118.644,73.859-172.495,115.941c-47.752,37.315-96.89,73.414-139.539,116.691
			c-29.969,30.411-64.467,71.287-114.565,60.975c-27.348-5.63-35.804-43.536-43.405-66.104c-9.903-29.399-21.253-61.891-18.538-94
			c6.296-74.45,83.353-112.45,141.94-142.551c51.416-26.416,100.298-60.782,150.662-90.9
			c99.902-59.744,176.591-127.383,205.444-244.502c0.374-1.518,0.734-3.045,1.082-4.58c0.146-0.646,0.282-1.298,0.424-1.947
			c0.194-0.889,0.393-1.775,0.578-2.67c0.172-0.83,0.333-1.668,0.497-2.502c0.142-0.715,0.288-1.427,0.423-2.145
			c0.18-0.951,0.347-1.908,0.517-2.863c0.108-0.606,0.221-1.21,0.325-1.818c0.178-1.044,0.345-2.095,0.512-3.146
			c0.083-0.521,0.17-1.039,0.25-1.562c0.173-1.133,0.335-2.271,0.495-3.409c0.062-0.441,0.128-0.881,0.188-1.323
			c0.164-1.212,0.317-2.43,0.467-3.648c0.045-0.369,0.093-0.738,0.138-1.108c0.152-1.284,0.294-2.572,0.43-3.862
			c0.032-0.307,0.066-0.612,0.099-0.92c0.138-1.354,0.266-2.711,0.385-4.071c0.022-0.242,0.045-0.483,0.066-0.726
			c0.122-1.418,0.232-2.84,0.334-4.264c0.013-0.186,0.028-0.371,0.041-0.557c0.103-1.474,0.194-2.951,0.275-4.432
			c0.008-0.137,0.016-0.273,0.023-0.41c0.082-1.522,0.152-3.049,0.211-4.578c0.004-0.095,0.008-0.189,0.012-0.284
			c0.059-1.568,0.107-3.141,0.143-4.715c0.001-0.053,0.002-0.105,0.004-0.159c0.035-1.608,0.059-3.22,0.07-4.834
			c0-0.021,0-0.041,0-0.062c0.022-3.286-0.007-6.582-0.088-9.886c-0.127-5.188-0.381-10.395-0.762-15.605
			c-0.001-0.021-0.003-0.043-0.005-0.064c-0.379-5.17-0.884-10.344-1.515-15.511c-0.01-0.077-0.019-0.155-0.028-0.231
			c-0.625-5.096-1.375-10.183-2.246-15.252c-0.026-0.151-0.052-0.304-0.078-0.456c-0.211-1.215-0.428-2.43-0.652-3.644
			c-0.014-0.07-0.027-0.142-0.041-0.213c-0.685-3.678-1.436-7.344-2.251-10.994c-0.055-0.246-0.109-0.492-0.165-0.738
			c-0.252-1.116-0.51-2.231-0.775-3.345c-0.059-0.247-0.119-0.493-0.178-0.739c-0.825-3.437-1.71-6.856-2.653-10.256
			c-0.095-0.345-0.189-0.689-0.286-1.033c-0.285-1.013-0.575-2.023-0.87-3.033c-0.115-0.393-0.232-0.783-0.349-1.176
			c-0.947-3.191-1.949-6.362-3.001-9.511c-0.153-0.456-0.303-0.912-0.458-1.367c-0.308-0.906-0.622-1.81-0.939-2.713
			c-0.18-0.512-0.362-1.022-0.545-1.533c-0.318-0.891-0.637-1.78-0.964-2.667c-0.15-0.407-0.306-0.812-0.458-1.219
			c-0.609-1.627-1.233-3.246-1.871-4.858c-0.229-0.577-0.455-1.155-0.688-1.731c-0.321-0.796-0.648-1.589-0.977-2.382
			c-0.255-0.614-0.512-1.227-0.771-1.838c-0.325-0.769-0.65-1.537-0.982-2.302c-0.305-0.701-0.617-1.398-0.928-2.098
			c-0.524-1.18-1.058-2.355-1.599-3.525c-0.329-0.711-0.657-1.424-0.992-2.131c-0.328-0.693-0.661-1.383-0.995-2.071
			c-0.334-0.689-0.671-1.376-1.011-2.062c-0.33-0.666-0.659-1.331-0.995-1.993c-0.417-0.825-0.843-1.645-1.269-2.463
			c-0.441-0.847-0.886-1.69-1.336-2.53c-0.473-0.883-0.947-1.765-1.43-2.641c-0.326-0.592-0.658-1.18-0.989-1.768
			c-0.42-0.748-0.844-1.494-1.272-2.236c-0.333-0.577-0.665-1.153-1.001-1.727c-0.511-0.868-1.028-1.73-1.549-2.592
			c-0.292-0.482-0.582-0.968-0.877-1.448c-0.702-1.141-1.414-2.273-2.133-3.399c-0.318-0.498-0.642-0.991-0.964-1.486
			c-0.511-0.785-1.025-1.568-1.546-2.347c-0.335-0.502-0.672-1.004-1.012-1.503c-0.59-0.868-1.188-1.729-1.79-2.588
			c-0.257-0.367-0.511-0.738-0.771-1.104c-0.831-1.17-1.675-2.329-2.527-3.48c-0.306-0.412-0.616-0.819-0.924-1.229
			c-0.605-0.805-1.214-1.604-1.829-2.398c-0.34-0.439-0.682-0.878-1.025-1.314c-0.665-0.844-1.337-1.681-2.014-2.514
			c-0.269-0.331-0.534-0.665-0.805-0.993c-0.924-1.122-1.859-2.233-2.806-3.333c-0.281-0.326-0.566-0.647-0.85-0.972
			c-0.708-0.812-1.421-1.619-2.142-2.42c-0.348-0.386-0.697-0.771-1.047-1.153c-0.733-0.801-1.473-1.595-2.219-2.382
			c-0.287-0.304-0.57-0.609-0.858-0.91c-1.015-1.059-2.041-2.105-3.078-3.139c-0.25-0.249-0.504-0.492-0.755-0.74
			c-0.818-0.805-1.642-1.604-2.475-2.395c-0.356-0.339-0.715-0.676-1.075-1.012c-0.795-0.743-1.598-1.479-2.406-2.208
			c-0.313-0.282-0.624-0.567-0.939-0.848c-1.103-0.981-2.215-1.95-3.341-2.904c-0.202-0.171-0.408-0.337-0.611-0.508
			c-0.942-0.791-1.893-1.572-2.852-2.344c-0.369-0.297-0.74-0.591-1.112-0.885c-0.855-0.678-1.718-1.347-2.586-2.008
			c-0.344-0.262-0.686-0.525-1.031-0.785c-1.189-0.892-2.388-1.772-3.601-2.635c-0.127-0.091-0.258-0.179-0.385-0.269
			c-1.094-0.773-2.199-1.533-3.312-2.281c-0.381-0.257-0.765-0.509-1.148-0.762c-0.915-0.604-1.835-1.2-2.763-1.788
			c-0.378-0.239-0.754-0.479-1.135-0.717c-1.274-0.793-2.556-1.575-3.854-2.336c-42.533-24.926-88.227-51.495-135.421-66.28
			c-33.842-10.602-67.731,1.483-100.192-17.396c-28.223-16.414-58.702-21.021-87.648-34.478
			c-21.355-9.929-46.239-26.143-31.73-53.12c12.687-23.678,42.381-27.911,63.514-43.003c22.897-16.352,36.665-37.063,55.555-58
			c30.898-34.245,74.364-53.591,119.245-61.343c16.729-2.891,120.104-3.64,124.908-18.504
			c28.731-88.9-230.428-94.933-277.658-99.651c-85.2-8.512-172.343-12.856-256.997,2.874
			c-68.581,12.743-128.64,45.062-190.846,73.861c-0.043,0.02-0.085,0.044-0.129,0.063c-21.95,9.929-34.838,48.439-46.886,80.839
			c-10.773,28.972-24.113,58.856-22.574,90.453c0.646,13.241,3.629,28.871,8.028,41.315c5.116,14.472,17.99,25.569,24.4,39.587
			c6.623,14.484,8.822,30.67,11.977,46c6.649,32.318,3.473,66.023-1.196,97.999c-4.447,30.461-6.643,58.579-3.85,89.209
			c2.046,22.427,14.207,37.464,28.295,54.792c11.067,13.613,24.319,24.509,37.578,36.271
			c30.833,27.351,62.022,46.009,101.422,57.952c15.461,4.687,32.59,7.954,48.833,8.773c16.042,0.811,32.153-0.176,47.945-1
			c8.06-0.42,16.694-1.881,24.752-3.219c39.47-6.553,81.258-9.784,121.248-7.829c16.954,0.829,33.392,1.174,50-2.003
			c30.876-5.908,62.496-13.054,94-14.997c6.87-0.424,14.172-1.265,20.737,1.274c1.371,0.531,2.582,1.424,3.35,2.652
			c0.167,0.269,0.321,0.547,0.442,0.848c0.634,1.57-0.571,2.824-1.864,3.685c-1.422,0.945-3.179,1.485-4.866,1.627
			c-1.289,0.108-2.572,0.113-3.863,0.064c-3.555-0.134-7.135,0.083-10.698,0.003c-3.788-0.086-7.572-0.277-11.36-0.375
			c-2.953-0.076-5.969-0.174-8.902,0.25c-14.01,2.025-27.678,7.185-41.977,10.023c-19.173,3.807-38.428,7.512-57.926,9.189
			c-18.758,1.613-37.46-1.547-55.893-0.119c-42.597,3.3-83.063,15.772-126.182,17.906c-31.583,1.563-67.481,0.082-98.223,5.801
			c-33.833,6.296-54.862,33.252-64.134,64.913c-11.557,39.464-39.795,74.931-66.866,105.311
			c-46.766,52.482-97.774,109.146-126.025,174.976c-16.402,38.221-29.652,77.45-35.804,118.027
			c-2.951,19.465-1.767,42.211,0.028,61.748c1.925,20.938,1.393,41.09,7.829,61.335c6.774,21.31,14.222,42.546,23.659,63.015
			c9.164,19.875,17.874,40.068,27.261,59.898c14.82,31.307,32.627,62.146,43.274,94.974c9.078,27.986,18.056,56.007,27.531,83.862
			c29.702,87.316,95.489,207.735,200.464,212.787c30.085,1.448,56.927-6.606,86.005-11.649c14.359-2.491,28.758-3.125,43-5.922
			c13.593-2.67,25.958-8.642,39.052-14.048c22.83-9.426,45.832-18.043,66.525-31.175c22.215-14.097,48.564-24.724,73.419-33.078
			c72.338-24.315,138.071-73.435,200.028-116.751c9.579-6.697,19.354-13.33,28.923-20.219c13.744-9.895,28.306-19.141,41.235-30.105
			c11.129-9.438,19.249-22.16,29.208-32.912c22.686-24.494,48.27-46.068,73.386-67.982c26.689-23.287,50.973-49.979,77.274-74.555
			c21.912-20.476,46.008-38.682,68.196-58.976c10.836-9.911,22.386-19.543,33.534-28.499c5.294-4.253,10.674-8.45,16.552-11.877
			c2.934-1.711,5.978-2.944,9.068-4.306c2.561-1.128,5.381-1.975,8.222-1.391c1.683,0.347,2.264,1.53,2.393,2.932l238.831-191.807
			C1954.768,7739.555,1944.927,7725.538,1934.498,7712.548z" color="14837888" style="fill:#e26880;fill-opacity:1;stroke-width:10;stroke:rgb(0,0,0)"></path><path id="157963758" parent_id="157963753" order="2" structure_id="12125" d="
			M6142.668,7030.525c-47.783,125.045,71.514,227.408,168.777,281.037c52.133,28.744,104.047,54.703,153.505,88.933
			c45.802,31.699,90.003,62.579,130.545,101.01c19.001,18.012,38.053,40.028,51.01,62.449
			c30.946,53.554,33.117,91.046,0.037,144.594c-13.996,22.655-45.741,54.767-73.343,58.081
			c-30.912,3.712-53.523-18.86-71.422-40.574c-18.084-21.938-37.469-43.738-53.721-66.983
			c-16.639-23.797-29.682-49.827-44.304-74.853c-23.719-40.594-55.532-74.973-85.901-110.114
			c-31.674-36.65-68.477-68.864-108.858-95.606c-98.808-65.435-206.29-122.596-313.993-172.003
			c-60.748-27.867-121.941-57.146-182-84.549c-33.562-15.312-67.618-29.286-102-43.451c-39.371-16.221-82.038-24.178-122.857-35.935
			c-38.86-11.192-76.826-25.873-115.3-38.726c-81.841-27.339-165.709-51.236-251.843-59.835c-65.072-6.496-131.601-0.51-196,5.896
			c-3.736,0.372-7.483,0.734-11.241,1.086c-3.588,0.336-7.187,0.662-10.791,0.979c-0.165,0.015-0.328,0.03-0.493,0.045
			l257.644,353.138c30.473-7.149,103.841,17.153,115.905,21.607c38.73,14.297,75.397,32.882,113.199,49.497
			c56.687,24.916,113.168,41.408,163.777,78.724c13.896,10.245,26.872,18.173,43,25.028c23.595,10.029,49.215,11.381,74.047,16.449
			c26.669,5.444,43.79,20.75,67.977,31.325c15.057,6.583,32.344,9.339,48.028,15.222c56.565,21.217,110.144,48.194,165.277,72.715
			c20.382,9.064,50.946,14.179,65.661,31.821c12.854,15.412,16.639,40.6,14.982,60.152c-1.608,18.964-16.297,32.648-25.061,48.497
			c-10.077,18.224-7.174,40.066-18.915,57.817c-25.697,38.853-81.237,32.04-116.774,54.249
			c-13.246,8.277-23.528,25.047-29.392,39.236c-6.494,15.716-14.384,30.819-21.088,46.602
			c-19.928,46.912-34.676,92.362-45.673,141.085c-19.598,86.825-42.35,191.716,5.095,273.63
			c19.662,33.943,57.942,45.124,93.49,54.444C5915.097,8434.11,5957.483,8456,6001,8456c32.664,0,67.573,2.814,100,0.023
			c9.855-0.849,20.682-2.328,29.945-4.078c106.393-20.116,211.873-36.823,314.681-74.566
			c52.467-19.262,99.308-52.043,151.501-71.047c44.59-16.234,81.805-34.02,119.812-64.814c33.855-27.429,67.47-56.17,98.412-87.152
			c63.879-63.961,125.751-144.748,175.542-220.184c56.995-86.352,101.477-180.988,131.147-280.124
			c18.523-61.892,25-128.686,19.141-192.997c-2.764-30.337-10.325-59.97-15.399-89.716c-4.73-27.729-24.35-59.373-45.837-77.094
			c-58.164-47.968-140.617-54.456-209.13-79.147c-45.167-16.277-90.517-32.142-136.608-45.627
			c-21.292-6.23-40.32-6.651-61.74-10.553c-22.792-4.15-44.984-11.521-66.443-20.146c-30.046-12.077-55.831-20.949-87.027-26.996
			c-14.459-2.803-31.648-4.76-45.215-9.562c-5.814-2.058-37.075-12.723-29.869-20.224l-291.013-74.985
			C6149.219,7014.529,6145.792,7022.351,6142.668,7030.525z" color="11243864" style="fill:#ab9158;fill-opacity:1;stroke-width:10;stroke:rgb(0,0,0)"></path><path id="157963761" parent_id="157963753" order="3" structure_id="12124" d="
			M4896.97,6952.473c-1.837,0.155-3.672,0.312-5.512,0.463c-1.854,0.15-3.712,0.293-5.57,0.438c-1.826,0.143-3.651,0.285-5.48,0.422
			c-1.864,0.139-3.73,0.271-5.598,0.404c-1.839,0.13-3.678,0.259-5.519,0.383c-1.854,0.124-3.707,0.245-5.562,0.363
			c-1.879,0.119-3.758,0.233-5.638,0.346c-1.821,0.107-3.642,0.215-5.465,0.316c-1.954,0.109-3.909,0.209-5.865,0.31
			c-1.752,0.09-3.504,0.182-5.258,0.265c-2.145,0.102-4.289,0.19-6.435,0.281c-1.567,0.066-3.134,0.139-4.702,0.198
			c-3.613,0.139-7.227,0.263-10.841,0.369c-1.12,0.032-2.239,0.054-3.358,0.083c-2.607,0.068-5.215,0.136-7.82,0.186
			c-1.497,0.029-2.993,0.047-4.49,0.069c-2.235,0.034-4.47,0.066-6.702,0.087c-1.581,0.014-3.159,0.019-4.738,0.025
			c-2.159,0.01-4.317,0.015-6.474,0.01c-1.594-0.004-3.186-0.013-4.777-0.023c-2.158-0.016-4.314-0.039-6.469-0.068
			c-1.565-0.022-3.13-0.045-4.692-0.075c-2.226-0.042-4.447-0.097-6.669-0.155c-1.475-0.039-2.949-0.075-4.422-0.121
			c-2.45-0.077-4.894-0.173-7.337-0.271c-1.231-0.05-2.465-0.091-3.694-0.146c-3.668-0.164-7.329-0.348-10.979-0.562
			c-54.203-3.173-108.522-17.165-161.897-27.965c-26.815-5.426-54.363-9.694-80.451-13.659
			c-55.283-8.404-108.931-11.562-163.555-20.399c-65.179-10.544-131.046-7.147-198-10.491
			c-118.44-5.914-230.773-15.494-346.022,17.777c-68.679,19.827-136.815,50.738-190.778,97.889l233.063,195.473
			c5.856-3.427,16.968,2.666,21.663,4.723c5.221,2.288,10.298,4.871,15.389,7.26c12.077,5.663,23.514,11.212,35.019,17.974
			c15.854,9.318,30.934,18.886,45.317,30.46c42.371,34.094,84.773,68.844,117.572,112.664c14.302,19.107,28.959,41.22,36.861,63.761
			c8.146,23.237,25.172,41.089,38.944,61.466c31.603,46.755,52.837,100.853,76.786,151.745
			c35.116,74.626,65.936,151.979,90.25,230.813c7.63,24.74,17.845,50.896,14.753,77.27c-3.15,26.873-6.636,55.651-7.841,82.949
			c-0.995,22.535-0.594,45.232-0.02,67.776c0.535,21.001-5.885,40.179-10.925,60.45c-9.627,38.721-25.375,75.282-42.526,111.188
			c-23.471,49.135-50.305,95.168-68.072,147.247c-13.56,39.742-21.672,81.144-36.857,120.376
			c-19.429,50.195-32.891,90.283-21.584,143.192c14.055,65.771,68.965,110.777,128.316,135.953
			c69.828,29.619,156.571,36.22,231.715,36.04c40.956-0.098,81.932-1.336,122.761-4.655c37.552-3.053,75.134-13.61,111.938-22.341
			c40.511-9.611,85.335-12.779,123.886-29.034c34.585-14.583,68.406-29.282,104.247-40.773
			c39.576-12.688,76.753-26.305,115.196-42.248c60.746-25.192,122.442-48.017,183.175-73.243
			c58.745-24.401,112.785-58.919,167.773-90.956c16.594-9.668,32.771-19.73,49-29.944c42.917-27.01,83.12-58.133,115.136-97.591
			c61.059-75.25,90.416-169.259,94.882-265.222c2.198-47.235-0.602-95.353-8.96-141.889c-8.77-48.828-7.431-102.962-23.343-150.094
			c-11.244-33.303-29.238-63.846-47.66-93.595c-18.183-29.362-37.939-54.296-59.304-81.466
			c-34.765-44.215-70.286-87.097-106.974-129.897c-18.024-21.028-39.54-42.245-60.568-60.267
			c-37.363-32.019-81.969-61.198-122.018-89.554c-36.244-25.664-82.616-41.516-103.002-84.385
			c-7.305-15.361-1.941-22.918,9.929-25.703l-257.644-353.138c-0.006,0.001-0.011,0.002-0.017,0.002
			C4900.632,6952.167,4898.8,6952.317,4896.97,6952.473z M5024.805,7865.669c16.811,31.856,30.693,65.118,45.26,98.028
			c20.498,46.312,51.091,94.264,47.619,147.057c-4.21,64.032-41.891,134.92-95.173,171.15
			c-14.362,9.767-30.797,17.812-47.294,23.293c-32.606,10.834-64.874,18.318-98.212,26.593
			c-34.63,8.597-69.108,17.989-103.995,25.52c-26.433,5.706-58.812,8.114-77.42-15.738c-18.75-24.036-10.183-61.255-5.697-88.663
			c5.61-34.284,9.545-70.134,15.701-105.254c4.194-23.926,9.419-47.514,16.907-70.037c11.422-34.356,23.227-63.745,26.628-100.174
			c3.732-39.988,6.256-80.084,6.855-120.25c0.821-54.99,0.524-111.539-24.565-161.873c-6.415-12.871-19.009-30.392-14.825-45.689
			c4.121-15.066,27.046-13.114,40.529-12.438c39.441,1.978,74.755,24.457,104.846,48.212c29.395,23.204,57.969,48.042,86.516,72.295
			C4984.316,7788.141,5003.234,7824.793,5024.805,7865.669z" color="13285249" style="fill:#cab781;fill-opacity:1;stroke-width:10;stroke:rgb(0,0,0)"></path><path id="157963762" parent_id="157963753" order="4" structure_id="12123" d="
			M3537.496,7066.397c-18.371,28.296-34.311,59.286-44.502,91.603c-19.14,60.689-27.345,124.954-8.431,186
			c10.111,32.633,25.001,60.946,47.066,86.92c22.102,26.017,35.324,58.98,57.531,85.875c23.888,28.93,48.468,57.417,72.821,86.032
			c22.491,26.429,48.975,49.927,61.122,82.703c16.264,43.883,30.558,114.119-27.997,132.47
			c-56.755,17.783-137.223-0.26-194.208-11.89c-77.594-15.836-157.168-29.032-235.45-40.555
			c-65.359-9.621-128.94-5.402-186.891,28.451c-92.135,53.822-142.102,126.69-175.61,226.032
			c-15.785,46.809-23.63,100.603-30.957,151.752l479.273,80.212c0.027-0.089,0.052-0.179,0.093-0.266
			c0.469-0.999,1.658-1.431,2.66-0.962c4.537,2.127,15.105,6.727,28.485,12.552c46.77,20.358,125.047,54.433,145.025,68.702
			c0.899,0.643,1.107,1.892,0.465,2.79c-0.295,0.413-0.719,0.68-1.177,0.785l275.69,417.677c6.565-2.951,13.928-4.839,22.497-5.281
			c17.102-0.883,32.008,6.26,48,10.219c17.573,4.351,35.461,5.146,53.221,0.031c31.246-9,58.06-26.503,83.995-45.827
			c26.468-19.722,69.778-45.169,80.538-78.423c4.846-14.976,6.488-31.176,7.27-46.977c1.578-31.93,0.729-66.161,10.977-96.023
			c9.865-28.747,26.675-54.439,37.977-82c11.846-28.886,19.078-61.172,32.974-88.959c14.356-28.711,37.264-51.866,49.827-82.041
			c5.842-14.03,8.68-28.818,12.171-43c6.515-26.46,14.301-52.416,17.224-79.562c5.91-54.914,8.085-112.014,3.961-166.898
			c-4.378-58.254-24.09-113.731-36.185-170.539c-6.507-30.562-17.605-59.879-30.163-88.417
			c-12.021-27.317-26.915-51.349-41.003-77.397c-27.227-50.342-43.597-107.287-81.73-151.162
			c-9.998-11.504-21.346-21.071-29.829-33.246c-4.605-6.608-7.872-14.498-11.469-21.775c-7.7-15.576-17.371-29.333-27.94-42.972
			c-6.773-8.741-13.844-17.252-21.192-25.516c-26.089-29.342-55.549-55.132-87.92-77.317c-6.393-4.382-12.83-8.702-19.176-13.152
			c-11.172-7.835-22.093-16.02-32.143-25.272c-4.317-3.975-21.949-17.631-17.291-24.966c0.591-0.93,1.326-1.62,2.17-2.113
			L3596.2,6999.221C3573.888,7018.716,3553.996,7040.983,3537.496,7066.397z" color="13285249" style="fill:#cab781;fill-opacity:1;stroke-width:10;stroke:rgb(0,0,0)"></path><path id="157963759" parent_id="157963753" order="5" structure_id="12122" d="
			M3526.361,8335.657c-0.402,0-0.809-0.121-1.161-0.372c-19.636-14.025-100.73-49.326-144.297-68.291
			c-13.408-5.837-23.999-10.446-28.587-12.598c-0.913-0.428-1.343-1.456-1.055-2.394l-479.273-80.212
			c-1.658,11.578-3.29,23.021-4.981,34.216c-9.832,65.087-5.409,131.78,3.89,196.097c8.562,59.223,23.862,122.166,42.046,179.85
			c10.492,33.283,20.718,65.02,30.548,98.047c10.705,35.967,27.698,75.846,18.637,113.639
			c-9.075,37.852-39.806,70.098-62.753,100.13c-29.63,38.776-60.276,73.761-98.322,104.724
			c-119.768,97.473-234.181,195.719-343.288,304.408c-51.334,51.137-100.307,104.614-152.508,154.887
			c-48.493,46.701-99.858,79.895-156.154,116.16c-19.002,12.241-109.6,86.986-114.784,29.526
			c-2.698-29.911,25.958-67.139,41.141-90.993c67.534-106.109,152.931-199.402,219.994-306.382
			c49.958-79.691,92.621-164.96,79.803-261.939c-5.968-45.15-30.581-74.913-55.108-111.161
			c-24.578-36.322-53.688-66.914-97.258-78.943c-1.82-0.502-3.651-1.001-5.489-1.497c-0.28-0.075-0.559-0.151-0.839-0.228
			c-1.782-0.479-3.572-0.955-5.37-1.427c-0.295-0.078-0.591-0.155-0.886-0.232c-1.854-0.485-3.715-0.968-5.586-1.444
			c-0.103-0.026-0.206-0.053-0.309-0.078c-1.945-0.496-3.897-0.986-5.858-1.471c-0.062-0.016-0.123-0.031-0.185-0.046
			c-1.962-0.484-3.933-0.963-5.909-1.436c-0.18-0.043-0.36-0.087-0.541-0.13c-1.981-0.472-3.968-0.938-5.963-1.398
			c-0.091-0.021-0.182-0.041-0.272-0.062c-4.157-0.956-8.344-1.883-12.556-2.775c-0.016-0.004-0.032-0.007-0.048-0.01
			c-2.114-0.448-4.234-0.887-6.361-1.316c-0.042-0.009-0.083-0.017-0.125-0.025c-15.037-3.035-30.36-5.603-45.764-7.463
			c-0.003-0.001-0.007-0.002-0.011-0.002l-72.459,257.23c11.903-0.781-0.368,21.012-7.384,27.508
			c-25.188,23.321-44.792,52.835-67.425,78.661c-24.456,27.906-49.771,55.045-74.327,82.861
			c-18.073,20.471-36.032,41.614-49.239,65.649c-6.268,11.406-10.188,23.761-16.436,34.963
			c-7.262,13.021-15.182,25.718-22.701,38.594c-28.529,48.846-62.268,94.316-93.663,141.3
			c-31.627,47.333-57.479,94.427-78.937,147.22c-16.508,40.617-29.454,83.335-38.276,126
			c-11.269,54.492-25.043,103.902-6.129,158.873c18.556,53.932,56.651,100.691,107.367,127.322
			c37.846,19.873,80.602,25.713,122.833,21.599c59.557-5.802,117.992-19.324,175.735-34.045
			c40.656-10.364,78.025-23.351,117.223-38.526c48.916-18.938,96.567-40.939,143.63-64.059
			c41.491-20.383,80.278-49.473,123.37-66.168c38.123-14.77,74.664-29.353,111.487-46.945c40.438-19.32,74.618-50.034,112.49-73.685
			c40.401-25.23,75.35-57.894,114.764-84.51c45.583-30.782,91.481-61.099,137.677-90.952
			c57.465-37.136,117.424-68.451,173.121-108.677c40.367-29.153,82.63-55.677,122.685-85.237
			c89.564-66.102,158.816-155.48,245.805-224.713c42.996-34.22,80.401-74.618,115.914-116.082
			c16.844-19.667,35.608-37.587,55.089-54.611c19.215-16.793,42.05-28.869,61.969-44.83c15.678-12.562,30.393-25.442,45.777-38.003
			c26.166-21.363,49.691-43.442,72-68.803c16.668-18.948,29.306-38.488,49.726-47.667l-275.69-417.677
			C3526.665,8335.639,3526.514,8335.657,3526.361,8335.657z" color="13285249" style="fill:#cab781;fill-opacity:1;stroke-width:10;stroke:rgb(0,0,0)"></path><path id="157963765" parent_id="157963753" order="6" structure_id="12121" d="
			M2120.798,8733.012c-1.449-0.176-2.899-0.344-4.351-0.506c-0.025-0.004-0.051-0.006-0.076-0.01
			c-7.347-0.82-14.708-1.476-22.061-1.94c-0.002,0-0.005,0-0.008-0.001c-1.417-0.089-2.833-0.171-4.249-0.246
			c-0.126-0.006-0.252-0.013-0.378-0.02c-1.314-0.068-2.628-0.131-3.941-0.186c-0.155-0.007-0.31-0.014-0.464-0.021
			c-1.33-0.055-2.66-0.103-3.989-0.145c-0.105-0.003-0.211-0.007-0.316-0.011c-5.781-0.176-11.547-0.224-17.291-0.131
			c-0.204,0.003-0.409,0.008-0.613,0.012c-1.188,0.021-2.374,0.049-3.56,0.082c-0.298,0.008-0.596,0.018-0.894,0.027
			c-1.109,0.033-2.218,0.073-3.326,0.119c-0.317,0.013-0.636,0.025-0.953,0.039c-1.115,0.049-2.229,0.104-3.342,0.164
			c-0.287,0.016-0.574,0.029-0.86,0.046c-1.237,0.07-2.472,0.148-3.705,0.232c-0.149,0.011-0.299,0.019-0.448,0.029
			c-2.821,0.197-5.634,0.433-8.436,0.707c-0.204,0.021-0.406,0.042-0.61,0.063c-1.152,0.115-2.303,0.236-3.452,0.365
			c-0.373,0.041-0.745,0.086-1.118,0.129c-0.981,0.114-1.96,0.232-2.938,0.356c-0.433,0.055-0.866,0.111-1.298,0.169
			c-0.926,0.121-1.851,0.248-2.775,0.379c-0.448,0.063-0.896,0.127-1.344,0.193c-0.924,0.136-1.847,0.277-2.768,0.423
			c-0.428,0.067-0.856,0.133-1.283,0.202c-1.005,0.164-2.007,0.336-3.008,0.51c-0.333,0.059-0.667,0.113-0.999,0.173
			c-2.673,0.478-5.333,0.997-7.979,1.559c-0.369,0.078-0.736,0.161-1.104,0.241c-0.939,0.204-1.877,0.411-2.812,0.626
			c-0.473,0.108-0.943,0.222-1.415,0.333c-0.831,0.195-1.661,0.395-2.489,0.6c-0.507,0.125-1.012,0.254-1.518,0.383
			c-0.798,0.203-1.595,0.411-2.391,0.623c-0.509,0.135-1.017,0.271-1.524,0.41c-0.805,0.22-1.607,0.446-2.409,0.675
			c-0.485,0.139-0.971,0.275-1.454,0.417c-0.869,0.255-1.735,0.518-2.601,0.783c-0.408,0.125-0.818,0.246-1.226,0.373
			c-1.268,0.397-2.532,0.803-3.792,1.223c-86.408,28.791-170.358,93.045-239.346,151.043
			c-70.23,59.044-133.638,124.57-202.784,184.887c-36.8,32.102-73.053,68.532-103.999,105.561
			c-45.176,54.057-80.634,106.702-106.602,171.994c-12.633,31.762-28.435,62.252-41.509,94.053
			c-8.109,19.723-16.472,39.047-25.495,58.502c-21.322,45.975-35.176,96.361-53.996,143.544
			c-8.514,21.344-46.679,123.467-76.561,74.008c-13.525-22.386-8.361-64.485-11.935-90.061
			c-5.237-37.486-9.679-70.306-0.255-106.653c7.924-30.564,12.678-63.509,17.437-94.779
			c16.267-106.885,44.603-215.334,76.754-318.664c8.003-25.719,16.932-53.295,24.555-79.896
			c13.762-48.024,17.002-96.723,36.106-143.501c19.376-47.444,45.421-92.197,77.42-132.244
			c50.659-63.398,128.237-104.806,194.025-150.205c41.472-28.615,79.273-61.856,117.132-94.997
			c60.94-53.345,131.559-104.264,179.566-170.207c33.626-46.189,67.872-95.621,96.801-145.338
			c51.513-88.529,97.159-191.341,80.006-297.062c-8.247-50.834-28.885-102.945-56.707-148.142l-238.831,191.807
			c0.12,1.309-0.153,2.807-0.305,3.999c-0.423,3.316-2.306,6.641-4.19,9.329c-4.171,5.95-10.017,10.538-15.703,14.955
			c-2.052,1.594-4.119,3.169-6.122,4.825c-12.426,10.277-21.323,24.204-32.696,35.535c-15.049,14.992-25.347,33.898-41.105,48.241
			c-16.414,14.938-31.985,31.265-47.84,47.009c-23.635,23.469-43.9,47.602-70.833,68.245
			c-27.812,21.318-53.432,46.862-82.445,67.528c-17.537,12.491-33.923,26.523-51.562,38.875
			c-15.697,10.991-32.888,18.746-49.212,28.57c-30.304,18.237-58.844,38.821-88.781,57c-50.599,30.726-99.6,64.63-152,92.051
			c-14.073,7.364-28.217,15.146-42.226,22.504c-18.285,9.604-37.6,18.152-55.219,28.225
			c-60.256,34.446-119.861,66.363-163.088,122.943c-31.743,41.549-56.534,85.232-71.935,135.276
			c-9.423,30.617-12.17,60.068-14.755,91.806c-2.756,33.842-1.449,69.212,0.127,103.108c1.465,31.505,11.875,61.955,11.87,93.864
			c-0.003,16.371-3.41,34.257-7.215,50c-9.127,37.75-17.632,75.479-30.038,112.279c-12.434,36.884-26.333,73.577-33.491,111.964
			c-6.759,36.246-0.807,76.552,4.306,112.739c14.408,101.996,45.072,200.972,66.398,301.59
			c9.831,46.385,16.426,93.391,26.579,139.699c7.552,34.442,18.54,68.179,33.312,100.213c13.464,29.195,34.471,55.855,53.93,81.487
			c15.073,19.854,27.63,41.647,46.262,58.534c22.077,20.006,56.528,35.457,84.958,44.271c19.01,5.895,39.358,10.347,58.951,13.274
			c32.199,4.812,66.514,5.104,99.052,1.944c16.575-1.609,32.661-3.785,49-7.023c46.567-9.225,91.643-25.371,135.617-43.797
			c60.07-25.17,113.618-55.871,159.852-101.823c13.701-13.618,28.045-24.941,34.288-43.946
			c14.859-45.238,20.584-97.146,27.881-144.137c7.588-48.867,7.866-98.342,12.672-147.475
			c4.608-47.098,21.331-91.732,37.687-135.795c12.565-33.852,28.015-66.566,47.733-97c38.703-59.736,80.298-115.587,122.025-173.977
			c29.36-41.086,71.278-69.784,101.472-109.777c20.873-27.648,44.682-51.863,65.496-79.469
			c20.127-26.693,34.876-58.325,59.278-81.777c11.172-10.737,24.18-23.769,38.249-29.751c2.99-1.271,5.317-1.888,7.11-2.005
			l72.459-257.23C2120.812,8733.013,2120.805,8733.012,2120.798,8733.012z" color="12100205" style="fill:#b8a26d;fill-opacity:1;stroke-width:10;stroke:rgb(0,0,0)"></path><path id="157963755" parent_id="157963753" order="7" structure_id="12117" d="
			M5666.97,4428.822c40.714,75.512,96.165,185.493,171.695,230.115c43.302,25.583,78.621,18.053,122.349,8.177
			c-0.059-1.006,0.641-1.917,1.657-2.086c31.365-5.228,77.157-20.27,117.559-33.542c20.787-6.829,40.422-13.278,55.232-17.412
			c36.28-10.125,264.781-65.416,367.085-85.243l0.002,0c25.512-4.777,50.337-11.697,75.728-16.833
			c27.152-5.493,54.771-8.519,81.724-15.026c30.936-7.469,64.131-13.625,97-9.975c23.771,2.64,46.474,10.585,68.124,20.48
			c18.892,8.634,36.87,22.005,55.896,29.427c21.505,8.388,45.763,12.394,67.764,20.31c49.141,17.68,97.772,31.601,148.672,43.198
			c36.021,8.208,70.939,20.794,107.628,26.085c28.16,4.062,67.731,10.321,92.115-8.222c55.596-42.278,73.371-131.527,66.749-197.274
			c-2.765-27.447-8.725-56.642-5.94-84.275c2.494-24.757,5.962-49.971,9.94-74.725c1.498-9.32,3.168-19.128,2.104-28.999
			c-1.472-13.644-8.049-26.706-10.618-40.106c-5.204-27.14-12.096-54.449-17.708-81.641c-4.552-22.056-10.376-43.379-15.972-65.226
			c-8.984-35.084-16.748-71.627-33.002-104.055c-7.866-15.696-14.05-32.615-22.475-48.025
			c-18.911-34.592-44.202-67.645-66.273-100.591c-36.736-54.838-81.605-97.384-132.059-139.135
			c-11.504-9.52-22.337-19.055-33.699-28.5c-16.567-13.771-33.549-27.094-50.497-40.474c-26.578-20.984-56.689-26.253-89.749-26.248
			c-19.106,0.003-37.093,2.63-55.754,5.028c-40.266,5.177-76.172,24.079-116.223,29.995c-32.529,4.805-64.271,15.59-96,24.005
			c-23.014,6.104-44.723,14.468-68.151,19.439c-38.656,8.203-77.591,14.898-116.649,20.755c-31.717,4.755-62.787,6.086-96.223,7.777
			c-16.578,0.839-33.994,1.39-50,6.003c-24.746,7.132-45.537,25.553-71.568,28.804c-24.185,3.02-48.35,2.573-72.463,6.937
			c-24.149,4.371-47.461,12.252-70.918,19.285c-32.803,9.835-65.077,22.92-96.074,37.724c-18.729,8.945-36.666,17.461-53.977,29.029
			c-42.876,28.65-85.932,56.862-125.994,89.638c-12.297,10.061-26.972,17.125-39.357,27.614
			c-13.42,11.366-25.836,23.854-38.378,36.163c-27.264,26.755-53.298,54.725-80.399,81.641
			c-17.058,16.94-32.896,34.465-48.565,52.705c-8.862,10.317-19.237,25.963-33.646,28.585c-2.515,0.458-4.57,0.41-6.251-0.018
			C5529.602,4213.751,5620.158,4342,5666.97,4428.822z" color="12755765" style="fill:#c2a335;fill-opacity:1;stroke-width:10;stroke:rgb(0,0,0)"></path><path id="157963757" parent_id="157963753" order="8" structure_id="12117" d="
			M7482.945,5659c-7.232-44.326-16.382-88.672-32.152-130.839c-14.271-38.155-27.596-76.021-56.016-106.161
			c-23.802-25.243-55.793-39.666-88.777-49.219c-16.007-4.636-32.623-5.561-49-8c-14.441-2.151-27.945-8.353-42.432-10.357
			c-13.068-1.809-26.344-0.828-39.453,0.329c-28.913,2.552-58.063,8.281-84.336,21.024c-31.114,15.09-59.599,32.206-87.834,53
			c-14.061,10.354-28.669,19.064-43.949,27.47c-9.548,5.253-19.122,10.295-28.996,14.753c-49.968,22.561-100.966,44.9-152.908,64.18
			c-49.264,18.285-95.524,43.902-144.092,62.043c-10.512,3.927-20.678,8.038-31,12c-36.125,13.864-75.765,25.326-114,31
			c-16.203,2.404-31.712,4.334-47.999,6.78c-38.444,5.774-77.351,12.139-115.978,16.021c-10.719,1.077-21.437,1.422-32.023,1.977
			c-10.6,0.556-21.383,0-32,0c-33.059,0-67.922-2.804-100.948-6.052c-23.695-2.33-48.239-3.462-72.052-4.948
			c-34.637-2.162-66.558-7.319-100-14.055c-18.182-3.662-36.639-7.138-55-10.974c-13.51-2.822-27-5.79-40.416-9.032
			c-5.552-1.342-11.092-2.729-16.617-4.176c-5.36-1.402-10.706-2.857-16.037-4.365c-18.553-5.246-36.965-11.161-54.908-18.229
			c-16.655-6.562-32.605-14.744-49.209-21.422c-6.796-2.733-13.754-5.039-20.748-7.206c-5.445-1.688-11.036-2.827-16.558-4.228
			c-4.812-1.22-9.964-2.482-13.952-5.588c-2.123-1.652-3.089-3.885-2.439-6.597c0.222-0.928,0.597-1.693,1.139-2.39
			l-257.218-213.461c-6.433,3.576-12.771,7.322-18.996,11.257c-14.464,9.143-28.282,19.302-41.38,30.31
			c-49.317,41.447-90.307,95.887-109.549,157.869c-9.463,30.479-13.315,62.712-9.841,94.502
			c3.555,32.518,12.136,55.226,29.977,82.781c8.075,12.473,18.054,23.632,28.753,34.026c28.527,27.712,61.77,50.541,94.977,72.699
			c16.01,10.683,33.118,19.635,50.023,29.026c28.258,15.698,54.189,26.52,84.871,35.65c123.483,36.75,257.795,65.092,385.129,82.601
			c99.78,13.721,200.88,11.896,301.36,12.299c44.507,0.179,89.095-0.381,133.338-5.702c42.761-5.144,84.874-14.635,127.479-20.84
			c68.408-9.963,136.821-20.035,204.834-32.466c66.441-12.144,130.616-34.284,196.99-46.505
			c29.936-5.513,98.488-20.266,119.476,11.256c34.739,52.2-66.45,131.973-101.485,154.958
			c-45.461,29.827-97.635,49.436-150.696,60.368c-54.757,11.281-105.209,31.578-162.644,35.07
			c-72.164,4.387-142.416-3.438-214.651-3.438c-133.313,0-265.632,4.748-398.872-1.37c-87.436-4.015-173.924-16.359-261.129-20.676
			c-52.215-2.585-100.193-6.431-150-11.954c-66.925-7.422-121.381,2.582-182,28.495c-24.796,10.6-53.687,30.163-68,53.498
			c-29.824,48.622,3.16,116.856,22.118,162.918c0.005,0.013,0.01,0.024,0.015,0.035c0.009,0.021,0.018,0.04,0.025,0.061
			c0.005,0.013,0.011,0.025,0.016,0.038c54.835,142.164,188.92,199.043,323.825,240.955c44.37,13.784,89.244,25.93,134.378,36.942
			c156.793,38.257,315.925,60.655,476.188,78.332c119.077,13.134,238.074,30.275,357.857,36.296
			c53.216,2.675,106.514,3.124,159.577,8.43c38.938,3.894,106.1,10.912,117.509,58.046
			c29.808,123.177-373.955,36.562-426.564,38.844c-137.021,5.94-281.387,40.057-345.045,170.12l291.013,74.985
			c0.676-0.704,1.682-1.38,3.088-2.019c12.148-5.514,35.903,3.891,47.052,7.995c14.612,5.38,29.334,9.999,43.948,14.251
			c15.154,4.408,29.757,11.663,45,16.023c16.103,4.605,33.341,3.747,49,8.508c31.086,9.452,62.949,17.791,93.777,26.465
			c12.421,3.495,26.421,6.91,39.219,10.781c22.972,6.947,46.37,9.185,69.213,14.838c29.998,7.424,59.935,15.593,90.05,22.222
			c30.316,6.672,62.126-0.092,92.741-0.06c32.167,0.033,63.879,8.527,94.055,4.055c30.781-4.563,59.313-36.194,81.204-56.42
			c25.621-23.672,48.155-50.421,70.113-77.451c41.066-50.554,78.082-97.36,97.983-161.347c12.295-39.531,7.371-81.012,7.823-121.661
			c0.482-43.404,4.64-86.911-0.184-130.218c-4.907-44.061-9.411-88.234-10.647-132.575c-0.565-20.29-2.368-37.481,1.993-57.801
			c4.603-21.448,11.602-42.519,12.659-64.582c0.91-18.988-4.062-30.87-9.996-48c-5.446-15.721-7.451-31.076-12.25-47
			c-9.236-30.652-19.678-72.396-4.906-102.243c15.301-30.915,39.73-56.352,54.186-87.748c26.723-58.049,51.3-122.678,66.317-185.014
			c9.728-40.375,12.484-79.945,16.598-120.995c1.726-17.224,3.395-34.375,4.274-52
			C7487.914,5726.126,7488.377,5692.293,7482.945,5659z M6482.73,6447.956c-0.999,0.013-2.15,0.02-3.433,0.02
			c-23.74,0-94.38-2.177-151.721-3.943c-35.264-1.087-65.719-2.025-76.249-2.176c-15.822-0.237-28.134,1.701-38.028,3.248
			c-7.829,1.226-14.01,2.188-19.091,1.619c-1.098-0.124-1.887-1.114-1.763-2.212c0.124-1.099,1.123-1.891,2.212-1.763
			c4.537,0.511,10.491-0.418,18.023-1.596c10.044-1.572,22.558-3.525,38.703-3.297c10.563,0.151,41.034,1.09,76.315,2.177
			c60.4,1.862,135.56,4.189,154.978,3.923c0.009,0,0.018,0,0.027,0c1.092,0,1.984,0.878,1.999,1.974
			C6484.719,6447.034,6483.835,6447.941,6482.73,6447.956z" color="12755765" style="fill:#c2a335;fill-opacity:1;stroke-width:10;stroke:rgb(0,0,0)"></path><path id="157963756" parent_id="157963753" order="9" structure_id="12116" d="
			M2744.68,2851.136c0.199,0.048,0.399,0.093,0.599,0.141c2.804,0.67,5.615,1.315,8.431,1.943c0.541,0.12,1.081,0.242,1.621,0.361
			c2.941,0.646,5.888,1.271,8.842,1.871c0.437,0.089,0.874,0.173,1.311,0.261c2.723,0.546,5.45,1.072,8.183,1.579
			c0.432,0.08,0.863,0.163,1.295,0.242c2.966,0.543,5.938,1.061,8.915,1.557c0.556,0.093,1.112,0.183,1.668,0.273
			c2.863,0.469,5.729,0.921,8.601,1.347c0.191,0.028,0.381,0.059,0.572,0.087c3.011,0.444,6.027,0.858,9.047,1.255
			c0.611,0.08,1.222,0.159,1.833,0.237c3.036,0.39,6.076,0.763,9.119,1.104c0.05,0.006,0.1,0.011,0.15,0.016
			c2.992,0.335,5.988,0.642,8.985,0.932c0.601,0.058,1.201,0.117,1.801,0.173c3.006,0.281,6.013,0.544,9.024,0.779
			c0.39,0.031,0.781,0.058,1.171,0.087c2.762,0.211,5.525,0.402,8.29,0.574c0.532,0.033,1.064,0.069,1.597,0.102
			c2.995,0.179,5.992,0.335,8.99,0.469c0.558,0.025,1.116,0.046,1.673,0.069c2.774,0.117,5.548,0.216,8.323,0.294
			c0.364,0.01,0.728,0.024,1.092,0.034c3.008,0.079,6.016,0.132,9.024,0.166c0.637,0.008,1.274,0.012,1.912,0.018
			c3.04,0.025,6.079,0.035,9.118,0.015c0.003,0,0.006,0,0.009,0c3.045-0.021,6.09-0.072,9.134-0.139
			c0.652-0.014,1.304-0.028,1.955-0.045c3.002-0.075,6.003-0.168,9.002-0.288c0.322-0.013,0.643-0.03,0.965-0.042
			c2.768-0.115,5.533-0.252,8.297-0.405c0.615-0.034,1.23-0.066,1.845-0.102c2.959-0.173,5.917-0.366,8.871-0.582
			c0.543-0.04,1.086-0.084,1.629-0.125c2.666-0.202,5.329-0.421,7.989-0.659c0.495-0.044,0.99-0.085,1.485-0.13
			c2.944-0.271,5.884-0.564,8.821-0.877c0.646-0.069,1.291-0.141,1.937-0.212c2.782-0.305,5.561-0.626,8.335-0.971
			c0.249-0.03,0.498-0.059,0.746-0.09c2.951-0.37,5.896-0.768,8.836-1.181c0.677-0.095,1.354-0.192,2.032-0.29
			c2.941-0.424,5.878-0.862,8.809-1.33c0.211-0.033,0.421-0.07,0.632-0.104c2.772-0.444,5.537-0.914,8.298-1.398
			c0.653-0.114,1.307-0.229,1.959-0.345c2.878-0.515,5.751-1.048,8.616-1.605c0.484-0.094,0.966-0.192,1.45-0.288
			c2.568-0.506,5.13-1.03,7.687-1.57c0.566-0.12,1.133-0.236,1.698-0.357c2.839-0.608,5.669-1.239,8.493-1.889
			c0.608-0.14,1.215-0.284,1.823-0.426c2.581-0.603,5.155-1.222,7.721-1.86c0.383-0.096,0.767-0.187,1.149-0.283
			c2.822-0.708,5.634-1.441,8.438-2.191c0.65-0.174,1.299-0.35,1.949-0.526c2.847-0.772,5.689-1.559,8.517-2.375
			c67.05-19.347,118.245-51.396,168.103-100.491c63.894-62.916,125.187-130.589,181.782-200.133
			c47.417-58.264,96.151-115.516,147.626-170.309c29.591-31.498,49.649-70.807,77.014-104.101
			c32.073-39.022,61.597-80.339,87.656-123.618c16.338-27.134,25.355-86.819,65.828-87.786
			c27.051-0.646,54.252,14.893,77.998,27.555c70.115,37.39,132.31,87.599,201.377,126.73
			c71.217,40.35,142.907,54.729,222.618,66.167c107.653,15.448,227.39,24.717,333.56-4.897
			c101.992-28.448,191.124-82.544,259.95-164.056c52.723-62.44,105.411-134.071,128.622-213.52
			c9.013-30.851,23.482-69.304,56.325-81.526c42.9-15.961,77.708,43.985,89.706,76.678c18.089,49.29,17.681,105.113,1.785,154.917
			c-8.977,28.125-12.9,58.48-26.943,84.954c-61,115-154.501,212.483-261.104,290.445c-16.791,12.28-34.012,26.41-49.896,40.057
			c-96.376,82.798-218.503,134.991-333.632,186.912c-0.225,0.101-0.449,0.203-0.674,0.304
			c-114.007,51.551-224.399,100.948-327.591,171.734c-32.551,22.328-65.208,44.334-96.542,67.053
			c-49.511,35.898-98.657,76.001-145.071,116.502c-79.34,69.232-147.266,134.882-194.938,229.949
			C3649.765,3351.194,3588.564,3469.625,3587,3602c-0.813,68.786,1.547,128.213,35.505,187.993
			c14.991,26.39,30.392,55.038,49.954,78.405c53.528,63.94,118.027,100.572,203.593,103.881
			c78.78,3.046,150.105-21.37,208.994-74.383c42.363-38.136,66.728-93.896,116.397-127.347
			c48.101-32.394,124.789-65.477,184.582-55.772c62.882,10.206,122.583,45.975,183.756,63.681
			c37.556,10.87,77.944,15.583,117.219,15.542c97.706-0.103,185.393-22.308,274.49-61.501
			c53.858-23.692,109.464-60.667,155.613-98.054c35.658-28.887,72.087-59.205,105.401-90.94
			c48.86-46.544,97.428-93.749,146.94-139.401c38.373-35.382,82.062-74.303,113.06-116.153
			c27.746-37.461,43.503-82.227,70.632-120.081c27.163-37.901,51.77-77.043,76.228-117.216
			c57.137-93.849,107.985-192.522,139.293-298.216c17.037-57.516,34.684-115.439,45.904-174.434
			c8.704-45.764,50.288-126.999,99.914-67.864c29.737,35.435,33.81,90.258,42.414,133.861c6.386,32.361,18.953,63.074,22.556,96
			c6.784,62.019,5.582,120.184,31.057,178.445c29.169,66.712,124.545,111.458,188.221,137.377
			c41.02,16.698,84.789,20.951,126.177,36.235c42.752,15.789,149.998,77.084,79.25,129.858
			c-29.146,21.741-68.612,20.441-103.16,22.084c-63.417,3.016-118.028,0.17-177.759,22.165
			c-65.387,24.076-128.748,48.283-190.494,81.094c-73.748,39.188-135.963,96.591-193.613,156.234
			c-56.191,58.134-117.192,116.13-165.632,180.507c-88.891,118.136-201.274,242.63-224.166,393.635
			c-6.676,44.034-5.359,88.888-10.936,132.439c-5.059,39.503,2.607,81.516,14.762,119.052
			c25.29,78.107,74.567,145.465,114.344,216.436c33.614,59.976,73.531,122.52,120.458,172.273c2.228,2.362,4.418,4.757,6.59,7.171
			c0.285,0.316,0.572,0.631,0.856,0.948c2.051,2.291,4.076,4.605,6.085,6.934c0.374,0.433,0.747,0.866,1.119,1.3
			c1.965,2.292,3.914,4.597,5.847,6.917c0.376,0.45,0.749,0.902,1.123,1.353c1.937,2.334,3.862,4.676,5.775,7.03
			c0.317,0.391,0.633,0.783,0.949,1.174c1.716,2.118,3.426,4.241,5.13,6.369c0.589,0.735,1.178,1.469,1.766,2.205
			c1.399,1.753,2.798,3.508,4.194,5.265c4.834,6.077,9.656,12.16,14.525,18.195c0.034,0.043,0.069,0.086,0.104,0.128
			c1.268,1.572,2.54,3.14,3.816,4.704c0.238,0.292,0.479,0.584,0.717,0.876c1.085,1.327,2.174,2.65,3.266,3.969
			c0.34,0.411,0.681,0.82,1.021,1.229c1.006,1.21,2.017,2.417,3.03,3.621c0.39,0.461,0.778,0.923,1.169,1.384
			c0.986,1.164,1.979,2.323,2.973,3.478c0.403,0.468,0.806,0.937,1.21,1.403c1.013,1.169,2.033,2.332,3.057,3.491
			c0.384,0.435,0.765,0.871,1.149,1.304c1.129,1.27,2.268,2.53,3.41,3.787c0.277,0.306,0.553,0.614,0.831,0.919
			c2.87,3.137,5.785,6.229,8.757,9.266c0.331,0.338,0.668,0.67,1,1.007c1.131,1.146,2.266,2.287,3.413,3.416
			c0.507,0.498,1.021,0.989,1.529,1.484c0.988,0.959,1.979,1.916,2.981,2.862c0.582,0.55,1.171,1.094,1.758,1.64
			c0.947,0.879,1.897,1.754,2.857,2.622c0.627,0.566,1.258,1.129,1.891,1.69c0.941,0.835,1.89,1.664,2.844,2.486
			c0.652,0.562,1.307,1.122,1.965,1.678c0.963,0.812,1.936,1.616,2.911,2.415c0.662,0.542,1.322,1.084,1.99,1.619
			c1.014,0.812,2.041,1.611,3.069,2.408c0.646,0.5,1.286,1.004,1.938,1.498c1.136,0.86,2.289,1.704,3.444,2.545
			c0.562,0.409,1.116,0.827,1.683,1.231c1.729,1.235,3.478,2.451,5.253,3.641c25.991,17.42,53.729,30.603,82.05,43.498
			c49.97,22.753,98.811,45.417,151.995,60.005c23.178,6.358,45.577,11.608,69.958,14.048
			c62.736,6.278,122.398,15.527,183.943,24.057c88.299,12.238,224.848-3.926,266.602,97.452
			c24.17,58.683-33.593,103.717-80.448,124.494c-97.298,43.146-196.513,48.42-301.812,56.869
			c-40.846,3.277-81.316-0.879-122.238-2.926c-65.109-3.257-126.831-14.004-194-13.993c-34.876,0.006-69.77,2.104-104.33,6.844
			c-28.818,3.952-59.103,6.814-87.447,13.934c-46.986,11.803-93.696,27.873-136.187,51.501l257.218,213.461
			c0.195-0.249,0.409-0.492,0.649-0.728c1.536-1.507,3.913-1.325,5.865-1.252c4.91,0.185,9.332,2.367,13.715,4.367
			c4.838,2.208,9.8,4.125,14.827,5.855c18.886,6.502,38.602,9.442,57.643,15.282c19.801,6.073,39.106,13.671,58.922,19.73
			c2.477,0.758,4.957,1.498,7.443,2.221c66.584,19.341,133.586,27.622,201.556,39.799c72.175,12.931,145.686,22.563,219.155,18.846
			c31.146-1.576,62.337-2.182,93.475-3.951c29.824-1.694,57.335-8.746,86.745-13.132c29.985-4.471,57.508-10.559,86.83-18.175
			c60.038-15.592,123.221-45.136,180.008-70.492c44.129-19.704,86.295-43.195,128.858-65.333
			c14.595-7.591,29.273-15.231,43.828-22.749c16.137-8.333,33.383-15.342,49.23-23.247c29.913-14.923,61.887-28.69,90.97-44.979
			c24.299-13.609,48.11-29.605,70.808-46.05c11.628-8.425,23.806-16.229,34.996-25.03c52.454-41.258,82.354-107.351,102.125-169.571
			c28.195-88.739,32.412-195.093-27.939-272.031c-24.924-31.772-58.307-59.892-84.013-92.946
			c-20.432-26.272-30.978-59.279-51.954-85.144c-19.104-23.557-46.085-43.067-70.458-60.985
			c-61.619-45.298-135.077-84.112-211.283-96.452c-47.614-7.709-102.03-3.6-150.176-6.001c-25.124-1.254-138.21-3.197-164.036,1.787
			c-107.349,21.637-318.74,72.845-353.505,82.547c-14.725,4.109-34.317,10.545-55.06,17.359
			c-40.538,13.316-86.484,28.41-118.149,33.687c-0.111,0.019-0.223,0.028-0.332,0.028c-0.673,0-1.286-0.346-1.65-0.887
			c-0.155-0.23-0.271-0.493-0.319-0.785c-0.012-0.072-0.01-0.143-0.014-0.215c-43.728,9.876-79.047,17.406-122.349-8.177
			c-75.53-44.622-130.981-154.603-171.695-230.115c-46.812-86.823-137.368-215.071-105.561-318.713
			c-9.539-2.424-6.728-17.328-3.639-24.752c25.485-61.266,90.321-99.482,138.175-141.356c12.875-11.266,24.555-24.255,37.003-35.055
			c11.186-9.704,24.306-17.818,36.052-26.968c22.863-17.81,49.529-34.9,74.777-49.251c14.811-8.417,29.364-17.474,44.227-25.699
			c14.995-8.299,29.822-17.745,44.75-26.249c14.872-8.472,26.26-17.888,40.246-27.826c12.598-8.95,29.082-13.526,42.773-21.226
			c11.573-6.508,22.15-13.884,32.979-21.973c10.253-7.658,20.476-16.725,32.225-22.001c29.814-13.39,57.061-26.154,90.055-29.423
			c28.754-2.849,58.07-4.977,86.79-6.299c30.897-1.423,62.219,3.967,93.179,3.972c32.86,0.005,63.661-3.235,96.052-5.948
			c33.592-2.814,68.139-12.554,101.244-19.472c36.061-7.535,71.953-15.854,107.756-24.525c22.296-5.4,43.687-11.103,65.948-19.301
			c38.628-14.224,79.303-33.617,114.023-55.806c30.709-19.625,57.316-43.913,80.096-72.299
			c17.156-21.378,43.539-48.796,50.662-75.868c12.619-47.968,4.73-93.712,0.195-141.781c-1.426-15.116-4.141-30.175-6.005-45.223
			c-2.945-23.77-8.176-47.273-12.972-70.555c-6.756-32.796-15.416-65.116-28-96.222c-15.221-37.624-33.267-75.549-55.957-109.309
			c-21.084-31.37-48.047-58.027-73.364-85.889c-24.967-27.477-47.921-56.879-74.967-82.409
			c-26.45-24.968-56.063-46.231-84.656-68.616c-55.319-43.309-114.243-81.522-164.084-130.997
			c-20.281-20.133-40.299-40.8-53.404-66.436c-21.473-42.003-34.962-88.177-57.842-129.346
			c-17.923-32.248-35.252-64.146-57.951-93.223c-18.795-24.073-39.918-46.161-60.333-68.836
			c-16.684-18.532-33.881-38.233-52.384-54.963c-20.916-18.908-42.101-36.695-63.013-55.727
			c-34.064-31.001-80.949-66.039-126.045-78.252c-33.002-8.938-67.434-11.933-101-16.948c-7.626-1.14-15.295-1.981-22.984-2.549
			c-33.795-2.494-68.715-0.142-101.187,9.988c-29.184,9.104-54.218,29.854-76.751,50.268c-27.106,24.559-47.467,53.629-72.83,79.488
			c-13.503,13.766-29.121,24.864-39.955,40.953c-9.984,14.825-17.359,31.194-25.881,46.857
			c-11.752,21.601-29.937,41.092-43.616,61.746c-48.197,72.771-79.074,151.493-107.954,233.371
			c-14.363,40.722-22.979,82.92-36.842,123.823c-16.648,49.121-42.206,93.892-62.021,141.493
			c-19.886,47.77-41.439,94.823-61.708,142.429c-12.798,30.058-25.989,60.798-42.612,88.974
			c-15.075,25.554-35.402,47.369-51.655,72.112c-18.036,27.455-26.862,61.483-49.546,85.497
			c-22.8,24.137-49.562,44.822-77.695,62.363c-51.923,32.372-100.353,65.898-160.386,81.418
			c-25.572,6.611-51.176,15.885-77.886,16.118c-23.464,0.205-50.604,3.455-73.44-2.155c-13.484-3.312-25.658-9.875-39.051-14.523
			c-22.739-7.892-48.137-6.764-71.402-12.979c-24.399-6.518-45.975-12.789-68.596-24.743c-10.997-5.812-22.791-11.082-34.002-16.753
			c-20.376-10.309-36.389-14.108-59-15.248c-31.519-1.588-64.529,1.2-94,10.723c-33.994,10.984-68.295,27.171-100,44.525
			c-19.157,10.486-39.521,20.108-57.251,32.729c-57.354,40.829-110.696,87.295-158.898,138.613
			c-24.329,25.902-47.348,53.035-68.92,81.275c-10.804,14.145-21.242,28.567-31.307,43.247c-5.985,8.73-13.445,14.197-18.43,23.628
			c-4.928,9.324-22.723,68.86-40.218,55.308c-13.31-10.309,33.738-76.653,41.274-87.022c23.326-32.092,49.137-61.92,73.609-92.865
			c23.642-29.896,44.445-56.334,75.142-79.943c27.624-21.244,54.761-42.14,81.751-64.496c21.684-17.961,46.308-31.831,68.863-48.599
			c21.874-16.262,42.925-29.699,67.653-41.952c46.805-23.191,89.635-35.418,141.955-38.172c49.774-2.619,95.568,4.95,142.208,20.818
			c47.368,16.116,94.928,34.264,145.453,36.648c68.016,3.21,131.356,3.685,195.116-24.216c17.066-7.468,31.621-15.508,47.055-26.025
			c55.447-37.784,109.163-78.804,156.122-126.912c23.304-23.874,45.555-49.545,63.97-77.43
			c12.753-19.311,21.074-39.145,31.131-59.884c7.657-15.79,15.165-31.954,21.974-48c26.078-61.459,43.98-126.156,68.998-188.028
			c13.575-33.574,21.385-68.702,36.526-101.725c14.781-32.237,25.683-66.698,38.681-99.726
			c14.986-38.08,28.771-78.331,48.214-114.396c17.939-33.275,44.166-61.212,62.334-94.347c20.018-36.509,40.497-72.562,63.773-107
			c21.502-31.812,44.268-61.265,67.445-91.801c12.231-16.115,22.404-33.929,34.726-49.979
			c30.693-39.988,73.861-87.593,81.099-139.076c4.014-28.551,0.544-57.417-5.393-85.443c-8.104-38.246-29.223-92.699-48.003-126.744
			c-53.889-97.684-144.385-170.612-229.357-241.612c-95.154-79.506-210.987-139.803-332.438-164.96
			c-44.97-9.315-94.647-11.155-138.611-24.082c-49.137-14.448-91.281-32.322-143.347-24.505
			c-47.026,7.061-88.693,15.387-138.014,17.847c-76.322,3.808-132.431,11.337-197.642,50.98
			c-49.994,30.39-90.218,76.817-90.388,138.057c-0.247,89.238,71.441,161.31,125.271,228.816
			c25.74,32.281,50.497,66.73,72.001,101.944c3.476,5.691,7.275,11.179,11.196,16.571c14.203,19.531,29.091,38.316,39.431,60.315
			c3.308,7.037,5.684,14.375,8.291,21.686c0.843,2.363,2.202,4.639,1.784,7.241c-0.125,0.787-0.592,2.338-1.398,2.713
			c-1.043,0.485-2.381-1.074-3.044-1.744c-3.532-3.565-6.253-7.81-9.299-11.773c-3.136-4.078-6.602-8.085-9.691-12.081
			c-8.271-10.694-14.786-22.58-22.519-33.646c-14.169-20.277-27.957-40.816-41.91-61.242
			c-13.889-20.331-27.959-40.547-42.721-60.257c-48.771-65.119-121.67-108.35-181.246-162.998
			c-30.027-27.543-67.265-52.11-103-72.03c-32.882-18.33-67.385-32.626-101.649-48.088c-30.548-13.784-59.369-31.14-90.122-44.44
			c-43.511-18.818-89.236-33.062-133.257-50.417c-14.983-5.906-30.488-12.238-44.972-20.302
			c-28.611-15.93-49.98-39.948-76.78-57.973c-27.529-18.515-56.708-35.241-88.492-45.273c-33.447-10.557-67.55-19.519-102.285-8.387
			c-35.417,11.352-62.288,50.384-90.45,73.221c-27.346,22.176-42.217,52.784-57.658,83.594
			c-17.84,35.596-38.335,69.802-61.583,102.143c-14.564,20.261-27.984,41.314-40.833,62.697
			c-21.93,36.495-41.669,74.292-63.836,110.638c-22.439,36.791-50.177,69.906-76.146,104.184
			c-29.36,38.754-58.636,77.571-88.187,116.18c-15.363,20.072-33.501,37.587-49.523,57.251
			c-26.646,32.704-57.502,65.816-79.449,102.277c-23.269,38.66-43.032,79.485-58.832,121.753
			c-15.042,40.244-31.414,81.165-41.724,122.97c-6.946,28.167-17.765,53.017-29.219,80c-12.78,30.106-28.221,61.568-36.059,92.948
			c-2.981,11.938-3.608,24.239-4.14,36.479c-0.475,10.927-0.563,73.09-17.004,76.373c-1.543,0.308-2.848,0.175-3.952-0.309
			l-82.576,293.604c2.938,0.821,5.888,1.61,8.844,2.383c0.58,0.152,1.161,0.304,1.741,0.453
			C2738.791,2849.689,2741.73,2850.427,2744.68,2851.136z" color="13939253" style="fill:#d4b235;fill-opacity:1;stroke-width:10;stroke:rgb(0,0,0)"></path><path id="157963760" parent_id="157963753" order="10" structure_id="12115" d="
			M2805.052,2510c4.135-32.442,2.196-67.013-1.048-99c-1.609-15.869-3.902-33.304,0.778-48.223
			c5.555-17.707,16.227-32.434,26.247-47.781c20.447-31.318,44.278-64.416,58.219-99.222c11.201-27.966,24.443-55.647,33.116-84.599
			c7.555-25.219,10.997-51.682,18.855-77.199c4.802-15.59,15.693-30.467,25.507-43.977c16.822-23.156,32.25-47.278,48.681-70.708
			c33.232-47.388,79.998-82.606,119.622-124.069c41.723-43.66,81.21-94.821,111.221-147.223
			c34.757-60.688,73.953-118.176,109.617-178.229c37.876-63.78,70.138-130.933,95.698-200.581
			c9.505-25.9,18.74-51.961,27.074-78.263c15.317-48.345,26.741-98.475,31.113-149.073c4.493-51.994-8.156-94.824-25.685-143.061
			c-16.437-45.232-33.49-86.796-60.792-126.794c-46.191-67.67-121.033-114.662-185.274-164.028
			c-97.738-75.106-203-133.729-318-178.249c-19.693-7.625-39.307-14.709-59-22.723c-46.342-18.857-93.092-34.232-142-45.028
			c-36.644-8.089-72.987-18.274-110-26.726c-44.86-10.244-90.348-17.535-135.088-28.329c-41.252-9.952-81.279-24.815-123.017-32.766
			c-30.527-5.814-61.156-11.076-91.79-16.297c-101.876-17.364-203.797-42.862-307.242-47.873
			c-139.213-6.743-279.371-2.766-416.296,25.185c-92.85,18.954-184.121,32.822-273.183,69.162
			c-28.914,11.797-55.231,27.67-81.385,44.724c-11.376,7.418-22.333,14.199-33.001,22.727
			c-38.134,30.481-81.943,52.545-121.977,80.25c-28.803,19.932-56.556,41.356-83.46,63.776
			c-24.982,20.819-52.995,41.891-73.622,67.111c-16.856,20.61-42.373,32.985-61.024,52.629
			c-20.16,21.233-36.554,45.943-48.914,72.457c-9.302,19.954-15.669,43.348-14.033,65.507c1.71,23.16,11.217,36.036,32.105,46.198
			c19.321,9.395,40.448,8.686,60.991,12.729c19.76,3.89,36.159,14.151,54.906,20.813C910.85,879.6,928.838,886.04,947,890.781
			c41.354,10.797,75.768,39.525,116.996,51.97c15.145,4.571,36.972,8.207,33.019,28.488c-3.542,18.173-22.473,23.26-38.854,24.264
			c-23.816,1.459-50.421-2.131-73.904-5.352c-29.808-4.088-58.941-2.204-88.877-3.972c-38.913-2.298-75.826-12.762-114.302-19.035
			c-33.521-5.464-70.809-10.598-104.81-8.816c-31.266,1.638-61.993,12.448-85.61,33.36c-18.783,16.632-31.671,39.348-45.118,60.24
			c-15.588,24.217-28.657,49.987-39.908,76.479c-9.979,23.497-19.267,47.287-27.87,71.322
			c-52.28,146.059-79.775,299.701-85.763,454.274c-1.049,27.086-0.986,54.209-0.08,81.298c2.077,62.084,8.415,123.923,15.32,185.626
			c5.666,50.621,13.249,103.307,31.512,151.267c6.318,16.593,13.339,33.266,20.276,49.587c7.415,17.443,16.545,39.656,18.837,58.411
			c2.857,23.385-1.403,46.91-1.403,70.326c0,99.245,7.107,192.358,27.002,285.029c8.734,40.684,21.688,77.399,36.741,116.275
			c24.447,63.135,59.333,145.184,137.294,153.754c94.531,10.392,199.354-35.315,291.018-54.665
			c37.73-7.965,73.398-22.608,110.594-31.749c38.123-9.368,77.114-18.209,114.889-29.381c32.792-9.698,66.479-22.836,97-37.534
			c35.628-17.157,66.776-37.425,97.048-63.048c24.483-20.723,51.324-40.274,72.151-64.925c5.731-6.783,11.236-13.816,16.406-21.036
			c9.16-12.792,17.177-26.428,23.809-40.697c1.916-4.121,3.707-8.3,5.369-12.529c2.923-7.439,5.429-15.045,7.46-22.776
			c1.923-7.321,3.34-14.718,6.305-21.651c1.445-3.378,3.051-8.484,6.174-10.711c2.335-1.666,3.986,0.935,3.897,3.157
			c-0.284,7.147-2.604,14.699-3.831,21.754c-2.41,13.867-4.662,27.971-8.613,41.499c-3.974,13.604-10.262,26.313-17.259,38.593
			c-7.101,12.46-15.033,24.414-23.375,36.073c-31.394,43.871-69.988,82.673-111.178,117.353
			c-61.067,51.415-125.191,92.435-199.346,121.925c-30.931,12.301-61.961,24.537-93.02,36.499
			c-13.511,5.203-26.594,10.098-40.272,14.493c-32.939,10.587-67.795,15.559-101.076,24.769
			c-48.104,13.313-96.407,26.753-142.313,46.6c-21.492,9.292-39.42,21.853-59.707,33.18c-19.518,10.897-39.504,21.6-54.852,38.232
			c-31.03,33.631-45.822,78.229-56.189,122.156c-10.742,45.516-13.713,92.461-15.273,139.063c-1.103,32.935-5.041,66.918,6.55,98.02
			c13.232,35.506,40.232,65.457,59.438,97.728c22.021,37.001,39.559,81.629,65.853,117.013
			c24.628,33.143,60.193,54.104,93.164,77.933c12.481,9.021,24.223,19.011,35.644,29.327c8.751,7.905,14.005,18.092,22.527,26.345
			c17.179,16.635,39.568,28.142,61.51,37.144c30.229,12.401,59.423,22.764,91,30.299c70.458,16.808,139.56,45.11,212,52.948
			c58.728,6.354,115.052,27.116,174.003,33.02c16.447,1.647,32.479,3.455,48.219,5.781c29.833,4.409,59.12,10.785,88.777,17.004
			c46.97,9.85,94.021,17.268,141.585,26.9c23.751,4.811,48.619,9.335,72.854,10.598c20.194,1.052,40.595,7.225,60.562,11.692
			c15.598,3.49,31.668,7.728,47.055,10.973c30.501,6.434,61.507,15.844,92.378,19.719c35.838,4.498,68.161,21.474,102.619,31.308
			c41.094,11.727,81.77,23.818,122.577,36.468c18.874,5.851,37.964,10.979,57.119,15.821c17.658,4.464,36.597,6.771,53.814,12.57
			c2.343,0.789,5.367,1.729,7.289,3.313c2.112,1.742,3.679,5.588,1.35,7.847l260.323,136.112
			c12.141-18.896,22.995-38.235,30.712-60.623c12.024-34.879,17.978-71.696,19.764-108.48c2.12-43.666-13.094-89.216-27.223-130
			c-10.091-29.129-24.017-61.433-42.5-86.226c-27.783-37.267-57.145-71-89.087-104.968c-21.732-23.11-46.953-41.369-70.243-62.829
			c-24.273-22.366-54.398-40.508-83.896-55.224c-116.636-58.187-242.09-91.092-372.048-103.752
			c-64.003-6.235-123.899-33.521-186.011-46.438c-53.569-11.14-119.128-26.629-159.769-66.213
			c-36.532-35.581-50.233-94.156-50.224-143.352c0.009-51.453,21.872-99.182,38.848-146.729
			c14.344-40.178,46.569-74.843,68.714-111.702c60.443-100.609,99.435-211.566,132.438-323.46
			c18.919-64.142,20.73-133.884,23.994-200.112c4.596-93.264-5.461-193.12-27.883-284.001
			c-11.006-44.612-21.605-89.767-40.199-131.969c-9.258-21.014-20.613-40.637-35.031-58.527
			c-15.011-18.629-31.46-32.843-50.13-48.22c-39.338-32.398-80.523-62.975-125.261-87.562
			c-41.697-22.917-87.338-37.03-133.492-48.16c-43.783-10.559-88.406-4.371-132.788-5.06c-64.413-1-125.276-7.75-187.21-26.993
			c-43.208-13.425-101.414-39.411-131.504-73.552c-61.712-70.017-31.543-173.898,49.104-212.395
			c19.847-9.474,41.502-14,62.755-19.103c72.287-17.356,135.137-56.93,202.919-85.78c33.161-14.114,66.09-29.072,95.859-49.604
			c33.182-22.887,63.996-48.935,95.755-73.702c12.586-9.814,26.148-18.327,38.506-28.442c11.665-9.549,19.255-20.734,28.637-32.04
			c19.263-23.21,25.095-51.772,29.746-80.885c8.599-53.82,21.329-104.843,44.495-154.385c18.572-39.717,45.727-76.228,85.847-96.011
			c36.106-17.804,81.458-21.592,121.198-17.983c41.338,3.753,78.664,2.379,120.237,2.379c59.938,0,117.984-14.108,177.27,1.786
			c52.358,14.037,124.181,54.055,104.688,117.76c-13.969,45.649-44.125,62.801-75.696,94.513
			c-28.507,28.636-54.122,58.277-70.789,95.803c-31.508,70.941-19.458,147.779,6.535,218.584
			c24.218,65.968,75.514,111.95,130.534,153.162c69.376,51.966,177.44,61.531,175.95,172.343
			c-0.512,38.006-11.592,74.469-20.191,111.164c-8.2,34.992-8.622,69.726-15.993,105.181
			c-17.007,81.807-33.659,163.802-44.272,246.73c-13.064,102.071-10.298,208.852,29.915,304.974
			c16.009,38.267,38.268,75.598,58.502,112.053c60.555,109.097,144.032,211.638,258.522,266.671
			c26.727,12.847,54.813,23.288,83.744,31.372l82.576-293.604C2798.075,2548.213,2804.289,2515.986,2805.052,2510z" color="13939253" style="fill:#d4b235;fill-opacity:1;stroke-width:10;stroke:rgb(0,0,0)"></path></g><g id="157963767" order="0" group_label_id="113753816" group_label="Atlas - Developing Human Sulci" sub_image_id="102291577"><path id="157963769" parent_id="157963767" order="0" structure_id="10639" d="M3661.79,1000.904c-0.556-0.196,14.841,38.492,14.841,38.492
			s38.018,15.329,38.009,16.059c-0.008,0.73-90.715,36.048-91.067,35.345C3623.22,1090.097,3662.346,1001.099,3661.79,1000.904z" color="7171696" style="fill:#6d6e70;fill-opacity:1;stroke-width:10;stroke:rgb(0,0,0)"></path><path id="157963770" parent_id="157963767" order="1" structure_id="10631" d="M7105.851,3420.056c-0.457-0.373,0.897,41.245,0.897,41.245
			s30.559,27.32,30.305,28.005c-0.256,0.683-97.566,3.123-97.659,2.342C7039.301,3490.866,7106.308,3420.428,7105.851,3420.056z" color="7171696" style="fill:#6d6e70;fill-opacity:1;stroke-width:10;stroke:rgb(0,0,0)"></path><path id="157963771" parent_id="157963767" order="2" structure_id="10631" d="M7382.898,5185.908c-0.506-0.302,6.855,40.681,6.855,40.681
			s34.189,22.613,34.037,23.327c-0.154,0.712-96.088,17.205-96.292,16.445C7327.294,5265.603,7383.404,5186.211,7382.898,5185.908z" color="7171696" style="fill:#6d6e70;fill-opacity:1;stroke-width:10;stroke:rgb(0,0,0)"></path><path id="157963777" parent_id="157963767" order="3" structure_id="13222" d="M5742.015,7652.408c0.147-0.571-37.078,18.088-37.078,18.088
			s-12.011,39.192-12.739,39.247c-0.727,0.055-43.695-87.289-43.025-87.7S5741.869,7652.979,5742.015,7652.408z" color="7171696" style="fill:#6d6e70;fill-opacity:1;stroke-width:10;stroke:rgb(0,0,0)"></path><path id="157963776" parent_id="157963767" order="4" structure_id="13221" d="M3944.072,8915.143c0.272-0.523-40.193,9.298-40.193,9.298
			s-20.506,35.495-21.229,35.384c-0.722-0.111-22.974-94.873-22.229-95.125C3861.167,8864.45,3943.801,8915.666,3944.072,8915.143z" color="7171696" style="fill:#6d6e70;fill-opacity:1;stroke-width:10;stroke:rgb(0,0,0)"></path><path id="157963772" parent_id="157963767" order="5" structure_id="10624" d="M1647.538,10170.746c0.497-0.316-39.441-12.094-39.441-12.094
			s-35.533,20.438-36.102,19.981c-0.569-0.457,27.659-93.614,28.43-93.458
			C1601.195,10085.334,1647.041,10171.063,1647.538,10170.746z" color="7171696" style="fill:#6d6e70;fill-opacity:1;stroke-width:10;stroke:rgb(0,0,0)"></path><path id="157963773" parent_id="157963767" order="6" structure_id="10615" d="M654.705,8637.078c0.431,0.402,1.846-41.213,1.846-41.213
			s-28.677-29.291-28.376-29.956s97.557,3.366,97.598,4.151C725.812,8570.846,654.274,8636.677,654.705,8637.078z" color="7171696" style="fill:#6d6e70;fill-opacity:1;stroke-width:10;stroke:rgb(0,0,0)"></path><path id="157963775" parent_id="157963767" order="7" structure_id="10615" d="M646.591,3733.034c0.172,0.564,22.247-34.742,22.247-34.742
			s-10.141-39.718-9.548-40.144c0.593-0.424,82.742,51.795,82.383,52.495C741.314,3711.343,646.419,3732.47,646.591,3733.034z" color="7171696" style="fill:#6d6e70;fill-opacity:1;stroke-width:10;stroke:rgb(0,0,0)"></path><path id="157963774" parent_id="157963767" order="8" structure_id="10613" d="M349.062,5474.314c0.051,0.588,28.984-29.357,28.984-29.357
			s-1.661-40.958-0.992-41.251c0.668-0.292,70.164,67.866,69.668,68.477S349.011,5473.728,349.062,5474.314z" color="7171696" style="fill:#6d6e70;fill-opacity:1;stroke-width:10;stroke:rgb(0,0,0)"></path></g></g></svg>
