<svg id="the_svg_wrapper" class="svg_wrapper" width="100%" height="100%" version="1.1" xmlns="http://www.w3.org/2000/svg"><g id="master_group" transform="translate(0,0) scale(0.02734375)" width="54784" height="75519" image_id="102291588" image_url="/external/devhuman/prod14/3760000452/3760000452.aff"><g id="157963793" order="0" group_label_id="113753815" group_label="Atlas - Developing Human Gyri" sub_image_id="102291588"><clippath><path id="zap_container_graphics_clip" d="M 0 0 L 1498 0 L 1498 312 L 0 312 L 0 0" style="fill:#000000;fill-opacity:1;stroke-width:10;stroke:rgb(0,0,0)"></path></clippath><path id="157963803" parent_id="157963793" order="0" structure_id="12157" d="
			M2120.75,4359.884c-11.603,3.829-29.04-6.469-39.812-9.854c-15.525-4.876-30.807-10.497-45.944-16.462
			c-29.924-11.793-59.253-25.028-89.071-37.081c-53.802-21.747-111.895-33.054-167.144-50.765
			c-22.912-7.345-47.978-11.974-71.276-17.809c-42.78-10.714-87.141-27.376-127.551-44.912
			c-72.233-31.348-152.646-42.227-229.118-61.12c-110.585-27.321-221.552-56.977-327.936-98.046
			c-18.955-7.318-37.762-11.082-57.329-16.314c-17.542-4.691-34.941-10.389-52.723-14.114c-25.007-5.238-50.421-8.397-75.654-13.176
			c-5.917-1.121-11.777-2.338-17.612-3.472c-27.703-5.384-55.92-9.836-84.292-8.865c-12.24,0.419-24.428,1.896-36.345,4.761
			c-33.268,7.996-64.204,20.338-94.938,35.221c-31.617,15.311-61.765,27.666-87.371,52.414c-9.917,9.585-17.083,19.792-23.813,31.84
			c-13.952,24.974-15.677,52.813-16.989,80.607c-0.618,13.113-1.202,25.94-2.003,39.028c-1.733,28.305-2.996,56.622-3.001,84.987
			c-0.005,40.888-1.777,81.704-2.349,122.574c-0.168,12.043-0.151,24.087-0.15,36.131c0.003,30.564,0.269,61.589,1.755,92.055
			c2.19,44.891,5.868,89.854,7.43,134.748c1.697,48.796-2.983,96.547-9.373,144.809c-3.687,27.841-8.964,55.281-15.051,82.694
			c-3.535,15.922-7.176,31.822-10.531,47.784c-2.605,12.396-5.037,24.827-7.714,37.208c-9.041,41.803-17.415,83.332-24.421,125.521
			c-3.145,18.933-7.476,37.659-10.137,56.674c-3.155,22.542-2.668,44.842-3.785,67.551c-1.981,40.276,0,80.5,4.5,121.5
			c6.19,56.397,17.5,106,31.5,164c3.787,15.689,7.5,40,11.5,55.5c4.042,15.663,5.734,24.327,10.748,39.754
			c9.861,30.341,30.04,47.438,57.84,61.521c14.022,7.106,28.484,15.748,43.412,20.725c16.342,5.447,31.83,8.813,49.156,8.818
			c8.179,0.003,16.002,0.139,23.968,2.097c2.617,0.643,9.128,2.419,9.098,5.352c9.374,0.863,18.768,1.863,28.257,2.733
			c16.735,1.535,32.769,3.042,49.521,4.503c12.348,1.076,25.243,0.479,38.002,0.996c22.873,0.926,44.418,3.308,67.573,1.038
			c27.524-2.698,55.414-3.241,82.733-7.319c33.961-5.069,68.119-8.86,101.938-14.87c38.65-6.87,74.893-17.076,112.707-26.87
			c22.038-5.707,43.473-10.351,65.843-15.495c33.461-7.695,65.5-20.957,99.428-26.739c33.718-5.747,67.462-7.101,101.688-6.977
			c29.851,0.108,59.729-3.854,88.536-11.672c24.102-6.542,53.407-16.623,72.057-34.077c18.758-17.553,21.141-47,16.457-71.001
			c-5.51-28.224-24.381-57.882-42.966-79.432c-19.186-22.25-44.487-40.043-66.408-59.757
			c-16.596-14.925-35.648-29.879-53.633-44.273c-16.323-13.064-32.851-31.614-51.968-40.444
			c-14.98-6.92-31.841-14.417-48.134-17.327c-21.293-3.803-44.417,0.066-65.951,0.519c-39.428,0.827-78.899,0.537-118.004,6.083
			c-38.057,5.397-76.515,10.291-112.615-6.389c-21.781-10.063-35.104-27.533-38.311-51.022
			c-3.475-25.453,5.831-50.793,10.733-75.659c4.803-24.367,15.777-46.182,23.27-69.843c16.813-53.095,30.231-106.264,38.243-161.474
			c6.569-45.267,11.526-90.097,15.997-136.003c2.188-22.469,4.335-44.959,5.277-67.522c0.833-19.954-6.183-40.173-3.493-59.961
			c3.167-23.301,10.705-49.252,22.758-69.571c12.358-20.836,25.673-33.582,51.109-31.256c36.41,3.33,62.886,27.667,95.133,41.092
			c21.427,8.92,45.628,16.36,68.036,22.48c37.476,10.237,74.979,19.789,112.154,31.427c90.742,28.41,184.918,42.125,277.848,58.258
			c23.502,4.08,47.197,11.009,70.87,16.07c49.619,10.607,98.047,16.979,149.091,16.991c31.747,0.007,64.607,3.969,95.014-1.05
			c51.354-8.476,99.067-30.806,144.986-54.731c38.142-19.874,78.687-34.78,116.43-55.458c28.465-15.595,62.25-29.975,78.98-59.501
			c5.904-10.42,12.403-20.533,19.135-30.536l-234.435-180.335C2121.681,4359.559,2121.234,4359.725,2120.75,4359.884z" color="14837888" style="fill:#e26880;fill-opacity:1;stroke-width:10;stroke:rgb(0,0,0)"></path><path id="157963804" parent_id="157963793" order="1" structure_id="12157" d="
			M1847.08,8161.379c-27.143-44.307-58.045-97.572-108.714-117.441c-72.476-28.421-145.446-34.957-222.035-20.038
			c-36.398,7.09-68.917,21.128-103.617,32.56c-22.544,7.426-43.699,18.864-63.936,31.126
			c-87.12,52.788-163.705,124.378-237.918,193.483c-27.057,25.193-54.66,49.809-82.171,74.528
			c-16.461,14.79-34.509,35.121-56.397,41.472c-21.226,6.159-25.057-7.389-35.061-19.635c-16.983-20.79-13.695-71.716-15.795-96.766
			c-2.956-35.266-5.289-69.555-2.95-104.76c3.86-58.129,28.665-93.683,78.854-122.829c27.754-16.117,58.604-28.329,89.891-35.62
			c24.798-6.199,45.02-18.762,67.495-30.746c12.705-6.774,25.338-14.118,37.163-22.159c23.53-15.999,47.144-32.348,70.684-47.734
			c20.96-13.7,35.438-34.864,51.562-53.547c18.459-21.387,35.876-43.087,49.27-68.369c15.439-29.145,24.53-61.453,26.286-94.411
			c2.998-56.284-15.468-111.971-45.951-158.834c-22.747-34.97-48.528-59.53-83.12-82.588c-13.917-9.276-30.544-10.371-46.359-15.923
			c-73.231-25.707-151.835-42.064-229.024-49.657c-127.494,13.499-64.497-62.996-64.497-62.996l131.993-100.495
			c106.494-65.996-32.998-76.496-32.998-76.496c-245.987-32.998-317.984,16.499-317.984,16.499
			c-61.119,16.86-131.121,68.516-167.357,97.754c3.932-0.665,7.743-0.244,9.683,3.752c3.706,7.635-2.296,20.988-3.513,28.744
			c-1.654,10.543-3.629,21.516-6.635,31.789c-3.93,13.432-8.824,26.748-9.822,40.822c-1.591,22.452,4.32,44.279,11.33,65.379
			c5.709,17.181,12.145,33.596,16.698,50.76c3.933,14.821,6.199,30.395,10.515,44.986c4.09,13.832,2.999,27.207,4.488,41.4
			c1.76,16.771,12.132,31.412,21.748,44.692c10.072,13.912,19.661,28.225,32.895,39.399c18.676,15.771,38.395,17.143,61.428,21.059
			c31.015,5.273,79.804,2.435,147.365,2.435c44.493,0,88.54-4.995,132.973-4.999c26.088-0.002,51.792,4.987,77.96,4.876
			c28.732-0.122,57.486,0.123,86.223,0.123c2.209,0,4,1.791,4,4s-1.791,4-4,4c-93.125,0-134.703-6.111-166.479-6.388
			c-44.459-0.388-88.912,4.623-133.302,4.623c-40.968-0.002-81.178-8.513-115.58,19.263c-10.607,8.563-21.96,20.805-29.28,35.444
			c-18.783,37.563-34.682,70.812-53.098,108.475c-5.533,11.313-12.837,25.797-17.5,37.5c-5.772,14.487-10.628,29.312-15.934,43.973
			c-9.493,26.227-29.876,46.861-43.266,71.033c-10.353,18.689-21.438,37.191-28.266,57.547
			c-7.294,21.748-10.367,44.581-14.107,67.126c-3.908,23.558-9.869,46.094-17.43,68.733c-5.668,16.973-16.487,29.848-19.002,47.839
			c-1.105,7.911,0.25,15.481,1.527,23.254c2.565,15.609,5.727,30.93,9.585,45.874c8.238,31.908,22.5,62.538,34.803,93.016
			c12.759,31.61,28.521,61.99,42.547,92.855c8.686,19.113,17.224,38.32,27.067,56.876c17.754,33.467,41.114,62.725,56.421,97.671
			c7.127,16.271,14.16,32.618,19.986,49.41c13.521,38.969,21.522,88.619,55.354,116.295c8.598,7.033,17.706,10.696,28.209,13.739
			c5.804,1.682,11.603,3.513,17.121,5.153c13.095,3.894,26.228,5.104,39.999,5.107c12.237,0.004,25.755-4.32,37.595-7.243
			c12.494-3.085,24.917-6.543,37.026-10.918c8.826-3.189,17.343-7.154,25.737-11.335c10.363-5.161,21.395-8.771,31.922-13.558
			c10.431-4.742,20.275-10.666,30.735-15.361c12.51-5.616,25.567-9.994,37.743-16.351c31.014-16.191,63.27-28.426,92.857-47.488
			c14.016-9.03,27.97-18.165,42.305-26.686c23.476-13.953,47.236-26.424,67.476-39.453c18.519-11.92,34.758-21.159,53-33.5
			c40.047-27.09,78.135-53.279,114.738-84.902c30.84-26.645,56.956-58.364,84.441-88.324c8.417-9.174,14.895-19.918,23.239-29.148
			c9.088-10.056,18.693-19.178,28.224-28.686c8.651-8.63,17.12-17.445,25.546-26.305c8.099-8.516,18.398-15.253,27.063-23.314
			c6.973-6.486,17.722-18.182,28.115-18.838c4.091-0.259,6.048,1.234,6.672,3.63l257.028-147.741
			C1854.684,8173.6,1850.791,8167.438,1847.08,8161.379z" color="14837888" style="fill:#e26880;fill-opacity:1;stroke-width:10;stroke:rgb(0,0,0)"></path><path id="157963798" parent_id="157963793" order="2" structure_id="12125" d="
			M7011.331,7632.669c-2.215-22.603-4.598-43.79-11.249-65.667c-7.828-25.749-19.109-51.201-36.999-71.613
			c-17.989-20.526-42.506-42.411-66.592-55.299c-22.896-12.251-47.315-21.304-71.47-30.707
			c-56.863-22.136-113.99-39.408-173.023-54.733c-54.375-14.118-109.155-26.642-163.262-41.79
			c-15.548-4.354-31.047-8.879-46.499-13.562c-23.542-7.135-47.677-12.557-70.532-21.799c-13.759-5.563-27.984-9.82-42.194-14.054
			c-9.759-2.907-26.109-4.997-29.047-16.918c-0.045-0.182-0.071-0.347-0.104-0.518l-297.047-43.357
			c-0.722,6.31-1.141,12.742-1.122,19.386c0.092,31.805,6.044,58.949,15.829,88.527c8.601,25.998,18.541,59.428,33.571,82.3
			c4.253,6.472,9.783,7.574,12.409,14.136c21.015,52.511,203.974,169.479,205.474,173.979s233.988,110.994,233.988,110.994
			c27.339,13.302,53.554,30.399,57.247,62.34c2.365,20.456-1.982,38.766-9.277,58.044c-16.309,43.091-42.049,82.961-68.367,120.542
			c-6.522,9.313-13.187,18.533-20.101,27.561c-83.996,116.994-238.488,226.488-238.488,226.488
			c-73.497,67.496-121.493,56.998-121.493,56.998c-46.497-23.998-3-98.995-3-98.995c41.998-61.497,35.998-182.991,35.998-182.991
			c-20.999-80.996-148.492-262.486-148.492-262.486c-127.493-191.99-412.479-274.486-412.479-274.486
			c-353.981-113.994-547.474-29.999-547.474-29.999c-202.49,91.495-163.491,224.989-163.491,224.989
			c-2.999,103.495,85.495,233.988,85.495,233.988c20.999,61.497,245.988,364.481,245.988,364.481
			c6.04,18.119,11.438,46.396,3.373,64.717c-26.231,59.59-135.611,23.15-180.691,13.616c-46.907-9.922-96.057-16.652-142.166,1.163
			c-0.851,0.329-1.682,0.683-2.524,1.021l130.879,465.775c3.01-2.164,6.667-3.312,11.231-2.781
			c15.731,1.827,23.922,12.03,37.338,19.05c12.908,6.753,24.559,9.766,38.859,11.001c55.344,4.777,110.276,11.936,165.831,4.996
			c10.931-1.366,21.796-4.223,32.025-7.329c12.711-3.859,23.479-7.388,34.866-14.179c14.451-8.619,29.9-13.242,44.311-21.484
			c25.993-14.863,51.68-32.441,75.806-50.158c10.693-7.854,26.276-26.924,37.329-10.725c9.667,14.17,11.389,33.354,24.2,45.4
			c11.633,10.939,26.915,15.053,42.058,18.535c54.718,12.584,111.096,26.373,167.229,30.604c19.482,1.469,39.048,0.666,58.551,1.67
			c13.192,0.68,29.479,0.783,43.304-0.654c29.079-3.025,57.013-7.188,85.69-12.699c37.021-7.115,71.715-20.694,107.643-31.981
			c19.967-6.272,46.667-16,66.667-24c33.656-13.463,49.333-21.334,91.843-38.496c42.009-16.96,92.42-42.528,132.824-62.838
			c46.566-23.407,85.352-41.97,127.529-72.713c31.282-22.802,63.581-44.212,94.166-67.965c17.74-13.777,34.766-28.39,52.971-41.584
			c30.979-22.452,63.334-47.362,88.318-76.148c12.886-14.847,26.898-28.54,40.348-42.927c10.507-11.239,22.257-21.511,32.67-32.993
			c11.81-13.022,25.125-24.448,36.181-38.21c11.622-14.464,28.981-33.685,40.483-48.794c6.55-8.604,20.406-27.253,26.666-36
			c15.667-21.891,26.667-38.667,52.915-83.613c11.765-20.146,21.599-40.96,32.335-62.135c5.838-11.513,11.942-23.412,17.918-34.954
			c16.315-31.517,26.835-65.145,37.314-99.148c8.147-26.438,14.227-53.784,17.932-81.206c2.663-19.708,6.232-39.279,8.948-58.979
			C7013.486,7706.562,7014.751,7667.584,7011.331,7632.669z M5590.491,8138.833c-0.265,0.119-0.542,0.176-0.815,0.176
			c-0.765,0-1.494-0.441-1.826-1.185c-8.271-18.487-8.931-28.368-9.842-42.045c-0.704-10.551-1.579-23.682-6.606-45.099
			c-0.802-3.418-1.568-6.789-2.325-10.116c-5.533-24.342-10.312-45.364-24.209-65.465c-0.628-0.909-0.4-2.154,0.508-2.783
			c0.91-0.627,2.154-0.4,2.783,0.508c14.335,20.736,19.428,43.138,24.818,66.854c0.755,3.318,1.52,6.681,2.319,10.089
			c5.102,21.737,5.989,35.05,6.703,45.747c0.884,13.262,1.522,22.843,9.501,40.678
			C5591.951,8137.199,5591.5,8138.383,5590.491,8138.833z" color="11243864" style="fill:#ab9158;fill-opacity:1;stroke-width:10;stroke:rgb(0,0,0)"></path><path id="157963795" parent_id="157963793" order="3" structure_id="12124" d="
			M4794.828,8344.614c-0.08,0.052-0.159,0.104-0.239,0.156c-1.766,1.151-3.537,2.3-5.319,3.444
			c-22.633,14.532-44.36,27.326-64.086,46.088c-41.446,39.421-72.814,87.746-107.128,133.128
			c-92.995,122.994-163.491,103.495-163.491,103.495c-53.997-13.499-16.5-91.496-16.5-91.496
			c23.998-38.998,94.496-215.99,94.496-215.99c13.195-40.552,19.732-83.071,20.307-125.678
			c1.724-127.872-50.327-252.686-118.634-358.588c-51.621-80.033-109.715-155.979-168.8-230.604
			c-30.964-39.107-64.718-80.85-95.855-117.589c-235.488-317.983-463.477-260.987-463.477-260.987
			c-8.958,2.877-17.559,5.971-25.853,9.23l117.91,302.107c0.819-0.215,1.716,0.102,2.193,0.854
			c18.687,29.444,42.987,62.153,66.488,93.786c29.313,39.456,59.625,80.256,80.885,116.937
			c37.157,64.107,65.914,109.87,92.274,194.093c1.844,5.892,16.797,42.787,18.666,48.667c13.033,41.002,14.254,75.71,18.079,120.282
			c5.634,65.665,10.39,177.39-34.078,217.051c-21.254,18.957-83.333,40.666-113.333,42c-16.381,0.729-30.21,2.935-43.301,8.898
			c-62.179,28.326-115.715,20.398-183.495,10.362c-27.509-4.073-58.689-8.69-93.136-11.031
			c-56.258-3.823-95.63-15.046-145.478-29.253c-10.945-3.12-22.263-6.346-34.331-9.651c-95.441-26.137-139.988-4.979-186.259,28.674
			c-51.714,37.61-14.186,86.864,3.333,115.332c36.705,59.646,54.423,97.258,57.284,153.286c1.523,29.863,3.979,59.885,5.356,89.89
			c0.654,14.255,3.308,28.522,5.214,42.493c5.49,40.241,25.011,77.368,41.343,114.205c11.46,25.848,21.654,53.61,35.4,78.269
			c15.453,27.721,39.57,50.174,60.737,73.524c23.234,25.633,47.928,51.278,76,71.333c33.329,23.811,69.89,44.521,110.556,51.614
			c17.077,2.979,34.793,4.234,52.076,5.591c27.522,2.16,54.824-5.271,82.091-7.718c29.039-2.604,58.581-3.646,87.69-1.781
			c18.709,1.198,37.127,4.938,55.775,6.705c18.017,1.708,36.123,1.245,54.191,1.722c21.588,0.569,42.941,3.856,64.497,4.707
			c22.351,0.883,44.664-0.46,67.003-0.966c28.716-0.65,57.251,3.265,85.922,4.007c16.939,0.439,33.865,1.285,50.804,1.736
			c36.844,0.98,73.664-2.245,109.942-8.621c21.352-3.753,42.632-7.896,63.995-11.58c30.786-5.308,61.255-12.438,92.228-16.656
			c31.647-4.311,63.589-8.256,94.1-18.114c21.346-6.896,43.235-12.006,64.471-19.256c53.094-18.127,103.187-41.703,149.91-72.823
			c24.214-16.127,48.453-32.987,68.485-54.251c4.889-5.189,9.696-10.176,14.771-15.156c20.804-20.414,39.349-43.632,52.988-69.602
			c9.073-17.276,18.405-34.552,24.843-53.029c5.693-16.342,10.031-33.138,16.352-49.264c3.144-8.02,6.624-18.77,13.706-23.859
			l-130.879-465.775c-0.015,0.007-0.029,0.013-0.044,0.019C4844.654,8310.572,4820.516,8327.852,4794.828,8344.614z" color="13285249" style="fill:#cab781;fill-opacity:1;stroke-width:10;stroke:rgb(0,0,0)"></path><path id="157963802" parent_id="157963793" order="4" structure_id="12123" d="
			M3491.612,7403.985c-26.593,32.926-24.297,83.85-20.461,123.383c4.79,49.355,15.188,97.592,27.621,145.105
			c9.619,36.761,46.034,91.033,4.024,121.285c-15.619,11.247-37.425,13.767-56.183,12.208
			c-336.718-80.866-532.839,35.108-573.865,63.147c-4.464,3.051-11.751,7.726-16.563,10.477l230.191,360.326
			c9.179,0.604,26.777,9.511,73.623,30.417c54.377,24.268,195.783,49.631,270.649,70.136c12.088,3.311,23.416,6.539,34.371,9.661
			c49.621,14.144,88.815,25.315,144.653,29.11c34.605,2.352,65.868,6.98,93.451,11.065c67.126,9.938,120.147,17.791,181.251-10.047
			c13.309-6.062,27.979-14.958,42.959-21.925c28.666-13.333,60.049-32.944,80.666-51.333c45.782-40.835,75.975-121.881,62-190
			c-5.334-26-14.659-31.907-21.334-92c-1.333-12-21.311-65.771-24-71.333c-39.333-81.334-43.396-134.909-80.401-198.754
			c-21.146-36.483-51.389-77.19-80.635-116.557c-23.544-31.69-47.89-64.46-66.654-94.029c-0.592-0.933-0.316-2.168,0.617-2.76
			c0.18-0.114,0.372-0.187,0.567-0.237l-117.91-302.107C3537.194,7295.451,3491.612,7403.985,3491.612,7403.985z" color="13285249" style="fill:#cab781;fill-opacity:1;stroke-width:10;stroke:rgb(0,0,0)"></path><path id="157963796" parent_id="157963793" order="5" structure_id="12122" d="
			M2855.873,7879.771c-197.193,111.796-162.222,353.678-162.222,353.678c-16.5,131.993,77.996,505.476,77.996,505.476
			c3,80.996,131.993,362.981,131.993,362.981c6,82.496-52.497,157.492-52.497,157.492c-19.499,4.5-265.487,173.991-265.487,173.991
			c-55.498,31.498-359.982,353.982-359.982,353.982c-184.491,181.491-215.989,158.992-215.989,158.992
			c-37.498-26.999,4.5-88.496,4.5-88.496c28.494-67.484,250.406-308.896,250.487-308.984
			c67.357-73.274,133.67-164.022,129.941-268.473c-1.716-48.067-1.115-90.947-23.852-134.668
			c-12.292-23.633-26.215-46.428-42.354-67.637c-25.449-33.446-56.686-62.773-93.188-83.739
			c-32.623-18.737-69.176-30.325-106.521-33.784l-51.777,273.379c2.205,0.355,3.943,1.711,4.955,4.446
			c4.366,11.804-20.479,37.488-26.963,44.862c-22.948,26.099-49.542,48.453-75.275,71.669
			c-26.462,23.873-46.999,56.775-69.275,84.864c-22.762,28.699-45.524,57.399-68.286,86.1
			c-28.141,35.482-49.481,77.789-72.707,116.76c-19.819,33.254-39.584,66.426-54.825,102.09
			c-12.132,28.391-16.634,60.004-33.346,86.361c-8.129,12.82-19.937,22.939-27.044,36.518c-8.073,15.424-8.297,31.598-11.419,48.342
			c-6.913,37.072-8.536,71.987-2.038,109.393c7.504,43.197,22.247,83.625,35.3,125.302c8.792,28.074,20.843,58.175,39.785,81.817
			c16.966,21.178,44.076,31.186,70.523,33.309c15.711,1.262,30.57,6.732,46.132,6.743c24.828,0.017,48.613,0.608,73.376-0.9
			c45.284-2.759,92.609-10.376,136.85-20.304c20.364-4.568,49.517-15.424,68-24.666c46.667-23.334,58.325-34.811,93.333-54
			c44.476-24.383,85.888-48.411,130.392-72.329c31.119-16.725,57.875-36.836,87.718-56.352
			c16.409-10.731,31.93-20.104,47.709-30.987c30.548-21.068,58.953-42.777,89.589-63.55
			c57.781-39.177,115.924-75.449,177.722-109.351c39.734-21.798,74.869-48.099,115.17-74.636c39.204-25.814,53.032-31.463,87-49.505
			c46.046-24.457,61.418-26.162,120.266-61.836c25.28-15.324,52.122-26.397,76.17-43.805c17.822-12.9,35.771-25.627,53.927-38.053
			c36.921-25.269,67.751-51.948,103.668-78.93c11.912-8.949,27.293-24.402,38.667-34c22.056-18.612,38.204-40.384,56.13-62.928
			c17.411-21.896,36.047-44.43,47.021-70.398c10.233-24.212,18.683-49.113,26.253-74.299c13.333-44.36,4.958-85.13-12.555-126.559
			c-9.439-22.331-16.606-45.553-26.259-67.799c-11.947-27.535-21.689-55.811-32.632-83.74
			c-10.564-26.964-23.875-52.701-35.628-79.143c-11.37-25.58-22.512-51.263-33.48-77.018c-9.651-22.664-26.184-41.188-40.667-60.785
			c-13.278-17.966-23.198-40.867-33.017-61.332c-5.373-11.198-59.267-141.014-73.833-175.001c-16-37.333-66.853-163.989-74-183.999
			c-15.132-42.37-37.735-76.342-22-92.667c2.567-2.663,4.982-4.018,9.043-3.75l-230.191-360.326
			C2856.083,7879.65,2855.974,7879.713,2855.873,7879.771z" color="13285249" style="fill:#cab781;fill-opacity:1;stroke-width:10;stroke:rgb(0,0,0)"></path><path id="157963805" parent_id="157963793" order="6" structure_id="12121" d="
			M2077.447,8961.012c-10.499,1.166-22.395,3.145-31.764,5.901c-22.231,4.535-45.208,10.922-67.576,18.425
			c-36.996,12.408-71.789,32.439-105.779,50.564c-61.765,32.936-115.584,89.979-166.956,135.874
			c-31.665,28.289-62.358,57.661-92.257,87.807c-31.801,32.063-67.179,61.274-96.658,95.645
			c-16.005,18.659-27.193,40.546-43.754,58.673c-8.911,9.754-16.205,21.646-23.691,32.986
			c-41.958,63.549-78.316,137.444-99.489,210.699c-17.636,61.017-20.045,127.459-32.726,189.859
			c-6.979,34.346-17.392,68.615-25.534,101.961c-3.982,16.311-8.497,32.65-12.226,49.455c-7.111,32.043-11.018,50.168-36.552,72.902
			c-13.601,12.109-30.824,21.662-49.109,14.584c-16.604-6.428-36.483-31.736-38.648-49.994
			c-55.496-467.974,61.498-778.454,61.498-778.454c10.852-47.64,30.083-93.115,55.045-135.04
			c10.474-17.592,20.271-36.965,31.836-53.498c26.253-37.531,71.116-66.492,107.459-93.404c29.027-21.496,60.43-39.97,89.396-61.869
			c92.194-69.701,188.021-143.902,255.948-239.361c44.361-62.34,80.745-130.757,108.571-202.016
			c5.307-13.59,10.389-27.367,14.711-41.271c13.009-35.655,19.586-73.507,18.288-111.476c-0.973-28.462-2.271-60.27-11.752-87.257
			c-6.525-18.571-16.804-36.104-27.162-52.837l-257.028,147.741c1.623,6.241-5.843,18.632-8.486,22.312
			c-6.437,8.959-15.236,11.672-23.588,18.443c-9.142,7.412-17.246,16.338-25.676,24.628c-11.737,11.542-23.735,22.822-35.188,34.651
			c-10.681,11.032-20.027,23.277-30.892,34.101c-9.329,9.292-19.506,17.67-29.79,25.874c-36.725,29.302-72.502,59.394-109.94,87.877
			c-39.219,29.839-79.159,58.726-119.167,87.492c-24.517,17.629-49.087,35.234-73.479,53.029
			c-19.226,14.025-39.551,26.554-60.821,37.234c-21.33,10.712-42.456,21.882-63.744,32.672
			c-14.168,7.18-27.369,17.394-41.267,25.074c-29.335,16.215-53,31-83,51.5c-5.786,3.953-25.838,16.382-31.5,20.5
			c-22,16-31.22,22.196-51.5,38.5c-11.75,9.444-16.5,16-27.5,27.5c-10,10.455-25.577,28.673-33.499,40.998
			c-12.024,18.708-21.998,38.79-29.729,59.64c-2.643,7.128-4.982,14.417-7.332,21.617c-1.986,6.087-1.812,12.277-3.196,18.495
			c-4.784,21.482-2.747,44.176-2.743,65.999c0.002,10.954-0.994,21.276-1.5,32.036c-1.39,29.512,4.44,61.398,15.977,88.644
			c5.936,14.018,8.571,28.37,7.021,43.589c-2.691,26.42-3.953,51.992-11.012,77.956c-3.292,12.11-4.346,24.279-6.307,36.604
			c-2.079,13.065-5.715,25.832-7.652,38.923c-2.748,18.572-3.955,37.338-8.574,55.594c-4.763,18.822-10.078,37.492-14.45,56.414
			c-4.786,20.712-4.989,41.596-6.002,63.242c-0.526,11.252-0.496,22.753-0.5,34c-0.007,18.945,3.123,37.68,4.747,56.512
			c1.577,18.291,2.347,36.678,6.208,54.685c4.709,21.962,14.415,42.082,22.764,62.78c7.963,19.743,14.522,40.037,21.838,60.022
			c8.231,22.483,15.861,45.179,23.528,67.858c7.464,22.078,16.893,44.109,22.734,66.665c5.598,21.613,11.339,42.597,15.763,64.466
			c4.728,23.365,8.491,46.916,13.42,70.241c5.104,24.155,10.874,48.273,16.392,72.337c2.421,10.558,6.912,19.994,11.717,29.648
			c9.399,18.885,21.249,35.014,37.513,48.154c35.386,28.586,76.611,46.293,119.384,61.027c19.363,6.672,38.226,9.713,57.829,13.854
			c16.136,3.408,31.377,10.219,47.398,14.164c17.424,4.291,35.505,6.416,53.449,5.863c39.032-1.202,77.57-3.289,116.432-7.015
			c13.812-1.325,36.046-4.854,49.384-7.513c112.504-22.435,156.5-56,247-117.5c19.105-12.983,39.786-34.125,49.641-55.316
			c10.133-21.794,7.356-48.535,11.135-71.788c5.124-31.538,9.803-63.365,9.802-95.39c-0.001-31.461-8.914-61.254-10.372-92.408
			c-3.625-77.494,7.866-159.329,46.462-225.744c18.361-31.595,37.999-61.758,56.687-93.37
			c63.661-107.687,148.615-201.759,225.071-300.72c13.205-17.091,21.801-37.555,35.518-54.372
			c16.468-20.191,35.377-35.338,53.931-53.239c5.647-5.449,25.112-24.29,35.05-22.691l51.777-273.379
			C2111.682,8959.007,2094.498,8959.118,2077.447,8961.012z" color="12100205" style="fill:#b8a26d;fill-opacity:1;stroke-width:10;stroke:rgb(0,0,0)"></path><path id="157963800" parent_id="157963793" order="7" structure_id="12117" d="
			M7488.239,5667.268c-4.497-35.616-16.914-70.269-28.739-104.781c-10.429-30.436-20.503-63.039-30.991-93.978
			c-6.021-17.763-12.825-34.641-19.262-52.507c-2.681-7.439-5.061-15.554-7.743-23.003c-4.663-12.953-8.456-26.978-12.283-40.219
			c-10.53-36.432-18.037-73.823-20.402-111.72c-2.324-37.233-5.716-74.593-6.473-112.024
			c-2.105-104.152,10.648-208.069,16.654-312.036c1.719-29.768-3.344-56.642-6-86c-1.657-18.322-4.172-49.924-7-68
			c-3.767-24.069-6.423-51.245-7.102-75.621c-0.774-27.813-1.105-55.674-3.894-83.381c-3.501-34.796-7.596-69.325-10.997-103.997
			c-3.424-34.906-10.929-68.268-18.045-102.011c-6.197-29.384-12.792-58.689-20.068-87.825c-5.594-22.399-8.035-47.563-15.648-69.19
			c-9.744-27.675-24.094-54.612-38.982-80.239c-23.067-39.705-47.857-78.017-71.869-117.243
			c-12.56-20.516-25.661-42.425-40.645-61.247c-7.17-9.006-13.582-17.734-20.779-26.671c-14.442-17.935-27.069-35.561-45.748-49.788
			c-30.74-23.41-62.258-50.411-98.448-64.843c-35.315-14.083-68.386-16.231-106.256-16.276c-10.581-0.013-21.16-0.029-31.733-0.535
			c-8.95-0.429-17.896-1.385-26.643-3.382c-5.537-1.264-10.773-3.747-16.447-4.425c-26.276-3.142-48.35,8.512-71.469,18.971
			c-7.248,3.279-14.633,6.26-22.1,9.002c-5.399,1.982-10.982,4.032-16.365,6.272c-39.141,16.292-84.768,29.028-124.238,39.337
			c-21.506,5.617-42.751,13.737-63.297,21.589c-22.441,8.576-45.647,17.445-69.223,23.058c-6.03,1.436-12.06,2.889-18.091,4.342
			c-15.971,3.849-31.943,7.696-47.986,11.234c-16.167,3.565-32.406,6.822-48.755,9.445c-6.155,0.988-12.28,2.18-18.469,2.95
			c-6.066,0.756-12.196,0.896-18.246,1.795c-14.848,2.208-28.908,7.775-42.935,12.888c-15.134,5.516-30.628,10.533-46.089,15.291
			c-15.977,4.917-32.027,9.585-48.112,14.129c-8.927,2.521-17.865,5.004-26.808,7.468c-17.341,4.778-34.262,11.555-51.539,17.902
			c-31.688,11.644-58.55,29.395-91.191,39.466c-7.219,2.228-14.463,4.43-21.717,6.636c-31.724,9.647-64.526,19.623-95.842,31.919
			c-20.064,7.879-40.127,13.766-60.105,21.862c-37.869,15.348-72.457,29.436-109.253,47.222
			c-32.225,15.576-68.098,34.631-97.297,55.577c-6.741,4.838-11.675,13.315-19.637,16.221c-2.112,0.771-6.701,1.858-9.818,1.108
			l-332.904,309.482c0.911,1.177,1.837,2.348,2.79,3.507c0,0,100,122,438-22l914-256c0,0,182-24,182,126c0,0-16,133-188,133
			c0,0-494,99-546,131c0,0-374,82-468,338c0,0-0.113,0.293-0.306,0.853l378.743,8.448c0.221-0.483,0.484-0.991,0.843-1.551
			c4.098-6.405,31.896-4.668,40.247-5.676c15.637-1.887,31.233-4.198,46.973-5.071c43.955-2.439,88.039-4.709,132.383-10.602
			c50.01-6.645,102.156-9.404,152.619-9.399c34.049,0.002,67.922,3.485,101.85,5.873c18.352,1.291,36.722,2.446,55.007,4.515
			c33.359,3.773,67.468,10.234,97.282,26.373c24.468,13.245,41.076,27.057,57.791,49.774c18.645,25.339,31.537,52.564,41.069,81.973
			c6.052,18.665,10.426,37.595,13.501,56.988c2.521,15.897,5.374,31.639,8.094,47.528c3.41,19.932,6.277,40.66,8.96,60.725
			c2.181,16.308,4.646,33.282,5.728,49.814c1.119,17.092,1.218,34.185,1.216,51.437c-0.003,28.036-0.601,55.75-3.663,83.633
			c-0.923,8.397,0.637,17.948-2.465,25.844c-3.785,9.635-12.697,16.53-16.33,26.521c-5.062,13.927-7.521,28.519-12.117,42.316
			c-5.493,16.495-17.272,32.746-25.645,47.962c-14.021,25.485-32.201,48.697-48.499,72.739
			c-8.16,12.037-18.839,19.698-30.228,28.234c-19.707,14.771-32.312,39.606-48.979,57.725
			c-26.439,28.742-59.295,43.499-93.486,59.838c-21.146,10.106-43.435,19.763-65.589,27.187
			c-27.106,9.082-53.364,18.986-80.237,28.339c-78.471,27.311-163.517,33.834-244.69,50.039
			c-23.826,4.756-47.65,9.532-71.569,13.805c-6.463,1.154-62.873,15.015-64.346,1.764l-383.101,76.89
			c35.962,57.052,93.423,117.123,184.944,157.164c0,0,200,156,628,54c123.592-37.292,246.6-77.374,367.831-121.751
			c62.566-22.902,117.236-58.952,177.569-85.441c41.042-18.02,104.206-28.399,134.6,13.192c0,0-2,64-88,96
			c-106.834,39.752-219.752,90.49-253.492,210.26c-19.357,68.708,3.338,133.451,31.376,195.772
			c18.005,40.021,43.493,73.198,64.693,111.46c43.276,78.106,60.908,157.039,65.362,246.543
			c2.764,55.561,42.732,143.639-26.762,173.917c-28.934,12.606-62.817,10.654-92.726,4.611
			c-38.26-7.73-79.422-12.427-118.775-18.909c-34.356-5.658-67.819-9.966-101.876-15.477
			c-89.577-14.496-185.305-24.893-274.938-10.313c-40.765,6.627-94.831,11.765-121.343,49.662
			c-23.562,33.682-55.061,69.228-65.965,109.675c-5.742,21.299-11.804,41.144-14.243,62.45l297.047,43.357
			c-1.754-9.081,13.014-2.392,18.006-0.772c59.805,19.396,119.84,42.02,180.744,59.822c18.319,5.355,36.562,10.97,54.891,16.293
			c7.503,2.18,15.18,3.449,22.667,5.446c54.993,14.668,109.668,30.584,165.079,43.642c22.229,5.237,44.537,10.078,66.545,16.204
			c26.653,7.419,58.896,21.021,87.085,16.163c9.493-1.636,17.123-6.979,26.027-10.376c15.03-5.732,29.634-5.439,45.534-5.439
			c21.613-5.842,42.098-9.991,60.404-23.651c41.022-30.615,76.27-70.815,105.493-112.69c19.649-28.151,37.45-57.543,57.119-85.681
			c15.171-21.702,32.476-41.979,46.24-64.651c44.353-73.054,47.633-160.764,65.143-242.311c6.938-32.313,5.327-65.675,3.562-98.438
			c-1.734-32.206-2.918-63.948-8.561-95.791c-3.299-18.625-7.344-37.105-11.154-55.629c-5.891-28.63-14.603-57.701-26.019-84.648
			c-3.817-9.011-9.104-17.673-14.005-26.144c-9.556-16.516-21.76-26.188-35.489-39.012c-14.646-13.681-31.762-23.839-50.113-31.704
			c-16.849-7.223-32.898-16.24-50.031-22.812c-6.692-2.566-12.204-5.479-18.443-8.552c-3.534-1.74-8.489-3.299-12.298-4.124
			c-2.781-0.603-9.253,0.16-10.777-2.478c-5.628-9.74,20.1-3.205,22.819-2.037c9.393,4.033,17.625,10.144,26.729,14.696
			c6.479,3.241,12.881,6.627,19.259,10.057c29.871,16.064,63.955,18.021,97.186,16.609c20.96-0.89,42.098,4.069,63,5
			c59.766,2.66,131.965-25.229,159.996-80.44c31.792-62.622,18.21-142.831,21.999-210.368c2.771-49.38,3.154-98.568,10.767-147.428
			c5.674-36.431,5.348-76.935,3.467-114.764c-1.814-36.523,0.589-73.062,1.463-109.575
			C7495.52,5735.867,7492.569,5701.56,7488.239,5667.268z" color="12755765" style="fill:#c2a335;fill-opacity:1;stroke-width:10;stroke:rgb(0,0,0)"></path><path id="157963797" parent_id="157963793" order="8" structure_id="12116" d="
			M6886.216,3377.004c-12.397-41.351-28.989-81.174-46.717-120.459c-16.374-36.287-28.499-74.762-44.966-110.557
			c-21.691-47.159-45.503-89.069-80.463-127.975c-15.531-17.284-26.254-38.033-41.01-55.828
			c-50.146-60.473-120.641-81.185-189.035-113.438c-29.396-13.862-63.961-28.083-89.515-47.748
			c-16.358-12.588-31.151-21.47-43.668-37.91c-13.325-17.502-24.886-35.604-36.834-54.081
			c-7.161-11.073-11.834-22.121-16.745-34.243C6269,2605,6247,2530,6209,2471c-22.22-34.499-56.322-61.831-85.225-90.724
			c-24.014-24.005-49.7-45.652-75.528-67.522c-12.896-10.919-26.384-21.081-40.25-30.256c-15.793-10.45-32.045-22.113-48.957-30.545
			C5913,2229,5881.289,2227.234,5833,2205c-29.896-13.765-79.451-22.448-111.848-18.662c-27.948,3.267-56.108,8.945-81.164,22.169
			c-43.447,22.929-76.27,44.431-107.113,82.127c-13.732,16.782-25.271,31.793-44.021,53.803
			c-8.235,9.668-18.749,29.347-30.72,48.999l-0.003,0.001c-8.204,15.355-17.812,31.029-27.24,46.406
			c-8.715,14.211-16.946,27.635-23.595,40.053c-21.978,41.049-38.893,84.448-50.276,128.991
			c-9.681,37.882-15.82,65.312-20.754,87.353c-4.653,20.786-8.015,35.804-11.889,48.3c-11.352,36.624-17.993,69.981-25.684,108.605
			c-1.246,6.258-2.513,12.618-3.823,19.108c-31.566,156.338-99.741,310.385-202.632,457.865
			c-6.805,9.753-13.631,19.515-20.463,29.284c-39.67,56.731-80.69,115.394-118.108,173.478
			c-28.747,44.623-88.316,145.175-129.594,203.271c-6.671,9.389-68.287,102.94-128.931,150.843
			c-24.693,19.483-7.732-34.903,15.288-57.076c41.788-40.259,91.417-98.726,101.411-110.584
			c23.971-28.443,84.821-105.353,138.462-188.619c37.459-58.147,78.502-116.842,118.194-173.604
			c6.83-9.769,13.655-19.529,20.459-29.281c102.575-147.027,170.535-300.571,201.992-456.368c1.311-6.487,2.576-12.843,3.821-19.097
			c7.712-38.735,14.372-72.187,25.786-109.01c3.825-12.342,7.173-27.294,11.806-47.989c4.939-22.066,11.087-49.528,20.782-87.469
			c11.463-44.855,28.495-88.556,50.625-129.889c6.703-12.521,14.965-25.993,23.711-40.256c8.306-13.544,16.751-27.321,24.23-40.874
			c8.512-23.909,19.343-70.554,53.788-124.89c21.624-34.111,26.789-69.804,26.513-110.999
			c-0.522-77.976-37.439-151.498-70.182-220.375c-18.493-38.903-39.03-79.416-65.828-113.453
			c-103.899-131.969-223.593-251.421-364.137-343.688c-76.1-49.959-160.743-92.408-246.306-123.923
			c-33.612-12.379-68.275-26.554-102.573-35.57c-19.563-5.143-38.55-10.459-58.43-16.494
			c-47.596-14.449-92.257-28.667-140.779-40.365c-64.546-15.564-130.555-19.696-196.279-29.231
			c-73.902-10.722-151.422-22.833-227.593-22.649c-66.079,0.161-144.78,17.409-207.093,24.163
			c-58.232,6.311-98.894-2.913-156.048,10.54c-51.389,12.096-111.758,33.066-149.715,69.35
			c-11.216,10.721-23.354,19.073-32.763,31.905c-14.433,19.684-24.775,40.551-38.26,60.291c-5.227,7.65-8.961,15.653-13.037,23.925
			c-9.84,19.973-23.628,40.152-21.622,63.265c1.892,21.77,2.672,43.637,2.681,65.485c0.008,21.167-0.741,42.334-2.186,63.451
			c-0.748,10.936-1.667,21.916-0.771,32.872c0.864,10.569,2.807,21.047,4.899,31.432c1.236,6.136,2.554,12.254,3.82,18.383
			c7.243,35.062,24.6,64.847,44.459,93.706c8.372,12.166,17.97,23.878,29.119,33.593c21.41,18.654,47.046,33.727,70.583,49.587
			c27.197,18.326,55.693,34.471,83.91,51.312c55.03,32.851,115.19,56.497,172.519,85.129
			c59.321,29.627,117.985,60.585,176.468,91.828c40.431,21.6,82.41,44.886,124.624,62.533c20.412,8.532,35.87,18.346,52.84,32.867
			c43.271,37.028,89.667,69.83,134.695,104.869c7.832,6.094,25.862,19.254,24.287,30.998c-1.522,11.354-15.554,6.974-23.033,3.026
			c-8.307-4.382-15.299-11.125-22.779-16.781c-16.805-12.706-31.794-27.956-46.76-42.711c-27.823-27.431-59.377-54.309-91.983-75.04
			c-8.942-5.685-18.226-11.005-27.131-16.344c-34.633-20.763-64.604-46.472-100.394-65.814
			c-28.073-15.172-56.297-30.063-84.527-44.941c-52.673-27.759-105.562-55.237-159.169-81.159
			c-33.494-16.195-68.409-28.516-102.54-42.961c-44.44-18.808-88.388-38.933-132.586-57.875
			c-30.497-13.069-60.771-31.264-94.65-33.308c-29.856-1.802-51.449,27.557-67.528,49.224c-22.438,30.235-38.8,64.562-53.216,99.193
			c-13.456,32.322-28.79,66.306-38.968,99.784c-6.307,20.745-12.852,41.438-20.495,61.735c-5.289,14.044-7.616,29.47-14.345,42.948
			c-6.41,12.839-16.967,23.287-23.684,35.955c-7.419,13.992-13.211,28.758-18.485,43.67c-10.358,29.286-18.546,59.528-32.828,87.262
			c-2.267,4.401-4.335,8.908-6.577,13.324c-9.114,17.949-21.638,34.408-28.891,53.227c-3.729,9.673-7.456,19.345-11.184,29.018
			c-6.321,16.399-12.642,32.799-18.962,49.199c-4.633,12.021-9.267,24.043-13.899,36.065c-3.458,8.975-7.148,17.628-8.921,27.132
			c-1.761,9.443-3.284,19.233-8.723,27.393c-3.11,4.665-8.547,9.024-12.393,13.22c-4.02,4.387-8.458,8.391-12.771,12.515
			c-15.049,14.39-32.234,28.127-47.105,43.541c-8.208,8.508-17.061,16.538-23.887,26.259c-7.66,10.91-10.939,23.206-15.029,35.636
			c-4.261,12.95-9.677,25.489-13.877,38.462c-6.609,20.413-14.377,40.431-21.114,60.806c-5.197,15.718-10.773,31.091-15.119,47.021
			c-1.512,5.543-2.769,11.042-4.082,16.593c-0.99,4.184-1.846,8.549-4.101,12.346c-0.775,1.304-2.244,3.098-3.722,3.992
			l-92.055,290.677c6.977,1.785,13.946,3.537,20.902,5.181c24.204,5.72,45.565,4.723,70.285,6.814
			c19.666,1.664,40.43,4.823,58.932,3.895c33.24-1.669,72.432-11.998,102.938-23.912c31.792-12.416,63.057-31.879,93.113-47.958
			c29.493-15.777,58.413-28.577,86.465-47.554c91.346-61.797,152.477-138.504,213.352-229.712
			c47.86-71.706,111.769-120.449,193.383-146.588c53.14-17.021,110.163-6.282,164.772-5.889c33.109,0.238,66.267-0.56,99.357-1.591
			c90.47-2.819,181.555-8.359,270.845-23.819c42.629-7.381,86.41-16.512,125.851-34.881c0,0,196-34,364-330
			c21.79-37.135,41.039-76.437,55.43-117.032c8.449-23.836,6.716-50.232,12.583-74.69c7.347-30.628,22.795-41.996,48.789-57.535
			c34.771-20.787,71.944-17.994,101.198,11.258c0,0,74,30,2,258c0,0-84,206-170,332l-100,300c0,0-54,138-172,156c0,0-348-22-706,328
			c0,0-320,302-176,548c0,0,92,172,458,2c0,0,160-32,252,40c0,0,213.98,95.991,375.984,80.001
			c46.452-4.586,76.503-8.735,116.576-35.449c66.971-44.644,138.198-85.74,193.936-144.053
			c15.843-16.576,27.545-35.231,38.993-54.601c20.465-34.625,53.791-61.523,74.511-95.915
			c38.674-64.182,74.819-118.45,130.982-169.988c30.351-27.851,59.293-46.926,84.183-79.804
			c36.494-48.206,84.843-87.109,123.391-133.635c43.51-52.514,87.831-104.941,125.413-161.958
			c14.88-22.574,33.368-39.137,45.7-64.328c12.698-25.941,21.884-53.402,32.306-80.286c17.292-44.602,21.342-92.673,28.197-138.815
			c7.911-53.253,7.979-106.857,14.695-160.197c4.551-36.143,5.859-87.523,34-114.625c28.395-27.321,66.25,2.374,86.469,24.812
			c23.59,26.18,27.552,62.649,39.238,94.454c27.027,73.551,39.313,151.91,70.203,224.138c17.68,41.34,41.709,79.892,74.732,110.74
			c39.761,37.142,79.889,63.399,130.74,82.848c55.177,21.102,104.001,41.273,148.168,81.652
			c41.114,37.587-5.837,84.275-46.019,102.031c-7.063,3.121-87.943,23.747-88.254,20.817l0.311,2.93
			c0,0-190.456-4.77-448.456,179.23c0,0-254,184-439,466c0,0-138.369,221.792-41.79,346.493l332.904-309.482
			c-1.976-0.476-3.362-1.69-3.144-4.199c0.326-3.755,17.165-11.844,20.383-14.213c9.63-7.088,19.583-12.8,30.377-18.198
			c23.777-11.893,51.37-26.049,75.355-37.502c36.452-17.407,70.342-31.895,107.576-47.557c21.26-8.942,42.632-15.615,64.1-24.044
			c31.463-12.354,64.343-22.353,96.141-32.023c7.248-2.204,14.486-4.405,21.701-6.631c25.698-7.929,49.865-20.268,73.553-32.833
			c25.227-13.381,45.031-34.357,68.191-50.696c25.451-17.955,48.625-21.066,78.651-24.064c10.94-1.092,22.106-1.491,33.021-2.049
			c18.242-0.934,36.446,1.361,54.675,1.886c3.965,0.114,7.9-0.204,11.823-0.693c13.164-1.642,26.219-3.894,39.278-6.198
			c17.511-3.216,34.902-7.042,52.238-11.087c9.658-2.254,19.3-4.578,28.941-6.901c6.034-1.454,12.067-2.908,18.102-4.345
			c23.319-5.552,46.399-14.373,68.72-22.903c20.646-7.891,41.996-16.05,63.714-21.723c39.338-10.275,84.799-22.962,123.713-39.16
			c5.461-2.273,11.085-4.338,16.523-6.335c19.588-7.191,38.095-16.877,57.588-24.305c29.955-11.414,57.497-24.677,77.345-50.752
			c17.892-23.504,31.804-51.494,41.349-79.384c5.387-15.736,9.087-32.018,12.22-48.336
			C6895.972,3487.134,6901.225,3427.064,6886.216,3377.004z" color="13939253" style="fill:#d4b235;fill-opacity:1;stroke-width:10;stroke:rgb(0,0,0)"></path><path id="157963801" parent_id="157963793" order="9" structure_id="12116" d="
			M5890.541,5890.138c4.093-11.768,33.062-8.834,42.266-9.251c23.696-1.073,47.086-7.536,70.536-11.061
			c89.066-13.385,180.252-16.386,266.104-46.265c5.114-1.78,10.246-3.544,15.388-5.31c26.72-9.177,51.18-22.385,75.825-35.988
			c36.31-20.042,74.183-38.119,107.229-63.478c34.151-26.205,58.69-60.86,83.356-95.633c14.928-21.045,29.196-42.555,44.059-63.627
			c12.943-18.352,26.765-35.478,33.693-57.601c10.913-34.845,26.136-67.209,36.37-102.568c6.93-23.939,12.13-48.503,14.565-73.324
			c1.776-18.106,1.034-36.61,0.066-54.838c-2.869-54.062-15.36-113.974-43.732-161.28c-15.013-25.031-33.419-47.844-54.018-68.503
			c-18.553-18.606-42.627-46.326-67.772-55.536c-12.999-4.761-26.406-9.953-39.632-14.793
			c-29.674-10.858-60.307-18.794-90.825-26.86c-60.056-15.874-121.698-22.149-183.521-25.212
			c-52.205-2.586-104.581-3.467-156.768,0.004c-28.156,1.873-57.077,1.544-84.666,8.01c-5.029,1.179-29.208,7.325-24.629-2.724
			l-378.743-8.448c-4.222,12.237-47.725,154.919,170.306,281.147c10.806,4.163,20.957,9.869,30.568,16.302
			c50.141,33.56,80.83,88.364,91.666,146.968c9.141,49.425,11.26,128.916-9.516,175.965
			c-17.269,39.104-76.482,47.935-113.967,53.416c-47.602,6.961-95.148,20.401-142.752,29.35c0,0-160,68-134,192
			c0,0,7.001,76.253,59.056,158.836l383.101-76.89C5890.064,5892.117,5890.178,5891.188,5890.541,5890.138z" color="13939253" style="fill:#d4b235;fill-opacity:1;stroke-width:10;stroke:rgb(0,0,0)"></path><path id="157963799" parent_id="157963793" order="10" structure_id="12115" d="
			M2933.999,2936.668c-1.021-3.318,1.033-6.906,2.508-9.75c1.683-3.245,2.677-6.584,3.9-10.059
			c5.448-15.472,10.798-30.987,16.079-46.517c6.547-19.256,13.183-38.499,19.983-57.666c6.169-17.391,12.379-34.84,18.049-52.399
			c2.148-6.653,5.014-13.073,7.074-19.745c4.273-13.84,10.819-26.929,17.914-39.516c5.601-9.934,12.355-19.209,20.249-27.448
			c5.367-5.604,11.835-10.235,17.388-15.719c5.581-5.511,12.161-10.144,17.979-15.388c6.806-6.134,12.864-12.938,19.061-19.666
			c6.209-6.742,13.225-12.657,17.975-20.61c5.229-8.754,8.324-18.569,11.973-28.033c5.84-15.146,11.676-30.295,17.515-45.442
			c6.332-16.426,12.662-32.852,18.992-49.277c5.053-13.114,10.109-26.226,15.162-39.339c6.86-17.8,10-36.415,16.981-54.215
			c7.346-18.729,16.748-36.554,25-54.883c16.702-37.098,26.052-77.757,43.606-114.154c17.896-37.104,33.099-75.166,45.625-114.441
			c11.486-36.013,25.18-72.213,37.863-106.981c24.108-66.087,45.747-135.317,59.082-204.921c2.93-15.295,5.399-30.346,11.042-44.498
			l0.125-2.731c1.281-9.587,5.078-19.094,7.056-28.493c2.526-12.004,5.05-24.009,7.701-35.986c2.304-10.41,4.49-20.861,5.881-31.438
			c3.203-24.351,3.985-49.171,4.239-73.768c0.168-16.248-0.1-32.5-0.885-48.73c-1.015-21-1.754-43.229-6.144-63.826
			c-1.787-8.383-3.084-16.913-4.854-25.528c-3.548-17.27-8.147-32.184-12.899-49.503c-10.129-36.916-16.83-73.192-26.714-110.495
			c-11.097-41.881-22.191-84.286-38.76-124.696c-20.137-49.111-40.761-98.819-66.246-145.307
			c-7.833-14.287-16.202-28.143-25.219-41.473c-12.187-18.016-24.516-35.937-36.871-53.842
			c-9.528-13.809-23.105-24.103-33.087-37.52c-3.604-4.844-8.55-10.676-10.198-16.491c-3.155-11.138,1.269-15.244-7.157-23.727
			c-15.897-16.009-37.433-25.79-54.906-39.822c-10.117-8.125-17.887-17.645-28.965-24.616c-10.95-6.892-22.663-12.476-33.803-19.042
			c-26.976-15.899-55.699-28.546-84.14-41.535c-29.646-13.539-58.576-29.56-87.182-45.156
			c-18.891-10.299-38.483-16.221-57.992-25.01c-21.354-9.62-46.405-16.903-69.321-22.2c-17.983-4.157-37.474-2.366-55.841-4.349
			c-20.185-2.178-40.326-4.763-60.414-7.7c-40.394-5.907-67.342-10.672-111.735-18.393c-22.886-3.98-48.806-10.107-71.415-15.441
			c-25.011-5.9-55.329-15.086-80.147-21.748c-21.726-5.833-43.525-11.444-65.576-15.921c-35.407-7.188-63.746-14.515-99.403-20.235
			c-34.557-5.544-70.449-7.72-111.221-14.271c-29.469-4.734-43.625-3.482-70.211-5.996c-61.77-5.84-106.157-8.686-166.956-12.546
			c-51.152-3.248-81.065-4.825-140.899-6.755c-29.762-0.96-64.809,0.22-94.577,0.965c-27.978,0.7-63.694,0.685-91.681,0.965
			c-61.08,0.612-118.429,2.586-179.502,3.859c-34.931,0.729-71.275-1.438-106.152,0.683c-36.439,2.214-72.497,8.197-108.364,14.779
			c-34.258,6.288-69.104,11.096-102.508,21.213c-18.628,5.642-36.551,12.068-55.492,16.888
			c-70.677,17.988-138.443,49.03-203.62,81.085c-22.433,11.033-44.029,23.653-65.723,36.049
			c-29.609,16.92-58.681,34.469-86.625,54.053c-16.162,11.327-31.939,23.213-47.303,35.6c-13.067,10.534-25.71,21.607-37.75,33.306
			c-11.827,11.493-23.399,23.242-35.069,34.893c-17.182,17.154-34.72,34.038-51.608,51.476
			c-13.989,14.445-27.157,30.848-39.365,46.767c-13.008,16.958-25.161,34.662-35.14,53.591
			c-12.558,23.821-25.321,48.079-35.367,73.088c-8.011,19.943-12.352,41.068-15.301,62.293c-2.918,21-6.124,42.45-7.091,63.641
			c-0.808,17.714-2.568,35.435-1.708,53.183c2.266,46.729,12.824,93.946,21.773,139.787c3.673,18.812,10.824,36.53,21.198,52.636
			c10.691,16.598,24.602,33.133,40.606,44.868c4.669,3.424,9.253,6.89,14.018,10.367c4.063,2.966,8.626,5.107,13.014,7.384
			c7.99,4.145,16.159,9.636,24.509,12.499c19.292,6.614,39.959,7.81,60.136,9.482c21.844,1.81,43.724,3.295,65.492,5.917
			c18.835,2.269,38.466,4.629,56.363,11.22c7.987,2.941,16.274,7.133,23.16,12.646c5.321,4.261,15.729,12.663,13.965,20.211
			c-2.917,12.49-25.511,13.128-35.313,12.989c-7.62-0.109-15.323,0.293-23.061-0.088c-16.82-0.829-33.524-1.496-50.285-2.503
			c-20.599-1.238-40.949-4.052-61.553-5.149c-21.871-1.165-43.755-2.358-65.664-2.353c-35.399,0.009-77.15,2.828-107.585,23.222
			c-14.274,9.565-25.125,23.764-34.329,38.051c-5.736,8.906-10.997,18.117-16.347,27.257c-4.332,7.403-8.115,14.956-11.866,22.482
			c-14.329,28.754-25.423,58.161-34.753,88.974c-3.353,11.071-5.189,21.604-6.987,33.042c-1.426,9.071-2.71,18.393-3.88,27.491
			c-4.665,36.277-1.506,72.257-1.508,108.637c-0.003,64.227-2.278,128.347,3.784,192.388c2.131,22.513,4.716,44.98,7.539,67.417
			c5.579,44.347,12.251,88.868,16.676,133.325c2.704,27.176,8.594,55.146,13.011,82.209c4.318,26.457,10.654,52.414,16.957,78.753
			c6.375,26.64,10.163,53.049,11.528,80.249c1.226,24.438,4.653,48.325,4.006,73.015c-0.59,22.075,2.378,44.166,3.499,66.237
			c1.08,21.258,2.906,42.469,3.975,63.727c1.022,20.329,0.193,40.674,1.151,60.988c0.801,17.81,2.271,35.6,2.631,53.427
			c1.086,53.728,2.638,107.675,5.914,161.316c0.924,15.128,2.246,30.239,4.305,45.257c4.667,34.035,9.649,67.137,15.399,101.055
			c6.61,38.997,15.624,78.339,25.055,116.753c11.915,48.534,27.528,96.031,45.3,142.724c16.524,43.415,28.75,88.371,46.448,131.353
			c14.651,35.583,31.163,70.546,52.684,102.548c15.99,23.777,31.974,47.986,51.424,69.128c17.844,19.396,39.022,35.395,61.27,49.396
			c34.986,22.019,71.561,44.518,105.945,67.579c10.069,6.752,36.71,23.849,46.5,31c34.744,25.379,53.778,34.944,91.559,55.564
			c18.666,10.188,36.951,21.12,56.21,30.179c1.789,0.842,3.452,1.405,4.731,2.757l63.545,35.68
			c81.02,35.488,166.668,60.775,251.806,84.227c81.693,22.503,164.065,42.789,246.834,60.94
			c44.065,9.663,89.144,16.463,131.818,31.531c26.375,9.313,53.676,16.446,80.495,25.623c39.435,13.493,78.146,28.75,117.95,41.252
			c14.586,4.582,29.398,10.081,44.1,13.246c17.38,3.742,33.29,9.941,50.33,13.888c32.491,7.526,64.595,16.656,96.426,26.592
			c22.171,6.921,44.22,14.391,65.76,23.113c12.397,5.019,25.384,8.438,37.73,13.63c5.317,2.236,32.916,15.439,15.814,22.169
			l234.435,180.335c17.648-26.225,36.953-51.667,51.75-79.728c17.217-32.651,21.374-68.343,25.625-104.576
			c6.52-55.579,1.609-117.938-19.252-170.274c-19.124-47.976-46.284-97.211-78.883-137.14
			c-32.514-39.824-60.609-62.348-107.107-102.846c0,0-173.992-133.493-247.488-158.992c0,0-197.99-83.996-286.485-98.995
			c0,0-215.99-49.498-244.488-112.495c0,0-43.498-68.997,43.498-233.988c0,0,32.999-40.498,59.997-194.99
			c0,0,50.998-218.989,10.5-349.482c0,0-44.998-143.991-113.994-235.487c-26.296-34.871-69.447-51.236-111.131-58.544
			c-21.139-3.706-42.95-5.363-64.382-5.644c-48.482-0.636-91.783,18.562-140.975,6.047c-33.322-8.478-68.75-11.931-100.112-26.854
			c-31.882-15.17-56.005-42.021-82.105-65.005c-28.679-25.255-46.112-67.044-56.269-103.489
			c-10.669-38.286-19.74-76.879-25.984-116.203c-10.561-66.509-19.461-141.55-7.877-208.198
			c16.39-94.296,77.449-146.936,151.463-198.509c33.517-23.355,68.018-45.295,102.889-66.563
			c54.844-33.451,104.653-83.565,145.365-132.927c29.604-35.895,57.157-82.857,69.46-127.826c7.538-27.552,4.66-56.224,4.166-84.384
			c-1.216-69.302,34.94-110.07,83.83-154.583c50.174-45.681,102.284-84.963,169.658-99.914c40.987-9.095,82.492-14.397,124.49-18.33
			c44.628-4.179,88.666-3.769,133.5-6.006c35.02-1.747,70.831-3.347,105.884-2.64c34.722,0.699,72.33-2.878,107.198,6.148
			c43.155,11.171,85.59,25.204,129.264,34.333c47.428,9.915,91.527,10.927,137.629,28.156
			c27.357,10.224,54.072,22.483,80.628,34.675c51.417,23.604,99.977,53.215,144.354,88.32c11.141,6.041,21.937,13.043,32.362,20.356
			c124.407,87.262,204.25,246.506,138.478,393.956c-29.993,67.237-62.013,139.205-113.618,192.965
			c-19.962,20.796-38.7,43.014-57.679,64.808c-35.159,40.37-60.024,80.571-87.215,126.186c-14.814,24.854-29.76,48.92-43.558,73.967
			c-24.143,43.826-40.199,88.725-55.99,135.932c-17.738,53.027-22.528,117.731-27.96,174.081
			c-5.542,57.5-5.379,119.379-2.438,178.041c1.799,35.892,3.599,67.229,13.865,101.867c20.536,69.289,47.308,137.053,86.167,198.247
			c26.899,42.359,61.986,78.125,97.396,113.329c31.45,31.267,58.212,64.414,92.196,92.398
			c42.966,35.38,111.145,54.87,164.849,65.991c19.289,3.995,38.574,9.181,57.792,14.098l92.055-290.677
			C2936.328,2939.264,2934.786,2939.226,2933.999,2936.668z" color="13939253" style="fill:#d4b235;fill-opacity:1;stroke-width:10;stroke:rgb(0,0,0)"></path></g><g id="157963789" order="0" group_label_id="31" group_label="Atlas - Developing Human" sub_image_id="102291588"><path id="157963791" parent_id="157963789" order="0" structure_id="10557" d="
			M6865.4,5973.808c-60.333,26.489-115.003,62.539-177.569,85.441C6566.6,6103.626,6443.592,6143.708,6320,6181
			c-428,102-628-54-628-54c-224-98-244-316-244-316c-26-124,134-192,134-192c47.604-8.948,95.15-22.389,142.752-29.35
			c37.484-5.481,96.698-14.312,113.967-53.416c20.775-47.049,18.656-126.54,9.516-175.965
			c-10.836-58.604-41.525-113.408-91.666-146.968c-9.611-6.433-19.763-12.139-30.568-16.302c-228-132-170-282-170-282
			c94-256,468-338,468-338c52-32,546-131,546-131c172,0,188-133,188-133c0-150-182-126-182-126l-914,256c-338,144-438,22-438,22
			c-102-124,39-350,39-350c185-282,439-466,439-466c258-184,448.456-179.23,448.456-179.23l-0.311-2.93
			c0.311,2.93,81.19-17.696,88.254-20.817c40.182-17.756,87.133-64.444,46.019-102.031c-44.167-40.378-92.991-60.55-148.168-81.652
			c-50.852-19.449-90.979-45.706-130.74-82.848c-33.023-30.849-57.053-69.4-74.732-110.74
			c-30.89-72.228-43.176-150.587-70.203-224.138c-11.687-31.805-15.648-68.274-39.238-94.454
			c-20.219-22.438-58.074-52.133-86.469-24.812c-28.141,27.102-29.449,78.482-34,114.625c-6.717,53.34-6.784,106.943-14.695,160.197
			c-6.855,46.142-10.905,94.213-28.197,138.815c-10.422,26.884-19.607,54.345-32.306,80.286
			c-12.332,25.191-30.82,41.754-45.7,64.328c-37.582,57.017-81.903,109.444-125.413,161.958
			c-38.548,46.525-86.896,85.429-123.391,133.635c-24.89,32.878-53.832,51.953-84.183,79.804
			c-56.163,51.538-92.309,105.807-130.982,169.988c-20.72,34.392-54.046,61.29-74.511,95.915
			c-11.448,19.37-23.15,38.025-38.993,54.601c-55.737,58.313-126.965,99.41-193.936,144.053
			c-40.073,26.713-70.124,30.863-116.576,35.449C4529.98,4174.991,4316,4079,4316,4079c-92-72-252-40-252-40c-366,170-458-2-458-2
			c-144-246,176-548,176-548c358-350,706-328,706-328c118-18,172-156,172-156l100-300c86-126,170-332,170-332c72-228-2-258-2-258
			c-29.254-29.252-66.427-32.045-101.198-11.258c-25.994,15.54-41.442,26.907-48.789,57.535
			c-5.867,24.458-4.134,50.854-12.583,74.69c-14.391,40.596-33.64,79.897-55.43,117.032c-168,296-364,330-364,330
			c-39.44,18.369-83.222,27.5-125.851,34.881c-89.29,15.46-180.375,21-270.845,23.819c-33.09,1.031-66.248,1.829-99.357,1.591
			c-54.609-0.394-111.632-11.132-164.772,5.889c-81.614,26.139-145.523,74.882-193.383,146.588
			c-60.875,91.208-122.006,167.915-213.352,229.712c-28.052,18.978-56.973,31.777-86.465,47.554
			c-30.056,16.079-61.32,35.542-93.113,47.958c-30.507,11.914-69.698,22.243-102.938,23.912c-18.502,0.929-39.266-2.23-58.932-3.895
			c-24.719-2.091-46.081-1.094-70.285-6.814c-26.119-6.173-52.403-13.833-78.695-19.279
			c-53.704-11.121-121.882-30.611-164.849-65.991c-33.984-27.984-60.746-61.132-92.196-92.398
			c-35.409-35.203-70.497-70.97-97.396-113.329c-38.859-61.193-65.631-128.958-86.167-198.247
			c-10.266-34.638-12.066-65.976-13.865-101.867c-2.94-58.662-3.104-120.541,2.438-178.041
			c5.432-56.35,10.222-121.054,27.96-174.081c15.791-47.207,31.847-92.106,55.99-135.932c13.798-25.047,28.743-49.114,43.558-73.967
			c27.19-45.614,52.056-85.815,87.215-126.186c18.979-21.794,37.717-44.012,57.679-64.808
			c51.605-53.76,83.625-125.728,113.618-192.965c65.773-147.45-14.071-306.693-138.478-393.956
			c-10.425-7.312-21.221-14.315-32.362-20.356c-44.378-35.105-92.938-64.716-144.354-88.32
			c-26.557-12.191-53.271-24.451-80.628-34.675c-46.103-17.229-90.202-18.241-137.629-28.156
			c-43.674-9.13-86.109-23.162-129.264-34.333c-34.868-9.026-72.476-5.449-107.198-6.148c-35.054-0.707-70.865,0.894-105.884,2.64
			c-44.834,2.237-88.872,1.827-133.5,6.006c-41.998,3.932-83.503,9.234-124.49,18.33c-67.374,14.951-119.484,54.232-169.658,99.914
			c-48.89,44.513-85.046,85.281-83.83,154.583c0.494,28.16,3.373,56.832-4.166,84.384c-12.303,44.968-39.857,91.931-69.46,127.826
			c-40.712,49.362-90.521,99.476-145.365,132.927c-34.871,21.269-69.372,43.208-102.889,66.563
			c-74.014,51.573-135.073,104.212-151.463,198.509c-11.584,66.648-2.684,141.689,7.877,208.198
			c6.244,39.324,15.315,77.917,25.984,116.203c10.157,36.445,27.59,78.234,56.269,103.489c26.1,22.983,50.223,49.835,82.105,65.005
			c31.362,14.923,66.79,18.376,100.112,26.854c49.192,12.515,92.493-6.683,140.975-6.047c21.432,0.281,43.243,1.938,64.382,5.644
			c41.684,7.308,84.834,23.673,111.131,58.544c68.996,91.496,113.994,235.487,113.994,235.487
			c40.498,130.494-10.5,349.482-10.5,349.482c-26.999,154.492-59.997,194.99-59.997,194.99
			c-86.996,164.991-43.498,233.988-43.498,233.988c28.498,62.997,244.488,112.495,244.488,112.495
			c88.495,14.999,286.485,98.995,286.485,98.995c73.496,25.499,247.488,158.992,247.488,158.992
			c46.498,40.498,74.593,63.021,107.107,102.846c32.6,39.929,59.76,89.164,78.883,137.14
			c20.862,52.336,25.772,114.695,19.252,170.274c-4.251,36.233-8.408,71.925-25.625,104.576
			c-20.44,38.764-49.501,72.523-70.885,110.263c-16.73,29.526-50.516,43.906-78.98,59.501
			c-37.743,20.678-78.288,35.584-116.43,55.458c-45.919,23.926-93.633,46.255-144.986,54.731
			c-30.407,5.019-63.267,1.058-95.014,1.05c-51.044-0.011-99.472-6.383-149.091-16.991c-23.672-5.061-47.368-11.99-70.87-16.07
			c-92.929-16.132-187.106-29.848-277.848-58.258c-37.175-11.639-74.678-21.19-112.154-31.427
			c-22.408-6.12-46.609-13.56-68.036-22.48c-32.247-13.425-58.723-37.762-95.133-41.092c-25.437-2.326-38.751,10.42-51.109,31.256
			c-12.054,20.319-19.591,46.27-22.758,69.571c-2.69,19.788,4.326,40.008,3.493,59.961c-0.941,22.563-3.089,45.053-5.277,67.522
			c-4.47,45.906-9.428,90.736-15.997,136.003c-8.011,55.21-21.43,108.379-38.243,161.474c-7.493,23.661-18.467,45.476-23.27,69.843
			c-4.902,24.866-14.208,50.206-10.733,75.659c3.207,23.49,16.53,40.959,38.311,51.022c36.1,16.679,74.558,11.786,112.615,6.389
			c39.105-5.545,78.577-5.255,118.004-6.083c21.534-0.453,44.658-4.322,65.951-0.519c16.292,2.91,33.153,10.407,48.134,17.327
			c19.117,8.83,35.645,27.38,51.968,40.444c17.985,14.394,37.038,29.348,53.633,44.273c21.921,19.714,47.222,37.507,66.408,59.757
			c18.585,21.55,37.456,51.208,42.966,79.432c4.684,24.001,2.301,53.448-16.457,71.001c-18.649,17.454-47.955,27.535-72.057,34.077
			c-28.807,7.818-58.686,11.78-88.536,11.672c-34.226-0.124-67.97,1.229-101.688,6.977c-33.928,5.782-65.966,19.044-99.428,26.739
			c-22.37,5.145-43.805,9.788-65.843,15.495c-37.814,9.794-74.057,20-112.707,26.87c-33.819,6.01-67.978,9.801-101.938,14.87
			c-27.32,4.078-55.209,4.621-82.733,7.319c-23.155,2.27-44.7-0.112-67.573-1.038c-12.759-0.517-25.654,0.08-38.002-0.996
			c-16.753-1.461-32.786-2.968-49.521-4.503c-9.489-0.87-18.884-1.87-28.257-2.733c-0.008,0.828-0.537,1.749-1.824,2.762
			c-5.31,4.181-12.896,2.804-19.08,2.153c-7.102-0.747-14.252-0.704-21.371-1.192c-6.755-0.464-13.44-1.572-20.218-1.765
			c-9.357-0.265-18.718-0.448-28.079-0.55c-21.085-0.23-42.181-0.054-63.252,0.778c-21.067,0.832-42.159,2.251-63.05,5.166
			c-16.393,2.288-33.359,5.194-48.618,11.873c-1.43,0.627-2.844,1.29-4.23,2.008c0,0,0.5,292.5,0.5,294s-15,402-15,402l-5,396.5
			c0,0-9.5,247,1,347.5c2.36,30.839,4.359,62.27,10.138,92.682c1.129,5.943,1.105,8.195,7.794,7.23
			c15.761-2.272,31.486-4.586,47.422-4.973c24.231-0.587,48.139-2.247,72.256-4.159c12.897-1.022,26.011-2.178,38.454-5.739
			c2.35-0.673,5.374-1.785,8.33-2.285c36.236-29.238,106.238-80.894,167.357-97.754c0,0,71.997-49.497,317.984-16.499
			c0,0,139.492,10.5,32.998,76.496L920.74,7330.494c0,0-62.997,76.495,64.497,62.996c77.189,7.593,155.792,23.95,229.024,49.657
			c15.815,5.552,32.442,6.646,46.359,15.923c34.592,23.058,60.373,47.618,83.12,82.588c30.482,46.863,48.949,102.55,45.951,158.834
			c-1.756,32.958-10.847,65.267-26.286,94.411c-13.393,25.282-30.811,46.982-49.27,68.369
			c-16.125,18.683-30.603,39.847-51.562,53.547c-23.54,15.387-47.153,31.735-70.684,47.734
			c-11.825,8.041-24.458,15.385-37.163,22.159c-22.476,11.984-42.697,24.547-67.495,30.746
			c-31.287,7.291-62.137,19.503-89.891,35.62c-50.189,29.146-74.995,64.7-78.854,122.829c-2.338,35.205-0.005,69.494,2.95,104.76
			c2.1,25.05-1.188,75.976,15.795,96.766c10.004,12.246,13.835,25.794,35.061,19.635c21.888-6.351,39.936-26.682,56.397-41.472
			c27.511-24.72,55.114-49.335,82.171-74.528c74.213-69.105,150.798-140.695,237.918-193.483
			c20.237-12.262,41.392-23.7,63.936-31.126c34.7-11.432,67.219-25.47,103.617-32.56c76.589-14.919,149.56-8.383,222.035,20.038
			c50.669,19.869,81.572,73.135,108.714,117.441c3.711,6.059,7.604,12.221,11.486,18.492c10.358,16.733,20.636,34.266,27.162,52.837
			c9.482,26.987,10.78,58.795,11.752,87.257c1.298,37.969-5.279,75.82-18.288,111.476c-4.322,13.903-9.405,27.681-14.711,41.271
			c-27.826,71.259-64.21,139.676-108.571,202.016c-67.928,95.459-163.754,169.66-255.948,239.361
			c-28.966,21.899-60.369,40.373-89.396,61.869c-36.343,26.912-81.206,55.873-107.459,93.404
			c-11.564,16.533-21.362,35.906-31.836,53.498c-24.963,41.925-44.194,87.4-55.045,135.04c0,0-116.994,310.48-61.498,778.454
			c2.165,18.258,22.045,43.566,38.648,49.994c18.285,7.078,35.508-2.475,49.109-14.584c25.534-22.734,29.441-40.859,36.552-72.902
			c3.729-16.805,8.244-33.145,12.226-49.455c8.142-33.346,18.554-67.615,25.534-101.961c12.681-62.4,15.09-128.843,32.726-189.859
			c21.173-73.255,57.531-147.15,99.489-210.699c7.487-11.34,14.78-23.232,23.691-32.986c16.561-18.127,27.749-40.014,43.754-58.673
			c29.479-34.37,64.857-63.581,96.658-95.645c29.899-30.146,60.593-59.518,92.257-87.807
			c51.372-45.896,105.191-102.938,166.956-135.874c33.991-18.125,68.784-38.156,105.779-50.564
			c22.368-7.503,45.344-13.89,67.576-18.425c9.369-2.757,21.265-4.735,31.764-5.901c17.051-1.894,34.234-2.005,51.254-0.43
			c37.345,3.459,73.898,15.047,106.521,33.784c36.502,20.966,67.738,50.293,93.188,83.739
			c16.139,21.209,30.062,44.004,42.354,67.637c22.737,43.721,22.136,86.601,23.852,134.668
			c3.729,104.45-62.584,195.198-129.941,268.473c-0.082,0.089-221.994,241.5-250.487,308.984c0,0-41.998,61.497-4.5,88.496
			c0,0,31.499,22.499,215.989-158.992c0,0,304.484-322.484,359.982-353.982c0,0,245.988-169.491,265.487-173.991
			c0,0,58.497-74.996,52.497-157.492c0,0-128.994-281.985-131.993-362.981c0,0-94.496-373.482-77.996-505.476
			c0,0-34.971-241.882,162.222-353.678c0.101-0.058,0.21-0.12,0.313-0.18c4.812-2.751,12.099-7.426,16.563-10.477
			c41.026-28.039,237.147-144.014,573.865-63.147c18.758,1.559,40.563-0.961,56.183-12.208
			c42.009-30.252,5.595-84.524-4.024-121.285c-12.433-47.514-22.831-95.75-27.621-145.105
			c-3.836-39.533-6.132-90.457,20.461-123.383c0,0,45.582-108.534,188.637-164.761c8.293-3.26,16.894-6.354,25.853-9.23
			c0,0,227.988-56.996,463.477,260.987c31.138,36.739,64.892,78.481,95.855,117.589c59.085,74.625,117.179,150.57,168.8,230.604
			c68.307,105.902,120.357,230.716,118.634,358.588c-0.574,42.606-7.111,85.126-20.307,125.678c0,0-70.498,176.992-94.496,215.99
			c0,0-37.497,77.997,16.5,91.496c0,0,70.496,19.499,163.491-103.495c34.313-45.382,65.682-93.707,107.128-133.128
			c19.726-18.762,41.453-31.556,64.086-46.088c1.782-1.145,3.555-2.293,5.319-3.444c0.08-0.052,0.159-0.104,0.239-0.156
			c25.686-16.766,49.826-34.042,78.646-45.633c0.015-0.006,0.029-0.013,0.044-0.019c0.843-0.338,1.674-0.691,2.524-1.021
			c46.109-17.815,95.259-11.085,142.166-1.163c45.08,9.534,154.46,45.974,180.691-13.616c8.064-18.321,2.667-46.598-3.373-64.717
			c0,0-224.989-302.984-245.988-364.481c0,0-88.494-130.493-85.495-233.988c0,0-38.999-133.494,163.491-224.989
			c0,0,193.492-83.995,547.474,29.999c0,0,284.986,82.496,412.479,274.486c0,0,127.493,181.49,148.492,262.486
			c0,0,6,121.494-35.998,182.991c0,0-43.497,74.997,3,98.995c0,0,47.996,10.498,121.493-56.998c0,0,154.492-109.494,238.488-226.488
			c6.914-9.027,13.578-18.247,20.101-27.561c26.318-37.581,52.059-77.451,68.367-120.542c7.295-19.278,11.643-37.588,9.277-58.044
			c-3.693-31.94-29.908-49.038-57.247-62.34c0,0-232.488-106.494-233.988-110.994S6085.015,7459.511,6064,7407
			c-2.626-6.562-8.156-7.664-12.409-14.136c-15.03-22.872-24.971-56.302-33.571-82.3c-9.785-29.578-15.737-56.723-15.829-88.527
			c-0.084-29.077,7.923-54.229,15.365-81.836c10.904-40.447,42.403-75.993,65.965-109.675
			c26.512-37.897,80.578-43.035,121.343-49.662c89.633-14.579,185.36-4.183,274.938,10.313c34.057,5.511,67.52,9.818,101.876,15.477
			c39.354,6.482,80.516,11.179,118.775,18.909c29.908,6.043,63.792,7.995,92.726-4.611c69.494-30.278,29.525-118.356,26.762-173.917
			c-4.454-89.504-22.086-168.437-65.362-246.543c-21.2-38.262-46.688-71.439-64.693-111.46
			c-28.038-62.321-50.733-127.064-31.376-195.772c33.74-119.77,146.658-170.508,253.492-210.26c86-32,88-96,88-96
			C6969.606,5945.408,6906.442,5955.788,6865.4,5973.808z" color="15921648" style="fill:#f2f1f0;fill-opacity:1;stroke-width:10;stroke:rgb(0,0,0)"></path></g><g id="157963807" order="0" group_label_id="113753816" group_label="Atlas - Developing Human Sulci" sub_image_id="102291588"><path id="157963809" parent_id="157963807" order="0" structure_id="10639" d="M3480.932,1112.692c-0.574,0.136,33.253,24.417,33.253,24.417
			s40.283-7.59,40.67-6.971s-56.962,79.273-57.638,78.871C3496.542,1208.606,3481.506,1112.557,3480.932,1112.692z" color="7171696" style="fill:#6d6e70;fill-opacity:1;stroke-width:10;stroke:rgb(0,0,0)"></path><path id="157963815" parent_id="157963807" order="1" structure_id="10631" d="M7037.059,3545.987c-0.498-0.314,5.877,40.834,5.877,40.834
			s33.639,23.425,33.469,24.135c-0.171,0.709-96.473,14.897-96.658,14.133C6979.559,3624.325,7037.558,3546.302,7037.059,3545.987z" color="7171696" style="fill:#6d6e70;fill-opacity:1;stroke-width:10;stroke:rgb(0,0,0)"></path><path id="157963814" parent_id="157963807" order="2" structure_id="13222" d="M5141.816,8960.104c0.347-0.476-41.134,3.162-41.134,3.162
			s-25.601,32.015-26.298,31.797c-0.696-0.217-8.479-97.246-7.704-97.382C5067.456,8897.547,5141.47,8960.582,5141.816,8960.104z" color="7171696" style="fill:#6d6e70;fill-opacity:1;stroke-width:10;stroke:rgb(0,0,0)"></path><path id="157963813" parent_id="157963807" order="3" structure_id="13221" d="M3653.67,9323.734c0.334-0.486-41.027,4.324-41.027,4.324
			s-24.684,32.728-25.387,32.529c-0.702-0.197-11.228-96.967-10.458-97.125C3577.569,9263.307,3653.337,9324.221,3653.67,9323.734z" color="7171696" style="fill:#6d6e70;fill-opacity:1;stroke-width:10;stroke:rgb(0,0,0)"></path><path id="157963812" parent_id="157963807" order="4" structure_id="10624" d="M1723.713,10407.455c0.468-0.358-40.355-8.563-40.355-8.563
			s-33.588,23.498-34.196,23.092c-0.607-0.404,19.284-95.691,20.065-95.604
			C1670.008,10326.47,1723.246,10407.815,1723.713,10407.455z" color="7171696" style="fill:#6d6e70;fill-opacity:1;stroke-width:10;stroke:rgb(0,0,0)"></path><path id="157963810" parent_id="157963807" order="5" structure_id="10615" d="M597.168,8981.195c0.412,0.422,3.75-41.084,3.75-41.084
			s-27.291-30.587-26.959-31.237c0.33-0.651,97.296,7.878,97.301,8.664C671.264,8918.324,596.755,8980.773,597.168,8981.195z" color="7171696" style="fill:#6d6e70;fill-opacity:1;stroke-width:10;stroke:rgb(0,0,0)"></path><path id="157963811" parent_id="157963807" order="6" structure_id="10615" d="M468.095,3910.233c0.092,0.583,26.866-31.307,26.866-31.307
			s-4.515-40.743-3.868-41.082c0.646-0.338,74.727,62.807,74.274,63.45C564.915,3901.938,468.003,3909.651,468.095,3910.233z" color="7171696" style="fill:#6d6e70;fill-opacity:1;stroke-width:10;stroke:rgb(0,0,0)"></path><path id="157963816" parent_id="157963807" order="7" structure_id="10613" d="M257.71,5640.068c0.092,0.583,26.865-31.309,26.865-31.309
			s-4.515-40.742-3.868-41.081c0.646-0.338,74.728,62.806,74.276,63.448C354.532,5631.771,257.619,5639.486,257.71,5640.068z" color="7171696" style="fill:#6d6e70;fill-opacity:1;stroke-width:10;stroke:rgb(0,0,0)"></path></g></g></svg>
