<svg id="the_svg_wrapper" class="svg_wrapper" width="100%" height="100%" version="1.1" xmlns="http://www.w3.org/2000/svg"><g id="master_group" transform="translate(0,0) scale(0.02734375)" width="57088" height="73728" image_id="111257553" image_url="/external/devhuman/prod14/3760000556/3760000556.aff"><g id="158212603" order="0" group_label_id="31" group_label="Atlas - Developing Human" sub_image_id="111257553"><clippath><path id="zap_container_graphics_clip" d="M 0 0 L 1498 0 L 1498 312 L 0 312 L 0 0" style="fill:#000000;fill-opacity:1;stroke-width:10;stroke:rgb(0,0,0)"></path></clippath><path id="158212605" parent_id="158212603" order="0" structure_id="10557" d="
			M7330.85,5634.161c-20.635-55.616-35.177-116.386-55.602-171.824c-9.993-27.123-19.838-53.381-28.682-81.415
			c-16.763-53.13-16.803-107.996-25.21-162.289c-4.997-32.26-4.576-65.425-7.424-97.536c-3.075-34.682-6.932-68.203-10.371-102.801
			c-5.012-50.414-18.861-99.452-24.587-149.765c-2.58-22.678-2.604-43.346-8.17-65.482c-5.926-23.568-11.289-47.563-12.367-71.919
			c-1.459-32.975-5.589-65.468-7.566-98.264c-1.918-31.809-7.591-65.448-5.992-97.489c1.636-32.805,4.488-67.322,6.091-99.703
			c4.067-82.191,20.351-163.162,16.462-246.019c-3.158-67.283-17.582-120.859-79.458-157.131
			c-78.628-46.092-199.036-21.118-282.063,0.758c-24.339,6.412-48.547,12.099-73.082,20.246
			c-24.137,8.015-48.589,13.3-72.009,25.488c-32.8,17.069-66.194,33.077-100.356,47.238c-30.402,12.602-63.396,20.442-92.887,34.877
			c-26.909,13.172-52.013,28.404-78.677,41.637c-27.561,13.678-53.265,31.756-81.669,43.705
			c-18.332,7.711-35.675,17.663-54.227,24.865c-33.197,12.888-66.576,23.278-101.03,32.681
			c-52.825,14.417-103.208,16.377-158.986,19.115c-26.519,1.302-54.106,0.716-79.503-4.351
			c-35.874-7.158-72.262-4.878-107.184-16.748c-38.167-12.974-69.643-35.846-94.704-64.748
			c-51.129-58.967-75.554-143.043-75.585-219.429c-0.008-19.986-3.426-39.224-1.563-59.272
			c7.92-85.284,65.045-164.899,110.646-234.255c13.826-21.028,27.528-42.8,42.74-62.324c29.562-37.943,62.767-72.043,93.575-108.964
			c18.214-21.827,34.528-45.027,54.739-65.521c22.512-22.828,46.924-44.191,65.808-70.292
			c39.99-55.278,85.985-107.08,132.034-157.536c22.189-24.313,41.229-51.492,65.678-73.065
			c25.097-22.144,51.938-44.066,69.311-73.153c30.002-50.231,52.393-100.412,71.671-154.109
			c24.256-67.563,45.578-143.563,34.839-215.647c-4.491-30.142-15.324-62.696-27.18-90.744
			c-6.755-15.981-13.011-33.169-21.214-48.414c-32.711-60.787-98.035-114.958-160.648-141.5
			c-26.98-11.436-53.701-14.801-83.438-17.788c-25.83-2.595-55.356-7.364-81.813,1.646
			c-69.104,23.537-113.611,101.991-147.325,161.746c-61.608,109.199-96.617,230.235-139.84,346.444
			c-18.735,50.372-39.666,100.179-66.571,146.801c-24.338,42.173-46.144,88.343-75.213,127.405
			c-46.471,62.446-97.712,121.963-141.448,186.332c-23.184,34.119-41.554,70.825-66.98,103.487
			c-26.143,33.582-55.096,64.965-79.364,99.997c-35.588,51.375-71.23,102.438-116.004,146.419
			c-30.866,30.32-57.539,64.357-93.063,89.944c-15.021,10.819-32.648,17.007-47.752,27.277
			c-11.249,7.649-20.156,16.79-32.861,22.986c-26.417,12.883-56.612,19.629-85.891,21.082c-48.16,2.39-91.974,7.232-138.396-10.267
			c-33.773-12.73-70.842-21.827-96.313-50.861c-35.721-40.718-58.287-100.233-66.775-153.038
			c-6.276-39.043-6.83-82.152-4.823-122.992c3.028-61.611,12.186-120.504,17.989-181.494
			c13.22-138.912,39.672-274.801,61.17-412.519c4.333-27.757,12.097-53.288,17.964-80.96c2.932-13.825,4.999-26.857,7.866-40.498
			c6.454-30.696,14.834-60.661,20.962-91.399c3.96-19.886,9.518-38.879,11.954-58.665c8.129-65.998,22.007-139.251,48.45-202.09
			c14.598-34.689,26.627-70.417,37.138-105.318c5.627-18.687,9.153-35.663,13.488-54.75c8.038-35.391,10.607-74.236,23.816-108.219
			c11.832-30.442,26.14-60.472,37.538-91.413c8.901-24.163,20.692-48.89,31.269-72.647c8.675-19.485,16.881-39.325,27.151-57.938
			c10.591-19.193,20.741-38.348,28.831-58.625c8.936-22.396,20.87-47.213,26.451-70.389c9.463-39.297,5.293-86.146-2.668-125.62
			c-7.391-36.635-27.497-72.141-54.102-98.236c-29.312-28.752-71.171-41.071-109.94-51.836
			c-37.341-10.369-76.368-17.704-114.093-26.334c-18.351-4.197-37.34-7.084-56.245-8.958c-47.03-4.664-92.536-3-139.838-2.998
			c-51.935,0.001-103.793-1.968-154.145-4.5c-24.028-1.208-47.585,2.598-71.255,1.499c-18.233-0.846-36.139-10.289-54.577-8.63
			c-22.03,1.983-43.195,3.102-66.161-0.385c-30.619-4.647-58.451-11.976-85.864-26.618c-20.249-10.816-40.342-22.25-61.768-30.625
			c-18.006-7.038-35.956-7.993-53.57-16.117c-22.264-10.268-42.137-24.014-65.698-31.263
			c-41.03-12.624-81.869-37.063-104.459,18.331c-16.849,41.314,6.08,84.881,25.907,121.383
			c19.896,36.63,49.801,63.408,81.048,89.792c16.216,13.692,31.997,27.999,48.011,41.985c18.904,16.509,34.256,36.738,55.954,49.91
			c19.906,12.084,40.131,23.621,59.94,35.975c32.695,20.39,66.208,39.091,100.418,57.751
			c39.898,21.762,80.219,49.747,115.995,77.631c23.001,17.929,44.579,39.509,64.063,61.107
			c17.077,18.929,31.086,42.982,40.622,66.619c8.729,21.637,21.168,40.371,31.018,61.668c8.045,17.396,14.073,36.105,18.03,54.285
			c16.598,76.256,15.455,140.505-28.154,208.156c-30.957,48.025-65.414,100.125-106.44,140.933
			c-22.304,22.185-43.499,44.908-66.107,66.78c-32.646,31.583-69.278,59.445-104.988,87.391
			c-17.989,14.078-36.15,27.818-55.04,41.259c-65.548,46.64-147.093,74.188-219.408,107.951
			c-37.363,17.443-72.665,34.124-109.127,52.487c-15.42,7.767-29.598,17.477-45,25.605c-24.17,12.755-45.563,27.03-69.396,39.696
			c-19.567,10.398-35.958,25.553-55.182,36.002c-21.643,11.764-42.885,23.442-63.896,36.386
			c-53.977,33.254-122.974,51.825-185.366,58.143c-41.628,4.216-83.458,4.419-124.071-4.823c-8.549-1.945-17.045-4.3-25.474-7.134
			c-34.406-11.57-65.667-25.822-96.983-44.356c-78.201-46.282-134.701-129.288-143.369-216.415
			c-4.569-45.924-8.303-95.424-0.237-141.129c5.972-33.842,15.889-64.723,30.6-95.778c13.679-28.877,26.009-52.956,35.553-83.228
			c12.506-39.666,24.53-81.49,22.497-123.771c-1.654-34.396-3.492-67.907-8.981-100.507c-4.317-25.638-11.961-52.888-20.604-77.404
			c-9.176-26.03-21.811-50.524-34.967-74.886c-21.735-40.247-51.097-81.515-79.814-117.653
			c-38.931-48.993-81.277-103.039-133.17-137.648c-43.872-29.261-89.003-56.583-134.682-82.916
			c-43.454-25.05-85.987-47.834-120.637-85.011c-38.073-40.853-57.151-106.519-59.624-160.196
			c-2.092-45.434,2.544-90.695,6.639-135.881c3.644-40.222,7.238-80.855,22.012-118.997c8.17-21.093,20.744-42.404,32.117-61.696
			c22.917-38.872,46.199-75.569,77.195-109.358c28.173-30.714,57.048-61.179,88.149-89.64
			c35.002-32.029,74.851-65.093,98.469-105.425c9.648-16.476,27.241-39.51,29.4-58.528c1.772-15.607-6.376-35.305-17.575-46.106
			c-26.29-25.354-80.559-7.322-109.006,3.852c-25.234,9.912-48.4,24.392-71.39,38.574c-56.74,35.004-106.446,78.028-162.01,113.989
			c-15.72,10.174-30.731,22.756-46.498,32.716c-25.089,15.849-51.974,31.885-77.983,47.929
			c-28.223,17.409-59.525,37.547-90.006,50.978c-29.723,13.097-58.479,29.059-88.497,41.965
			c-14.225,6.116-29.296,11.998-43.47,17.268c-34.115,12.684-65.448,28.553-101.327,37.515
			c-36.7,9.166-74.512,16.895-111.863,22.851c-33.486,5.339-71.229,9.423-105.125,9.441c-48.942,0.025-97.018-4.172-143.695-11.759
			c-39.457-6.413-79.855-23.914-117.798-36.279c-41.542-13.539-82.818-29.253-124.844-42.056
			c-51.619-15.726-102.158-42.125-149.244-68.152c-64.668-35.746-124.276-79.21-191.208-111.773
			c-14.978-7.287-28.824-17.038-45.033-21.514c-19.234-5.312-38.803-10.155-57.246-19.427
			c-54.344-27.321-150.252-19.709-154.581,58.592c-2.148,38.856,15.31,70.077,25.874,105.708
			c8.847,29.845,9.872,56.634,24.631,84.756c16.681,31.784,39.737,59.26,58.616,89.648c16.045,25.826,32.285,54.043,43.871,82.089
			c11.744,28.428,24.636,56.116,37.875,84.031c29.018,61.184,47.176,115.896,37.137,184.447
			c-6.697,45.728-17.971,86.54-18.01,133.498c-0.026,30.228,0.917,69.984,11.816,98.375c15.721,40.949,35.988,76.581,69.592,105.56
			c33.48,28.874,72.195,50.685,109.134,74.671c22.54,14.636,41.742,34.188,64.44,48.372c11.18,6.985,23.753,12.417,34.533,21.753
			c50.702,43.907,71.156,109.51,71.959,174.709c0.453,36.766-14.211,89.596-37.09,118.836
			c-17.481,22.342-33.04,44.903-52.591,65.755c-20.652,22.026-46.107,40.819-67.879,61.772
			c-26.184,25.199-56.274,47.203-83.356,71.618c-41.106,37.059-76.659,84.41-87.542,138.013c-5.38,26.5-7.53,53.542-7.494,81
			c0.053,38.455,6.398,76.285,13.836,113.667c8.645,43.458,18.357,80.558,43.523,116.925c17.85,25.795,39.894,48.864,61.449,72.034
			c48.828,52.484,98.739,116.642,167.591,144.45c42.347,17.103,92.681,36.634,138.05,43.48c29.893,4.51,58.572,9.536,87.733,17.95
			c33.465,9.657,67.633,14.277,101.275,22.821c70.399,17.878,144.25,31.235,212.641,57.073
			c34.431,13.009,69.131,20.488,103.126,35.415c16.5,7.244,34.614,9.924,51.594,15.763c15.615,5.369,29.482,13.699,44.948,19.388
			c45.593,16.771,90.883,37.891,133.353,61.423c41.042,22.74,81.589,53.958,118.039,83.514
			c14.749,11.959,26.429,27.139,40.088,40.651c13.557,13.412,27.708,23.001,40.533,37.052
			c13.309,14.581,23.432,31.347,36.007,46.822c28.695,35.311,61.221,72.895,79.804,114.919
			c22.686,51.302,28.548,106.706,39.474,161.106c4.027,20.049,6.781,39.705,7.845,60.744c2.058,40.685-4.181,80.127-15.931,118.039
			c-12.959,41.813-32.625,81.764-55.319,119.451c-18.174,30.181-51.515,48.111-79.095,68.804
			c-13.157,9.871-26.245,17.012-39.553,25.928c-52.393,35.102-104.779,54.016-167.799,63.449
			c-18.982,2.841-39.521,6.797-58.502,7.732c-22.945,1.131-47.878-6.361-70.528-9.65c-71.745-10.417-143.31-21.623-214.105-38.271
			c-45.007-10.583-89.107-34.408-132.386-50.995c-29.445-11.286-58.118-13.629-87.506-22.296
			c-32.958-9.72-65.984-19.179-99.232-27.864c-33.183-8.668-62.373-23.67-96.029-34.208c-15.249-4.774-30.949-7.608-46.464-14.207
			c-20.053-8.529-34.238-13-55.108-16.201c-22.116-3.391-39.993-19.579-62.972-21.352c-65.905-5.083-102.433,44.477-112.893,103.029
			c-6.965,38.985,15.831,76.017,24.873,113.376c7.187,29.696,6.434,53.54,0.652,83.938c-6.746,35.461-12.081,71.044-21.775,105.789
			c-6.384,22.88-10.96,44.589-20.219,66.779c-25.94,62.163-52.47,123.377-30.112,192.079c14.18,43.574,69.283,57.864,109.563,59.871
			c27.567,1.374,55.317,2.428,81.737,2.997c34.783,0.748,69.352,12.581,102.814,20.528c71.633,17.013,144.028,14.069,210.452,50.558
			c24.354,13.379,42.912,32.265,63.375,50.526c22.913,20.447,53.387,65.752,41.593,97.584
			c-10.655,28.749-39.206,49.953-66.836,60.898c-36.552,14.472-72.538,31.643-111.021,40.374
			c-24.484,5.555-49.375,9.366-73.917,14.664c4.569,16.759-123.497,41.623-180.584,53.889
			c-109.62,23.554-220.711,45.704-332.337,45.704c-89.646,0-176.342-2.983-267.026-3.001c-24.982-0.005-48.229-1.775-72.362-3.208
			c-19.336-1.147-50.374-1.331-66.212-1.344c-5.522-0.005-10.079,4.492-10.174,10.014c-0.821,47.909-4.279,256.207-4.274,366.574
			c0.007,135.637-20.241,272.135-26.985,408.044c-5.031,101.383-13.447,202.569-22.476,304.088
			c-5.948,66.866-11.258,133.235-20.998,198.998c-7.28,49.156,2.052,105.321,6.555,154.471
			c5.903,64.431,5.896,130.019,23.475,192.775c23.135,82.6,78.645,53.457,145.896,35.703c33.373-8.811,64.851-20.76,98.242-25.779
			c20.067-3.017,59.267-21.231,60.633-12.517c14.888-4.811,32.23-6.906,45.471-9.505c22.527-4.423,44.499-6.421,67.491-8.653
			c22.666-2.201,47.016-10.711,69.853-7.039c35.709,5.742,70.313,11.308,105.848,19.174c10.514,2.328,73.502,12.923,44.642,32.275
			c-14.596,9.785-38.931,3.991-55.444,6.525c-27.461,4.215-103.664,41.519-56.865,72.332c16.205,10.664,35.893,15.763,53.951,22.271
			c34.761,12.528,72.026,14.6,109.463,16.453c18.275,0.905,35.66,2.024,52.527,4.519c31.407,4.645,60.483,7.826,88.418,23.372
			c27.476,15.291,52.154,35.131,75.977,55.51c26.3,22.499,58.252,49.186,75.896,79.645c22.115,38.257,31.618,84.521,31.184,129.88
			c-0.215,22.501-0.119,47.724-6.453,68.598c-11.115,36.628-38.761,58.897-60.978,88.091
			c-30.468,40.035-80.434,69.416-124.895,89.946c-22.399,10.344-45.535,20.565-68.654,28.926
			c-22.892,8.277-48.084,15.465-68.796,28.487c-20.21,12.706-32.057,37.117-41.031,58.491
			c-22.102,52.636-34.262,102.908-37.153,160.482c-1.375,27.375-1.998,57.841,4.292,83.309c3.022,12.237,12.854,29.559,23.341,36.77
			c16.482,11.335,22.904-3.28,36.129-13.052c20.223-14.944,33.925-37.493,49.525-56.759c20.041-24.749,41.652-45.947,66.648-65.592
			c46.96-36.904,105.573-67.885,160.905-89.637c35.499-13.955,69.957-28.156,106.005-40.44
			c35.361-12.05,70.457-13.93,108.063-12.075c29.593,1.459,59.349,4.676,87.984,12.685c28.539,7.981,46.476,18.275,67.308,37.672
			c19.827,18.46,40.555,32.134,57.226,54.282c14.853,19.734,27.063,41.502,36.863,64.181c1.166,2.698,2.306,5.406,3.403,8.128
			c11.016,27.312,18.883,56.229,21.712,85.581c2.3,23.852,2.967,48.675,3.033,73.476c0.112,42.227-15.25,98.099-38.915,133.147
			c-23.703,35.104-44.439,71.036-69.523,106.489c-12.755,18.028-26.373,35.048-40.427,52.45
			c-19.36,23.971-39.073,47.22-58.857,70.421c-16.998,19.936-37.026,37.879-55.339,55.946
			c-30.24,29.835-59.906,61.427-92.456,88.913c-28.99,24.479-59.205,50.804-82.088,80.916
			c-24.429,32.146-43.519,68.86-60.73,104.605c-34.333,71.304-63.153,142.015-85.557,217.985
			c-12.58,42.659-19.784,84.493-24.415,128.733c-4.389,41.916-20.772,83.071-29.195,124.332
			c-7.523,36.854-12.679,70.447-16.377,107.986c-6.995,70.996,2.242,141.176-4.506,212.673c-2.442,25.812-3.34,53.461-4.541,79.058
			c-1.119,23.853,1.479,47.426,2.666,70.58c0.877,17.148-2.077,51.623,17.428,60.67c20.028,9.29,40.647-16.771,51.917-29.264
			c48.187-53.408,43.122-131.38,48.858-198.266c3.727-43.453,12.141-86.322,18.557-129.447c3.478-23.402,6.65-47.482,13.886-70.549
			c13.073-41.676,17.481-81.206,34.536-121.135c17.135-40.118,35.569-82.476,59.214-119.154
			c29.279-45.42,68.114-83.089,105.531-121.654c37.793-38.953,71.367-80.65,108.934-119.915c11.9-12.438,24.421-24.534,36.06-37.019
			c25.861-27.742,52.397-54.676,80.199-80.67c47.155-44.089,97.921-92.062,155.714-121.854
			c17.804-9.178,35.662-17.326,53.175-26.224c21.238-10.791,41.73-20.722,63.896-29.194c42.188-16.125,77.875-15.905,119.153-7.648
			c5.166,1.034,10.414,2.186,15.779,3.455c23.336,5.521,46.098,16.297,67.556,27.613c27.228,14.361,49.958,29.913,70.46,53.07
			c25.239,28.506,56.461,53.757,66.253,89.901c5.159,19.045,8.065,37.134,10.058,57.007c3.479,34.694-1.873,70.956-7.052,104.99
			c-10.218,67.152-30.042,119.571-68.247,175.07c-14.621,21.234-30.468,41.574-45.535,62.622
			c-16.761,23.415-36.775,45.579-54.69,68.093c-19.051,23.942-34.286,50.49-51.575,75.877
			c-40.532,59.514-93.561,111.535-128.476,173.874c-13.554,24.2-24.824,53.192-36.987,78.997
			c-12.359,26.221-39.563,61.457-34.693,92.087c9.446,59.369,152.189-70.681,167.021-83.932
			c55.467-49.556,115.673-94.123,164.313-151.068c11.702-13.7,23.02-27.699,34.474-41.337
			c19.374-23.065,40.766-45.101,59.276-69.311c13.849-18.112,30.865-33.061,45.746-50.267c6.357-7.351,13.9-14.949,21.291-21.354
			c17.345-15.031,35.153-29.998,52.275-45.409c26.307-23.677,52.529-46.36,81.833-66.446c23.712-16.254,50.644-26.629,75.173-41.944
			c25.714-16.056,50.579-33.191,76.907-48.318c45.902-26.373,89.791-56.051,103.51-109.939
			c6.303-24.759,13.754-49.614,14.987-75.293c1.95-40.813-21.542-78.652-31.146-117.329c-6.929-27.898-15.976-55.063-24.331-82.136
			c-24.093-78.068-54.653-154.037-82.513-231.008c-7.132-19.705-14.699-39.492-21.085-58.418c-8.919-26.43-18.35-50.65-25.47-77.29
			c-17.823-66.68-35.278-133.515-46.359-201.864c-11.34-69.94-15.433-140.126,1.332-209.988
			c12.372-51.556,29.739-105.269,61.585-148.447c19.561-26.523,33.727-50.733,60.243-71.024c0.908-0.695,1.833-1.373,2.749-2.06
			l0.089-0.064c56.877-42.563,129.479-68.35,197.072-81.514c34.61-6.74,70.231-4.241,105.257-5.598
			c55.167-2.137,112.014,1.327,166.847-4.623c25.195-2.741,48.922-14.017,71.829-24.44c30.829-14.031,63.635-28.018,93.388-44.633
			c21.637-12.083,38.8-31.139,60.275-43.784c26.21-15.435,51.255-34.36,76.249-51.839c13.4-9.371,27.326-17.926,41.207-26.619
			c27.026-16.927,55.935-30.555,82.833-47.626c31.208-19.808,67.625-26.553,101.498-39.3
			c34.076-12.825,71.047-21.962,107.679-20.798c71.371,2.273,125.287,47.905,172.983,95.731
			c38.221,38.329,73.578,80.108,105.097,124.461c15.45,21.739,29.899,42.951,43.796,65.659
			c29.689,48.516,43.231,96.413,60.226,150.355c19.259,61.13,27,129.643,24.103,193.492
			c-2.976,65.598-21.032,131.376-60.737,185.959c-9.623,13.228-20.877,26.187-30.687,39.117
			c-17.167,22.625-28.921,49.142-50.667,68.555c-45.274,40.417-100.287,50.265-158.381,56.106
			c-27.181,2.733-54.587,7.87-82.006,4.997c-34.593-3.623-69.062-0.227-103.517-8.951c-46.856-11.864-93.073-12.012-136.452-33.543
			c-16.784-8.332-51.546-20.289-67.927-5.861c-23.898,21.049-11.741,64.021-1.479,87.754
			c22.857,52.861,48.495,107.063,81.786,155.254c36.132,52.307,82.183,97.65,147.409,106.937c28.394,4.041,59.123,8.931,87.7,10.64
			c19.768,1.183,39.581,2.547,59.974,1.574c20.663-0.986,39.843-6.323,59.993-6.317c22.124,0.007,40.429-0.316,61.51-5.671
			c37.375-9.492,79.495-15.316,116.874-21.415c21.047-3.434,42.245-2.972,63.104-5.822c22.581-3.087,45.096-8.109,67.465-12.028
			c21.083-3.693,41.654-10.461,63.029-15.026c10.811-2.31,22.319-3.677,33.007-6.362c16.027-4.027,29.967-14.291,45.679-19.228
			c37.403-11.751,77.704-18.496,100.544-53.992c20.474-31.821,17.671-57.474,17.896-91.765c0.301-45.859-4.961-90.297-0.599-136.455
			c4.78-50.58,18.996-96.638,37.824-143.708c10.126-25.315,19.424-50.22,32.248-73.9c18.393-33.963,42.839-67.509,72.44-92.687
			c4.891-4.159,9.821-8.347,14.794-12.531c41.75-35.137,86.625-70.085,138.173-86.344c24.605-7.761,50.666-9.605,77.207-7.529
			c109.155,8.539,203.176,68.83,291.434,128.49c43.434,29.36,80.741,63.62,122.698,94.981c28.91,21.61,59.753,39.462,89.106,60.014
			c23.206,16.247,51.021,33.933,77.923,42.073c22.158,6.704,46.042,8.925,69.071,8.924c51.595-0.002,101.023-10.565,149.854-26.196
			c40.593-12.994,81.768-24.896,120.533-42.858c37.445-17.352,71.926-45.152,106.52-68.153
			c35.503-23.604,75.166-41.599,108.914-67.709c22.408-17.337,47.252-29.271,68.154-48.765
			c48.318-45.061,95.727-88.979,146.519-131.498c32.896-27.538,63.973-57.242,93.521-88.331
			c26.285-27.655,55.221-53.182,76.317-85.624c10.834-16.66,22.612-32.021,32.623-49.09c10.32-17.598,22.961-37.439,28.45-57.019
			c14.841-52.932-33.985-87.545-67.819-118.848c-20.511-18.978-38.857-39.072-58.129-59.207
			c-34.696-36.249-76.651-62.083-113.231-94.896c-12.291-11.025-24.595-22.807-36.646-34.393
			c-20.783-19.98-35.124-41.493-51.295-64.795c-15.822-22.799-31.518-44.992-40.396-71.621
			c-12.386-37.142-10.082-76.596-5.924-114.914c3.758-34.631,13.746-61.229,29.258-92.271c1.823-3.648,3.646-7.166,5.55-10.589
			l0.155-0.279c3.68-6.597,7.683-12.814,12.672-18.743c29.698-35.298,66.164-76.162,108.403-96.759
			c16.92-8.25,40.656-9.484,59.209-13.729c44.842-10.26,90.926-7.213,135.813-16.582c39.307-8.204,84.089,6.481,118.096,26.938
			c38.407,23.104,79.77,41.646,123.61,51.538c17.475,3.943,28.976,4.635,46.134,2.795c30.962-3.319,56.168,7.855,83.138-12.594
			c21.991-16.675,31.773-42.411,27.955-69.608c-3.957-28.188-32.027-50.958-54.021-65.915
			c-31.257-21.256-65.143-39.398-97.452-59.584c-39.941-24.954-83.433-56.521-115.563-91.233
			c-30.726-33.195-48.751-75.887-63.369-118.09c-16.177-46.705-5.29-89.173,6.444-135.318
			c18.342-72.136,69.402-131.51,135.666-165.721c55.502-28.655,110.815-44.065,170.026-59.714
			c33.959-8.975,68.404-16.295,103.227-20.996c87.49-11.812,212.745,3.21,269.23-81.933c14.108-21.267,23.625-53.681,24.062-78.993
			C7378.835,5755.847,7352.994,5693.842,7330.85,5634.161z M6824,5185.65c-3.258,23.594-8.051,47.018-15.223,69.689
			c-9.619,30.402-25.711,61.075-41.595,88.588c-14.179,24.559-25.416,51.137-42.688,74.165
			c-19.51,26.011-38.236,53.325-59.583,78.05c-19.794,22.926-47.884,42.068-72.639,60.832c-12.826,9.722-25.874,18.74-37.455,29.829
			c-22.509,21.549-51.6,41.335-78.887,56.279c-25.626,14.035-50.655,29.249-76.022,43.746
			c-20.005,11.434-39.657,26.201-62.676,31.281c-19.005,4.193-39.015,7.412-58.338,3.532c-23.083-4.635-51.242-5.573-72.848-15.149
			c-34.229-15.172-70.495-31.752-92.671-63.704c-11.854-17.079-24.333-33.86-34.911-52.188
			c-14.071-24.376-23.842-54.292-35.289-80.086c-13.479-30.368-25.066-61.69-32.546-94.107
			c-11.703-50.723-32.212-99.551-40.026-151.405c-6.818-45.242-18.098-87.416-22.578-132.938
			c-4.594-46.69-4.498-90.266-1.633-137.013c1.377-22.448,11.942-41.639,16.656-62.934c4.424-19.984,7.716-39.001,18.831-56.905
			c32.403-52.194,86.611-92.793,143.462-113.743c19.21-7.078,39.891-12.244,59.645-18.733c29.343-9.64,59.342-17.271,89.099-25.501
			c39.642-10.963,79.512-25.035,120.917-23.619c46.648,1.595,92.246,12.966,138.719,16.374c37.855,2.776,74.98,5.664,108.094,25.619
			c8.495,5.119,17.042,10.996,25.266,16.652c37.031,25.467,57.818,58.504,79.291,96.27c26.436,46.496,53.14,93.23,71.561,143.522
			c4.746,12.995,6.112,25.028,7.527,39.047C6830.387,5079.897,6830.682,5137.25,6824,5185.65z" color="15921648" style="fill:#f2f1f0;fill-opacity:1;stroke-width:10;stroke:rgb(0,0,0)"></path></g><g id="158212607" order="0" group_label_id="113753815" group_label="Atlas - Developing Human Gyri" sub_image_id="111257553"><path id="158212616" parent_id="158212607" order="0" structure_id="12157" d="
			M1820.955,7893.812c-20.832-19.396-38.769-29.69-67.308-37.672c-28.635-8.009-58.391-11.226-87.984-12.685
			c-37.606-1.854-72.701,0.025-108.063,12.075c-36.048,12.284-70.506,26.485-106.005,40.44
			c-55.333,21.752-113.945,52.732-160.905,89.637c-24.997,19.645-46.607,40.843-66.648,65.592
			c-15.601,19.266-29.303,41.814-49.525,56.759c-13.225,9.771-19.646,24.387-36.129,13.052
			c-10.486-7.211-20.318-24.532-23.341-36.77c-6.29-25.468-5.667-55.934-4.292-83.309c2.891-57.574,15.051-107.847,37.153-160.482
			c8.975-21.374,20.821-45.785,41.031-58.491c20.711-13.022,45.904-20.21,68.796-28.487c23.119-8.36,46.255-18.582,68.654-28.926
			c44.461-20.53,94.427-49.911,124.895-89.946c22.217-29.193,49.863-51.463,60.978-88.091c6.334-20.874,6.238-46.097,6.453-68.598
			c0.434-45.358-9.069-91.623-31.184-129.88c-17.644-30.459-49.597-57.146-75.896-79.645c-23.822-20.379-48.501-40.219-75.977-55.51
			c-27.935-15.546-57.011-18.728-88.418-23.372c-16.867-2.494-34.252-3.613-52.527-4.519c-37.438-1.854-74.703-3.925-109.463-16.453
			c-18.059-6.508-37.746-11.606-53.951-22.271c-46.799-30.813,29.404-68.117,56.865-72.332c16.514-2.534,40.848,3.26,55.444-6.525
			c28.86-19.353-34.128-29.947-44.642-32.275c-35.534-7.866-70.139-13.432-105.848-19.174c-22.836-3.672-47.187,4.838-69.853,7.039
			c-22.993,2.232-44.964,4.23-67.491,8.653c-13.241,2.599-30.583,4.694-45.471,9.505c1.035,29.063-76.955,22.622-93.137,31.015
			c-34.972,18.137-31.438,49.634-20.632,81.365c9.888,29.036,30.313,55.229,38.094,84.961c9.023,34.474-6.9,56.863-3.052,89.94
			c3.293,28.305,17.375,59.784,34.715,82.315c30.452,39.569,99.972,28.01,143.334,33.67c67.578,8.82,130.218-2.991,197.888-6.909
			c12.954-0.75,25.855-1.405,38.748-2.001c4.483-0.207,9.145-0.47,13.565-0.674c13.757-0.635,27.666-2.9,41.401-0.771
			c14.562,2.257,28.289,9.269,42.775,12.295c13.173,2.752,30.303,0.309,43.861,4.707c5.254,1.703,4.747,6.29-0.755,6.773
			c-12.042,1.057-25.721-3.175-36.898-3.634c-9.923-0.408-19.967-0.15-29.926,0.303c-8.93,0.406-17.829,1.362-26.766,1.636
			c-31.377,0.957-63.726,0.05-95.022-3.098c-71.51-7.191-150.606,5.114-223.005,8.46c-56,2.589-85.549,45.989-92.896,99.859
			c-9.378,68.763-10.737,138.08-21.65,206.579c-10.15,63.714-26.603,126.671-29.47,191.371
			c-4.615,104.182,44.167,195.905,49.022,300.184c2.416,51.865,24.976,100.789,33.839,151.283
			c8.344,47.537,34.871,91.718,59.114,132.692c10.736,18.146,32.064,32.703,53.139,37.778c20.595,4.958,30.685-4.33,48.694-9.877
			c19.28-5.938,40.244-5.663,59.895-12.362c29.385-10.018,58.97-22.349,84.662-39.993c27.441-18.846,43.279-46.288,70.152-66.026
			c19.291-14.168,40.66-16.077,63.529-21.501c48.077-11.4,88.326-39.115,127.859-67.867c19.354-14.076,39.086-30.871,56.854-46.468
			c51.28-45.013,96.199-93.062,149.27-135.688c15.296-12.286,47.953-41.51,67.036-45.057c9.325-1.733,12.826,0.863,13.046,5.416
			l247.457-129.556c-9.8-22.679-22.01-44.446-36.863-64.181C1861.51,7925.945,1840.781,7912.271,1820.955,7893.812z" color="14837888" style="fill:#e26880;fill-opacity:1;stroke-width:10;stroke:rgb(0,0,0)"></path><path id="158212617" parent_id="158212607" order="1" structure_id="12157" d="
			M2177.989,4104.217c-37.833-3.125-77.894-16.66-114.511-26.379c-63.273-16.795-134.161-23.746-192.084-56.079
			c-29.169-16.283-57.506-32.409-90.197-42.847c-21.707-6.93-31.31-0.706-48.04-2.213c-40.552-3.654-74.633-31.809-113.181-42.421
			c-47.614-13.108-96.739-32.34-145.419-45.029c-48.924-12.754-98.509-13.958-145.523-31.526
			c-24.438-9.132-48.448-28.987-73.736-34.294c-49.324-10.352-93.601-11.008-142.288-25.18
			c-54.202-15.777-110.131-35.572-162.112-52.339c-32.204-10.388-65.597-9.231-98.915-12.612
			c-57.351-5.819-135.809-21.206-161.333,42.961c-27.812,69.917-26.529,148.646-33.667,222.437
			c-13.648,141.104-28.16,279.125-21.013,421.535c2.005,39.948,9.498,79.628,11.194,119.505c1.36,31.96,11.203,68.085,6.93,99.687
			c-3.218,23.798-16.295,45.955-21.813,69.685c-12.272,52.792-8.488,106.454-12.024,160.107
			c-2.639,40.039-8.255,77.077-8.282,118.145c-0.035,53.418,30.777,90.518,26.895,140.787
			c-3.767,48.778-18.506,102.268,1.667,148.619c11.229,25.802,27.844,48.167,44.354,70.66
			c35.922,48.94,101.436,45.839,155.918,50.185c69.536,5.546,139.727,7.027,209.219,0.056
			c101.401-10.172,197.018-32.073,292.139-57.832c17.696-4.793,130-41.667,136.764-23.093c24.542-5.298,49.433-9.109,73.917-14.664
			c38.483-8.731,74.469-25.902,111.021-40.374c27.63-10.945,56.181-32.149,66.836-60.898c11.794-31.832-18.68-77.137-41.593-97.584
			c-20.463-18.261-39.021-37.147-63.375-50.526c-66.423-36.488-138.818-33.544-210.452-50.558
			c-33.463-7.948-68.031-19.78-102.814-20.528c-26.42-0.568-54.17-1.623-81.737-2.997c-40.28-2.006-95.383-16.297-109.563-59.871
			c-22.358-68.701,4.171-129.916,30.112-192.079c9.259-22.189,13.835-43.899,20.219-66.779
			c9.695-34.745,15.029-70.328,21.775-105.789c5.782-30.397,6.535-54.241-0.652-83.938c-9.042-37.359-31.837-74.391-24.873-113.376
			c10.46-58.552,46.987-108.112,112.893-103.029c22.979,1.773,40.855,17.96,62.972,21.352c20.87,3.2,35.056,7.671,55.108,16.201
			c15.515,6.599,31.215,9.433,46.464,14.207c33.656,10.538,62.847,25.54,96.029,34.208c33.248,8.685,66.274,18.145,99.232,27.864
			c29.388,8.667,58.061,11.01,87.506,22.296c43.279,16.587,87.379,40.412,132.386,50.995
			c70.796,16.647,142.36,27.853,214.105,38.271c22.65,3.289,47.583,10.782,70.528,9.65c18.982-0.936,39.52-4.891,58.502-7.732
			c63.02-9.433,115.407-28.347,167.799-63.449c13.308-8.917,26.396-16.057,39.553-25.928c27.58-20.692,60.92-38.623,79.095-68.804
			c22.694-37.687,42.36-77.637,55.319-119.451L2222,4099C2220.25,4111,2186.031,4104.882,2177.989,4104.217z" color="14837888" style="fill:#e26880;fill-opacity:1;stroke-width:10;stroke:rgb(0,0,0)"></path><path id="158212611" parent_id="158212607" order="2" structure_id="12125" d="
			M6284.284,6845.172c-1.852,3.451-3.727,6.94-5.55,10.589c-15.512,31.042-25.5,57.64-29.258,92.271
			c-4.158,38.318-6.462,77.772,5.924,114.914c8.879,26.629,24.574,48.822,40.396,71.621c16.171,23.302,30.512,44.814,51.295,64.795
			c12.052,11.586,24.355,23.367,36.646,34.393c36.58,32.813,78.535,58.646,113.231,94.896
			c19.271,20.135,37.618,40.229,58.129,59.207c33.834,31.303,82.66,65.916,67.819,118.848c-5.489,19.579-18.13,39.421-28.45,57.019
			c-10.011,17.069-21.789,32.43-32.623,49.09c-21.097,32.442-50.032,57.969-76.317,85.624
			c-29.548,31.089-60.625,60.793-93.521,88.331c-50.792,42.52-98.2,86.438-146.519,131.498
			c-20.902,19.494-45.746,31.428-68.154,48.765c-33.748,26.11-73.411,44.104-108.914,67.709
			c-34.594,23.001-69.074,50.802-106.52,68.153c-38.766,17.962-79.94,29.864-120.533,42.858
			c-48.83,15.631-98.259,26.194-149.854,26.196c-23.029,0.001-46.913-2.22-69.071-8.924c-26.901-8.141-54.717-25.826-77.923-42.073
			c-29.354-20.552-60.196-38.403-89.106-60.014c-41.957-31.361-79.265-65.621-122.698-94.981
			c-88.258-59.66-182.278-119.951-291.434-128.49c-26.541-2.076-52.602-0.231-77.207,7.529
			c-51.548,16.259-96.423,51.207-138.173,86.344l148.669,210.28c0.471,0.038,0.931,0.235,1.282,0.604
			c95.391,100.016,177.171,207.594,254.928,318.654c1.246,1.467,2.414,3.043,3.519,4.697
			c29.861,38.779,71.101,79.147,112.708,107.436c31.612,21.494,63.976,24.824,100.493,32.527
			c21.384,4.511,42.096,7.137,62.167,13.295c42.558,13.058,88.755,10.52,132.831,12.67c107.271,5.234,205.145-15.832,307.995-45.568
			c49.29-14.25,94.407-27.974,141.753-47.449c52.236-21.487,101.557-45.844,151.415-72.977
			c74.873-40.745,149.145-85.227,212.868-140.11c55.236-47.574,109.662-85.95,172.452-121.942
			c34.847-19.975,72.171-39.057,103.53-63.915c60.73-48.139,120.959-101.497,168.763-163.069
			c27.987-36.046,61.548-67.978,86.661-106.252c26.531-40.436,43.878-85.917,66.076-128.688
			c28.692-55.283,55.95-112.863,80.674-169.667c16.589-38.113,27.451-82.105,27.26-123.705c-0.111-23.89-7.754-44.874-8.684-68.382
			c-1.922-48.552-10.753-98.95-45.66-135.352c-11.6-12.096-24.574-22.853-38.044-32.793c-7.37-5.438-43.448-27.487-50.278-29.973
			c-61.384-22.335-121.74-47.938-183.348-68.963c-50.775-17.327-104.192-40.471-152.969-65.286
			c-23.523-11.968-47.347-23.451-69.992-37.047c-15.709-9.432-68.804-34.863-63.316-42.227l-265.305-123.085
			C6284.327,6845.093,6284.306,6845.132,6284.284,6845.172z" color="11243864" style="fill:#ab9158;fill-opacity:1;stroke-width:10;stroke:rgb(0,0,0)"></path><path id="158212612" parent_id="158212607" order="3" structure_id="12124" d="
			M5250.065,8499.943c-1.401-3.246-2.784-6.783-4.229-10.427c-83.18-120.259-170.15-236.826-272.878-344.534
			c-0.763-0.799-0.732-2.064,0.067-2.827c0.43-0.41,0.995-0.583,1.545-0.537l-148.669-210.28
			c-4.973,4.185-9.903,8.372-14.794,12.531c-29.602,25.178-54.048,58.724-72.44,92.687c-12.824,23.681-22.122,48.585-32.248,73.9
			c-18.828,47.07-33.044,93.128-37.824,143.708c-4.362,46.158,0.899,90.596,0.599,136.455c-0.225,34.291,2.578,59.943-17.896,91.765
			c-22.84,35.496-63.141,42.241-100.544,53.992c-15.712,4.937-29.651,15.2-45.679,19.228c-10.688,2.686-22.196,4.053-33.007,6.362
			c-21.375,4.565-41.946,11.333-63.029,15.026c-22.369,3.919-44.884,8.941-67.465,12.028c-20.859,2.851-42.058,2.389-63.104,5.822
			c-37.379,6.099-79.499,11.923-116.874,21.415c-21.081,5.354-39.386,5.678-61.51,5.671c-20.15-0.006-39.331,5.331-59.993,6.317
			c-20.393,0.973-40.206-0.392-59.974-1.574c-28.577-1.709-59.306-6.599-87.7-10.64c-65.226-9.286-111.277-54.63-147.409-106.937
			c-33.291-48.191-58.928-102.393-81.786-155.254c-10.262-23.732-22.419-66.705,1.479-87.754
			c16.381-14.428,51.144-2.471,67.927,5.861c43.379,21.531,89.596,21.679,136.452,33.543c34.455,8.725,68.924,5.328,103.517,8.951
			c27.419,2.873,54.825-2.264,82.006-4.997c58.094-5.842,113.106-15.689,158.381-56.106c21.746-19.413,33.5-45.93,50.667-68.555
			c9.81-12.931,21.063-25.89,30.687-39.117c39.705-54.583,57.762-120.361,60.737-185.959c2.897-63.85-4.844-132.362-24.103-193.492
			c-16.994-53.942-30.536-101.84-60.226-150.355c-13.896-22.708-28.346-43.92-43.796-65.659
			c-31.519-44.353-66.876-86.132-105.097-124.461c-47.697-47.826-101.613-93.458-172.983-95.731
			c-36.631-1.164-73.603,7.973-107.679,20.798c-33.872,12.747-70.29,19.492-101.498,39.3
			c-26.898,17.071-55.806,30.699-82.833,47.626c-13.881,8.693-27.807,17.248-41.207,26.619
			c-24.993,17.479-50.039,36.404-76.249,51.839c-21.475,12.646-38.639,31.701-60.275,43.784
			c-29.753,16.615-62.56,30.602-93.388,44.633c-22.906,10.424-46.634,21.699-71.829,24.44c-54.833,5.95-111.681,2.486-166.847,4.623
			c-35.026,1.356-70.647-1.143-105.257,5.598c-67.629,13.171-140.271,38.979-197.162,81.578l141.33,247.664
			c4.734-7.633,12.707-10.091,23.937,1.569c15.848,16.456,24.739,43.259,36.097,63.409c48.909,86.772,101.703,173.166,145.994,262
			c34.384,68.963,76.381,132.953,106.491,204.007c30.477,71.919,74.226,137.362,98.485,212.006
			c15.168,46.673,27.929,93.474,35.072,141.999c4.055,27.534,0.824,52.473,8.305,80.03c7.02,25.854,16.438,51.334,28.795,75.128
			c24.728,47.614,66.364,92.304,116.49,113.544c65.281,27.663,144.042,3.184,212.897,13.249c18.956,2.771,39.118,5.045,60.004,4.049
			c79.108-3.775,157.282-16.02,235.961-23.9c41.513-4.156,80.083-15.568,120.979-19.732c49.315-5.021,98.706-9.617,147.705-17.252
			c50.464-7.863,99.593-20.77,150.11-29.872c55.282-9.961,110.236-22.056,164.058-38.239c63.212-19.008,120.88-40.405,181.96-65.184
			c31.341-12.712,58.977-26.686,87.816-43.012c34.72-19.653,74.315-26.356,106.329-51.791
			c91.468-72.67,176.561-141.092,201.04-261.013C5260.318,8561.022,5261.342,8526.056,5250.065,8499.943z" color="13285249" style="fill:#cab781;fill-opacity:1;stroke-width:10;stroke:rgb(0,0,0)"></path><path id="158212613" parent_id="158212607" order="4" structure_id="12122" d="
			M3447.215,8988.994c-12.258-47.328-36.414-82.541-62.286-123.506c-16.167-25.599-25.376-54.164-38.458-81.084
			c-19.315-39.75-33.287-81.749-51.025-122.178c-33.201-75.67-75.131-148.186-111.442-222.732
			c-10.396-21.344-18.879-42.729-28.956-64c-47.018-99.24-101.188-196.465-146.054-297.969
			c-11.244-25.438-23.915-53.622-27.799-81.246c-1.249-8.882,0.341-20.604,4.785-27.768l-141.33-247.664
			c-0.917,0.687-1.841,1.364-2.749,2.06c-26.516,20.291-40.682,44.501-60.243,71.024c-31.846,43.179-49.213,96.892-61.585,148.447
			c-16.765,69.862-12.672,140.048-1.332,209.988c11.082,68.35,28.537,135.185,46.359,201.864c7.121,26.64,16.551,50.86,25.47,77.29
			c6.386,18.926,13.953,38.713,21.085,58.418c27.86,76.971,58.419,152.939,82.513,231.008c8.355,27.073,17.402,54.237,24.331,82.136
			c9.605,38.677,33.096,76.517,31.146,117.329c-1.233,25.679-8.685,50.534-14.987,75.293
			c-13.719,53.889-57.608,83.566-103.51,109.939c-26.328,15.127-51.193,32.263-76.907,48.318
			c-24.529,15.315-51.461,25.69-75.173,41.944c-29.303,20.086-55.525,42.77-81.833,66.446
			c-17.122,15.411-34.93,30.378-52.275,45.409c-7.391,6.404-14.934,14.003-21.291,21.354c-14.88,17.206-31.897,32.154-45.746,50.267
			c-18.51,24.21-39.902,46.245-59.276,69.311c-11.454,13.638-22.771,27.637-34.474,41.337
			c-48.641,56.945-108.846,101.513-164.313,151.068c-14.831,13.251-157.575,143.301-167.021,83.932
			c-4.87-30.63,22.334-65.866,34.693-92.087c12.164-25.805,23.433-54.797,36.987-78.997
			c34.915-62.339,87.944-114.36,128.476-173.874c17.29-25.387,32.524-51.935,51.575-75.877c17.916-22.514,37.93-44.678,54.69-68.093
			c15.066-21.048,30.914-41.388,45.535-62.622c38.204-55.499,58.028-107.918,68.247-175.07c5.179-34.034,10.531-70.296,7.052-104.99
			c-1.993-19.873-4.899-37.962-10.058-57.007c-9.792-36.145-41.014-61.396-66.253-89.901c-20.502-23.157-43.232-38.709-70.46-53.07
			c-21.458-11.316-44.22-22.092-67.556-27.613c-5.365-1.27-10.613-2.421-15.779-3.455l-64.769,280.068
			c9.23-5.074,15.23-3.44,12.26,13.066c-6.374,35.421-46.671,70.486-72.479,92.481c-28.805,24.548-54.03,51.303-78.005,80
			c-24.658,29.515-51.924,61.165-67.132,96.645c-13.316,31.067-36.931,51.367-54.872,79.856
			c-19.067,30.278-37.717,60.808-57.403,90.693c-21.984,33.373-30.397,67.47-47.441,101.98
			c-22.065,44.676-56.513,89.553-70.591,137.478c-13.089,44.56-9.043,97.005-9.059,142.867
			c-0.016,47.271,2.235,94.106,5.676,141.216c1.804,24.697,12.767,54.629,32.875,70.73c33.38,26.729,69.126,52.064,109.575,66.914
			c30.187,11.079,79.725,16.445,111.097,10.546c67.972-12.782,137.036-44.478,198.666-75.438
			c40.187-20.188,77.637-43.756,116.563-65.945c92.57-52.767,173.285-122.524,261.594-182.525
			c15.315-10.406,26.422-26.445,41.827-37.647c17.783-12.931,37.315-23.299,56.587-33.788
			c87.365-47.548,167.887-105.098,261.618-139.551c47.475-17.45,96.446-28.255,141.458-50.871
			c39.704-19.948,74.217-47.341,112.764-68.741c35.336-19.618,66.283-35.707,98.726-61.956
			c44.963-36.38,80.171-64.291,110.374-114.133c10.933-18.041,28.491-33.742,37.552-52.719c6.742-14.12,8.683-31.074,11.924-46.509
			C3459.799,9087.463,3459.811,9037.625,3447.215,8988.994z" color="13285249" style="fill:#cab781;fill-opacity:1;stroke-width:10;stroke:rgb(0,0,0)"></path><path id="158212618" parent_id="158212607" order="5" structure_id="12121" d="
			M2130.838,8670.021c-22.167,8.473-42.659,18.403-63.896,29.194c-17.513,8.897-35.372,17.046-53.175,26.224
			c-57.793,29.792-108.559,77.765-155.714,121.854c-27.802,25.994-54.338,52.928-80.199,80.67
			c-11.639,12.484-24.159,24.58-36.06,37.019c-37.566,39.265-71.141,80.962-108.934,119.915
			c-37.417,38.565-76.252,76.234-105.531,121.654c-23.645,36.679-42.079,79.036-59.214,119.154
			c-17.055,39.929-21.463,79.459-34.536,121.135c-7.235,23.066-10.408,47.146-13.886,70.549
			c-6.416,43.125-14.83,85.994-18.557,129.447c-5.736,66.886-0.671,144.857-48.858,198.266
			c-11.27,12.492-31.889,38.554-51.917,29.264c-19.505-9.047-16.55-43.521-17.428-60.67c-1.187-23.154-3.785-46.728-2.666-70.58
			c1.201-25.597,2.099-53.246,4.541-79.058c6.748-71.497-2.489-141.677,4.506-212.673c3.698-37.539,8.854-71.133,16.377-107.986
			c8.423-41.261,24.807-82.416,29.195-124.332c4.631-44.24,11.835-86.074,24.415-128.733
			c22.404-75.971,51.224-146.682,85.557-217.985c17.211-35.745,36.301-72.46,60.73-104.605
			c22.883-30.112,53.098-56.437,82.088-80.916c32.55-27.486,62.216-59.078,92.456-88.913c18.313-18.067,38.341-36.011,55.339-55.946
			c19.784-23.201,39.497-46.45,58.857-70.421c14.054-17.402,27.671-34.422,40.427-52.45c25.084-35.453,45.821-71.385,69.523-106.489
			c23.664-35.049,39.026-90.921,38.915-133.147c-0.065-24.801-0.733-49.624-3.033-73.476c-2.83-29.353-10.697-58.27-21.712-85.581
			c-1.098-2.722-2.237-5.43-3.403-8.128l-247.457,129.556c0.372,7.699-8.645,20.998-14.786,28.443
			c-15.088,18.292-34.194,33.51-51.738,49.525c-35.191,32.127-70.454,63.562-106.87,93.881
			c-37.044,30.841-70.815,67.559-109.892,94.528c-41.972,28.967-85.417,62.237-131.901,83.237
			c-21.916,9.9-45.33,23.584-67.853,30.131c-24.173,7.027-51.107,9.183-76.074,15.206c-32.18,7.765-63.294,20.62-91.698,37.605
			c-41.774,24.98-82.809,49.735-98.187,99.768c-8.786,28.587-11.064,58.759-14.057,88.359
			c-7.398,73.169-1.417,148.353,1.986,221.993c2.23,48.27-2.993,100.747-14.463,147.759
			c-28.771,117.929-59.491,242.614-55.464,364.835c1.813,55.033,23.355,104.925,33.954,158.351
			c9.139,46.064,20.216,93.277,27.851,140.046c4.805,29.432,8.165,59.076,12.255,88.61c10.606,76.598,29.299,155.622,71.607,221.42
			c21.295,33.12,53.44,60.356,87.229,82.755c39.66,26.291,79.895,28.881,123.883,45.496
			c88.676,33.495,186.991,43.702,277.659,11.692c71.45-25.226,156.335-80.986,173.479-159.964
			c3.756-17.302,7.214-35.018,16.541-51.553c9.952-17.645,22.781-35.43,34.143-51.889c9.663-13.998,26.194-25.651,31.865-42.025
			c7.787-22.486,8.246-50.416,9.429-74.544c2.658-54.2-1.833-108.652-6.401-162.565c-3.541-41.796-4.013-90.922,2.42-132.432
			c2.181-14.073,6.088-26.999,8.442-40.559c12.198-70.256,42.625-131.054,84.021-188.444
			c28.368-39.329,60.289-78.865,92.485-115.013c25.77-28.933,60.368-44.955,89.892-69.028c28.602-23.321,56.158-52.929,75.092-84.69
			c17.36-29.12,33.473-59.176,55.181-85.513c4.697-5.698,31.235-35.81,47.606-44.812l64.769-280.068
			C2208.713,8654.116,2173.025,8653.896,2130.838,8670.021z" color="12100205" style="fill:#b8a26d;fill-opacity:1;stroke-width:10;stroke:rgb(0,0,0)"></path><path id="158212609" parent_id="158212607" order="6" structure_id="12117" d="
			M6817.932,4992.054c-18.421-50.292-45.125-97.026-71.561-143.522c-21.473-37.766-42.26-70.802-79.291-96.27
			c-8.224-5.656-16.771-11.533-25.266-16.652c-33.113-19.955-70.238-22.842-108.094-25.619
			c-46.473-3.408-92.07-14.779-138.719-16.374c-41.405-1.416-81.275,12.656-120.917,23.619
			c-29.757,8.229-59.756,15.861-89.099,25.501c-19.754,6.489-40.435,11.655-59.645,18.733
			c-56.851,20.949-111.059,61.548-143.462,113.743c-11.115,17.904-14.407,36.921-18.831,56.905
			c-4.714,21.295-15.279,40.486-16.656,62.934c-2.865,46.747-2.961,90.323,1.633,137.013c4.48,45.521,15.76,87.695,22.578,132.938
			c7.814,51.854,28.323,100.682,40.026,151.405c7.479,32.417,19.067,63.739,32.546,94.107c11.447,25.794,21.218,55.71,35.289,80.086
			c10.578,18.328,23.058,35.109,34.911,52.188c22.176,31.952,58.442,48.532,92.671,63.704c21.605,9.576,49.765,10.515,72.848,15.149
			c19.323,3.88,39.333,0.661,58.338-3.532c23.019-5.08,42.671-19.848,62.676-31.281c25.367-14.497,50.396-29.711,76.022-43.746
			c27.287-14.944,56.378-34.73,78.887-56.279c11.581-11.089,24.629-20.107,37.455-29.829c24.755-18.764,52.845-37.906,72.639-60.832
			c21.347-24.725,40.073-52.039,59.583-78.05c17.272-23.028,28.51-49.606,42.688-74.165c15.884-27.513,31.976-58.186,41.595-88.588
			c7.172-22.672,11.965-46.095,15.223-69.689c6.682-48.4,6.387-105.753,1.459-154.55
			C6824.044,5017.082,6822.678,5005.049,6817.932,4992.054z" color="12755765" style="fill:#c2a335;fill-opacity:1;stroke-width:10;stroke:rgb(0,0,0)"></path><path id="158212610" parent_id="158212607" order="7" structure_id="12117" d="
			M6071.677,3944.078C6045.5,3971.5,6047.25,3969.5,6027.5,3993c-5.435,6.466-15.319,13.937-19.676,7.571
			c-61.104,48.398-251.184,199.818-296.228,236.715c25.062,28.902,56.537,51.774,94.704,64.748
			c34.922,11.87,71.31,9.59,107.184,16.748c25.396,5.067,52.984,5.653,79.503,4.351c55.778-2.738,106.161-4.698,158.986-19.115
			c34.454-9.402,67.833-19.793,101.03-32.681c18.552-7.202,35.895-17.154,54.227-24.865c28.404-11.948,54.108-30.027,81.669-43.705
			c26.664-13.233,51.768-28.465,78.677-41.637c29.49-14.436,62.484-22.275,92.887-34.877
			c34.162-14.161,67.557-30.169,100.356-47.238c23.42-12.188,47.872-17.473,72.009-25.488c24.535-8.147,48.743-13.833,73.082-20.246
			c83.027-21.875,203.436-46.85,282.063-0.758c61.876,36.272,76.3,89.848,79.458,157.131
			c3.889,82.856-12.395,163.828-16.462,246.019c-1.603,32.381-4.455,66.898-6.091,99.703c-1.599,32.041,4.074,65.68,5.992,97.489
			c1.978,32.795,6.107,65.289,7.566,98.264c1.078,24.356,6.441,48.351,12.367,71.919c5.565,22.136,5.59,42.804,8.17,65.482
			c5.726,50.313,19.575,99.352,24.587,149.765c3.439,34.599,7.296,68.119,10.371,102.801c2.848,32.11,2.427,65.275,7.424,97.536
			c8.407,54.293,8.447,109.159,25.21,162.289c8.844,28.034,18.688,54.292,28.682,81.415
			c20.425,55.438,34.967,116.208,55.602,171.824c22.145,59.681,47.985,121.686,46.87,186.491
			c-0.437,25.313-9.953,57.727-24.062,78.993c-56.485,85.143-181.74,70.121-269.23,81.933
			c-34.822,4.701-69.268,12.021-103.227,20.996c-59.211,15.648-114.524,31.059-170.026,59.714
			c-66.264,34.211-117.324,93.585-135.666,165.721c-11.734,46.146-22.621,88.613-6.444,135.318
			c14.618,42.203,32.644,84.895,63.369,118.09c32.13,34.712,75.621,66.279,115.563,91.233c32.31,20.186,66.195,38.328,97.452,59.584
			c21.993,14.957,50.063,37.727,54.021,65.915c3.818,27.197-5.964,52.934-27.955,69.608c-26.97,20.449-52.176,9.274-83.138,12.594
			c-17.158,1.84-28.659,1.148-46.134-2.795c-43.841-9.893-85.203-28.435-123.61-51.538c-34.007-20.457-78.789-35.143-118.096-26.938
			c-44.887,9.369-90.971,6.322-135.813,16.582c-18.553,4.244-42.289,5.479-59.209,13.729
			c-42.239,20.597-78.705,61.461-108.403,96.759c-5.03,5.978-9.057,12.247-12.762,18.903l265.305,123.085
			c3.263-3.471,26.238,9.161,36.18,13.992c11.303,5.493,23.182,9.795,34.468,14.999c29.408,13.562,57.312,27.392,85.122,43.462
			c75.648,43.714,153.681,72.866,235.898,102.033c34.875,12.374,100.559,44.328,104.579,45.385
			c9.369,2.462,25.343,7.753,26.961,8.145c48.598,11.735,97.698,4.017,141.899-20.319c25.342-13.952,45.081-34.683,64.85-55.194
			c45.579-47.291,77.186-106.092,110.897-162.12c40.216-66.838,58.606-139.925,78.999-214.03
			c16.346-59.398,22.61-133.087-6.498-189.503c-12.098-23.447-29.24-41.429-45.635-61.662c-8.309-10.253-59.597-46.435-66.915-49.63
			c-28.063-12.252-55.032-25.857-82.524-39.833c-66.803-33.96-132.063-62.702-202.492-89.157
			c-19.104-7.176-38.493-15.183-57.332-20.342c-4.638-1.27-24.612-3.171-26.33-8.139c-6.288-18.176,69.325,7.861,75.662,9.762
			c44.844,13.448,84.635,24.973,123.47,50.873c36.308,24.216,77.338,40.022,116.643,58.528c16.584,7.81,30.332,18.875,47.943,25.708
			c12.594,4.887,63.612,22.539,71.531,25.076c41.767,13.382,91.422,7.037,132.352-6.555
			c57.442-19.075,91.706-62.167,134.104-101.067c51.188-46.966,83.05-109.848,103.372-175.476
			c10.229-33.036,13.682-64.996,20.098-98.579c13.446-70.368,19.314-134.046,22.392-205.547
			c1.999-46.439,7.003-92.948,3.146-139.434c-4.405-53.085-11.922-104.287-16.998-157.024c-3.569-37.17-3.16-74.53-4.535-111.808
			c-1.221-33.118-9.228-63.712-14.407-96.271c-8.756-55.121-20.578-107.88-32.164-162.805
			c-12.506-59.271-16.065-119.916-27.909-179.102c-6.618-33.073-12.047-65.703-11.979-100.011
			c0.103-51.327-7.019-101.643-5.503-152.752c1.516-51.058-10.792-102.304-34.554-146.191
			c-18.802-34.727-40.015-83.395-43.858-123.089c-4.24-43.79,12.725-86.779,29.931-126.097
			c26.281-60.053,15.155-129.652,27.987-192.885c6.279-30.945,12.097-59.755,11.999-91.985
			c-0.096-31.529-8.338-61.938-13.942-92.075c-9.746-52.418-23.824-102.218-43.061-151.9c-8.605-22.224-17.647-43.958-25.999-65.991
			c-30.374-80.136-91.868-142.556-146.507-206.546c-33.28-38.977-72.449-71.253-112.048-103.918
			c-12.337-10.177-22.972-18.573-36.546-27.106c-28.192-17.725-58.658-25.296-89.783-36.478
			c-27.479-9.872-56.513-14.537-86.111-15.972c-71.678-3.474-138.268-13.909-207.205,12.681
			c-15.71,6.063-93.857,47.368-100.134,53.645c-23.667,23.666-153.911,76.871-220.929,116.903
			c-100.079,59.782-200.927,121.852-298.454,181.878l-32.762,20.162c-45.485,27.986-91.198,60.862-131.53,89.867
			c-9.487,6.823-18.538,14.85-27.29,22.612c-9.918,8.796-20.174,17.891-31.221,25.396
			C6094.4,3921.201,6071.677,3944.078,6071.677,3944.078z" color="12755765" style="fill:#c2a335;fill-opacity:1;stroke-width:10;stroke:rgb(0,0,0)"></path><path id="158212614" parent_id="158212607" order="8" structure_id="12116" d="
			M6104.898,3909.295c10.834-7.36,20.991-16.369,30.814-25.081c8.828-7.829,17.956-15.925,27.608-22.867
			c40.387-29.045,86.162-61.966,131.771-90.027l32.761-20.161c97.538-60.034,194.516-129.149,298.5-181.906
			c65.313-33.137,121.025-81.805,124.969-84.475c23.109-15.649,52.104-27.574,78.1-36.601c11.801-4.098,56.359-21.099,74.123-30.45
			c3.559-1.874,7.15-3.764,10.76-5.66c1.99-1.211,4.135-2.291,6.314-3.308c6.842-3.583,13.715-7.152,20.57-10.669
			c42.002-26.565,66.951-63.702,95.466-104.341c37.393-53.292,60.072-109.108,66.449-173.86
			c7.318-74.532-0.644-142.172-12.494-215.982c-7.451-46.405-15.196-94.413-26.104-141.455
			c-8.275-35.691-24.599-70.549-35.848-106.007c-8.678-27.35-16.83-55.097-28.507-82.535
			c-23.361-54.893-43.486-111.716-71.985-164.511c-17.215-31.892-41.679-59.8-63.669-88.368
			c-24.492-31.818-41.945-68.615-68.309-99.055c-65.845-76.029-137.696-135.645-224.828-181.767
			c-78.146-41.366-155.386-87.945-237.671-120.784c-36.557-14.59-67.375-38.708-106.838-45.928
			c-45.037-8.24-90.397-21.118-136.391-30.493c-101.597-20.709-208.754-19.744-304.951,22.487
			c-48.266,21.189-111.543,55.033-151.455,97.732c-2.594,3.462-5.089,6.996-7.396,10.636c-14.63,23.087-28.16,47.397-41.246,70.907
			l-2.032,3.65c-13.227,23.756-28.846,46.12-43.951,67.748c-11.338,16.233-18.061,33.019-28.673,50.254
			c-25.747,41.814-46.116,86.14-64.293,127.813c-8.455,19.385-14.563,39.392-22.405,58.741
			c-8.243,20.34-16.768,41.372-25.549,61.288c-21.699,49.213-38.234,88.261-47.744,122.887
			c-10.295,37.485-19.546,74.508-32.361,110.312c-10.848,30.305-22.063,61.642-31.383,92.993
			c-14.608,49.149-32.038,100.571-45.026,150.299c-11.311,43.304-23.006,88.082-35.459,131.298
			c-2.777,9.64-5.994,26.53-6.618,43.783c-1,27.666-13.334,44.666-26.667,85.333c-13.828,42.176-5.333,33.667-19,69
			c-19.741,51.037-41.778,102.445-75.096,147.336c-6.825,9.196-52.689,100.35-56.186,111.178c-2.318,7.18-4.715,14.604-7.443,21.508
			c-3.7,9.361-7.672,17.848-13.275,26.561c-1.674,2.602-3.183,5.972-4.75,8.5c-10.813,18.487-17.606,40.477-29.25,58.5
			c-4.064,6.291-6.021,13.148-10.712,18.98c-1.492,1.855-2.897,4.222-5.538,4.27c-7.052,0.128-1.749-11.951-0.921-15.631
			c1.636-7.264,4.654-18.39,7.921-25.119c6.197-12.768,12.261-21.449,22-31.5c9.25-10.75,10.021-13.01,15-20.75
			c5.5-8.551,8.694-14.837,12.25-23.833c2.683-6.786,7.702-16.214,10-23.333c3.541-10.967,8.114-21.687,13.12-31.816
			c6.733-13.624,66.873-143.077,84.88-196.184c12.676-37.388,26-84.334,41.354-121.44c3.108-7.512,6.922-21.644,27.979-45.227
			c8.334-9.333,14.104-50.797,17.108-61.224c12.439-43.168,24.129-87.921,35.433-131.201
			c12.996-49.761,30.436-101.216,45.063-150.428c9.35-31.456,20.585-62.845,31.45-93.201
			c12.791-35.734,22.017-72.684,32.271-110.023c9.563-34.82,26.161-74.044,47.941-123.44c8.757-19.86,17.27-40.865,25.502-61.178
			c7.851-19.373,13.97-39.405,22.446-58.838c18.234-41.806,38.676-86.284,64.553-128.31c10.673-17.334,17.43-34.168,28.8-50.447
			c15.048-21.546,30.608-43.826,43.736-67.404l2.031-3.649c7.108-12.771,14.356-25.774,21.836-38.7
			c2.282-4.18,4.683-8.234,7.156-12.203c4.045-6.797,8.156-13.549,12.37-20.199c3.887-6.135,8.251-11.953,12.767-17.584
			c9.793-15.279,23.354-31.277,27.781-50.513c24.087-104.623,5.135-231.026-22.426-333.814
			c-21.843-81.463-61.916-157.973-102.946-231.65c-33.252-59.709-83.376-110.485-135.581-154.557
			c-67.045-56.598-133.978-103.35-213.227-142.454c-47.46-23.418-96.685-49.677-147.567-65.309
			c-50.884-15.632-92.6-36.869-146.185-44.476c-59.738-8.48-120.558-21.5-180.467-25.873c-62.556-4.565-125.205,2.415-187.758,3.361
			c-100.767,1.524-200.097,14.308-300.66,19.075c-53.191,2.521-110.768,2.197-161.975-5.668
			c-48.473-7.444-60.456-35.881-88.441-68.025c-23.976-27.539-62.729-40.082-97.583-45.429
			c-75.283-11.549-150.778,8.019-226.1,8.019c-60.257,0-111.331-17.305-169.759,6.193c-55.93,22.493-74.633,83.39-100.915,132.538
			c-15.365,28.732-22.474,61.171-37.19,90.538c-29.965,59.792-65.966,124.197-79.916,190.146
			c-10.487,49.58-3.476,99.534,1.366,149.262c2.077,21.329,5.683,42.716,12.457,63.093c10.733,32.288,17.735,65.389,25.858,98.521
			c5.15,21.008,8.472,45.649,18.147,65.219c4.499,9.098,8.748,17.692,11.91,24.613l2.958,6.474
			c17.268,37.79,35.123,76.867,52.932,114.612c19.328,40.962,41.234,87.391,56.866,133.904c4.162,12.385,7.397,24.354,10.527,35.93
			c6.356,23.513,12.36,45.721,25.13,68.121c14.617,25.638,23.538,53.797,32.165,81.028c4.223,13.328,8.589,27.111,13.567,40.419
			c4.977,13.302,10.377,26.608,15.599,39.478c12.902,31.793,26.244,64.668,33.938,99.46c0.884,3.995,1.749,8.24,2.643,12.686
			c0.032-0.359,0.046-0.722,0.085-1.081c0,0.471-0.003,0.973-0.007,1.472c0.166,0.823,0.33,1.64,0.498,2.478
			c2.861,14.269,6.142,30.622,10.998,45.168c9.244,18.848,22.138,36.836,32.015,51.589c18.583,27.756,37.354,52.707,66.343,70.113
			c12.011,7.212,24.941,13.322,37.856,18.032c4.852,0.397,9.17,1.366,12.284,3.262c87.14,16.837,138.649,23.795,168.132,26.58
			c15.827-1.726,57.832-4.925,52.779,9.656c-4.433,12.792-35.907,2.099-50.93-5.366c-32.6-2.956-93.453-11.259-203.644-33.434
			c-5.304,0.537-10.176,1.168-13.832,1.484c-74.587,6.456-125.954,90.397-152.99,151.161
			c-13.987,31.438-25.708,59.344-34.488,92.992c-14.39,55.15-47.471,120.865-103.157,144.351c-4.787,2.02-28.985,8.786-31.801,1.841
			l-142.112,255.137c40.613,9.242,82.443,9.039,124.071,4.823c62.393-6.318,131.389-24.889,185.366-58.143
			c21.011-12.944,42.253-24.623,63.896-36.386c19.224-10.449,35.615-25.604,55.182-36.002c23.833-12.665,45.226-26.94,69.396-39.696
			c15.402-8.128,29.579-17.838,45-25.605c36.462-18.363,71.764-35.044,109.127-52.487c72.315-33.763,153.86-61.311,219.408-107.95
			c18.89-13.441,37.051-27.182,55.04-41.26c35.71-27.946,72.343-55.809,104.988-87.391c22.608-21.873,43.804-44.596,66.107-66.781
			c41.026-40.808,75.483-92.908,106.44-140.933c43.609-67.651,44.752-131.899,28.154-208.156c-3.957-18.18-9.985-36.89-18.03-54.285
			c-9.85-21.298-22.289-40.031-31.018-61.669c-9.536-23.637-23.545-47.689-40.622-66.618
			c-19.484-21.599-41.063-43.179-64.063-61.107c-35.776-27.884-76.097-55.869-115.995-77.631
			c-34.21-18.66-67.723-37.361-100.418-57.751c-19.809-12.354-40.034-23.89-59.94-35.975c-21.698-13.172-37.05-33.401-55.954-49.91
			c-16.015-13.986-31.795-28.293-48.011-41.985c-31.247-26.384-61.152-53.162-81.048-89.792
			c-19.827-36.502-42.756-80.069-25.907-121.383c22.59-55.393,63.429-30.955,104.459-18.331
			c23.562,7.249,43.434,20.996,65.698,31.263c17.615,8.124,35.564,9.079,53.57,16.117c21.426,8.376,41.519,19.81,61.768,30.625
			c27.413,14.642,55.245,21.97,85.864,26.618c22.966,3.486,44.131,2.368,66.161,0.385c18.438-1.659,36.344,7.784,54.577,8.63
			c23.67,1.099,47.227-2.707,71.255-1.499c50.352,2.532,102.21,4.501,154.145,4.5c47.302-0.002,92.808-1.666,139.838,2.998
			c18.905,1.874,37.895,4.761,56.245,8.958c37.725,8.63,76.752,15.965,114.093,26.334c38.77,10.765,80.629,23.084,109.94,51.836
			c26.604,26.095,46.711,61.602,54.102,98.236c7.961,39.474,12.131,86.323,2.668,125.62c-5.581,23.176-17.516,47.992-26.451,70.389
			c-8.09,20.277-18.24,39.432-28.831,58.625c-10.271,18.613-18.477,38.453-27.151,57.938
			c-10.576,23.757-22.367,48.483-31.269,72.646c-11.398,30.94-25.706,60.971-37.538,91.413
			c-13.209,33.982-15.778,72.828-23.816,108.219c-4.335,19.087-7.861,36.063-13.488,54.749
			c-10.511,34.902-22.54,70.63-37.138,105.319c-26.443,62.839-40.321,136.092-48.45,202.09
			c-2.437,19.786-7.994,38.779-11.954,58.665c-6.128,30.739-14.508,60.703-20.962,91.399c-2.867,13.641-4.935,26.673-7.866,40.498
			c-5.867,27.673-13.631,53.204-17.964,80.961c-21.498,137.717-47.95,273.606-61.17,412.518
			c-5.804,60.99-14.961,119.882-17.989,181.494c-2.007,40.839-1.453,83.948,4.823,122.992
			c8.488,52.804,31.055,112.32,66.775,153.038c25.472,29.035,62.54,38.131,96.313,50.861
			c46.423,17.499,90.236,12.656,138.396,10.267c29.278-1.453,59.474-8.199,85.891-21.082c12.705-6.196,21.612-15.337,32.861-22.986
			c15.104-10.271,32.731-16.458,47.752-27.277c35.524-25.587,62.197-59.624,93.063-89.944
			c44.773-43.981,80.416-95.044,116.004-146.419c24.269-35.032,53.222-66.415,79.364-99.997
			c25.427-32.663,43.797-69.369,66.98-103.487c43.736-64.368,94.978-123.885,141.448-186.332
			c29.069-39.062,50.875-85.232,75.213-127.405c26.905-46.622,47.836-96.429,66.571-146.801
			c43.223-116.209,78.231-237.245,139.84-346.444c33.714-59.755,78.221-138.209,147.325-161.746
			c26.456-9.011,55.982-4.241,81.813-1.646c29.737,2.987,56.458,6.353,83.438,17.788c62.613,26.542,127.938,80.713,160.648,141.5
			c8.203,15.245,14.459,32.434,21.214,48.414c11.855,28.048,22.688,60.603,27.18,90.744
			c10.739,72.084-10.583,148.084-34.839,215.647c-19.278,53.697-41.669,103.878-71.671,154.109
			c-17.373,29.087-44.214,51.009-69.311,73.153c-24.448,21.572-43.488,48.751-65.678,73.064
			c-46.049,50.457-92.044,102.258-132.034,157.536c-18.884,26.101-43.296,47.465-65.808,70.292
			c-20.211,20.494-36.525,43.694-54.739,65.521c-30.809,36.92-64.014,71.021-93.575,108.964
			c-15.212,19.524-28.914,41.297-42.74,62.324c-45.602,69.356-102.727,148.971-110.646,234.255
			c-1.862,20.048,1.556,39.287,1.563,59.272c0.031,76.386,24.456,160.462,75.585,219.429
			c45.044-36.896,235.123-188.316,296.228-236.715c-0.038-0.057-0.079-0.104-0.117-0.161c-4.082-6.131,6.532-22.773,11.837-25.635
			c29.706-16.026,31.836-23.452,48.114-34.614C6067.823,3940.112,6091.684,3918.272,6104.898,3909.295z" color="13939253" style="fill:#d4b235;fill-opacity:1;stroke-width:10;stroke:rgb(0,0,0)"></path><path id="158212615" parent_id="158212607" order="9" structure_id="12115" d="
			M3541.157,2158.42c-5.233-12.893-10.644-26.227-15.639-39.58c-5.014-13.403-9.396-27.235-13.634-40.612
			c-8.564-27.033-17.42-54.986-31.827-80.255c-13.024-22.843-19.092-45.292-25.518-69.058c-3.114-11.519-6.333-23.43-10.457-35.699
			c-15.557-46.292-37.411-92.609-56.691-133.472c-17.82-37.769-35.681-76.856-52.953-114.657l-2.958-6.475
			c-3.137-6.864-7.373-15.432-11.858-24.503c-8.657-17.508-67.587-136.759-75.646-164.982c-4.575-16.023-9.341-33.808-11.046-50.371
			c-1.506-14.626-1.601-28.664-5.371-42.881c-3.888-14.661-8.975-28.979-14.526-43.084c-6.209-15.774-14.883-31.063-31.161-38.092
			c-14.541-6.281-30.672-9.088-46.349-10.706c-16.76-1.728-34.339,1.318-51.151,1.547c-11.931,0.163-24.119,1.772-35.982,0.093
			c-5.738-0.812-13.079,2.26-17.155-3.823c-10.505-15.7,95.726-38.926,107.514-43.148c23.595-8.448,50.662-15.343,70.134-31.982
			c11.24-9.604,18.12-22.59,26.426-34.466c8.544-12.22,18.396-22.474,28.624-33.311c10.154-10.759,22.516-19.013,31.935-30.472
			c5.204-6.33,11.263-12.475,15.9-19.127c6.413-9.201,6.308-23.212,10.604-33.932c4.593-11.461,14.06-20.443,18.342-31.59
			c4.235-11.024,6.448-22.412,11.821-33.222c43.013-86.533,81.245-186.591,62.853-284.75
			c-20.051-107.016-94.448-160.348-172.328-225.184c-67.541-56.23-161.162-86.128-243.939-111.486
			c-27.892-8.544-56.194-12.345-84.023-18.332c-51.868-11.156-105.255-7.11-157.343-15.844
			c-47.157-7.907-85.25-13.181-133.226-1.033c-40.799,10.329-85.621,8.471-125.919,23.314
			c-41.048,15.119-79.186,37.491-122.02,47.749c-49.102,11.759-95.733,5.857-144.927-0.378c-40.948-5.19-81.89-3.168-123.556-9.146
			c-99.037-14.207-196.026-39.354-293.816-59.977c-63.117-13.31-139.443-9.644-204.308-13.622
			c-31.689-1.943-63.367,0.975-94.916,3.724c-13.989,1.219-29.075,2.917-43.1,2.237c-14.496-0.706-28.794-0.602-43.314-1.316
			c-16.262-0.801-33.366-0.863-49.983-0.018c-48.016,2.44-95.34,7.524-142.36,18.67c-22.412,5.313-45.427,12.088-64.159,26.01
			c-19.09,14.188-35.133,36.125-48.051,55.916c-15.576,23.865-29.486,47.498-45.944,70.795c-5.033,7.126-9.588,14.578-15.086,21.371
			c-3.65,4.509-11.511,17.22-18.069,10.239c-2.464-2.624-1.754-6.726-1.558-10.019c0.563-9.438,5.178-18.129,6.198-27.449
			c2.559-23.375,12.455-44.349,20.679-66.066c6.886-18.184,15.393-29.8,8.774-49.754c-2.01-6.061-6.212-11.74-9.316-17.281
			c-10.17-18.15-25.184-30.329-42.608-40.949c-11.399-6.949-22.579-15.028-34.15-21.557c-18.029-10.171-33.665-20.437-53.948-25.856
			c-21.118-5.643-43.322-6.983-65.07-5.401c-99.746,7.254-168.381,37.998-251.352,82.252
			c-46.318,24.705-92.779,49.328-137.018,77.662c-39.6,25.36-69.615,54.353-101.988,87.888
			c-62.125,64.353-70.938,166.689-79.365,251.292c-2.597,26.068-3.097,53.002-3.087,79.452
			c0.015,42.496-10.169,85.228-5.918,127.548c2.738,27.257,6.345,54.957,10.406,81.746c6.36,41.945,3.911,85.167,11.632,126.908
			c8.197,44.315,14.91,88.917,19.217,133.785c7.089,73.85,0.861,147.811,11.485,221.206c3.653,25.234,9.974,50.088,21.779,73.808
			c8.748,17.577,25.352,38.4,43.011,47.714c9.926,5.236,21.521,6.878,32.097,10.82c5.175,1.927,7.146,8.593,2.589,11.712
			c-9.087,6.221-23.902,7.375-33.028,11.635c-15.987,7.461-33.06,17.94-43.683,32.374c-21.454,29.158-19.752,70.989-23.085,104.748
			c-4.118,41.706-3.948,83.358-1.831,125.993c3.054,61.513,6.445,125.645,19.77,185.718c6.047,27.264,14.488,53.467,23.065,79.991
			c6.069,18.769,16.561,40.802,17.505,60.517c2.839,59.259,38.429,140.439,104.056,148.607c28.861,3.593,62.956-10.275,91.974-6.208
			c5.47,0.767,8.103,6.622,3.665,9.911c-15.247,11.304-50.846,8.7-65.895,11.278c-24.901,4.266-50.896,11.835-71.568,26.87
			c-16.6,12.074-22.621,30.744-28.81,49.88c-15.114,46.73-4.491,96.994-6.444,144.976c-1.022,25.114-5.307,49.901-5.276,75.148
			c0.054,44.697-0.038,89.492,4.514,134.011c7.55,73.833,1.785,148.64,13.2,222.14c5.833,37.562,23.351,71.667,34.854,107.555
			c12.327,38.459,9.898,73.152,11.843,112.53c2.359,47.781,11.2,91.669,29.107,135.519c21.087,51.64,25.917,117.472,68.977,157.231
			c17.846,16.478,41.295,41.766,62.958,52.706c32.68,16.503,79.624,4.619,115.064,10.021c39.586,6.033,63.927,17.562,96.731,41.251
			c15.254,11.016,27.167,19.701,44.346,27.008c19.852,8.444,33.718,2.141,53.326,7.35c13.779,3.66,27.236,19.45,42.608,24.221
			c18.589,5.769,37.335,8.321,57.013,11.248c59.929,8.917,114.024,16.684,170.335,39.68c28.442,11.615,59.582,20.354,89.176,30.767
			c55.671,19.587,116.366,37.637,174.049,49.635c57.483,11.958,112.241,31.813,169.49,44.786
			c157.524,35.697,302.984,109.626,460.459,143.823c24.687,5.361,53.264-4.168,78.427,1.533
			c8.117,1.839,20.367,10.339,17.617,25.589l323.659,104.388c11.75-37.912,17.988-77.354,15.931-118.039
			c-1.064-21.039-3.818-40.695-7.845-60.744c-10.926-54.4-16.788-109.805-39.474-161.106
			c-18.583-42.024-51.108-79.608-79.804-114.919c-12.575-15.475-22.698-32.241-36.007-46.822
			c-12.824-14.051-26.976-23.64-40.533-37.052c-13.659-13.513-25.339-28.692-40.088-40.651
			c-36.449-29.556-76.997-60.773-118.039-83.514c-42.469-23.532-87.759-44.652-133.353-61.423
			c-15.465-5.689-29.333-14.018-44.948-19.388c-16.979-5.838-35.093-8.519-51.594-15.763
			c-33.995-14.927-68.696-22.407-103.126-35.415c-68.391-25.838-142.242-39.195-212.641-57.073
			c-33.642-8.543-67.81-13.164-101.275-22.821c-29.161-8.415-57.84-13.44-87.733-17.95c-45.369-6.846-95.703-26.377-138.05-43.48
			c-68.852-27.808-118.763-91.965-167.591-144.45c-21.556-23.169-43.6-46.239-61.449-72.034
			c-25.166-36.367-34.878-73.467-43.523-116.925c-7.438-37.382-13.783-75.212-13.836-113.667c-0.037-27.458,2.114-54.5,7.494-81
			c10.882-53.603,46.435-100.954,87.542-138.013c27.082-24.415,57.172-46.418,83.356-71.618
			c21.772-20.953,47.227-39.747,67.879-61.772c19.551-20.853,35.109-43.413,52.591-65.755
			c22.879-29.241,37.542-82.071,37.09-118.836c-0.803-65.199-21.257-130.802-71.959-174.708
			c-10.78-9.336-23.353-14.768-34.533-21.753c-22.698-14.185-41.9-33.736-64.44-48.373c-36.939-23.986-75.654-45.796-109.134-74.671
			c-33.604-28.979-53.871-64.611-69.592-105.559c-10.899-28.392-11.842-68.148-11.816-98.375
			c0.039-46.958,11.313-87.771,18.01-133.499c10.039-68.55-8.119-123.263-37.137-184.446
			c-13.239-27.916-26.131-55.604-37.875-84.031c-11.586-28.046-27.826-56.263-43.871-82.089
			c-18.879-30.388-41.936-57.864-58.616-89.648c-14.759-28.122-15.784-54.911-24.631-84.756
			c-10.563-35.631-28.021-66.853-25.874-105.708c4.329-78.302,100.237-85.913,154.581-58.592
			c18.443,9.272,38.012,14.115,57.246,19.427c16.209,4.476,30.055,14.227,45.033,21.514
			c66.931,32.563,126.54,76.027,191.208,111.773c47.086,26.027,97.625,52.427,149.244,68.152
			c42.026,12.803,83.302,28.517,124.844,42.056c37.943,12.366,78.342,29.867,117.798,36.279
			c46.677,7.587,94.752,11.784,143.695,11.759c33.897-0.018,71.64-4.102,105.125-9.44c37.351-5.957,75.164-13.685,111.863-22.851
			c35.879-8.961,67.212-24.831,101.327-37.515c14.173-5.27,29.245-11.152,43.47-17.268c30.018-12.906,58.773-28.868,88.497-41.965
			c30.48-13.431,61.783-33.569,90.006-50.978c26.009-16.044,52.894-32.081,77.983-47.929c15.766-9.96,30.777-22.542,46.498-32.715
			c55.563-35.961,105.27-78.985,162.01-113.989c22.989-14.183,46.155-28.663,71.39-38.574
			c28.447-11.173,82.716-29.206,109.006-3.852c11.199,10.801,19.348,30.499,17.575,46.106c-2.159,19.018-19.752,42.052-29.4,58.528
			c-23.618,40.332-63.467,73.396-98.469,105.425c-31.102,28.461-59.977,58.927-88.149,89.64
			c-30.996,33.79-54.278,70.487-77.195,109.358c-11.373,19.292-23.946,40.603-32.117,61.696
			c-14.774,38.142-18.368,78.774-22.012,118.997c-4.094,45.187-8.731,90.447-6.639,135.881
			c2.473,53.678,21.551,119.344,59.624,160.196c34.649,37.176,77.183,59.961,120.637,85.01
			c45.679,26.333,90.81,53.655,134.682,82.916c51.893,34.609,94.239,88.655,133.17,137.648
			c28.717,36.139,58.079,77.406,79.814,117.653c13.156,24.361,25.791,48.856,34.967,74.886
			c8.643,24.517,16.287,51.767,20.604,77.404c5.489,32.6,7.327,66.111,8.981,100.507c2.033,42.281-9.991,84.105-22.497,123.771
			c-9.544,30.272-21.874,54.351-35.553,83.228c-14.71,31.056-24.627,61.937-30.6,95.778c-8.066,45.706-4.332,95.206,0.237,141.129
			c8.668,87.127,65.167,170.133,143.369,216.415c31.317,18.534,62.578,32.786,96.983,44.356c8.428,2.834,16.925,5.188,25.474,7.134
			l142.112-255.136c-3.055-7.536,42.251-18.216,47.208-21.687c24.755-17.337,36.239-55.146,43.91-82.493
			c11.764-41.94,39.726-79.964,56.913-120.008c12.618-29.396,24.699-57.021,31.585-88.485c3.198-14.612,5.991-29.778,7.838-44.231
			c3.781-29.581,12.556-57.97,16.117-87.682c3.791-31.625,3.287-63.563,4.859-95.33c0.33-6.668,0.723-14.69,1.025-22.348
			c-1.032-4.848-1.999-9.671-2.943-14.378c-1.1-5.484-2.139-10.666-3.203-15.477
			C3567.274,2222.776,3553.997,2190.06,3541.157,2158.42z" color="13939253" style="fill:#d4b235;fill-opacity:1;stroke-width:10;stroke:rgb(0,0,0)"></path></g><g id="158212622" order="0" group_label_id="113753816" group_label="Atlas - Developing Human Sulci" sub_image_id="111257553"><path id="158212629" parent_id="158212622" order="0" structure_id="10639" d="M3496.94,662.439c-0.585-0.066,23.055,34.212,23.055,34.212
			s40.48,6.459,40.635,7.172c0.154,0.713-80.386,55.38-80.886,54.773C3479.245,757.989,3497.526,662.505,3496.94,662.439z" color="7171696" style="fill:#6d6e70;fill-opacity:1;stroke-width:10;stroke:rgb(0,0,0)"></path><path id="158212628" parent_id="158212622" order="1" structure_id="10631" d="M7225.203,3214.405c-0.497-0.317,5.65,40.866,5.65,40.866
			s33.51,23.61,33.336,24.32c-0.176,0.708-96.554,14.363-96.736,13.598C7167.271,3292.425,7225.7,3214.722,7225.203,3214.405z" color="7171696" style="fill:#6d6e70;fill-opacity:1;stroke-width:10;stroke:rgb(0,0,0)"></path><path id="158212627" parent_id="158212622" order="2" structure_id="13222" d="M5411.68,8772.207c0.366-0.46-41.229,1.461-41.229,1.461
			s-26.901,30.931-27.588,30.684c-0.688-0.244-4.456-97.513-3.677-97.617C5339.966,8706.632,5411.313,8772.67,5411.68,8772.207z" color="7171696" style="fill:#6d6e70;fill-opacity:1;stroke-width:10;stroke:rgb(0,0,0)"></path><path id="158212626" parent_id="158212622" order="3" structure_id="13221" d="M3593.285,9294.686c0.374-0.456-41.247,0.831-41.247,0.831
			s-27.369,30.517-28.052,30.26c-0.683-0.255-2.968-97.569-2.187-97.661C3522.581,9228.024,3592.912,9295.143,3593.285,9294.686z" color="7171696" style="fill:#6d6e70;fill-opacity:1;stroke-width:10;stroke:rgb(0,0,0)"></path><path id="158212625" parent_id="158212622" order="4" structure_id="10624" d="M1829.38,10198.307c0.419-0.414-41.109-3.463-41.109-3.463
			s-30.395,27.504-31.048,27.178c-0.652-0.325,7.197-97.35,7.983-97.359C1765.992,10124.653,1828.962,10198.723,1829.38,10198.307z" color="7171696" style="fill:#6d6e70;fill-opacity:1;stroke-width:10;stroke:rgb(0,0,0)"></path><path id="158212624" parent_id="158212622" order="5" structure_id="10615" d="M524.195,3727.146c0.206,0.552,20.062-36.049,20.062-36.049
			s-12.572-39.016-12.006-39.478c0.566-0.46,85.779,46.591,85.465,47.312C617.4,3699.653,523.989,3726.594,524.195,3727.146z" color="7171696" style="fill:#6d6e70;fill-opacity:1;stroke-width:10;stroke:rgb(0,0,0)"></path><path id="158212630" parent_id="158212622" order="6" structure_id="10615" d="M772.564,8705.548c0.468,0.357-2.316-41.189-2.316-41.189
			s-31.482-26.252-31.25-26.945c0.231-0.691,97.399-6.478,97.52-5.701C836.637,8632.489,772.094,8705.192,772.564,8705.548z" color="7171696" style="fill:#6d6e70;fill-opacity:1;stroke-width:10;stroke:rgb(0,0,0)"></path><path id="158212631" parent_id="158212622" order="7" structure_id="10613" d="M433.516,5312.857c0.051,0.588,28.984-29.357,28.984-29.357
			s-1.661-40.958-0.992-41.251c0.668-0.292,70.164,67.866,69.668,68.477S433.465,5312.271,433.516,5312.857z" color="7171696" style="fill:#6d6e70;fill-opacity:1;stroke-width:10;stroke:rgb(0,0,0)"></path></g></g></svg>
