<svg id="the_svg_wrapper" class="svg_wrapper" width="100%" height="100%" version="1.1" xmlns="http://www.w3.org/2000/svg"><g id="master_group" transform="translate(0,0) scale(0.0546875)" width="47904" height="61824" image_id="102339958" image_url="/external/devhuman/prod14/3760000289/3760000289.aff"><g id="157960617" order="0" group_label_id="31" group_label="Atlas - Developing Human" sub_image_id="102339958"><clippath><path id="zap_container_graphics_clip" d="M 0 0 L 1498 0 L 1498 312 L 0 312 L 0 0" style="fill:#000NaN;fill-opacity:1;stroke-width:10;stroke:rgb(0,0,0)"></path></clippath><path id="157960619" parent_id="157960617" order="0" structure_id="10557" d="
			M5969.566,5273.868c-37.056-18.497-73.906-28.021-107.176-56.252c-59.847-50.783-97.354-125.91-134.631-193.531
			c-38.988-70.729-90.738-139.438-153.584-190.833c-53.021-43.359-138.89-84.796-208.783-81.709
			c-50.043,2.21-104.924,13.102-154.063,23.991c-35.873,7.95-73.612,19.715-109,32.095
			c-57.778,20.215-111.651,48.316-167.281,73.914c-79.926,36.779-158.781,71.709-242.638,99.035
			c-38.682,12.604-81.428,22.865-122.002,26.963c-26.504,2.678-53.772,13.666-80.541,11.713c-16.358-1.193-30.67-4.271-47.668-3.737
			c-40.53,1.269-80.071-2.556-120.416-4.53c-35.764-1.752-70.69,4.078-106.188-1.084c-37.269-5.418-68.61-20.315-102.595-35.914
			c-54.612-25.069-104.231-47.459-156.565-78.435c-32.004-18.942-66.813-34.483-97.508-55.407
			c-27.306-18.611-39.327-22.605-66.854-1.079c-21.776,17.03-51.923,38.136-71.532,57.832
			c-20.893,20.983-37.024,45.187-60.461,63.662c-27.416,21.61-58.344,37.774-91.684,42.919c-28.508,4.398-59.301,1.393-87.955,0.014
			c-47.066-2.265-75.619-24.408-109.525-54.465c-49.731-44.084-66.213-85.694-72.318-148.959
			c-7.016-72.65-12.098-146.614,12-217.488c40.781-119.949,124.602-238.535,218.988-322.484
			c29.158-25.935,55.101-52.299,86.996-74.996c66.107-47.035,176.139-74.401,256.487-82.496c44.427-4.475,79.011,6.11,121.493,19.5
			c46.613,14.69,82.021,50.295,129.412,59.875c19.699,3.981,43.839,4.115,64.079,3.121c15.92-0.781,26.647-0.789,28.498-19.498
			c2.965-30.022-45.372-52.446-58.085-76.295c-14.494-27.188-9.414-60.391-19.855-88.939c-8.602-23.523-15.936-47.708-28.242-69.825
			c-21.52-38.67-41.981-78.412-69.352-113.394c-15.164-19.38-37.693-42.594-61.928-50.094c-25.42-7.867-56.031-2.287-82.021,1.066
			c-20.512,2.646-47.085,6.92-67.497,9c-58.723,5.982-124.013,15.812-182.991,19.499c-71.996,4.5-110.993,6-182.271,10.923
			c-18.3,1.264-37.979-2.875-56.216-1.924c-25.928,1.354-46.623-1.284-71.815-5.109c-38.493-5.844-72.737-8.525-111.175-14.39
			c-30.811-4.7-64.005-10.933-93.135-20.132c-56.75-17.921-123.139-40.848-172.165-75.361
			c-38.95-27.419-84.761-54.647-120.259-86.583c-30.383-27.333-63.836-51.414-93.434-80.042
			c-61.104-59.101-120.289-125.217-157.355-202.479c-16.109-33.577-32.401-67.678-40.135-103.863
			c-12.957-60.637-23.851-118.087-28.42-179.987c-2.328-31.516-4.596-60.003-3.062-93.005c0.777-16.768,3.006-32.543,6.035-48.76
			c7.349-39.35,20.701-78.395,35.327-115.907c43.076-110.482,79.317-147.585,149-208c33.966-29.448,80.193-48.062,117-72
			c46.124-29.997,86-49,141-78c49.064-25.87,94.606-49.003,142.968-76.004c45.188-25.229,80.58-52.129,125.032-78.996
			c91-55,169-115,213-148c30.206-22.653,63.122-43.882,70-82c5.142-28.489,13-69-17.59-89.526
			c-27.639-18.547-68.24,6.521-98.515,14.511c-32.159,8.487-66.514,21.61-98.411,33.571
			c-58.769,22.035-109.931,45.351-166.483,72.444c-88.707,42.497-150,76-248,122c-32.588,15.298-85.617,41.289-120.534,49.175
			c-60.196,13.594-121.337,22.595-182.521,30.366c-73.267,9.309-141.806-7.671-213.583-18.454
			c-35.727-5.367-67.3-10.393-100.361-25.087c-87.435-38.857-150-92-199.575-208.465c-11.062-25.985-17.308-42.264-27.425-67.535
			c-15.611-38.989-27.885-77.487-43-117c-11.602-30.323-18.026-64.348-32-94c-24.797-52.612-59.112-107.564-87.079-158.472
			c-23.5-42.775-60.089-80.278-96.9-111.909c-13.902-11.944-28.412-22.966-42.11-35.075c-27.591-24.393-57.431-47.457-90.91-63.544
			c-30.452-14.633-63.761-24.929-98.014-27.659c-35.139-2.801-72.432-4.314-105.986-2.341c-32.314,1.902-57.423,2.24-88,16
			c-60,27-82.986,62.46-115,108c-19.981,28.425-46,55-45,103c1.604,77.009,48.779,107.099,102,138
			c54.815,31.827,100.502,77.751,154.032,112.232c39.259,25.288,79.04,49.788,117.46,76.354
			c36.664,25.353,68.06,57.771,95.911,92.39c15.993,19.877,32.19,39.724,45.611,61.475c13.237,21.455,20.15,43.404,27.896,67.096
			c7.714,23.601,12.038,47.334,17.078,71.496c3.398,16.289,4.648,32.504,5.924,49.5c3.362,44.781-14.161,98.274-33.469,137.927
			c-20.698,42.507-46.996,84.448-80.534,118.075c-34.958,35.052-67.751,69.161-107.967,98.463
			c-40.989,29.862-86.653,51.149-126.548,84.047c-18.774,15.479-38.88,26.197-52.444,46.949
			c-51.547,78.88,43.487,82.903,97.354,78.689c30.798-2.409,59.379-7.371,89.626-15.09c11.151-2.847,21.773-4.95,33.081-6.947
			c33.237-5.87,64.473-18.067,97.45-24.678c92.393-18.518,211.414-13.933,285.459,53.477c40.476,36.847,87.74,106.712,98.239,144.21
			c11.97,42.748,12.747,79.93,22.499,131.994c3.602,19.223,1.87,46.71,4.5,65.997c9,65.997-13.24,125.619-40.498,187.49
			c-17.104,38.826-31.729,90.174-73.496,137.993c-103.494,118.494-196.551,176.824-256.486,205.489
			c-68.997,32.999-155.992,67.497-227.988,83.996c-36.312,8.321-91.881,20.062-121.494,31.499
			c-101.107,39.042-84.605,180.263-70.497,272.986c7.576,49.788,7,100.491,9,163.491c1.629,51.308-3,77.367-3,124.494
			c0,36.461-1.362,89.6-3,125.994c-1.946,43.283,1.015,79.895,4.5,122.994c3.369,41.644,11.14,85.461,26.999,124.494
			c4.616,11.358,10.127,32.062,14.999,43.498c5.505,12.922,11.985,27.359,16.499,40.498c4.946,14.397,7.094,18.461,12,32.998
			c5.232,15.504,5.617,29.035,9,44.998c4.565,21.545,19.257,26.021,33.217,41.976c42,48,91.959,36.55,139,33
			c53-4,84-6,136.901-20.894c35.069-9.873,76.709-25.744,110.189-40.649c23.531-10.478,37.852-22.917,62-32
			c53.003-19.938,98.852-28.991,144.909-52.457c105.091-53.543,184.075-78.972,284.045-99.213
			c21.52-4.356,45.243-10.304,67.045-14.33c86.586-15.989,154.397-6.161,211.901,19.092
			c117.228,51.479,169.981,129.112,204.222,241.972c28.141,92.754-3,161.992-22.499,263.986
			c-5.384,28.164-32.353,88.715-38.999,115.495c-7.514,30.272-6.199,26.067-13.499,55.497
			c-4.566,18.411-18.028,83.018-29.999,170.991c-7.729,56.813-19.969,108.797-25.499,166.492
			c-4.167,43.483-14.895,112.198-19.499,206.99c-1.468,30.22-13.207,70.96-19.499,100.495c-5.288,24.822-8.774,42.137-17.999,65.996
			c-7.755,20.061-19.729,40.521-31.499,58.497c-20.448,31.233-43.649,54.063-70.497,79.496
			c-28.499,26.999-43.498,40.498-79.496,70.497c-43.144,35.954-101.579,52.471-155.734,65.589
			c-51.048,12.365-98.664,33.608-152.681,34.292c-41.759,0.529-83.544,1.221-125.448,1.177c-32.093-0.033-60.183-5.933-91.109-9.563
			c-61.563-7.226-125.809,3.681-186.3-8.521c-61.369-12.379-124.762-22.388-187.999-25.354
			c-62.051-2.908-113.504,3.572-149.177,57.875c-29.876,45.479-20.999,100.494,35.122,125.43
			c37.844,16.814,80.771,16.245,120.088,24.043c47.33,9.389,99.618,9.046,150.068,14.05c53.545,5.312,108.159,7.483,158.786,28.231
			c42.485,17.412,81.145,43.551,123.209,63.295c80.146,37.617,131.19,136.432,157.852,191.172
			c11.408,23.424,6.1,66.237,4.838,92.252c-1.843,38.062-10.5,59.996-25.499,91.496c-9.764,20.504-28.856,44.978-45.94,60.033
			c-20.673,18.222-46.362,31.508-69.221,46.679c-28.239,18.742-57.111,36.67-87.397,51.94
			c-62.126,31.324-122.354,35.596-190.688,38.914c-74.104,3.601-147.529,1.054-219.958,11.965
			c-24.041,3.623-48.904-1.729-67.928,15.974c-30.145,28.056-25.697,86.26-3.879,118.833c9.18,13.705,20.729,24.923,33.214,35.742
			c29.017,25.143,59.38,61.492,80.327,93.896c19.486,30.145,16.688,53.887,17.999,88.496c1.522,40.183-16.541,45.983-44.998,71.996
			c-16.957,15.498-18.44,56.09-19.499,77.996c-2,41.379,0.089,86.797-6,127.494c-6.146,41.076-10.321,75.813-16.499,115.494
			c-3.239,20.803-2.365,29.015-1.5,50.998c0,0.018,1.5,7.483,1.5,7.5c0.423,10.75-0.957,32.066,9,37.498
			c16.499,9,43.87-24.504,46.298-42.799c4.853-36.541,33.229-69.299,54.197-98.193c21.28-29.32,45.604-49.607,70.496-74.996
			c48.417-49.383,110.439-104.883,178.49-118.494c97.495-19.5,240.428,2.997,292.485,91.495c15,25.499,20.937,61.446,23.999,92.995
			c4.833,49.785-11.365,92.73-14.999,140.993c-2.073,27.526,9.806,73.179,48.733,52.446c23.498-12.513,35.043-40.535,50.262-61.446
			c22.137-30.42,37.294-68.149,56.997-100.495c27.246-44.727,54.385-82.361,80.996-127.493
			c31.735-53.821,76.827-109.999,115.493-158.992c22.86-28.965,48.524-64.181,71.998-92.995
			c16.625-20.411,36.184-41.137,53.996-59.997c25.5-26.999,75.719-62.567,110.996-101.995
			c50.998-56.997,3.013-133.617-44.998-191.99c-20.207-24.566-41.442-65.945-44.998-100.495
			c-6.371-61.888-0.062-114.337,17.998-173.991c9.039-29.857,19.533-52.848,33-80.996c7.485-15.646,18.349-32.512,28.498-46.498
			c13.293-18.32,34.975-49.93,50.998-65.996c31.004-31.09,51.978-48.32,88.496-73.497c75.007-51.712,149.438-78.192,239.656-88.263
			c52.376-5.847,103.893-5.592,156.073,1.728c35.649,5,63.492,20.265,97.063,31.644c20.352,6.897,40.147,13.291,60.939,20.672
			c19.148,6.797,37.98,11.928,58.055,17.795c39.426,11.524,90.855,16.186,132,13.992c36.019-1.92,73.43-8.398,109.021-13.881
			c52.438-8.078,108.368-7.983,158.848-23.869c20.676-6.506,39.129-15.357,57.002-27.514c31.312-21.295,36.151-51.425,36.928-87.139
			c1.361-62.653-67.636-133.15-70.84-231.381c-2.747-84.211,15.204-171.756,76.701-240.752
			c33.95-38.092,80.104-67.595,124.778-92.104c24.761-13.584,50.531-20.156,76.769-29.559c15.92-5.705,30.039-14.978,46.651-19.789
			c34.635-10.033,74.332-11.625,110.107-7.994c27.619,2.805,57.418,13.271,83.189,25.934c20.473,10.061,45.074,18.075,66.832,29.074
			c42.453,21.463,77.764,33.178,113.42,66.48c19.771,18.469,35.444,39.934,51.545,61.637c15.221,20.518,30.446,41.094,47.147,60.445
			c16.324,18.916,38.478,34.069,53.519,53.597c16.227,21.063,31.324,28,57.229,29.756c14.104,0.955,27.156,5.121,40.385,6.437
			c28.518,2.821,67.523-7.578,80.34-36.119c16.02-35.676-14.172-73.893-28.811-104.194c-17.633-36.506-36.701-72.743-51.752-111.153
			c-29.076-74.207-53.935-151.162-62.736-230.693c-3.477-31.393-10.91-64.708-8.271-96.027
			c3.109-36.916,12.767-72.963,20.017-109.186c16.226-81.055,40.104-161.672,78.981-234.859
			c17.752-33.418,48.765-59.558,72.986-88.133c47.992-56.617,106.963-104.612,171.135-141.785
			c59.854-34.67,142.068-73.668,213.432-68.752c105.474,7.267,184.168,76.334,239.47,160.598
			c18.44,28.1,32.187,61.188,45.201,91.918c31.478,74.32,32.024,160.21,27.778,239.008c-3.396,63.021-2.996,133.631,6.158,196.117
			c8.656,59.087,31.201,135.975,66.353,187.421c18.981,27.786,57.289,62.312,94.088,51.933
			c45.72-12.894,56.461-79.684,69.319-117.401c20.789-60.979,29.988-123.587,46.795-185.265
			c11.465-42.067,33.904-79.711,51.322-119.373c17.461-39.762,31.285-83.386,42.102-125.441
			c6.258-24.334,18.797-52.678,19.879-77.998C6005.791,5331.582,6002.086,5290.104,5969.566,5273.868z M4093.985,5414.895
			c-3.657,25.686-15.791,54.72-21.013,65.545c-12.81,26.564-26.504,56.213-43.888,80.013
			c-16.969,23.233-42.798,44.853-62.719,64.354c-23.731,23.234-49.039,48.617-76.761,67.092
			c-21.34,14.221-44.965,31.051-67.928,41.873c-18.713,8.819-49.041,20.319-64.136-0.797c-7.913-11.07-3.714-40.394-3.084-53.801
			c1.595-33.947,5.94-60.674,22.032-91.403c25.321-48.358,69.318-77.026,109.271-111.649
			c33.496-29.028,68.063-55.074,107.885-74.692c22.456-11.063,45.076-29.899,70.89-32.019
			C4092.867,5367.086,4097.625,5389.331,4093.985,5414.895z" color="15921648" style="fill:#f2f1f0;fill-opacity:1;stroke-width:10;stroke:rgb(0,0,0)"></path><path id="157960620" parent_id="157960617" order="1" structure_id="10557" d="
			M3965.68,2776.768c48.112,12.78,94.274,4.948,142.713-1.907c25.321-3.584,51.603-1.459,76.715-6.271
			c125.533-24.052,264.28-7.597,357.699,88.942c49.347,50.992,69.617,118.381,97.06,182.079
			c11.308,26.248,18.692,54.25,27.924,81.297c21.33,62.508,39.791,119.155,69.707,178.368
			c59.817,118.399,136.737,232.561,253.839,301.707c52.258,30.856,105.885,53.315,162.674,74.463
			c32.854,12.233,65.453,25.611,97.495,39.777c50.877,22.493,100.84,45.549,151.964,67.78
			c35.299,15.352,69.427,42.771,109.24,44.613c41.852,1.938,69.177-28.637,48.205-67.842
			c-22.193-41.491-66.795-73.788-105.479-99.024c-56.615-36.933-121.088-58.55-181.942-87.154
			c-44.987-21.146-87.528-48.252-132.761-67.301c-46.026-19.381-81.332-56.947-122.81-83.896
			c-58.794-38.198-118.06-75.618-160.94-132.284c-43.01-56.835-82.998-125.305-103.06-193.9
			c-11.591-39.638-15.651-85.332-10.118-126.4c9.967-73.963,25.053-140.97,84.227-191.4c23.092-19.681,49.988-34.377,73.578-53.44
			c14.023-11.333,37.776-20.813,44.469-39.988c7.199-20.63-3.479-50.503-18.729-65.146c-18.661-17.919-44.228-31.986-69.401-38.104
			c-28.951-7.035-58.498-2.592-87.713,0.04c-36.932,3.326-74.078-0.103-111.041,2.896c-27.967,2.268-55.074,13.063-82.693,14.333
			c-34.611,1.59-54.16-11.782-85.286-19.188c-35.729-8.5-74.16-6.417-110.483-11.355c-67.685-9.204-132.209-3.004-198.478,14.3
			c-38.01,9.925-69.408,24.749-103.754,43.8c-39.767,22.06-91.644,33.696-124.138,66.667
			C3920.047,2728.041,3912.408,2762.613,3965.68,2776.768z" color="15921648" style="fill:#f2f1f0;fill-opacity:1;stroke-width:10;stroke:rgb(0,0,0)"></path></g><g id="157960622" order="0" group_label_id="113753815" group_label="Atlas - Developing Human Gyri" sub_image_id="102339958"><path id="157960632" parent_id="157960622" order="0" structure_id="146034884" d="
			M4064.538,5369.409c-25.813,2.118-48.435,20.954-70.89,32.019c-39.82,19.617-74.389,45.664-107.885,74.691
			c-39.953,34.623-83.95,63.292-109.271,111.65c-16.092,30.729-20.438,57.455-22.032,91.402c-0.63,13.408-4.829,42.73,3.084,53.801
			c15.095,21.117,45.423,9.617,64.136,0.798c22.964-10.823,46.588-27.653,67.928-41.874c27.722-18.475,53.027-43.855,76.761-67.091
			c19.921-19.503,45.75-41.121,62.719-64.354c17.384-23.799,31.078-53.447,43.888-80.013c5.222-10.826,17.354-39.86,21.013-65.546
			C4097.625,5389.331,4092.867,5367.086,4064.538,5369.409z" color="15650616" style="fill:#eecf38;fill-opacity:1;stroke-width:10;stroke:rgb(0,0,0)"></path><path id="157960631" parent_id="157960622" order="1" structure_id="146034876" d="
			M2115.156,6976.465c1.26-26.016,6.57-68.829-4.838-92.253c-26.66-54.74-77.706-153.554-157.853-191.172
			c-42.063-19.743-80.724-45.883-123.209-63.295c-50.627-20.747-105.241-22.921-158.786-28.231
			c-50.449-5.004-102.737-4.662-150.067-14.049c-39.317-7.799-82.245-7.229-120.088-24.043
			c-56.12-24.936-64.998-79.951-35.122-125.431c35.673-54.302,87.125-60.783,149.176-57.874
			c63.238,2.966,126.63,12.975,187.999,25.354c60.491,12.201,124.737,1.297,186.3,8.521c30.928,3.631,59.018,9.529,91.11,9.562
			c41.904,0.045,83.688-0.646,125.448-1.176c54.016-0.685,101.633-21.928,152.68-34.293
			c54.156-13.117,112.591-29.635,155.734-65.588c1.241-1.035,2.451-2.045,3.645-3.041l-308.107-236.717
			c-0.636,1.312-1.986,2.123-3.786,1.883c-1.144-0.151-2.358-0.567-3.386-1.092c-3.738-1.903-7.728-3.097-11.367-5.242
			c-3.561-2.098-7.237-3.771-10.842-5.756c-3.32-1.828-6.674-3.758-10.244-5.062c-6.598-2.41-9.694-1.151-16.385-3.14
			c-5.274-1.565-12.096-3.02-17.334-4.666c-6.569-2.066-15.393-3.97-22-6c-15.623-4.806-29.461-7.293-44.666-13.334
			c-12.164-4.83-23.966-8.912-36-14c-12.688-5.362-22-8.666-36-14.666c-8.832-3.785-21.067-10.64-30-14
			c-29.362-11.045-57.111-23.135-87.985-30.965c-26.508-6.722-58.562-17.694-86.015-19.035c-19.868-0.972-37.192-0.664-57.992-1.653
			c-22.394-1.063-42.56-6.558-63.342-12.345c-25.18-7.01-48-11.334-74.849-19.625c-49.212-15.194-99.729-25.994-150.391-35.471
			c-35.957-6.727-69.339-13.54-105.271-16.878c-40.822-3.791-81.75-4.757-122.824-6.694c-31.046-1.465-60.403,0.002-91.334,0
			c-24.905-0.002-53.636-1.779-73.332,16c-16.395,14.797-24.105,39.904-32,59.334c-17.482,43.023-35.675,79.957-42.587,123.625
			c-11.002,69.508-0.079,149.709,5.921,218.375c6.479,74.168,17.507,144.89,28.161,218.182c2.888,19.863,5.414,40.116,9.3,59.736
			c7.667,38.724,18.18,77.053,29.782,114.551c10.083,32.586,22.406,65.848,38.127,95.982c14.911,28.582,28.834,69.671,53.296,90.882
			c28.166,24.424,53.265,47.896,89.334,60c36.93,12.394,85.062,7.472,123.332,9.333c44.931,2.188,84.308,12.469,129.334,14
			c98,3.333,181.939,12.001,275.332,12c6.935,0,23.733,0.734,30.666,0.667c16.15-0.157,32.221,1.653,48.334,2.403
			c14.231,0.664,28.498-1.125,42.682-0.254c8.195,0.502,16.443-0.178,24.645-0.263c4.934-0.052,22.758-3.431,21.659,5.845
			c-0.157,1.326-0.568,2.519-1.176,3.601l264.667,102.627C2105.806,7033.389,2113.439,7011.922,2115.156,6976.465z" color="12100205" style="fill:#b8a26d;fill-opacity:1;stroke-width:10;stroke:rgb(0,0,0)"></path><path id="157960624" parent_id="157960622" order="2" structure_id="12125" d="
			M4911.395,5272.559c-24.223,28.574-55.233,54.713-72.985,88.133c-38.877,73.188-62.758,153.805-78.981,234.858
			c-7.25,36.224-16.906,72.271-20.017,109.185c-2.64,31.32,4.795,64.638,8.271,96.028c8.804,79.532,33.66,156.485,62.736,230.694
			c15.051,38.41,34.119,74.646,51.752,111.152c14.639,30.303,44.83,68.52,28.811,104.195c-12.815,28.539-51.821,38.939-80.34,36.117
			c-13.229-1.313-26.28-5.479-40.385-6.436c-25.903-1.756-41.002-8.691-57.229-29.756c-15.041-19.525-37.193-34.682-53.518-53.596
			c-16.701-19.354-31.929-39.93-47.148-60.446c-16.1-21.703-31.773-43.168-51.545-61.636c-35.656-33.305-70.967-45.02-113.42-66.481
			c-21.758-10.999-46.359-19.015-66.832-29.074c-25.771-12.663-55.57-23.129-83.189-25.933
			c-35.774-3.633-75.473-2.039-110.106,7.994c-16.612,4.812-30.731,14.084-46.651,19.787c-5.203,1.864-10.388,3.617-15.549,5.336
			l87.651,242.334c18.463,3.278,41.041,64.799,46.485,74.645c19.652,35.54,43.56,72.844,62.629,108.675
			c10.681,20.067,22.125,44.524,32.668,64.666c19.502,37.254,38.115,74.347,55.332,112.667c7.056,15.703,15.612,27.346,24.668,42
			c19.729,31.911,48.94,54.677,71.485,85.258c22.317,30.273,66.339,48.229,102.039,55.359
			c53.962,10.779,106.985,10.121,161.808,7.383c38.062-1.901,73.367-10.41,110.31-19.824c36.265-9.242,72.217-21.377,107.022-34.844
			c32.633-12.623,61.013-30.658,93.008-44.863c12.226-5.428,27.595-12.217,38.326-20.469c8.229-6.328,14.135-14.644,22.092-21.16
			c16.688-13.668,34.853-30.545,49.908-46.174c22.646-23.504,41.814-45.558,62-70.666c54.666-68,88-152,57.646-268.197
			c-13.974-53.486-31.922-105.959-54.144-156.531c-12.193-27.75-25.858-50.609-38.836-77.938
			c-17.453-36.752-41.727-76.728-50.293-116.525c-9.715-45.121,0.819-85.725-17.041-134.809
			c-9.953-27.353-12.744-57.092-17.256-86.072c-7.809-50.146-24.088-98.791-34.111-148.527c-4.698-23.309-14-46.699-0.13-68.408
			c2.957-4.623,7.81-9.756,13.521-13.896l-49.5-303.832C5006.012,5178.2,4954.311,5221.928,4911.395,5272.559z" color="11243864" style="fill:#ab9158;fill-opacity:1;stroke-width:10;stroke:rgb(0,0,0)"></path><path id="157960627" parent_id="157960622" order="3" structure_id="12123" d="
			M4063.848,6006.907c-44.674,24.509-90.829,54.013-124.779,92.103c-61.496,68.996-79.447,156.541-76.7,240.752
			c3.204,98.23,72.2,168.729,70.84,231.381c-0.776,35.715-5.617,65.845-36.928,87.14c-17.873,12.155-36.326,21.007-57.002,27.513
			c-50.479,15.887-106.408,15.793-158.849,23.869c-35.59,5.482-73.002,11.961-109.02,13.881c-41.145,2.193-92.574-2.467-132-13.99
			c-20.075-5.869-38.907-11-58.055-17.797c-20.792-7.379-40.588-13.772-60.939-20.67c-33.572-11.381-61.415-26.645-97.063-31.645
			c-52.183-7.318-103.697-7.573-156.073-1.729c-90.219,10.07-164.65,36.551-239.657,88.264c-6.216,4.286-11.975,8.339-17.417,12.271
			l160.542,181.711c20.583,0.156,60.146,57.697,63.683,61.571c25.687,28.151,59.752,50.657,83.535,80.247
			c28.822,35.859,58.057,69.716,84.447,107.73c12.391,17.85,26.102,35.201,36.947,53.735c11.72,20.03,34.908,47.017,58.475,53.091
			c21.978,5.665,61.822-10.339,89.476-15.357c36.889-6.693,65.562-20.832,100.664-33.578
			c35.462-12.875,69.919-28.166,106.112-39.041c15.56-4.674,30.732-8.696,46.509-12.424
			c50.975-12.045,100.221-24.385,151.399-36.064c31.107-7.1,61.658-13.41,92.323-19.273c73.479-14.049,150.628-39.338,219.64-68.347
			c98.771-41.519,208.588-102.228,271.211-191.248c17.135-24.358,33.723-50.677,42-79.333c4.867-16.844,6.322-33.509,10-50.667
			c10.571-49.397,5.334-90.666-27.479-148.673c-20.758-36.695-36.084-74.536-56.68-111.382
			c-12.848-22.983-21.763-48.285-34.627-71.438c-11.854-21.332-23.92-40.485-37.881-60.508
			c-13.287-19.051-15.985-38.537-32.967-56.758c-7.696-8.261-46.203-43.082-31.994-55.131c2.283-1.938,4.693-2.537,7.179-2.097
			l-87.651-242.334C4104.198,5989.632,4083.697,5996.018,4063.848,6006.907z" color="13285249" style="fill:#cab781;fill-opacity:1;stroke-width:10;stroke:rgb(0,0,0)"></path><path id="157960628" parent_id="157960622" order="4" structure_id="12122" d="
			M2739.126,6799.475c-16.022,16.066-37.703,47.676-50.998,65.996c-10.149,13.986-21.012,30.852-28.498,46.498
			c-13.466,28.149-23.96,51.139-32.999,80.996c-18.061,59.654-24.369,112.104-17.999,173.992
			c3.556,34.549,24.792,75.928,44.998,100.494c48.011,58.373,95.996,134.994,44.998,191.99
			c-35.277,39.428-85.496,74.996-110.995,101.996c-17.812,18.859-37.371,39.586-53.997,59.996
			c-23.472,28.815-49.136,64.03-71.997,92.996c-38.666,48.992-83.759,105.17-115.494,158.992
			c-26.611,45.131-53.75,82.767-80.996,127.492c-19.703,32.346-34.859,70.076-56.997,100.496
			c-15.22,20.91-26.764,48.935-50.261,61.446c-38.928,20.731-50.807-24.921-48.734-52.446c3.635-48.263,19.832-91.209,15-140.994
			c-3.063-31.549-9-67.496-24-92.994c-28.285-48.086-83.4-76.68-143.478-89.645l-142.729,296.68
			c2.543,0.344,2.645,4.504,1.772,8.019c-1.239,4.996-2.856,9.526-5.154,14.133c-1.86,3.729-3.963,7.356-5.67,11.168
			c-4.532,10.112-9.483,20.224-13.021,30.742c-0.691,2.056-1.042,4.228-1.766,6.282c-0.777,2.21-1.414,4.453-2.134,6.682
			c-1.933,5.98-3.289,12.22-4.635,18.381c-1.336,6.115-3.327,12.043-4.867,18.105c-1.728,6.798-2.813,13.821-3.951,20.722
			c-0.413,2.505-1.082,4.982-1.306,7.514c-0.962,10.86-2.016,22.156-4.844,32.806c-3.163,11.907-5.74,24.044-7.385,36.248
			c-3.317,24.638-7.993,48.816-12.609,73.712c-2.854,15.381-5.194,30.818-8.394,46.027c-1.208,5.746-1.647,11.646-2.491,17.656
			c-1.989,14.189-3.543,29.088-3.505,43.617c0.061,22.804,2.015,46.358,13.41,66.612c12.054,21.422,32.513,35.871,55.183,44.406
			c13.205,4.973,27.331,11.678,41.25,14.047c14.364,2.441,29.924,1.098,44.508,0.438c10.754-0.486,21.423-1.801,31.897-4.332
			c12.333-2.984,24.888-6.012,37.595-7.441c12.54-1.408,23.567-4.031,36-6.664c36.418-7.717,72.904-19.594,108.658-29.957
			c49.789-14.434,93.661-49.959,142.675-68.711c49.659-18.998,98.45-46.459,143.333-76c27.233-17.925,48.047-30.409,71.5-52.753
			c24.379-23.228,51.076-44.049,73.728-69.064c28.563-31.546,61.938-62.494,91.439-93.517
			c73.668-77.464,128.912-162.663,197.581-244.247c25.779-30.628,52.22-59.874,77.753-91.086c18.841-23.03,29.333-42,50.667-72
			c32.131-45.185,66.402-83.999,98-129.332c8.294-11.899,16.017-29.03,24.48-40.992c16.731-23.644,41.746-44.599,59.52-67.675
			c14.814-19.236,27.961-37.495,40.517-57.991c18.279-29.84,41.259-57.467,59.484-87.342c9.836-16.124,15.11-35.101,20-53.333
			c13.506-50.363,8-68-28.05-130.872c-23.786-41.483-55.989-79.954-85.574-117.62c-43.36-55.205-81.043-78.173-132.291-113.979
			c-0.01-0.008-0.019-0.016-0.027-0.022c-17.344-13.985-66.006-37.511-43.393-62.839c1.907-2.137,4.254-3.062,6.914-3.042
			l-160.541-181.712C2783.681,6757.419,2764.854,6773.678,2739.126,6799.475z" color="13285249" style="fill:#cab781;fill-opacity:1;stroke-width:10;stroke:rgb(0,0,0)"></path><path id="157960629" parent_id="157960622" order="5" structure_id="12121" d="
			M1807.672,7784.926c-68.051,13.611-130.075,69.111-178.491,118.494c-24.892,25.389-49.216,45.676-70.495,74.996
			c-20.97,28.895-49.347,61.652-54.197,98.193c-2.428,18.295-29.799,51.799-46.298,42.799c-9.956-5.432-8.577-26.748-9-37.498
			c0-0.017-1.5-7.482-1.5-7.5c-0.865-21.983-1.739-30.195,1.5-50.998c6.178-39.682,10.354-74.418,16.499-115.494
			c6.089-40.696,4-86.115,6-127.494c1.059-21.905,2.542-62.498,19.499-77.996c28.457-26.013,46.521-31.813,44.998-71.996
			c-1.312-34.609,1.486-58.353-17.999-88.496c-20.946-32.403-51.312-68.754-80.327-93.896
			c-12.486-10.818-24.035-22.037-33.214-35.742c-21.818-32.573-26.267-90.777,3.879-118.833
			c19.022-17.703,43.888-12.351,67.928-15.974c72.427-10.912,145.854-8.365,219.958-11.965
			c68.334-3.318,128.562-7.59,190.688-38.914c30.286-15.271,59.158-33.199,87.397-51.94c22.858-15.17,48.546-28.457,69.22-46.679
			c17.084-15.057,36.178-39.529,45.941-60.033c1.025-2.154,2.019-4.262,2.984-6.334L1827.975,6959
			c-6.25,11.152-34.347,9.956-43.267,9.975c-23.881,0.047-47.453-4.389-71.187-6.399c-13.296-1.127-26.521-0.938-39.729-2.556
			c-31.581-3.861-63.049,1.318-94.268-3.043c-26.682-3.729-53.339-4.979-80.423-4.977c-29.183,0.002-59.007-2.753-87.961,0.006
			c-14.634,1.395-22,0.537-36.641,1.662c-14.573,1.12-34.902,3.02-49.333,3.333c-21.56,0.467-45.78,1.3-67.333,0.667
			c-12.189-0.357-35.146-0.871-47.333-1.334c-21.469-0.814-36.458-0.956-58-2c-18.306-0.889-35.128-1.352-53.333-1.333
			c-30.129,0.03-55.046,15.385-78,34c-15.135,12.272-39.491,20.362-43.333,40c-6,30.667-11.56,66.858-13.308,100.149
			c-0.479,9.117,1.046,17.701,0.717,26.84c-0.383,10.639-1.742,21.229-1.742,31.885c0.001,12.806-0.001,25.61-0.001,38.416
			c0.001,30.748,1.002,61.679,2.495,92.33c1.286,26.405,4.64,52.754,6.038,79.397c1.528,29.14,7.584,58.535,13.461,87.492
			c5.83,28.72,8.378,56.794,14.068,85.649c16.085,81.695,15.34,165.875,32.221,247.666c9.792,47.449,21.639,94.438,32.781,141.578
			c26.386,111.633,55.456,222.068,77.926,334.144c11.769,58.693,29.276,114.131,50.01,177.118
			c16.069,48.814,64.287,74.592,109.472,95.338c70.773,32.492,146.514,35.369,220.639,12.781
			c20.179-6.148,40.819-12.434,60.552-20.119c17.25-6.721,34.778-15.338,50.823-24.502c17.183-9.811,24.509-25.762,34.434-41.771
			c11.938-19.255,20.891-40.144,32.029-59.841c20.057-35.47,28.704-73.573,36.104-113.007c4.356-23.214,9.761-45.151,14.392-68.046
			c1.839-9.092,3.928-18.133,6.247-27.115c4.125-15.975,8.981-31.757,14.453-47.321c4.799-13.653,10.674-26.92,15.369-40.605
			c4.146-12.082,7.525-24.496,13.164-36.006c2.375-4.85,5.363-11.609,10.068-14.713c1.59-1.048,2.802-1.404,3.706-1.282
			l142.729-296.679C1906.188,7775.881,1852.193,7776.021,1807.672,7784.926z" color="12100205" style="fill:#b8a26d;fill-opacity:1;stroke-width:10;stroke:rgb(0,0,0)"></path><path id="157960625" parent_id="157960622" order="6" structure_id="12116" d="
			M6530.498,5333.012c-3.393-33.604-4.427-65.687-15.333-98c-11.633-34.469-27.575-71.414-42-105.332
			c-24.667-58-72.667-126.666-123.333-178.666c-28.494-29.246-52-60-80-91.334c-25.77-28.836-43.67-69.095-64.618-101.74
			c-10.013-15.604-22.172-29.599-32.049-45.594c-11.399-18.461-22.241-44.684-33.333-63.332
			c-20.802-34.978-38.018-65.236-60.667-98.668c-20.731-30.601-40.907-60.957-68.666-86c-61.333-55.332-104-97.332-185.333-140.666
			c-18.898-10.068-47.085-12.914-67.333-18c-19.021-4.776-29.845-8.795-48.291-15.418c-35.045-12.586-69.638-26.457-103.644-41.625
			c-10.223-4.56-19.039-15.849-29.586-19.742c-11.228-4.144-22.763-7.463-34.396-10.289c-13.353-3.242-26.835-5.918-40.381-8.22
			c-14.733-2.504-29.544-5.581-44.384-7.358c-15.398-1.844-30.83-3.397-46.283-4.72c-15.463-1.321-30.943-2.413-46.436-3.345
			c-14.92-0.896-29.852-1.611-44.785-2.195c-13.67-0.534-27.342-0.945-41.018-1.266c-11.779-0.276-23.561-0.461-35.342-0.578
			c-9.29-0.092-18.58,0.867-27.869,0.877c-21.516,0.026-42.936,7.004-63.665,10.614c-2.667,0.464-5.327,0.97-7.978,1.524
			c-2.627,0.549-5.242,1.151-7.845,1.812c-2.599,0.66-5.179,1.385-7.737,2.18c-2.574,0.801-5.125,1.676-7.645,2.635
			c-0.605,0.231-1.21,0.467-1.812,0.707c-28.287,11.299-52.383,29.555-76.017,48.402c-18.142,14.467-35.149,29.089-49.538,46.92
			c-45.482,56.373-63.988,142.961-137.448,169.456c-35.608,12.845-72.188,31.931-101.015,56.626
			c-44.91,38.48-96.777,67.747-148.697,95.57c-22.586,12.104-45.872,29.58-69.623,37.926c-26.161,9.191-55.49,9.371-82.868,9.397
			c-27.354,0.022-61.715,0.508-87.705-5.89c-19.435-4.785-39.146-11.729-57.753-19.683L4295,4647.5
			c-2.332-0.592-4.545-1.882-6.744-2.997c-14.682-7.442-29.156-15.26-43.936-22.438c-17.856-8.674-36.312-18.168-52.586-29.674
			c-9.572-6.77-18.037-14.863-27.737-21.502c-19.965-13.664-41.116-26.629-62.293-38.39c-19.56-10.862-39.063-21.774-58.483-32.878
			c-6.935-3.965-14.571-5.249-21.73-8.814c-9.448-4.705-19.03-9.104-28.928-12.789c-14.892-5.545-29.188-9.115-44.601-12.403
			c-12.875-2.747-26.936-4.918-39.985-5.61c-7.196-0.383-14.301-1.028-21.478-1.014c-37.315,0.082-74.917,1.07-112.379,4.525
			c-35.301,3.256-68.437,21.859-97.707,40.724c-23.806,15.342-45.298,33.918-66.621,52.468
			c-20.116,17.499-40.565,34.203-59.743,52.646c-4.798,4.615-9.754,8.996-14.851,13.399c-2.943,2.543-6.948,7.296-10.647,8.745
			c-15.758,6.173-4.76-14.791-1.699-19.452c7.807-11.892,17.649-17.976,27.735-27.967c9.716-9.625,30.743-24.96,40.498-34.499
			c41.966-41.035,85.55-67.673,139.394-91.023c37.117-16.099,75.447-19.481,115.516-21.481c45.078-2.25,84.844,5.826,129.017,12.015
			c20.838,2.918,42.036,8.754,61.846,15.83c18.524,6.617,38.711,10.43,56.634,19.018c25.43,12.186,49.746,27.784,74.441,41.463
			c26.303,14.568,54.764,26.163,81.616,39.709c30.067,15.169,63.188,24.988,96.788,27.782c34.854,2.897,62.085-8.302,95.146-13.655
			c28.598-4.633,56.998-11.668,84.986-20.076c54.168-16.275,116.727-38.195,161.062-74.073
			c15.703-12.706,27.203-26.284,42.756-39.019c33.197-27.176,63.528-58.063,93.33-88.858c30.461-31.478,63.392-60.663,96.715-89.208
			c28.979-24.82,46.305-54.691,50.686-93.4c5.46-48.246-40.566-70.533-76.533-94.114c-24.148-15.833-49.803-30.407-73.139-46.847
			c-25.065-17.66-46.785-40.234-71.188-58.852c-28.629-21.84-59.157-42.128-81.774-70.623
			c-21.916-27.612-50.176-47.546-74.453-72.491c-23-23.632-37.922-56.268-49.934-86.505c-12.177-30.656-28.271-56.111-44.562-84.673
			c-27.078-47.468-47.381-97.918-75.519-145.445c-20.606-34.809-34.054-73.354-56.888-106.903
			c-11.312-16.621-24.881-31.636-36.235-48.252c-21.034-30.78-45.101-59.684-78.283-77.879
			c-28.946-15.873-72.338-15.221-104.163-11.891c-71.847,7.521-135.482,36.918-204.779,54.438
			c-20.999,5.309-41.73,12.246-62.332,18.832c-36.863,11.785-77.287,18.057-114.764,26.847
			c-46.075,10.807-89.896,26.68-136.39,34.987c-33.034,5.902-63.522,10.165-97.796,11.913c-30.314,1.546-60.942-0.935-91.292-0.722
			c-26.954,0.188-54.505-0.795-80.572-8.598c-53.113-15.898-105.212-32.527-157.001-52.365
			c-40.547-15.53-82.604-27.125-114.502-57.795c-31.847-30.621-67.57-61.366-114.298-65.688
			c-17.765-1.643-24.786,7.301-38.062,15.494c-8.111,5.007-23.674,11.744-30.361,1.066c-0.268-0.427-0.487-0.865-0.685-1.309
			L2624.326,3383.4c34.521,51.564,77.651,97.915,121.785,140.604c29.598,28.627,63.051,52.709,93.435,80.041
			c35.497,31.935,81.308,59.164,120.258,86.584c49.026,34.514,115.415,57.439,172.165,75.36
			c29.13,9.199,62.325,15.431,93.135,20.132c38.438,5.864,72.682,8.547,111.176,14.391c25.192,3.824,45.888,6.462,71.814,5.108
			c18.236-0.952,37.917,3.188,56.216,1.925c71.277-4.925,110.275-6.425,182.271-10.924c58.979-3.686,124.269-13.516,182.991-19.499
			c20.412-2.08,46.984-6.354,67.496-9c25.99-3.353,56.603-8.934,82.021-1.065c24.234,7.5,46.764,30.713,61.928,50.093
			c27.369,34.981,47.832,74.724,69.352,113.394c12.308,22.116,19.642,46.302,28.242,69.825c10.441,28.55,5.361,61.75,19.855,88.94
			c12.713,23.848,61.05,46.271,58.085,76.294c-1.851,18.709-12.578,18.717-28.498,19.499c-20.24,0.993-44.38,0.859-64.079-3.122
			c-47.391-9.58-82.799-45.185-129.412-59.875c-42.482-13.39-77.066-23.974-121.493-19.499
			c-80.35,8.094-190.38,35.461-256.487,82.496c-31.896,22.695-57.838,49.062-86.996,74.996
			c-94.387,83.95-178.207,202.535-218.988,322.484c-24.096,70.873-19.014,144.838-12,217.487
			c6.104,63.265,22.586,104.876,72.318,148.96c33.906,30.057,62.459,52.2,109.525,54.464c28.654,1.379,59.447,4.388,87.955-0.013
			c33.34-5.146,64.268-21.309,91.684-42.92c23.437-18.476,39.568-42.678,60.461-63.662c19.609-19.695,49.756-40.801,71.532-57.832
			c27.525-21.525,39.548-17.533,66.854,1.08c30.692,20.924,65.504,36.465,97.508,55.406
			c52.334,30.977,101.953,53.364,156.565,78.435c33.982,15.599,65.326,30.496,102.595,35.915
			c35.498,5.162,70.426-0.669,106.188,1.083c40.345,1.976,79.885,5.8,120.416,4.53c16.998-0.531,31.31,2.545,47.668,3.737
			c26.769,1.953,54.037-9.035,80.541-11.712c40.574-4.098,83.32-14.359,122.002-26.964c83.855-27.326,162.711-62.255,242.638-99.034
			c55.629-25.598,109.502-53.7,167.281-73.914c35.388-12.38,73.127-24.145,109-32.096c49.14-10.89,104.021-21.78,154.063-23.99
			c69.895-3.088,155.762,38.349,208.783,81.709c62.846,51.395,114.596,120.104,153.584,190.832
			c37.276,67.621,74.785,142.748,134.631,193.531c33.27,28.23,70.121,37.755,107.176,56.252
			c32.52,16.234,36.225,57.714,34.858,89.666c-1.082,25.32-13.621,53.664-19.879,77.998
			c-10.815,42.057-24.642,85.682-42.103,125.441c-17.418,39.662-39.856,77.306-51.321,119.373
			c-16.808,61.678-26.006,124.285-46.795,185.265c-12.858,37.72-23.603,104.509-69.319,117.401
			c-36.799,10.379-75.105-24.146-94.088-51.933c-35.15-51.446-57.695-128.334-66.353-187.421
			c-9.153-62.486-9.556-133.098-6.158-196.117c4.246-78.798,3.696-164.688-27.778-239.008c-13.017-30.73-26.76-63.818-45.201-91.918
			c-55.301-84.264-133.996-153.331-239.47-160.598c-71.362-4.916-153.578,34.082-213.433,68.752
			c-6.787,3.933-13.512,7.992-20.174,12.162l49.5,303.832c6.166-4.467,13.334-7.772,20.213-8.014
			c5.521-0.193,11.398,6.327,11.222,11.848c-0.554,17.078-14.043,39.812-18.519,52.916c-6.336,18.554-5.246,37.545-5.262,57.015
			c-0.027,32.274,7.574,60.683,14.936,91.481c7,29.291,16.285,57.222,24.721,85.658c8.402,28.324,18.667,54.666,23.334,82
			c4.229,24.771,19.945,36.104,28,60c7.621,22.61,17.755,64.619,24.666,87.334c7.865,25.851,10.585,45.147,18,71.332
			c15.596,55.066,35.124,104.666,57.334,157.334c23.333,55.334,22.82,98.804,28.986,147.1c3.285,15.008,7.451,30.635,9.68,36.234
			c10.018,25.172,13.568,47.842,29.334,69.332c49.941,68.084,129.368,114.82,209.372,136.629
			c31.815,8.674,67.149,11.385,99.921,15.26c38.361,4.535,77.164,3.117,115.65,1.244c41.396-2.016,86.207-16.225,122.389-35.795
			c44.257-23.939,85.618-44.627,130-82.668c32.667-28,78.529-61.625,107.803-102.313c33.5-46.563,63.205-95.039,85.53-147.687
			c11.946-28.17,26.646-56.612,38.667-84.666c8-18.666,16.943-37.297,25.236-53.836c8.484-16.926,24.332-45.474,40.098-83.496
			c22.666-54.666,43.104-102.762,61.333-162c10.667-34.666,31.882-68.86,46.667-110c4.54-12.633,13.73-27.988,16.666-41.334
			c7.333-33.332,20.782-61.307,25.334-81.332c3.334-14.668,1.003-31.022,19.333-90c15.333-49.334,12.151-62.758,9.999-96.668
			C6529.831,5387.68,6533.6,5363.723,6530.498,5333.012z" color="13939253" style="fill:#d4b235;fill-opacity:1;stroke-width:10;stroke:rgb(0,0,0)"></path><path id="157960630" parent_id="157960622" order="7" structure_id="12116" d="
			M6222.415,3894.5c-1.358-28.319-4.302-60.759-13.541-87.632c-8.979-26.119-21.073-51.019-30.913-76.804
			c-9.466-24.805-17.586-50.457-28.626-74.728c-8.448-18.572-18.112-35.981-26.019-54.677
			c-7.778-18.391-16.615-36.182-25.506-53.999c-4.646-9.311-9.219-18.675-14.648-27.658c-5.45-9.015-9.861-18.478-15.02-27.438
			c-17.054-29.627-33.455-59.631-51.146-88.888c-9.343-15.45-17.48-29.702-29.457-43.317
			c-10.798-12.277-22.792-24.152-34.557-35.532c-14.313-13.847-27.615-28.747-42.475-42.108
			c-13.654-12.277-27.928-23.593-41.66-35.515c-56.496-49.049-101.837-82.592-176.699-95.522c-4.611-0.798-9.134-1.555-13.682-2.744
			c-25.242-6.604-51.41-9.299-77.15-14.587c-32.755-6.73-64.82-15.855-97.784-21.368c-23.091-3.861-46.868-6.141-69.515-10.501
			c-11.49-2.212-23.336-4.312-35.037-5.628c-12.891-1.45-25.793-4.21-38.602-5.917c-56.6-7.547-113.889-9.503-170.521-17.293
			c-9.388-1.291-18.679-3.165-27.926-5.26l-42.494-11.177c-9.496-2.377-18.98-4.801-28.453-7.273
			c-6.816-1.78-13.715-3.248-20.482-5.215c-5.57-1.619-11.001-3.649-16.322-5.94c-3.195-1.376-6.062-2.225-7.228-5.784
			c-4.177-12.767,18.493-5.791,23.563-5.261c45.898,4.81,90.256,15.847,136.26,18.595c34.875,2.084,70.043,1.216,104.623-3.91
			c65.775-9.752,130.271-35.719,175.832-85.444c27.666-30.194,46.566-67.134,57.562-106.448
			c21.882-78.252,8.634-148.25-11.351-225.523c-28.613-110.648-81.888-207.477-152.379-297.824
			c-26.394-33.827-56.144-57.284-86.42-86.9c-38.906-38.059-80.867-81.766-133.189-101c-16.568-6.09-30.844-16.427-47.805-21.884
			c-52.924-17.028-109.254-29.319-164.037-38.493c-30.133-5.047-60.746-5.004-91.188-6.193c-28.906-1.129-58.462-8.506-87.04-13.122
			c-16.521-2.669-33.155-7.623-49.892-8.572c-15.742-0.894-32.027-0.396-47.822-1.983c-12.188-1.228-24.818-2.889-37.512-3.989
			c-28.111-2.438-53.787-0.356-81.892-3.038c-42.681-4.072-85.185-9.991-129.269-9.999c-18.447-0.003-36.604-0.906-55.004,0.011
			c-59.207,2.952-120.362,1.319-177.506,19.993c-48.023,15.694-88.229,43.263-126.982,74.728
			c-16.831,13.664-36.188,26.027-51.972,40.537c-29.035,26.691-58.927,51.735-89.986,76.008
			c-9.194,7.185-19.047,14.394-28.249,21.478c-37.779,29.082-76.729,54.327-114.379,83.22c-18.9,14.502-39.072,27.104-57.159,42.282
			c-61.85,51.904-127.556,98.838-194.114,145.456c-34.485,24.153-69.139,48.066-103.83,71.92
			c-30.332,20.854-59.98,44.102-90.102,65.809c-30.878,22.252-63.518,41.231-95.652,61.533
			c-62.37,39.399-122.738,82.6-176.73,133.029c-22.357,20.883-44.416,38.453-62.529,63.305
			c-17.04,23.377-31.347,48.887-39.037,76.923c-6.764,24.659-9.523,50.106-9.541,75.639c-0.025,37.688,5.429,74.336,28.383,105.318
			c20.445,27.596,48.813,48.122,75.945,68.618c9.273,7.008,18.916,11.952,28.458,18.807c15.328,11.011,30.598,21.831,45.483,33.391
			c15.211,11.813,30.741,18.653,48.002,27.004c40.551,19.62,87.078,32.932,132.096,39.147c53.604,7.4,104.031,12.942,158.613,10.496
			c41.48-1.86,86.205-1.393,125.607-12.776c28.624-8.27,57.678-14.958,86.246-23.289c35.654-10.396,71.98-20.714,107.033-32.64
			c40.518-13.785,80.899-27.962,121.273-42.162c20.566-7.233,41.128-14.478,61.708-21.671c17.201-6.013,32.097-14.6,49.839-19.375
			c21.907-5.896,44.312-9.658,66.361-14.952c30.162-7.241,59.834-18.853,89.221-29.78c21.301-7.92,42.096-20.925,65.619-19.822
			c24.812,1.162,34.112,34.588,45.582,51.826c15.301,22.996,30.416,45.783,48.553,67.248c13.316,15.762,29.791,38.228,37.057,57.637
			c20.263,54.125,52.224,100.978,78.49,152.132c27.91,54.354,52.021,110.531,77.117,166.208
			c12.959,28.753,26.769,57.311,44.17,83.682c6.947,10.529,14.521,20.078,23.653,28.758c9.349,8.884,21.452,14.433,30.485,23.582
			c10.567,10.701,15.256,22.633,29.121,29.48c17.601,8.691,35.056,19.372,51.805,30.225c42.551,27.568,87.779,50.451,131.789,75.993
			c30.547,17.729,59.35,35.675,88.33,54.912c30.391,20.173,60.4,40.931,89.736,62.609c12.394,9.157,23.322,20.127,35.94,28.821
			c12.147,8.373,25.655,14.574,37.571,23.311c19.186,14.064,36.104,33.744,52.229,51.375c12.978,14.189,27.515,28.035,47.378,30.436
			c11.124,1.345,22.816,0.353,34.035,0.375c42.857,0.088,85.73,1.156,128.531,3.465c20.971,1.131,41.926,2.553,62.844,4.406
			c18.291,1.621,36.554,3.566,54.756,5.986c15.696,2.088,31.353,4.547,46.895,7.582c13.012,2.541,25.958,5.479,38.706,9.125
			c23.312,6.666,47.412,11.922,71.584,15.461c4.174,0.611,8.351,1.172,12.522,1.679c26.615,3.233,52.168,6.202,78.554,8.509
			c17.731,1.551,35.028,5.744,52.771,6.895c18.176,1.18,36.367-1.492,54.455-2.847c25.635-1.919,51.271-4.302,76.646-8.487
			c87.462-14.422,177.246-51.088,236.588-119.602c14.692-16.961,27.56-35.826,38.869-55.023
			c11.093-18.826,21.237-37.221,27.896-58.104c4.875-15.296,8.524-30.977,11.013-46.836
			C6221.219,3938.109,6223.479,3916.686,6222.415,3894.5z M5512.708,3827.616c-39.813-1.845-73.94-29.263-109.24-44.613
			c-51.124-22.231-101.087-45.288-151.964-67.78c-32.042-14.166-64.641-27.544-97.495-39.777
			c-56.789-21.147-110.416-43.606-162.674-74.463c-117.101-69.146-194.021-183.308-253.839-301.707
			c-29.916-59.213-48.377-115.86-69.707-178.368c-9.23-27.046-16.617-55.05-27.924-81.298
			c-27.441-63.697-47.713-131.086-97.059-182.078c-93.42-96.539-232.166-112.994-357.701-88.942
			c-25.111,4.812-51.393,2.687-76.713,6.271c-48.438,6.855-94.602,14.688-142.713,1.907c-53.271-14.153-45.634-48.726-11.319-83.542
			c32.495-32.971,84.371-44.607,124.138-66.667c34.346-19.051,65.744-33.875,103.754-43.8
			c66.268-17.304,130.793-23.504,198.479-14.3c36.322,4.938,74.754,2.855,110.482,11.355c31.126,7.405,50.675,20.777,85.286,19.188
			c27.62-1.27,54.728-12.065,82.692-14.333c36.965-2.997,74.11,0.432,111.043-2.896c29.215-2.632,58.761-7.075,87.711-0.04
			c25.176,6.118,50.742,20.186,69.402,38.104c15.251,14.644,25.93,44.517,18.729,65.146c-6.69,19.175-30.443,28.655-44.467,39.988
			c-23.59,19.063-50.486,33.76-73.58,53.44c-59.172,50.432-74.258,117.438-84.226,191.4c-5.533,41.069-1.474,86.764,10.118,126.4
			c20.061,68.597,60.05,137.065,103.059,193.9c42.883,56.666,102.147,94.086,160.941,132.284
			c41.479,26.946,76.782,64.515,122.809,83.896c45.232,19.049,87.773,46.155,132.762,67.301
			c60.855,28.604,125.328,50.223,181.943,87.154c38.683,25.236,83.283,57.533,105.478,99.024
			C5581.885,3798.979,5554.559,3829.554,5512.708,3827.616z" color="13939253" style="fill:#d4b235;fill-opacity:1;stroke-width:10;stroke:rgb(0,0,0)"></path><path id="157960626" parent_id="157960622" order="8" structure_id="12115" d="
			M2926.53,3189.062c5.084-25.498,3.791-53.014,7.688-78.654c4.094-26.924,10.94-52.926,14.988-79.496
			c3.566-23.413,16.068-49.57,11.902-73.546c-1.735-9.982-7.912-18.407-13.497-26.948c-12.156-18.59-46.474-51.732-30.55-75.98
			c10.202-15.534,38.261-16.973,54.56-20.729c15.599-3.595,27.179-14.382,39.467-23.85c11.681-9,22.8-11.851,36.007-18.15
			c54.815-26.146,109.168-53.249,163.338-80.703c46.824-23.73,91.448-53.915,136.161-82.453
			c29.095-18.57,61.484-31.53,87.888-53.784c34.125-28.761,73.241-50.8,109.771-75.956c19.715-13.576,39.568-27.326,58.754-41.539
			c19.118-14.162,39.701-25.209,59.212-39.121c15.397-10.979,30.511-22.658,45.8-33.708c26.567-19.202,51.777-39.396,78.467-58.877
			c45.453-33.177,89.979-69.22,134.021-103.511c73.877-57.521,116.711-106.8,145.958-197.705
			c8.183-25.436,21.313-54.717,24.01-80.883c3.073-29.815-5.546-60.282-16.046-88.087c-13.021-34.488-25.125-69.81-38.598-103.929
			c-6.589-16.686-13.812-32.098-21.436-49.063c-15.22-33.873-26.108-65.143-48.697-95.251
			c-52.033-69.355-109.38-128.16-176.668-183.027c-11.692-9.535-23.252-19.175-35.953-26.992
			c-14.411-8.871-28.827-18.396-43.636-26.175c-20.651-10.847-39.138-19.708-58.886-31.981c-20.103-12.493-39.3-26.23-58.729-39.725
			c-25.252-17.535-51.331-34.718-80.19-45.754c-27.282-10.433-55.92-14.913-83.164-24.923
			c-31.45-11.554-62.769-28.712-96.119-34.272c-27.117-4.522-53.978-6.981-80.991-12.805c-40.858-8.806-76.394-8.281-117.739-6.735
			c-10.822,0.402-20.981,0.262-31.523,1.847c-40.594,6.104-81.973,25.743-122.156,33.834
			c-99.111,19.957-186.439,53.078-243.631,142.188c-26.036,40.566-55.064,80.876-67.354,128.115
			c-6.275,24.142-14.246,46.484-20.965,70.469c-4.319,15.413-8.625,29.857-15.551,44.15c-11.305,23.327-27.579,43.002-38.435,66.8
			c-9.284,20.354-18.224,40.95-27.799,61.084c-9.256,19.462-17.521,38.683-23.149,59.396c-5.694,20.954-16.055,39.39-22.795,60.379
			c-3.272,10.192-14.067,59.262-35.718,43.417c-10.423-7.638-2.013-30.708,0.392-40.443c10.701-43.343,21.941-86.65,28.859-130.803
			c3.343-21.326,6.869-43.684,6.135-65.303c-0.721-21.17-3.543-43.052-1.432-64.368c0.879-8.862,0.426-17.417,0.961-26.552
			c0.8-13.636,2.063-27.205,3.265-40.796c4.778-54.111-11.519-110.906-35.974-158.537c-11.259-21.927-22.909-44.355-37.498-64.584
			c-25.091-34.788-64.92-68.771-100.111-93.715c-18.604-13.187-35.396-26.718-50.075-44.229
			c-14.224-16.969-32.286-28.514-47.389-44.438c-16.119-16.996-31.962-35.339-45.777-54.108
			c-31.863-43.287-73.094-78.164-112.608-114.127c-40.815-37.146-87.052-69.282-134.98-96.099
			c-43.84-24.527-86.121-52.76-130.418-76.347c-42.885-22.836-84.861-47.379-127.993-69.629
			c-51.762-26.703-100.665-25.186-157.597-27.614c-47.399-2.022-98.53-14.018-145.832-8.387
			c-41.1,4.892-82.832,9.853-124.471,13.299c-42.084,3.484-83.441,15.311-123.78,26.799c-43.975,12.522-88.53,23.064-131.894,37.664
			c-68.39,23.025-123.466,63.112-177.242,109.995c-20.187,17.6-33.117,43.672-52.521,63.082
			c-41.938,41.951-88.458,98.842-111.745,153.712c-6.6,15.552-11.399,31.705-18.021,47.915
			c-12.986,31.796-27.718,63.438-41.143,94.933c-4.245,9.96-10.069,18.19-14.639,27.813c-8.855,18.653-13.908,38.067-19.971,57.728
			c-3.436,11.139-5.851,22.562-9.232,33.709c-5.181,17.074-9.979,34.166-15.277,51.262c-3.621,11.689-4.973,23.349-7.637,35.146
			c-5.55,24.573-10.88,49.062-8.4,74.586c2.595,26.716,2.646,53.574,3.518,80.377c0.812,24.954,0.241,51.052,4.103,75.668
			c2.212,14.104,6.038,27.926,11.145,41.25c7.7,20.094,18.563,44.974,33.383,60.875c13.957,14.978,30.954,26.102,44.253,41.724
			c13.993,16.438,22.227,37.113,32.704,55.766c26.141,46.532,45.709,98.116,65.952,147.409
			c10.717,26.098,26.041,50.697,44.662,72.273c27.152,31.463,53.329,65.989,87.109,90.672
			c31.677,23.145,68.471,38.175,104.506,53.045c50.305,20.758,107.107,19.854,160.713,22.554
			c55.865,2.813,112.879,1.592,168.898,1.591c26.812-0.001,53.385-4.254,80.11-4.254c2.645,0.032,7.138-0.557,11.293-0.477
			c5.521,0.107,5.997,6.789,0.583,7.884c-6.893,1.394-15.866,0.868-20.298,1.315c-42.655,4.305-83.141,10.647-127.128,20.575
			c-32.271,7.283-65.131,11.536-97.45,18.568c-18.351,3.993-36.539,8.87-54.077,15.635c-44.096,17.01-77.957,41.771-116.646,68.556
			c-24.961,17.281-46.543,38.676-68.666,60.666c-48.562,48.271-99.617,119.266-111.334,187.333
			c-14,81.333-23.443,169.162-19.332,250.667c3.641,72.188,20.062,149.372,46.666,216.667
			c13.351,33.769,35.871,63.063,55.283,93.326c43.79,68.269,143.934,100.089,222.183,100.847
			c58.286,0.564,119.812,9.557,176.31-1.566c60.813-11.976,118.109-33.411,177.116-50.932
			c54.622-16.221,95.702-27.004,143.776-58.342c9.092-5.927,23.046-13.867,32-20c8.931-6.117,19.861-14.369,28.667-20.667
			c8.784-6.282,14.661-10.898,23.333-17.333c8.688-6.445,17.402-14.764,26-21.333c3.487-2.666,4.535-2.181,12.006-8.004
			c3.261-2.542,29.313-26.099,32.646-17.513c1.294,3.336,0.468,5.875-1.751,8.884c-11.228,15.218-25.772,25.455-40.524,36.958
			c-13.852,10.801-25.094,24.239-38.36,35.596c-13.224,11.317-28.391,20.073-43.201,29.101c-8.808,5.367-18.109,9.761-27.079,14.894
			c-10.331,5.91-20.435,12.239-31.079,17.586c-13.719,6.891-27.716,12.406-41.655,18.666c-7.833,3.519-15.86,6.459-23.596,10.076
			c-3.068,1.436-5.98,2.943-9.114,4.255c-10.02,4.194-19.822,6.871-30.047,10.003c-10.655,3.264-21.259,7.024-31.883,10.342
			c-8.746,2.732-17.581,5.685-26.345,8.066c-8.125,2.209-15.665,6.087-23.938,7.852c-12.635,2.693-26.367,1.728-39.395,1.74
			c-8.906,0.01-17.138-0.472-25.831,2.329c-8.812,2.841-17.13,6.88-25.421,10.911c-10.09,4.906-18.083,10.596-26.675,17.688
			c-3.745,3.092-8.273,6.735-13.286,6.875c-8.9,0.248-18.305-1.08-26.602-4.248c-8.532-3.26-15.601-2.724-24.869-2.724
			c-13.98,0-27.875,0.7-41.668,2.007c-11.64,1.104-23.353,0.412-35.006,1.502c-11.443,1.07-22.108-2.498-33.412-4.746
			c-12.161-2.416-22.848-2.589-35.188,0.153c-13.794,3.065-27.754,8.068-40.709,13.658c-8.95,3.862-18.046,6.899-27.144,10.358
			c-12.862,4.89-24.624,11.396-36.162,18.863c-13.86,8.971-27.244,18.948-40.418,28.892
			c-52.259,39.441-91.756,100.553-113.646,162.012c-20.091,56.41-27.843,121.517-24.817,182.271
			c2.565,51.508,4.009,100.267,1.552,151.56c-1.089,22.736-2.439,46.882-1.499,70.417c1.712,42.86,4.504,85.143,4.501,128.666
			c-0.019,90.904-5.991,181.941-5.997,273.294c-0.006,97.394,7.531,193.8,12.055,291.817c2.891,62.608,8.402,101.994,15.508,167.928
			c8.048,74.682,26.715,158.016,50.563,220.331c17.308,45.228,34.651,90.37,49.295,136.511
			c13.113,41.315,16.966,84.733,41.989,121.648c16.065,23.701,35.328,46.512,52.199,69.525c37.096,50.604,80.764,86.105,132.668,112
			c56.284,28.082,113.591,39.764,176.845,39.709c70.911-0.062,138.461-15.401,208.514-22.453c35.25-3.549,70.339-7.547,106.13-7.559
			c36.671-0.012,71.478-3.611,106.512-14.363c21.965-6.742,43.047-14.016,63.959-23.117c28.839-12.551,59.969-21.996,88.041-37.551
			c51.569-28.571,98.136-66.342,145.332-101.332c45.055-33.402,81.334-65.334,128-98c23.66-16.563,48.263-36.069,73.193-50.778
			c15.01-8.854,26.694-20.83,41.478-30.633c7.784-5.162,14.721-10.263,21.96-16.243c14.682-12.127,29.504-22.822,44.763-33.764
			c13.613-9.762,27.71-18.703,40.661-29.187c18.074-14.63,36.874-28.901,56.188-41.709c3.577-2.371,8.626-5.817,12.924-6.565
			c6.929-1.203,7.377,5.547,4.746,10.414c-3.127,5.785-9.116,9.496-14.002,13.76c-3.196,2.789-6.647,5.556-10.004,8.203
			c-15.342,12.1-33.867,19.787-49.123,32c-27.772,22.232-58.129,39.817-87.75,59.349c-16.951,11.179-33.812,22.923-49.784,35.31
			c-23.9,18.533-47.431,37.771-72.102,55.48c-7.985,5.732-17.325,11.322-24.977,17.876
			c-67.158,57.522-136.835,112.586-205.504,168.487c-27.625,22.486-54,52.666-73.186,77.983
			c-11.926,15.739-16.229,36.792-14.67,56.532c5.854,74.15,27.854,145.482,45.008,214.85c5.69,23.012,10.944,46.664,19.518,69.797
			c14.562,39.291,28.715,74.893,47.602,111.698c16.863,32.862,47.642,62.153,73.729,88.194
			c17.236,17.203,35.242,33.026,54.024,48.556c2.476,2.046,5.122,3.854,7.64,5.826c1.162,0.911,2.432,1.761,3.61,2.671
			c2.704,2.089,5.445,4.05,7.685,6.604c1.958,2.234,3.795,5.076,4.098,8.098c0.084,0.843-0.066,1.609-0.383,2.264l308.107,236.719
			c33.399-27.901,48.336-41.39,75.854-67.457c26.846-25.435,50.048-48.264,70.497-79.496c11.768-17.977,23.743-38.438,31.499-58.498
			c9.224-23.858,12.711-41.174,17.999-65.996c6.292-29.535,18.03-70.274,19.499-100.494c4.604-94.793,15.332-163.508,19.499-206.99
			c5.528-57.695,17.768-109.679,25.499-166.492c11.97-87.975,25.432-152.58,29.999-170.992c7.3-29.429,5.985-25.224,13.499-55.496
			c6.646-26.78,33.613-87.332,38.999-115.496c19.499-101.994,50.639-171.231,22.499-263.985
			c-34.24-112.858-86.995-190.491-204.223-241.972c-57.502-25.254-125.315-35.082-211.9-19.092
			c-21.803,4.025-45.527,9.974-67.046,14.33c-99.969,20.242-178.954,45.67-284.044,99.213
			c-46.058,23.465-91.906,32.52-144.91,52.457c-24.147,9.082-38.468,21.522-62,32c-33.479,14.904-75.121,30.775-110.188,40.648
			c-52.901,14.895-83.901,16.895-136.901,20.895c-47.041,3.549-97,15-139-33c-13.96-15.955-28.652-20.432-33.217-41.977
			c-3.382-15.962-3.769-29.494-9-44.998c-4.906-14.536-7.055-18.6-12-32.998c-4.515-13.139-10.994-27.576-16.499-40.498
			c-4.872-11.436-10.384-32.139-14.999-43.498c-15.86-39.032-23.63-82.852-26.999-124.493c-3.485-43.101-6.446-79.711-4.5-122.994
			c1.637-36.396,3-89.534,3-125.994c0-47.128,4.628-73.188,3-124.494c-2-63-1.423-113.703-9-163.492
			c-14.109-92.724-30.611-233.944,70.497-272.985c29.612-11.436,85.183-23.178,121.494-31.5
			c71.995-16.498,158.991-50.996,227.987-83.996c59.937-28.666,152.992-86.994,256.487-205.488
			c41.767-47.82,56.391-99.167,73.496-137.993c27.257-61.872,49.498-121.494,40.498-187.491c-2.63-19.285-0.898-46.772-4.5-65.997
			c-9.752-52.062-10.529-89.246-22.499-131.993c-10.5-37.498-57.764-107.364-98.239-144.211
			c-74.045-67.407-193.067-71.992-285.46-53.476c-32.977,6.608-64.213,18.807-97.45,24.677c-11.307,1.997-21.929,4.102-33.08,6.947
			c-30.247,7.719-58.828,12.681-89.627,15.09c-53.864,4.215-148.898,0.19-97.353-78.688c13.563-20.752,33.67-31.47,52.444-46.95
			c39.896-32.896,85.56-54.184,126.548-84.047c40.216-29.301,73.009-63.411,107.967-98.462
			c33.538-33.627,59.836-75.569,80.534-118.076c19.308-39.651,36.832-93.145,33.469-137.926
			c-1.276-16.996-2.526-33.211-5.924-49.501c-5.041-24.16-9.364-47.895-17.078-71.495c-7.745-23.69-14.658-45.642-27.896-67.096
			c-13.421-21.751-29.617-41.599-45.61-61.476c-27.854-34.616-59.247-67.037-95.911-92.389
			c-38.42-26.564-78.202-51.064-117.46-76.354c-53.53-34.481-99.217-80.405-154.032-112.232c-53.221-30.902-100.396-60.991-102-138
			c-1-48,25.019-74.575,45-103c32.014-45.54,55-81,115-108c30.577-13.76,55.686-14.098,88-16
			c33.555-1.975,70.848-0.46,105.986,2.341c34.253,2.729,67.561,13.026,98.014,27.659c33.479,16.087,63.319,39.15,90.91,63.544
			c13.699,12.108,28.208,23.131,42.11,35.075c36.812,31.631,73.399,69.134,96.899,111.908
			c27.968,50.906,62.283,105.858,87.079,158.473c13.975,29.652,20.399,63.677,32,94c15.116,39.512,27.39,78.011,43,117
			c10.118,25.271,16.363,41.549,27.425,67.535C2120.5,2134,2183.066,2187.143,2270.5,2226
			c33.062,14.694,64.635,19.719,100.362,25.087c71.776,10.783,140.315,27.762,213.583,18.454
			c61.184-7.771,122.324-16.773,182.521-30.367c34.917-7.885,87.946-33.877,120.534-49.174c98-46,159.293-79.503,248-122
			c56.553-27.095,107.716-50.409,166.484-72.445c31.896-11.96,66.252-25.084,98.41-33.57c30.274-7.989,70.876-33.059,98.516-14.512
			c30.59,20.527,22.729,61.038,17.59,89.527c-6.878,38.118-39.794,59.346-70,82c-44,33-122,93-213,148
			c-44.453,26.867-79.844,53.768-125.032,78.996c-48.362,27-93.903,50.134-142.968,76.004c-55,29-94.876,48.003-141,78
			c-36.807,23.938-83.035,42.552-117,72c-69.684,60.415-105.924,97.518-149,208c-14.626,37.512-27.979,76.557-35.328,115.907
			c-3.028,16.217-5.256,31.993-6.035,48.76c-1.531,33.002,0.736,61.489,3.063,93.005c4.569,61.9,15.464,119.35,28.42,179.987
			c7.731,36.187,24.024,70.286,40.134,103.862c10.294,21.457,22.299,42.051,35.572,61.877l281.186-136.172
			c-3.977-8.955,5.844-21.197,10.192-28.099C2922.186,3208.847,2924.248,3200.51,2926.53,3189.062z" color="13939253" style="fill:#d4b235;fill-opacity:1;stroke-width:10;stroke:rgb(0,0,0)"></path></g><g id="157960686" order="0" group_label_id="113753816" group_label="Atlas - Developing Human Sulci" sub_image_id="102339958"><path id="157960692" parent_id="157960686" order="0" structure_id="146034836" d="M844.066,6927.387c0.178,0.563,21.922-34.946,21.922-34.946
			s-10.511-39.622-9.921-40.054c0.589-0.432,83.22,51.021,82.867,51.726C938.584,6904.812,843.889,6926.824,844.066,6927.387z" color="7171696" style="fill:#6d6e70;fill-opacity:1;stroke-width:10;stroke:rgb(0,0,0)"></path><path id="157960691" parent_id="157960686" order="1" structure_id="10639" d="M4239.266,1834.403c-0.557-0.194,14.929,38.459,14.929,38.459
			s38.052,15.243,38.046,15.974c-0.007,0.73-90.635,36.251-90.988,35.549C4200.899,1923.683,4239.823,1834.597,4239.266,1834.403z" color="7171696" style="fill:#6d6e70;fill-opacity:1;stroke-width:10;stroke:rgb(0,0,0)"></path><path id="157960690" parent_id="157960686" order="2" structure_id="13222" d="M4580.826,6922.367c0.396-0.438-41.234-1.273-41.234-1.273
			s-28.891,29.08-29.56,28.789c-0.67-0.291,2.011-97.594,2.795-97.646C4513.611,6852.188,4580.432,6922.805,4580.826,6922.367z" color="7171696" style="fill:#6d6e70;fill-opacity:1;stroke-width:10;stroke:rgb(0,0,0)"></path><path id="157960689" parent_id="157960686" order="3" structure_id="13221" d="M3441.766,7417.477c0.175-0.562-37.86,16.385-37.86,16.385
			s-13.779,38.606-14.509,38.629c-0.729,0.021-39.687-89.184-38.998-89.564C3351.086,7382.546,3441.594,7418.041,3441.766,7417.477z
			" color="7171696" style="fill:#6d6e70;fill-opacity:1;stroke-width:10;stroke:rgb(0,0,0)"></path><path id="157960688" parent_id="157960686" order="4" structure_id="10624" d="M1690.193,8729.441c0.566-0.162-34.372-22.814-34.372-22.814
			s-39.879,9.488-40.294,8.889s53.144-81.879,53.838-81.512C1670.059,8634.375,1689.627,8729.604,1690.193,8729.441z" color="7171696" style="fill:#6d6e70;fill-opacity:1;stroke-width:10;stroke:rgb(0,0,0)"></path></g></g></svg>
