<svg id="the_svg_wrapper" class="svg_wrapper" width="100%" height="100%" version="1.1" xmlns="http://www.w3.org/2000/svg"><g id="master_group" transform="translate(0,0) scale(0.0546875)" width="52639" height="70623" image_id="102291521" image_url="/external/devhuman/prod14/3760000378/3760000378.aff"><g id="157961381" order="0" group_label_id="113753815" group_label="Atlas - Developing Human Gyri" sub_image_id="102291521"><clippath><path id="zap_container_graphics_clip" d="M 0 0 L 1498 0 L 1498 312 L 0 312 L 0 0" style="fill:#000000;fill-opacity:1;stroke-width:10;stroke:rgb(0,0,0)"></path></clippath><path id="157961387" parent_id="157961381" order="0" structure_id="12157" d="
			M2466.071,6779.739c-94.869-12.115-190.604,6.028-283.075,26.388c-90.487,19.922-180.262,36.107-270.823,55.692
			c-57.059,12.34-116.643,27.118-171.782,46.262c-48.277,16.761-100.302,33.998-143.937,60.573
			c-79.765,48.579-152.206,86.703-221.946,143.088c-67.822,54.836-119.575,125.543-182.958,184.954
			c-10.834,10.155-60.275,68.779-76.308,48.999c-19.116-23.587,17.691-65.767,30.809-84.37
			c45.715-64.834,100.361-119.887,139.996-189.092c58.72-102.529,58.936-87.753,61.696-217.037
			c1.098-51.452-4.495-103.185-14.466-153.645c-14.621-73.993-65.363-149.733-100.631-215.497
			c-38.692-72.148-78.978-143.495-114.424-217.332c-25.16-52.409-116.674-275.326-105.671-523.195
			c2.965-66.788,1.62-137.414,3.356-204.25c3.687-141.938,2.934-278.316,53.376-482.786
			c14.967-60.669,33.484-129.203,65.519-182.856c41.119-68.866,111.883-102.732,185.673-125.941
			c80.224-25.233,166.003-56.734,250.103-63.107c64.401-4.88,129.923-10.431,194.394-14.327
			c46.898-2.834,99.771-15.003,143.544,10.484c30.458,17.734-6.932,40.351-21.775,52.759
			c-54.824,45.833-137.533,56.688-205.732,69.298c-252.624,46.71-312.246,85.665-395.826,190.116
			c-43.708,54.622-69.656,117.55-85.807,184.895c-12.214,50.925-27.823,102.059-38.338,153.356
			c-10.095,49.246-17.271,100.422-20.991,150.534c-18.95,255.274,7.852,402.042,22.789,511.58
			c7.306,53.576,15.399,113.491,29.987,165.527c47.087,167.967,118.006,336.977,246.682,458.356
			c29.008,27.363,69.102,59.02,105.964,74.211c67.343,27.753,150.208,17.499,220.704,7.196
			c119.071-17.402,206.506-37.551,311.263-83.963c32.74-14.506,82.168-28.88,115.515-42.15
			c77.411-30.808,152.592-64.608,225.873-104.272c125.727-68.051,162.715-97.142,241.717-195.592
			c68.209-85,111.563-217.979,83.203-308.102c-34.53-109.731-132.596-135.308-233.298-149.335
			c-66.567-9.272-309.038,18.526-305.866-114.551c1.354-56.796,78.456-117.214,127.158-152.812
			c65.326-47.747,140.451-80.048,205.514-128.158c60.999-45.104,112.787-101.16,159.487-160.653
			c107.763-137.285,115.817-124.766,195.018-283.335c48.432-96.966,110.567-311.665,118.269-428.933
			c2.666-40.583,15.621-72.717-25.788-217.706c-36.171-126.648-60.06-173.076-146.165-266.188l-274.519,233.082
			c5.109,4.25,9.971,9.053,14.549,14.519c26.12,31.189,43.379,68.995,62.184,104.636c26.528,50.278,45.253,111.621,48,168.667
			c5.179,107.552-43.312,190.149-92.746,281.973c-69.22,128.57-139.31,170.217-260.251,230.27
			c-31.418,15.601-61.864,31.874-95,42.557c-64.051,20.649-131.353,31.833-194.392,55.312
			c-173.034,64.445-314.77,144.486-343.48,328.683c-18.445,118.335,7.173,231.456,32.076,346.93
			c13.355,61.931,52.133,110.576,85.84,162.808c28.925,44.821,68.151,91.116,116.043,116.033
			c56.353,29.319,122.958,28.711,184.721,24.565c44.603-2.993,90.026-7.011,134.168-14.157c19.923-3.226,41.704,2.742,60.961-3.457
			l91.386-29.428c1.05-0.344,2.178,0.239,2.517,1.29c0.338,1.052-0.239,2.179-1.291,2.517l-88.248,28.417
			c-13.26,4.271-35.804,12.282-49.669,14.317c-53.843,7.9-108.236,14.001-162.238,20.747
			c-67.361,8.416-130.325,12.993-191.063,46.623c-23.005,12.738-41.475,37.331-55.814,58.638
			c-8.086,12.015-21.66,65.435-43.291,62.186c-7.983-1.199-13.924-15.329-14.226-21.826c-0.477-10.273,4.889-19.236,10.248-27.781
			c14.895-23.761,29.622-55.09,36.724-82.219c4.846-18.512,5.86-29.613,2-48c-9.039-43.051-47.289-80.708-74.522-114.814
			c-31.426-39.357-62.43-79.424-85.792-124.237c-33.667-64.58-50.153-137.164-63.459-208.285
			c-13.261-70.879-25.216-143.373-20.535-215.727c2.69-41.585,43.152-129.081,84.084-171.109
			c43.367-44.527,102.336-68.844,156.768-96.678c54.881-28.063,117.91-48.022,176.604-66.739
			c40.586-12.943,80.811-26.661,120.291-42.694c130.65-53.061,219.016-88.866,310.996-191.517
			c90.942-101.493,138.47-240.612,144.846-375.374c5.215-110.218-56.924-212.185-144.455-274.559
			c-33.25-23.693-139.786-46.183-198.497-61.772c-63.584-16.884-87.294-5.029-205.299-24.717c-32.198-5.372-65.294-4.777-99-4.777
			c-55.267,0-109.029,9.071-163.726,15.223c-65.45,7.359-131.561,9.333-197.274,12.777c-15.382,0.806-47.774-0.212-48.503-0.221
			c0,0-118.944-0.402-118.993-0.402c-59.162-0.2-118.328,2.623-177.504,2.623c-59.387,0-118.754-1.687-178.125-2.866
			c-43.764-0.869-85.826-1.735-128.943,7.443c-57.364,12.211-121.65,28.087-171.267,60.759
			c-44.117,29.051-77.805,77.559-99.487,124.49c-44.373,96.048-64.908,143.126-66.674,269.958
			c-0.837,60.134-0.926,121.181-2.504,180.993c-1.334,50.56,6,97.322,6,146.56c0,69.157,3.127,139.409,1,208.663
			c-2.334,76.004-5.423,149.673-4.201,222.738c0.534,31.933-14.132,222.599-19.466,243.266c-12.439,48.202-6,156.668,3.333,239.335
			c5.391,47.746,8.545,98.932,14,146.667c4.315,37.765,10.712,75.114,14.028,112.988c4.175,47.686,6.563,51.191,7.973,91.012
			c3.656,103.298,24.795,212.841,41.319,251.119c11.775,27.277,39.392,41.108,60.441,60.156
			c33.415,30.239,35.076,88.2,43.452,129.576c13.81,68.217,21.442,135.016,25.344,204.392
			c2.239,39.832,29.497,72.307,25.829,112.752c-2.004,22.101-5.8,44.424-7.718,66.669c-6.393,74.168-2.189,144.877,0,222.666
			c1.963,69.747,6.166,140.027,14,209.333c3.921,34.689,9.134,70.234,17.638,104.382c12.065,48.448,34.574,95.029,68.2,132.155
			c5.717,6.312,84.987,72.112,129.498,65.637c91.211-13.272,170.657-92.823,225.382-161.843
			c62.147-78.379,117.806-195.981,227.541-213.927c26.031-4.257,50.113-1.294,75.741-9.071
			c68.434-20.767,121.471-76.149,178.255-116.291c40.71-28.779,89.712-45.55,136.033-63c90.073-33.935,178.086-63.67,269.882-87.762
			c42.47-11.146,83.631-26.705,126.071-37.956c40.837-10.826,84.69-8.083,124.648-19.747c6.039-1.764,12.654-5.436,18.787-2.281
			c1.563,0.804,2.778,1.667,3.7,2.573l314.648-150.083C2715.632,6905.542,2643.851,6802.441,2466.071,6779.739z" color="14837888" style="fill:#e26880;fill-opacity:1;stroke-width:10;stroke:rgb(0,0,0)"></path><path id="157961389" parent_id="157961381" order="1" structure_id="146034876" d="
			M1864.517,8277.988c33.879-60.152,51.309-150.06,9.615-211.211c-80.964-118.748-113.994-93.824-154.879-149.004
			c-34.047-45.95,13.56-73.824,50-91.055c81.65-38.676,164.741-74.451,245.071-115.813
			c120.694-62.146,246.039-123.319,307.812-144.311c41.758-14.19,134.844-66.018,169.125-91.76
			c59.697-44.827,110.757-91.802,159.53-148.134c121.513-140.343,108.516-185.894,109.752-227.301
			c0.615-20.59-1.723-61.846-16.895-108.222L2429,7141.262c9.262,9.118-11.694,22.772-18.463,27.685
			c-11.73,8.512-24.175,16.183-39.246,16.777c-15.947,0.629-30.602,0.697-46,3c-90.228,13.492-178.603,39.706-266.758,62.748
			c-90.241,23.587-257.628,98.768-298.633,127.305c-109.608,76.282-106.908,104.733-166.275,143.615
			c-32.338,21.18-80.03,26.746-114.333,44.037c-28.891,14.562-55.783,32.68-83.605,49.111
			c-54.925,32.438-107.366,68.412-151.373,114.965c-45.699,48.344-103.247,108.778-124.301,174.215
			c-9.841,30.587,24.028,51.078,40.477,69.952c29.331,33.665,36.575,54.823,74.469,79.72c50.48,33.167,121.973,69.085,171.526,98.38
			c7.171,4.239,14.896,9.932,23.093,12.985c0.016,0.006,0.031,0.012,0.047,0.018l122.722,45.689
			c1.035,0.385,1.562,1.537,1.177,2.572c-0.045,0.122-0.12,0.222-0.185,0.329l227.207,166.212
			C1814.019,8351.448,1842.491,8317.094,1864.517,8277.988z" color="12100205" style="fill:#b8a26d;fill-opacity:1;stroke-width:10;stroke:rgb(0,0,0)"></path><path id="157961390" parent_id="157961381" order="2" structure_id="12125" d="
			M6989.635,6701.49c-8.223-35.16-21.66-90.764-61.349-102.741c-44.813-13.517-177.192,59.269-189.271,63.729
			c-42.804,15.804-87.096,26.783-129.722,43.245c-27.647,10.677-51.955,26.966-79.95,37.001c-8.969,3.215-18.612,3.249-27.185,7.331
			c-0.017,0.008-0.033,0.015-0.05,0.022c-34.771,16.678-57.636,25.201-96.982,34.531c-34.867,8.268-108.715,32.85-157.14,50.885
			c-37.784,14.071-79.472,21.919-104.379,26.607c-8.054,1.526-21.79,12.447-33.399,16.874
			c-23.111,8.812-47.155,15.923-72.081,16.158c-25.98,0.245-53.174-7.151-77.923-14.512c-7.811-2.322-15.524-5.009-22.965-8.345
			c-6.688-2.998-13.529-8.273-20.896-9.296c-4.023-0.559-8.183-1.116-12.46-1.69c-11.714-1.572-23.728-3.188-35.096-5.087
			c-0.101-0.017-0.198-0.028-0.3-0.046c-7.753-1.369-21.504-2.528-31.253-1.54c-11.669,1.183-29.073-1.624-34.692-13.421
			c-0.784-1.646-1.39-3.458-1.785-5.337l-276.621,8.057c15.898,84.258,63.625,154.339,114.079,222.934
			c51.999,70.696,134.141,138.213,206.403,173.847c127.375,62.809,296.504,98.51,437.657,68.565
			c18.706-3.969,56.641-13.055,60.495,16.235c2.999,22.79-54,63.941-73.167,82.764c-39.346,38.638-75.801,70.702-112.271,96.205
			c-84.098,58.81-168.27,82.678-288.133,71.438c-133.462-12.515-182.684-78.008-250.439-194.352
			c-55.639-95.536-118.621-201.193-183.902-272.533c-70.226-76.743-145.344-158.527-244.782-194.942
			c-66.512-24.357-141.988-20.443-205.372,11.347c-164.815,82.663-119.511,304.908-90.298,447.452
			c14.291,69.733,60.148,147.524,45.58,218.905c-9.581,46.947-61.85,106.767-118.149,77.367
			c-46.56-24.312-66.55-192.072-72.567-227.3c-14.64-85.709-29.089-169.486-51.579-253.688
			c-22.723-85.066-66.549-158.212-111.593-232.9c-57.823-95.879-131.586-188.135-232.057-242.092
			c-133.756-71.831-231.198-39.724-256.115-35.221c-54.196,9.795-104.203,32.729-147.81,64.478l143.163,236.353
			c7.688-5.669,18.813,2.991,30.015,10.7c21.482,14.785,41.584,30.349,61.462,47.04c11.704,9.828,19.044,19.394,34.063,25.115
			c14.545,5.54,30.151,7.803,45.469,10.094c8.812,1.318,30.003,1.711,34.754,9.999c6.773,11.819,7.004,27.282,8.608,40.477
			c3.221,26.49,5.385,53.158,9.585,79.521c4.802,30.148,18.582,62.052,35.273,87.777c20.245,31.202,42.635,62.204,58.004,96.223
			c7.094,15.702,14.21,31.041,20.555,47.023c16.189,40.782,33.104,83.451,40,126.98c2.764,17.443,6.332,35.386,7.223,52.996
			c1.368,27.058,2.707,54.127,5.127,81.115c3.563,39.734,8.491,76.081,17.873,114.885c3.883,16.06,5.304,32.61,7.976,48.996
			c12.755,78.203,39.564,192.963,132.049,209.803c32.865,5.984,66.694-1.51,99.791-1.176c33.388,0.337,66.928,0.523,99.993-4.769
			c31.82-5.094,62.934-13.284,95.365-13.821c81.272-1.344,158.824-20.715,225.839-68.18
			c56.323-39.892,110.528-81.34,132.206-149.857c9.139-28.885,12.781-62.835,12.781-93.996c0-29.916,2.561-69.436-1.391-100.779
			c-5.435-37.292-13.004-84.492-18.397-115.314c-6.593-37.67-23.358-94.538-40.006-136.823
			c-9.349-23.747-22.837-45.533-33.532-68.65c-11.062-23.912-18.57-48.678-24.965-73.906c-1.911-7.546,0.887-10.011,4.75-3.25
			c15,26.25,29.646,59.214,40.958,88.527c11.37,29.466,18.887,60.231,28.992,90.124c12.084,35.747,22.778,74.926,27.742,103.289
			c5.229,29.874,12.5,75.13,17.898,111.89c1.92,12.941,6.945,25.888,10.325,38.659c11.855,44.805,26.48,89.586,45.501,131.879
			c12.284,27.313,21.231,56.891,39.269,81.21c19.774,26.66,49.303,44.854,76.879,62.416c37.368,23.799,72.982,59.268,115.314,73.581
			c87.408,29.556,182.739,46.454,276.695,50.269c70.162,2.849,137.99-5.81,206.02-21.897
			c105.387-24.923,199.193-73.614,285.266-134.839c54.965-39.099,106.777-83.307,156.436-129.704
			c36.39-34,71.672-70.736,101.384-110.822c54.459-73.474,113.478-146.038,169.2-218.521c32.336-42.062,62.621-82.865,89.614-128.59
			c23.769-40.262,42.589-80.594,56.385-125.411c15.506-50.37,26.522-104.827,38.666-156.001c10.265-43.251,22.046-89.542,23.333-134
			C7001.073,6859.088,7011.765,6796.12,6989.635,6701.49z" color="11243864" style="fill:#ab9158;fill-opacity:1;stroke-width:10;stroke:rgb(0,0,0)"></path><path id="157961384" parent_id="157961381" order="3" structure_id="12123" d="
			M3780.729,7020.56c-11.823,88.449,10.037,179.349,42.441,261.282c30.578,77.314,88.46,130.536,150.666,183.087
			c41.934,35.425,83.376,73.396,111.922,120.856c22.807,37.918,58.618,110.219,25.63,151.945
			c-64.29,81.315-162.575,11.45-231.771-20.303c-72.122-33.095-144.982-65.172-223.314-80.275
			c-111.725-21.543-211.266-13.463-276.712,92.154c-21.257,34.305-35.559,75.774-50.039,113.289
			c-24.125,62.504-45.755,129.73-109.567,162.19c-54.661,27.806-125.442,30.818-185.362,34.403
			c-38.204,2.285-116.758,39.327-179.931,75.918l155.406,325.106c0.546,0.248,1.571,1.002,3.082,2.289
			c22.112,18.836,45.511,33.652,72.503,45.191c33.635,14.379,58.119,8.873,92.608-1.189c130.933-38.2,245.133-87.05,368.217-145.671
			c55.329-26.352,116.574-60.361,155.333-109.333c28.272-35.723,23.735-67.655,35.176-78.053c8.056-7.32,14.061-0.199,20.753,4.649
			c109.226,79.129,245.194,58.034,370.744,44.849c42.049-4.416,84.227-9.288,125.962-16.113
			c38.299-6.262,169.604-76.888,193.546-105.263c38.585-45.728,43.699-101.071,52.048-156.851c4.193-28.025,3-54.135-2.56-81.996
			c-6.402-32.084-15.893-64.854-20.872-97.719c-4.646-30.67-3.61-61.759-6.304-92.591c-2.865-32.809-9.035-66.79-15.524-99.092
			c-6.358-31.651-12.029-63.69-24.793-93.544c-7.45-17.426-13.921-34.925-22.503-52.055c-8.055-16.077-19.15-29.656-26.948-46
			c-23.439-49.127-53.376-95.878-90.545-135.801c-20.886-22.434-47.858-36.229-67.534-60.247
			c-14.914-18.208-29.481-39.349-46.925-55.203c-11.128-10.114-23.636-18.167-36.321-25.497
			c-18.652-10.779-35.024-25.921-44.535-45.483c-6.802-13.991-12.332-32.111-8.4-47.677c1.732-6.858,4.118-10.93,6.976-13.037
			l-143.163-236.353C3858.217,6809.334,3794.78,6915.441,3780.729,7020.56z" color="13285249" style="fill:#cab781;fill-opacity:1;stroke-width:10;stroke:rgb(0,0,0)"></path><path id="157961383" parent_id="157961381" order="4" structure_id="12122" d="
			M2767.74,8174.73c-60.615,61.241-91.894,143.603-112.75,226.101c-30.804,121.842-17.392,163.128-73.768,277.678
			c-42.437,86.227-89.244,167.963-141.854,247.986c-28.563,43.446-56.434,87.21-87.242,129.142
			c-122.264,166.403-213.085,183.061-218.874,169.113c-13.471-32.469,87.529-212.786,114.976-254.378
			c49.556-75.094,106.133-156.518,97.297-251.679c-5.591-60.206-109.63-249.564-254.767-241.784
			c-2.757,0.147-5.529,0.334-8.31,0.547l-38.379,226.307c4.091-0.901,8.482-1.021,11.49,2.001
			c17.228,17.403-112.762,138.343-122.588,153.978c0,0-22.416,35.682-22.416,35.683c-3.278,5.218-2.672,7.34-5.392,13.215
			c-2.487,5.37-5.275,10.614-7.66,16.084c-15.148,34.741-37.332,67.066-55.231,100.628
			c-42.718,80.096-83.789,170.207-87.162,262.372c-3.039,83.037-12.669,218.229,83.486,257.11
			c33.101,13.385,62.938,18.451,98.362,20.224c29.12,1.457,78.107,8.31,105.385-4.333c19.317-8.954,30.736-16.806,52.615-19
			c30.365-3.046,47.815,11.257,78,6c118.667-20.667,245.947-106.813,338.73-179.247c66.624-52.011,125.408-113.055,176.202-180.553
			c35.01-46.525,50.449-80.225,81.952-129.089c24.496-37.994,75.949-81.273,106.971-113.436
			c35.498-36.804,62.529-76.209,89.029-119.897c23.631-38.958,40.218-82.803,56-125.334c14.508-39.1,31.444-80.687,29.333-123.333
			c-1.374-27.755-3.464-57.889-10.874-84.621c-4.896-17.662-16.875-33.867-28.414-48.479c-2.193-2.777-2.763-3.963-1.79-3.521
			l-155.406-325.106C2815.077,8138.053,2781.507,8160.82,2767.74,8174.73z" color="13285249" style="fill:#cab781;fill-opacity:1;stroke-width:10;stroke:rgb(0,0,0)"></path><path id="157961388" parent_id="157961381" order="5" structure_id="12121" d="
			M1846.543,8559.163c-78.491,50.646-135.596,122.367-194.914,193.116c-59.969,71.526-121.494,148.745-162.529,233.298
			c-27.273,56.198-42.796,114.161-54.322,175.212c-10.732,56.844-22.898,119.324-21.844,177.434
			c0.424,23.395-0.796,52.784-11.685,74.299c-6.396,12.639-53.169,22.147-56.305-175.076
			c-1.649-103.562,33.411-203.709,27.769-307.401c-7.154-131.491-10.902-136.413-77.963-281.521
			c-16.042-34.713-25.658-76.553,13.829-104.956c68.37-49.178,238.93-11.217,418.616-123.545
			c18.902-11.816,36.739-24.99,53.349-39.445l-227.207-166.212c-0.366,0.6-1.001,0.974-1.69,0.974c-0.231,0-0.467-0.041-0.697-0.127
			l-112.808-41.998c-0.511-0.14-1.111-0.333-1.833-0.603c-1.35-0.505-7.526-0.431-18.41-4.07
			c-22.406-7.492-58.392-28.848-78.42-39.96c-68.346-37.921-144.43-84.822-223.912-93.355
			c-32.61-3.501-143.277-9.501-216.529,190.446c-48.389,132.082-84.394,337.117-59.721,470.567
			c8.307,44.926,22.925,88.025,37.838,131.093c12.513,36.136,23.949,72.735,39.175,107.86c13.427,30.973,34.681,58.79,45.958,90.531
			c15.133,42.592,8.874,91.41,16.596,135.592c6.588,37.699,17.324,74.578,23.574,112.387
			c11.752,71.101,24.248,142.027,38.577,212.658c11.097,54.701,16.223,110.669,40.588,161.363
			c14.113,29.363,37.357,55.502,63.572,75.179c52.3,39.257,123.035,53.96,186.469,60.419c65.025,6.622,131.654,8.656,195.504-7.511
			c33.524-8.489,68.786-21.459,98.627-39.206c93.757-55.757,115.767-115.439,105.928-223.529
			c-6.253-68.697-17.983-136.759-16.435-206.129c2.016-90.343,49.46-224.159,122.927-326.123
			c15.131-21.002,31.536-41.042,47.404-61.481c6.189-7.974,16.486-17.995,18.307-20.889l27.003-42.985
			c8.449-24.839,23.197-46.677,36.749-68.907c10.75-17.635,18.643-43.423,34.272-57.228c11.513-10.169,21.831-19.192,36.763-24.041
			c1.605-0.521,3.446-1.109,5.353-1.529l38.379-226.307C2002.443,8483.57,1913.142,8516.189,1846.543,8559.163z" color="12100205" style="fill:#b8a26d;fill-opacity:1;stroke-width:10;stroke:rgb(0,0,0)"></path><path id="157961386" parent_id="157961381" order="6" structure_id="12116" d="
			M6198.217,5582.27c-4.485-24.144-30.024-37.064-46.719-53.522c-34.013-33.531-52.578-79.53-80.794-117.891
			c-19.905-27.062-38.655-54.991-56.193-83.645c-43.021-70.286-74.404-145.889-133.362-204.881
			c-47.602-47.629-106.211-84.893-170.031-103.946c-149.283-44.567-306.96,0.751-445.482,59.118
			c-73.21,30.848-136.629,80.577-209.845,111.407c-29.8,12.548-59.324,25.47-88.697,38.663
			c-53.183,23.886-105.87,48.658-158.797,73.7c-64.859,30.688-122.772,71.312-183.708,108.456
			c-23.796,14.506-45.713,31.447-68.871,46.83c-42.854,28.464-79.068,59.054-110.439,99.89
			c-12.252,15.947-23.359,31.56-33.055,49.051c-17.345,31.291-33.938,61.843-40.668,97c-6.499,33.956-2.276,69.323,8.335,102.002
			c9.12,28.084,17.687,61.026,36.738,84.169c15.73,19.106,35.979,34.482,56.849,47.558c23.086,14.465,48.622,27.51,73.995,37.3
			c30.355,11.713,62.388,17.535,94.028,24.026c16.812,3.449,33.783,5.097,51,6.945c36.662,3.937,71.217,7.229,108.249,5.777
			c19.069-0.747,37.868-0.726,56.755-0.777c16.815-0.046,33.079,1,49.75,1c80.334,0,160.572,1.981,241.194,0.996
			c49.212-0.602,97.119,2.281,146.452-1.67c24.885-1.993,49.909-4.488,74.67-6.582c23.894-2.021,46.639-11.096,70.655-12.521
			c51.824-3.076,99.108-2.725,147.342-25.177c18.418-8.573,37.744-14.485,55.987-23.823c19.907-10.19,38.758-22.82,58.487-33.271
			c24.997-13.24,52.155-22.851,77.52-35.505c25.203-12.574,51.143-23.564,76.993-34.673c11.238-4.829,23.59-9.401,35.167-12.552
			c19.285-5.247,38.767-9.807,57.877-15.683c17.653-5.429,30.954-14.458,47.166-22.987c31.723-16.691,66.381-21.93,95.425-45.046
			c10.489-8.349,20.872-17.694,31.278-26.333c14.049-11.662,27.568-23.907,41.369-35.854c9.762-8.45,20.237-12.162,26.832-23.958
			C6203.841,5634.092,6202.627,5606.007,6198.217,5582.27z M5384.254,5369.496c-24.848,31.19-56.252,58.741-86.726,84.281
			c-7.09,5.942-14.442,12.176-21.251,18.477c-9.669,8.949-18.035,17.684-28.777,25.298c-15.247,10.806-32.935,17.743-49.023,27.223
			c-29.721,17.511-58.513,34.514-89.973,48.726c-61.771,27.905-123.2,62.472-190.004,73.996
			c-19.477,3.36-38.313,11.139-57.889,14.936c-39.441,7.651-78.729,13.974-118.111,21.846c-15.928,3.184-30.258,7.517-46,11.469
			c-16.709,4.194-36.377-5.515-12.052-14.274c26.831-9.662,55.118-13.759,82.318-22.027c13.992-4.254,28.083-8.167,42.2-11.985
			c30.275-8.189,60.675-15.944,90.497-25.691c39.689-12.972,80.467-20.408,118.811-38.542
			c70.527-33.354,139.74-73.566,206.277-114.503c30.974-19.057,61.931-40.284,86.749-66.445
			c12.153-12.811,22.391-28.464,34.422-41.552c8.226-8.948,48.115-60.116,60.779-47.224
			C5420.441,5327.698,5392.872,5358.678,5384.254,5369.496z" color="13939253" style="fill:#d4b235;fill-opacity:1;stroke-width:10;stroke:rgb(0,0,0)"></path><path id="157961391" parent_id="157961381" order="7" structure_id="12116" d="
			M7094.76,5050.753c-7.443-49.901-10.221-106.365-78.784-158.11c-29.17-22.014-72.167-25.328-107.464-28.892
			c-58.723-5.93-117.033-34.214-171.221-56.026c-20.454-8.234-43.559-7.645-65-10.004c-10.954-1.205-30.379,0.218-39.312-7.8
			c-11.36-10.197,19.202-20.043,29.307-19.53c33.601,1.704,63.86,16.455,97.005,21.557c73.329,11.287,137.05-1.932,164.577-73.991
			c14.524-38.02,20.467-96.193,21.684-171.839c1.4-87.059-10.4-173.057-21.259-221.2c-14.045-62.27-37.592-119.358-73.342-172.526
			c-17.856-26.557-134.798-166.669-169.721-212.705c-28.828-38.001-68.381-65.739-111.523-85.336
			c-40.191-18.257-102.309-46.107-147.126-36.298c-28.964,6.339-84.298,58.339-128.573,85.481
			c-21.895,13.421-38.14,33.688-58.968,48.442c-33.731,23.896-44.05,24.32-46.568,26.433c-3.402,2.995-6.795,6.012-10.12,8.973
			c-21.701,19.327-44.052,39.23-73.182,56.198c-0.035,0.02-0.068,0.041-0.104,0.061c-5.517,3.128-20.208,20.707-31.505,30.336
			c-70.267,59.895-162.14,106.447-244.913,146.427c-34.56,16.692-66.905,38.751-103.002,52.072
			c-35.892,13.246-72.055,24.136-107.616,38.477c-84.181,33.947-173.692,49.545-262.281,67.297
			c-49.457,9.911-105.216,17.303-157.727,21.178c-51.389,3.793-107.485,9.862-158.731,2.274c-4.043-0.598-13.275-1.95-15.677-5.977
			c-0.211-0.354-0.388-0.694-0.548-1.026c-3.874-8.036,6.723-9.76,12.225-9.751c69.656,0.11,142.638-7.19,218.126-16.487
			c74.557-9.182,148.928-22.189,220.515-45.419c73.569-23.873,147.771-44.528,219.461-73.883
			c71.993-29.479,141.632-64.441,209.63-102.16c41.945-23.268,84.265-46.799,124.469-72.999c21.124-13.716,65.103-28.3,74.026-32.95
			c29.591-16.978,52.227-37.109,74.174-56.654c4.189-3.731,8.484-7.555,12.781-11.312c7.548-6.629,7.852-19.357,48.818-59.607
			c25.432-24.986,43.492-63.601,58.326-96.721c29.554-65.987,36.912-188.564,12.673-257.348
			c-21.588-61.26-49.932-121.972-84.008-177.68c-32.717-53.487-68.624-116.263-113.262-160.75
			c-72.924-72.677-154.504-136.031-236-198.68c-34.237-26.32-86.224-53.359-130.738-46.569
			c-44.861,6.842-84.179,40.446-97.979,85.442c-9.968,32.5-4.078,66.791,6.009,98.545c10.9,34.316,22.956,68.284,36.515,101.643
			c11.358,27.946,30.377,57.354,35.43,87.285c3.046,18.043-4.922,21.399-18.221,11.968c-35.088-24.884-64.422-89.551-75.738-125.402
			c-14.471-45.844-24.231-91.082-35.35-136.148c-22.2-89.986-48.667-183.333-74.507-277.918
			c-10.836-39.665-68.927-113.634-34.345-154.465c34.046-40.198,132.852-36.283,138.185-84.949
			c17.061-155.684-129.913-222.599-217.467-280.19c-43.278-28.467-95.628-38.528-146.793-37.577
			c-51.326,0.954-100.911,18.69-152.223,17.118c-43.883-1.345-97.272,3.29-132.646,32.041
			c-32.002,26.011-48.082,66.33-64.845,102.808c-42.816,93.175-77.396,196.462-82.018,299.822
			c-1.971,44.052,3.399,152.532,3.989,164.646c2.743,56.32,10.932,116.433,24.776,171.014
			c13.443,52.995,32.217,103.749,37.89,157.652c6.665,63.334,39.29,177.211,67.545,262.574
			c9.995,30.197,19.416,61.617,33.122,90.759c15.276,32.481,48,52.667,28,67.333c-19.908,14.599-44.657-38.544-53.002-58.118
			c-20.178-47.331-30.028-99.732-40.331-149.882c-11.314-55.071-34.262-103.917-50.179-157.658
			c-16.552-55.885-21.09-113.613-31.047-170.803c-8.897-51.117-15.784-102.593-20.504-154.265
			c-5.937-64.994-15.66-129.677-19.069-194.894c-3.521-67.318,8.683-127.357,16.116-193.436
			c11.567-102.835,34.863-205.976,38.018-309.61c4.667-153.334-18.667-180-83.623-276.381
			c-35.465-52.622-75.245-91.332-118.377-137.619c-43.561-46.748-91.928-91.525-139.343-131.615l-412.817,348.581
			c0.354,0.239,0.448,0.673,0.329,1.274c-0.249,1.262-1.04,2.104-1.947,3.012c-1.689,1.693-3.571,3.186-5.353,4.785
			c-0.342,0.307-0.68,0.618-1.013,0.936c-3.166,3.022-6.417,5.971-9.931,8.565c-5.813,4.294-12.169,7.793-18.666,10.931
			c-6.556,3.167-13.272,5.979-19.925,8.931c-17.029,7.556-33.292,15.524-50.661,22.214
			c-74.808,28.812-139.522,78.839-198.884,134.24c-39.793,37.138-65.111,85.787-92.467,133.269
			c-12.594,21.86-23.14,44.938-33.276,67.938c-7.436,16.871-17.823,32.471-23.688,50.042c-5.675,17-6.83,34.658-12.861,51.866
			c-8.355,23.834-14.367,45.393-20.328,69.24c-10.537,42.151-24.625,83.055-32.658,125.72c-4.111,21.834-4.856,42.542-6.792,65.035
			c-0.658,7.637-0.698,24.575-6.205,30.34c-5.757,6.027-9.17,2.748-11.371-2.813l-151.523,340.927
			c39.968,59.815,85.037,116.309,118.597,180.182c50.44,95.999,83.403,196.957,113.021,300.803
			c19.442,68.17,43.875,143.472,108.405,182.008c57.37,34.259,257.365,40.429,356.489-107.589
			c45.726-68.282,47.901-153.755,52.776-233.297c6.019-98.198,2.839-157.464-7.202-203.271
			c-14.826-67.639-45.343-130.59-71.241-194.411c-47.449-116.926-103.536-238.57-85.292-368.139
			c11.162-79.27,56.673-148.368,110.959-205.757c51.59-54.538,128.705-122.827,206.31-132.542
			c117.787-14.742,43.771,120.146,34.185,234.497c-9.185,109.551-5.283,218.469,12.911,326.998
			c17.324,103.338,46.743,204.075,68.818,306.402c20.613,95.543,39.444,195.708,74.804,287.195
			c43.053,111.393,104.731,207.174,211.658,267.161c101.849,57.138,229.946,59.377,343.731,58.34
			c149.181-1.359,227.497-15.348,394.593-59.218c79.375-20.839,162.687-35.171,240.729-60.997
			c39.89-13.201,123.739-50.731,137.705,15.417c14.664,69.458-91.646,104.306-138.639,123.489
			c-185.651,75.781-378.08,119.674-571.635,169.79c-100.074,25.911-213.729,83.258-290.688,153.525
			c-78.466,71.644-97.588,136.89-89.723,215.48c1.905,19.033,11.252,54.638,35.627,94.425
			c29.865,48.748,82.296,103.776,171.304,142.312c91.162,39.469,198.598,43.466,296.625,47.876
			c62.594,2.816,125.119,0.83,187.515-4.579c58.495-5.07,118.192-15.798,175.915-26.521c127.25-23.638,227.635-54.574,308.435-87.69
			c99.897-40.943,191.553-78.566,281.104-150.796c104.356-84.171,262.687-68.579,216.507,17.784
			c-37.922,70.919-74.367,113.95-125.944,178.721c-55.857,70.147-105.94,139.007-141.537,222.503
			c-15.981,37.487-24.969,82.947-26.722,123.47c-1.577,36.462,6.271,78.082,19.589,111.883
			c14.54,36.903,77.407,125.411,117.484,150.879c121.746,77.365,44.38,18.592,221.302,71.368
			c63.173,18.845,111.466,21.501,98.357,104.954c-6.251,39.795-19.507,84.958-41.981,118.147
			c-60.836,89.844-211.604,181.234-185.917,353.245c9.202,61.617,30.797,119.889,44.38,180.521
			c9.264,41.354,22.652,114.726-11.598,151.642c-34.582,37.273-196.552,62.946-298.733,84.368
			c-109.68,22.995-183.722,40.994-254.393,73.738c-63.149,29.26-118.89,67.975-172.353,112.464
			c-61.015,50.774-77.631,75.228-88.161,91.16c-46.804,70.815-60.406,157.874-48.579,241.095c0.689,4.851,1.507,9.645,2.404,14.402
			l276.621-8.057c-0.583-2.773-0.695-5.694-0.135-8.468c1.156-5.727,6.305-5.601,10.915-3.542
			c10.018,4.474,18.921,11.533,28.91,16.302c5.107,2.438,28.682,12.021,34.532,13.002c9.643,1.513,19.643,2.858,29.435,4.172
			c0.236,0.031,0.463,0.062,0.709,0.095c4.681,0.63,15.84-0.946,24.152-0.376c8.393,0.576,16.651,2.252,24.923,3.699
			c24.435,4.273,49.31,2.517,73.9,0.878c23.161-1.543,46.541-0.025,69.598-1.916c12.918-1.059,33.004,0.759,45.754-1.646
			c26.389-4.967,65.948-12.464,103.139-26.314c48.537-18.077,122.598-42.727,157.613-51.029
			c39.978-9.479,62.809-18.125,98.801-35.509c15.641-7.596,42.979-21.672,63.283-31.757
			c62.998-31.29,128.717-61.696,186.604-101.814c23.097-16.007,50.521-24.136,72.787-41.528
			c105.425-82.354,108.834-240.992,112.611-361.718c1.978-63.2,11.429-128.064,19.939-190.663
			c8.614-63.355,26.797-124.811,39.377-187.39c12.209-60.728,17.479-122.676,33.155-182.734
			c24.669-94.515,37.313-190.64,57.017-288.028c7.521-37.179,13.347-74.688,16.572-112.49
			C7109.917,5181.837,7104.401,5115.402,7094.76,5050.753z" color="13939253" style="fill:#d4b235;fill-opacity:1;stroke-width:10;stroke:rgb(0,0,0)"></path><path id="157961385" parent_id="157961381" order="8" structure_id="12115" d="
			M2829.787,4055.921c-48.215-51.471-102.861-96.796-161.713-135.608c-57.888-38.176-118.924-71.834-183.417-97.279
			c-68.039-26.844-140.32-40.196-212.458-51.091c-104.346-15.759-202.437-30.065-308.318-30.766
			c-227.697-1.506-218.701,25.482-397.797,19.013c-86.585-3.127-302.069,26.588-301.892-119.476
			c0.083-69.078,15.277-106.976,75.018-140.222c50.505-28.107,110.355-36.867,165.046-53.675
			c116.503-35.806,219.862-57.685,298.781-160.664c109.794-143.271,93.423-267.053-7.538-384.881
			c-25.951-30.288-53.061-59.646-83.203-85.829c-220.204-191.283-214.207-119.914-336.003-252.604
			c-28.811-31.387-52.204-69.142-73.479-105.896c-67.41-116.459-134.194-225.32-180.513-345.801
			c-18.63-48.458-31.236-97.586-44.028-147.896c-43.823-172.356-70.729-352.495-81.75-527.971
			c-2.812-44.779-4.612-110.75,0.977-132.776c22.035-86.85,99.761-113.848,179.13-117.711c50.216-2.444,102.132-1.584,152.389-3.136
			c112.096-3.46,236.241,22.329,292.329,87.386c30.969,35.921,43.984,106.687,35.072,153.846
			c-15.604,82.572-69.301,129.049-112.151,198.513c-57.595,93.366-57.057,144.517-56.355,277.629
			c0.243,46.046,9.185,118.624,24.569,161.98c28.749,81.023,275.983,340.985,306.308,376.716
			c31.568,37.196,62.188,75.399,95.595,110.946c55.201,58.736,112.221,119.669,180.122,163.885
			c65.8,42.849,138.732,75.436,213.668,98.647c68.754,21.297,140.384,27.726,212.324,21.298
			c41.753-3.731,85.276-12.155,124.927-25.759c36.021-12.358,74.31-35.542,101.943-61.609
			c48.788-46.023,72.85-114.936,72.913-181.166c0.082-86.584-43.338-159.699-71.226-238.906
			c-65.077-184.839,62.655-351.585,122.173-518.064c43.08-120.501-4.753-195.238,74.934-236.877
			c37.115-19.393,92.398-25.723,133.53-23.205c71.23,4.36,173.344,55.395,216.489,113.83
			c63.332,85.774,50.092,205.448,27.448,303.269c-25.456,109.964-34.041,222.112-46.721,333.892
			c-22.377,197.257-26.988,224.901-35.745,290.864c-6.453,48.605,4.915,98.418,11.757,146.946
			c7.743,54.919,19.663,98.919,33.585,146.935c24.728,85.28,53.809,169.479,99.155,245.888c8.453,14.243,17.378,28.18,26.573,41.94
			l151.523-340.927c-1.435-3.627-2.355-8.222-3.069-11.849c-7.855-39.934,2.771-82.695,14.118-118.892
			c7.895-25.181,13.434-50.984,19.23-76.703c5.095-22.605,14.102-44.799,18.548-67.078c15.728-78.814,35.808-157.723,58.545-233.829
			c8.035-26.896,16.654-53.085,27.027-79.157c9.765-24.544,26.404-44.399,43.092-64.791
			c38.164-46.632,107.037-44.654,160.472-58.754c19.229-5.074,38.823-9.016,57.555-14.219c7.615-2.115,15.061-4.819,22.342-7.885
			c13.213-5.563,25.9-12.286,38.474-19.148c3.081-1.682,6.153-3.379,9.229-5.07c5.542-3.047,11.093-6.078,16.728-8.951
			c5.12-2.61,10.66-6.03,16.23-7.543c3.982-1.082,8.396-1.397,12.471-2.127c4.08-0.729,8.218-1.055,12.299-1.742
			c2.256-0.38,4.396-0.814,6.555-1.589c2.246-0.806,4.533-1.483,6.62-2.677c1.735-0.993,3.48-1.905,5.279-2.745
			c0.896-0.419,2.119-1,3.115-0.985c0.367,0.006,0.641,0.08,0.837,0.212l412.817-348.581c-12.09-10.222-24.12-20.154-35.99-29.718
			c-51.916-41.834-105.232-84.69-162.875-118.598c-58.354-34.324-122.562-59.968-185.792-83.402
			c-81.288-30.127-128.267-45.373-168-92c-57.354-67.31-82.616-93.197-166.666-122c-64.513-22.108-79.04-44.241-118-66
			c-81.057-45.273-163.546-78.525-253.059-102.863c-105.881-28.788-206.002-51.454-316.325-53.333
			c-70.232-1.196-140.812-1.688-210.743,5.723c-162.296,17.201-257.099,44.595-376.422,165.47
			c-26.833,27.182-86.908,114.166-109.452,145.001c-63.572,86.951-77.177,149.332-127.952,327.174
			c-10.53,36.882-21.849,73.585-35.875,109.309c-11.935,30.396-51.602,150.561-63.474,178.545
			c-32.95,77.661-20.115,148.993-2.133,227.97c8.219,36.099,14.96,72.61,25.825,108.05c16.516,53.872,48.754,114.948,80.198,161.729
			c24.925,37.083,66.227,59.984,94.029,94.996c3.568,4.494,9.125,9.268,13.644,14.12c3.764,4.042,1.461,7.11-3.129,4.038
			c-9.993-6.688-19.697-19.814-27.512-26.234c-38.306-31.464-81.615-62.791-105.026-107.75
			c-13.868-26.633-26.964-53.616-45.028-78.003c-16.435-22.188-18.578-48.99-23.213-75.262
			c-4.481-25.409-27.162-124.768-49.965-156.865c-62.387-87.814-103.72-100.48-117.721-123.586
			c-46.684-77.042-58.666-64.895-51.999-84.895c19.159-57.474,70.582-114.29,110-158c44.833-49.714,87.153-103.51,125.117-158.732
			c21.023-30.581,40.345-62.378,56.897-95.608c23.116-46.41,37.138-96.398,51.459-146.513
			c15.488-54.196,32.802-126.59,35.861-183.146c2.441-45.142-50.208-164.941-85.041-214.104
			c-38.651-54.549-83.261-99.809-137.345-139.271c-55.767-40.69-110.67-90.042-177.272-112.21
			c-78.458-26.117-162.238-32.384-243.009-47.748c-116.252-22.115-229.333-34.667-348.492-38.869
			c-67.546-2.381-136.206-0.855-203.752,0.202c-69.295,1.084-138.714,3.388-207.522,12.183
			c-37.783,4.828-75.326,11.427-112.276,20.729c-84.029,21.155-224.685,70.38-288.623,131.088
			c-24.667,23.421-65.916,77.764-82.667,107.333c-34.962,61.711-35.187,174.148-36.666,242.667
			c-2.197,101.791-4.733,167.86,9.333,268.667c8,57.333,21.57,149.705,30.667,206.666c9.718,60.851,17.971,126.048,28.383,186.782
			c22.41,130.71,55.2,259.331,90.355,387.153c10.254,37.284,20.931,74.452,32.171,111.451
			c42.896,141.19,72.308,240.521,112.483,308.529c67.938,115.005,136.193,237.327,263.13,295.254
			c40.392,18.433,83.064,30.244,125.402,43.175c18.939,5.784,72.364,22.674,80.727,24.331
			c55.418,11.016,158.743,32.393,203.647,46.059c53.928,16.413,89.979,30.135,124.433,47.361
			c25.58,12.79,33.837,15.331,40.473,17.373c1.687,0.519,3.279,1.009,5.026,1.626c1.042,0.367,1.588,1.51,1.22,2.551
			c-0.29,0.822-1.062,1.335-1.886,1.335c-0.221,0-0.445-0.037-0.666-0.115c-1.67-0.589-3.226-1.067-4.872-1.574
			c-6.776-2.085-15.209-4.68-41.085-17.617c-34.239-17.12-70.109-30.77-123.809-47.112
			c-49.467-15.056-170.202-39.525-218.964-49.061c-33.577-6.608-79.342-8.381-113.501-10.166
			c-91.195-4.764-266.352,77.82-343.333,260c-16.539,39.142-32.592,87.023-38.826,129.053c-7.962,53.679-7.99,107.812-7.99,161.942
			c0,94.665,9.846,188.783,18.816,283.005c9.91,104.114,10.984,181.25,31.022,262.937c10.841,44.196,28.43,86.757,53.65,124.78
			c24.967,37.642,65.442,54.556,120.662,45.616c70-11.333,116.546-3.211,176.153-4.103c60.245-0.901,120.881-4.895,181.18-4.563
			c121.333,0.667,119.802,14.572,180.509,14.788l90.398,0.306c4.976,0.017,9.156-0.752,13.684-1.44
			c48.277-7.34,97.558-8.007,146.153-10.988c85.092-5.22,174.352-19.845,258.59-31.999c134-19.333,163.917-5.333,248.388,11.84
			c48.669,9.895,96.809,22.242,145.181,33.457c37.309,8.65,74.587,17.434,111.969,25.765c36.066,8.038,70.824,14.853,98.394,37.784
			l274.519-233.082C2835.372,4061.903,2832.612,4058.938,2829.787,4055.921z" color="13939253" style="fill:#d4b235;fill-opacity:1;stroke-width:10;stroke:rgb(0,0,0)"></path></g><g id="157961377" order="0" group_label_id="31" group_label="Atlas - Developing Human" sub_image_id="102291521"><path id="157961379" parent_id="157961377" order="0" structure_id="10557" d="
			M4833.229,4211.062c76.959-70.267,190.613-127.614,290.688-153.525c193.555-50.115,385.983-94.009,571.635-169.79
			c46.992-19.183,153.303-54.031,138.639-123.489c-13.966-66.148-97.815-28.618-137.705-15.417
			c-78.042,25.826-161.354,40.158-240.729,60.997c-167.096,43.87-245.412,57.858-394.593,59.218
			c-113.785,1.037-241.883-1.202-343.731-58.34c-106.927-59.987-168.605-155.769-211.658-267.161
			c-35.359-91.486-54.19-191.652-74.804-287.195c-22.075-102.327-51.494-203.064-68.818-306.402
			c-18.194-108.529-22.096-217.447-12.911-326.998c9.587-114.351,83.603-249.239-34.185-234.497
			c-77.604,9.714-154.72,78.004-206.31,132.542c-54.286,57.389-99.797,126.487-110.959,205.757
			c-18.244,129.569,37.843,251.213,85.292,368.139c25.898,63.821,56.415,126.772,71.241,194.411
			c10.041,45.808,13.221,105.073,7.202,203.271c-4.875,79.542-7.051,165.016-52.776,233.297
			c-99.124,148.019-299.119,141.849-356.489,107.589c-64.53-38.536-88.963-113.837-108.405-182.008
			c-29.618-103.846-62.581-204.804-113.021-300.803c-33.56-63.873-78.628-120.367-118.597-180.182l0,0
			c-9.195-13.761-18.121-27.697-26.573-41.94c-45.346-76.408-74.428-160.608-99.155-245.888
			c-13.922-48.016-25.842-92.016-33.585-146.935c-6.842-48.528-18.209-98.34-11.757-146.946
			c8.757-65.963,13.368-93.607,35.745-290.864c12.68-111.78,21.265-223.928,46.721-333.892
			c22.645-97.821,35.884-217.495-27.448-303.269c-43.145-58.435-145.259-109.47-216.489-113.83
			c-41.132-2.518-96.415,3.812-133.53,23.205c-79.687,41.639-31.854,116.376-74.934,236.877
			c-59.519,166.479-187.25,333.226-122.173,518.064c27.887,79.207,71.307,152.322,71.226,238.906
			c-0.062,66.23-24.125,135.143-72.913,181.166c-27.633,26.067-65.923,49.251-101.943,61.609
			c-39.651,13.604-83.174,22.027-124.927,25.759c-71.939,6.428-143.569-0.001-212.324-21.298
			c-74.936-23.212-147.869-55.799-213.668-98.647c-67.901-44.216-124.921-105.148-180.122-163.885
			c-33.407-35.547-64.026-73.75-95.595-110.946c-30.325-35.731-277.559-295.693-306.308-376.716
			c-15.385-43.357-24.327-115.935-24.569-161.98c-0.702-133.112-1.24-184.263,56.355-277.629
			c42.85-69.464,96.547-115.94,112.151-198.513c8.912-47.159-4.104-117.925-35.072-153.846
			c-56.088-65.058-180.233-90.847-292.329-87.386c-50.257,1.552-102.173,0.692-152.389,3.136
			c-79.369,3.863-157.095,30.862-179.13,117.711c-5.588,22.026-3.789,87.997-0.977,132.776
			c11.021,175.476,37.926,355.615,81.75,527.971c12.792,50.31,25.398,99.438,44.028,147.896
			c46.319,120.481,113.104,229.342,180.513,345.801c21.274,36.754,44.668,74.509,73.479,105.896
			c121.796,132.689,115.799,61.321,336.003,252.604c30.142,26.184,57.252,55.541,83.203,85.829
			c100.96,117.828,117.332,241.609,7.538,384.881c-78.919,102.979-182.278,124.858-298.781,160.664
			c-54.69,16.808-114.541,25.567-165.046,53.675c-59.741,33.246-74.934,71.144-75.018,140.222
			c-0.177,146.064,215.307,116.349,301.892,119.476c179.097,6.469,170.101-20.52,397.797-19.013
			c105.881,0.701,203.972,15.007,308.318,30.766c72.138,10.895,144.419,24.247,212.458,51.091
			c64.493,25.445,125.529,59.104,183.417,97.279c58.852,38.812,113.498,84.137,161.713,135.608c2.826,3.017,5.585,5.982,8.287,8.903
			l0,0c86.104,93.111,109.994,139.539,146.165,266.188c41.409,144.989,28.454,177.124,25.788,217.706
			c-7.701,117.269-69.837,331.967-118.269,428.933c-79.201,158.57-87.255,146.05-195.018,283.335
			c-46.701,59.493-98.488,115.549-159.487,160.653c-65.063,48.11-140.188,80.411-205.514,128.158
			c-48.703,35.598-125.804,96.016-127.158,152.812c-3.172,133.077,239.298,105.278,305.866,114.551
			c100.702,14.027,198.768,39.604,233.298,149.335c28.36,90.123-14.994,223.102-83.203,308.102
			c-79.002,98.45-115.99,127.541-241.717,195.592c-73.281,39.664-148.462,73.465-225.873,104.272
			c-33.347,13.271-82.775,27.645-115.515,42.15c-104.757,46.412-192.192,66.561-311.263,83.963
			c-70.496,10.303-153.36,20.557-220.704-7.196c-36.862-15.191-76.956-46.848-105.964-74.211
			c-128.675-121.38-199.595-290.39-246.682-458.356c-14.588-52.036-22.681-111.951-29.987-165.527
			c-14.937-109.538-41.739-256.306-22.789-511.58c3.72-50.112,10.896-101.288,20.991-150.534
			c10.515-51.298,26.124-102.432,38.338-153.356c16.151-67.345,42.1-130.273,85.807-184.895
			c83.581-104.452,143.203-143.406,395.826-190.116c68.199-12.61,150.908-23.465,205.732-69.298
			c14.843-12.409,52.232-35.025,21.775-52.759c-43.772-25.487-96.646-13.318-143.544-10.484
			c-64.471,3.896-129.993,9.446-194.394,14.327c-84.1,6.373-169.879,37.874-250.103,63.107
			c-73.791,23.209-144.555,57.075-185.673,125.941c-32.035,53.653-50.552,122.188-65.519,182.856
			c-50.442,204.47-49.689,340.848-53.376,482.786c-1.736,66.836-0.391,137.462-3.356,204.25
			c-11.003,247.869,80.511,470.786,105.671,523.195c35.446,73.837,75.731,145.184,114.424,217.332
			c35.268,65.764,86.01,141.504,100.631,215.497c9.972,50.46,15.564,102.192,14.466,153.645
			c-2.76,129.284-2.976,114.508-61.696,217.037c-39.635,69.205-94.281,124.258-139.996,189.092
			c-13.118,18.604-49.925,60.783-30.809,84.37c16.033,19.78,65.474-38.844,76.308-48.999
			c63.382-59.411,115.135-130.118,182.958-184.954c69.74-56.385,142.181-94.509,221.946-143.088
			c43.635-26.575,95.66-43.812,143.937-60.573c55.139-19.144,114.723-33.922,171.782-46.262
			c90.562-19.585,180.336-35.771,270.823-55.692c92.471-20.359,188.206-38.503,283.075-26.388
			c177.78,22.702,249.561,125.803,277.577,211.439l0,0c15.172,46.376,17.509,87.632,16.895,108.222
			c-1.236,41.407,11.761,86.958-109.752,227.301c-48.773,56.332-99.833,103.307-159.53,148.134
			c-34.282,25.742-127.367,77.569-169.125,91.76c-61.773,20.991-187.118,82.165-307.812,144.311
			c-80.33,41.362-163.42,77.138-245.071,115.813c-36.441,17.23-84.047,45.104-50,91.055c40.885,55.18,73.915,30.256,154.879,149.004
			c41.694,61.151,24.265,151.059-9.615,211.211c-22.025,39.105-50.498,73.46-83.972,102.589l0,0
			c-16.61,14.455-34.447,27.629-53.349,39.445c-179.686,112.328-350.246,74.367-418.616,123.545
			c-39.487,28.403-29.872,70.243-13.829,104.956c67.061,145.107,70.81,150.029,77.963,281.521
			c5.642,103.692-29.418,203.839-27.769,307.401c3.135,197.224,49.909,187.715,56.305,175.076
			c10.889-21.515,12.109-50.904,11.685-74.299c-1.054-58.109,11.112-120.59,21.844-177.434
			c11.526-61.051,27.049-119.014,54.322-175.212c41.035-84.553,102.56-161.771,162.529-233.298
			c59.318-70.749,116.423-142.47,194.914-193.116c66.599-42.974,155.9-75.593,235.905-81.707l0,0
			c2.781-0.213,5.552-0.399,8.31-0.547c145.137-7.78,249.176,181.578,254.767,241.784c8.836,95.161-47.741,176.585-97.297,251.679
			c-27.447,41.592-128.447,221.909-114.976,254.378c5.789,13.947,96.61-2.71,218.874-169.113
			c30.808-41.932,58.679-85.695,87.242-129.142c52.611-80.023,99.418-161.76,141.854-247.986
			c56.375-114.55,42.964-155.836,73.768-277.678c20.857-82.498,52.136-164.859,112.75-226.101
			c13.768-13.91,47.337-36.678,86.952-59.623l0,0c63.173-36.591,141.727-73.633,179.931-75.918
			c59.92-3.585,130.702-6.598,185.362-34.403c63.812-32.46,85.442-99.687,109.567-162.19c14.48-37.515,28.782-78.984,50.039-113.289
			c65.446-105.617,164.987-113.697,276.712-92.154c78.333,15.104,151.192,47.181,223.314,80.275
			c69.196,31.753,167.481,101.618,231.771,20.303c32.988-41.727-2.823-114.027-25.63-151.945
			c-28.546-47.461-69.988-85.432-111.922-120.856c-62.206-52.551-120.088-105.772-150.666-183.087
			c-32.404-81.934-54.265-172.833-42.441-261.282c14.051-105.118,77.487-211.226,169.388-278.134l0,0
			c43.606-31.748,93.613-54.683,147.81-64.478c24.917-4.503,122.359-36.61,256.115,35.221
			c100.471,53.957,174.233,146.213,232.057,242.092c45.044,74.688,88.87,147.834,111.593,232.9
			c22.49,84.201,36.939,167.979,51.579,253.688c6.018,35.228,26.008,202.987,72.567,227.3c56.3,29.399,108.568-30.42,118.149-77.367
			c14.568-71.381-31.289-149.172-45.58-218.905c-29.213-142.544-74.518-364.789,90.298-447.452
			c63.384-31.79,138.86-35.704,205.372-11.347c99.438,36.415,174.557,118.199,244.782,194.942
			c65.281,71.34,128.264,176.997,183.902,272.533c67.756,116.344,116.978,181.837,250.439,194.352
			c119.863,11.239,204.035-12.629,288.133-71.438l0,0c36.47-25.503,72.925-57.567,112.271-96.205
			c19.167-18.822,76.166-59.974,73.167-82.764c-3.854-29.29-41.789-20.204-60.495-16.235
			c-141.153,29.944-310.282-5.757-437.657-68.565c-72.263-35.634-154.404-103.15-206.403-173.847
			c-50.454-68.595-98.181-138.676-114.079-222.934l0,0c-0.897-4.758-1.715-9.552-2.404-14.402
			c-11.827-83.221,1.775-170.279,48.579-241.095c10.53-15.933,27.146-40.386,88.161-91.16
			c53.463-44.489,109.203-83.204,172.353-112.464c70.671-32.744,144.713-50.743,254.393-73.738
			c102.182-21.422,264.151-47.095,298.733-84.368c34.25-36.916,20.861-110.288,11.598-151.642
			c-13.583-60.633-35.178-118.904-44.38-180.521c-25.687-172.011,125.081-263.401,185.917-353.245
			c22.475-33.189,35.73-78.353,41.981-118.147c13.108-83.453-35.185-86.109-98.357-104.954
			c-176.922-52.776-99.556,5.997-221.302-71.368c-40.077-25.468-102.944-113.976-117.484-150.879
			c-13.318-33.801-21.166-75.42-19.589-111.883c1.753-40.523,10.74-85.983,26.722-123.47
			c35.597-83.496,85.68-152.356,141.537-222.503c51.577-64.771,88.022-107.802,125.944-178.721
			c46.18-86.362-112.15-101.955-216.507-17.784c-89.552,72.23-181.207,109.853-281.104,150.796
			c-80.8,33.116-181.185,64.053-308.435,87.69c-57.723,10.723-117.42,21.451-175.915,26.521
			c-62.396,5.408-124.921,7.395-187.515,4.579c-98.027-4.41-205.463-8.407-296.625-47.876
			c-89.008-38.536-141.438-93.564-171.304-142.312l0,0c-24.375-39.788-33.722-75.393-35.627-94.425
			C4735.642,4347.952,4754.764,4282.706,4833.229,4211.062z M4808.296,5301.273c52.927-25.042,105.614-49.814,158.797-73.7
			c29.373-13.193,58.897-26.115,88.697-38.663c73.216-30.83,136.635-80.56,209.845-111.407
			c138.522-58.367,296.199-103.685,445.482-59.118c63.82,19.053,122.43,56.317,170.031,103.946
			c58.958,58.992,90.341,134.595,133.362,204.881c17.538,28.653,36.288,56.582,56.193,83.645
			c28.216,38.36,46.781,84.359,80.794,117.891c16.694,16.458,42.233,29.379,46.719,53.522c4.41,23.737,5.624,51.822-6.548,73.593
			c-6.595,11.796-17.07,15.508-26.832,23.958c-13.801,11.946-27.32,24.191-41.369,35.854c-10.406,8.639-20.789,17.984-31.278,26.333
			c-29.044,23.116-63.702,28.354-95.425,45.046c-16.212,8.529-29.513,17.559-47.166,22.987
			c-19.11,5.876-38.592,10.436-57.877,15.683c-11.577,3.15-23.929,7.723-35.167,12.552c-25.851,11.108-51.79,22.099-76.993,34.673
			c-25.364,12.654-52.522,22.265-77.52,35.505c-19.729,10.45-38.58,23.08-58.487,33.271c-18.243,9.338-37.569,15.25-55.987,23.823
			c-48.233,22.452-95.518,22.101-147.342,25.177c-24.017,1.426-46.762,10.501-70.655,12.521c-24.761,2.094-49.785,4.589-74.67,6.582
			c-49.333,3.951-97.24,1.068-146.452,1.67c-80.622,0.985-160.86-0.996-241.194-0.996c-16.671,0-32.935-1.046-49.75-1
			c-18.887,0.052-37.686,0.03-56.755,0.777c-37.032,1.451-71.587-1.841-108.249-5.777c-17.217-1.849-34.188-3.496-51-6.945
			c-31.641-6.491-63.673-12.313-94.028-24.026c-25.373-9.79-50.909-22.835-73.995-37.3c-20.87-13.075-41.118-28.451-56.849-47.558
			c-19.052-23.143-27.618-56.085-36.738-84.169c-10.611-32.679-14.834-68.046-8.335-102.002c6.73-35.157,23.323-65.709,40.668-97
			c9.695-17.491,20.803-33.104,33.055-49.051c31.371-40.836,67.586-71.426,110.439-99.89c23.158-15.383,45.075-32.324,68.871-46.83
			C4685.523,5372.585,4743.437,5331.962,4808.296,5301.273z" color="15921648" style="fill:#f2f1f0;fill-opacity:1;stroke-width:10;stroke:rgb(0,0,0)"></path></g><g id="157961422" order="0" group_label_id="113753816" group_label="Atlas - Developing Human Sulci" sub_image_id="102291521"><path id="157961430" parent_id="157961422" order="0" structure_id="146034836" d="M1039.234,7955.117c-0.424,0.176,0.01,21.848,0.161,28.812
			c-62.059-22.088-88.462-13.527-128.333-0.584c-7.977,2.59-16.226,5.269-25.525,7.971c-0.929,0.271-2.205,0.71-3.718,1.259
			c-18.729-2.272-92.679-9.146-92.971-8.577c-0.336,0.648,26.772,31.396,26.772,31.396s-3.372,39.02-3.948,40.984
			c1.755-2.078,55.729-46.869,70.635-59.725c1.82-0.67,3.341-1.205,4.346-1.498c9.361-2.72,17.639-5.406,25.645-8.006
			c39.051-12.678,64.93-21.064,125.572,0.481c-4.87,4.858-19.478,19.401-20.483,20.047c2.295-0.401,72.829,0.138,73.202-0.31
			C1090.968,8006.92,1039.739,7954.906,1039.234,7955.117z" color="7171696" style="fill:#6d6e70;fill-opacity:1;stroke-width:10;stroke:rgb(0,0,0)"></path><path id="157961428" parent_id="157961422" order="1" structure_id="10639" d="M3786.98,2215.875c0,1.28-1.031,2.312-2.31,2.312
			c-1.285,0-2.316-1.031-2.316-2.312c0-1.282,1.031-2.314,2.316-2.314C3785.949,2213.561,3786.98,2214.593,3786.98,2215.875z" color="7171696" style="fill:#6d6e70;fill-opacity:1;stroke-width:10;stroke:rgb(0,0,0)"></path><path id="157961426" parent_id="157961422" order="2" structure_id="10631" d="M7061.181,6445.349c-0.48-0.341,3.689,41.089,3.689,41.089
			s32.34,25.188,32.131,25.889c-0.208,0.699-97.129,9.724-97.275,8.951C6999.581,6520.504,7061.663,6445.689,7061.181,6445.349z" color="7171696" style="fill:#6d6e70;fill-opacity:1;stroke-width:10;stroke:rgb(0,0,0)"></path><path id="157961425" parent_id="157961422" order="3" structure_id="13222" d="M4589.137,8224.849c0.485-0.334-39.851-10.673-39.851-10.673
			s-34.776,21.701-35.361,21.264c-0.585-0.436,24.285-94.545,25.061-94.416C4539.761,8141.153,4588.651,8225.185,4589.137,8224.849z
			" color="7171696" style="fill:#6d6e70;fill-opacity:1;stroke-width:10;stroke:rgb(0,0,0)"></path><path id="157961424" parent_id="157961422" order="4" structure_id="13221" d="M3247.749,8639.275c0.184-0.561-38.161,15.674-38.161,15.674
			s-14.498,38.344-15.229,38.351c-0.73,0.008-38.012-89.909-37.317-90.277C3157.738,8602.655,3247.566,8639.836,3247.749,8639.275z" color="7171696" style="fill:#6d6e70;fill-opacity:1;stroke-width:10;stroke:rgb(0,0,0)"></path><path id="157961429" parent_id="157961422" order="5" structure_id="10624" d="M1900.924,9719.254c0.325-0.491-40.942,5.065-40.942,5.065
			s-24.089,33.167-24.796,32.981c-0.706-0.186-12.976-96.748-12.209-96.92C1823.745,9660.21,1900.601,9719.748,1900.924,9719.254z" color="7171696" style="fill:#6d6e70;fill-opacity:1;stroke-width:10;stroke:rgb(0,0,0)"></path><path id="157961427" parent_id="157961422" order="6" structure_id="10615" d="M587.894,4239.735c0.094,0.582,26.735-31.419,26.735-31.419
			s-4.683-40.723-4.038-41.064c0.644-0.341,74.987,62.496,74.538,63.141C684.679,4231.037,587.799,4239.153,587.894,4239.735z" color="7171696" style="fill:#6d6e70;fill-opacity:1;stroke-width:10;stroke:rgb(0,0,0)"></path><path id="157961431" parent_id="157961422" order="7" structure_id="10615" d="M1085.272,7872.622c-0.105-0.58-72.828,5.851-72.986,6.374
			c-0.133,0.436,16.586,13.675,22.192,18.098c-50.859,20.34-111.46-14.147-144.12-32.742c-7.438-4.233-13.314-7.578-17.254-9.207
			c-1.06-0.438-2.077-0.91-3.122-1.42c-11.246-14.521-58.929-72.496-59.539-72.303c-0.697,0.218-3.451,41.117-3.451,41.117
			s-30.191,25.164-31.892,26.048c2.654-0.22,71.845,6.521,91.863,8.101c1.552,0.785,3.048,1.508,4.613,2.154
			c3.708,1.531,9.486,4.82,16.803,8.986c26,14.801,69.388,39.502,112.248,39.502c12.13,0,24.226-1.987,35.864-6.73
			c0.637,6.715,2.589,27.501,2.446,28.693C1040.086,7927.268,1085.378,7873.193,1085.272,7872.622z" color="7171696" style="fill:#6d6e70;fill-opacity:1;stroke-width:10;stroke:rgb(0,0,0)"></path></g><g id="157961465" order="0" group_label_id="141667008" group_label="Atlas - Developing Human Hotspots" sub_image_id="102291521"><path id="157961467" parent_id="157961465" order="0" structure_id="10194" d="
			M4121.998,7931.807c-1.944-1.944-5.126-1.944-7.071,0l-57.387,57.389c-1.945,1.944-1.945,5.127,0,7.07l57.387,57.389
			c1.945,1.945,5.127,1.945,7.071,0l57.389-57.389c1.944-1.943,1.944-5.126,0-7.07L4121.998,7931.807z M4129.426,7978.688
			c-2.75,0-5,2.25-5,5v29.812c0,2.75-2.25,5-5,5h-1.926c-2.75,0-5-2.25-5-5v-29.812c0-2.75-2.25-5-5-5h-8.242c-2.75,0-5-2.25-5-5
			v-1.727c0-2.75,2.25-5,5-5h38.41c2.75,0,5,2.25,5,5v1.727c0,2.75-2.25,5-5,5H4129.426z" color="14865575" style="fill:#e2d4a7;fill-opacity:1;stroke-width:10;stroke:rgb(0,0,0)"></path></g></g></svg>
