<svg id="the_svg_wrapper" class="svg_wrapper" width="100%" height="100%" version="1.1" xmlns="http://www.w3.org/2000/svg"><g id="master_group" transform="translate(0,0) scale(0.02734375)" width="52383" height="73728" image_id="102291549" image_url="/external/devhuman/prod14/3760000408/3760000408.aff"><g id="157963602" order="0" group_label_id="31" group_label="Atlas - Developing Human" sub_image_id="102291549"><clippath><path id="zap_container_graphics_clip" d="M 0 0 L 1498 0 L 1498 312 L 0 312 L 0 0" style="fill:#000000;fill-opacity:1;stroke-width:10;stroke:rgb(0,0,0)"></path></clippath><path id="157963605" parent_id="157963602" order="0" structure_id="10557" d="
			M6628.528,4586.947c-6.267-23.619-22.997-41.545-32.7-63.252c-10.142-22.689-26.717-42.226-37.14-65.04
			c-46.679-102.167-81.021-208.405-132.769-308.879c-19.709-38.268-35.134-78.575-54.995-116.767
			c-17.126-32.932-38.115-63.833-57.402-95.518c-19.35-31.786-39.285-63.429-65.024-90.506
			c-26.651-28.036-57.518-51.609-87.52-75.875c-30.237-24.457-65.687-43.666-98.479-65.059
			c-51.554-33.634-103.328-66.935-155.686-99.305c-48.104-29.74-99.036-56.291-143.928-90.874
			c-24.389-18.789-46.993-40.127-65.358-64.925c-46.456-62.728-82.54-131.146-118.351-200.235
			c-40.406-77.954-83.791-154.48-124.804-232.148c-11.59-21.949-23.252-43.86-35.127-65.657
			c-28.634-52.566-71.625-106.699-138.772-86.658c-61.332,18.306-111.021,54.795-165.377,86.729
			c-58.727,34.5-116.549,71.112-175.47,105.552c-54.449,31.827-107.69,67.019-151.116,113.238
			c-72.914,77.604-138.248,171.25-159.016,275.872c-29.519,148.707-41.677,298.804-75.974,446.243
			c-15.154,65.146-30.728,137.209-56.128,198.981c-20.085,48.847-50.364,93.047-89.493,128.602
			c-28.335,25.747-60.229,44.968-91.419,66.582c-25.427,17.62-55.224,27.774-84.814,35.915
			c-28.467,7.831-59.333,18.037-89.167,18.037c-62.563,0-119.566-23.018-175.245-49.549c-1.45-0.691-2.894-1.396-4.337-2.103
			c-0.008-0.004-0.016-0.008-0.023-0.012c-1.668-0.818-3.33-1.647-4.987-2.486c-0.115-0.058-0.23-0.115-0.345-0.173
			c-1.594-0.808-3.182-1.628-4.765-2.456c-0.179-0.093-0.357-0.185-0.535-0.278c-1.535-0.805-3.063-1.621-4.589-2.444
			c-0.222-0.12-0.445-0.238-0.667-0.358c-1.479-0.801-2.951-1.613-4.42-2.431c-0.27-0.15-0.539-0.298-0.808-0.449
			c-1.427-0.798-2.848-1.607-4.265-2.421c-0.308-0.176-0.615-0.351-0.922-0.529c-1.378-0.796-2.75-1.602-4.119-2.413
			c-0.344-0.204-0.688-0.406-1.031-0.611c-1.334-0.795-2.663-1.6-3.988-2.41c-0.373-0.228-0.745-0.454-1.117-0.683
			c-1.293-0.796-2.582-1.6-3.867-2.409c-0.4-0.252-0.801-0.504-1.201-0.758c-1.251-0.794-2.497-1.596-3.74-2.402
			c-0.43-0.278-0.859-0.557-1.287-0.837c-1.213-0.793-2.42-1.593-3.624-2.398c-0.452-0.303-0.904-0.605-1.356-0.91
			c-1.176-0.793-2.347-1.592-3.515-2.396c-0.476-0.327-0.949-0.655-1.423-0.984c-1.14-0.792-2.274-1.588-3.406-2.391
			c-0.495-0.352-0.99-0.705-1.484-1.059c-1.104-0.79-2.205-1.585-3.302-2.387c-0.516-0.377-1.03-0.755-1.545-1.135
			c-1.07-0.789-2.138-1.583-3.2-2.382c-0.531-0.399-1.061-0.801-1.59-1.203c-1.041-0.79-2.079-1.584-3.112-2.385
			c-0.545-0.422-1.088-0.846-1.631-1.271c-1.009-0.79-2.016-1.582-3.018-2.381c-0.562-0.447-1.121-0.898-1.681-1.349
			c-0.977-0.787-1.952-1.577-2.922-2.373c-0.574-0.471-1.146-0.946-1.718-1.42c-0.947-0.786-1.893-1.573-2.833-2.368
			c-0.589-0.497-1.175-0.999-1.761-1.499c-0.915-0.782-1.83-1.565-2.738-2.355c-0.602-0.522-1.199-1.05-1.797-1.576
			c-0.888-0.78-1.774-1.561-2.654-2.349c-0.609-0.545-1.215-1.095-1.82-1.644c-0.86-0.779-1.72-1.558-2.573-2.344
			c-0.621-0.572-1.238-1.15-1.856-1.727c-0.829-0.773-1.658-1.546-2.48-2.326c-0.634-0.601-1.262-1.208-1.892-1.813
			c-0.798-0.767-1.597-1.532-2.389-2.305c-0.646-0.63-1.284-1.267-1.925-1.901c-0.769-0.76-1.538-1.518-2.3-2.284
			c-0.653-0.657-1.3-1.321-1.948-1.982c-0.74-0.755-1.482-1.507-2.217-2.268c-0.664-0.688-1.321-1.383-1.98-2.076
			c-0.708-0.744-1.42-1.486-2.123-2.236c-0.676-0.721-1.343-1.45-2.014-2.176c-0.677-0.733-1.357-1.464-2.029-2.203
			c-0.688-0.756-1.366-1.52-2.048-2.281c-0.645-0.719-1.293-1.435-1.933-2.16c-0.711-0.807-1.413-1.622-2.118-2.434
			c-0.598-0.689-1.2-1.373-1.794-2.066c-0.749-0.876-1.487-1.761-2.229-2.643c-0.54-0.643-1.085-1.279-1.621-1.925
			c-0.826-0.995-1.641-2-2.457-3.004c-0.44-0.542-0.888-1.078-1.325-1.623c-1.25-1.553-2.488-3.115-3.714-4.688
			c-27.071-34.727-44.649-76.58-63.082-116.408c-38.005-82.119-53.988-172.144-63.2-261.559
			c-6.922-67.188-13.057-134.311-13.458-201.903c-0.238-40.163,6.675-79.892,7.093-120.012c0.45-43.102,5.123-86.081,4.315-129.222
			c-1.029-54.972-8.057-106.985-27.924-158.493c-19.598-50.81-46.631-97.896-75.527-143.896
			c-16.011-25.488-32.53-50.646-48.761-75.992c-18.608-29.057-37.007-58.291-53.172-88.798
			c-10.191-19.232-19.787-38.777-30.211-57.888c-15.67-28.727-22.163-61.655-30.691-92.938
			c-9.244-33.909-18.173-66.344-22.025-101.023c-4.369-39.332-7.994-80.63-6.002-120.224c1.831-36.374-2.159-73.531-2.598-110.16
			c-0.922-76.926,3.294-154.454,19.293-229.868c2.66-12.537,5.648-25.005,9.007-37.373c11.476-42.264,30.866-84.482,44.257-125.867
			c23.139-71.509,63.79-163.234,39.04-237.484c-21-63-89.453-100.691-146-90c-70.906,13.406-136.055,69.161-128.926,147.857
			c5.385,59.44,19.842,114.304,17.827,174.767c-1.826,54.774-9.322,109.172-12.13,163.887
			c-10.372,202.065-74.745,433.421-210.844,587.381c-32.852,37.163-66.095,66.51-110.119,88.435
			c-26.506,13.201-53.652,24.473-80.858,33.442c-91.658,30.223-184.007,34.245-254.95-2.769c-63.092-32.917-123.205-98.202-171-150
			c-31.804-34.468-70.326-77.043-97.582-115.47c-24.398-34.397-36.187-74.385-56.57-110.978
			c-20.295-36.436-33.42-72.574-47.105-111.105c-27.016-76.064-40.366-155.318-50.064-235.182
			c-3.173-26.127-6.291-52.26-9.616-78.368c-7.403-58.132-14.176-116.346-20.089-174.648c-3.88-38.261-8.812-76.258-12.973-114.197
			c-1.966-17.931-4.697-36.326-8.223-54c-18.58-93.146-46.751-181.015-110.777-254.052c-13.656-15.578-28.55-29.412-45-42.777
			c-35.048-28.477-70.796-58.439-110.974-79.472c-36.498-19.109-71.68-41.127-109.026-58.754
			c-21.165-9.99-42.52-19.597-64.251-28.271c-89.421-35.693-181.527-56.827-275.585-76.485c-23.834-4.98-47.792-9.411-71.896-12.876
			c-37.229-5.352-73.25-11.483-111.053-9.993c-44.244,1.745-91.14,7.544-134.115,18.467c-20.203,5.139-32.973,14.725-47.114,29.832
			c-60.961,65.14,32.501,145.231,83.018,180.329c49.741,34.558,90.505,78.327,134.025,119.975
			c22.792,21.811,46.418,49.259,62.972,76.025c35.603,57.566,59.604,124.211,69.751,190.974
			c9.614,63.25-15.161,128.436-33.641,188.27c-9.682,31.348-25.23,57.791-42.519,85.029c-17.009,26.799-32.018,50.724-56.592,71.727
			c-20.815,17.79-47.347,28.066-70.713,41.973c-24.625,14.656-49.446,29.412-72.905,46.048
			c-37.199,26.38-72.459,60.86-101.405,96.003c-35.854,43.528-68.554,101.646-74.925,158.365
			c-6.047,53.829,17.617,98.577,48.246,141.015c48.979,67.864,126.151,118.92,194.179,165.912
			c25.156,17.376,46.69,40.181,62.772,66.463c25.456,41.602,56.742,93.104,56.751,143.523c0.004,21.39-0.009,43.648-3.948,64.699
			c-9.472,50.614-41.97,95.19-79.215,129.039c-49.213,44.724-99.206,88.545-147.785,133.961
			c-39.68,37.094-75.688,70.823-96.493,121.724c-18.728,45.82-24.438,102.271,0.983,146.773
			c34.887,61.073,96.959,51.509,158.953,42.089c35.418-5.381,70.103-7.352,105.004-14.846
			c101.177-21.726,193.115-42.33,298.337-31.204c99.573,10.528,193.095,47.574,272.321,108.948
			c131.027,101.504,147.048,272.494,169.818,426.223c9.054,61.123,18.339,122.534,22.974,184.293
			c3.109,41.43,9.304,82.534,14.351,123.751c4.667,38.125,6.981,76.792,15.924,114.249c10.463,43.833,25.549,81.301,45.162,121.438
			c20.8,42.569,56.195,75.805,83.057,114.313c22.061,31.627,41.891,64.529,53.531,101.227
			c33.136,104.508,2.276,204.281-67.102,285.779c-18.393,21.607-38.44,43.09-59.771,61.841c-2.824,2.483-5.613,4.996-8.379,7.525
			c-0.047,0.043-0.094,0.086-0.141,0.129c-2.745,2.512-5.468,5.04-8.18,7.573c-2.251,2.103-4.495,4.207-6.739,6.308
			c-0.188,0.176-0.375,0.351-0.562,0.526c-0.58,0.543-1.16,1.085-1.74,1.627c-1.143,1.068-2.286,2.136-3.431,3.199
			c-0.226,0.21-0.452,0.418-0.678,0.628c-1.035,0.96-2.071,1.918-3.11,2.873c-0.328,0.302-0.655,0.604-0.983,0.904
			c-1.191,1.093-2.387,2.181-3.585,3.265c-0.285,0.257-0.57,0.513-0.855,0.77c-1.13,1.017-2.264,2.03-3.402,3.037
			c-0.168,0.149-0.336,0.299-0.504,0.448c-1.243,1.097-2.494,2.184-3.749,3.266c-0.298,0.257-0.598,0.514-0.897,0.771
			c-1.27,1.087-2.545,2.168-3.83,3.237c-0.172,0.144-0.346,0.284-0.519,0.427c-1.185,0.982-2.377,1.954-3.577,2.918
			c-0.257,0.207-0.514,0.416-0.772,0.622c-1.298,1.036-2.605,2.06-3.923,3.073c-0.279,0.215-0.56,0.427-0.839,0.64
			c-1.304,0.994-2.616,1.979-3.941,2.948c-0.079,0.058-0.157,0.117-0.236,0.175c-1.373,1.001-2.763,1.983-4.161,2.955
			c-0.305,0.211-0.609,0.423-0.915,0.633c-1.391,0.955-2.792,1.897-4.211,2.821c-0.212,0.138-0.427,0.272-0.639,0.41
			c-1.312,0.847-2.636,1.679-3.974,2.497c-0.251,0.153-0.5,0.31-0.752,0.462c-1.449,0.877-2.916,1.733-4.397,2.574
			c-0.319,0.181-0.641,0.359-0.962,0.539c-1.534,0.856-3.079,1.701-4.65,2.517c-34.25,17.778-70.928,30.979-108.446,39.916
			c-61.685,14.691-123.636,18.189-186.42,18.189c-44.526,0-88.933-4.456-132.903-11.247c-40.037-6.183-81.773-12.104-119.996-25.992
			c-31.211-11.341-56.626-25.785-83.875-45.062c-28.178-19.933-56.703-38.045-82.171-61.728
			c-54.024-50.237-97.424-110.524-147.778-164.194c-13.893-14.808-33.52-32.979-55.495-24.489
			c-13.962,5.395-21.439,19.515-26.03,32.91c-10.568,30.84-8.525,63.854-11.804,95.807c-5.332,51.943-4.324,106.39-1.075,158.487
			c3.542,56.784,8.367,113.491,10.676,170.348c3.977,97.926,9.958,198.587,0,297.029c-5.225,51.651-3.035,104.431-8.846,156.085
			c-8.208,72.972-22.999,145.463-30.158,218.957c-4.167,42.788-4.597,86.446-8.846,129.013
			c-8.526,85.418-4.357,169.169,6.001,252.025c11.047,88.374,45.056,187.494,105.598,257.272
			c23.839,27.476,54.288,56.792,85.702,75.553c30.155,18.008,59.79,30.71,84.499,55.864c1.62,1.649,3.221,3.336,4.806,5.055
			c0.533,0.578,1.053,1.182,1.581,1.768c1.044,1.155,2.089,2.308,3.116,3.493c0.627,0.724,1.24,1.472,1.861,2.206
			c0.911,1.076,1.826,2.147,2.724,3.247c0.661,0.809,1.307,1.641,1.96,2.461c0.84,1.055,1.683,2.104,2.51,3.177
			c0.674,0.874,1.334,1.769,2,2.654c0.787,1.048,1.577,2.09,2.352,3.154c0.68,0.934,1.348,1.886,2.019,2.832
			c0.74,1.043,1.482,2.081,2.21,3.139c0.681,0.987,1.349,1.99,2.021,2.989c0.699,1.042,1.399,2.08,2.087,3.135
			c0.677,1.036,1.342,2.087,2.009,3.136c0.661,1.04,1.322,2.079,1.972,3.13c0.673,1.087,1.333,2.185,1.995,3.283
			c0.622,1.033,1.243,2.066,1.855,3.109c0.667,1.139,1.324,2.286,1.98,3.437c0.583,1.022,1.165,2.046,1.738,3.077
			c0.662,1.189,1.313,2.387,1.961,3.588c0.544,1.007,1.086,2.016,1.62,3.031c0.656,1.243,1.302,2.494,1.943,3.749
			c0.504,0.985,1.004,1.973,1.5,2.965c0.649,1.301,1.29,2.606,1.924,3.917c0.463,0.958,0.922,1.917,1.376,2.88
			c0.643,1.36,1.278,2.725,1.905,4.095c0.422,0.922,0.837,1.846,1.251,2.772c0.637,1.424,1.267,2.852,1.886,4.286
			c0.378,0.876,0.749,1.754,1.12,2.633c0.633,1.497,1.259,2.996,1.871,4.502c0.332,0.815,0.657,1.635,0.983,2.453
			c0.628,1.577,1.251,3.156,1.858,4.742c0.284,0.742,0.561,1.487,0.84,2.231c0.627,1.67,1.248,3.342,1.85,5.021
			c0.232,0.646,0.456,1.294,0.684,1.941c0.628,1.78,1.249,3.562,1.849,5.349c0.176,0.524,0.345,1.051,0.519,1.576
			c0.633,1.915,1.258,3.832,1.859,5.753c0.11,0.352,0.214,0.704,0.323,1.056c0.649,2.097,1.285,4.194,1.895,6.297
			c0.03,0.102,0.057,0.204,0.086,0.306c7.605,26.293,12.119,52.912,12.995,77.893l0,0.004v0.002
			c0.041,1.159,0.074,2.315,0.099,3.467c0.044,1.802,0.076,3.598,0.076,5.378c0.001,40.23-9.982,86.259-28.818,121.994
			c-6.208,11.776-12.563,22.66-19.503,34c-14.265,23.308-29.48,46.147-46.563,67.498c-15.601,19.498-24.618,43.384-39.686,63.45
			c-70.911,94.436-170.169,157.288-255,237.075c-29.614,27.854-59.166,56.315-84.777,88.028
			c-11.868,14.694-22.339,31.39-32.219,47.944c-5.446,9.125-10.141,18.932-13.781,29.032c-5.706,15.835-9.576,25.561-7.111,42.534
			c2.284,15.731,9.167,30.936,24.108,38.242c36.603,17.9,76.236-21.129,103.53-40.583c51.91-36.998,105.672-70.939,159.129-106.051
			c74.771-49.111,157.215-93.352,225.774-151.369c27.308-23.109,55.263-45.468,83.953-66.838
			c49.963-37.214,100.154-68.919,159.132-90.385c57.84-21.052,118.516-33.141,179.233-42.356
			c92.431-14.029,187.111,22.465,253.613,87.076c11.428,11.103,22.029,23.029,31.638,35.679
			c30.582,40.262,62.481,90.524,60.742,142.63c-1.864,55.854-24.889,107.896-39.256,161.144
			c-5.587,20.707-6.896,41.179-16.426,60.354c-9.951,20.022-21.237,39.342-32.06,58.895c-9.254,16.719-19.106,33.139-28,49.948
			c-21.271,40.202-41.026,81.933-70.585,116.829c-31.447,37.125-64.434,74.447-98.273,108.176
			c-49.675,49.513-103.719,94.341-159.847,136.323c-55.157,41.257-112.675,77.635-169.74,115.695
			c-42.925,28.632-85.269,58.219-131.026,82.251c-38.484,20.206-77.859,40.801-115.203,63.079
			c-42.965,25.632-100.275,69.511-97.544,124.969c2.11,42.844,19.555,82.895,20.997,125.507c1.034,30.578-1.238,61.562-6.817,91.936
			c-6.432,35.02-17.261,69.224-32.514,101.044c-27.255,56.861-64.703,107.979-94.453,163.463
			c-26.082,48.643-45.146,99.858-60.467,152.757c-8.916,30.784-18.065,64.361-22.775,96.02
			c-8.731,58.686-5.065,119.527-4.22,178.648c0.479,33.465,1.31,66.284,7.34,99.086c5.996,32.614,14.735,64.537,24.184,96.299
			c4.453,14.97,9.681,29.59,15.75,43.971c8.346,19.775,14.249,36.014,28.72,52.242c11.812,13.246,37.302,17.852,45.88-0.925
			c10.205-22.335-5.4-53.345-7.921-76.188c-3.525-31.939-4.86-68.174-3.156-101.855c4.853-95.917,27.067-189.361,72.76-275.872
			c42.885-81.194,106.529-147.74,161.888-220.161c54.489-71.283,112.433-138.954,177.855-200.596
			c47.703-44.945,104.668-86.547,160.554-120.12c20.213-12.14,41.157-21.748,62.349-30.003
			c40.822-15.899,85.695-35.855,129.673-40.669c1.939-0.212,3.881-0.392,5.822-0.552c0.611-0.05,1.223-0.088,1.834-0.133
			c1.348-0.1,2.695-0.191,4.043-0.266c0.691-0.038,1.383-0.07,2.075-0.102c1.311-0.061,2.622-0.107,3.933-0.145
			c0.655-0.018,1.31-0.037,1.965-0.05c1.485-0.028,2.97-0.039,4.454-0.038c0.458,0.001,0.916-0.006,1.374-0.003
			c3.968,0.027,7.933,0.162,11.892,0.396c0.433,0.025,0.864,0.058,1.296,0.086c1.564,0.101,3.128,0.216,4.691,0.349
			c0.479,0.04,0.958,0.083,1.436,0.127c1.597,0.146,3.192,0.308,4.786,0.485c0.372,0.041,0.744,0.08,1.116,0.123
			c6.077,0.707,12.13,1.648,18.149,2.812c0.137,0.026,0.273,0.055,0.409,0.081c1.88,0.366,3.756,0.757,5.628,1.167
			c0.185,0.04,0.369,0.08,0.554,0.121c1.958,0.434,3.913,0.889,5.862,1.369c0.009,0.002,0.019,0.004,0.028,0.006
			c13.199,3.252,26.182,7.564,38.821,12.818c0.043,0.018,0.086,0.035,0.129,0.054c11.233,4.676,22.191,10.096,32.786,16.181
			c0.104,0.061,0.208,0.119,0.311,0.18c4.192,2.414,8.328,4.931,12.399,7.548c0.056,0.036,0.11,0.071,0.166,0.107
			c1.979,1.273,3.942,2.571,5.89,3.891c0.086,0.059,0.172,0.116,0.258,0.174c3.942,2.677,7.819,5.448,11.628,8.308
			c0.198,0.148,0.396,0.298,0.594,0.447c3.771,2.846,7.475,5.774,11.104,8.789c0.157,0.131,0.312,0.263,0.468,0.393
			c1.649,1.376,3.283,2.77,4.901,4.18c0.21,0.183,0.422,0.365,0.633,0.549c3.472,3.041,6.869,6.16,10.188,9.35
			c0.285,0.273,0.568,0.548,0.852,0.822c1.532,1.483,3.05,2.98,4.547,4.494c0.098,0.1,0.198,0.197,0.296,0.297
			c1.614,1.637,3.206,3.292,4.779,4.963c0.235,0.249,0.465,0.501,0.699,0.751c1.324,1.417,2.632,2.845,3.925,4.285
			c0.294,0.327,0.59,0.654,0.883,0.983c2.963,3.329,5.842,6.72,8.635,10.167c0.325,0.401,0.647,0.804,0.969,1.206
			c1.182,1.475,2.349,2.959,3.499,4.455c0.206,0.268,0.416,0.533,0.621,0.802c1.329,1.741,2.634,3.497,3.918,5.265
			c0.262,0.36,0.517,0.724,0.776,1.084c1.036,1.441,2.057,2.892,3.063,4.35c0.312,0.452,0.625,0.903,0.934,1.357
			c1.222,1.793,2.427,3.596,3.602,5.412c0.022,0.035,0.043,0.068,0.065,0.104c1.141,1.767,2.252,3.549,3.348,5.338
			c0.304,0.495,0.603,0.992,0.903,1.488c0.898,1.488,1.78,2.984,2.646,4.486c0.223,0.387,0.451,0.771,0.671,1.158
			c1.047,1.839,2.069,3.688,3.068,5.547c0.227,0.424,0.446,0.849,0.67,1.272c0.792,1.493,1.566,2.993,2.325,4.499
			c0.267,0.529,0.534,1.057,0.796,1.588c0.938,1.894,1.858,3.793,2.744,5.705c13.784,29.76,16.933,58.175,20.169,90.67
			c4.772,47.922-3.231,96.157-16.134,142.242c-11.445,40.875-28.616,84.173-47.275,122.555
			c-13.176,27.104-30.186,52.045-47.441,76.664c-16.345,23.319-29.05,50.518-44.054,75.088
			c-17.902,29.319-36.438,55.723-57.804,82.248c-12.835,15.935-27.172,31.325-37.67,49c-9.958,16.765-21.827,34.689-28.275,53.225
			c-5.247,15.084-16.723,41.178,5.118,46.335c14.685,3.468,32.936-2.296,46.88-6.81c30.635-9.916,58.826-25.735,84.803-44.61
			c26.682-19.388,47.53-45.507,71.643-67.782c20.62-19.049,40.655-38.717,60.791-58.273c17.951-17.435,39.073-32.951,55.168-52.08
			c61.808-73.459,126.268-144.373,173.211-228.721c21.421-38.49,35.59-80.687,45.562-123.472
			c14.572-62.522,11.469-126.161,14.822-189.76c1.992-37.76,4.748-75.732,7.023-113.028c2.604-42.694,5.071-85.45,10.607-127.889
			c5.641-43.242,16.14-82.794,30.421-123.888c14.708-42.323,32.788-86.402,58.948-123.052c14.555-20.391,32.896-34.713,53-49.441
			c12.039-8.819,24.36-17.652,37.025-25.99c20.955-13.797,42.851-26.238,65.975-35.013c51.758-19.64,104.852-35.822,159.306-46.033
			c36.751-6.892,74.177-7.08,111.435-7.2c37.381-0.12,74.978-0.245,112.259,3.482c77.522,7.752,154.029,31.875,228.578,53.066
			c45.985,13.072,94.572,17.506,141.199,28.934c39.375,9.65,78.245,23.917,118.171,32c68.932,13.955,138.88,28.521,208.054,39.023
			c33.051,5.018,81.654,14.545,100.994-20.068c13.04-23.337-7.941-39.787-23.748-54.553c-16.941-15.825-37.27-27.386-56.274-40.457
			c-11.126-7.652-22.793-14.679-34.7-20.945c-26.601-14.001-54.538-24.09-80.497-39.972
			c-79.597-48.695-156.77-103.709-221.333-171.573c-41.558-43.684-84.041-88.668-118.667-138.432
			c-20.024-28.778-37.328-59.922-55.779-89.633c-17.802-28.664-24.042-64.566-28.946-97.391c-2.494-16.689-3.183-32.727-4.055-50
			c-2.372-46.933-5.468-92.478-0.73-139.628c4.716-46.938,15.791-93.245,33.808-136.88c12.148-29.421,27.241-56.986,48.116-81.102
			c18.25-21.082,43.445-36.183,66.807-51.145c25.131-16.098,50.367-32.237,77.291-45.208c1.259-0.606,2.518-1.215,3.785-1.808
			c24.925-11.656,51.99-28.379,79.494-32.162c29.593-4.07,60.42-2.887,90.233-4.762c32.972-2.073,65.955-4.667,99.018-4.281
			c50.058,0.584,92.76,10.781,137.859,30.003c46.577,19.852,82.28,55.506,122.324,86.027c13.213,10.07,26.916,19.437,40.749,28.944
			c28.696,19.724,56.037,42.39,82.078,65.489c26.046,23.103,50.636,47.796,74.559,73.073
			c41.686,44.046,84.632,87.512,120.821,136.494c38.783,52.494,88.159,138.83,156.627,155.137
			c46.505,11.074,73.763-30.205,97.414-62.975c18.789-26.034,34.751-53.934,46.031-84.226c5.05-13.563,11.326-27.684,12.589-42.257
			c1.393-16.069-3.097-32.531-3.294-48.639c-0.2-16.366-4.035-34.831-1.626-51.098c2.308-15.577,7.656-29.449,15.804-43.223
			c15.702-26.542,48.82-47.384,75.249-61.001c23.099-11.9,41.171-13.46,67.051-14.725c16.521-0.808,33.262-0.698,49.944,0.952
			c33.129,3.276,65.312,8.251,97.004,20.245c63.957,24.205,112.519,71.197,134.031,136.441
			c11.269,34.175,14.304,70.726,10.209,106.411c-3.938,34.305-17.324,63.082-32.018,93.898
			c-26.254,55.059-64.973,91.809-113.219,128.052c-11.258,8.457-22.812,16.157-34.004,24.699
			c-25.367,19.362-48.854,37.673-63.732,66.617c-7.522,14.634-15.934,28.056-10.75,44.79c4.364,14.086,15.752,22.92,30.49,23.842
			c14.499,0.907,29.389-1.214,42.992-3.996c37.65-7.703,72.623-26.346,110.232-33.783c42.07-8.319,87.104-10.428,129.772-8.221
			c39.2,2.027,75.784,1.639,114.429,10.931c34.013,8.179,70.815,9.041,105.566,12.292c17.119,1.602,33.691,3.795,51,3.777
			c31.067-0.032,60.767,5.977,91.445-2.74c18.585-5.28,36.602-13.845,53.407-23.264c34.51-19.341,65.243-44.93,92.925-73.048
			c44.271-44.97,87.685-90.319,136.186-130.636c19.619-16.309,39.921-31.812,61.089-46.062c28.876-19.438,56.714-41.818,88-57.004
			c75.097-36.448,158.097-52.671,241.163-44.336c49.568,4.974,94.976,15.102,146.859,15.156
			c32.039,0.033,72.327-2.333,98.188-22.983c5.809-4.638,10.896-10.189,14.991-16.854c15.678-25.513,5.331-59.055-8.243-83.063
			c-16.419-29.042-46.176-44.966-72.036-65.195c-20.61-16.123-43.127-32.235-59.845-52.536
			c-40.832-49.584-52.559-112.545-40.082-172.229c4.434-21.213,11.92-42.013,22.251-61.649c15.794-30.022,36.37-54.442,59.674-78.78
			c8.742-9.13,18.419-17.123,28.303-25.526c16.894-14.363,31.396-30.86,47.674-45.251c25.576-22.609,54.069-45.765,75.303-71.781
			c10.563-12.942,18.925-26.598,19.749-43.219c1.531-30.869-21.866-57.1-54.996-44.751c-12.993,4.843-23.623,14.947-36.112,20.826
			c-14.456,6.804-28.644,13.965-42.613,21.742c-22.007,12.252-43.378,26.919-66.585,36.849
			c-79.716,34.107-165.694,68.859-251.919,82.115c-42.698,6.564-87.381,10.584-130.774,13.223
			c-100.448,6.108-206.577,7.629-306.484-5.676c-27.864-3.711-55.522-9.191-82.511-17.093
			c-33.824-9.903-67.617-18.917-101.028-30.486c-47.996-16.62-95.001-34.532-140.202-57.749
			c-75.421-38.738-151.792-84.735-215.124-141.902c-40.039-36.142-73.088-76.938-107.38-118.316
			c-26.119-31.517-49.297-61.751-65.617-99.351c-9.239-21.286-16.282-43.283-19.876-65.432c-0.181-1.112-0.347-2.227-0.503-3.341
			c-0.052-0.365-0.096-0.731-0.145-1.097c-0.1-0.751-0.198-1.502-0.287-2.254c-0.052-0.432-0.097-0.864-0.145-1.297
			c-0.076-0.688-0.151-1.378-0.218-2.068c-0.045-0.452-0.085-0.904-0.126-1.357c-0.06-0.675-0.117-1.351-0.169-2.026
			c-0.035-0.454-0.068-0.909-0.101-1.364c-0.047-0.681-0.089-1.36-0.128-2.041c-0.025-0.445-0.051-0.891-0.073-1.336
			c-0.035-0.71-0.063-1.421-0.091-2.132c-0.016-0.411-0.033-0.822-0.045-1.232c-0.025-0.804-0.041-1.606-0.055-2.409
			c-0.006-0.318-0.016-0.637-0.02-0.955c-0.014-1.129-0.018-2.258-0.011-3.386c0-0.061,0.002-0.121,0.002-0.181
			c0.008-1.062,0.024-2.123,0.049-3.185c0.008-0.346,0.021-0.692,0.031-1.039c0.022-0.778,0.046-1.557,0.078-2.334
			c0.017-0.408,0.036-0.815,0.056-1.223c0.033-0.717,0.068-1.435,0.109-2.151c0.024-0.431,0.052-0.861,0.078-1.292
			c0.045-0.7,0.092-1.4,0.144-2.101c0.031-0.429,0.063-0.858,0.097-1.287c0.057-0.711,0.117-1.421,0.181-2.131
			c0.036-0.413,0.073-0.827,0.112-1.24c0.07-0.748,0.146-1.495,0.225-2.241c0.039-0.37,0.076-0.74,0.116-1.11
			c0.096-0.873,0.198-1.744,0.304-2.615c0.029-0.242,0.056-0.485,0.086-0.727c0.14-1.128,0.287-2.255,0.443-3.38
			c0.001-0.011,0.002-0.022,0.004-0.033c0.004-0.028,0.009-0.057,0.013-0.084c0.229-1.656,0.479-3.309,0.742-4.957
			c0.03-0.19,0.059-0.38,0.089-0.57c0.26-1.604,0.535-3.204,0.823-4.802c0.046-0.258,0.093-0.517,0.14-0.774
			c0.291-1.587,0.594-3.171,0.911-4.751c0.043-0.214,0.088-0.428,0.131-0.641c0.67-3.296,1.394-6.572,2.167-9.827
			c0.048-0.203,0.095-0.406,0.144-0.609c0.371-1.551,0.754-3.096,1.146-4.636c0.069-0.271,0.139-0.541,0.208-0.812
			c0.393-1.527,0.793-3.049,1.204-4.564c0.062-0.229,0.125-0.457,0.188-0.687c0.432-1.579,0.869-3.154,1.318-4.72
			c20.661-72.036,62.223-141.098,123-186.052c13.504-9.988,28.476-17.105,44-23.726c51.537-21.978,108.479-29.966,160.194-51.442
			c22.612-9.391,49.815-16.897,57.028-43.558c7.031-25.99-25.427-41.558-41.425-54.484c-20.236-16.351-44.623-26.234-67.746-37.985
			c-18.808-9.558-36.66-20.212-54.075-31.976c-9.632-6.507-19.613-14.395-28-22.777c-16.219-16.21-28.668-37.318-43.22-55.149
			c-15.741-19.289-31.108-39.575-39.585-63.251c-11.38-31.781-4.439-65.74,3.657-98.572c1.05-4.257,2.176-8.507,3.379-12.744
			c0.79-2.781,1.626-5.555,2.482-8.323c2.658-8.595,5.638-17.121,8.943-25.529c9.917-25.227,22.767-49.396,38.673-71.219
			c14.812-20.32,32.262-38.61,52.479-53.797c1.78-1.337,3.582-2.651,5.405-3.94c73.157-53.91,184.027-78.878,273.8-83.624
			c41.729-2.207,81.009-3,123.005-3c43.304,0,84.427,2.246,126.013,8.921c111.689,17.927,224.438,31.497,336.189,50.93
			c86.729,15.082,183.754,41.847,269.86,69.825c38.998,12.672,78.278,26.506,118.892,33.471
			c24.405,4.185,88.67,27.129,102.533-4.719c9.126-20.965-22.728-58.252-35.396-74.42
			c-74.559-95.164-158.013-137.842-270.041-179.271c-93.421-34.549-184.149-44.936-280.474-69.229
			c-74.675-18.832-148.854-39.578-223.563-58.277c-28.958-7.248-57.711-12.281-87.008-16.587
			c-98.04-14.407-191.776-41.331-288.028-60.588c-79.867-15.979-162.142-27.432-242.942-37.722
			c-104.709-13.335-209.56-36.071-313.158-58.082c-29.205-6.205-58.228-13.513-86.119-24.293
			c-38.568-14.907-64.449-44.11-97.879-66.489c-27.592-18.471-58.521-42.035-64.9-77.318c-3.367-18.62-3.926-37.4-3.974-56.72
			c-0.206-83.017,50.609-151.996,97.48-215.93c0.011-0.015,0.02-0.029,0.029-0.044c18.932-30.285,42.144-58.035,59.49-89.306
			c9.191-16.57,18.41-33.007,27.274-49.777c16.941-32.055,32.255-64.053,46.478-97.223c36.328-84.72,65.073-172.754,91.21-261.285
			c12.013-40.688,20.631-85.216,27.879-127c11.774-67.879,18.41-136.199,25.163-204.714c4.121-41.822,13.207-82.518,18.996-125.003
			c5.436-39.898,12.816-81.069,21.778-120.493c9.407-41.377,32.07-76.929,51.171-116.702
			c58.42-121.647,154.751-267.182,306.021-267.181c72.596,0,140.746,26.667,198.189,70.355
			c16.938,12.882,33.574,28.368,46.869,45.028c20.007,25.069,40.383,50.054,60.194,74.997
			c60.529,76.208,117.367,153.761,168.774,236.278c73.122,117.374,135.808,247.442,170.315,381.821
			c11.337,44.148,19.521,89.741,19.92,135.425c0.422,48.389-9.493,96.226-21.531,142.872c-9.037,35.017-22.842,68.09-31.479,103.385
			c-7.111,29.059-16.177,62.092,9.838,84.973c20.637,18.151,68.523,11.995,95.98,11.995c146.872,0,275.964,32.46,417.039,68.921
			c36.097,9.329,69.896,25.773,106.157,34.377c37.399,8.874,74.884,19.647,113.605,20.351c16.817,0.306,38.511-0.474,52.021-12.102
			C6643.824,4639.27,6633.586,4606.015,6628.528,4586.947z" color="15921648" style="fill:#f2f1f0;fill-opacity:1;stroke-width:10;stroke:rgb(0,0,0)"></path></g><g id="157963644" order="0" group_label_id="113753815" group_label="Atlas - Developing Human Gyri" sub_image_id="102291549"><path id="157963650" parent_id="157963644" order="0" structure_id="12157" d="
			M1763.472,7404.223c-60.717,9.216-121.393,21.305-179.233,42.356c-58.978,21.466-109.169,53.171-159.132,90.385
			c-28.69,21.37-56.646,43.729-83.953,66.838c-68.559,58.018-151.003,102.258-225.774,151.369
			c-53.457,35.111-107.219,69.053-159.129,106.051c-27.294,19.454-66.928,58.483-103.53,40.583
			c-14.941-7.307-21.824-22.511-24.108-38.242c-2.464-16.974,1.405-26.699,7.111-42.534c3.64-10.101,8.335-19.907,13.781-29.032
			c9.88-16.555,20.352-33.25,32.219-47.944c25.611-31.713,55.163-60.175,84.777-88.028c84.831-79.787,184.089-142.64,255-237.075
			c15.067-20.066,24.085-43.952,39.686-63.45c17.083-21.351,32.298-44.19,46.563-67.498c6.94-11.34,13.296-22.224,19.503-34
			c18.835-35.735,28.819-81.764,28.818-121.994c0-1.78-0.038-3.578-0.076-5.378c-0.028-1.153-0.059-2.308-0.099-3.467l0-0.006
			c-0.875-24.979-5.394-51.603-12.995-77.893c-0.029-0.102-0.057-0.204-0.086-0.306c-0.61-2.103-1.247-4.2-1.895-6.297
			c-0.109-0.352-0.213-0.704-0.323-1.056c-0.601-1.921-1.226-3.838-1.859-5.753c-0.174-0.525-0.342-1.052-0.519-1.576
			c-0.6-1.787-1.221-3.568-1.849-5.349c-0.229-0.647-0.452-1.296-0.684-1.941c-0.602-1.679-1.224-3.351-1.85-5.021
			c-0.279-0.744-0.556-1.489-0.84-2.231c-0.606-1.586-1.229-3.165-1.858-4.742c-0.326-0.818-0.651-1.638-0.983-2.453
			c-0.612-1.506-1.239-3.005-1.871-4.502c-0.371-0.879-0.742-1.757-1.12-2.633c-0.619-1.434-1.25-2.862-1.886-4.286
			c-0.414-0.926-0.83-1.851-1.251-2.772c-0.626-1.37-1.262-2.734-1.905-4.095c-0.455-0.963-0.914-1.923-1.376-2.88
			c-0.634-1.311-1.275-2.616-1.924-3.917c-0.495-0.991-0.996-1.979-1.5-2.965c-0.641-1.255-1.288-2.506-1.943-3.749
			c-0.534-1.015-1.076-2.024-1.62-3.031c-0.648-1.201-1.3-2.398-1.961-3.588c-0.573-1.031-1.155-2.055-1.738-3.077
			c-0.655-1.15-1.312-2.298-1.98-3.437c-0.612-1.043-1.233-2.076-1.855-3.109c-0.662-1.099-1.322-2.196-1.995-3.283
			c-0.65-1.051-1.312-2.09-1.972-3.13c-0.667-1.049-1.332-2.1-2.009-3.136c-0.688-1.055-1.389-2.094-2.087-3.135
			c-0.671-0.999-1.339-2.003-2.021-2.989c-0.729-1.058-1.471-2.097-2.21-3.139c-0.671-0.946-1.339-1.898-2.019-2.832
			c-0.775-1.064-1.565-2.106-2.352-3.154c-0.666-0.886-1.326-1.78-2-2.654c-0.827-1.073-1.67-2.122-2.51-3.177
			c-0.654-0.82-1.3-1.652-1.96-2.461c-0.898-1.1-1.812-2.171-2.724-3.247c-0.621-0.734-1.234-1.482-1.861-2.206
			c-1.027-1.186-2.072-2.338-3.116-3.493c-0.528-0.586-1.048-1.189-1.581-1.768c-1.584-1.719-3.186-3.405-4.806-5.055
			c-24.709-25.154-54.344-37.856-84.499-55.864c-31.414-18.761-61.863-48.077-85.702-75.553
			c-60.542-69.778-94.55-168.898-105.598-257.272c-10.358-82.856-14.527-166.607-6.001-252.025
			c4.249-42.566,4.678-86.225,8.846-129.013c7.159-73.494,21.95-145.985,30.158-218.957c5.811-51.654,3.621-104.434,8.846-156.085
			c9.958-98.442,3.977-199.104,0-297.029c-2.309-56.856-7.134-113.563-10.676-170.348c-3.249-52.097-4.256-106.544,1.075-158.487
			c3.279-31.953,1.236-64.967,11.804-95.807c4.59-13.396,12.068-27.515,26.03-32.91c21.975-8.49,41.603,9.682,55.495,24.489
			c50.354,53.67,93.754,113.958,147.778,164.194c25.468,23.683,53.993,41.794,82.171,61.728
			c27.25,19.276,52.665,33.721,83.875,45.062c38.223,13.889,79.959,19.81,119.996,25.992c43.97,6.791,88.376,11.247,132.903,11.247
			c62.784,0,124.735-3.498,186.42-18.189c37.518-8.937,74.196-22.138,108.446-39.916c1.571-0.815,3.117-1.66,4.65-2.517
			c0.321-0.18,0.643-0.358,0.962-0.539c1.481-0.841,2.948-1.697,4.397-2.574c0.252-0.152,0.501-0.309,0.752-0.462
			c1.338-0.818,2.663-1.65,3.974-2.497c0.212-0.138,0.427-0.272,0.639-0.41c1.419-0.924,2.82-1.866,4.211-2.821
			c0.306-0.21,0.61-0.422,0.915-0.633c1.398-0.972,2.788-1.954,4.161-2.955c0.079-0.058,0.157-0.117,0.236-0.175
			c1.326-0.969,2.638-1.954,3.941-2.948c0.279-0.213,0.56-0.425,0.839-0.64c1.317-1.013,2.625-2.037,3.923-3.073
			c0.258-0.206,0.515-0.415,0.772-0.622c1.2-0.964,2.392-1.937,3.577-2.918c0.173-0.143,0.347-0.284,0.519-0.427
			c1.285-1.069,2.56-2.15,3.83-3.237c0.299-0.256,0.599-0.513,0.897-0.771c1.255-1.082,2.506-2.169,3.749-3.266
			c0.168-0.149,0.336-0.299,0.504-0.448c1.138-1.007,2.271-2.02,3.402-3.037c0.285-0.257,0.57-0.513,0.855-0.77
			c1.198-1.083,2.394-2.172,3.585-3.265c0.328-0.301,0.655-0.602,0.983-0.904c1.039-0.955,2.075-1.913,3.11-2.873
			c0.226-0.209,0.452-0.418,0.678-0.628c1.145-1.063,2.288-2.131,3.431-3.199c0.581-0.542,1.161-1.084,1.74-1.627
			c0.188-0.175,0.375-0.351,0.562-0.526c2.243-2.101,4.488-4.206,6.739-6.308l-269.335-209.7c-0.181,0.54-0.522,1.034-1.104,1.446
			c-2.923,2.068-7.019,1.083-10.22,0.293c-8.025-1.979-15.318-6.275-22.056-10.942c-6.582-4.559-12.726-9.699-19.189-14.419
			c-30.651-22.382-72.646-22.164-104.991-41.017c-12.458-7.261-24.568-21.604-28.087-35.833
			c-3.803-15.376-9.784-31.865-12.639-47.65c-1.85-10.231-4.74-19.249-8.555-29.005c-10.455-26.732-24.99-50.766-36.433-76.886
			c-23.546-53.745-56.504-103.297-80.338-157.107c-46.327-104.594-142.296-176.751-239.398-231.512
			c-53.504-30.174-114.589-44.839-175.533-49.118c-66.439-4.664-133.655,2.605-198.24,18.461
			c-31.458,7.723-62.399,17.577-92.477,29.607c-30.62,12.248-61.254,24.379-84.026,49.606c-9.41,10.425-20.087,19.677-29.074,30.493
			c-8.855,10.658-13.066,22.974-20.254,34.707c-16.232,26.494-31.686,53.588-43.172,82.526
			c-6.557,16.518-10.53,31.717-12.277,49.226c-1.892,18.954,2.118,38.318,2.345,57.31c0.227,18.985,2.002,37.875,4.655,56.691
			c7.996,56.701-3.726,113.107-7.105,169.648c-1.671,27.978-0.552,55.475-3.481,83.536c-4.711,45.119-8.993,91.39-17.167,136.011
			c-11.45,62.511-28.178,122.318-43.664,184.068c-12.511,49.889-18.141,99.326-36.085,148.73
			c-23.888,65.77-47.539,132.055-66.943,199.556c-7.272,25.295-14.018,48.941-17.602,74.446
			c-6.329,45.041-0.646,90.256,4.955,135.03c7.199,57.553,19.092,111.669,19.092,169.969c0,53.927-2.527,108.366,0,162.224
			c0.924,19.699,2.161,39.967,3.023,59.555c0.463,10.523,0.687,20.564,2.195,31c22.188,153.501,39.101,307.775,70.724,459.966
			c14.471,69.642,31.312,148.069,62.05,212.358c17.249,36.077,24.337,75.314,38.458,112.394
			c13.236,34.754,35.526,65.53,60.828,92.493c14.347,15.289,30.702,33.506,49.807,42.589C713.353,7220.926,738.571,7225,762.5,7225
			c10.64,0,21.279,0.005,31.918,0.061c18.635,0.099,37.272,0.346,55.896,1.043c18.622,0.697,37.26,0.732,55.847,0.837
			c10.583,0.06,21.162,0.566,31.732,1.065c4.311,0.203,8.66,0.208,12.949,0.41c0.991,0.047,3.39,0.061,5.199,0.587
			c1.383,0.402,2.422,1.104,2.224,2.352c-0.455,2.854-5.576,3.406-7.792,4.138c-10.008,3.304-20.626,4.74-30.972,6.56
			c-13.048,2.295-25.765,4.299-39,7.003c-29.917,6.114-59.473,13.464-89.451,18.836c-28.546,5.114-56.295,12.005-82.606,24.607
			c-32.59,15.61-54.572,48.64-78.814,73.934c-17.163,17.908-34.187,35.993-51.81,53.449c-13.178,13.054-28.3,22.843-42.371,34.896
			c-10.378,8.891-20.412,18.496-29.948,28.223c-11.083,11.304-20.151,24.545-30.223,37c-11.22,13.876-24.674,25.986-35.774,40
			c-19.019,24.013-16.931,61.964-13.136,90.728c4.606,34.903,14.848,69.298,20.029,104.272
			c9.497,64.111,22.58,129.078,37.658,192.445c24.497,102.95,39.804,212.238,85.449,308.555
			c6.525,13.769,13.11,27.581,20.246,40.996c10.459,19.665,21.305,44.922,42.722,55.028c18.665,8.809,45.076,5.557,64.596,1.882
			c26.36-4.961,52.906-10.42,79.434-14.461c67.07-10.219,139.837-6.461,193.609-55.953c34.7-31.938,74.213-63.125,114.944-88.053
			c29.584-18.105,58.814-36.16,89.089-53.431c37.471-21.376,74.947-39.206,113.191-59.469c23.854-12.64,45.897-29.692,68.85-44.025
			c22.755-14.21,45.485-28.575,66.671-44.969c19.385-15,42.528-23.831,62.696-37.598c33.315-22.738,62.475-51.073,94.949-74.977
			c14.441-10.63,28.666-21.082,42.052-32.776c27.72-24.216,48.488-53.43,76.947-76.92c3.797-3.134,7.57-6.297,11.335-9.469
			c6.644-5.6,13.262-11.229,19.94-16.787c6.579-5.476,13.347-10.723,19.899-16.229c5.45-4.58,10.948-9.079,16.564-13.456
			c0.594-0.464,4.979-3.617,5.794-2.684l244.054-221.353C1950.583,7426.688,1855.902,7390.193,1763.472,7404.223z" color="14837888" style="fill:#e26880;fill-opacity:1;stroke-width:10;stroke:rgb(0,0,0)"></path><path id="157963652" parent_id="157963644" order="1" structure_id="12125" d="
			M6872.945,7451.003c-5.356-36.896-13.438-71.182-27.946-106c-7.304-17.527-23.301-37.19-19.492-57.418l-600.96,25.622
			c-12.477,59.684-0.75,122.645,40.082,172.229c16.718,20.301,39.234,36.413,59.845,52.536
			c25.86,20.229,55.617,36.153,72.036,65.195c13.574,24.009,23.921,57.551,8.243,83.063c-4.095,6.664-9.183,12.216-14.991,16.854
			c-25.86,20.65-66.148,23.017-98.188,22.983c-51.884-0.055-97.291-10.183-146.859-15.156
			c-83.066-8.335-166.066,7.888-241.163,44.336c-31.286,15.186-59.124,37.565-88,57.004c-21.168,14.25-41.47,29.753-61.089,46.062
			c-48.501,40.316-91.914,85.666-136.186,130.636c-27.682,28.118-58.415,53.707-92.925,73.048
			c-16.806,9.419-34.822,17.983-53.407,23.264c-30.679,8.717-60.378,2.708-91.445,2.74c-17.309,0.018-33.881-2.176-51-3.777
			c-34.751-3.251-71.554-4.113-105.566-12.292c-38.645-9.292-75.229-8.903-114.429-10.931c-42.669-2.207-87.702-0.099-129.772,8.221
			c-37.609,7.438-72.582,26.08-110.232,33.783c-13.604,2.782-28.493,4.903-42.992,3.996c-14.738-0.922-26.126-9.756-30.49-23.842
			c-5.184-16.734,3.228-30.156,10.75-44.79c14.879-28.944,38.365-47.255,63.732-66.617c11.191-8.542,22.746-16.242,34.004-24.699
			c48.246-36.243,86.965-72.993,113.219-128.052c14.693-30.816,28.08-59.594,32.018-93.898c4.095-35.686,1.06-72.236-10.209-106.411
			c-21.513-65.244-70.074-112.236-134.031-136.441c-31.692-11.994-63.875-16.969-97.004-20.245
			c-16.683-1.65-33.423-1.76-49.944-0.952c-25.88,1.265-43.952,2.824-67.051,14.725c-26.429,13.617-59.547,34.459-75.249,61.001
			c-8.147,13.773-13.496,27.646-15.804,43.223c-2.409,16.267,1.426,34.731,1.626,51.098c0.197,16.107,4.687,32.569,3.294,48.639
			c-1.263,14.573-7.539,28.693-12.589,42.257c-11.28,30.292-27.242,58.191-46.031,84.226c-23.651,32.77-50.909,74.049-97.414,62.975
			c-68.468-16.307-117.844-102.643-156.627-155.137c-36.189-48.982-79.136-92.448-120.821-136.494
			c-23.923-25.277-48.513-49.971-74.559-73.073c-26.041-23.1-53.382-45.766-82.078-65.489
			c-13.833-9.508-27.536-18.874-40.749-28.944c-40.044-30.521-75.747-66.176-122.324-86.027
			c-45.099-19.222-87.801-29.419-137.859-30.003c-33.063-0.386-66.046,2.208-99.018,4.281c-29.813,1.875-60.64,0.691-90.233,4.762
			c-27.504,3.783-54.569,20.506-79.494,32.162c-1.267,0.593-2.525,1.201-3.785,1.808l73.12,334.666
			c1.2,0.261,2.401,0.91,3.379,2.043c4.811,5.575,8.408,13.156,11.696,18.586c6.509,10.752,14.561,20.277,22.553,30.016
			c14.731,17.95,28.402,36.652,45.965,51.987c7.961,6.95,18.381,19.578,26.277,26.571c10.596,9.354,23.006,20.426,34.317,31.124
			c0.019,0.018,0.033,0.029,0.052,0.047c21.162,19.83,60.097,39.929,82.67,58.237c15.422,12.509,31.747,22.36,48.536,32.849
			c15.91,9.939,32.665,18.23,48.018,28.666c17.69,12.023,36.2,23.405,54.797,35.171c9.953,6.297,20.57,11.493,30.633,17.501
			c14.126,8.436,28.417,19.812,41.367,29.996c9.562,7.519,18.841,15.506,27.981,23.352c8.269,7.098,16.508,15.065,23.853,23.186
			c13.235,14.635,26.657,27.773,40.312,41.815c16.645,17.117,31.664,36.187,47.022,54.148
			c25.564,29.899,48.983,63.413,69.349,97.368c5.792,9.657,9.992,19.529,15,29.314c6.059,11.84,10.778,24.338,15.982,36.633
			c11.422,26.985,21.14,54.381,32.649,81.336c3.14,7.353,5.785,22.683,9.8,32.602c4.734,11.672,9.675,24.021,14.38,36.904
			c0.335,0.885,0.669,1.791,0.999,2.744c0.031,0.089,0.066,0.188,0.098,0.278c0.232,0.645,0.462,1.292,0.692,1.939
			c5.517,15.176,18.704,45.471,22.714,52.985c20.867,39.111,54.979,46.295,95.504,49.896c51.99,4.621,104.8,6,156.998,6
			c38.671,0,78.509-1.66,116.223-10.004c10.51-2.324,20.257-6.436,30.477-9.745c32.057-10.382,67.491-12.684,100.734-16.029
			c37.612-3.785,75.417-5.498,113.207-6.034c17.808-0.254,34.658-2.314,52.437-1.473c20.619,0.975,41.28,1.671,61.907,0.496
			c13.349-0.762,26.21-3.717,39.353-5.171c11.854-1.312,23.35,2.673,34.762,6.692c24.377,8.584,47.151,21.035,71.189,30.453
			c35.314,13.834,72.44,23.562,109.71,30.711c63.202,12.12,131.457,15.386,198.002,12.104
			c63.973-3.162,129.717-7.271,192.445-20.684c40.295-8.615,76.103-24.099,113.057-41.814
			c53.272-25.539,105.006-50.802,160.943-65.057c28.024-7.143,59.075-13.629,87.611-6.502
			c70.232,17.539,153.647-1.394,221.757-21.076c74.118-21.418,144.489-54.989,210.083-95.362
			c88.852-54.688,188.496-142.272,234.608-237.511c12.588-25.998,25.151-52.479,37.997-78.041
			c8.393-16.701,16.926-33.658,25.381-50.84c36.906-74.992,72.324-154.255,88.117-235.16
			C6860.346,7673.042,6889.529,7565.235,6872.945,7451.003z" color="11243864" style="fill:#ab9158;fill-opacity:1;stroke-width:10;stroke:rgb(0,0,0)"></path><path id="157963647" parent_id="157963644" order="2" structure_id="12123" d="
			M3364.497,7382.246c-23.362,14.962-48.557,30.062-66.807,51.145c-20.875,24.115-35.968,51.681-48.116,81.102
			c-18.017,43.635-29.092,89.942-33.808,136.88c-4.737,47.15-1.641,92.695,0.73,139.628c0.873,17.273,1.562,33.311,4.055,50
			c4.904,32.824,11.145,68.727,28.946,97.391c18.452,29.711,35.755,60.854,55.779,89.633
			c34.626,49.764,77.109,94.748,118.667,138.432c64.562,67.864,141.736,122.878,221.333,171.573
			c25.959,15.882,53.896,25.971,80.497,39.972c11.906,6.267,23.574,13.293,34.7,20.945c19.005,13.071,39.333,24.632,56.274,40.457
			c15.807,14.766,36.788,31.216,23.748,54.553c-19.34,34.613-67.943,25.086-100.994,20.068
			c-69.174-10.502-139.122-25.068-208.054-39.023c-39.926-8.083-78.796-22.35-118.171-32
			c-46.627-11.428-95.214-15.861-141.199-28.934c-74.549-21.191-151.056-45.314-228.578-53.066
			c-37.281-3.728-74.878-3.603-112.259-3.482c-37.258,0.12-74.684,0.309-111.435,7.2c-54.454,10.211-107.548,26.394-159.306,46.033
			c-23.124,8.774-45.021,21.216-65.975,35.013l173.773,355.691c1.771-0.395,3.849-0.598,6.306-0.559
			c15.079,0.238,34.734,24.293,45.559,33.546c17.83,15.241,34.706,32.007,54.282,45.054c22.806,15.2,50.996,35.843,80.159,31.607
			c27.835-4.043,54.912-15.843,83.889-20.156c35.88-5.342,53.781,12.062,82.007,32.498c27.423,19.854,57.136,34.046,88.438,47.109
			c52.768,22.023,111.595,22.35,167.613,28.185c58.135,6.056,108.416,0.433,165.261-13.302
			c36.725-8.873,74.004-15.367,110.794-26.326c14.056-4.187,27.752-10.809,41.891-14.33c7.312-1.82,14.304-4.065,22.002-5.004
			c15.472-1.887,31.517-2.535,47-4.806c15.857-2.326,31.97-6.096,47.974-9c42.538-7.72,81.49-20.208,123.249-31.753
			c29.979-8.289,59.381-23.804,85.832-39.941c29.756-18.152,53.953-43.743,83.875-61.952c32.998-20.081,62.77-44.644,93.575-67.82
			c27.116-20.4,51.711-42.413,60.714-76.506c4.881-18.482,8.757-38.183,11.773-57.004c4.305-26.854-5.258-76.599-12.327-97.292
			c-5.118-14.092-10.54-27.568-15.672-40.199c-4.192-10.34-13.526-22.191-15.808-27.875c-5.007-12.476-11.595-24.418-18.334-35.963
			c-12.06-20.66-20.836-42.975-32.351-64c-21.729-39.679-49.733-76.023-73.334-114.701c-12.02-19.698-26.757-38.302-42.833-54.666
			c-8.248-8.396-17.074-15.834-24.484-24.781c-15.479-18.688-29.453-39.065-45.661-57.036c-6.328-7.015-14.239-11.999-21.854-17.315
			c-13.83-9.653-30.78-14.285-43.755-25.256c-14.462-12.227-29.429-23.419-45.061-34.243c-30.1-20.845-65.085-33.208-96.335-51.998
			c-29.94-18.002-57.898-37.827-84.035-60.635c-9.28-8.098-18.811-17.315-27-26.534c-2.461-2.771-11.646-20.089-15.144-23.413
			c-10.174-9.628-21.274-19.587-31.138-28.319c-5.678-5.015-17.209-9.554-22.849-14.418c-9.321-8.038-18.835-15.977-27.517-24.517
			c-17.636-17.348-30.892-36.987-45.167-57.5c-3.485-5.007-16.784-21.758-20.225-33.266c-1.154-3.857,2.069-6.063,5.299-5.363
			l-73.12-334.666C3414.863,7350.009,3389.628,7366.148,3364.497,7382.246z" color="13285249" style="fill:#cab781;fill-opacity:1;stroke-width:10;stroke:rgb(0,0,0)"></path><path id="157963649" parent_id="157963644" order="3" structure_id="12122" d="
			M2557.5,8471.754c-20.104,14.729-38.445,29.051-53,49.441c-26.16,36.649-44.24,80.729-58.948,123.052
			c-14.281,41.094-24.78,80.646-30.421,123.888c-5.536,42.438-8.003,85.194-10.607,127.889
			c-2.275,37.296-5.031,75.269-7.023,113.028c-3.354,63.599-0.25,127.237-14.822,189.76c-9.972,42.785-24.141,84.981-45.562,123.472
			c-46.943,84.348-111.403,155.262-173.211,228.721c-16.095,19.129-37.217,34.646-55.168,52.08
			c-20.136,19.557-40.171,39.225-60.791,58.273c-24.112,22.275-44.96,48.395-71.643,67.782
			c-25.977,18.875-54.167,34.694-84.803,44.61c-13.944,4.514-32.195,10.277-46.88,6.81c-21.841-5.157-10.365-31.251-5.118-46.335
			c6.448-18.535,18.317-36.46,28.275-53.225c10.498-17.675,24.835-33.065,37.67-49c21.366-26.525,39.902-52.929,57.804-82.248
			c15.003-24.57,27.709-51.769,44.054-75.088c17.255-24.619,34.265-49.561,47.441-76.664c18.659-38.382,35.83-81.68,47.275-122.555
			c12.903-46.085,20.906-94.32,16.134-142.242c-3.236-32.495-6.385-60.91-20.169-90.67c-0.886-1.912-1.807-3.812-2.744-5.705
			c-0.262-0.53-0.529-1.059-0.796-1.588c-0.759-1.506-1.534-3.006-2.325-4.499c-0.224-0.424-0.444-0.849-0.67-1.272
			c-0.999-1.858-2.021-3.708-3.068-5.547c-0.221-0.387-0.449-0.771-0.671-1.158c-0.866-1.502-1.748-2.998-2.646-4.486
			c-0.3-0.496-0.599-0.993-0.903-1.488c-1.096-1.789-2.207-3.571-3.348-5.338c-0.022-0.035-0.042-0.068-0.065-0.104
			c-1.174-1.816-2.38-3.619-3.602-5.412c-0.309-0.454-0.622-0.905-0.934-1.357c-1.006-1.458-2.027-2.908-3.063-4.35
			c-0.259-0.36-0.515-0.724-0.776-1.084c-1.284-1.768-2.589-3.523-3.918-5.265c-0.205-0.269-0.415-0.534-0.621-0.802
			c-1.15-1.496-2.316-2.98-3.499-4.455c-0.322-0.402-0.645-0.805-0.969-1.206c-2.793-3.447-5.672-6.839-8.635-10.167
			c-0.292-0.329-0.588-0.655-0.883-0.983c-1.293-1.44-2.602-2.868-3.925-4.285c-0.234-0.25-0.464-0.502-0.699-0.751
			c-1.573-1.671-3.165-3.326-4.779-4.963c-0.098-0.1-0.198-0.197-0.296-0.297c-1.498-1.514-3.015-3.011-4.547-4.494
			c-0.283-0.274-0.567-0.549-0.852-0.822c-3.319-3.189-6.716-6.309-10.188-9.35c-0.21-0.184-0.422-0.366-0.633-0.549
			c-1.618-1.41-3.251-2.804-4.901-4.18c-0.157-0.13-0.312-0.262-0.468-0.393c-3.629-3.014-7.333-5.944-11.104-8.789
			c-0.198-0.149-0.396-0.299-0.594-0.447c-3.809-2.858-7.686-5.631-11.628-8.308c-0.086-0.058-0.172-0.115-0.258-0.174
			c-1.948-1.319-3.911-2.617-5.89-3.891c-0.055-0.036-0.11-0.071-0.166-0.107c-4.071-2.617-8.207-5.134-12.399-7.548
			c-0.104-0.061-0.207-0.119-0.311-0.18c-10.595-6.084-21.554-11.506-32.786-16.181c-0.043-0.019-0.086-0.036-0.129-0.054
			c-6.764-2.812-13.626-5.354-20.568-7.607l-114.728,234.574c2.98,4.67,2.145,12.83,0.689,18.947
			c-2.733,11.484-8.217,15.166-17.644,21.578c-14.433,9.817-28.111,20.716-41.097,32.375c-18.013,16.174-33.892,34.388-51.114,51.35
			c-6.137,6.045-13.218,11.676-18.627,18.396c-4.9,6.217-9.866,12.918-14.455,19.277c-5.477,7.549-20.864,37.143-22.922,40.854
			c-7.041,12.691-13.844,25.178-21.581,37.531c-53.567,85.531-81.262,184.814-133.781,271.219
			c-6.98,11.483-13.849,22.721-19.724,34.948c-14.412,29.994-23.742,52.716-16.809,87.062
			c12.604,62.43-21.397,123.834-12.432,189.983c3.557,26.24,18.373,55.899,30.438,79.562c19.203,37.658,29.656,75.619,70.887,93.184
			c40.793,17.378,87.756,9.262,130.666,9.262c55.774,0,105.396-3.779,160.002-17.943c68.034-17.646,131.592-56.033,194.053-86.552
			c24.836-12.135,48.497-25.886,72.445-39.007c29.423-16.121,61.934-26.074,90.938-43.041c33.9-19.83,66.138-43.94,98.377-66.351
			c64.974-45.165,128.459-92.894,186.181-147.153c41.782-39.277,85.766-73.03,123.511-116.455
			c21.774-25.05,44.787-48.532,66.99-72.996c43.534-47.965,83.258-93.956,105.007-156.51
			c40.02-115.105,48.45-231.451,30.053-351.547c-3.616-23.604-7.524-51.329-13.445-74.556
			c-10.632-41.712-19.046-80.67-24.555-123.443c-1.583-12.29-11.844-32.405,4.243-35.991l-173.773-355.691
			C2581.86,8454.102,2569.539,8462.935,2557.5,8471.754z" color="13285249" style="fill:#cab781;fill-opacity:1;stroke-width:10;stroke:rgb(0,0,0)"></path><path id="157963658" parent_id="157963644" order="4" structure_id="12121" d="
			M2048.723,7526.978c-9.608-12.649-20.21-24.576-31.638-35.679l-244.054,221.353c0.104,0.119,0.158,0.296,0.13,0.562
			c-0.146,1.401-1.427,2.362-2.371,3.262c-1.091,1.038-2.039,2.197-2.888,3.44c-1.688,2.469-2.995,5.174-4.674,7.648
			c-4.575,6.746-10.436,12.328-15.753,18.462c-28.574,32.97-53.909,68.485-82.48,101.469c-8.101,9.352-18.092,17.698-28.717,24.204
			c-6.356,3.892-13.294,6.696-19.83,10.324c-12.074,6.702-23.858,14.086-35.726,21.195c-47.67,28.559-84.682,71.75-128.169,105.731
			c-60.27,47.095-118.872,86.892-185.984,124.449c-69.963,39.152-140.527,77.672-206.069,124.046
			c-49.339,34.909-103.913,60.311-154.398,91.109c-49.983,30.493-98.766,62.965-149.657,91.959
			c-30.421,17.331-65.899,28.169-91.147,53.459c-27.392,27.437-29.214,68.146-36.826,104.05
			c-6.215,29.313-8.563,56.822-4.023,86.978c5.023,33.364,12.448,66.034,19,99c6.029,30.337,11.29,60.837,18.276,90.977
			c6.3,27.177,19.738,54.561,15.445,83.104c-0.058,0.382-0.128,0.761-0.189,1.142c-5.829,36.257-28.553,66.81-39.533,101.391
			c-11.519,36.278-23.424,72.735-36.865,108.93c-14.302,38.514-30.748,73.739-39.058,114.4
			c-8.119,39.729-11.03,81.164-9.024,121.057c3.285,65.33,6.68,128.799,18.445,192c11.582,62.216,30.021,122.05,45.992,183.555
			c16.152,62.196,31.823,124.709,54.32,184.992c10.214,27.369,21.667,53.844,31.94,80.949c10.006,26.4,26.378,50.006,44.67,71.313
			c26.04,30.333,55.941,58.897,84.729,86.792c37.205,36.05,69.634,75.146,120.881,90.37c29.351,8.72,63.701,21.067,95.022,21.028
			c33.862-0.042,64.263-1.971,96.975-10.246c34.76-8.794,71.821-10.305,106.979-18.697c58.405-13.941,116.084-29.53,163.931-70.498
			c24.459-20.941,28.029-53.9,28.115-85.562c0.056-20.42-2.839-38.703-7.509-57.996c-9.472-39.133-15.442-77.797-29.047-116
			c-8.374-23.515-16.954-48.889-29.89-69.953c-41.901-68.234,6.672-120.281,42.001-178.54
			c22.742-37.502,26.096-84.21,46.451-123.507c28.088-54.227,67.038-107.306,101.498-158.057
			c15.386-22.66,31.291-45.611,46.488-67.95c10.867-15.974,38.098-52.558,49.453-68.364c0.001-0.001,0.002-0.002,0.002-0.003
			c3.812-5.335,7.965-11.039,12.186-16.6c0.174-0.238,0.37-0.499,0.606-0.803c0.028-0.036,0.055-0.072,0.084-0.108
			c0.301-0.395,0.602-0.784,0.903-1.177c8.5-11.211,10.833-18.548,38.967-52.401c13.575-16.334,22.547-35.586,35.05-52.513
			c10.51-14.228,31.26-39.089,49.395-42.859c5.643-1.173,8.998,0.386,10.862,3.308l114.728-234.574
			c-6.029-1.957-12.118-3.698-18.253-5.211c-0.009-0.002-0.019-0.004-0.028-0.006c-1.95-0.48-3.904-0.936-5.862-1.369
			c-0.185-0.041-0.369-0.081-0.554-0.121c-1.872-0.411-3.748-0.8-5.628-1.167c-0.136-0.026-0.272-0.055-0.409-0.081
			c-6.019-1.166-12.072-2.104-18.149-2.812c-0.372-0.043-0.744-0.082-1.116-0.123c-1.594-0.178-3.189-0.34-4.786-0.485
			c-0.479-0.044-0.957-0.087-1.436-0.127c-1.562-0.133-3.126-0.248-4.691-0.349c-0.432-0.028-0.863-0.061-1.296-0.086
			c-3.958-0.234-7.923-0.367-11.892-0.396c-0.458-0.003-0.916,0.004-1.374,0.003c-1.484-0.001-2.969,0.01-4.454,0.038
			c-0.655,0.013-1.31,0.031-1.965,0.05c-1.311,0.037-2.622,0.084-3.933,0.145c-0.692,0.031-1.384,0.063-2.075,0.102
			c-1.348,0.074-2.695,0.166-4.043,0.266c-0.611,0.045-1.223,0.083-1.834,0.133c-1.941,0.16-3.883,0.34-5.822,0.552
			c-43.978,4.813-88.851,24.77-129.673,40.669c-21.192,8.255-42.136,17.863-62.349,30.003
			c-55.886,33.573-112.852,75.175-160.554,120.12c-65.423,61.642-123.366,129.312-177.855,200.596
			c-55.359,72.421-119.003,138.967-161.888,220.161c-45.693,86.511-67.907,179.955-72.76,275.872
			c-1.704,33.682-0.37,69.916,3.156,101.855c2.521,22.844,18.126,53.854,7.921,76.188c-8.579,18.776-34.069,14.171-45.88,0.925
			c-14.471-16.229-20.374-32.467-28.72-52.242c-6.069-14.381-11.297-29.001-15.75-43.971c-9.449-31.762-18.188-63.685-24.184-96.299
			c-6.03-32.802-6.861-65.621-7.34-99.086c-0.846-59.121-4.512-119.963,4.22-178.648c4.71-31.658,13.859-65.235,22.775-96.02
			c15.321-52.898,34.386-104.114,60.467-152.757c29.75-55.483,67.197-106.602,94.453-163.463
			c15.253-31.82,26.082-66.024,32.514-101.044c5.579-30.373,7.851-61.357,6.817-91.936c-1.441-42.612-18.886-82.663-20.997-125.507
			c-2.731-55.458,54.58-99.337,97.544-124.969c37.344-22.278,76.719-42.873,115.203-63.079
			c45.758-24.032,88.101-53.619,131.026-82.251c57.065-38.061,114.583-74.438,169.74-115.695
			c56.127-41.982,110.172-86.811,159.847-136.323c33.839-33.729,66.826-71.051,98.273-108.176
			c29.559-34.896,49.314-76.627,70.585-116.829c8.894-16.81,18.746-33.229,28-49.948c10.823-19.553,22.109-38.872,32.06-58.895
			c9.53-19.176,10.839-39.647,16.426-60.354c14.367-53.247,37.392-105.29,39.256-161.144
			C2111.204,7617.502,2079.305,7567.239,2048.723,7526.978z" color="12100205" style="fill:#b8a26d;fill-opacity:1;stroke-width:10;stroke:rgb(0,0,0)"></path><path id="157963651" parent_id="157963644" order="5" structure_id="12117" d="
			M6964.5,6668.999c-8.976-44.879-19.646-89.661-35.642-132.614c-16.925-45.453-41.223-76.029-74.253-111.39
			c-34.969-37.436-63.232-62.648-116.025-70.16c-80.318-11.426-149.768,20.284-220.087,53.616
			c-40.278,19.094-80.554,37.291-116.747,62.653c-31.871,22.333-71.177,39.001-108.794,48.346
			c-23.612,5.866-46.301,11.591-70.452,17.052c-70.25,15.885-136.128,41.59-207.004,55.443
			c-39.101,7.642-77.426,11.545-116.996,15.055c-54.043,4.793-104.853,1.023-158.484,4.046c-23.906,1.344-49.524-0.956-73.408-2.149
			c-43.23-2.159-84.979,0.104-128.107,0.104c-67.135,0-129.103-6.395-192.057-19.943c-21.081-4.537-42.805-4.496-64.228-5.632
			c-31.527-1.672-63.491-3.177-94.716-7.477c-5.717-0.787-17.217-0.806-19.052-7.896c-0.406-1.571-0.439-2.886-0.186-3.987
			l-311.985-39.631c-0.001,0.011-0.003,0.022-0.004,0.033c-0.156,1.125-0.304,2.252-0.443,3.38c-0.03,0.241-0.057,0.484-0.086,0.727
			c-0.105,0.871-0.208,1.743-0.304,2.615c-0.04,0.37-0.077,0.74-0.116,1.11c-0.078,0.746-0.154,1.493-0.225,2.241
			c-0.039,0.413-0.076,0.827-0.112,1.24c-0.063,0.71-0.124,1.42-0.181,2.131c-0.033,0.429-0.065,0.858-0.097,1.287
			c-0.052,0.7-0.099,1.4-0.144,2.101c-0.026,0.431-0.054,0.861-0.078,1.292c-0.041,0.717-0.076,1.435-0.109,2.151
			c-0.02,0.407-0.039,0.814-0.056,1.223c-0.032,0.777-0.056,1.556-0.078,2.334c-0.01,0.347-0.023,0.693-0.031,1.039
			c-0.024,1.062-0.041,2.123-0.049,3.185c0,0.06-0.002,0.12-0.002,0.181c-0.007,1.128-0.003,2.257,0.011,3.386
			c0.004,0.318,0.014,0.637,0.02,0.955c0.014,0.803,0.029,1.605,0.055,2.409c0.012,0.41,0.029,0.821,0.045,1.232
			c0.027,0.711,0.056,1.422,0.091,2.132c0.022,0.445,0.048,0.891,0.073,1.336c0.039,0.681,0.081,1.36,0.128,2.041
			c0.032,0.455,0.065,0.91,0.101,1.364c0.052,0.676,0.109,1.352,0.169,2.026c0.041,0.453,0.081,0.905,0.126,1.357
			c0.067,0.69,0.142,1.38,0.218,2.068c0.048,0.433,0.093,0.865,0.145,1.297c0.089,0.752,0.188,1.503,0.287,2.254
			c0.049,0.365,0.093,0.731,0.145,1.097c0.156,1.114,0.322,2.229,0.503,3.341c3.594,22.148,10.637,44.146,19.876,65.432
			c16.32,37.6,39.498,67.834,65.617,99.351c34.292,41.379,67.341,82.175,107.38,118.316
			c63.332,57.167,139.703,103.164,215.124,141.902c45.201,23.217,92.206,41.129,140.202,57.749
			c33.411,11.569,67.204,20.583,101.028,30.486c26.988,7.901,54.646,13.382,82.511,17.093
			c99.907,13.305,206.036,11.784,306.484,5.676c43.394-2.639,88.076-6.658,130.774-13.223
			c86.225-13.256,172.203-48.008,251.919-82.115c23.207-9.93,44.578-24.597,66.585-36.849c13.97-7.777,28.157-14.938,42.613-21.742
			c12.489-5.879,23.119-15.983,36.112-20.826c33.13-12.349,56.527,13.882,54.996,44.751c-0.824,16.621-9.186,30.276-19.749,43.219
			c-21.233,26.017-49.727,49.172-75.303,71.781c-16.278,14.391-30.78,30.888-47.674,45.251
			c-9.884,8.403-19.561,16.396-28.303,25.526c-23.304,24.338-43.88,48.758-59.674,78.78c-10.331,19.637-17.817,40.437-22.251,61.649
			l600.96-25.622c0.123-0.652,0.267-1.306,0.432-1.96c3.698-14.645,20.149-32.501,29.065-44.572
			c36.156-48.946,59.727-104.939,81.005-160.053c11.278-29.212,18.724-58.729,24.929-90
			C6981.644,6886.658,6985.42,6773.601,6964.5,6668.999z" color="12755765" style="fill:#c2a335;fill-opacity:1;stroke-width:10;stroke:rgb(0,0,0)"></path><path id="157963656" parent_id="157963644" order="6" structure_id="12116" d="
			M7083.508,4730.261c-6.394-45.664-17.896-90.386-28.23-135.261c-3.484-15.129-7.706-30.285-10.829-46
			c-20.798-104.645-52.358-204.453-93.503-302.976c-32.615-78.101-70.212-154.749-90-237.47
			c-15.674-65.524-29.787-136.105-58.47-197.461c-17.847-38.175-39.591-73.771-60.976-110.116
			c-25.141-42.731-54.254-81.158-87.606-117.863c-21.792-23.982-44.451-47.161-67.434-69.999
			c-32.314-32.111-51.745-72.538-80.13-107.507c-26.256-32.347-59.196-59.611-90.07-87.358
			c-33.611-30.207-70.516-56.491-108.763-80.474c-27.189-17.049-60.014-32.819-89.404-45.085c-29.28-12.219-67.9-6.243-98.593-4.692
			c-23.471,1.186-52.248,1.627-67.79-19.304c-18.313-24.662-25.598-60.021-38.715-87.695c-13.315-28.092-23.97-57.455-36.05-86.047
			c-22.479-53.2-57.168-99.777-86.711-149.055c-28.43-47.419-54.331-94.349-88.282-138.454
			c-21.765-28.273-37.848-58.293-63.39-83.578c-29.455-29.159-62.729-53.875-93.956-81.263
			c-91.586-80.327-194.13-155.983-318.104-175.708c-32.677-5.197-64.812-8.578-98.002-11.896
			c-94.54-9.452-188.856,7.742-273.5,52.103c-19.48,10.209-39.553,18.905-58.5,30.396c-29.27,17.75-59.535,33.331-87.907,52.554
			c-26.27,17.798-52.105,38.888-77.145,58.752c-32.756,25.988-68.312,48.207-100.941,74.196
			c-24.389,19.426-48.229,39.551-71.231,60.605c-34.736,31.795-67.55,65.742-97.312,102.258
			c-14.387,17.651-27.784,36.079-40.904,54.683c-10.849,15.383-23.351,28.771-34.027,44.438
			c-9.249,13.571-17.406,28.041-26.031,42.018c-14.199,23.011-30.485,43.992-41.29,68.872
			c-10.51,24.199-29.788,46.155-42.662,69.564c-40.679,73.969-64.817,155.313-96.715,233.043
			c-11.481,27.977-16.312,56.32-21.332,85.688c-9.776,57.193-19.126,114.49-25.134,172.164
			c-6.777,65.067-13.367,131.171-13.367,196.666c0,22.499-2.666,43.829-2.666,66c0,39.383,0.656,78.716-1.288,118.046
			c-1.052,21.284-11.072,40.493-11.046,61.955c0.012,9.425,0.891,18.729,0.494,28.114c-0.05,1.165-0.032,2.372,0.025,3.533
			c0.173,3.499,1.022,7.727-0.021,11.101c-0.521,1.684-2.037,3.046-3.766,3.138c-3.602,0.192-5.239-3.387-6.238-6.461
			c-0.196-0.602-0.37-1.187-0.526-1.718c-0.639-2.166-1.27-4.113-1.226-6.37c0.054-2.755,0.156-5.521,0.805-8.211
			c5.181-21.516,5.186-43.641,6.693-65.602c0.685-9.972,1.463-19.936,2.214-29.903c0.75-9.963,1.473-19.929,2.049-29.905
			c0.574-9.949,1.003-19.909,1.162-29.874c0.16-9.948,0.053-19.903-0.443-29.841c-0.734-14.705-0.473-29.69-1.223-44.003
			c-2.572-49.08-3.47-98.841-1.052-147.948c2.659-54.014,2.521-108.208,8.045-162.052c9.077-88.475,31.861-175.907,63.01-258.948
			c5.334-14.218,11.245-27.319,17.75-41.056c13.49-28.489,26.389-56.249,41.742-83.893c17.506-31.52,36.582-62.207,54.061-93.658
			c54.479-98.031,91.068-205.661,131.438-310.502c11.631-30.206,21.681-62.121,20.007-94.944c-0.187-3.653-0.518-7.232-0.946-10.771
			c-1.36-11.237-3.762-22.03-6.108-33.225c-8.962-42.736-25.738-82.202-40.281-123.165
			c-22.477-63.309-35.626-126.629-29.612-194.088c3.013-33.798,5.65-66.496,8.896-99.751c1.167-11.958,1.971-23.854,2.237-35.736
			c0.359-16.05-0.267-32.075-2.344-48.195c-3.367-26.136-12.965-51.14-21.344-76.114c-19.775-58.945-56.852-111.566-88.003-165.908
			c-32.817-57.248-73.544-115.493-116.887-165.989c-147.15-171.436-335.734-300.44-541.711-390.058
			c-30.149-13.117-60.336-21.979-91.919-30.749c-36.243-10.063-69.184-19.9-105.755-25.474
			c-48.309-7.362-95.446-9.777-144.223-9.777c-33.346,0-67.312-1.271-100,1.954c-95.348,9.405-183.677,31.662-257.894,94.442
			c-41.43,35.046-65.837,79.255-90.113,125.494c-14.082,26.822-36.97,43.919-44.431,73.672c-5.903,23.539-3.981,48.869-1.708,72.767
			c2.378,24.998-0.382,50.521,2.095,75.723c3.49,35.513,15.283,70.134,16.497,105.691c0.583,17.08-0.345,34.183,0.503,51.257
			c0.925,18.614,1.489,37.245,1.787,55.879c0.156,9.78-1.43,42.832-0.673,52.674c0,0.006,0,0.016,0.001,0.024
			c1.889,25.074,3.75,53.273,4.74,68.624c0.77,11.752,6.615,24.487,8.34,35.911c6.415,42.482,10.729,86.78,19.068,128.428
			c8.589,42.897,11.643,89.726,0.787,133.63c-10.67,43.152-21.3,87.801-25.167,132.323c-2.17,24.983-5.195,49.499-7.711,74.436
			c-1.257,12.46-0.436,25.219-1.536,37.994c-0.349,4.051-0.575,19.721-4.249,21.987c-0.664,0.409-1.317,0.614-1.954,0.664
			l51.568,335.195c27.206-8.97,54.352-20.242,80.858-33.442c44.024-21.925,77.268-51.271,110.119-88.435
			c136.099-153.96,200.472-385.315,210.844-587.381c2.809-54.715,10.305-109.112,12.13-163.887
			c2.015-60.463-12.442-115.326-17.827-174.767c-7.129-78.696,58.02-134.451,128.926-147.857c56.547-10.691,125,27,146,90
			c24.75,74.25-15.901,165.976-39.04,237.484c-13.391,41.385-32.781,83.604-44.257,125.867c-3.358,12.368-6.347,24.836-9.007,37.373
			c-15.999,75.414-20.215,152.942-19.293,229.868c0.439,36.629,4.428,73.786,2.598,110.16c-1.992,39.594,1.633,80.892,6.002,120.224
			c3.852,34.68,12.781,67.115,22.025,101.023c8.528,31.282,15.021,64.211,30.691,92.938c10.425,19.11,20.02,38.655,30.211,57.888
			c16.165,30.507,34.564,59.741,53.172,88.798c16.231,25.346,32.75,50.504,48.761,75.992c28.896,46,55.929,93.086,75.527,143.896
			c19.867,51.508,26.896,103.521,27.924,158.493c0.808,43.142-3.866,86.12-4.315,129.222c-0.418,40.121-7.332,79.849-7.093,120.012
			c0.401,67.593,6.536,134.715,13.458,201.903c9.212,89.416,25.195,179.44,63.2,261.559c18.433,39.828,36.011,81.681,63.082,116.408
			c1.226,1.573,2.464,3.135,3.714,4.688c0.438,0.545,0.885,1.082,1.325,1.623c0.816,1.004,1.631,2.009,2.457,3.004
			c0.536,0.646,1.081,1.283,1.621,1.925c0.742,0.882,1.48,1.767,2.229,2.643c0.594,0.693,1.196,1.377,1.794,2.066
			c0.705,0.812,1.407,1.627,2.118,2.434c0.64,0.724,1.288,1.44,1.933,2.16c0.682,0.761,1.36,1.525,2.048,2.281
			c0.672,0.739,1.353,1.469,2.029,2.203c0.671,0.726,1.338,1.455,2.014,2.176c0.703,0.75,1.415,1.492,2.123,2.236
			c0.659,0.693,1.316,1.388,1.98,2.076c0.734,0.761,1.477,1.513,2.217,2.268c0.648,0.662,1.295,1.326,1.948,1.982
			c0.762,0.766,1.531,1.524,2.3,2.284c0.641,0.635,1.279,1.271,1.925,1.901c0.792,0.773,1.591,1.539,2.389,2.305
			c0.63,0.605,1.258,1.212,1.892,1.813c0.822,0.78,1.651,1.553,2.48,2.326c0.618,0.577,1.235,1.155,1.856,1.727
			c0.854,0.786,1.713,1.565,2.573,2.344c0.605,0.549,1.211,1.099,1.82,1.644c0.88,0.788,1.767,1.569,2.654,2.349
			c0.598,0.526,1.195,1.054,1.797,1.576c0.908,0.79,1.822,1.573,2.738,2.355c0.586,0.5,1.172,1.002,1.761,1.499
			c0.94,0.794,1.886,1.582,2.833,2.368c0.572,0.475,1.144,0.949,1.718,1.42c0.971,0.795,1.945,1.585,2.922,2.373
			c0.56,0.45,1.119,0.901,1.681,1.349c1.002,0.799,2.009,1.591,3.018,2.381c0.543,0.424,1.086,0.849,1.631,1.271
			c1.034,0.8,2.071,1.595,3.112,2.385c0.529,0.402,1.059,0.804,1.59,1.203c1.062,0.799,2.13,1.593,3.2,2.382
			c0.515,0.38,1.029,0.758,1.545,1.135c1.097,0.801,2.197,1.597,3.302,2.387c0.494,0.354,0.989,0.707,1.484,1.059
			c1.132,0.802,2.267,1.6,3.406,2.391c0.473,0.329,0.947,0.657,1.423,0.984c1.168,0.805,2.339,1.604,3.515,2.396
			c0.452,0.305,0.904,0.607,1.356,0.91c1.204,0.805,2.411,1.605,3.624,2.398c0.428,0.28,0.857,0.559,1.287,0.837
			c1.243,0.807,2.489,1.608,3.74,2.402c0.4,0.254,0.801,0.505,1.201,0.758c1.285,0.81,2.574,1.613,3.867,2.409
			c0.372,0.229,0.744,0.455,1.117,0.683c1.325,0.81,2.654,1.615,3.988,2.41c0.343,0.205,0.688,0.407,1.031,0.611
			c1.369,0.812,2.741,1.617,4.119,2.413c0.307,0.178,0.614,0.353,0.922,0.529c1.417,0.814,2.838,1.623,4.265,2.421
			c0.269,0.15,0.538,0.299,0.808,0.449c1.469,0.818,2.941,1.63,4.42,2.431c0.223,0.121,0.445,0.239,0.667,0.358
			c1.525,0.823,3.054,1.639,4.589,2.444c0.178,0.093,0.356,0.185,0.535,0.278c1.583,0.828,3.171,1.647,4.765,2.456
			c0.114,0.058,0.229,0.115,0.345,0.173c1.657,0.839,3.319,1.668,4.987,2.486c1.45,0.711,2.902,1.42,4.36,2.115
			c55.679,26.531,112.682,49.549,175.245,49.549c29.834,0,60.7-10.206,89.167-18.037c29.591-8.141,59.388-18.295,84.814-35.915
			c31.19-21.614,63.084-40.835,91.419-66.582c39.129-35.555,69.408-79.754,89.493-128.602
			c25.4-61.772,40.974-133.835,56.128-198.981c34.297-147.439,46.455-297.536,75.974-446.243
			c20.768-104.622,86.102-198.268,159.016-275.872c43.426-46.22,96.667-81.412,151.116-113.238
			c58.921-34.44,116.743-71.052,175.47-105.552c54.356-31.934,104.045-68.423,165.377-86.729
			c67.147-20.041,110.139,34.092,138.772,86.658c11.875,21.797,23.537,43.708,35.127,65.657
			c41.013,77.668,84.397,154.194,124.804,232.148c35.811,69.09,71.895,137.508,118.351,200.235
			c18.365,24.797,40.97,46.136,65.358,64.925c44.892,34.583,95.824,61.134,143.928,90.874
			c52.357,32.37,104.132,65.671,155.686,99.305c32.792,21.394,68.241,40.603,98.479,65.059
			c30.002,24.266,60.868,47.839,87.52,75.875c25.739,27.077,45.675,58.72,65.024,90.506c19.287,31.685,40.276,62.585,57.402,95.518
			c19.861,38.191,35.286,78.499,54.995,116.767c51.748,100.474,86.09,206.712,132.769,308.879
			c10.423,22.814,26.998,42.351,37.14,65.04c9.703,21.707,26.434,39.633,32.7,63.252c5.058,19.067,15.296,52.322-2.164,67.349
			c-13.511,11.627-35.204,12.407-52.021,12.102c-38.722-0.703-76.206-11.477-113.605-20.351
			c-36.262-8.604-70.061-25.048-106.157-34.377c-141.075-36.461-270.167-68.921-417.039-68.921c-27.457,0-75.344,6.156-95.98-11.995
			c-26.015-22.88-16.949-55.914-9.838-84.973c8.637-35.295,22.441-68.368,31.479-103.385
			c12.038-46.646,21.953-94.483,21.531-142.872c-0.398-45.684-8.583-91.277-19.92-135.425
			c-34.508-134.379-97.193-264.447-170.315-381.821c-51.407-82.518-108.245-160.07-168.774-236.278
			c-19.812-24.942-40.188-49.927-60.194-74.997c-13.295-16.66-29.932-32.146-46.869-45.028
			c-57.443-43.688-125.594-70.354-198.189-70.355c-151.27,0-247.601,145.534-306.021,267.181
			c-19.101,39.773-41.764,75.325-51.171,116.702c-8.962,39.424-16.343,80.595-21.778,120.493
			c-5.789,42.486-14.875,83.181-18.996,125.003c-6.753,68.516-13.389,136.835-25.163,204.714
			c-7.248,41.785-15.866,86.312-27.879,127c-26.137,88.531-54.882,176.565-91.21,261.285
			c-14.223,33.169-29.536,65.168-46.478,97.223c-8.864,16.771-18.083,33.207-27.274,49.777
			c-17.347,31.271-40.559,59.021-59.49,89.306c-0.01,0.015-0.019,0.03-0.029,0.044c-46.871,63.934-97.687,132.913-97.48,215.93
			c0.048,19.32,0.606,38.1,3.974,56.72c6.38,35.284,37.309,58.848,64.9,77.318c33.43,22.379,59.311,51.583,97.879,66.489
			c27.892,10.78,56.914,18.089,86.119,24.293c103.599,22.011,208.449,44.747,313.158,58.082
			c80.801,10.29,163.075,21.744,242.942,37.722c96.252,19.257,189.988,46.181,288.028,60.588
			c29.297,4.306,58.05,9.339,87.008,16.587c74.71,18.699,148.889,39.445,223.563,58.277
			c96.324,24.294,187.053,34.681,280.474,69.229c112.028,41.43,195.482,84.107,270.041,179.271
			c12.668,16.168,44.521,53.455,35.396,74.42c-13.863,31.848-78.128,8.903-102.533,4.719
			c-40.613-6.965-79.894-20.799-118.892-33.471c-86.106-27.979-183.131-54.743-269.86-69.825
			c-111.751-19.433-224.5-33.003-336.189-50.93c-41.586-6.675-82.709-8.921-126.013-8.921c-41.996,0-81.276,0.793-123.005,3
			c-89.772,4.746-200.643,29.714-273.8,83.624c-0.009,0.007-0.019,0.014-0.027,0.021c-1.813,1.282-3.606,2.59-5.378,3.92
			c-20.217,15.191-37.665,33.48-52.477,53.798c-15.908,21.823-28.758,45.993-38.675,71.218c-3.306,8.408-6.285,16.935-8.943,25.529
			c-0.856,2.769-1.692,5.542-2.482,8.323c-1.203,4.237-2.329,8.487-3.379,12.744c-8.097,32.832-15.037,66.791-3.657,98.572
			c8.477,23.676,23.844,43.962,39.585,63.251c14.552,17.831,27.001,38.939,43.22,55.149c8.387,8.383,18.368,16.271,28,22.777
			c17.415,11.764,35.268,22.418,54.075,31.976c23.123,11.751,47.51,21.635,67.746,37.985c15.998,12.927,48.456,28.494,41.425,54.484
			c-7.213,26.66-34.416,34.167-57.028,43.558c-51.715,21.477-108.657,29.465-160.194,51.442c-15.524,6.62-30.496,13.737-44,23.726
			c-60.777,44.954-102.339,114.016-123,186.052c-0.449,1.565-0.887,3.141-1.318,4.72c-0.062,0.229-0.126,0.457-0.188,0.687
			c-0.411,1.516-0.812,3.037-1.204,4.564c-0.069,0.271-0.139,0.541-0.208,0.812c-0.392,1.54-0.774,3.085-1.146,4.636
			c-0.049,0.203-0.096,0.406-0.144,0.609c-0.772,3.255-1.497,6.531-2.167,9.827c-0.043,0.213-0.088,0.427-0.131,0.641
			c-0.317,1.579-0.62,3.164-0.911,4.751c-0.047,0.258-0.094,0.517-0.14,0.774c-0.288,1.597-0.563,3.198-0.823,4.802
			c-0.03,0.19-0.059,0.38-0.089,0.57c-0.263,1.648-0.513,3.301-0.742,4.957c-0.004,0.027-0.009,0.056-0.013,0.084l311.985,39.631
			c1.338-5.807,10.719-5.63,16.261-5.088c15.851,1.551,32.736,5.239,48.977,7.047c50.877,5.663,102.033,3.037,152.867,8.611
			c51.517,5.649,102.708,13.833,154.109,20.389c13.989,1.784,28.69,0.977,42.995,0.977c42.191,0,84.318,2.428,126.7,2.744
			c57.086,0.469,114.03-2.8,171.109-2.744c40.004,0.038,75.376-11.255,113.962-19.098c24.301-4.938,48.995-9.842,73.257-15.902
			c103.949-25.966,217.201-48.027,310.111-103.452c19.339-11.537,42.169-24.885,54.043-44.29
			c11.455-18.72,23.666-37.013,34.548-56.077c20.064-35.146,40.382-81.89,11.551-118.226
			c-12.026-15.158-29.775-19.668-47.429-25.143c-20.51-6.359-41.24-11.971-61.82-18.09c-17.105-5.086-34.09-11.37-51.199-17.97
			c-50.109-19.329-101.987-34.261-152.477-52.649c-31.031-11.302-61.845-23.433-91.999-37.181
			c-27.53-12.552-55.897-24.369-83.322-37.479c-22.046-10.538-45.209-21.466-68.007-30c-46.741-17.495-91.942-32.946-137.897-53.444
			c-21.788-9.719-43.651-18.203-66.079-26.223c-30.106-10.765-59.946-24.303-89.27-36.555
			c-17.723-7.405-34.167-17.472-51.384-25.921c-16.584-8.138-33.96-12.94-51.192-19.021c-40.803-14.398-83.268-24.07-124.175-38.336
			c-9.921-3.46-52.856-20.952-51.383-29.436c0.413-2.375,4.304-4.044,13.373-4.502c24.28-1.226,63.09,14.748,86.007,24.438
			c51.703,21.862,99.615,49.695,152.002,70.461c30.049,11.911,60.447,23.846,90.496,36.596
			c54.976,23.325,108.815,48.264,165.502,68.053c30.545,10.664,59.496,22.059,90,30.502c70.382,19.482,139.093,45.284,207.442,71.44
			c24.603,9.415,47.633,21.632,72.558,30.752c41.228,15.086,84.438,23.301,126.646,35.023
			c41.062,11.403,78.758,29.271,118.354,44.509c15.597,6.002,31.826,9.793,47.977,12.242c32.558,4.937,66.402,0.809,97.023-5.801
			c26.971-5.821,53.193-10.494,79-21.474c30.507-12.979,58.334-37.972,86.161-55.99c34.009-22.021,66.899-45.848,96.846-73.204
			c32.271-29.481,58.265-65.941,72.683-107.398c12.716-36.562,13.039-78.946,11.311-117.155
			c-1.706-37.712-5.771-80.462-18.927-115.832c-13.317-35.802-32.562-68.977-49.575-103.064
			c-28.22-56.542-53.658-111.257-79.053-168.55c-14.98-33.796-34.143-65.951-55.199-96.555
			c-25.877-37.606-75.959-58.648-117.252-74.444c-40.758-15.591-78.114-38.91-117.557-57
			c-107.819-49.451-222.876-73.562-342.438-85.659c-62.562-6.33-120.514-33.453-180-51.144
			c-38.566-11.469-75.568-19.078-115.403-24.903c-41.36-6.048-83.063-9.241-124.595-13.842
			c-49.764-5.514-101.188-10.962-151.955-16.053c-33.604-3.37-66.664-7.369-100.047-11.954
			c-39.57-5.434-78.256-14.016-117.778-20.035c-29.718-4.526-59.633-6.119-89.219-11.992
			c-71.171-14.126-143.245-22.58-213.003-43.482c-46.84-14.035-92.25-32.329-138.766-47.342c-17.734-5.724-36.7-7.118-54.037-13.045
			c-18.798-6.427-36.992-14.217-56.88-16.74c-23.043-2.923-50.905,1.75-73.816,5.041c-2.702,0.388-26.688,6.546-35.865,9.273
			c-8.795,2.613-3.858-8.813,2.492-15.652c2.396-2.581,25.616-19.893,35.192-25.215c27.774-15.435,58.436-25.388,86.625-40.089
			c12.043-6.281,24.308-12.225,36.301-18.5c21.006-10.992,38.733-25.438,57.961-39.004c22.839-16.114,43.903-34.711,61.288-56.677
			c45.799-57.869,88.284-123.061,124.282-187.787c14.583-26.218,26.912-51.148,36.915-79.608
			c11.458-32.599,17.226-66.414,26.712-99.382c7.7-26.76,11.404-54.502,16.818-81.765c9.423-47.45,11.299-96.981,15.801-144.977
			c3.015-32.153-1.816-66.837-4.443-98.959c-3.058-37.397-8.224-74.582-13.585-111.706c-5.691-39.412-14.768-75.254-29.966-112.386
			c-6.216-15.184-22.518-33.082-20.821-50.32c0.54-5.497,7.689-10.094,12.687-7.742c19.938,9.381,31.92,52.195,35.721,66.811
			c8.684,33.396,14.979,69.688,18.389,104.279c3.376,34.251,10.996,68.582,10.996,103.006c0,33.396-2,64.561-2,97.994
			c0,16.671,0.829,33.891-1.555,50c-6.22,42.025-9.523,87.129-20.008,128.445c-17.742,69.918-22.235,139.594-56.189,204.551
			c-32.825,62.796-65.154,127.622-107.444,184.957c-26.564,36.015-49.662,71.875-81.05,104.047
			c-29.03,29.758-64.083,59.041-101.754,76.997c-9.894,4.716-31.867,8.857-37.893,19.153c-5.99,10.234,8.812,9.052,16.868,9.873
			c12.156,1.238,23.908,0.884,36.024,2.2c15.146,1.644,33.326,5.445,47.009,12.045c19.729,9.517,38.267,22.075,59.988,26.732
			c68.707,14.733,136.497,29.341,203.999,48.781c30.755,8.857,62.255,13.555,94.004,18.442c16.056,2.471,32.277,4.745,48.004,7.75
			c49.57,9.474,100.669,14.671,150.752,21.975c28.88,4.211,57.131,11.158,86.268,14.029c31.443,3.098,62.559,7.329,93.977,12.05
			c32.715,4.915,65.973,9.573,99,12.75c62.1,5.975,124.461,7.613,184.749,24.5c56.045,15.699,112.06,30.146,169.274,41.722
			c27.293,5.522,55.451,9.119,81.872,17c33.987,10.137,69.309,19.118,104.108,25.974c32.724,6.447,65.106,13.04,96.996,22.804
			c14.869,4.553,30.223,9.056,44.778,14.446c24.853,9.204,49.211,19.778,73.444,30.554c32.898,14.629,66.562,28.891,98.777,44.223
			c46.798,22.271,95.488,42.923,145.358,57.303c37.135,10.708,91.358,34.444,129.133,19.188
			c27.595-11.145,45.111-36.212,61.014-60.929c17.306-26.897,33.587-52.577,48-81.562c16.852-33.896,33.726-69.23,46.257-104.989
			c8.207-23.423,14.497-47.708,20.516-71.733c9.508-37.95,15.669-78.067,15.834-117.644
			C7090.834,4837.134,7090.945,4783.357,7083.508,4730.261z" color="13939253" style="fill:#d4b235;fill-opacity:1;stroke-width:10;stroke:rgb(0,0,0)"></path><path id="157963657" parent_id="157963644" order="7" structure_id="12116" d="
			M4433.445,2556.003c2.347,11.195,4.748,21.988,6.108,33.225c6.778-0.848,13.812-1.447,20.127-3.114
			c10.695-2.823,21.85-5.069,32.209-8.47c48.824-16.025,99.35-41.088,141.33-72.331c43.513-32.384,79.08-73.59,108.482-118.999
			c14.089-21.759,24.32-44.627,33.839-68.592c10.135-25.515,17.921-49.642,12.396-77.034
			c-9.069-44.968-36.078-85.736-64.022-122.923c-28.507-37.934-61.821-70.806-104.119-90.906
			c-22.037-10.473-46.081-17.412-69.855-21.046c-12.742-1.948-26.393-2.97-39.85-2.295c-12.45,0.624-28.337-0.11-40.512,3.328
			c-24.765,6.994-52.487,25.656-70.243,44.623c-14.715,15.717-19.48,33.372-24.649,51.794c-0.267,11.882-1.07,23.778-2.237,35.736
			c-3.246,33.255-5.884,65.953-8.896,99.751c-6.014,67.459,7.136,130.779,29.612,194.088
			C4407.707,2473.802,4424.483,2513.268,4433.445,2556.003z" color="13939253" style="fill:#d4b235;fill-opacity:1;stroke-width:10;stroke:rgb(0,0,0)"></path><path id="157963648" parent_id="157963644" order="8" structure_id="12115" d="
			M2061.08,5222.253c0.047-0.043,0.094-0.086,0.141-0.129c2.767-2.529,5.555-5.042,8.379-7.525
			c21.33-18.751,41.377-40.234,59.771-61.841c69.378-81.499,100.238-181.271,67.102-285.779
			c-11.64-36.697-31.47-69.599-53.531-101.227c-26.861-38.508-62.257-71.744-83.057-114.313
			c-19.612-40.138-34.698-77.605-45.162-121.438c-8.942-37.457-11.257-76.123-15.924-114.249
			c-5.046-41.217-11.241-82.321-14.351-123.751c-4.635-61.759-13.92-123.17-22.974-184.293
			c-22.77-153.729-38.791-324.718-169.818-426.223c-79.226-61.374-172.748-98.42-272.321-108.948
			c-105.222-11.126-197.16,9.479-298.337,31.204c-34.901,7.495-69.586,9.465-105.004,14.846
			c-61.994,9.419-124.066,18.984-158.953-42.089c-25.421-44.502-19.711-100.953-0.983-146.773
			c20.805-50.901,56.813-84.63,96.493-121.724c48.579-45.416,98.572-89.237,147.785-133.961
			c37.245-33.849,69.743-78.425,79.215-129.039c3.939-21.051,3.952-43.31,3.948-64.699c-0.009-50.419-31.295-101.922-56.751-143.523
			c-16.082-26.282-37.616-49.086-62.772-66.463c-68.028-46.991-145.2-98.048-194.179-165.912
			c-30.629-42.438-54.293-87.186-48.246-141.015c6.371-56.719,39.071-114.836,74.925-158.365
			c28.946-35.143,64.206-69.623,101.405-96.003c23.459-16.636,48.28-31.392,72.905-46.048
			c23.366-13.906,49.898-24.183,70.713-41.973c24.574-21.003,39.583-44.928,56.592-71.727
			c17.288-27.238,32.837-53.682,42.519-85.029c18.479-59.834,43.255-125.021,33.641-188.27
			c-10.147-66.763-34.148-133.408-69.751-190.974c-16.553-26.766-40.18-54.214-62.972-76.025
			c-43.52-41.648-84.284-85.417-134.025-119.975c-50.517-35.097-143.979-115.188-83.018-180.329
			c14.142-15.107,26.911-24.693,47.114-29.832c42.976-10.923,89.871-16.723,134.115-18.467c37.803-1.491,73.824,4.641,111.053,9.993
			c24.104,3.465,48.062,7.896,71.896,12.876c94.059,19.658,186.165,40.792,275.585,76.485c21.731,8.674,43.086,18.281,64.251,28.271
			c37.347,17.627,72.529,39.645,109.026,58.754c40.178,21.033,75.925,50.995,110.974,79.472c16.45,13.365,31.344,27.199,45,42.777
			c64.026,73.037,92.197,160.906,110.777,254.052c3.526,17.674,6.256,36.069,8.223,54c4.161,37.939,9.093,75.937,12.973,114.197
			c5.913,58.303,12.686,116.517,20.089,174.648c3.325,26.108,6.442,52.241,9.616,78.368c9.699,79.863,23.049,159.117,50.064,235.182
			c13.685,38.531,26.81,74.67,47.105,111.105c20.384,36.593,32.172,76.58,56.57,110.978c27.256,38.426,65.778,81.002,97.582,115.47
			c47.795,51.798,107.908,117.083,171,150c70.943,37.014,163.292,32.991,254.95,2.769l-51.568-335.195
			c-3.905,0.302-7.2-5.45-8.533-8.736c-3.182-7.846-4.328-15.859-3.891-24.77c0.417-8.523,1.506-17.295,2.326-25.588
			c1.755-17.752,7.792-34.423,8.482-52.303c0.91-23.558,0-47.336,0-70.913c0-23.104-1.625-46.362-7.091-68.075
			c-5.034-19.993-13.191-41.383-14.182-62.402c-1.728-36.639,5.91-72.568,14.952-107.849c8.521-33.243,10.856-66.303,12.553-100.581
			c0.652-13.18,4.864-27.626,4.004-40.94c-1.017-15.858-3.313-50.923-5.523-79.335c-0.81-10.451-3.951-36.581-5.034-44.527
			c-2.213-16.238-5.62-31.879-8.548-47.451c-11.867-63.108-31.241-125.667-27.943-192.15c1.928-38.866,8.999-76.847,10.061-116
			c0.545-20.088-12.603-42.708-21.513-60.011c-81.624-158.504-184.626-305.719-308.452-433.985
			c-24.634-25.517-55.273-47.925-84.05-68.449c-18.307-13.056-35.261-26.538-53.555-39.555
			c-49.624-35.31-99.844-67.841-154.445-96.502c-89.975-47.229-171.986-88.659-272.043-109.889
			c-45.156-9.582-88.801-22.344-134.55-30.808c-48.063-8.89-96.545-15.926-145.407-18.31c-47.072-2.296-93.836-8.063-141-10.445
			c-59.778-3.018-119.155-3.81-178.921-6.706c-63.609-3.082-127.455-4.529-190.999,0.628
			c-49.235,3.996-96.459,15.128-144.736,23.974c-49.061,8.989-97.7,22.979-140.344,49.556c-57.748,35.99-108.305,78.004-156.501,126
			c-23.458,23.359-47.543,48.64-67.943,74.445c-18.589,23.516-38.723,46.372-53.845,72.382
			c-20.234,34.804-26.274,80.332-36.751,118.815c-11.165,41.011-22.064,82.152-29.888,123.947
			c-6.342,33.878-11.982,68.383-8.831,102.911c4.419,48.415,25.598,98.366,49.759,140.048
			c20.708,35.724,44.222,65.615,69.505,98.057c13.086,16.792,19.074,40.032,38.106,50.527c3.557,1.961,7.686,2.999,11.588,3.754
			c5.634,1.09,11.237,1.872,16.979,2.092c2.793,0.107,5.641,0.252,8.399,0.639c2.485,0.348,5.094,0.018,7.542,0.47
			c2.528,0.467,3.103,2.211,1.302,3.978c-1.829,1.794-4.538,3.255-6.881,4.229c-6.758,2.806-14.254,3.908-21.174,6.246
			c-8.699,2.939-16.376,7.823-23.793,13.183c-3.844,2.778-7.606,5.581-11.171,8.733c-3.636,3.215-7.015,6.638-10.455,10.041
			c-19.218,19.013-26.938,44.444-39.452,68.156c-59.232,112.235-77.793,243.921-106.553,366.001
			c-14.756,62.637-15.265,129.949-21.936,195.896c-6.714,66.373-8.466,129.33,1.89,194c5.288,33.021,5.819,66.076,13.322,99.052
			c5.386,23.67,11.306,52.928,21.624,77.075c2.775,6.495,5.869,12.62,9.355,18.167c10.028,15.953,29.887,27.493,31.795,47.714
			c2.576,27.324-25.546,55.639-32.05,81.889c-8.078,32.603-0.766,68.012,0.817,101.026c1.701,35.471,1.064,71.067-0.76,106.521
			c-3.52,68.412-4,136.278-4,206.509c0,74.938,3.77,149.819,9.044,224.554c4.92,69.728,8.321,138.181,11.733,207.521
			c0.91,18.5,4.111,35.762,4.417,54.478c0.387,23.643,1.444,47.313,4.579,70.768c1.907,14.267,3.527,28.495,6.223,42.723
			c6.449,34.044,18.397,65.884,25.729,100.004c14.512,67.529,29.399,134.874,44.835,202.351
			c15.219,66.528,34.299,133.026,70.162,191.7c8.792,14.384,17.558,29.966,33.277,37.196c39.632,18.228,73.59,3.917,110.999-10.998
			c16.32-6.507,32.664-13.187,49.024-19.278c32.269-12.015,59.661-19.071,94.977-15.995c49.731,4.333,99.945-0.576,149.448,6.964
			c47.498,7.234,94.483,20.032,139.068,38.067c34.884,14.111,73.075,30.979,103.095,53.365
			c35.274,26.303,65.195,60.371,98.614,88.983c18.45,15.797,32.439,36.351,45.76,56.644c9.947,15.165,21.613,29.205,30.651,44.962
			c9.109,15.88,15.128,33.245,22.983,49.731c7.891,16.561,17.391,32.295,25.38,48.807c4.054,8.378,7.858,17.463,12.379,25.5
			c2.877,5.114,4.888,10.455,8.121,15.389c12.747,19.451,22.488,41.126,33.368,61.708c21.457,40.591,37.459,89.021,71.641,121.401
			c14.332,13.577,30.312,28.151,45.04,40.953c16.153,14.042,33.429,24.485,51.452,34.548c2.461,1.375,5.05,2.519,7.634,3.639
			c5.812,2.52,11.702,4.861,17.438,7.555c5.728,2.69,11.463,5.679,16.365,9.725c2.094,1.729,4.046,3.68,5.554,5.949
			c1.088,1.638,2.74,4.27,2.074,6.259l269.335,209.7C2055.612,5227.293,2058.335,5224.765,2061.08,5222.253z" color="13939253" style="fill:#d4b235;fill-opacity:1;stroke-width:10;stroke:rgb(0,0,0)"></path></g><g id="157963664" order="0" group_label_id="113753816" group_label="Atlas - Developing Human Sulci" sub_image_id="102291549"><path id="157963668" parent_id="157963664" order="0" structure_id="10639" d="M2734.844,1169.45c-0.54,0.238,37.154,17.931,37.154,17.931
			s38.219-14.819,38.712-14.28c0.493,0.537-41.525,88.342-42.263,88.071C2767.71,1260.898,2735.384,1169.211,2734.844,1169.45z" color="7171696" style="fill:#6d6e70;fill-opacity:1;stroke-width:10;stroke:rgb(0,0,0)"></path><path id="157963672" parent_id="157963664" order="1" structure_id="10631" d="M6908.389,6203.729c-0.307-0.504-12.998,39.154-12.998,39.154
			s19.618,35.992,19.148,36.552c-0.469,0.557-92.955-29.803-92.781-30.569C6821.934,6248.1,6908.694,6204.234,6908.389,6203.729z" color="7171696" style="fill:#6d6e70;fill-opacity:1;stroke-width:10;stroke:rgb(0,0,0)"></path><path id="157963669" parent_id="157963664" order="2" structure_id="13222" d="M4424.047,8769.604c0.355-0.47-41.184,2.418-41.184,2.418
			s-26.175,31.548-26.868,31.317c-0.692-0.23-6.72-97.384-5.943-97.505C4350.829,8705.713,4423.691,8770.075,4424.047,8769.604z" color="7171696" style="fill:#6d6e70;fill-opacity:1;stroke-width:10;stroke:rgb(0,0,0)"></path><path id="157963670" parent_id="157963664" order="3" structure_id="13221" d="M3003.155,9069.457c0.282-0.517-40.368,8.509-40.368,8.509
			s-21.199,35.085-21.918,34.96c-0.719-0.125-21.11-95.305-20.36-95.541C2921.26,9017.15,3002.874,9069.977,3003.155,9069.457z" color="7171696" style="fill:#6d6e70;fill-opacity:1;stroke-width:10;stroke:rgb(0,0,0)"></path><path id="157963671" parent_id="157963664" order="4" structure_id="10624" d="M1612.457,10298.753c0.367-0.46-41.231,1.397-41.231,1.397
			s-26.947,30.891-27.635,30.643c-0.687-0.247-4.308-97.52-3.528-97.623C1540.843,10233.069,1612.09,10299.215,1612.457,10298.753z" color="7171696" style="fill:#6d6e70;fill-opacity:1;stroke-width:10;stroke:rgb(0,0,0)"></path><path id="157963666" parent_id="157963664" order="5" structure_id="10615" d="M499.708,8503.1c0.437,0.395,1.139-41.239,1.139-41.239
			s-29.175-28.795-28.886-29.466c0.289-0.67,97.6,1.694,97.655,2.479C569.67,8435.658,499.27,8502.705,499.708,8503.1z" color="7171696" style="fill:#6d6e70;fill-opacity:1;stroke-width:10;stroke:rgb(0,0,0)"></path><path id="157963667" parent_id="157963664" order="6" structure_id="10615" d="M476.284,4460.546c0.393,0.439,5.559-40.879,5.559-40.879
			s-25.917-31.76-25.557-32.396c0.359-0.635,96.854,12.159,96.825,12.945C553.08,4401.002,475.891,4460.106,476.284,4460.546z" color="7171696" style="fill:#6d6e70;fill-opacity:1;stroke-width:10;stroke:rgb(0,0,0)"></path></g><g id="157963674" order="0" group_label_id="141667008" group_label="Atlas - Developing Human Hotspots" sub_image_id="102291549"><path id="157963676" parent_id="157963674" order="0" structure_id="10278" d="
			M798.054,5808.372c-1.944-1.944-5.126-1.944-7.071,0l-57.387,57.389c-1.945,1.944-1.945,5.127,0,7.07l57.387,57.389
			c1.945,1.945,5.127,1.945,7.071,0l57.389-57.389c1.944-1.943,1.944-5.126,0-7.07L798.054,5808.372z M805.481,5855.253
			c-2.75,0-5,2.25-5,5v29.812c0,2.75-2.25,5-5,5h-1.926c-2.75,0-5-2.25-5-5v-29.812c0-2.75-2.25-5-5-5h-8.242c-2.75,0-5-2.25-5-5
			v-1.727c0-2.75,2.25-5,5-5h38.41c2.75,0,5,2.25,5,5v1.727c0,2.75-2.25,5-5,5H805.481z" color="14837888" style="fill:#e26880;fill-opacity:1;stroke-width:10;stroke:rgb(0,0,0)"></path></g></g></svg>
