<svg id="the_svg_wrapper" class="svg_wrapper" width="100%" height="100%" version="1.1" xmlns="http://www.w3.org/2000/svg"><g id="master_group" transform="translate(0,0) scale(0.02734375)" width="52127" height="73631" image_id="102291562" image_url="/external/devhuman/prod14/3760000424/3760000424.aff"><g id="157963699" order="0" group_label_id="31" group_label="Atlas - Developing Human" sub_image_id="102291562"><clippath><path id="zap_container_graphics_clip" d="M 0 0 L 1498 0 L 1498 312 L 0 312 L 0 0" style="fill:#000000;fill-opacity:1;stroke-width:10;stroke:rgb(0,0,0)"></path></clippath><path id="157963701" parent_id="157963699" order="0" structure_id="10557" d="
			M6792.669,4976.655c-30.576-28.499-88.667-41.333-129.334-53.333c-101.108-29.835-190.429-42.297-295.073-42.54
			c-52.114-0.121-100.629,7.702-152.494-1.404c-58.533-10.277-115.792-27.2-173.783-40.599
			c-128.699-29.736-160.138-14.556-260.96-90.01c-38.324-28.681-76.736-63.851-109.691-96.781
			c-94.96-94.888-104.2-134.963-104-277.333c0.314-222.699,82.576-334.639,146.667-442c25.897-43.382,75.94-91.265,111.332-126.665
			c42.552-42.562,87.99-80.153,141.333-108c48.196-25.161,108.692-44.47,156-70c93.306-50.353,152.033-120.277,120.667-166
			c-34.931-50.905-143.021-14.69-192.268-7.021c-46.766,7.273-101.348,17.688-150.397,17.688c-96.71,0-217.846-3.976-278.667-94
			c-58.301-86.295-59.094-221.631-41.333-293.333c36.406-146.973,67.447-183.327,48-261.333
			c-10.322-41.398-51.721-61.657-70.667-60.667c-53.691,2.807-86.667,60.667-91.338,110.915
			c-5.402,58.116-41.61,159.328-93.996,298.418c-42.738,113.474-75.687,178.009-169.831,259.834
			c-92.833,80.686-242.535,143.104-324.17,152.167c-123.668,13.729-231.74,16.803-297.76,3.652
			c-144.513-28.786-240.907,26.348-298.907,127.015c-28.831,50.041-39.595,96.35-37.196,142.355
			c5.599,107.396,22.103,146.276-39.199,264.452c-46.36,89.374-102.4,133-188.758,157.913
			c-41.722,12.036-102.066,12.42-147.513,9.946c-86.165-4.69-135.957-29.636-193.771-94.025
			c-76.018-84.665-112.773-137.747-138.229-235.307c-31.437-120.482-48.584-289.32-114-508
			c-27.323-91.341-57.763-179.657-74.667-274.666c-25.034-140.708-7.964-235.959-3.883-307.414
			c2.801-49.051,13.416-127.014,21.883-288.586c7.312-139.51-8.726-196.273,1.333-382c3.449-63.686,7.777-122.176,24-184
			c12.12-46.19,28.924-96.66,45.333-140.666c14.667-39.334,40.098-81.037,4.283-112.679
			c-27.614-24.396-110.666,10.038-183.841,133.002c-47.109,79.162-83.389,150.995-108.442,237.677
			c-12.604,43.607-23.567,90.756-32.667,135.333c-8.244,40.388-20.737,77.127-22.667,118.667
			c-1.831,39.424-13.895,80.226-20.667,120c-21.333,125.302-48.542,243.823-100,310c-33.32,42.851-71.944,68.427-112,104
			c-36.866,32.74-81.172,61.078-132,73.333c-36.602,8.825-73.958,9.142-110.69,3.424c-58.547-9.114-115.511-33.57-165.31-63.424
			c-60.089-36.024-118.594-81.629-156.666-147.333c-59.562-102.793-85.388-175.826-93.333-208
			c-24.912-100.882-42.529-198.967-28-300.667c22.098-154.688,55.804-289.359,31.334-360.667
			c-14.347-41.809-76.658-66.37-99.333-79.333c-39.366-22.502-80.65-60.133-116.824-87.062
			c-79.076-58.864-142.734-133.124-183.712-223.16c-47.253-103.825-51.924-138.299-65.463-228.446
			c-6.046-40.255-3.333-90-44-108.667c-97.82-44.901-153.843-21.708-246.667-5.334c-35.968,6.344-67.628,18.401-102.667,32
			c-54.975,21.338-106.554,49.207-160.433,70.763c-67.122,26.854-149.015,74.952-167.332,93.026
			c-41.316,40.768-84.271,116.947-30.096,164.917c31.213,27.639,92.928,31.746,131.194,37.961
			c61.237,9.943,115.86,26.441,172.968,49.729c48.208,19.657,102.144,33.952,143.578,67.028
			c96.449,76.995,176.123,251.639,181.731,389.086c2.841,69.621,3.304,131.411-25.61,312.157
			c-16.689,104.328-55.929,176.135-83.333,236.667c-31.919,70.506-47.364,134.362-94,199.333
			c-35.241,49.098-80.287,92.692-120.667,135.333c-89.907,94.939-156.815,189.419-165.594,280.472
			c-12.386,128.455,105.825,168.533,180.927,198.862c32.414,13.09,114.372,40.071,150,44c55.156,6.082,110.869,6,166.667,6
			c78.984,0,100.939,11.719,154.782,24.436c102.768,24.271,209.415,49.895,303.219,100.898
			c116.631,63.415,240.354,167.863,306,277.333c50.622,84.416,107.759,221.353,108.667,303.333
			c1,90.323-31.838,196.916-90.666,376.668c-5.89,17.998-10.312,43.403-16.186,71.948c-8.427,40.954-19.842,88.373-42.877,129.678
			c-62.972,112.916-163.421,308.948-290.938,381.708c-79.245,45.217-181.173,61.592-274,48
			c-168.05-24.606-308.805-220.813-424.277-340.153c-38.937-40.238-139.764-158.348-195.723-86.514
			c-23.911,30.698-27.38,85.711-37.333,124c-12.726,48.953-20.234,96.528-29.334,148.667c-8.617,49.37-15.037,89.677-19.333,140
			c-2.688,31.489-5.293,74.601-6.667,106c-2.747,62.758-0.7,118.286,22.667,178c28.144,71.925,51.848,91.716,96.825,141.272
			c28.31,31.192,57.434,64.079,91.406,88.521c60.394,43.452,92.044,67.337,119.317,131.411
			c55.45,130.271,40.021,306.305-15.049,439.458c-45.447,109.886-84.843,257.53-154.5,324.004
			c-69.136,65.973-137.631,105.016-158.892,163.687c-33.808,93.302,19.596,112.79,78.74,158.077
			c99.269,76.011,199.707,122.658,244.818,247.571c59.479,164.692,26.658,344.186-122,461.334
			c-82.563,65.063-185.592,105.044-269.333,208.667c-27.482,34.008-58.986,76.549-71.333,118.667
			c-15.791,53.865-19.833,102.726,5.552,121.094c37.877,27.408,54.977,2.523,85.115-21.093
			c25.265-19.797,75.202-55.787,100.38-75.729c44.953-35.604,107.819-80.805,146.953-111.604
			c140.851-110.853,190.556-141.875,216.606-160.6c36.606-26.312,83.82-51.08,125.393-70.067
			c110.805-50.608,268.937-39.295,347.333,65.333c1.768,2.359,3.489,4.763,5.181,7.19c22.785,32.701,38.641,71.381,46.467,109.223
			c7.654,37.008,12.5,88.294,13.019,126.253c1.387,101.54-42.667,164.001-91.334,256.667
			c-90.031,171.426-85.062,150.926-168.667,260.667c-45.692,59.977-97.893,125.941-155.333,176
			c-82.758,72.124-144.806,114.111-202,146c-42.405,23.643-79.692,52.496-118,81.334c-40.001,30.11-65.966,50.742-66.458,76.599
			c-0.702,36.843,34.514,70.754,37.791,109.402c0.231,2.734,0.271,5.894,0.145,9.393c-1.255,34.708-19.031,103.285-31.478,131.941
			c-26.548,61.104-60.949,105.727-94,163.333c-35.146,61.258-65.812,131.155-76.923,201.026
			c-15.357,96.576-5.571,150.779-3.077,190.306c2.314,36.659-3.994,122.232,31.333,147.334c34.327,24.391,63.443-24.979,81.333-70
			c45.832-115.329,13.167-77.633,46.433-179.851c18.031-55.406,52.758-101.967,81.565-152.082
			c58.68-102.083,114.172-187.144,187.346-264.083c132.912-139.752,223.384-217.571,286.667-250
			c41.481-21.258,100.625-47.522,150.667-53.333c46.16-5.359,96.745-8.782,139.553,8.955c10.449,4.329,20.436,9.913,29.781,17.044
			c46.863,35.763,94.731,83.37,116.577,139.231c13.952,35.676,21.435,66.136,21.68,104.399
			c1.253,195.923-99.255,296.861-184.924,421.036c-97.829,141.801-100.989,206.108-28.667,201.333
			c50.894-3.361,61.917-18.728,100.667-55.333c65.6-61.968,138.345-131.14,190-204.666c61.579-87.65,81.583-147.588,93.333-169.333
			c44.667-82.667,74.882-151.296,110-228c38.288-83.628,73.251-169.2,122-247.333c48.667-78,117.768-123.479,194.565-158.826
			c68.081-31.335,94.675-22.562,135.179-32.912c44.509-11.375,85.552-26.247,129.072-39.17c34.094-10.123,69.035-9.73,104.123-6.487
			c36.23,3.349,72.618,9.735,108.393,10.729c88.462,2.459,107.938-35.53,170-62c40.933-17.458,82.107-32.016,126-38.666
			c49.614-7.519,102.271,8.553,139.468-3.178c100.847-31.804,101.633-180.845,101.354-187.67
			c-4.087-99.765-94.813-126.907-164.349-166.51c-101.186-57.629-183.823-119.545-260.274-206.953
			c-61.863-70.729-108.872-157.238-136.422-244.602c-36.447-115.576-3.569-224.485,40.414-327.098
			c27.142-63.323,88.343-117.66,149.258-159.624c89.896-61.931,202.256-100.254,261.698-101.338
			c148.059-2.702,227.322-6.475,274.852-5.693c75.117,1.234,141.326-45.986,207.532-78.984
			c88.039-43.879,164.888-87.734,270.371-101.44c58.824-7.643,126.552-5.913,210.097,10.426
			c102.328,20.012,213.289,71.465,306.667,117.334c47.12,23.146,112,75.333,220.001,145.332
			c37.462,24.28,75.428,53.888,112.059,77.301c58.479,37.376,127.232,67.705,182.606,109.366
			c93.65,70.458,173.823,123.71,246.365,178.437c119.159,89.896,180.329,111.446,241.636,142.896
			c71.783,36.824,144,70,217.326,101.176c44.95,19.111,86.639,35.331,135.083,35.326c36.534-0.004,102.312-5.012,124.544-39.016
			c36.386-55.65-1.017-131.109-26.2-176.336c-20.601-36.991-53.424-43.765-81.084-72.005c-13.423-13.704-18.68-32.094-32.998-45.068
			c-15.993-14.491-35.338-21.411-58.005-32.077c-24.062-11.322-48.293-33.325-68.666-50.667
			c-59.333-50.505-70.274-56.505-97.334-126.667c-24.199-62.746-30.031-109.965-20.613-152.174
			c7.95-35.631,26.766-67.692,54.597-102.505c78.907-98.701,178.827-134.556,229.602-142.804
			c37.112-6.028,343.178-42.577,272.341-119.132c-35.222-38.063-101.659-34.679-254.178-27.062
			c-36.208,1.809-73.969,2.34-111.011,2.333c-53.475-0.01-103.406-4.66-159.091-5.333c-125.021-1.51-234.636,14.082-314.957,5.402
			c-44.503-4.81-98.469-13.253-141.094-23.991c-102.208-25.749-203.044-53.438-306.104-78.003
			c-39.229-9.351-76.424-19.242-113.927-32.422c-84.123-29.562-166.986-58.977-245.956-102.688
			c-44.692-24.737-94.945-39.624-129.375-82.632c-32.501-40.599-56.903-65.269-79.978-109.309
			c-46.18-88.138-61.298-147.091-64.259-253.684c-2.667-96-12.402-202.194,12.672-286.354c1.935-6.492,4.091-12.964,6.417-19.411
			c26.606-73.747,78.071-143.954,137.432-196.621c50.838-45.105,183.513-104.085,280.146-117.615
			c81.881-11.465,161.27,0.48,241.334,15.334c161.13,29.89,283.595,17.73,354.687,21.198
			c133.009,6.487,267.773,14.883,400.519,18.21c76.795,1.925,136.958,5.258,208.795,5.258c42.009,0,149.999,1.333,192.666,0
			c128.228-4.005,167.938-36.874,166.438-58.826c-1.999-29.284-62.553-37.457-83.485-39.494
			c-73.26-7.129-142.488-50.08-213.536-68.495c-41.839-10.845-87.186-12.615-128.343-34.413
			c-69.917-37.028-124.732-131.178-74.998-206.274c34.889-52.674,126.736-46.827,208.59-59.163
			c68.488-10.324,144.252-12.647,213.332-12c49.914,0.468,112.485,13.27,146-34
			C6825.109,5064.065,6820.926,5002.993,6792.669,4976.655z" color="15921648" style="fill:#f2f1f0;fill-opacity:1;stroke-width:10;stroke:rgb(0,0,0)"></path></g><g id="157963704" order="0" group_label_id="113753815" group_label="Atlas - Developing Human Gyri" sub_image_id="102291562"><path id="157963714" parent_id="157963704" order="0" structure_id="12157" d="
			M1963.334,7717.333C1884.938,7612.705,1726.805,7601.392,1616,7652c-41.573,18.987-88.787,43.756-125.393,70.067
			c-26.05,18.725-75.755,49.747-216.606,160.6c-39.134,30.8-102,76-146.953,111.604c-25.179,19.942-75.116,55.933-100.38,75.729
			c-30.138,23.616-47.237,48.501-85.115,21.093c-25.385-18.368-21.342-67.229-5.552-121.094
			c12.347-42.118,43.852-84.659,71.333-118.667c83.741-103.623,186.77-143.604,269.333-208.667
			c148.658-117.148,181.479-296.642,122-461.334c-45.112-124.913-145.55-171.561-244.818-247.571
			c-59.145-45.287-112.548-64.775-78.74-158.077c21.261-58.671,89.756-97.714,158.892-163.687
			c69.657-66.474,109.053-214.118,154.5-324.004c55.07-133.153,70.5-309.187,15.049-439.458
			c-27.273-64.074-58.924-87.959-119.317-131.411c-33.973-24.442-63.097-57.329-91.406-88.521
			c-44.977-49.557-68.681-69.348-96.825-141.272c-23.367-59.714-25.414-115.242-22.667-178c1.374-31.399,3.979-74.512,6.667-106
			c4.296-50.323,10.716-90.63,19.333-140c9.1-52.139,16.608-99.714,29.334-148.667c9.953-38.289,13.422-93.302,37.333-124
			c55.959-71.834,156.786,46.275,195.723,86.514c115.472,119.34,256.227,315.547,424.277,340.153
			c92.826,13.592,194.754-2.784,274-48c127.516-72.76,227.965-268.792,290.938-381.708c23.035-41.305,34.45-88.725,42.877-129.678
			l-259.136-145.411c0.002,0.376,0.003,0.753,0.003,1.137c0,1.104-0.896,2-2,2s-2-0.896-2-2c0-13.402,0-20.784-28.929-65.015
			l-0.178-0.271c-27.025-41.321-27.025-41.321-39.922-51.509c-2.098-1.657-4.475-3.536-7.364-5.896
			c-41.54-33.945-66.168-63.236-84.601-86.655c-44.662-56.74-62.02-67.29-81.307-81.687c-5.154-3.847-110.293-71.797-167.553-85.486
			c-48.345-11.558-99.164-19.377-148.556-30.395c-14.402-3.213-28.812-5.248-43.842-6.364c-14.264-1.06-25.199-3.776-37.861-6.922
			c-20.966-5.208-47.059-11.691-102.678-14.732c-16.508-0.903-39.21-4.407-62.318-8.222l0,0
			c-34.912-1.847-55.505-2.806-80.912-6.513c-23.638-3.449-68.003,9.333-141.333,9.333c-48.999,0-101.042-6.156-147.456,2.7
			c-98.827,18.855-166.58,84.284-232.533,159.614c-45.556,52.033-121.86,219.337-132.099,252.095
			c-14.198,45.423-13.003,96.938-19.396,144.014c-19.938,146.843,18.736,296.538-26.516,440.91
			c-14.779,47.152-30.833,74.185-36.667,126.667c-5.585,50.25-31.454,107.348-46.667,156c-15.064,48.178-25.473,98.338-39.333,148
			c-27.716,99.312-40.588,183.709-12.833,284.206c12.612,45.667,42.564,90.6,54.833,137.127
			c24.141,91.557-4.027,177.651-18.327,267.243c-12.151,76.144-16.07,184.012-10.34,297.424
			c11.755,232.627-1.179,260.22,1.649,338.406c3.575,98.789,35.783,207.153,57.996,304.151
			c25.118,109.687,65.021,192.776,147.688,270.11c22.419,20.973,51.565,39.049,76,58c17.714,13.739,44.666,27.999,76.83,20.008
			c39.409-9.682,83.283-20.343,125.243-28.57c59.161-11.6,87.938-21.543,108.95-28.803c20.085-6.94,33.354-11.525,59.186-12.756
			c1.113-0.041,2.041,0.8,2.093,1.903c0.053,1.103-0.799,2.04-1.902,2.093c-25.258,1.203-38.311,5.713-58.069,12.54
			c-21.124,7.299-50.053,17.294-109.487,28.948c-41.693,8.175-85.325,18.77-124.562,28.407
			c-54.883,20.329-74.519,50.239-170.947,124.95c-100.985,78.241-195.872,183.793-213.165,299.37
			c-14.501,96.914,25.419,188.527,62.5,275.908c29.644,69.854,67.53,129.632,88.667,202
			c18.037,61.755,45.467,122.601,94.038,167.894c44.881,41.853,144.78,52.845,193.962,18.106
			c58.029-40.987,71.938-52.741,123.333-68.667c47.333-14.667,216.148-60.926,248.658-88.695
			c196.187-167.583,173.54-164.342,298.788-288.188c31.908-31.551,70.672-61.586,101.222-94.448
			c30.652-32.973,100.829-104.784,111.123-93.984l232.725-213.494C1966.823,7722.096,1965.102,7719.692,1963.334,7717.333z" color="14837888" style="fill:#e26880;fill-opacity:1;stroke-width:10;stroke:rgb(0,0,0)"></path><path id="157963710" parent_id="157963704" order="1" structure_id="12125" d="
			M6117.34,7393.322c27.06,70.162,38.001,76.162,97.334,126.667c20.373,17.342,44.604,39.345,68.666,50.667
			c22.667,10.666,42.012,17.586,58.005,32.077c14.318,12.975,19.575,31.364,32.998,45.068c27.66,28.24,60.483,35.014,81.084,72.005
			c25.184,45.227,62.586,120.686,26.2,176.336c-22.231,34.004-88.01,39.012-124.544,39.016
			c-48.444,0.005-90.133-16.215-135.083-35.326c-73.326-31.176-145.543-64.352-217.326-101.176
			c-61.307-31.45-122.477-53-241.636-142.896c-72.542-54.727-152.715-107.979-246.365-178.437
			c-55.374-41.661-124.127-71.99-182.606-109.366c-36.631-23.413-74.597-53.021-112.059-77.301
			c-108.001-69.999-172.881-122.186-220.001-145.332c-93.378-45.869-204.339-97.322-306.667-117.334
			c-83.545-16.339-151.272-18.068-210.097-10.426l159.348,391.911c3.76-2.556,8.611-3.821,14.746-3.47
			c34.716,1.987,69.907,47.973,97.996,67.779c35.949,25.348,69.391,46.648,103.337,74.222c76.78,62.365,93.362,15.077,174,78.666
			c44.688,35.239,32.181,82.652,19.334,133.334c-11.526,45.474-10.502,100.308-6,144.666c6.266,61.74,14.226,123.482,28.667,184
			c14,58.667,34.354,106.122,54.144,159.062c35.58,95.173,17.258,23.894,11.302,143.538c-2.475,49.731-13.695,101.876,9.223,126.066
			c24,25.333,78.848,29.96,120,30c38.214,0.037,103.997-1.333,142.667-1.333c161.208,0,186.49-12.238,386.665-42.002
			c208.477-30.998,464,7.333,716.669-3.334c107.494-4.538,188.766-52.921,248.535-139.569
			c59.233-85.873,77.539-151.11,100.797-196.433c26.822-52.269,26.815-46.483,59.81-151.563
			c15.362-48.925,22.948-100.133,34.095-149.953c7.577-33.867,3.583-98.132-3.436-177.089
			c-7.118-80.08-26.238-196.585-79.905-259.534c-50.396-59.112-129.778-61.279-201.231-71.193
			c-46.624-6.47-102.645-10.354-147.334-22c-86.97-22.666-118.654-28.393-121.815-37.969l-310.128-54.219
			C6087.309,7283.357,6093.141,7330.576,6117.34,7393.322z" color="11243864" style="fill:#ab9158;fill-opacity:1;stroke-width:10;stroke:rgb(0,0,0)"></path><path id="157963711" parent_id="157963704" order="2" structure_id="12124" d="
			M4857.6,8198.373c-27.552-46.052-5.65-24.423-95.6-75.707c-34.611-19.734-65.641-57.797-87.763-90.83
			c-19.216-28.693-19.399-70.877-48.915-92.996c-1.029-0.771-2.047-1.497-3.053-2.178c-18.006-12.188-71.893-4.291-79.631,59.166
			c-5.236,42.939-31.438,57.404-57.306,91.505c-29.873,39.383-48,56.666-50,96c-2.133,41.949-58.376,120.186-66,128
			c-26.667,27.334-18.676,79.298-21.333,111.334c-2.816,33.93-19.538,65.511,3.334,146c14.47,50.921,22.192,91.623,59.333,122.666
			c44.667,37.334,77.143,44.143,129.999,52.034c98.001,14.633,203.646-8.104,300.669-26.7c80-15.334,210.952-69.958,240.666-160.667
			c17.328-52.899-45.789-136.946-73.333-178.667C4963.335,8308.667,4898.354,8266.496,4857.6,8198.373z" color="13285249" style="fill:#cab781;fill-opacity:1;stroke-width:10;stroke:rgb(0,0,0)"></path><path id="157963712" parent_id="157963704" order="3" structure_id="12123" d="
			M4214.872,7119.005c-66.206,32.998-132.415,80.219-207.532,78.984c-47.529-0.781-126.793,2.991-274.852,5.693
			c-59.442,1.084-171.802,39.407-261.698,101.338c-60.915,41.964-122.116,96.301-149.258,159.624
			c-43.982,102.612-76.861,211.521-40.414,327.098c27.551,87.363,74.56,173.872,136.422,244.602
			c76.451,87.408,159.088,149.324,260.274,206.953c69.536,39.603,160.262,66.745,164.349,166.51
			c0.279,6.825-0.507,155.866-101.354,187.67c-37.198,11.73-89.854-4.341-139.468,3.178c-43.893,6.65-85.067,21.208-126,38.666
			c-62.062,26.47-81.538,64.459-170,62c-35.775-0.994-72.163-7.381-108.393-10.729l150.825,465.043
			c7.031-1.929,12.702,6.379,58.229,6.373c45.261-0.008,126.558-8.27,170-17.333c104.584-21.819,175.805-80.073,275.743-117.561
			c25.511-9.569,93.974-36.869,120.257-46.439c100.819-36.714,216.938-120.75,286.666-243.334
			c72.82-128.02,40.666-154.181,40.666-231.333c0-81.448-11.302-71.443-25.333-166.667c-12.627-85.696,25.697-69.752-9.803-143.202
			c-21.616-44.724-57.42-82.61-92.699-116.89c-28.227-27.428-51.498-51.241-84.909-81.82
			c-34.709-31.769-92.049-72.13-117.922-80.754c-38.334-12.778-96.096-55.921-207.333-142.667
			c-34.903-27.219-73.488-54.329-103.333-88c-18.057-20.372-84.255-85.501-74.667-94.667s45.772,31.615,64.667,48
			c25.446,22.066,49.2,40.157,76,60.667c54.539,41.736,109.112,81.233,166.764,117.248
			c157.312,98.271,261.077,158.007,345.904,176.085c57.741,12.305,125.022,8.104,180-16.667
			c60.667-27.334,80.606-78.441,109.999-128.001c23.972-40.42,44.856-84.061,63.335-126.666
			c27.493-63.386,86.657-137.746,59.903-209.967c-14.231-38.416-25.394-88.919-5.316-102.563l-159.348-391.911
			C4379.76,7031.271,4302.911,7075.126,4214.872,7119.005z" color="13285249" style="fill:#cab781;fill-opacity:1;stroke-width:10;stroke:rgb(0,0,0)"></path><path id="157963713" parent_id="157963704" order="4" structure_id="12122" d="
			M3092.826,8697.078c-43.52,12.923-84.562,27.795-129.072,39.17c-40.504,10.351-67.099,1.577-135.179,32.912
			c-76.797,35.348-145.899,80.826-194.565,158.826c-48.749,78.133-83.713,163.705-122,247.333
			c-35.118,76.704-65.333,145.333-110,228c-11.75,21.745-31.754,81.683-93.333,169.333c-51.655,73.526-124.4,142.698-190,204.666
			c-38.75,36.605-49.773,51.972-100.667,55.333c-72.322,4.775-69.162-59.532,28.667-201.333
			c85.668-124.175,186.177-225.113,184.924-421.036c-0.245-38.264-7.728-68.724-21.68-104.399
			c-21.846-55.861-69.714-103.469-116.577-139.231c-9.345-7.131-19.332-12.715-29.781-17.044l-130.951,256.302
			c0.858,0.188,1.678,0.522,2.424,1.056c4.031,2.883,3.694,7.444-0.058,12.686c-8.557,11.961-16.168,22.272-25.435,35.388
			c-15.662,22.167-32.249,46.043-47.921,67.458c-18.171,24.831-33.536,45.445-52.344,68.933
			c-23.676,29.563-41.297,65.436-63.403,97.317c-11.282,16.271-53.709,82.594-65.246,98.422
			c-35.708,48.986-25.678,26.146-53.45,92.525c-30.729,73.446-75.724,140.389-87.985,200.927
			c-4.792,23.657-7.862,48.44-9.802,73.305c-1.39,93.419,15.167,152.906,23.472,178.052
			c23.293,70.529,85.351,85.362,153.806,104.032c37.935,10.346,84.819,26.681,169.333,22.667
			c52.498-2.493,158.483-32.808,194.317-60.691c52.338-40.729,86.552-97.432,144.94-131.855
			c27.828-16.406,73.15-37.342,176.075-102.12c95.333-60,171.485-144.673,246.667-223.334c72-75.333,104.322-146.954,192-199.334
			c39.197-23.416,77.682-45.923,118.667-67.333c28.951-15.123,44.011-35.458,133.904-80.738
			c78.717-39.65,180.854-106.611,234.461-177.64c33.315-44.142,14.303-51.059,28.301-58.957c0.867-0.489,1.66-0.825,2.438-1.039
			l-150.825-465.043C3161.861,8687.348,3126.92,8686.955,3092.826,8697.078z" color="13285249" style="fill:#cab781;fill-opacity:1;stroke-width:10;stroke:rgb(0,0,0)"></path><path id="157963715" parent_id="157963704" order="5" structure_id="12121" d="
			M1924.01,8940.652c-50.042,5.811-109.185,32.075-150.667,53.333c-63.282,32.429-153.755,110.248-286.667,250
			c-73.174,76.939-128.667,162-187.346,264.083c-28.807,50.115-63.534,96.676-81.565,152.082
			c-33.266,102.218-0.601,64.521-46.433,179.851c-17.891,45.021-47.006,94.391-81.333,70
			c-35.327-25.102-29.019-110.675-31.333-147.334c-2.495-39.526-12.281-93.729,3.077-190.306
			c11.111-69.871,41.778-139.769,76.923-201.026c33.051-57.606,67.452-102.229,94-163.333
			c12.446-28.656,30.223-97.233,31.478-131.941c0.127-3.499,0.087-6.658-0.145-9.393c-3.277-38.648-38.493-72.56-37.791-109.402
			c0.492-25.856,26.457-46.488,66.458-76.599c38.308-28.838,75.595-57.691,118-81.334c57.194-31.889,119.242-73.876,202-146
			c57.44-50.059,109.641-116.023,155.333-176c83.604-109.741,78.636-89.241,168.667-260.667
			c48.667-92.666,92.721-155.127,91.334-256.667c-0.519-37.959-5.365-89.245-13.019-126.253
			c-7.826-37.842-23.683-76.521-46.467-109.223l-232.725,213.494c0.134,0.141,0.264,0.285,0.377,0.454
			c8.834,13.137-57.524,61.914-76.956,81.446c-27.334,27.476-54.735,58.287-82.545,86.083
			c-211.311,211.213-102.29,116.945-189.333,215.333c-75.192,84.991-130.222,99.567-226.431,175.104
			c-65.848,51.699-97.171,52.773-194.236,87.562c-108.57,38.912-153.153,93.633-213.333,172
			c-33.759,43.963-57.027,69.944-54.816,127.183c3.752,97.147,5.72,196.462,51.828,284.208
			c7.714,14.679,12.119,24.084,13.341,31.664c3.261,20.228-16.203,27.427-56.352,86.946c-25.639,38.008-48.003,77.744-71,116.911
			c-30.729,52.336-46.768,100.814-48.052,151.39c-0.925,36.438,14.072,76.842,26.386,118.365
			c45.813,154.489,67.425,127.701,96.667,265.334c29.694,139.761,39.533,114.608,66,210c10.25,36.943,21.521,70.958,44.205,103.316
			c54.605,77.897,172.955,111.776,265.128,106.016c96.364-6.022,197.877-25.327,262.667-63.332
			c87.7-51.445,114.501-100.716,143.429-189.694c22.937-70.551,25.516-59.584,32.553-149.572c1.947-25.387,5.06-50.721,9.958-74.908
			c12.358-61.016-22.479-75.397,43.248-194.973c30.596-55.662,27.879-51.856,64.509-102.109
			c11.523-15.809,67.999-96.934,79.254-113.166c40.429-58.309,57.334-70.309,73.356-90.314
			c18.782-23.453,36.495-47.184,55.662-71.144c17.694-22.118,14.943-28.717,30.596-50.87c9.27-13.12,29.404-33,37.968-44.972
			c3.03-4.224,8.425-7.321,12.747-6.369l130.951-256.302C2020.755,8931.87,1970.17,8935.293,1924.01,8940.652z" color="12100205" style="fill:#b8a26d;fill-opacity:1;stroke-width:10;stroke:rgb(0,0,0)"></path><path id="157963708" parent_id="157963704" order="6" structure_id="12117" d="
			M6611.765,6458.424c-30.924,3.457-62.896,7.03-94.93,7.031c-0.411,0-0.815-0.001-1.233-0.001c-10.959,0-25.881,0.729-44.704,1.648
			c-29.324,1.433-69.484,3.395-115.721,3.395c-50.966,0-106.325,9.464-162.242,8.089c-85.084-2.093-116.849-9.016-158.586-8.25
			c-54.791,1.005-82.717,9.004-160.416,0.917c-133.493-13.892-158.846-31.341-197.543-31.625
			c-52.368-0.385-167.618-8.719-290.586-49.959c-88.128-29.559-205.593-47.854-242.002-52.709
			c-24.042-3.205-84.026-40.562-85.251-96.251c-1.504-68.385-29.648-60.651-31.167-104.043
			c-1.384-39.514,52.17,7.041,61.418-111.375c6.499-83.206-18.062-43.891-16.958-93.499c0.175-7.842,2.45-13.802,6.208-18.321
			l-325.626-49.914c-2.326,6.447-4.482,12.919-6.417,19.411c-25.074,84.159-15.339,190.354-12.672,286.354
			c2.961,106.593,18.079,165.546,64.259,253.684c23.074,44.04,47.477,68.71,79.978,109.309
			c34.43,43.008,84.683,57.895,129.375,82.632c78.97,43.711,161.833,73.126,245.956,102.688
			c37.503,13.18,74.697,23.071,113.927,32.422c103.061,24.564,203.896,52.254,306.104,78.003
			c42.625,10.738,96.591,19.182,141.094,23.991c80.321,8.68,189.936-6.912,314.957-5.402c55.685,0.673,105.616,5.323,159.091,5.333
			c37.042,0.007,74.803-0.524,111.011-2.333c152.519-7.617,218.956-11.002,254.178,27.062
			c70.837,76.555-235.229,113.104-272.341,119.132c-50.774,8.248-150.694,44.103-229.602,142.804
			c-27.831,34.812-46.646,66.874-54.597,102.505l310.128,54.219c-0.285-0.863-0.344-1.758-0.185-2.698
			c3.667-21.696,173.543,9.783,257.867,22.48c60.651,9.134,128.839,27.173,190.589,25.88c80.876-1.693,78.209,17.64,202.519-115.712
			c40.137-43.056,62.437-101.736,77.69-161.981c23.01-90.894,25.013-238.225-4.844-318.71
			c-34.505-93.017-117.946-182.737-201.821-232.624c-35.544-21.141-141.924-51.312-184.606-58.811
			c-5.931-0.519-11.942-0.944-18.048-1.257C6687.462,6449.964,6648.979,6454.264,6611.765,6458.424z" color="12755765" style="fill:#c2a335;fill-opacity:1;stroke-width:10;stroke:rgb(0,0,0)"></path><path id="157963709" parent_id="157963704" order="7" structure_id="12117" d="
			M6525.682,5997.328c-41.839,2.743-73.597,0.904-126.41,3.372c-10.255,0.479-20.692,1.008-31.249,1.543
			c-38.399,1.947-78.106,3.96-116.43,3.96c-50.271,0-99.224,0.931-146.566,1.83c-47.501,0.903-96.619,1.837-147.228,1.837
			c-33.362,0-85.02,17.205-236.496,8.999c-76.928-4.167-166.44-12.834-245.209-12.834c-73.824,0-152.631-5.173-181.044,32.543
			c-37.312,49.529-44.509,101.027-5.959,150.335c39.417,50.417,71.049,66.597,93.959,77.001
			c40.51,18.396,176.932,74.395,264.919,102.209c54.93,17.365,133.836,32.087,196.169,33.002
			c98.187,1.441,125.538,18.481,198.919,28.874c51.792,7.335,109.92,16.233,161.334,14.211
			c81.585-3.209,63.203,22.287,150.786,22.287c46.139,0,86.243-1.959,115.525-3.39c19.137-0.936,34.269-1.663,45.353-1.653
			c0.258,0,0.521,0.001,0.779,0.001c31.814,0,63.668-3.562,94.486-7.007c37.374-4.179,76.017-8.502,114.9-6.508
			c15.719,0.805,30.875,2.298,45.41,4.452l0.021-0.001c57.479,5.725,101.538,26.732,221.018,19.61
			c94.855-5.654,163.173-153.82,163.999-256c0.641-79.603-10.786-161.92-41.179-236.438
			c-38.128-93.483-100.527-53.949-209.354-33.676c-26.802,4.993-96.126,12.78-135.374,16.316
			c-47.386,7.366-111.423,15.814-160.72,21.597C6587.534,5986.44,6553.64,5995.495,6525.682,5997.328z" color="12755765" style="fill:#c2a335;fill-opacity:1;stroke-width:10;stroke:rgb(0,0,0)"></path><path id="157963707" parent_id="157963704" order="8" structure_id="12116" d="
			M7335.334,5196.001c-4.176-87.64-9.388-176.437-18.167-264.214c-3.969-39.688-11.253-79.898-15.167-118.453
			c-5.829-57.412-22.47-100.052-30.667-124c-15.328-44.78-36.639-64.053-64.667-102c-19.2-25.995-45.616-75.359-67.333-98.667
			c-46.279-49.67-89.729-95.256-137.333-144c-57.535-58.914-116.815-102.766-176.873-159.289
			c-29.509-27.772-64.448-40.664-71.235-84.569c-6.373-41.224,17.231-62.181,11.441-127.475
			c-3.605-40.651-9.702-88.087-27.231-125.549c-28.93-61.828-66.463-44.166-70.104-64.451c-2.055-11.45,41.254-15.71,91.877-74.857
			c47.842-55.897,70.444-202.048,65.098-256.502c-4.865-49.552-19.565-103.008-33.697-150.639
			c-11.275-38.002-39.698-105.903-77.942-160.002c-32.152-45.491-67.333-86.667-104.666-130
			c-24.143-28.023-70.515-45.068-124.001-76.667c-125.914-74.387-269.594,30.355-366.667,32.667
			c-36.598,0.871-42.788,33.22-53.333,26c-10.808-7.399,16.193-14.235,28-52c7.46-23.864,8.983-55.899,19.333-79.333
			c36.115-81.771,32.233-136.125-15.333-218.667c-22.667-39.333-90.186-106.192-144.668-156.667
			c-33.962-31.463-163.78-100.562-185.333-114c-92.58-57.721-104.945-56.509-233.334-56.667
			c-99.306-0.121-148.254,23.879-193.006,56.999c-6.43,6.505-12.877,13.068-19.243,19.551c-14.896,15.167-30.3,30.85-44.953,45.237
			c-34.201,33.578-72.967,71.636-102.722,113.935c-16.047,22.812-31.851,48.133-48.582,74.942
			C5093.418,2676.987,5069.5,2756.5,5036,2822c-63.35,123.861-45.494,105.793-157.5,126.5c-34.36,6.353-169.688,57.202-187.5,64.5
			c-26.546,10.877-120,46-141,53c-26.633,8.877-53.274,16.221-78,28.5c-41.308,20.514-82.503,39.027-135.724,69.518l-1.471,0.843
			c-94.396,54.082-111.405,63.826-149.35,90.808c-10.59,7.531-20.733,14.714-30.55,21.665
			c-17.984,12.735-34.762,24.615-51.109,36.379C4068.98,3338.768,4035.5,3365,4001,3398.5
			c-77.32,75.08-99.418,140.422-111.362,210.28c-9.46,55.325-10.778,75.032-12.446,99.981
			c-2.016,30.135-4.523,67.638-21.531,181.559c-5.877,39.367-1.493,38.544,1.905,55.05c0.499,2.424,7.968,51.034-2.428,51.034
			c-2.621,0-3.326-1.217-4.689-4.69c-18.865-48.08-6.915-70.451-2.107-102.661c16.984-113.759,22.849-150.497,24.859-180.559
			c1.676-25.064,3-44.861,12.494-100.388c8.793-51.423,3.271-96.561-13.694-128.606c-14.562-27.509-31.188-53.75-72.874-80.337
			c-21.714-13.849-30.129-17.125-35.626-19.663c-15.576-7.189-9.707-19.324,5-10.5c7.5,4.5,12.764,11.999,35.5,26.5
			c77.999,49.747,100.286,34.049,181.5-12.5c41-23.5,80.682-47.135,115.306-72.062c16.563-11.925,33.557-23.958,51.789-36.869
			c9.814-6.95,19.955-14.131,30.543-21.66c38.104-27.096,55.139-36.855,149.679-91.019l1.472-0.843
			c53.292-30.532,92.526-52.283,131.212-77.547c24.5-16,57.066-27.739,83.5-37.5c17.811-6.577,97.94-47.117,124.5-58
			c12.181-4.991,140.263-60.482,173.5-85.5c46.5-35,80.97-67.815,129.5-122c34.84-38.899,92.84-71.987,144.932-155.453
			c16.762-26.857,32.594-52.224,48.704-75.126c29.965-42.596,68.867-80.791,103.19-114.488
			c14.628-14.361,30.019-30.031,44.902-45.186c8.57-8.727,17.287-17.602,25.914-26.282c9.188-12.802,8.316-45.953,7.188-64.798
			c-6.667-111.333-13.676-166.611-68.001-242c-29.574-41.04-70.017-89.887-106.001-125.999
			c-52.228-52.412-121.333-108.667-191.385-137.195c-44.145-17.978-99.878-11.539-149.282-14.139
			c-53.559-2.817-117.715-14.957-189.334-33.333c-150.799-38.691-244.767-42.491-305.999-54.667
			c-144.298-28.693-304.781-40.957-394.175,20.284c-20.344,13.937-43.15,30.412-59.158,49.051
			c-4.034,4.696-25.329,34.661-35.902,50.027c-4.027,7.788-7.873,15.763-11.104,23.98c-8.027,20.423-20.145,41.356-37.043,63.994
			c-3.048,4.084-6.345,8.571-9.804,13.278c-10.051,13.678-19.121,28.686-29.765,41.587c-1.179,1.428-3.682,1.968-5.137,0.766
			c-1.313-1.083-4.417-12.571,2.946-19.934c12.322-12.323,17.161-9.04,28.731-24.788c3.465-4.715,6.769-9.21,9.822-13.302
			c16.683-22.349,28.63-42.977,36.525-63.063c3.246-8.26,7.084-16.237,11.098-24.014h-0.002
			c18.886-47.013,36.497-83.91,21.633-177.198c-19.333-121.333-88.967-221.668-186-295.333
			c-81.372-61.776-166.236-99.624-271.333-104.667c-73.869-3.544-151.674-9.127-224,10c-67.25,17.784-142.841,42.442-152.667,93.333
			c-14.01,72.563-57.908,124.859-95.146,188.501c-35.999,61.521-72.383,115.896-94.854,184.832
			c-9.684,29.707-34,89.333-45.018,138.531h-0.002c-2.47,18.614-5.348,37.809-8.402,56.836c-2.606,16.234-6.774,36.273-8.735,49.664
			c-5.374,36.688-1.795,45.745-10.829,81.228c-2.191,8.608-12.251,41.462-14.44,50.308c-11.04,44.615-24.671,91.074-32.79,140.999
			c-2.937,18.063-2.612,33.681-4.01,46.723c-3.125,29.164-8.851,46.581-5.59,78.722c3.125,30.806,8.429,59.306-8.851,96.425
			c-13.107,28.156-18.722,60.077-22.824,90.832c-2.795,20.96-9.679,40.411-11.516,54.454c-3.238,24.743-6.934,51.546-9.289,68.627
			c-0.76,5.509-1.394,10.109-1.849,13.448c-0.137,1.003-0.995,1.73-1.979,1.73c-0.023,0-0.047-0.003-0.07-0.005l-41.162,320.893
			c36.733,5.718,74.089,5.4,110.69-3.424c50.828-12.256,95.134-40.593,132-73.333c40.056-35.573,78.68-61.149,112-104
			c51.458-66.177,78.667-184.698,100-310c6.771-39.774,18.835-80.576,20.667-120c1.93-41.539,14.422-78.279,22.667-118.667
			c9.1-44.577,20.063-91.726,32.667-135.333c25.053-86.682,61.333-158.515,108.442-237.677
			c73.175-122.964,156.227-157.397,183.841-133.002c35.815,31.642,10.384,73.345-4.283,112.679
			c-16.409,44.006-33.214,94.476-45.333,140.666c-16.223,61.824-20.551,120.314-24,184c-10.059,185.727,5.978,242.49-1.333,382
			c-8.467,161.572-19.082,239.535-21.883,288.586c-4.081,71.455-21.151,166.706,3.883,307.414
			c16.904,95.009,47.343,183.325,74.667,274.666c65.416,218.68,82.564,387.517,114,508
			c25.456,97.561,62.211,150.642,138.229,235.307c57.814,64.39,107.606,89.335,193.771,94.025
			c45.446,2.474,105.791,2.09,147.513-9.946c86.357-24.913,142.397-68.54,188.758-157.913
			c61.302-118.176,44.798-157.057,39.199-264.452c-2.398-46.005,8.365-92.315,37.196-142.355
			c58-100.667,154.395-155.801,298.907-127.015c66.02,13.151,174.092,10.078,297.76-3.652
			c81.635-9.062,231.337-71.481,324.17-152.167c94.145-81.825,127.093-146.36,169.831-259.834
			c52.386-139.091,88.594-240.303,93.996-298.418c4.671-50.248,37.646-108.107,91.338-110.915
			c18.946-0.99,60.345,19.269,70.667,60.667c19.447,78.006-11.594,114.36-48,261.333c-17.761,71.702-16.968,207.038,41.333,293.333
			c60.821,90.024,181.957,94,278.667,94c49.05,0,103.632-10.414,150.397-17.688c49.247-7.67,157.337-43.884,192.268,7.021
			c31.366,45.723-27.361,115.647-120.667,166c-47.308,25.53-107.804,44.839-156,70c-53.343,27.847-98.781,65.438-141.333,108
			c-35.392,35.4-85.435,83.283-111.332,126.665c-64.091,107.36-146.353,219.3-146.667,442c-0.2,142.371,9.04,182.445,104,277.333
			c32.955,32.93,71.367,68.1,109.691,96.781c100.822,75.454,132.261,60.273,260.96,90.01
			c57.991,13.399,115.25,30.322,173.783,40.599c51.865,9.106,100.38,1.283,152.494,1.404
			c104.645,0.243,193.965,12.705,295.073,42.54c40.667,12,98.758,24.834,129.334,53.333c28.257,26.338,32.44,87.411,9.333,120
			c-33.515,47.27-96.086,34.468-146,34c-69.08-0.647-144.844,1.676-213.332,12c-81.854,12.336-173.701,6.489-208.59,59.163
			c-49.734,75.096,5.081,169.246,74.998,206.274c41.157,21.798,86.504,23.568,128.343,34.413
			c71.048,18.415,140.276,61.366,213.536,68.495c20.933,2.037,81.486,10.21,83.485,39.494
			c1.499,21.952-38.211,54.821-166.438,58.826c-42.667,1.333-150.657,0-192.666,0c-71.837,0-132-3.333-208.795-5.258
			c-132.745-3.327-267.51-11.723-400.519-18.21c-71.092-3.468-193.557,8.691-354.687-21.198
			c-80.064-14.854-159.453-26.799-241.334-15.334c-96.634,13.53-229.309,72.51-280.146,117.615
			c-59.36,52.667-110.825,122.874-137.432,196.621l325.626,49.914c14.586-17.545,51.536-13.344,74.918-12.846
			c64.626,1.375,211.281,32.9,248.415,32.076c75.497-1.677,114.993,7.674,133.834,15.126c54.75,21.659,124.93,37.942,186.543,42.625
			c114.584,8.708,192.121,15.418,236.037,15.418c50.57,0,77.188-15.891,124.672-16.793c28.838-0.549-2.356,13.126,169.122,13.126
			c38.222,0,77.877-2.011,116.227-3.955c10.562-0.535,21.006-1.064,31.265-1.544c52.747-2.464,80.136-12.993,122.014-14.042
			c18.334-0.459,66.005-0.197,88.449-2.827c33.922-3.976,74.836-9.215,112.463-14.489h-0.006
			c40.664-7.343,126.131-33.207,153.974-40.546c106.646-28.108,215.364-71.882,288.675-154.582
			c89.43-100.885,88.681-155.768,106.015-218.216c13.147-47.365,31.124-96.125,42.843-143.168
			C7332.804,5331.371,7340.507,5304.486,7335.334,5196.001z" color="13939253" style="fill:#d4b235;fill-opacity:1;stroke-width:10;stroke:rgb(0,0,0)"></path><path id="157963706" parent_id="157963704" order="9" structure_id="12115" d="
			M1491.536,4089.586c12.485,3.102,23.268,5.781,37.192,6.815c15.001,1.115,33.365,0.681,48.105,0.475
			c54.331-0.76,104.971-1.15,155.015,0c88.714,2.039,99.87-9.889,145.896-8.738c79.134,1.978,160.14-40.354,166.793-25.836
			c10.089,22.015-78.767,16.57-131.079,53.572c-25.023,17.699-33.034,51.259-28.875,80.547c0.915,6.445,21.447,27.691,26.596,31.535
			c33.926,25.325,50.171,36.484,74.088,66.869c29.117,36.991,43.718,70.309,71.555,93.056c2.863,2.34,5.227,4.208,7.312,5.855
			c13.408,10.592,13.408,10.592,40.79,52.458l0.178,0.271c27.67,42.306,29.503,51.515,29.578,66.067l259.136,145.411
			c5.873-28.544,10.295-53.95,16.186-71.948c58.828-179.752,91.666-286.346,90.666-376.668
			c-0.908-81.98-58.045-218.917-108.667-303.333c-65.646-109.47-189.369-213.918-306-277.333
			c-93.804-51.003-200.451-76.626-303.219-100.898c-53.843-12.716-75.798-24.436-154.782-24.436c-55.797,0-111.511,0.082-166.667-6
			c-35.628-3.929-117.586-30.91-150-44c-75.103-30.329-193.313-70.407-180.927-198.862c8.779-91.053,75.687-185.533,165.594-280.472
			c40.38-42.641,85.425-86.235,120.667-135.333c46.636-64.972,62.081-128.828,94-199.333
			c27.404-60.532,66.644-132.339,83.333-236.667c28.914-180.746,28.451-242.536,25.61-312.157
			c-5.608-137.447-85.282-312.091-181.731-389.086c-41.434-33.077-95.37-47.371-143.578-67.028
			c-57.107-23.287-111.731-39.785-172.968-49.729c-38.266-6.215-99.981-10.322-131.194-37.961
			c-54.175-47.971-11.221-124.15,30.096-164.917c18.317-18.074,100.21-66.172,167.332-93.026
			c53.879-21.556,105.458-49.425,160.433-70.763c35.039-13.599,66.699-25.656,102.667-32
			c92.824-16.374,148.847-39.567,246.667,5.334c40.667,18.667,37.954,68.412,44,108.667c13.539,90.147,18.21,124.621,65.463,228.446
			c40.978,90.036,104.636,164.295,183.712,223.16c36.174,26.929,77.458,64.56,116.824,87.062
			c22.676,12.962,84.986,37.524,99.333,79.333c24.47,71.308-9.236,205.979-31.334,360.667c-14.528,101.699,3.089,199.784,28,300.667
			c7.945,32.173,33.771,105.206,93.333,208c38.072,65.704,96.577,111.308,156.666,147.333
			c49.798,29.854,106.762,54.311,165.31,63.424l41.162-320.893c-0.067-0.002-0.134-0.004-0.202-0.014
			c-1.094-0.149-1.861-1.157-1.711-2.251c0.455-3.34,1.09-7.943,1.85-13.455c2.337-16.951,5.996-43.487,9.214-68.054
			c2.933-22.388-3.832-46.6-5.874-56.809c-6.056-30.278-1.594-81.522,5.589-111.794c6.521-27.483,11.465-59.207,16.769-84.313
			c6.987-33.073,17.42-55.939,23.291-84.777c3.594-17.656,9.187-22.541,12.111-40.525c8.136-50.033,14.088-80.583,25.154-125.304
			c2.192-8.858,8.296-23.036,11.029-31.494c11.796-36.514,16.235-70.834,21.578-107.316c1.965-13.417,7.688-32.003,8.385-48.444
			c0.851-20.085,3.701-38.585,6.834-56.002l0,0c3.51-40.634-0.843-127.471-7.762-155.174c-8.703-34.844-26.612-76.087-51.005-105.01
			c-23.48-27.841-53.722-55.117-81.056-81.117c-13.328-12.677-61.924-52.604-85.038-67.756
			c-63.768-33.64-109.308-48.211-144.943-46.713c-10.533,0.439-39.057-7.406-69.263-15.711c-15.34-4.218-31.203-8.58-44.016-11.615
			c-47.775-11.32-99.121-22.372-155.306-22.372c-1.104,0-2-0.896-2-2s0.896-2,2-2c56.617,0,108.223,11.105,156.228,22.48
			c12.882,3.052,28.78,7.423,44.154,11.65c28.579,7.858,58.137,15.976,68.035,15.572c36.138-1.519,81.95,12.999,145.763,46.534
			l0.001-0.004c32.746,12.324,29.271-3.641,109.101,60.044c29.95,23.892,78.171,32.636,117.95,17.226
			c39.934-15.47,76.653-40.018,109.333-69.333c70.468-63.214,128.993-196.484,111.84-272.064
			c-6.446-28.393-23.527-58.378-39.841-83.937c-40-62.666-120.058-119.745-149.333-142.666c-72.882-57.066-135.715-117.13-218-160
			c-82.782-43.128-168-78.667-256.681-118.727c-86.427-39.041-178.114-65.776-269.327-89.259
			c-113.992-29.348-392.614-37.057-587.99-27.348c-97.331,4.836-182.902,34.981-281.333,58
			c-78.432,18.342-157.037,39.366-232.667,67.333c-64.781,23.955-130.752,59.687-188,98.667
			c-48.826,33.246-97.32,71.667-142.667,108.667c-51.386,41.927-106.012,87.793-147.764,140.061
			c-77.63,97.184-133.701,185.441-140.236,312.606c-2.606,50.704,9.115,101.241,12,149.333c2.315,38.601,7.985,79.172,8.667,118
			c0.667,38,24,108.667,30.667,150.667c25.839,162.79,38.121,161.693,58,224c23.94,75.033,67.829,196.478,156.841,214.175
			c32.815,6.524,71.057-25.057,161.826-40.842c30.667-5.333,155.089-31.633,236-42.667c29.333-4,69.093-15.604,96-32.667
			c27.333-17.333,38.726-33.724,72.667-34.667c63.948-1.776,74.366-37.446,86-38c18.016-0.858,16.682,42.878,0,42
			c-24.273-1.277-37.337-25.58-80.667,16.667c-30.593,29.828-65.157,42.782-106.667,56.667
			c-156.706,52.419-284.307,59.581-368.667,95.333c-60.295,25.555-102.667,72.666-138,132.667
			c-50.105,85.083-110.289,270.11-122,336.667c-9.866,56.069-12.802,115.724-16,172.667c-7.15,127.321-18.338,256.779-9.992,384.154
			c9.149,139.615,39.207,280.395,49.991,419.846c7.657,99.009,30.041,191.172,64.495,284.363
			c32.179,87.038,83.642,222.086,222.838,194.304c50.255-10.034,119.591-41.306,152-82.667
			c17.291-22.066,29.288-54.225,52.716-72.43c33.937-26.371,43.625,7.714,97.588,20.708c76.36,18.387,193.69,51.72,244.958,65.461
			c23.331,3.859,46.312,7.43,62.852,8.334C1444.11,4077.804,1470.407,4084.337,1491.536,4089.586z" color="13939253" style="fill:#d4b235;fill-opacity:1;stroke-width:10;stroke:rgb(0,0,0)"></path></g><g id="157963720" order="0" group_label_id="113753816" group_label="Atlas - Developing Human Sulci" sub_image_id="102291562"><path id="157963724" parent_id="157963720" order="0" structure_id="10639" d="M3129.517,1050.06c-0.588-0.034,24.878,32.909,24.878,32.909
			s40.771,4.254,40.964,4.958s-77.262,59.661-77.794,59.082C3117.033,1146.431,3130.106,1050.095,3129.517,1050.06z" color="7171696" style="fill:#6d6e70;fill-opacity:1;stroke-width:10;stroke:rgb(0,0,0)"></path><path id="157963725" parent_id="157963720" order="1" structure_id="10631" d="M7286.885,5868.026c-0.264-0.527-16.125,37.973-16.125,37.973
			s16.639,37.463,16.125,37.981s-90.236-37.231-90-37.981S7287.148,5868.554,7286.885,5868.026z" color="7171696" style="fill:#6d6e70;fill-opacity:1;stroke-width:10;stroke:rgb(0,0,0)"></path><path id="157963728" parent_id="157963720" order="2" structure_id="13222" d="M4820.594,7692.188c0.381-0.448-41.255,0.047-41.255,0.047
			s-27.944,29.991-28.623,29.722s-1.113-97.608-0.331-97.686C4751.168,7624.195,4820.211,7692.639,4820.594,7692.188z" color="7171696" style="fill:#6d6e70;fill-opacity:1;stroke-width:10;stroke:rgb(0,0,0)"></path><path id="157963727" parent_id="157963720" order="3" structure_id="13221" d="M3480.389,9328.428c0.338-0.483-41.069,3.9-41.069,3.9
			s-25.022,32.469-25.723,32.264c-0.701-0.205-10.223-97.078-9.452-97.228C3404.918,9267.215,3480.051,9328.911,3480.389,9328.428z" color="7171696" style="fill:#6d6e70;fill-opacity:1;stroke-width:10;stroke:rgb(0,0,0)"></path><path id="157963726" parent_id="157963720" order="4" structure_id="10624" d="M1582.107,10369.428c0.485-0.336-39.855-10.652-39.855-10.652
			s-34.766,21.719-35.351,21.283c-0.585-0.437,24.235-94.56,25.011-94.431
			C1532.688,10285.757,1581.622,10369.762,1582.107,10369.428z" color="7171696" style="fill:#6d6e70;fill-opacity:1;stroke-width:10;stroke:rgb(0,0,0)"></path><path id="157963722" parent_id="157963720" order="5" structure_id="10615" d="M536.969,4270.014c0.425,0.409,2.492-41.179,2.492-41.179
			s-28.213-29.738-27.903-30.398c0.311-0.66,97.493,4.897,97.521,5.683C609.106,4204.905,536.544,4269.605,536.969,4270.014z" color="7171696" style="fill:#6d6e70;fill-opacity:1;stroke-width:10;stroke:rgb(0,0,0)"></path><path id="157963723" parent_id="157963720" order="6" structure_id="10615" d="M593.137,8754.379c0.466,0.361-1.893-41.212-1.893-41.212
			s-31.21-26.575-30.971-27.265c0.238-0.69,97.461-5.478,97.573-4.699C657.958,8681.981,592.671,8754.018,593.137,8754.379z" color="7171696" style="fill:#6d6e70;fill-opacity:1;stroke-width:10;stroke:rgb(0,0,0)"></path></g></g></svg>
