<svg id="the_svg_wrapper" class="svg_wrapper" width="100%" height="100%" version="1.1" xmlns="http://www.w3.org/2000/svg"><g id="master_group" transform="translate(0,0) scale(0.0546875)" width="29056" height="43392" image_id="102339919" image_url="/external/devhuman/prod14/3760000240/3760000240.aff"><g id="157959774" order="0" group_label_id="31" group_label="Atlas - Developing Human" sub_image_id="102339919"><clippath><path id="zap_container_graphics_clip" d="M 0 0 L 1498 0 L 1498 312 L 0 312 L 0 0" style="fill:#000000;fill-opacity:1;stroke-width:10;stroke:rgb(0,0,0)"></path></clippath><path id="157959776" parent_id="157959774" order="0" structure_id="10557" d="
			M3285.939,2573.491c-13.696-19.658-43.791-25.263-65.813-24.208c-19.942,0.955-37.799,5.812-56.685,12.709
			c-9.152,3.342-18.074,6.521-26.781,10.182c-9.354,3.934-17.586,10.23-26.755,14.284c-10.062,4.446-20.015,10.297-29.404,16.039
			c-12.366,7.56-22.979,16.707-35.169,24.518c-14.256,9.136-29.479,16.827-42.835,27.317c-9.114,7.158-18.185,14.383-27.476,21.665
			c-10.361,8.12-21.289,14.396-31.369,22.536c-11.78,9.507-25.598,16.306-39.235,22.694c-5.585,2.618-11.259,3.513-16.785,5.828
			c-7.023,2.949-12.844,8.465-19.946,11.443c-14.431,6.053-29.424,12.108-43.851,16.669c-20.685,6.529-42.027,12.365-62.229,19.678
			c-21.756,7.872-43.733,16.021-66.719,19.485c-6.796,1.021-13.432,2.521-20.397,2.854c-37.646,1.791-73.063,12.142-109.313,22.657
			c-18.799,5.456-37.975,12.793-57.063,16.877c-15.329,3.28-30.622,6.438-46.087,9.24c-28.509,5.172-55.95,13.185-84.521,18.095
			c-10.657,1.833-20.177,6.43-30.558,9.044c-11.856,2.987-24.155,3.682-36.278,4.885c-25.828,2.564-52.146,4.084-77.972,5.352
			c-6.364,0.312-12.783,0.648-19.002,0.334c-20.13-1.039-40.387,0.152-60.492,1.146c-14.523,0.722-29.594,0.005-44.023,1.437
			c-13.099,1.295-26.563,1.029-39.766,1.147c-26.977,0.246-53.962-0.145-80.912-1.399c-13.271-0.619-26.435-3.229-39.521-5.137
			c-13.24-1.933-27.194-0.289-40.696-1.748c-14.252-1.541-28.441-3.762-42.775-4.445c-10.002-0.479-19.701-2.99-29.638-3.908
			c-8.333-0.771-17.396-0.17-25.403-3.243c-9.076-3.485-16.058-8.382-25.635-10.319c-11.19-2.266-21.625-2.637-33.012-3.184
			c-30.317-1.457-60.132-10.485-89.985-15.348c-10.878-1.771-22.495-5.652-33.063-8.604c-12.198-3.405-23.942-7.534-36.251-10.648
			c-18.382-4.652-36.996-8.728-55.146-14.24c-26.355-8.01-52.637-15.321-79.351-22.051c-28.479-7.177-56.378-17.527-84.204-26.478
			c-17.696-5.688-34.75-11.642-52.075-18.486c-9.452-3.733-22.599-3.418-32.56-2.116c-20.182,2.635-47.429,21.034-38.409,44.618
			c5.662,14.806,22.229,25.604,33.4,36.023c7.936,7.402,17.329,12.645,25.659,19.646c17.03,14.316,33.146,30.068,49.668,44.98
			c6.262,5.646,9.854,12.646,16.301,18.168c16.361,14.021,31.197,35.034,43.708,52.491c8.587,11.979,17.188,24.032,24.475,36.664
			c7.135,12.373,16.208,26.8,19.338,40.541c10.364,45.479,18.004,93.032,8.533,139.491c-4.001,19.627-7.438,40.482-14.543,59.222
			c-6.672,17.602-22.084,32.045-33.646,46.509c-12.097,15.133-24.104,29.938-36.483,44.93
			c-8.903,10.778-18.745,20.238-27.864,30.856c-8.729,10.164-15.582,21.5-24.818,31.146c-15.16,15.834-31.104,30.461-46.68,46.031
			c-13.05,13.046-28.934,23.311-43.286,34.786c-10.911,8.728-21.79,16.353-33.03,24.852c-14.021,10.599-27.998,21.032-41.875,31.73
			c-18.688,14.403-38.854,28.67-60.735,37.987c-26.082,11.11-52.089,22.648-79.767,29.195c-22.77,5.385-44.861,12.829-66.412,21.92
			c-44.966,18.967-94.654,42.258-123.704,83.335c-19.346,27.354-12.009,57.912-5.974,87.486c1.744,8.554,3.313,16.998,5.646,25.165
			c7.7,26.938,15.438,53.605,20.456,81.199c4.854,26.697,6.683,55.188,8.032,82.32c2.03,40.894,5.755,81.438,8.104,122.276
			c0.946,16.437-0.073,32.839-0.106,49.318c-0.067,31.213,4.031,63.625-0.611,94.674c-5.875,39.256-14.867,78.151-28.229,115.563
			c-9.326,26.121-23.442,50.771-36.489,75.814c-19.738,37.896-34.601,76.9-49.188,117.004
			c-11.874,32.639-17.253,66.188-22.146,100.336c-1.096,7.617-1.273,15.486-2.003,22.998c-1.512,15.506-4.868,31.396-8.521,46.146
			c-3.271,13.224-2.925,25.342-5.003,38.5c-4.846,30.685-3.808,63.076-3.807,94.066c0.002,46.135,7.045,90.984,11.989,136.621
			c0.73,6.736,2.224,13.375,3.188,19.996c3.854,26.375,11.229,53.229,18.87,78.732c5.464,18.24,12.022,36.699,18.598,54.615
			c6.55,17.854,10.6,35.807,17.783,53.6c11.116,27.523,38.992,77.863,75.495,67.006c4.052-1.205,7.873-2.783,11.955-4.064
			c4.387-5.354,12.576-8.574,17.611-14.373c5.232-6.024,9.55-14.264,12.696-21.51c6.505-14.971,8.645-33.346,11.153-49.319
			c5.637-35.853,7.312-73.074,7.318-110.024c0.005-31.568,4.663-62.854,4.663-94.318c0-35.121,4.699-70.184,4.666-105.334
			c-0.021-23.205,2.181-48.645,7.498-71c2.537-10.664,4.066-23.006,5.173-33.998c0.889-8.838,1.894-18.203,3.185-26.813
			c2.707-18.045,4.718-36.861,8.866-54.908c5.815-25.308,12.187-51.457,19.926-76.31c7.029-22.569,16.873-45.813,26.02-67.955
			c10.02-24.256,19.572-48.729,31.653-71.653c14.313-27.152,30.302-49.992,49.949-73.385c13.628-16.226,27.854-31.318,42.382-46.625
			c6.905-7.271,14.063-14.398,21.233-21.556c11.104-11.076,22.311-21.785,32.773-33.472c23.114-25.805,45.188-51.819,67.688-78.002
			c22.396-26.063,42.164-55.381,60.322-84.666c9.444-15.237,15.695-30.82,22.843-47.07c7.375-16.775,9.959-34.996,15.013-52.491
			c5.271-18.246,15.938-32.868,24.119-49.752c8.95-18.471,21.786-36.267,33.556-53.354c10.197-14.813,20.894-29.229,30.654-44.47
			c21.316-33.271,47.675-62.522,76.516-89.52c10.479-9.812,20.857-19.994,32.311-28.646c19.056-14.396,36.437-36.873,59.639-44.566
			c7.563-2.509,15.75-2.861,22.856-5.966c14.276-6.229,27.871-13.976,40.053-23.711c1.438-1.146,3.064-1.685,4.442-2.828
			c1.479-1.23,2.477-3.021,3.812-4.398c1.822-1.878,3.438-3.941,4.858-6.146c2.621-4.063,4.807-8.392,6.394-12.824
			c3.037-8.485,2.523-18.344,2.291-27.258c-0.104-4.08-0.216-8.301-0.019-12.43c0.396-8.365,1.03-17.146,1.64-25.64
			c0.631-8.791,1.284-17.883,1.696-26.687c0.385-8.211,0.474-16.489,0.562-24.5c0.103-9.25,0.202-18.813,0.769-28.2
			c1.246-20.752,4.705-51.847,14.106-82.127c1.547-4.979,2.938-9.992,4.287-14.849c1.747-6.287,3.557-12.789,5.771-19.526
			c7.392-22.486,18.328-45.977,31.623-67.918c15.804-26.086,30.572-47.852,45.149-66.531c2.892-3.704,5.787-7.524,8.593-11.223
			c6.271-8.271,12.758-16.825,19.621-24.679c4.279-4.896,8.707-9.688,12.982-14.323c5.545-6.011,11.28-12.225,16.674-18.636
			c25.602-30.427,54.979-53.334,89.813-70.032c14.566-6.983,29.163-13.429,42.762-19.354c31.854-13.873,66.053-22.584,99.123-31.009
			c27.63-7.038,56.205-9.873,83.84-12.616l3.795-0.377c3.927-0.392,7.998-0.855,11.938-1.313c8.396-0.968,17.085-1.968,25.499-2.36
			c60.581-2.845,120.771-10.886,181.569-13.395c16.604-0.685,31.32-4.299,47.689-6.744c16.438-2.457,33.038-3.477,49.561-5.207
			c23.697-2.479,47.226-5.545,71.168-5.545c10.488,0,20.086,0.5,29.33,1.529c18.655,2.078,37.289,6.086,55.308,9.961
			c5.229,1.125,10.642,2.289,15.928,3.377c5.911,1.219,11.729,1.812,17.774,1.812c9.182,0,17.869-1.302,29.144-3.14
			c10.771-1.756,21.179-4.475,32.2-7.353l2.268-0.593c11.739-3.062,23.871-6.873,35.604-10.562
			c14.271-4.487,28.731-8.373,43.173-12.868c10.055-3.132,19-7.693,28.551-11.774c19.91-8.513,37.539-19.216,56.504-29.675
			c12.707-7.01,25.449-14.814,36.848-23.795c1.213-0.955,2.438-1.898,3.633-2.869c36.335-29.563,67.716-64.837,102.814-95.965
			c23.781-21.09,49.627-39.73,75.346-57.35c39.744-27.228,81.438-53.396,117.336-85.826c21.289-19.232,34.858-46.637,43.324-73.721
			C3290.845,2604.313,3295.066,2586.591,3285.939,2573.491z" color="15921648" style="fill:#f2f1f0;fill-opacity:1;stroke-width:10;stroke:rgb(0,0,0)"></path><path id="157959777" parent_id="157959774" order="1" structure_id="10557" d="
			M2156.984,1779.622c-35.405-18.976-77.649-17.681-116.772-18.39c-83.418-1.518-165.993-1.377-249.298,2.681
			c-20.518,1-40.294,2.177-60.91,1.17c-18.742-0.914-36.661,2.96-55.502,2.892c-20.787-0.076-41.255,0.77-61.891,3.203
			c-32.043,3.784-64.22,0.821-96.359,0.821c-35,0.001-67.224,3.172-100.749,8.003c-48.664,7.013-99.819-5.339-148.002-12
			c-14.048-1.941-28.537-2.375-42.427-5.262c-12.928-2.688-24.208-10.146-37.064-13.252c-24.477-5.916-44.147-9.741-66.559-21.235
			c-9.896-5.076-18.316-10.328-27.909-15.989c-18.41-10.865-37.552-20.01-54.136-34.293c-16.003-13.779-32.063-26.396-42.604-45.235
			c-10.953-19.577-14.624-44.313-18.812-66.238c-2.502-13.099-3.461-27.863-3.497-41.471
			c-0.106-40.021,18.656-77.156,33.729-113.021c10.562-25.114,24.699-48.337,37.023-73.062
			c24.552-49.261,57.672-90.591,88.996-135.163c17.502-24.904,57.141-61.883,52.048-95.57c-2.13-14.086-13.236-32.17-23.759-42.75
			c-13.191-13.264-32.771-19.979-47.169-32.395c-14.777-12.74-30.229-25.432-42.055-41.104
			c-10.878-14.418-17.002-32.105-29.768-45.146c-14.135-14.438-32.936-23.444-52.271-28.597
			c-26.504-7.063-48.354,0.134-62.777,23.782c-9.62,15.773-16.187,30.331-17.737,48.987c-3.172,38.093-1.45,78.374-8.75,115.504
			c-3.849,19.579-9.229,38.455-13.978,57.757c-4.377,17.803-13.063,33.692-18.428,51.333c-4.782,15.749-6.692,33.278-9.157,49.367
			c-2.935,19.127-4.762,38.396-6.973,57.611c-3.479,30.25-11.285,60.418-17.56,90.217c-4.086,19.413-5.799,38.47-14.298,56.758
			c-8.563,18.425-15.614,35.674-22.024,54.974c-14.943,44.992-24.836,90.922-38.033,136.547
			c-3.766,13.02-7.902,26.688-10.004,39.994c-5.266,33.392,1.56,66.935,13.076,98.303c6.271,17.07,11.315,35.344,21.995,50.342
			c10.506,14.755,30.352,23.949,47.32,29.37c18.356,5.864,34.344,9.671,53.732,10.701c12.159,0.646,25.938,2.875,38.813,2.228
			c34.634-1.738,70.317-3.404,104.604-8.312c29.646-4.242,58.438-13.249,88.236-16.558c28.294-3.14,57.496-1.125,85.938-1.125
			c11.229,0,23.946,0.508,34.998-1.223c10.075-1.575,18.221-7.792,28.728-8.814c36.663-3.571,74.2-2.396,111.071-3.252
			c39.154-0.91,78.433-1.401,117.452,2.521c80.864,8.128,163.604,10.774,244.976,6.717c56.904-2.838,113.973,1.083,170.985,1.057
			c41.623-0.021,83.395-0.468,123.037,8.002c35.293,7.532,67.247-4.345,101.456-12c14.516-3.248,29.029-8.924,40.637-19.031
			c12.252-10.671,22.205-21.035,10.938-36.1C2181.6,1793.244,2168.487,1785.787,2156.984,1779.622z" color="15921648" style="fill:#f2f1f0;fill-opacity:1;stroke-width:10;stroke:rgb(0,0,0)"></path><path id="157959778" parent_id="157959774" order="2" structure_id="10557" d="
			M2983.167,3309.448c-0.774-14.914-1.926-28.837-2.66-43.788c-0.604-12.288-1.062-24.821-1.446-36.954
			c-0.283-9.03,2.504-19.88-7.121-25.083c-4.353-2.354-9.683-2.769-14.529-2.493c-5.189,0.291-10.856,1.397-15.418,4.007
			c-0.887,0.506-3.596,2.313-4.596,1.526c-0.098-0.077-0.177-0.159-0.239-0.244c-0.066-0.082-0.117-0.169-0.161-0.257
			c-9.479,7.697-18.402,16.059-26.471,25.229c-12.037,13.688-22.695,29.688-27.955,47.313c-2.426,8.116-3.281,16.698-5.271,24.938
			c-3.998,16.581-10.312,32.324-18.726,47.161c-19.438,34.271-41.097,66.033-64.77,97.487
			c-11.942,15.875-24.626,31.345-37.808,46.209c-7.943,11.59-18.167,21.7-28.365,31.287c-22.688,21.321-47.104,40.952-72.009,59.61
			c-10.3,7.713-20.755,15.192-31.081,22.858c-13.229,9.82-28.703,15.983-41.792,25.979c-5.621,4.291-11.894,8.768-15.013,15.336
			c-1.656,3.492-2.391,7.584-2.565,11.754c2.966,0.809,5.471,3.891,7.985,6.619c0.021,0.021,0.045,0.049,0.064,0.07
			c0.191,0.209,0.383,0.409,0.575,0.61c0.062,0.063,0.12,0.127,0.181,0.188c0.229,0.233,0.455,0.469,0.686,0.688
			c2.572,2.511,5.457,4.771,8.324,6.668c19.164,12.687,47.252,9.963,69.051,11.625c26.77,2.042,53.576,4.908,80.457,3.567
			c36.813-1.838,71.322,4.295,107.668,10.571c12.604,2.179,25.705,1.73,38.252-1.146c23.688-5.438,45.408-19.555,58.091-41.085
			c4.432-7.526,8.481-15.808,11.799-23.966c19.521-48.043,27.054-102.373,32.19-153.744c1.133-11.303,4.188-22.405,4.684-33.773
			c0.457-10.463-0.023-20.968,0.503-31.562c0.779-15.646,0.229-31.873-0.532-47.332
			C2984.164,3349.355,2984.203,3329.396,2983.167,3309.448z" color="15921648" style="fill:#f2f1f0;fill-opacity:1;stroke-width:10;stroke:rgb(0,0,0)"></path></g><g id="157959781" order="0" group_label_id="113753815" group_label="Atlas - Developing Human Gyri" sub_image_id="102339919"><path id="157959784" parent_id="157959781" order="0" structure_id="146034888" d="
			M3926.503,2342.998c-3.639-37.379-11.198-71.425-20.669-107.664c-7.386-28.26-17.143-56.184-28-83.333
			c-7.148-17.875-17.801-35.421-28.048-51.601c-8.095-12.778-24.211-25.166-36.132-34.235
			c-12.188-9.272-24.029-18.438-36.854-26.763c-20.479-13.293-43.556-16.732-64.323-30.105
			c-12.163-7.832-25.354-13.354-37.97-20.479c-25.844-14.599-43.152-45.969-44.647-75.511c-0.771-15.259,0.83-30.495-1.308-45.479
			c-2.146-15.054-1.562-30.697-3.204-45.862c-3.33-30.729-10.156-61.131-23.204-89.277c-13.135-28.34-23.841-57.684-36.229-86.354
			c-8.493-19.66-18.2-38.714-27.379-58.104c-9.701-20.491-20.903-40.338-34.201-58.725c-13.438-18.579-28.764-35.392-43.568-52.838
			c-15.037-17.723-29.484-35.771-47.63-50.516c-22.557-18.332-43.014-38.034-67.303-54.148c-7.638-5.063-15.634-8.443-23.972-11.843
			c-9.729-3.964-18.564-10.091-28.847-12.679c-13.771-3.469-25.941-4.478-38.684-12c-8.666-5.116-17.384-7.328-26.347-11.634
			c-4.914-2.356-10.03-4.51-14.653-6.709c-13.712-6.52-28.798-9.823-42.821-15.328c-34.754-13.639-72.422-26.418-108.664-35.145
			c-14.666-3.531-29.123-6.942-44.034-10.001c-17.261-3.54-34.295-5.564-51.55-8.53c-21.508-3.697-43.176-6.348-64.77-9.479
			c-13.223-1.918-26.691-4.808-39.991-5.32c-13.784-0.536-27.228-0.651-40.614-1.996c-15.066-1.516-30.246-2.01-45.396-3.514
			c-65.16-6.47-138.58,5.291-198.957,31.009c-18.106,7.713-37.323,12.003-54.719,21.451c-14.604,7.934-27.758,19.298-40.367,30.056
			c-20.606,17.582-47.854,26.595-72.203,37.256c-33.563,14.694-68.244,27.735-102.759,39.775c-22.577,7.877-48.354,13.438-72,18.465
			c-11.614,2.469-23.362,4.583-35,6.943c-34.252,6.948-69.095,12.098-103.868,15.845c-62.774,6.764-125.877,10.524-188.946,13.217
			c-31.658,1.354-63.577,2.51-95.154,2.993c-142.437-4.13-262.438,12.646-338.049,27.441
			c-81.934,16.036-130.828,33.271-131.313,33.439c-0.223,0.078-0.446,0.116-0.67,0.116c-0.822,0-1.595-0.511-1.886-1.331
			c-0.369-1.041,0.174-2.187,1.215-2.555c0.485-0.175,49.592-17.485,131.785-33.578c75.827-14.849,196.183-31.681,338.941-27.536
			c32.219-0.522,64.438-1.677,96.625-3.063c63.423-2.726,126.888-6.537,190.004-13.446c27.256-2.983,54.387-7.1,81.271-12.5
			c11.461-2.308,23.697-3.158,34.861-6.388c16.307-4.709,32.588-11.953,48.223-18.5c18.188-7.614,37.238-12.289,55.224-20.465
			c19.916-9.053,40.194-16.858,60.268-25.343c21.213-8.964,39.259-24.547,58.73-36.546c14.114-8.696,24.507-24.735,31.959-39.514
			c7.925-15.709,12.966-32.058,19.407-48.222c6.129-15.379,14.457-29.737,21.084-44.89c5.313-12.143,6.873-28.264,8.289-41.646
			c1.871-17.71,3.957-37.329,0.222-54.715c-0.572-2.671-1.509-5.464-1.998-8.01c-4.097-21.494-8.526-43.486-14-64.766
			c-4.437-17.234-10.271-33.106-16.252-49.973c-8.157-23.003-21.451-39.998-35.698-59.414
			c-15.384-20.964-30.439-42.52-50.247-59.644c-18.99-16.419-38.973-30.57-60.26-43.77c-17.722-10.984-38.955-25.519-36.771-49.202
			c1.957-21.24,9.904-41.534,11.782-62.997c1.909-21.842,4.177-43.327,5.218-65.498c2.425-51.738-14.09-93.49-46.991-132.017
			c-8.188-9.585-16.602-19.353-25.25-28.469c-22.705-23.922-46.918-48.039-71.278-70.394c-19.306-17.716-44.55-29.812-66.66-43.463
			c-32.127-19.837-72.641-34.4-110.312-38.168c-10.53-1.052-21.069-1.97-31.5-2.996c-33.597-3.305-63.166,0.275-95.273,10.001
			c-24.204,7.331-45.304,18.811-68.704,27.971c-37.049,14.501-72.487,33.662-110.019,46.781
			c-24.245,8.474-50.358,18.376-76.009,22.473c-15.479,2.476-32.077,3.367-47.419,5.854c-21.449,3.477-42.794,7.525-63.563-1.104
			c-26.312-10.934-50.087-27.314-75.979-39.254c-28.161-12.982-55.105-34.455-80.663-52.239
			c-58.429-40.659-109.339-88.424-163.884-133.486c-19.093-15.771-37.024-34.491-57.704-47.808
			c-23.233-14.963-50.979-21.339-76.249-32.65c-31.199-13.965-58.916-25.043-93.021-26.734c-24.383-1.209-47.423-1.985-72.076-0.806
			c-20.208,0.967-40.229,3.146-60.431,5.505c-10.886,1.271-21.661,2.49-32.521,3.493c-25.209,2.326-49.037,4.681-73.473,10.058
			c-46.522,10.237-94.881,25.442-134.514,54.443c-26.903,19.688-54.777,41.142-77.271,65.754
			c-22.815,24.973-41.566,48.842-59.486,77.494c-41.708,66.685-62.813,143.123-73.993,221.015
			c-2.525,17.599-5.372,35.964-10.021,52.989c-7.836,28.697-11.744,59.53-14.734,89.257c-2.594,25.772-8.83,51.102-10.021,76.99
			c-2.479,53.823-5.719,107.139-2.998,162.01c1.73,34.938,6.992,69.644,8.98,104.531c1.027,18.023,3.206,37.1,5.041,55.459
			c3.856,38.604,1.874,80.282-2.001,119.006c-1.038,10.384-0.932,21.414-2.006,31.996c-3.712,36.489-16.394,69.108-25.773,104.218
			c-6.544,24.491-16.49,47.698-24.195,71.741c-12.438,38.807-15.435,78.676-24.244,118.047c-4.688,20.951-3.341,44.044-3.667,65.274
			c-0.313,20.367-8.177,39.821-7.112,60.723c2.062,40.463,3,81.021,3,121.498c0,38.043,5.13,74.771,7.916,111.961
			c1.028,13.729,1.942,26.31,3.999,40.043c4.854,32.405,8.776,64.035,17.084,95.498c2.113,8.003,4.141,15.372,6.056,22.942
			c3.075,12.163,2.081,25.457,4.846,37.854c3.188,14.292,9.005,27.854,12.126,42.17c1.997,9.157,3.69,19.103,7.214,28.002
			c7.381,18.646,17.4,35.417,24.549,54.562c7.981,21.383,16.205,42.989,29.307,61.858c12.573,18.11,24.249,36.86,37.499,54.5
			c12.01,15.987,25.199,28.028,39.433,41.84c28.14,27.308,54.925,54.843,89.017,74.767c21.514,12.572,45.271,17.19,68.951,23.508
			c23.151,6.173,46.777,5.877,70.002-0.029c6.667-1.694,13.038-2.813,19.777-5.207c13.481-4.786,26.146-12.118,38.455-19.482
			c24.742-14.811,48.809-30.479,73.061-45.039c42.266-25.371,83.477-53.396,122.955-83.021
			c13.358-10.022,27.938-18.152,41.463-27.854c17.949-12.879,36.028-20.934,56.816-27.893c23.419-7.84,46.367-20.323,70.398-25.536
			c24.836-5.388,50.244-11.627,75.577-13.978c28.761-2.666,58.339-3.508,87.501-4.963c18.465-0.924,34.744-0.823,52.996,1.006
			c19.174,1.923,38.147-3.157,57.172-1.827c17.293,1.211,34.741,5.062,52.253,5.819c19.813,0.857,39.555,3.509,59.161,4.004
			c22.168,0.563,45.924,7.196,67.41,11.496c11.141,2.229,21.809,4.736,32.595,7.593c54.743,14.487,112.06,26.791,168.307,33.569
			c27.563,3.322,56.922,11.203,85.332,15.404c29.096,4.303,58.267,7.383,87.188,12.898c23.229,4.436,45.654,13.911,68.954,16.938
			c22.457,2.916,45.229,0.123,67.635-1.927c8.135-0.744,15.592,0.789,23.002,0.014c8.592-0.898,17.035-3.351,25.747-4.044
			c18.396-1.468,36.772-1.242,55.247-1.947c9.658-0.368,18.299,0.336,28.005,1.778c28.591,4.25,57.542,5.231,86.507,5.231
			c27.896,0,54.5-1.237,81.993-3.974c9.729-0.969,19.813-0.892,29.548-1.983c46.099-5.187,89.569-8.457,134.489-20.932
			c22.077-6.131,44.991-9.472,66.455-17.879c34.521-13.521,68.87-27.802,100.468-45.742c26.336-14.955,53.11-27.512,78.811-43.25
			c11.448-7.016,22.987-14.803,34.468-21.519c22.136-12.946,47.187-19.239,72.259-21.731c21.775-2.168,40.813-4.982,62.461-0.909
			c8.006,1.509,38.354,6.711,29.803,20.966c-5.094,8.493-25.717,9.795-34.174,10.996c-12.742,1.811-25.662,3.23-38.093,4.964
			c-10.125,1.409-20.081,2.793-30.032,4.461c-9.164,1.537-21.813,0.604-27.229,9.53c-2.907,4.793-4.157,11.186-5.629,16.513
			c-1.621,5.868-2.518,10.58-3.088,16.985c-1.373,15.375,1.938,30.961,1.982,46.457c0.047,15.214-6.045,33.686-13.007,46.646
			c-7.792,14.509-9.954,20.08-25.295,27.111c-13.819,6.334-28.944,9.086-43.209,14.182c-24.662,8.809-48.272,18.209-71.456,29.852
			c-26.228,13.166-55.041,23.903-82.842,33.7c-29.201,10.293-58.636,20.022-87.191,32.045
			c-18.238,7.679-39.998,11.748-59.021,17.472c-10.491,3.157-20.866,4.89-31.725,7.754c-21.129,5.58-42.039,11.604-63.3,16.664
			c-18.999,4.521-39.338,3.629-58.903,4.614c-26.861,1.354-53.594,3.673-80.498,4.993c-34.646,1.701-68.418-0.528-102.529,2.998
			c-36.836,3.813-72.164,0.89-109.057,1.009c-62.054,0.202-122.355-7.095-183.188-19.246c-21.271-4.248-43.438-6.116-64-11.53
			c-21.633-5.696-44.65-6.298-66.58-11.977c-21.146-5.478-41.1-16.291-63.237-15.146c-30.532,1.573-57.339-12.218-86.95-18.132
			c-14.855-2.968-29.892-5.618-44.51-7.931c-34.969-5.528-70.785-4.387-105.469-11.366c-35.257-7.101-71.13-7.248-106.896-9.291
			c-29.688-1.695-59.209-2.379-88.928-2.384c-38.169-0.008-75.469,0.179-113.077,6.826c-38.997,6.894-78.163,7.555-116.7,16.17
			c-15.886,3.553-31.907,6.229-47.674,10.362c-18.977,4.978-38.825,6.044-57.947,10.861c-15.943,4.019-31.308,9.939-46.971,14.414
			c-16.617,4.741-33.333,8.427-48.864,16.354c-19.699,10.053-41.854,22.609-58.817,37.311
			c-26.013,22.539-38.693,48.201-45.338,81.98c-3.208,16.313-1.38,31.852,0.21,48.416c2.734,28.512,6.296,57.189,11.979,85.291
			c3,14.834,8.286,31.988,14.451,46c12.098,27.496,25.588,56.411,42.021,81.979c7.043,10.955,15.905,20.642,25.395,29.519
			c4.718,4.416,8.808,9.522,13.937,13.494c8.891,6.885,21.232,10.284,31.105,15.743c16.318,9.021,32.643,18.045,48.963,27.064
			c19.917,11.012,39.833,19.021,59.75,30.032c17.27,9.546,34.534,19.093,51.803,28.638c8.384,4.637,17.576,11.543,25.149,16.904
			c0.106,0.076,0.231,0.128,0.35,0.193c0.968,0.533,1.317,1.75,0.782,2.719c-0.357,0.648-1.025,1.021-1.72,1.031
			c-0.339,0.006-0.683-0.074-0.998-0.25c-5.794-3.202-10.32-7.389-17.32-11.721c-14.018-8.679-29.409-17.113-43.835-25.091
			c-17.645-9.754-35.284-16.508-52.929-26.261c-15.811-8.739-31.619-17.479-47.431-26.221c-11.43-6.318-23.211-14.272-35.563-18.496
			c-3.637-1.242-7.39-2.104-11.058-3.241c-7.781-2.423-16.069-6.341-23.191-10.496c-8.008-4.673-13.261-11.851-19.47-18.399
			c-6.474-6.83-12.75-13.886-18.194-21.711c-4.742-6.814-10.908-13.082-16.313-19.5c-4.709-5.597-10.328-11.55-16.663-15.229
			c-18.437-10.71-39.661-15.361-60.439-18.001c-3.521-0.446-6.88-0.993-10.424-1.345c-6.166-0.612-12.396-1.31-18.619-1.01
			c-8.834,0.428-17.698,0.979-26.411,2.575c-17.981,3.3-36.656,8.265-50.369,21.091c-10.075,9.428-13.926,21.543-20.772,33.125
			c-2.844,4.812-5.29,9.907-7.554,14.957c-5.61,12.525-13.528,23.77-19.76,35.916c-2.625,5.116-5.229,10.375-7.763,15.58
			c-4.52,9.293-9.944,18.521-14.665,27.741c-4.648,9.084-9.729,18.185-13.338,27.692c-1.741,4.595-4.057,8.73-5.906,13.336
			c-1.706,4.241-2.873,8.813-4.92,13.064c-8.252,17.152-14.604,36.352-20.103,54.586c-4.394,14.57-9.555,28.336-13.498,43.168
			c-2.525,9.49-6.293,18.531-8.845,28.014c-2.736,10.168-5.279,20.392-8.297,30.479c-3.971,13.282-8.46,27.063-11.76,40.327
			c-2.854,11.478-7.413,21.438-11.411,32.474c-4.151,11.457-6.501,23.478-8.425,35.479c-1.067,6.675-1.99,13.371-3.01,20.055
			c-0.688,4.514-1.067,9.146-1.348,13.646c-0.329,5.309-1.935,10.408-2.65,15.689c-0.931,6.835-1.835,13.68-2.408,20.665
			c-0.938,11.425-1.587,23.435-3.646,34.665c-2.199,12.001-4.604,23.596-6.332,35.674c-1.302,9.101-2.396,18.408-3.521,27.493
			c-1.698,13.742-4.221,27.55-5.502,41.334c-0.997,10.728-1.523,21.392-2.688,32.076c-1.248,11.467-3.723,22.771-4.646,34.275
			c-0.597,7.441-0.728,15.355-1.973,22.646c-2.48,14.521-4.644,29.771-5.36,44.487c-0.484,9.945-1.083,19.9-1.653,29.841
			c-0.432,7.526,0.415,15.145,0.655,22.664c0.338,10.593,0.001,21.25-0.001,31.925c-0.005,22.528,0.904,44.941,2.006,67.229
			c1.016,20.537,4.801,40.313,7.671,60.521c2.438,17.149,5.313,34.159,6.99,51.663c1.801,18.742,4.587,38.201,3.676,57.358
			c-0.229,4.865-0.68,9.746-0.68,14.643c0,3.819,0.188,7.689,0.004,11.505c-0.334,6.937-0.633,14.07-0.992,21.137
			c-0.872,17.109-1.652,34.377-1.679,51.521c-0.022,16.902,0.174,34.159,0.984,51.084c0.854,17.838,0.733,35.926,0.016,53.76
			c-0.563,14.018-0.495,28.043-0.41,42.063c0.039,6.396,0.726,13.166,0.244,19.508c-0.332,4.385-1.115,8.84-2.135,13.117
			c-2.183,9.15-3.515,18.516-5.11,27.805c-5.228,30.433-17.463,59.439-15.463,90.972c0.614,9.672,1.548,19.332,1.542,29.028
			c-0.006,10.416-2.914,20.037-6.834,29.668c-2.455,6.027-5.209,11.89-8.039,17.865c-5.563,11.754-9.333,24.021-13.471,36.127
			c-4.581,13.396-8.846,26.051-11.656,40.004c-1.621,8.045-3.587,15.896-5.167,23.842c-1.566,7.869-3.594,15.801-4.501,23.832
			c-0.976,8.644-0.887,17.16-1.316,25.992c-0.828,17.047,0.986,33.908,0.985,51.08c-0.002,18.117-1,35.896-1,53.953
			c-0.001,16.525,1.099,32.574,2.653,48.728c0.117,1.215,0.283,2.326,0.348,3.576c0.492,9.676,3.046,18.595,4.737,28.086
			c1.562,8.771,3.72,16.812,4.602,25.59c1.893,18.851,0.146,38.006-0.752,56.771c-0.308,6.439-1.629,12.793-1.554,19.183
			c0.086,7.312,0.339,14.619,0.843,21.912c0.572,8.285,0.479,16.806,1.444,25.103c1.281,11.016,2.917,21.985,4.013,33.021
			c1.524,15.352,5.104,30.42,7.651,45.689c1.578,9.459,3.214,18.619,4.37,28.201c0.906,7.508,3.557,14.492,4.636,21.979
			c1.25,8.668,3.34,17.586,5.434,26.152c1.833,7.498,3.325,15.571,4.239,23.233c0.858,7.19,2.806,14.285,4.003,21.492
			c3.222,19.396,6.981,38.942,12.836,57.793c2.669,8.588,6.108,17.231,9.487,25.476c2.956,7.211,7.634,13.194,11.406,19.979
			c8.124,14.604,9.266,28.018,9.269,44.518c0.001,5.812,0.078,11.922-0.813,17.662c-0.873,5.619-3.318,10.783-4.487,16.322
			c-1.585,7.515-4.757,14.984-7.456,22.265c-5.763,15.522-12.671,30.418-17.244,46.403c-1.022,3.58-2.341,6.976-3.343,10.517
			c-3.29,11.633-6.809,23.408-10.315,34.998c-2.268,7.496-4.855,14.935-7.177,22.504c-4.243,13.83-6.912,27.688-8.997,41.996
			c-1.221,8.379-3.04,16.625-4.163,25c-0.548,4.088-0.618,8.418-1.015,12.502c-0.991,10.192-2.452,20.592-2.986,30.994
			c-0.989,19.271,0.249,38.127,1.986,57.086c0.792,8.644,1.465,17.295,2.131,25.944c0.671,8.705,1.358,17.41,2.108,26.107
			c2.56,29.713,6.944,59.121,11.359,88.523c2.398,15.973,4.809,31.946,7.807,47.817c3.51,18.582,7.91,37.174,12.195,55.595
			c1.845,7.93,4.084,16.271,6.41,23.908c6.195,20.324,13.518,41.112,22.096,60.59c7.29,16.551,16.027,32.545,24.829,48.436
			c4.426,7.988,9.321,15.271,14.154,23.002c4.346,6.949,10.186,12.736,15.555,18.871c2.169,2.479,4.082,5.127,6.48,7.375
			c10.258,9.609,22.226,17.916,33.604,26.141c12.403,8.959,25.612,18.654,40.103,23.904c9.795,3.549,20.228,4.066,30.494,5.115
			c16.398,1.674,32.513,0.855,48.823,1.57c6.034,0.266,12.229,0.586,18.191,0.938c10.85,0.646,21.639,0.528,32.487,1.403
			c7.503,0.604,15.003,0.066,22.507,0.353c7.144,0.271,14.2,1.64,21.341,1.981c8.732,0.426,17.603,0,26.351,0
			c18.103,0,36.068-0.504,54.148-1.36c14.535-0.688,29.598-2.172,44.167-3.633c15.698-1.576,30.996-4.676,46.5-7.03
			c5.994-0.91,12.188-2.273,18.086-3.629c5.01-1.148,9.76-1.146,14.734-1.728c6.275-0.729,12.591-2.545,18.849-3.565
			c10.37-1.691,20.315-4.191,30.752-5.646c12.646-1.758,25.335-3.144,38.038-4.396c6.425-0.635,12.668-2.369,19.083-3.004
			c6.803-0.67,13.635-0.672,20.456-0.979c12.856-0.58,25.5-2.224,38.386-2.556c6.47-0.168,13.063-1.735,19.482-2.846
			c25.049-4.314,49.621-10.619,74.558-15.371c9.707-1.852,20.014-3.404,29.447-6.346c10.894-3.394,21.787-7.104,32.877-9.57
			c2.405-0.535,4.762-1.016,7.219-1.514c1.1-0.224,2.192-0.459,3.287-0.703l107.1-740.148c-0.291-0.082-0.564-0.162-0.805-0.229
			c-0.48-0.142-0.28-4.729,1.584-9.926c4.559-12.688,13.68-24.773,20.373-35.801c16.164-26.619,33.434-51.729,42.138-82.027
			l0.532-3.494c1.782-15.662,5.1-31.684,3.498-47.5c-2.987-29.576-7.938-56.508,1.069-85.797
			c6.677-21.715,23.354-41.646,24.979-64.799c1.351-19.188,7.104-40.41,4.149-60.283c-2.856-19.238-16.993-36.813-27.715-52.596
			c-9.972-14.674-20.699-25.754-32.487-39.023c-8.535-9.607-23.25-20.391-24-34.168c-0.634-11.621,7.646-21.576,19.803-20.02
			c23.521,3.018,48.133,7.147,71.629,1.754c23.974-5.506,45.938-20.715,64.458-36.295c9.114-7.668,20.161-13.101,29.89-20.039
			c17.178-12.26,36.945-19.64,53.553-32.867c10.586-8.437,21.349-16.926,32.037-25.392c24.126-19.103,48.251-38.205,72.377-57.31
			c7.849-6.215,17.16-11.465,24.864-18.24c9.485-8.346,10.299-15.354,14.175-26.483c2.781-7.979,11.078-12.078,16.979-17.336
			c5.772-5.146,10.952-12.104,15.747-18.263c16.407-21.08,31.275-42.705,46.826-64.696c11.188-15.815,19.81-33.399,32.008-48.51
			c5.992-7.42,13.53-12.801,19.975-19.563c6.336-6.652,11.409-13.125,19.166-18.203c10.562-6.914,23.227-9.813,33.75-16.354
			c21.329-13.254,47.379-13.062,71.591-16.726c37.549-5.682,75.216-12.877,111.354-23.321c26.784-7.742,52.782-17.603,79.527-25.263
			c53.025-15.188,109.813-25.771,164.777-30.703c21.697-1.944,43.377-4.28,65.021-7.309c36.365-5.084,73.528-10.451,110.394-8.709
			c25.021,1.182,50.347,1.457,75.611,2.674c21.159,1.02,42.434,0.666,64,0.666c25.519,0.002,50.563,3.346,76.146,3.334
			c19.525-0.01,39.215,4.34,58.973,5.271c20.063,0.947,39.469,4.791,59.217,6.723c31.957,3.121,61.852-1.184,93.668-2.658
			c19.789-0.92,39.492-3.146,59.33-5.371c25.334-2.848,50.762-6.182,75.723-11.396c13.123-2.74,26.297-5.269,39.275-8.638
			c18.342-4.763,36.222-10.896,54.961-14.627c12.638-2.515,24.412-8.401,36.961-10.929c7.701-1.549,21.8-4.205,27.259-10.194
			c9.968-10.938,20.349-20.39,32.634-29.342c15.195-11.07,30.896-19.933,47.254-28.437c34.896-18.145,66.438-39.436,97.549-62.413
			c29.843-22.045,54.309-52.735,76.563-82.515c14.445-19.33,24.104-39.722,35.654-60.295c11.972-21.325,19.75-46.271,26.004-69.854
			c2.804-10.563,3.57-20.466,4.684-31.483c1.132-11.219,4.735-21.437,7.504-32.517c3.093-12.395,6.063-23.061,11.146-34.695
			c6.287-14.392,13.355-28.502,18.648-43.307c6.239-17.455,10.973-33.231,14.248-51.388c3.1-17.188,4.194-34.722,7.287-51.946
			c3.01-16.76,5.844-33.584,10.729-49.666c4.634-15.257,5.523-30.575,7.896-46.33c3.312-21.985,7.854-43.164,10.021-65.334
			c4.901-50.152,0.701-99.977-1.664-150.326c-0.7-14.967-2.267-30.467-4.375-45.342c-3.679-25.951-5.36-51.646-7.95-77.604
			c-1.263-12.639-2.789-24.611-4.845-37.071c-4.119-25.009-9.969-49.683-14.539-74.41c-4.086-22.113-17.819-49.094-11.06-71.918
			c7.051-23.795,33.58-30.498,50.609-44.029c22.291-17.709,47.555-31.557,70.127-49.135c17.23-13.42,31.811-29.188,46.801-45.03
			c12.208-12.897,24.342-25.872,36.715-38.614c8.508-8.766,16.034-18.241,24.341-27.158c4.821-5.176,9.979-9.848,15.014-14.861
			c10.278-10.244,20.104-21.244,30.181-31.668c12.227-12.646,25.069-25.457,34.477-40.338c12.988-20.555,20.17-43.153,27.58-66.065
			c4.598-14.211,8.389-28.388,12.758-42.44c8.116-26.104,15.039-52.429,19.809-79.007c1.261-7.025,2.447-14.123,2.695-21.641
			C3927.396,2395.605,3929.143,2370.12,3926.503,2342.998z M2178.616,1839.972c-11.606,10.109-26.121,15.783-40.636,19.032
			c-34.209,7.658-66.166,19.535-101.457,11.999c-39.646-8.467-81.414-8.021-123.037-8.002
			c-57.019,0.029-114.081-3.891-170.988-1.053c-81.371,4.058-164.108,1.411-244.973-6.717c-39.022-3.923-78.301-3.435-117.452-2.521
			c-36.873,0.857-74.411-0.319-111.074,3.252c-10.507,1.024-18.649,7.241-28.724,8.816c-11.056,1.728-23.771,1.222-34.998,1.222
			c-28.443,0-57.646-2.014-85.938,1.125c-29.798,3.307-58.591,12.313-88.236,16.555c-34.281,4.906-69.97,6.573-104.604,8.313
			c-12.876,0.647-26.655-1.582-38.813-2.228c-19.392-1.03-35.376-4.84-53.732-10.701c-16.971-5.422-36.813-14.614-47.32-29.37
			c-10.679-14.998-15.726-33.271-21.995-50.343c-11.52-31.367-18.342-64.91-13.076-98.305c2.103-13.305,6.238-26.975,10.007-39.995
			c13.194-45.624,23.088-91.552,38.03-136.545c6.41-19.297,13.462-36.546,22.024-54.972c8.499-18.289,10.211-37.346,14.298-56.758
			c6.272-29.803,14.079-59.969,17.56-90.219c2.211-19.218,4.038-38.482,6.973-57.609c2.465-16.089,4.375-33.618,9.16-49.367
			c5.358-17.64,14.047-33.531,18.425-51.333c4.746-19.302,10.128-38.178,13.978-57.757c7.299-37.13,5.577-77.411,8.75-115.504
			c1.555-18.656,8.117-33.214,17.737-48.987c14.425-23.652,36.276-30.847,62.779-23.785c19.334,5.151,38.136,14.158,52.271,28.6
			c12.766,13.038,18.891,30.729,29.768,45.146c11.823,15.672,27.274,28.362,42.055,41.104
			c14.396,12.409,33.978,19.132,47.169,32.396c10.521,10.58,21.629,28.664,23.759,42.75c5.093,33.688-34.546,70.666-52.048,95.57
			c-31.324,44.568-64.444,85.898-88.996,135.163c-12.324,24.727-26.466,47.943-37.023,73.062
			c-15.071,35.861-33.837,72.999-33.729,113.02c0.036,13.605,0.995,28.369,3.497,41.472c4.188,21.929,7.855,46.66,18.812,66.237
			c10.541,18.841,26.603,31.457,42.604,45.236c16.584,14.283,35.726,23.425,54.136,34.293c9.592,5.661,18.017,10.913,27.909,15.989
			c22.408,11.495,42.083,15.32,66.559,21.234c12.857,3.104,24.14,10.563,37.064,13.252c13.89,2.889,28.379,3.317,42.427,5.263
			c48.185,6.662,99.338,19.014,148.002,12c33.525-4.831,65.75-8.002,100.749-8.003c32.146,0,64.314,2.963,96.359-0.821
			c20.636-2.438,41.104-3.279,61.891-3.203c18.841,0.068,36.76-3.806,55.502-2.892c20.616,1.006,40.393-0.172,60.91-1.17
			c83.305-4.061,165.88-4.195,249.298-2.685c39.123,0.711,81.367-0.584,116.772,18.394c11.502,6.164,24.611,13.621,32.563,24.253
			C2200.82,1818.938,2190.867,1829.301,2178.616,1839.972z M3286.472,2618.307c-8.465,27.084-22.037,54.485-43.325,73.719
			c-35.896,32.435-77.592,58.604-117.336,85.828c-25.718,17.616-51.562,36.263-75.345,57.352
			c-34.377,30.48-65.186,64.948-100.573,94.127l-2.279,1.871c-5.186,4.237-10.043,11.909-12.872,18.045
			c-3.097,6.713-5.224,13.495-5.568,20.76c-0.783,16.354-1.453,32.522-0.667,49.003c0.854,17.819,0.479,35.411,1.336,52.992
			c0.793,16.217,1.363,33.139,3.577,49.082c1.323,9.554,2.181,19.29,2.646,28.915c0.371,7.598-0.169,15.219,0.104,22.836
			c0.07,2.061,0.127,4.116,0.174,6.176c0.131,5.666,0.324,11.336,0.395,16.992c0.017,1.29,0.021,2.579,0.021,3.868
			c0,1.39,0.128,2.78,0.128,4.166c0,0.903-0.354,1.944,0.513,2.627c1,0.787,3.709-1.021,4.596-1.525
			c4.562-2.606,10.229-3.716,15.418-4.007c4.851-0.271,10.181,0.145,14.528,2.493c9.626,5.2,6.835,16.053,7.121,25.082
			c0.388,12.134,0.847,24.666,1.447,36.955c0.731,14.948,1.886,28.873,2.66,43.787c1.032,19.946,0.997,39.905,1.98,59.887
			c0.765,15.459,1.313,31.688,0.533,47.332c-0.528,10.594-0.046,21.098-0.503,31.563c-0.496,11.366-3.551,22.473-4.682,33.771
			c-5.145,51.372-12.671,105.702-32.192,153.743c-3.313,8.157-7.366,16.438-11.799,23.967
			c-12.68,21.531-34.399,35.646-58.089,41.085c-12.549,2.88-25.649,3.325-38.252,1.146c-36.346-6.277-70.854-12.408-107.668-10.572
			c-26.88,1.342-53.689-1.524-80.457-3.566c-21.797-1.662-49.887,1.062-69.049-11.625c-2.871-1.897-5.754-4.156-8.326-6.668
			c-3.953-3.854-7.639-9.873-12.86-8.068c-9.101,3.144-18.231,6.185-27.396,9.138c-37.803,12.185-76.104,22.804-114.771,31.862
			c-37.216,8.724-74.771,16.037-112.548,21.894c-36.121,5.597-72.417,9.979-108.843,13.063
			c-34.274,2.899-68.657,4.664-103.056,5.252c-31.987,0.545-63.989,0.125-95.946-1.396c-29.062-1.384-58.07-3.688-86.981-6.957
			c-25.637-2.896-51.19-6.657-76.55-11.408c-21.696-4.063-43.284-8.854-64.554-14.787c-17.161-4.783-34.173-10.236-50.661-17.013
			c-6.649-2.731-13.223-5.688-19.616-8.979c-2.824-1.45-5.634-2.959-8.36-4.584c-4.832-2.877-8.438-7.493-12.566-11.344
			c-0.043-0.04-0.084-0.068-0.128-0.104c-0.694,0.854-1.421,1.688-2.188,2.479c-1.337,1.379-2.332,3.168-3.813,4.4
			c-1.377,1.146-3.007,1.682-4.438,2.825c-12.186,9.736-25.775,17.479-40.056,23.711c-7.104,3.104-15.296,3.457-22.854,5.968
			c-23.202,7.692-40.583,30.17-59.641,44.565c-11.448,8.65-21.832,18.836-32.312,28.646c-28.838,26.992-55.196,56.246-76.513,89.52
			c-9.768,15.239-20.457,29.656-30.654,44.469c-11.771,17.094-24.604,34.889-33.556,53.354
			c-8.186,16.886-18.853,31.509-24.119,49.752c-5.058,17.496-7.642,35.718-15.017,52.492c-7.144,16.25-13.395,31.833-22.843,47.069
			c-18.159,29.287-37.926,58.603-60.321,84.666c-22.5,26.184-44.569,52.199-67.687,78.002
			c-10.466,11.687-21.673,22.396-32.777,33.473c-7.171,7.152-14.327,14.279-21.229,21.555
			c-14.529,15.307-28.755,30.399-42.382,46.625c-19.649,23.395-35.644,46.229-49.949,73.385
			c-12.081,22.924-21.639,47.397-31.655,71.653c-9.146,22.144-18.988,45.385-26.018,67.956
			c-7.739,24.852-14.108,51.001-19.93,76.309c-4.146,18.045-6.157,36.861-8.862,54.908c-1.291,8.605-2.298,17.975-3.188,26.813
			c-1.104,10.993-2.633,23.334-5.171,33.999c-5.32,22.354-7.521,47.795-7.498,71c0.034,35.149-4.666,70.213-4.666,105.334
			c0,31.467-4.661,62.749-4.665,94.317c-0.005,36.951-1.682,74.176-7.316,110.025c-2.515,15.979-4.647,34.354-11.152,49.32
			c-3.149,7.246-7.463,15.479-12.698,21.51c-5.037,5.799-13.226,9.021-17.612,14.371c-4.082,1.285-7.9,2.86-11.953,4.065
			c-36.504,10.856-64.381-39.479-75.494-67.006c-7.188-17.794-11.233-35.745-17.783-53.601c-6.572-17.916-13.134-36.375-18.6-54.615
			c-7.643-25.508-15.019-52.356-18.868-78.731c-0.97-6.622-2.457-13.259-3.188-19.997c-4.947-45.634-11.988-90.484-11.993-136.621
			c0-30.992-1.038-63.385,3.811-94.064c2.077-13.16,1.729-25.277,5.003-38.5c3.648-14.754,7.011-30.645,8.519-46.146
			c0.73-7.51,0.912-15.382,2.003-22.999c4.896-34.149,10.273-67.699,22.147-100.336c14.589-40.103,29.446-79.108,49.186-117.003
			c13.048-25.047,27.164-49.695,36.493-75.816c13.36-37.408,22.354-76.309,28.229-115.563c4.646-31.049,0.544-63.46,0.61-94.673
			c0.036-16.481,1.058-32.886,0.109-49.319c-2.354-40.84-6.073-81.387-8.107-122.277c-1.35-27.136-3.178-55.625-8.03-82.319
			c-5.019-27.597-12.756-54.265-20.456-81.199c-2.334-8.167-3.898-16.611-5.646-25.165c-6.036-29.574-13.373-60.133,5.974-87.486
			c29.05-41.074,78.737-64.365,123.703-83.335c21.551-9.091,43.646-16.532,66.412-21.92c27.679-6.547,53.686-18.085,79.768-29.192
			c21.887-9.32,42.048-23.584,60.734-37.99c13.876-10.698,27.854-21.135,41.874-31.73c11.245-8.499,22.122-16.124,33.034-24.852
			c14.354-11.479,30.235-21.74,43.286-34.786c15.574-15.57,31.519-30.197,46.678-46.031c9.238-9.646,16.091-20.979,24.82-31.146
			c9.119-10.618,18.961-20.078,27.862-30.856c12.382-14.989,24.392-29.797,36.482-44.93c11.563-14.463,26.975-28.907,33.646-46.508
			c7.104-18.736,10.543-39.593,14.543-59.22c9.472-46.459,1.832-94.016-8.532-139.494c-3.131-13.74-12.204-28.167-19.338-40.54
			c-7.283-12.629-15.889-24.686-24.478-36.665c-12.51-17.457-27.346-38.467-43.707-52.491c-6.445-5.524-10.039-12.519-16.302-18.168
			c-16.521-14.912-32.635-30.664-49.668-44.981c-8.33-7.002-17.724-12.24-25.66-19.646c-11.172-10.422-27.736-21.221-33.397-36.022
			c-9.021-23.584,18.229-41.983,38.408-44.621c9.963-1.301,23.105-1.614,32.562,2.118c17.325,6.847,34.379,12.8,52.075,18.486
			c27.826,8.947,55.726,19.301,84.203,26.476c26.715,6.729,52.99,14.041,79.352,22.054c18.146,5.515,36.762,9.587,55.146,14.239
			c12.311,3.114,24.055,7.246,36.25,10.648c10.568,2.95,22.188,6.831,33.063,8.604c29.854,4.86,59.668,13.893,89.985,15.35
			c11.388,0.547,21.814,0.918,33.012,3.184c9.577,1.938,16.557,6.834,25.633,10.319c8.008,3.074,17.072,2.476,25.405,3.243
			c9.933,0.917,19.634,3.43,29.636,3.907c14.333,0.688,28.524,2.903,42.777,4.444c13.502,1.459,27.456-0.183,40.693,1.748
			c13.09,1.908,26.25,4.521,39.521,5.138c26.95,1.259,53.936,1.646,80.912,1.4c13.201-0.121,26.667,0.146,39.763-1.148
			c14.437-1.429,29.501-0.713,44.024-1.436c20.106-0.996,40.361-2.188,60.49-1.146c6.221,0.317,12.641-0.021,19.002-0.334
			c25.825-1.265,52.146-2.783,77.975-5.349c12.123-1.202,24.423-1.896,36.275-4.887c10.383-2.613,19.897-7.212,30.562-9.044
			c28.565-4.909,56.013-12.923,84.521-18.095c15.467-2.807,30.76-5.96,46.088-9.24c19.092-4.084,38.268-11.422,57.063-16.877
			c36.25-10.518,71.669-20.865,109.313-22.656c6.973-0.332,13.604-1.83,20.4-2.854c22.979-3.46,44.963-11.613,66.719-19.485
			c20.202-7.31,41.546-13.146,62.229-19.678c14.428-4.558,29.42-10.616,43.852-16.669c7.104-2.979,12.919-8.495,19.946-11.443
			c5.523-2.315,11.198-3.21,16.784-5.826c13.639-6.395,27.455-13.189,39.232-22.696c10.081-8.138,21.009-14.416,31.369-22.536
			c9.292-7.282,18.361-14.507,27.478-21.665c13.355-10.49,28.577-18.182,42.834-27.315c12.188-7.813,22.806-16.959,35.17-24.52
			c9.393-5.742,19.349-11.593,29.402-16.039c9.169-4.054,17.399-10.352,26.755-14.284c8.707-3.659,17.629-6.84,26.781-10.182
			c18.886-6.896,36.742-11.754,56.687-12.709c22.021-1.055,52.114,4.55,65.813,24.208
			C3295.066,2586.591,3290.845,2604.313,3286.472,2618.307z" color="15389056" style="fill:#ead180;fill-opacity:1;stroke-width:10;stroke:rgb(0,0,0)"></path><path id="157959785" parent_id="157959781" order="1" structure_id="146034884" d="
			M3716.487,4195.314c-0.528-5.418-1.791-10.56-2.825-15.986c-1.991-10.459-4.119-20.91-7.577-30.986
			c-8.071-23.521-19.288-44.75-30.085-67.012c-3.037-6.263-6.84-12.082-10.766-17.812c-13.11-19.138-30.573-35.063-51.775-44.735
			c-23.098-10.539-46.874-20.79-72.729-20.782c-12.373,0.004-23.361,1.443-35.063,5.302c-3.797,1.25-7.816,2.364-11.796,3.521
			c-3.688,1.072-7.483,2.508-11.058,3.846c-7.803,2.924-16.01,6.278-23.315,10.25c-7.122,3.87-14.632,7.387-22,10.953
			c-23.015,11.145-44.621,24.66-66.675,37.479c-7.991,4.646-15.58,9.768-23.748,14.073c-3.877,2.045-7.508,4.188-11.354,6.337
			c-7.097,3.971-14.616,7.242-21.146,12.24c-4.301,3.291-9.096,5.701-13.021,9.423c-3.864,3.666-7.17,7.987-11.733,10.854
			c-21.408,13.426-47.354,18.982-70.99,27.14c-14.854,5.124-29.253,11.483-43.926,16.667c-14.139,4.995-29.59,7.191-44.231,10.342
			c-9.738,2.096-19.697,2.998-29.412,5.227c-16.017,3.672-32.033,7.563-48.392,9.399c-16.146,1.817-33.479,3.131-48.826,5.759
			c-14.327,2.453-28.752,3.814-43.213,5.191c-18.667,1.775-37.129,4.184-55.747,5.982c-14.054,1.357-27.783,0.42-41.754,0.676
			c-6.763,0.124-13.664-1.206-20.419-1.73c-15.153-1.188-30.102-1.949-45.412-2.27c-27.92-0.577-55.821-1.564-83.665-3.324
			c-34.221-2.159-68.667-2.77-103-4.357c-12.635-0.588-25.807-1.65-38.333-3.551c-10.146-1.539-20.385-2.729-30.727-3.781
			c-22.916-2.333-46.194-0.18-68.771,2.188c-24.13,2.53-48.825,6.643-73.088,9.183c-28.741,3.009-57.944,2.381-86.463,6.399
			c-13.339,1.883-26.551,2.463-39.78,5.5c-6.396,1.473-12.563,3.729-18.832,5.662c-6.401,1.979-12.918,2.444-19.325,4.017
			c-13.509,3.31-26.927,5.508-40.793,7.206c-8.104,0.992-16.209,2.02-24.236,3.525c-26.786,5.047-53.295,12.424-79.721,19.086
			c-7.754,1.955-15.438,4.188-23.104,6.443c-25.624,7.546-51.479,15.316-76.999,22.729c-27.614,8.021-51.683,21.602-76.159,36.082
			c-3.175,1.881-5.916,4.313-9.066,6.313c-4.465,2.828-9.447,4.951-13.85,7.991c-10.687,7.384-21.479,13.8-31.976,21.52
			c-11.639,8.56-23.129,17.316-34.485,26.246c-10.536,8.283-20.661,17.25-31.104,25.769c-10.947,8.927-21.359,18.129-31.999,27.408
			c-4.671,4.075-9.464,8.008-14.315,11.866c-3.832,3.049-6.979,6.762-10.827,9.841c-4.168,3.339-8.613,6.345-12.512,10.017
			c-7.62,7.183-15.999,13.396-24.381,19.566c-8.683,6.395-17.063,12.673-25.251,19.764c-9.337,8.084-18.627,16.229-28.329,23.877
			c-60.264,47.492-122.706,91.696-171.925,151.192c-16.015,19.356-33.892,36.771-45.729,59.207
			c-25.459,48.246-34.433,100.88-31.755,155.274c0.779,15.83-1.08,34.942-2.58,51.063c-1.345,14.44-3.59,29.177-6.689,42.646
			c-5.364,23.289-12.063,47.088-18.253,70.248c-3.571,13.354-7.207,26.141-12.974,39.527l-1.779,5.91
			c-8.021,27.695-22.313,49.902-37.241,74.145c-5.636,9.147-12.963,19.228-18.479,28.445c-2.968,4.965-4.354,9.427-6.771,14.919
			c-2.226,5.058-3.512,9.356-4.479,9.081c-0.022-0.007-0.048-0.016-0.07-0.021l-107.101,740.148
			c4.952-1.098,9.889-2.331,14.899-3.139c11.047-1.775,22.42-3.717,32.841-7.484c4.996-1.809,10.406-2.866,15.476-4.378
			c5.048-1.504,9.728-3.726,14.688-5.463c6.069-2.125,11.951-4.589,18.006-6.75c10.648-3.802,21.178-7.929,31.799-11.812
			c22.547-8.24,44.384-17.492,67.361-24.74c13.584-4.283,26.701-10.658,39.826-16.267c6.203-2.647,12.313-5.881,17.631-9.972
			c5.063-3.896,10.771-6.33,16.229-9.604c6.656-3.996,12.938-9.246,19.644-12.994c12.682-7.088,25.455-14.729,38.146-21.199
			c7.345-3.746,14.266-8.854,21.24-13.32c5.297-3.396,10.571-6.313,16.129-9c13.248-6.404,25.655-13.873,39.399-19.76
			c3.979-1.705,7.813-3.688,11.646-5.578c4.313-2.127,8.562-3.901,12.979-5.558c4.524-1.69,8.259-5.106,12.462-7.408
			c6.257-3.424,12.629-7.013,19.01-10.376c12.174-6.418,25.687-11.266,38.339-16.5c12.995-5.379,23.854-18.282,34.322-27.346
			c6.5-5.629,12.584-11.518,18.84-17.354c13.096-12.222,26.595-24.118,39.893-36.165c7.215-6.534,13.943-13.773,21.354-20.064
			c6.437-5.467,12.592-11.135,20.067-15.174c7.412-4.006,13.691-10.004,20.853-14.523c10.104-6.384,19.642-12.287,30.333-17.706
			c7.518-3.812,14.503-8.587,22.001-12.403c5.537-2.816,11.877-5.441,16.801-9.248c5.01-3.873,10.325-7.563,15.434-11.09
			c10.502-7.248,20.194-15.334,29.357-24.022c8.839-8.382,18.746-15.354,27.841-23.425c9.604-8.521,18.899-17.391,28.813-25.552
			c14.038-11.56,29.782-20.524,43.761-32.089c5.269-4.355,9.944-8.977,14.991-13.628c12.194-11.248,24.459-21.854,37.5-32.039
			c9.181-7.17,17.563-15.759,25.981-23.729c10.945-10.363,22.569-20.056,32.938-31.019c12.644-13.372,26.901-25.175,40.25-37.931
			c8.938-8.541,18.17-16,26.028-25.654c7.652-9.4,14.646-19.381,23.134-28.077c7.33-7.51,14.659-15.642,21.229-23.788
			c6.073-7.534,13.677-14.264,20.113-21.541c6.824-7.716,11.23-17.371,19.337-23.834c8.325-6.643,13.876-15.873,20.321-24.248
			c6.889-8.952,14.457-17.641,20.998-26.514c4.736-6.431,9.713-12.68,14.729-18.895c5.675-7.032,11.321-14.086,16.854-21.229
			c9.472-12.229,17.636-25.201,25.764-38.379c7.835-12.701,14.896-26.279,23-38.666c4.736-7.235,8.154-15.101,11.897-22.979
			c3.416-7.192,8.222-13.415,10.757-21.019c1.303-3.908,3.075-7.729,4.812-11.479c3.302-7.14,6.363-13.81,10.451-20.61
			c4.688-7.806,10.696-14.787,17.641-20.668c5.782-4.896,11.287-9.797,18.093-13.334c8.479-4.41,16.584-7.67,25.678-10.653
			c7.896-2.591,16.129-4.235,24.166-6.585c13.687-3.997,27.683-8.703,41.839-10.836c20.633-3.107,40.188-11.241,60.743-14.573
			c9.565-1.551,18.726-3.202,28.123-5.556c6.207-1.555,11.137-2.039,17.574-2.039c19.973-0.002,39.098-2.34,58.469-6.664
			c8.104-1.812,16.598-2.146,24.802-3.48c8.467-1.38,16.896-2.998,25.391-4.216c16.655-2.39,33.379-5.063,49.836-8.974
			c26.418-6.271,53.391-9.138,80.478-11.33c12.862-1.041,25.162-2.353,37.928-4.351c8.535-1.337,16.957-2.332,25.39-4.249
			c16.657-3.785,32.187-11.164,48.616-15.325c10.503-2.659,20.104-5.369,29.979-9.813c10.377-4.672,20.985-8.812,31.348-13.521
			c12.771-5.812,25.888-11.082,38.865-16.368c11.521-4.689,22.896-8.938,34.207-14.132c6.655-3.056,13.832-4.987,20.435-8.115
			c10.985-5.204,22.239-10.235,33.735-14.462c11.313-4.158,22.021-10.738,33.074-15.666c5.688-2.536,10.377-5.807,15.678-8.73
			c10.718-5.916,21.703-12.566,31.603-19.69c10.598-7.63,20.861-15.644,31.229-23.563c5.93-4.533,12.063-8.723,18.014-13.016
			c5.358-3.868,10.387-7.759,15.52-11.921c7.016-5.688,15.521-10.972,21.635-17.403c4.285-4.516,9.355-8.763,14.35-12.502
			c3.771-2.824,7.439-5.765,10.938-9c7.398-6.855,15.354-12.84,23.596-18.668c14.959-10.574,30.09-21.584,43.295-34.319
			c7.955-7.674,15.729-15.627,24.768-22.062c6.979-4.972,12.348-11.393,18.574-17.283c6.16-5.828,13.01-10.867,19.252-16.658
			c6.859-6.365,14.252-11.851,21.061-18.34c4.229-4.035,8.568-7.717,12.436-12.041c3.759-4.205,8.6-7.03,12.186-11.463
			c2.561-3.166,5.172-6.482,7.905-9.668c7.263-8.449,12.634-18.783,19.172-27.813c7.519-10.381,15.325-20.552,22.586-31.117
			c5.302-7.716,10.132-15.81,14.673-24.067c4.392-7.99,9.823-15.396,14.229-23.354c3.701-6.69,6.51-13.021,9.016-20.313
			c3.09-8.992,7.094-18.289,8.928-27.416c1.91-9.504,3.369-19.096,4.584-28.709c1.074-8.521,2.937-17.479,3.152-26.056
			C3714.188,4222.857,3717.857,4209.385,3716.487,4195.314z" color="15650616" style="fill:#eecf38;fill-opacity:1;stroke-width:10;stroke:rgb(0,0,0)"></path><path id="157959783" parent_id="157959781" order="2" structure_id="12116" d="
			M2565.175,3661.326c0.179-4.17,0.909-8.262,2.568-11.753c3.12-6.569,9.389-11.045,15.01-15.337
			c13.089-9.992,28.565-16.156,41.792-25.979c10.326-7.666,20.784-15.146,31.081-22.86c24.905-18.655,49.325-38.289,72.009-59.608
			c10.198-9.586,20.426-19.697,28.365-31.287c13.182-14.864,25.862-30.334,37.812-46.209c23.67-31.454,45.323-63.217,64.766-97.487
			c8.414-14.837,14.729-30.58,18.729-47.16c1.986-8.236,2.846-16.82,5.268-24.938c5.26-17.624,15.918-33.62,27.955-47.312
			c8.068-9.176,16.996-17.532,26.471-25.23c-0.313-0.636-0.104-1.42-0.104-2.127c0-1.384-0.128-2.775-0.128-4.166
			c0-1.289-0.009-2.578-0.021-3.868c-0.066-5.655-0.264-11.325-0.395-16.991c-0.047-2.061-0.104-4.115-0.174-6.177
			c-0.271-7.616,0.271-15.237-0.104-22.836c-0.47-9.625-1.323-19.36-2.646-28.915c-2.218-15.939-2.784-32.863-3.577-49.082
			c-0.86-17.582-0.486-35.173-1.336-52.99c-0.786-16.479-0.116-32.65,0.667-49.004c0.348-7.266,2.478-14.045,5.568-20.761
			c2.839-6.155,7.724-13.854,12.922-18.088c0.728-0.589,0.716-0.583-0.011,0.011c-1.193,0.971-2.419,1.914-3.635,2.867
			c-11.396,8.981-24.14,16.787-36.848,23.796c-18.965,10.459-36.592,21.162-56.503,29.675c-9.55,4.084-18.496,8.646-28.55,11.775
			c-14.438,4.498-28.898,8.382-43.173,12.868c-11.73,3.688-23.861,7.502-35.604,10.561l-2.268,0.593
			c-11.021,2.879-21.437,5.598-32.2,7.354c-11.271,1.838-19.962,3.139-29.146,3.139c-6.051,0-11.861-0.592-17.772-1.809
			c-5.286-1.088-10.696-2.252-15.928-3.377c-18.021-3.877-36.648-7.885-55.31-9.963c-9.242-1.029-18.84-1.529-29.33-1.529
			c-23.94,0-47.469,3.063-71.168,5.546c-16.521,1.729-33.121,2.75-49.559,5.206c-16.369,2.445-31.086,6.063-47.691,6.745
			c-60.801,2.507-120.988,10.548-181.568,13.394c-8.414,0.396-17.103,1.396-25.5,2.36c-3.938,0.454-8.012,0.923-11.938,1.313
			l-3.795,0.377c-27.635,2.74-56.21,5.576-83.84,12.613c-33.07,8.426-67.269,17.137-99.123,31.012
			c-13.601,5.923-28.192,12.365-42.762,19.351c-34.836,16.699-64.214,39.606-89.813,70.034c-5.396,6.41-11.128,12.624-16.674,18.633
			c-4.279,4.637-8.704,9.432-12.983,14.326c-6.863,7.852-13.352,16.404-19.622,24.676c-2.805,3.696-5.7,7.521-8.591,11.226
			c-14.579,18.684-29.35,40.442-45.149,66.528c-13.296,21.945-24.231,45.435-31.623,67.92c-2.216,6.738-4.021,13.24-5.771,19.527
			c-1.348,4.854-2.74,9.871-4.287,14.848c-9.401,30.281-12.862,61.375-14.106,82.127c-0.563,9.388-0.667,18.951-0.769,28.201
			c-0.087,8.008-0.176,16.288-0.562,24.499c-0.413,8.804-1.063,17.896-1.696,26.688c-0.608,8.489-1.238,17.271-1.64,25.641
			c-0.197,4.129-0.088,8.349,0.019,12.431c0.232,8.912,0.746,18.771-2.291,27.257c-1.586,4.437-3.771,8.762-6.394,12.825
			c-0.406,0.629-0.832,1.241-1.271,1.851c-0.02,0.027-0.041,0.054-0.061,0.081c-0.431,0.592-0.876,1.168-1.338,1.732
			c0.043,0.034,0.086,0.063,0.129,0.104c4.127,3.848,7.733,8.465,12.563,11.342c2.729,1.627,5.536,3.133,8.36,4.586
			c6.396,3.293,12.967,6.246,19.62,8.979c16.486,6.771,33.5,12.228,50.66,17.014c21.267,5.935,42.854,10.726,64.551,14.787
			c25.358,4.751,50.913,8.511,76.55,11.408c28.911,3.269,57.923,5.573,86.985,6.957c31.957,1.521,63.959,1.938,95.944,1.396
			c34.396-0.586,68.775-2.351,103.056-5.25c36.424-3.084,72.72-7.469,108.841-13.063c37.771-5.854,75.332-13.17,112.548-21.896
			c38.668-9.062,76.97-19.68,114.771-31.86c9.162-2.955,18.295-5.996,27.396-9.14c1.2-0.414,2.315-0.397,3.375-0.106
			c0-0.002-0.002-0.002-0.002-0.002C2565.178,3661.327,2565.176,3661.326,2565.175,3661.326z" color="13939253" style="fill:#d4b235;fill-opacity:1;stroke-width:10;stroke:rgb(0,0,0)"></path></g></g></svg>
