<svg id="the_svg_wrapper" class="svg_wrapper" width="100%" height="100%" version="1.1" xmlns="http://www.w3.org/2000/svg"><g id="master_group" transform="translate(0,0) scale(0.02734375)" width="59136" height="75776" image_id="111257617" image_url="/external/devhuman/prod14/3760000572/3760000572.aff"><g id="157964400" order="0" group_label_id="113753815" group_label="Atlas - Developing Human Gyri" sub_image_id="111257617"><clippath><path id="zap_container_graphics_clip" d="M 0 0 L 1498 0 L 1498 498 L 0 498 L 0 0" style="fill:#000000;fill-opacity:1;stroke-width:10;stroke:rgb(0,0,0)"></path></clippath><path id="157964410" parent_id="157964400" order="0" structure_id="12178" d="M4285.09,7294.95
			c15.13-42.3,26.62-86.2,28.26-131.3c1.94-52.98,0.131-105.99,5.2-158.83c5.24-54.69,14.771-109.2,12.94-164.33
			c-3.141-94.62-34.311-195.3-62.05-285.48c-7.511-24.399-14.99-49.74-12.5-75.56c2.26-23.48,11.63-43.9,9.229-67.99
			c-1.29-12.93-6.77-36.38,6.29-46.04c2.282-1.689,4.317-3.006,6.141-4.005l-219.345-269.323c-0.052,0.126-0.103,0.252-0.155,0.378
			c-29.46,71.13-60.73,141.54-87.97,213.59c-15.7,41.53-30.1,83.58-42.02,126.36c-12.47,44.8-22.99,90.13-31.21,135.91
			c-22.69,126.26-20.14,255.13-32.93,382.43c-3.89,38.641-9.32,77.141-17.54,115.11c-24.735,114.107-81.44,216.9-109.357,329.329
			l519.621-7.424C4255.973,7356.701,4275.761,7321.032,4285.09,7294.95z" color="13721926" style="fill:#d16146;fill-opacity:1;stroke-width:10;stroke:rgb(0,0,0)"></path><path id="157964408" parent_id="157964400" order="1" structure_id="12157" d="M1952.45,4075.12
			c-18.63,2.07-33.36,10.67-50.52,18.28c-20.07,8.9-34.98,2.88-55.53,3.1c-13.86,0.16-26.76,7.04-40.47,8.36
			c-12.78,1.22-26.16-3.66-38.5-6.98c-17.8-4.8-29.71-14.43-46.32-21.69c-15.46-6.75-38.2-6.13-54.34-8.77
			c-9.91-1.63-17.36-2.84-27.07-6.77c-11.07-4.48-21.26-8.71-32.44-12.63c-99.76-34.96-202.59-80.6-296.71-128.74
			c-49.24-25.17-95.88-56.9-147.63-76.91c-27.97-10.82-57.59-17.1-86.93-22.94c-81.2-16.17-160.86-39.02-241.09-59.28
			c-25.08-6.34-50.18-12.62-75.34-18.65c-21.63-5.18-38.05-23.67-60.44-26.38c-16.54-2-36.59,4.06-53.08,5.7
			c-17.8,1.78-36.59,1.91-54.15,4.52c-17.97,2.67-36.53,5.75-55.28,7.83c-9.07,1.01-18.69,2.58-27.1,5.74
			c-31.76,11.92-53.37,27.53-70.8,57.49c-22.02,37.87-28.71,81.55-32.07,124.58c-13.34,170.39,29.75,339.14,61.15,505.19
			c14.29,75.55,32.05,151.48,39.17,228.11c7.1,76.52-7.41,152.38-9.63,228.72c-2.05,70.8,18.03,141.3,7.75,211.98
			c-2.25,15.45-8.38,30.89-12.22,46.2c-4.3,17.15-6.14,34.58-9.22,51.89c-7.97,44.89-4.29,92.29,9.91,135.58
			c13.44,40.98,34.92,86.4,80.23,95.94c51.3,10.8,104.03,8,155.77,2.36c170.42-18.55,347.95-31.93,511.26-86.96
			c21.91-7.38,43.16-17.48,66.09-21.46c8.06-1.4,48.48-5.07,39.02,11.86c29.21-1.49,57.74-13.24,84.63-23.59
			c30.87-11.89,62.69-22.11,92.16-37.27c41.15-21.17,17.07-75.34,1.17-103.35c-22.98-40.49-57.68-73.02-96.56-98.23
			c-61.98-40.19-139.49-42.84-211.12-39.27c-34.26,1.71-67.39,10.56-101.38,14.21c-33.88,3.64-74.8,4.48-105.49-12.52
			c-38.27-21.19-41.53-67.82-44.5-106.94c-3.28-43.3,0.89-86.73-0.5-130.06c-2.04-63.93-14.27-128.01-23.43-191.22
			c-13.65-94.18-41.01-185.27-57.15-278.94c-5.43-31.48-22.49-92,11.42-113.86c18.2-11.73,49.25-1.11,67.83,5.18
			c80.51,27.26,148.8,91.5,222.89,132.3c54.59,30.06,109.98,58.85,166,86.16c78.26,38.15,159,72.47,244.11,92.07
			c116.98,26.94,246.52,44.84,364.95,17.16c129.09-30.18,226.93-100.81,300.04-211.07c19.061-28.742,37.419-59.126,52.394-90.766
			l-321.028-181.916C1997.18,4077.815,1964.485,4073.792,1952.45,4075.12z" color="14837888" style="fill:#e26880;fill-opacity:1;stroke-width:10;stroke:rgb(0,0,0)"></path><path id="157964409" parent_id="157964400" order="2" structure_id="12157" d="
			M1071.45,9329.68c27.96-80.89,58.7-161.75,107.23-232.859c23.43-34.32,49.91-66.49,79.19-95.98
			c70.34-70.859,153.41-135.34,195.86-228.34c42.53-93.17,78.21-219.56,29.58-317.55c-54.69-110.22-186.02-156.28-300.02-174.021
			c-79.04-12.29-159.43-10.29-238.67-20.71c-29.1-3.83-63.9-7.22-85.15-29.87c-45.73-48.72,9.97-95.409,50.7-118.34
			c47.7-26.84,101.91-43.79,144.51-79.18c42.36-35.18,66.44-87.64,74.53-141.44c4.42-29.43,5.21-62.529,0.17-91.979
			c-6.45-37.67-23.87-71.95-46.73-102.28c-45.52-60.399-108.74-109.32-177.1-141.18c-41.06-19.141-85.12-34.19-128.83-46.04
			c-51.36-13.91-105.66-24.351-155.56-42.87c-46.54-17.26-92.01-37.31-139.01-53.34c-27.46-9.37-92.22-33.15-107.78,4.97
			c0.02,0.01,0.04,0.01,0.06,0.021c19.45,7.09,20.91,58.079,23.93,74.479c6.48,35.271,13.02,70.55,20.81,105.57
			c7.94,35.689,13.38,85.2,40.67,112.38c7.18,7.16,15.26,15.45,24.62,19.46c26.6,11.38,74.48,4.12,102.61,2.99
			c37.33-1.511,74.85-4.25,112,1.239c5.38,0.801,10.83,1.171,16.24,1.761c10.51,1.14,21.01,2.439,31.46,4.09
			c3.56,0.56,7.11,1.28,10.68,1.979c6.08,1.2,12.17,2.391,18.31,2.78c13.56,0.85,27.06,2.65,40.35,5.51l1.46,0.32
			c9.67,2.08,19.35,4.21,28.75,7.33c3.99,1.32,8.14,3.229,12.14,4.93c4.17,1.78,8.66,2.74,12.78,4.5c2.97,1.26,5.99,2.24,9.01,3.561
			c6.07,2.66,11.94,5.84,14.06,12.68c1.19,3.84-0.36,8.57-5.06,8.25c-4.72-0.32-8.87-4.54-12.07-7.69
			c-3.69-3.64-6.29-8.239-10.01-11.859c-3.77-3.65-9.11-5.49-13.88-7.51c-11.68-4.94-24.2-7.62-36.56-10.28l-1.47-0.32
			c-11.72-2.52-23.65-4.25-35.61-5.14c-13.53-1.01-27.03,0.87-40.5,1.87c-11.96,0.89-23.6,0-35.52-0.7
			c-10.4-0.61-20.6-1.03-30.95-2.38c-10.69-1.391-21.63-2.58-32.27-0.141c-17.06,3.9-33.49,14.12-49.89,17.801
			c-18.9,4.25-37.31,1.02-56.16-1.98c-16.32-2.6-31.93-9.229-48.75-7.93c-26.25,2.02-40.54,33.55-54.35,52.22
			c-16.7,22.58-34.78,44.81-42.17,72.34c-16.94,63.15-25.32,128.601-27.4,193.891c-0.93,29.27-2.48,59.54,5.37,88.069
			c8.28,30.07,31.54,52.95,48.31,78.431c18.78,28.54,34.19,59.21,47.12,90.79c34.66,84.649,42.74,170.93,59.4,259.84
			c8.27,44.13,19.59,103,57.59,132.109c37.79,28.94,84.6,14.32,126.2,3.23c80.47-21.46,157.2-53.93,233.87-85.97
			c58.86-24.591,122.18-34.391,183.71-49.86c13.89-3.49,41.31-10.55,55.28-3.38c18.89,9.7,5.39,29.45-5.58,39.51
			c-35.08,32.17-100.85,33.67-145.35,43.14c-61.21,13.021-122.17,27.25-182.69,43.16c-61.52,16.181-149.57,22.771-196.59,69.05
			c-56.63,55.75-38.69,171.971-38.43,243.23c0.35,94.62,0.73,192.27,15.59,285.94c1.541,9.709,2.079,19.387,1.79,29.024
			l422.092,52.311C1056.748,9372.108,1064.116,9350.9,1071.45,9329.68z" color="14837888" style="fill:#e26880;fill-opacity:1;stroke-width:10;stroke:rgb(0,0,0)"></path><path id="157964405" parent_id="157964400" order="3" structure_id="12125" d="M6098.44,8288.75
			c-8.801-12.96-24.74-19.81-37.261-27.93c-30.02-19.48-32.609-54.49-56.1-79.53c-21.29-22.7-37.17-53.88-66.57-66.57
			c-35.27-15.22-69.91-32.069-101.8-53.87c-51.56-35.239-108.26-81.93-148.41-129.699c-32.229-38.351-62.01-78.721-94.43-116.94
			c-96.7-113.99-218.44-178.5-369.67-182.57c-30.58-0.819-64.04-8.62-92.66-19.79c-82.42-32.189-166.21-61.71-251.84-84.17
			c-35.78-9.39-71.34-21.72-108.07-26.58c-51.42-6.81-102.26-19.59-153.96-23.93c-54.229-4.56-108.77,2.59-162.96-2.96
			c-17.66-1.81-37.6-4.28-55.03,0.28c-12.689,3.319-26.52,13.09-38.75,3.7c-10.37-7.96-15.87-17.601-28.62-24.091
			c-23.35-11.869-53.04-17.399-67.42-41.63c-4.55-7.665-6.715-15.999-7.196-24.694l-519.621,7.424
			c-6.54,26.339-11.504,53.205-14.103,80.871c-3.8,40.42-2.51,81.63,5.63,121.46c20.95,102.62,83.99,192.21,166.31,255.81
			c67.87,52.43,151.16,78.521,233.94,96.34c125.65,27.03,254.73,44.521,383.48,39.601c74.479-2.84,146.41-21.561,219.91-31.971
			c140.16-19.85,287.18,12.11,417.229,64.381c67.49,27.119,126.05,72.06,180.82,119.09c44.45,38.17,93.57,81.89,113.4,138.76
			c11.3,32.41,15.54,80.36-34.171,68.46c-64.579-15.47-118.88-55.58-176.789-86.03c-59.44-31.25-123.25-59.42-187.41-79.29
			c-38.221-11.83-77.73-19.899-117.79-21.399c-32.69-1.221-65.811,1.88-97.891,8.08c-26.781,5.181-53.786,13.104-79.538,22.975
			l143.798,216.007c0.06-0.061,0.104-0.123,0.171-0.182c3.54-3.11,8.399,10.68,9.55,12.76c4.439,8.07,9.149,15.98,14.04,23.78
			c9.59,15.3,19.84,30.18,30.08,45.04c14.83,21.51,30.16,43.75,43.12,66.93c13.659,24.45,27.25,51.3,44.06,87.061l2.61,5.539
			c10.33,22,21.54,43.58,33.359,64.86c2.591,4.65,5.2,9.28,7.841,13.9c6.01,10.529,11.739,21.66,19.189,31.26
			c51.82,66.82,142.46,75.59,221.23,76.82c88.52,1.38,178.81-19.931,261.59-49.851c55.2-19.95,109.29-43.97,161.91-69.91
			c40.88-20.159,81.449-41.42,120.58-64.8c70.949-42.38,140.039-92.95,191.029-158.76
			C6095.1,8441.38,6142.04,8352.94,6098.44,8288.75z" color="11243864" style="fill:#ab9158;fill-opacity:1;stroke-width:10;stroke:rgb(0,0,0)"></path><path id="157964406" parent_id="157964400" order="4" structure_id="12124" d="M5085.12,8768.66
			c-1.99-7.93-5.09-15.61-8.21-23.16c-5.07-12.24-9.19-24.85-14.45-37.01c-5.24-12.141-11.58-23.82-17.28-35.75
			c-3.449-7.24-6.859-14.51-10.27-21.771l-2.61-5.54c-16.77-35.67-30.319-62.439-43.939-86.8
			c-12.86-23.03-28.141-45.189-42.91-66.62c-9.771-14.17-19.54-28.35-28.74-42.91c-4.64-7.319-9.13-14.75-13.39-22.3
			c-1.95-3.439-3.73-7.02-5.931-10.29c-1.288-1.913-4.902-5.719-2.49-8.168l-143.798-216.007c-6.009,2.303-11.949,4.71-17.802,7.215
			c-35.87,15.34-70.819,34.75-101.38,59.12c-72.71,57.99-76.02,142.95-72.5,229.04c1.23,30.18-1.75,68.42-19.939,93.6
			c-24.87,34.421-75.44,28.29-111.431,17.96c-128.62-36.939-262.08-108.8-399.41-74.449c-63.62,15.92-138.31,43.93-180.26,96.87
			c-23.24,29.34-40.89,72.56-45.57,109.8c-8.64,68.819,4.25,145.01,20.88,211.91c10.65,42.83,20.5,88.58-3.61,128.92
			c-33.57,56.189-105.45,85.42-168.92,84.42c-90.68-1.45-131.05-69.73-161.63-145.351c-20.82-51.47-35.12-105.18-48.42-158.989
			c-23.95-96.891-48.15-195.58-96.78-283.591c-24.05-43.52-52.62-84.81-85.86-121.84c-55.88-62.26-129.14-126.399-206.53-159.79
			c-83.417-35.99-175.88-35.804-260.894-8.348l127.434,306.195c1.049-0.256,2.123-0.486,3.241-0.667
			c35.63-5.771,76.81,32.939,89.88,63.319c13.41,31.19,9.06,72.931,17.03,106.33c9.91,41.57,24.35,82.11,30.16,124.601
			c21.19,155.069,27.12,312.05,19.32,468.34c-1.98,39.52-17.67,75.74-23.39,113.939c-2.85,19.061-0.87,39.271,3.08,57.54
			c20.6,95.24,111.44,119.551,192.95,149.801c112.83,41.88,227.6,52.619,346.96,40.529c71.37-7.22,143.15-14.29,212.87-31.89
			c93.02-23.49,181.69-65.72,269.9-102.72c126-52.841,251.44-111.021,362.33-191.761c62.101-45.21,114.58-101.529,173.23-150.819
			c26.69-22.44,60.67-36,90.22-53.53c30.681-18.2,61.09-36.85,91.16-56.04c36.73-23.43,72.93-47.79,107.34-74.54
			c34.75-27.02,67.76-56.54,96.67-89.8c14.32-16.46,27.601-33.84,39.471-52.16c11.97-18.46,21.26-37.79,30.72-57.53
			C5083.34,8823.53,5091.92,8795.77,5085.12,8768.66z" color="13285249" style="fill:#cab781;fill-opacity:1;stroke-width:10;stroke:rgb(0,0,0)"></path><path id="157964407" parent_id="157964400" order="5" structure_id="12122" d="M3046.52,9487.97
			c-1.74-15.52-4.8-34.899-18.96-44.84c-12.9-9.06-27.08-15.09-37.48-28.43c-48.95-62.79-47.94-164.96-52.14-240.47
			c-4.56-82.08-4.24-164.37-10.28-246.381c-5.85-79.39-26.05-155.43-35.45-234.1c-3.667-30.649-15.471-98.56,26.27-108.723
			l-127.434-306.195c-20.315,6.561-40.207,14.673-59.446,24.228c-26.68,13.24-53.11,29.95-76.2,48.82
			c-23.2,18.97-45.44,42.71-61.58,68.09c-43.05,67.681-56.85,141.21-69.06,219.2c-10.55,67.36-13.42,135.91-17.84,203.88
			c-3.13,48.101-5.41,96.44-1.27,144.55c7.81,90.721,30.28,179.181,35.7,270.45c3.46,58.311-3.65,115.101-36.09,164.931
			c-24.84,38.149-56.31,69.14-91.25,97.909c-37.82,31.15-75.87,62.41-117.88,87.83c-53.03,32.08-109.91,57.44-161.63,91.74
			c-52.48,34.81-100.05,76.29-147.74,117.24c-34.26,29.41-68.7,58.7-105.45,85.01c-31.85,22.8-74.07,60.55-115.67,60.58
			c-27.83,0.01-21.43-35.8-12.26-54.29c52.21-105.2,130.8-193.51,200.94-286.69c19.6-26.029,38.53-52.55,55-80.689
			c36.87-63.021,67.61-129.62,92.1-198.38c28.85-80.971,49.73-168.681,30.37-254.29c-16.62-73.48-51.55-142.79-103.4-197.69
			c-34.419-36.446-76.082-53.848-119.491-57.482l-53.121,317.08c0.277,0.025,0.554,0.105,0.812,0.253
			c0.96,0.55,1.29,1.77,0.74,2.729c-34.42,60.021-79.76,129.46-117.79,185.97c-19.62,29.141-39.9,59.271-59.23,89.221
			c-28.12,43.56-57.79,87.13-86.48,129.26c-4.9,7.2-9.8,14.39-14.69,21.58c-6.52,9.58-13.07,19.16-19.62,28.75
			c-56.09,82.04-114.09,166.86-153.71,259.46c-20.51,47.939-34.37,98.41-46,149.14c-7.3,31.88-14.08,63.641-18.46,96.021
			c-6.89,51-13.76,104.21,0.07,154.64c3.62,13.17,8.34,26.41,14.15,38.78c13.24,28.18,33.43,52.78,59.89,69.46
			c85.62,53.95,235.01,25.2,322.74-10.29c41.91-16.95,72.7-50.63,112.86-68.3c13.8-6.08,32.54-5.71,47.5-8.32
			c79.57-13.9,167.61-45.75,228.35-100.61c98.18-88.67,222.16-123.649,343.08-170.76c49.08-19.12,97.59-39.72,145.3-62.05
			c144.44-67.63,325.96-151.06,414.42-290.56c15.55-24.521,21.17-45.61,22.7-74.601
			C3054.28,9555.35,3050.26,9521.49,3046.52,9487.97z" color="13285249" style="fill:#cab781;fill-opacity:1;stroke-width:10;stroke:rgb(0,0,0)"></path><path id="157964411" parent_id="157964400" order="6" structure_id="12121" d="M1736.71,8881.64
			c-26.04,16.41-52.56,34.67-75.79,54.92c-24.44,21.311-46.92,44.69-69.35,68.08c-51.95,54.17-97.46,114.08-138.7,176.7
			c-54.87,83.311-117.19,161.41-171.82,244.91c-68.33,104.44-125.88,215.33-186.43,324.32c-21.31,38.35-43,76.489-65.73,114.02
			c-30.27,49.98-62.85,128.72-116.82,157.65c-28.95,15.52-42.69-13.88-42.52-39.13c0.58-83.761,37.75-164.96,62.92-243.801
			c32.65-102.31,67.48-203.909,102.76-305.34c4.713-13.552,9.429-27.103,14.142-40.654l-422.092-52.311
			c-2.512,83.616-68.353,164.239-101.34,236.105c-21.09,45.96-43.57,91.77-60.1,139.63c-61.5,177.979-41.85,384.069-18.01,567.63
			c5.19,39.93,16.65,81.51,33.6,118.02c29.78,64.13,81.84,124.16,140.06,164.21c67.65,46.53,154.64,51.67,234.4,47.021
			c82.59-4.811,171.44-32.19,242.86-73.66c60.44-35.09,109.92-105.14,144.89-164.52c18.85-32,36.74-65.82,50.72-100.24
			c15.41-37.94,24.24-76.96,31.62-117.11c0.47-2.56,0.95-5.109,1.45-7.67c4.07-21.07,8.83-41.97,13.2-62.979
			c15.34-73.801,31.2-150.11,61.51-220.94c39.77-92.95,97.88-177.94,154.08-260.13c6.55-9.59,13.1-19.17,19.61-28.75
			c4.89-7.19,9.79-14.39,14.69-21.58c28.68-42.12,58.33-85.66,86.43-129.18c19.36-29.98,39.65-60.13,59.27-89.28
			c38-56.46,83.29-125.83,117.64-185.73c0.402-0.702,1.163-1.062,1.918-0.992l53.121-317.08
			C1850.165,8828.859,1788.231,8849.151,1736.71,8881.64z" color="12100205" style="fill:#b8a26d;fill-opacity:1;stroke-width:10;stroke:rgb(0,0,0)"></path><path id="157964404" parent_id="157964400" order="7" structure_id="12117" d="M8168.42,5065.38
			c-6.56-79.88-30.229-153.87-55.86-229.35c-30.511-89.81-57.76-181.9-86.1-272.47c-30.27-96.75-16.5-200.99-49.13-296.65
			c-34.7-101.69-75.73-190.31-131.44-282.1c-18.31-30.18-41.8-57.5-71.34-77.04c-40.27-26.62-87.52-40.72-135.24-44.63
			c-48.42-3.97-96.29-0.19-144.079,7.86c-42.891,7.21-84.301,11.78-124.641,29.06c-22.439,9.61-45.17,18.56-67.479,28.48
			c-30.91,13.74-61.38,28.46-91.5,43.86c-18.391,9.4-36.65,19.08-54.78,28.97c-64.9,35.41-129.18,75.1-191.33,113.48
			c-21.11,13.03-42.94,26.5-64.46,39.61c-29.57,18.01-59.97,38.11-92.94,61.45c-12.29,8.7-25.55,16.99-38.369,25.01
			c-12.601,7.88-24.801,15.53-35.921,24.79c-5.39,4.48-10.52,9.35-15.319,14.79c-8.061,9.14-10.95,19.75-16.84,29.85
			c-6.011,10.32-13.69,19.82-22.601,27.77c-26.189,23.36-58.77,24.01-91.55,17.77c-10.89-2.07-22.56-4.57-33.41-1.94
			c-1.62,0.4-3.22,0.9-4.8,1.54c-18.53,7.53-36.89,15.2-55.79,21.79c-35.25,12.28-71.23,22.33-107.43,31.41
			c-4.311,1.08-8.62,2.15-12.94,3.21c-35.46,8.69-68.72,19.7-102.8,32.43c-6.19,2.32-12.43,5.01-18.66,7.32
			c-0.729,0.27-1.45,0.52-2.18,0.78c-28.101,9.66-60.88,7.55-90.101,9.13c-32.6,1.76-65.26,1.38-97.87,0.14
			c-20.01-0.76-39.819-4.68-59.88-4.53c-18.8,0.14-36.22,0.68-53.409-7.99c-15.37-7.76-29.341-18.89-46.561-22.33
			c-21.41-4.27-43.99-0.38-65.479-1.37c-10.9-0.5-21.801-1.6-32.49-2.68c-5.619-0.572-13.685-0.682-20.073-2.957
			c-1.553-0.553-2.624-1.626-3.232-2.875l-406.359,43.229c10.045,16.037,21.062,31.597,32.805,46.592
			c20.45,26.11,43.24,50.72,66.94,73.9c28.08,27.47,57.89,53.22,88.1,78.31c80.07,66.47,168.74,122.79,263.08,166.74
			c34.23,15.95,69.43,29.88,105.53,40.99c105.76,32.53,216.54,39.34,326.569,36.5c73.221-1.89,147.03-1.85,219.36-14.87
			c90.04-16.21,178.87-44.67,267.82-66.28c111.37-27.05,221.359-66.07,319.729-125.56c64.37-38.93,123.811-85.2,184.521-129.45
			c41.56-30.3,83.399-61.2,129.97-83.48c30.09-14.4,73.53-33.23,107.521-22.84c8.02,2.45,16.199,8.08,22.97,12.97
			c54.14,39.14,32.51,148.3,31.899,204.15c-0.92,84.64,6.11,168.44,38.381,247.46c28.739,70.4,71.09,134.17,101.369,203.83
			c54.36,125.07,44.141,261.64,12.37,391.47c-16.41,67.05-47.529,129.09-74.46,192.271c-30.609,71.83-68.95,140.64-104.3,210.22
			c-25.14,49.479-56.76,97.06-73.41,150.38c-10.16,32.56-9.8,62.6-9.8,96.25c0,135.66,16.78,285.67-82.25,395.5
			c-49.2,54.56-117.27,83.99-185.7,106.64c-83.25,27.57-165.93,55.891-243.899,96.5c-38.891,20.261-80.641,41.48-104.07,80.301
			c-62.39,103.369-33.62,232.689-4.88,341.81c7.14,27.12,22.58,70.03-10.7,86.12c-17.22,8.32-36.92,2.32-54.48-2.13
			c-52.039-13.21-89.819-45.221-145.89-47.83c-52.5-2.43-105.46,7.93-154.78,25.5c-62.05,22.09-112.17,76.63-131.09,138.84
			c-21.729,71.44-6.67,152.13,4,223.78c8.24,55.31,18.101,173.649-42.899,206.87c-31.801,17.31-59.601-22.11-75.32-44.96
			c-35.39-51.471-45.83-115.681-63.69-174.33c-43.21-141.851-97.02-279.11-214.739-375.78c-32.051-26.32-66.73-49.061-103.351-68.51
			c-103.439-54.94-222.7-79.221-318.069-149.25c-72.62-53.33-120.061-132.23-146.131-217.5c-11.09-36.271-18.869-73.45-28.79-110.04
			c-10.039-37.05-33-78.34-30.18-117.37c7.48-103.13,190.44,13.07,230.59,30.38c40.79,17.58,83.87,31.31,123.801,50.71
			c80.859,39.3,155.52,91.37,238.279,126.61c90.641,38.58,179.55,81.67,279.96,85.319c98.141,3.561,199.761-24.47,291.84-56.029
			c61.431-21.051,121.33-46.9,177.61-79.391c36.271-20.939,71.311-44.05,105.09-68.81c113.91-83.48,204.521-194.95,242.811-332.63
			c16.66-59.9,26.729-124.301,22.949-186.601c-2.109-34.91-10.25-68.93-17.069-102.97c-14.46-72.21-42.431-139.05-29.98-214.38
			c20.721-125.33,144.8-193.36,191.59-305.71c13.471-32.34,23.91-70.851-9.01-96.4c-69.52-53.96-145.28-4.42-217.88,12.061
			c-90.45,20.52-179.1-5.16-269.439,2.75c-61.23,5.359-116.851,36.1-178.79,41.76c-63.78,5.82-128.061-0.41-191.7-5.38
			c-91.04-7.11-181.08-22.76-270.8-39.29c-177.591-32.72-354.86-72.26-534.061-95.19c-161.2-20.64-325.78-26.23-488.13-30.33
			c-47.3-1.19-94.62-1.85-141.94-1.88c-126.06-0.07-263.06,12.8-375.63,73.98c-90.68,49.279-154.3,135.979-201.939,225.35
			c-65.01,121.96-118.52,252.8-168.37,381.55c-14.591,37.684-29.153,75.366-44.615,112.702l219.345,269.323
			c20.188-11.063,13.848,17.698,16.149,32.135c3.83,24.12,23.09,9.15,41.31,7.44c30.54-2.84,51.521,22.029,73.851,38.399
			c10.77,7.9,19.729,16.721,29.28,25.971c14.279,13.81,20.779,28.909,39.68,37.569c14.87,6.811,32.479,10.181,43.97,22.721
			c41.25,45.02,69.41,119.1,94.061,174.359c21.55,48.3,31.569,98.891,49.05,147.82c14.359,40.21,6.979,86.26,21.25,128
			c14.18,41.47,36.14,79.64,58.569,117.09c50.681,84.6,124.24,114.61,210.971,153.15c33.74,15,63.42,37.31,96.64,53.25
			c57.17,27.42,129.41,31.399,190.98,43.779c43.149,8.67,84.39,21.261,126.439,33.87c46.03,13.8,92.11,26.8,137.58,41.96
			c21.21,7.08,42.33,14.23,63.2,21.75c32.11,11.57,63.71,25.101,93.64,41.67c15.46,8.561,31.08,18.801,43.971,31.29
			c78.88,76.42,116.59,175.54,152.529,277.011c27.42,77.43,59.561,152.63,90.87,228.52c7.26,17.6,13.47,34.8,12.72,54.09
			c-0.75,19.351-3.659,36.37,7.9,53.03c15.87,22.86,31.2,49.22,56.04,63.35c27.61,15.71,48.44,29.971,62.67,59.591
			c15.57,32.42,45.79,53.529,80.97,58.75c40.15,5.939,98.801,8.119,138.17-0.761c27.641-6.229,53.71-19.739,77.9-34.109
			c62.8-37.32,116.82-79.45,172.22-126.38c65.891-55.83,124.641-120.19,166.65-196.021c25.99-46.91,40.28-91.09,47.61-144.76
			c4.989-36.431-20.19-49.83-45.29-68.33c-33.73-24.86-59.851-61.71-88.761-91.851c-5.52-5.76-52.569-53.13-36.5-60.199
			c12.601-5.551,54.83,57.68,63.431,66.46c24.3,24.779,51.439,46.569,78.59,68.1c28.63,22.71,58.84,44.87,96.77,44.97
			c41.13,0.12,77.41-23.72,112.16-42.979c65.47-36.28,121.97-87.311,176.94-137.57c56.72-51.87,109.76-108.729,147.54-176.18
			c19.449-34.72,35.92-73.04,41.68-112.66c4.06-27.92,3.59-80.67-18.38-102.89c-22.09-22.36-49.82-39.82-67.18-66.9
			c-16.771-26.16,22.43-6.71,31.02-1.72c18.19,10.56,35.09,16.04,56.15,16.069c67.359,0.12,143.93-60.35,193.359-100.93
			c126.24-103.63,213.49-248.02,283.88-393.359c40.721-84.061,83.141-167.841,106.311-258.73c18.25-71.62,30.84-144.5,46.83-216.63
			c18.7-84.34,47.83-165.73,67.51-249.771c11.84-50.59,24.14-101.17,40.56-150.51c15-45.12,42.521-88.85,52.58-135.14
			c12.87-59.08,18.301-120.63,29.32-180.25c8.521-46.05,15.521-92.5,20.31-139.09C8172.81,5232.61,8175.27,5148.83,8168.42,5065.38z
			 M5170.6,5605.95c-10.81-2.351-80.27-17.73-80.479-32.92c-0.01-0.67,0.12-1.351,0.399-2.021c9.12-22.17,82.601,0,97.921,1.3
			c36.199,3.07,72.55,4.101,108.699,7.921c9.5,1.01,92,8.319,71.4,30.84c-7.26,7.939-21.89,5.43-31.54,6.43
			C5284.09,5623.01,5222.49,5617.27,5170.6,5605.95z" color="12755765" style="fill:#c2a335;fill-opacity:1;stroke-width:10;stroke:rgb(0,0,0)"></path><path id="157964403" parent_id="157964400" order="8" structure_id="12116" d="M5783.98,4409.597
			c4.667-0.632,9.946-0.184,12.409-0.047c30.83,1.72,61.53,5.28,92.38,6.74c20.32,0.97,39.87-0.12,59.62-2.03
			c8.891-0.86,17.82-1.89,26.87-2.96c16.33-1.94,31.891-0.68,48.24,0.05c66.14,2.96,131.68,14.12,197.81,16.66
			c19.28,0.74,39.131,1.19,58.561-0.65c19.06-1.81,37.25-6.94,55.87-11.03c11.97-2.63,24.35-5.35,36.439-8.32
			c0.301-0.07,0.61-0.14,0.91-0.22c35.63-8.75,71.101-18.26,105.94-29.82c34.649-11.5,73.109-23.28,101.56-47.02
			c9.01-7.51,16.66-16.74,25.94-24.1c16.229-12.87,35.5-21.21,54.91-28.02c10.04-3.52,20.8-7.95,31.27-9.47
			c11.86-1.72,23.9-3.11,35.03-7.81c14.109-5.95,26.92-15.92,39.87-24.02c12.779-7.99,25.989-16.25,38.18-24.88
			c33.04-23.4,63.52-43.55,93.17-61.61c21.51-13.1,43.33-26.57,64.43-39.6c62.21-38.41,126.53-78.12,191.521-113.58
			c35.37-19.29,71.189-37.78,107.59-55.05c41.67-19.77,85.5-35.1,126.82-55.47c29.68-14.63,57.949-35.37,71.13-66.79
			c16.68-39.79,38.14-75.38,44.649-118.95c17.301-115.61-17.1-226.18-67.26-329.38c-26.37-54.26-51.28-109.35-81.42-161.68
			c-23.37-40.56-49.29-79.6-76.61-117.6c-48.54-67.49-101.67-131.5-154.8-195.38c-69.24-83.23-136.89-166.68-214.3-242.67
			c-83.3-81.77-168.16-154.22-280.49-192.13c-23.21-7.84-46.569-16.59-71.359-17.05c-11.11-0.21-22.021,1.25-33.07,2.09
			c-96.4,7.261-185.99,42.82-260.95,76.67c-85.64,38.67-170.149,79.4-251.18,121.05c-50.78,26.1-97.42,51.25-142.58,76.89
			c-141.73,80.49-306.1,137.73-488.55,170.15c-3.74,0.67-7.49,1.33-11.24,1.99c-46.76,8.26-95.12,16.811-140.771,32.43
			c-49.989,17.1-97.1,40.24-149.1,66.52c-6.13,3.1-12.43,6.19-19.1,9.47c-33.891,16.67-72.24,35.53-97.83,59.68
			c-6.49,6.12-12.26,13.21-18.61,19.52c-15.64,15.55-34.95,28.7-47.13,47.36c-9.11,13.96-16.24,29.31-23.75,43.97
			c-8,15.59-20.23,27.61-33.25,39.75c-31.85,29.73-72.54,45.96-103.35,77.81c-50.521,52.22-86.62,116.29-137.67,168.22
			c-11.25,11.43-24.33,22.25-33.48,35.44c-12.82,18.49-22.31,37.94-40.17,52.39c-5.25,4.24-11.09,8.41-16.69,12.169
			c-0.05,0.03-0.09,0.07-0.14,0.1c-9.61,6.5-17.75,18.03-23.36,28.08c-2.72,4.87-4.76,10.04-6.25,15.41
			c-0.22,0.82-1.189,5.07-2.479,6.84c-0.82,1.11-1.771,1.23-2.74-1.16c-1.16-2.84,1.75-8.3,2.66-11.01
			c1.4-4.16,3.17-8.19,5.31-12.03c3.83-6.859,8.37-13.35,13.57-19.24c4.97-5.62,8.51-9.94,10.69-17.27
			c1.42-4.8,2.88-9.55,3.949-14.5c1.04-4.79,2.95-9.25,4.94-13.72c12.01-27.07,31.22-50.08,41.75-78.09
			c8.41-22.38,14.58-45.45,29.31-64.79c39.931-52.4,76.67-107.88,119.131-158.26c11.59-13.74,22.06-28.84,36.17-40.18
			c0.319-0.26,0.64-0.52,0.97-0.78c32.66-25.55,75.59-35.22,111.149-56.18c15.07-8.88,30.021-17.99,45.41-26.31
			c5.07-2.74,10.181-5.391,15.301-8.03c16.229-8.36,33.09-16.35,46.569-28.94c26.03-24.31,64.36-43.17,98.26-59.84
			c6.66-3.27,12.94-6.36,19.061-9.45c52.13-26.35,99.38-49.55,149.6-66.74c45.95-15.72,94.46-24.29,141.38-32.58
			c3.74-0.66,7.49-1.32,11.23-1.99c182-32.33,345.95-89.43,487.28-169.68c45.21-25.681,91.89-50.851,142.72-76.98
			c81.09-41.68,165.66-82.44,251.36-121.14c75.35-34.03,165.46-69.77,262.579-77.03c6.9-0.6,13.881-1,20.66-2.22
			c12.431-2.23,24.84-5.5,35.971-11.61c24.47-13.41,45.989-45.77,51.069-72.57c10.021-52.85-10.95-118.35-27.05-168.54
			c-23.68-73.81-67.35-132.21-119.51-188.27c-74.74-80.35-159.65-122.63-258.73-166.04c-81.859-35.859-159.59-81.01-241.939-115.39
			c-62.3-26.01-128.431-38.55-193.601-54.9c-26.21-6.58-52.479-13.25-77.899-22.51c-82.05-29.89-165.13-86.11-234.21-138.68
			c-44.641-33.97-86.49-71.21-132.37-103.66c-49.47-34.989-105.99-65.59-162.04-88.46c-100.18-40.87-216.851-54.48-319.43-13.84
			c-37.921,15.02-72.45,40.05-99.78,70.03c-52.58,57.65-89.82,128.41-130.29,194.56c-49.73,81.26-99.19,162.68-151.73,242.17
			c-20.71,31.34-45.54,60.45-65.399,92.51c-26.96,43.51-59.12,83.54-94.13,120.81c-10.591,11.28-67.391,83.51-86.271,65.57
			c-15.69-14.92,59.2-87.11,68.83-98.93c29.26-35.9,58.32-71.97,86.94-108.38c58.409-74.311,115.13-150.04,167.859-228.51
			c84.44-125.65,182.38-245.401,210.23-398.781c30.04-165.5-70.771-318.36-173.3-438.239c-41.73-48.781-93.33-89-147.761-122.661
			c-83.3-51.51-176.319-88.259-270.75-113.48c-44.09-11.779-89.32-19.14-134.4-25.93c-63.24-9.53-131.15-30.67-191.96-0.56
			c-126.34,62.58-105.6,219.369-141,332.839c-19.67,63.07-71.73,129.63-119.25,174.44c-29.4,27.73-60.61,53.54-83.08,87.56
			c-42.85,64.85-51.42,144.43-87.76,212.311c-28.6,53.429-58.55,107.209-84.45,161.969c-13.75,29.071-31.41,55.76-48.84,82.66
			c-1.88,2.911-3.76,5.82-5.63,8.74c-14.22,22.13-26.47,45.37-40.11,67.84c-5.06,8.331-10.29,16.95-15.29,25.48
			c-3.01,5.14-5.94,10.19-8.84,15.18c-14.65,25.28-28.5,49.15-46.61,73.66c-2.96,4-5.77,8.08-8.48,12.23
			c-5.39,8.26-10.36,16.77-15.17,25.42c-10.65,19.16-20.97,38.84-35.69,55.27c-20.87,23.3-43.84,43.42-62.36,68.94
			c-23.58,32.5-42.41,68.07-61.4,103.36c-12.59,23.389-25.23,46.791-39.23,69.38c-8.16,13.169-17.03,25.87-25.79,38.649
			c-8.51,12.39-16.68,25.01-24.76,37.69c-14.26,22.39-28.23,44.99-43.2,66.93c-12.92,18.95-29.28,37.11-36.14,59.38
			c-5.92,19.25-3.2,39.89,1.97,58.98c2.7,9.93,7.09,19.26,10.57,28.92c2.45,6.82,7.55,18.13,3.33,25.16
			c-7.79,12.94-23.05-3.97-27.56-10.7c-7.12-10.61-13.56-19.93-23.17-28.66c-3.392-3.082-6.661-6.317-9.943-9.541l-188.725,303.715
			c49,44.733,97.664,89.846,147.909,133.186c108.29,93.39,231.64,178.36,359.86,242.11c36.89,18.34,75.39,34.05,115.7,43.03
			c71.73,15.99,145.62,8.15,216.27-9.45c43.56-10.86,89.33-25.41,120.39-59.65c35.32-38.94,42.58-94.14,46.03-144.58
			c7.93-115.75-57.22-237-118.74-331.17c-31.28-47.88-69.44-93.25-83.06-150.12c-11.13-46.47-6.24-95.88,19.69-136.69
			c77.86-122.54,153.31-245.81,225.01-372.15c21.03-37.06,41.89-74.21,62.65-111.419c30.84-55.271,61.41-110.69,91.85-166.19
			c36.09-65.8,75.39-130.27,108.53-197.63c24.51-49.84,54.34-100.16,95.98-137.92c23.21-21.04,61.07-35.15,90.76-19.94
			c78.31,40.14,23.09,161.58-4.99,216.09c-15.44,29.97-32.81,58.881-48.47,88.71c-36.62,69.81-66.73,142.209-91.08,217.16
			c-21.19,65.2-40.23,131.64-44.76,200.351c-2.63,39.949,0.22,79.959,9.98,118.899c29,115.61,120.35,235.11,239.68,266.17
			c88.331,23,186.85,19.78,272.11-13.63c60.891-23.87,115.05-65.6,168.141-103.04c57.56-40.59,113.8-83.03,168.319-127.63
			c31.21-25.52,61.82-51.75,91.801-78.7c56.729-51.02,144.5-177.25,235.43-132.68c38.34,18.81,54.7,61.28,56.84,101.3
			c0.46,8.54,1.02,16.69,1,25.23c-0.19,71.14-41.79,120.18-79.85,176.19c-37.471,55.17-79.391,107.3-122.41,158.23
			c-80.15,94.89-167.46,183.47-249.55,276.66c-88.46,100.43-178.15,200.03-258.29,307.38c-49.641,66.5-95.99,135.66-134.141,209.45
			c-64.74,125.22-106.26,266.98-112.01,408.16c-1.83,44.92,2.42,92.26,13.77,135.88c23.48,90.21,85.06,188.22,170.12,231.57
			c85.591,43.63,213.82,31.33,295.03-17.16c56.69-33.86,95.85-83.91,135.47-135.35c27.91-36.24,55.771-72.93,87.42-106.04
			c35.771-37.41,74.641-71.76,114.19-105.09c56.83-47.89,117.08-92.57,186.51-120.42c77.16-30.96,158.75-44.65,240.221-58.83
			c82.939-14.44,161.829-38.021,241.659-64.271c116.45-38.28,227.24-101.49,335.141-158.84c31.84-16.92,63.569-34.05,95.27-51.22
			c86.2-46.68,181.4-72.47,279.181-79.76c62.76-4.69,143.5-3.97,191.42,43.48c28.02,27.74,56.779,68.43,38.229,108.76
			c-17.31,37.65-57.42,51.18-92.56,66.27c-68.9,29.59-139.59,53.64-210.24,78.64c-41.68,14.75-83.49,29.4-124.85,45.01
			c-95.79,36.17-188.301,82.85-275.33,136.69c-40.9,25.3-80.65,52.48-118.9,81.63c-79.75,60.77-153.89,128.56-221.08,203.01
			c-27.7,30.69-54.22,62.43-79.2,95.39c-59.109,78.01-116.87,165.62-152.569,257.09c-38.787,99.391-12.897,197.902,40.385,282.958
			l406.359-43.229C5778.965,4414.035,5780.141,4410.117,5783.98,4409.597z" color="13939253" style="fill:#d4b235;fill-opacity:1;stroke-width:10;stroke:rgb(0,0,0)"></path><path id="157964402" parent_id="157964400" order="9" structure_id="12115" d="M2756.71,2374.04
			c-8.43-5.56-18.43-10.62-17.55-22.41c0.88-11.84,8.47-22.84,15.21-32.14c10.31-14.23,21.07-27.75,30.74-42.46
			c7.35-11.169,14.76-22.29,22.4-33.26c21.27-30.52,43.46-60.19,65.99-89.66c6.27-8.2,12.45-16.53,18.14-25.11
			c13.42-20.23,27.48-40.029,40.97-60.14c33.63-50.12,63.55-103.46,105.78-147.74c13.91-14.58,29.65-27.12,44.62-40.68
			c31.87-28.851,62.05-58.15,87.69-92.86c17.98-24.33,31.77-48.109,46.37-73.28c2.9-5,5.84-10.06,8.85-15.2
			c5.01-8.56,10.25-17.19,15.32-25.54c9.2-15.15,18.41-30.32,26.83-45.92c8.08-14.97,14.13-30.43,21.17-45.81
			c13.7-29.93,27.05-60.02,40.25-90.18c7.26-16.56,15.22-33.01,20.86-50.21c11.69-35.64,15.51-73.23,21.59-110.07
			c15.29-92.78,85.24-166.34,97.06-258.27c5.34-41.59-0.98-89.68-12.79-129.58c-46.46-156.92-186.17-298.82-331.16-368.87
			c-102.37-49.46-220.18-63.36-330.11-88.11c-75.46-17-151.77-31.77-229.04-37.19c-88.01-6.16-175.49,7.42-263.86-1.03
			c-167.3-15.99-321.1-88.78-482.1-131.22c-53.16-14.01-105.62-30.52-157.94-47.36c-170.68-54.939-343.55-99.43-523.54-106.03
			c-86.1-3.17-165.58,16.9-248.01,39.06C787.66,230.39,687.79,266.4,593.69,316.5c-109.93,58.52-212.37,137.37-283.96,240.36
			c-58.15,83.66-88.71,187.06-112.76,285.029c-19.43,79.13-23.77,160.601-16.82,241.62c9.99,116.36,32.39,215.45,86.13,319.74
			c29.36,56.97,57.84,115.27,98.79,165.05c19.22,23.35,33.56,53.25,45.47,81.47c30.58,72.5,14,156.99,23.34,233.201
			c9.96,81.209,51.4,154.39,86.66,226.84c22.98,47.239,38.61,103.219,88.27,130.62c41.78,23.049,91.83,17.859,137.61,18.299
			c44.91,0.44,89.64,2,134.28,0.02c18.32-0.81,38.13-3.63,54.15-13.81c7.98-5.08,12.9-10,22.56-11.061
			c9.66-1.05,18.82,1.74,28.27,1.22c16.54-0.93,32.74-9.33,50.71-10.21c19.26-0.95,39.39-0.9,58.66-0.01
			c30.23,1.41,248.55,28.311,238.04,88c-2.56,14.48-33.08,9.53-46.25,10.181c-17.14,0.85-35.82,0.85-51.84-2.28
			c-123.92-24.22-250.4-28.86-375.74-41.74c-41.69-4.29-83.99-4.87-126.1-2.32c-18.86,1.141-38.05,3.07-56.6,5.95
			c-10.3,1.6-20,3.71-30.52,4.261c-9.55,0.51-18.09-1.96-27.76-0.101c-11.61,2.23-23.11,6.73-34.29,10.51
			c-38.95,13.18-72.45,36.29-98.89,67.561c-47.18,55.81-79.26,114.45-110.6,178.55c-61.16,125.07-75.1,274.99-81.55,412.05
			c-1.06,22.52-3.95,43.15-3.95,66c0,61.21,17.94,128.45,34.44,187.55c15.46,55.36,28.84,120.14,25.9,177.561
			c-2,38.83-6.19,75.38,1.09,114.22c7.54,40.18,23.01,107.54,64.34,126.39c30.85,14.06,66.89,16.25,100.43,18.02
			c38.47,2.02,75.25,12.72,110.56,26.79c16.9,6.73,29.8,20.51,46.23,27.67c29.79,12.97,68.11,9.86,99.89,12.64
			c38.07,3.33,76.06,7.7,113.87,13.26c72.8,10.69,144.96,26.06,215.44,47.28c126.1,37.96,239.07,102.14,355.03,163
			c76.06,39.92,162.72,78.02,248.91,87.54c27.72,3.06,55.85-4.27,83.4,0.92c11.78,2.22,22.16,8.28,33.92,10.44
			c12.09,2.24,24.48,0.37,36.62,2.18c17.6,2.63,36,4.04,53.89,4.26c19.41,0.23,71.34-7.58,78.98,15.79
			c0.164,0.502,0.297,0.985,0.416,1.458l321.028,181.916c6.928-14.638,13.133-29.545,18.346-44.684
			c14.06-40.82,22.06-89.85,19.79-133.15c-5.53-105.15-49.16-208.98-117.78-288.52c-21.43-24.83-44.9-47.9-68.22-70.919
			c-40.72-40.19-82.51-79.09-126.54-115.66c-26.28-21.82-53.23-42.85-80.77-63.07c-34.9-25.63-70.74-49.979-107.47-72.92
			c-127.68-79.71-258.14-155.9-391.75-225.26c-30.24-15.7-61.02-30.4-92.55-43.32c-33.82-13.85-68.24-26.24-103.19-36.939
			c-34.58-10.59-69.71-19.45-105.26-26.141c-45.72-8.6-91.65-15.41-137.56-22.82c-39.84-6.43-81.8-15.2-114.23-40.76
			c-42.89-33.79-30.53-91.64-4.47-131.93c40.91-63.26,119.5-83.83,185.8-109.11c51.33-19.58,102.91-38.53,154.83-56.5
			c74.06-25.62,145.33-55.71,209.76-100.91c73.14-51.32,154.51-111.76,200.52-190.05c38.77-65.99,50.47-144.95,40.67-220.25
			c-8.7-66.901-27.53-131.431-64.77-188.23c-43.86-66.89-97.33-129.63-150.92-188.89c-34.57-38.23-72.28-73.47-108.69-109.919
			c-81.5-81.61-164.57-158.781-254.23-231.421c-30.47-24.68-61.11-49.14-91.63-73.77c-86.27-69.63-162.58-144.11-227.26-234.521
			c-47.2-65.959-83.74-138.95-60.06-221.5c34.8-121.32,157.67-137.879,266.14-147.05c63.15-5.34,126.83-6.47,189.94-0.02
			c36.2,3.7,72.1,9.49,107.42,18.31c96.84,24.19,188.1,66.92,279.65,105.76c81.27,34.47,162.14,70.09,246.31,97.081
			c108.4,34.75,223.31,61.73,336.41,75.18c120.45,14.32,244.28,13.84,365.11,4.64c83.6-6.359,208.39-64.48,270.22,20.3
			c78.63,107.86-56.15,260.88-114.56,342.52c-71.54,99.971-145.55,198.21-214.86,299.76c-20.31,29.771-40.21,59.82-59.47,90.29
			c-73.72,116.63-104.5,247.76-83.04,385.13c5.74,36.71,14.68,74.19,26.91,109.31c2.85,8.2,5.95,16.3,9.32,24.29
			c19.72,46.74,47.83,85.6,78.7,124.78c40.14,50.95,90.9,93.34,138.96,137.13c3.09,2.814,6.174,5.637,9.261,8.455l188.725-303.715
			C2770.55,2385.138,2764.151,2378.957,2756.71,2374.04z" color="13939253" style="fill:#d4b235;fill-opacity:1;stroke-width:10;stroke:rgb(0,0,0)"></path></g><g id="157964387" order="0" group_label_id="31" group_label="Atlas - Developing Human" sub_image_id="111257617"><path id="157964390" parent_id="157964387" order="0" structure_id="10597" d="
			M2120.283,6144.208c14.467-16.18,29.399-31.369,42.907-48.818c32-41.319,61.25-73.229,103.94-103.62
			c35.96-25.59,76.47-52.31,99.85-90.819c15.61-25.72,23.71-59.521,14.83-89.021c-2.36-7.859-7.01-15.54-12-22.449
			c-29.7-41.181-78.23-53.141-125.15-40.54c-49.5,13.29-83.4,44.75-111.37,86.59c-20.25,30.29-41.34,53.47-72.42,73.16
			c-63.23,40.069-144.58,70.26-219.14,72.38c-72.37,2.05-146.55,48.569-211.7,76.17c-52.52,22.26-107.32,42.89-157.55,69.979
			c-63.07,34.011-103.29,91.9-156.62,137.69c-39.55,33.95-81.69,64.729-121.24,98.67c-8.12,6.96-17.88,13.4-25.9,21.03
			c-18.95,18.02-7.86,35.05,7.53,48.449c1.53,1.32,2.96,2.671,4.32,4.03c15.79,15.891,20.37,34.18,25.75,56.86
			c9,37.939,41.53,65.67,67.82,92.149c35.1,35.36,71.32,69.57,106.56,104.79c6.66,6.66,13.15,13.45,19.57,20.311
			c8.58,9.18,17.02,18.5,25.52,27.8c12.45,13.62,28.21,22.83,41.07,35.89c40.04,40.721-21.51,76.69-24.15,118.681
			c-0.28,4.479-0.32,8.939-0.13,13.37c1.2,29.39,12.03,57.59,25.22,83.699c12.64,25.011,27.36,59.851,48.12,79.21
			c12.79,11.91,34.46,13.53,41.26,31.66c15.96,42.54,50.55,76.66,85.13,104.75c20.08,16.311,49.28,41.3,78.52,54.46l0.396,0.175
			c12.558,5.616,25.119,9.041,36.964,8.636c41.47-1.41,5.58-79.771,1.26-99.78c-25.56-118.55-43.33-231.32-37.57-353.23
			c3.2-67.63,10.26-135.779,45.98-195.029c33.08-54.891,86.97-91.67,122.76-143.96c17.97-26.24,32.15-54.84,49.96-81.17
			c18.32-27.07,44.56-44.48,64.35-69.521c41.48-52.46,61.67-118.92,104.57-170.21c3.497-4.183,7.053-8.25,10.636-12.26
			L2120.283,6144.208z" color="2301728" style="fill:#231f20;fill-opacity:1;stroke-width:10;stroke:rgb(0,0,0)"></path><path id="157964391" parent_id="157964387" order="1" structure_id="10557" d="M7680.6,5129.16
			c-30.279-69.66-72.63-133.43-101.369-203.83c-32.271-79.02-39.301-162.82-38.381-247.46c0.61-55.85,22.24-165.01-31.899-204.15
			c-6.771-4.89-14.95-10.52-22.97-12.97c-33.99-10.39-77.431,8.44-107.521,22.84c-46.57,22.28-88.41,53.18-129.97,83.48
			c-60.71,44.25-120.15,90.52-184.521,129.45c-98.37,59.49-208.359,98.51-319.729,125.56c-88.95,21.61-177.78,50.07-267.82,66.28
			c-72.33,13.02-146.14,12.98-219.36,14.87c-110.029,2.84-220.81-3.97-326.569-36.5c-36.101-11.11-71.3-25.04-105.53-40.99
			c-94.34-43.95-183.01-100.27-263.08-166.74c-30.21-25.09-60.02-50.84-88.1-78.31c-23.7-23.18-46.49-47.79-66.94-73.9
			c-74.03-94.53-119.29-211.42-73.189-329.55c35.699-91.47,93.46-179.08,152.569-257.09c24.98-32.96,51.5-64.7,79.2-95.39
			c67.19-74.45,141.33-142.24,221.08-203.01c38.25-29.15,78-56.33,118.9-81.63c87.029-53.84,179.54-100.52,275.33-136.69
			c41.359-15.61,83.17-30.26,124.85-45.01c70.65-25,141.34-49.05,210.24-78.64c35.14-15.09,75.25-28.62,92.56-66.27
			c18.55-40.33-10.21-81.02-38.229-108.76c-47.92-47.45-128.66-48.17-191.42-43.48c-97.78,7.29-192.98,33.08-279.181,79.76
			c-31.7,17.17-63.43,34.3-95.27,51.22c-107.9,57.35-218.69,120.56-335.141,158.84c-79.83,26.25-158.72,49.83-241.659,64.271
			c-81.471,14.18-163.061,27.87-240.221,58.83c-69.43,27.85-129.68,72.53-186.51,120.42c-39.55,33.33-78.42,67.68-114.19,105.09
			c-31.649,33.11-59.51,69.8-87.42,106.04c-39.62,51.44-78.779,101.49-135.47,135.35c-81.21,48.49-209.439,60.79-295.03,17.16
			c-85.06-43.35-146.64-141.36-170.12-231.57c-11.35-43.62-15.6-90.96-13.77-135.88c5.75-141.18,47.27-282.939,112.01-408.16
			c38.15-73.79,84.5-142.95,134.141-209.45c80.14-107.351,169.83-206.95,258.29-307.38c82.09-93.19,169.399-181.77,249.55-276.66
			c43.02-50.931,84.939-103.061,122.41-158.23c38.06-56.01,79.659-105.05,79.85-176.19c0.02-8.54-0.54-16.69-1-25.23
			c-2.14-40.02-18.5-82.49-56.84-101.3c-90.93-44.57-178.7,81.66-235.43,132.68c-29.98,26.95-60.591,53.181-91.801,78.7
			c-54.52,44.6-110.76,87.04-168.319,127.63c-53.091,37.44-107.25,79.17-168.141,103.04c-85.26,33.41-183.779,36.63-272.11,13.63
			c-119.33-31.06-210.68-150.56-239.68-266.17c-9.76-38.94-12.61-78.95-9.98-118.899c4.53-68.71,23.57-135.15,44.76-200.351
			c24.35-74.95,54.46-147.35,91.08-217.16c15.66-29.83,33.03-58.74,48.47-88.71c28.08-54.51,83.3-175.95,4.99-216.09
			c-29.69-15.21-67.55-1.1-90.76,19.94c-41.64,37.76-71.47,88.08-95.98,137.92c-33.14,67.36-72.44,131.83-108.53,197.63
			c-30.44,55.5-61.01,110.92-91.85,166.19c-20.76,37.209-41.62,74.359-62.65,111.419c-71.7,126.34-147.15,249.61-225.01,372.15
			c-25.93,40.811-30.82,90.22-19.69,136.69c13.62,56.87,51.78,102.24,83.06,150.12c61.52,94.17,126.67,215.42,118.74,331.17
			c-3.45,50.44-10.71,105.64-46.03,144.58c-31.06,34.24-76.83,48.79-120.39,59.65c-70.65,17.6-144.54,25.44-216.27,9.45
			c-40.31-8.98-78.81-24.69-115.7-43.03c-128.22-63.75-251.57-148.72-359.86-242.11c-53.41-46.07-105.03-94.15-157.17-141.64
			c-48.06-43.79-98.82-86.18-138.96-137.13c-30.87-39.18-58.98-78.04-78.7-124.78c-3.37-7.99-6.47-16.09-9.32-24.29
			c-12.23-35.12-21.17-72.6-26.91-109.31c-21.46-137.37,9.32-268.5,83.04-385.13c19.26-30.47,39.16-60.52,59.47-90.29
			c69.31-101.55,143.32-199.79,214.86-299.76c58.41-81.64,193.19-234.66,114.56-342.52c-61.83-84.78-186.62-26.659-270.22-20.3
			c-120.83,9.2-244.66,9.68-365.11-4.64c-113.1-13.45-228.01-40.43-336.41-75.18c-84.17-26.99-165.04-62.61-246.31-97.081
			c-91.55-38.84-182.81-81.57-279.65-105.76c-35.32-8.82-71.22-14.61-107.42-18.31c-63.11-6.45-126.79-5.32-189.94,0.02
			c-108.47,9.17-231.34,25.73-266.14,147.05c-23.68,82.55,12.86,155.541,60.06,221.5c64.68,90.41,140.99,164.891,227.26,234.521
			c30.52,24.63,61.16,49.09,91.63,73.77c89.66,72.64,172.73,149.811,254.23,231.421c36.41,36.449,74.12,71.689,108.69,109.919
			c53.59,59.26,107.06,122,150.92,188.89c37.24,56.8,56.07,121.329,64.77,188.23c9.8,75.299-1.9,154.259-40.67,220.25
			c-46.01,78.29-127.38,138.73-200.52,190.05c-64.43,45.2-135.7,75.29-209.76,100.91c-51.92,17.97-103.5,36.92-154.83,56.5
			c-66.3,25.28-144.89,45.85-185.8,109.11c-26.06,40.29-38.42,98.14,4.47,131.93c32.43,25.56,74.39,34.33,114.23,40.76
			c45.91,7.41,91.84,14.22,137.56,22.82c35.55,6.69,70.68,15.55,105.26,26.141c34.95,10.7,69.37,23.089,103.19,36.939
			c31.53,12.92,62.31,27.62,92.55,43.32c133.61,69.36,264.07,145.55,391.75,225.26c36.73,22.94,72.57,47.29,107.47,72.92
			c27.54,20.22,54.49,41.25,80.77,63.07c44.03,36.57,85.82,75.47,126.54,115.66c23.32,23.02,46.79,46.09,68.22,70.919
			c68.62,79.54,112.25,183.37,117.78,288.52c2.27,43.3-5.73,92.33-19.79,133.15c-16.48,47.86-42.86,93.41-70.74,135.45
			c-73.11,110.26-170.95,180.89-300.04,211.07c-118.43,27.68-247.97,9.78-364.95-17.16c-85.11-19.6-165.85-53.92-244.11-92.07
			c-56.02-27.31-111.41-56.1-166-86.16c-74.09-40.8-142.38-105.04-222.89-132.3c-18.58-6.29-49.63-16.91-67.83-5.18
			c-33.91,21.86-16.85,82.38-11.42,113.86c16.14,93.67,43.5,184.76,57.15,278.94c9.16,63.21,21.39,127.29,23.43,191.22
			c1.39,43.33-2.78,86.76,0.5,130.06c2.97,39.12,6.23,85.75,44.5,106.94c30.69,17,71.61,16.16,105.49,12.52
			c33.99-3.65,67.12-12.5,101.38-14.21c71.63-3.57,149.14-0.92,211.12,39.27c38.88,25.21,73.58,57.74,96.56,98.23
			c15.9,28.01,39.98,82.18-1.17,103.35c-29.47,15.16-61.29,25.38-92.16,37.27c-26.89,10.35-55.42,22.1-84.63,23.59
			c-0.32,0.6-0.72,1.22-1.18,1.87c-7.22,10.17-27.92,15.65-39.16,18.62c-15.52,4.09-31.34,6.83-46.95,10.53
			c-34.82,8.28-67.31,22.68-101.09,34.06c-35.87,12.09-73.29,18.53-109.64,28.919c-27.1,7.74-52.11,21.04-78.65,30.28
			c-25.11,8.74-49.07,9.66-75.01,13.61c-20.34,3.1-41.2,5.89-62.05,6.83c-41.39,1.859-81.42,3.39-122.97,3.39
			c-56.4,0-114.24-5.46-170.44-2.26c-57.97,3.3-115.8-5.931-173.64-3.141c-13.03,0.631-15.92,9.011-16.75,20.67
			c-4.75,66.961-13.08,133.601-21.46,200.19c-6.9,54.76-12.44,109.68-17.58,164.63c-2.68,28.62-5.32,57.23-8.05,85.83
			c-4.61,48.15-9.46,96.28-15.12,144.34c0,50.01-12.34,103.2-18.75,152.811c-6.52,50.54-13.44,101.02-21,151.41
			c-12.79,85.34-31.13,169.939-42.39,255.47c-7.83,59.55-19.38,119.21-17.64,179.54c1.66,57.89,22.55,108.13,40.79,162.21
			c42.52,126.46,76.83,257.41,114.1,385.59c2.83,9.7,4.69,29.87,11.09,37.52c6.41,7.671,13.7,2.391,21.99,5.36
			c15.56-38.12,80.32-14.34,107.78-4.97c47,16.03,92.47,36.08,139.01,53.34c49.9,18.52,104.2,28.96,155.56,42.87
			c43.71,11.85,87.77,26.899,128.83,46.04c68.36,31.859,131.58,80.78,177.1,141.18c22.86,30.33,40.28,64.61,46.73,102.28
			c5.04,29.45,4.25,62.55-0.17,91.979c-8.09,53.801-32.17,106.261-74.53,141.44c-42.6,35.39-96.81,52.34-144.51,79.18
			c-40.73,22.931-96.43,69.62-50.7,118.34c21.25,22.65,56.05,26.04,85.15,29.87c79.24,10.42,159.63,8.42,238.67,20.71
			c114,17.74,245.33,63.801,300.02,174.021c48.63,97.99,12.95,224.38-29.58,317.55c-42.45,93-125.52,157.48-195.86,228.34
			c-29.28,29.49-55.76,61.66-79.19,95.98c-48.53,71.109-79.27,151.97-107.23,232.859c-12.02,34.78-24.13,69.53-36.22,104.29
			C999.95,9535.4,965.12,9637,932.47,9739.31c-25.17,78.841-62.34,160.04-62.92,243.801c-0.17,25.25,13.57,54.649,42.52,39.13
			c53.97-28.931,86.55-107.67,116.82-157.65c22.73-37.53,44.42-75.67,65.73-114.02c60.55-108.99,118.1-219.88,186.43-324.32
			c54.63-83.5,116.95-161.6,171.82-244.91c41.24-62.62,86.75-122.53,138.7-176.7c22.43-23.39,44.91-46.77,69.35-68.08
			c23.23-20.25,49.75-38.51,75.79-54.92c89.6-56.5,210.69-76.14,291.68,9.62c51.85,54.9,86.78,124.21,103.4,197.69
			c19.36,85.609-1.52,173.319-30.37,254.29c-24.49,68.76-55.23,135.359-92.1,198.38c-16.47,28.14-35.4,54.66-55,80.689
			c-70.14,93.181-148.73,181.49-200.94,286.69c-9.17,18.49-15.57,54.3,12.26,54.29c41.6-0.03,83.82-37.78,115.67-60.58
			c36.75-26.31,71.19-55.6,105.45-85.01c47.69-40.95,95.26-82.431,147.74-117.24c51.72-34.3,108.6-59.66,161.63-91.74
			c42.01-25.42,80.06-56.68,117.88-87.83c34.94-28.77,66.41-59.76,91.25-97.909c32.44-49.83,39.55-106.62,36.09-164.931
			c-5.42-91.27-27.89-179.729-35.7-270.45c-4.14-48.109-1.86-96.449,1.27-144.55c4.42-67.97,7.29-136.52,17.84-203.88
			c12.21-77.99,26.01-151.52,69.06-219.2c16.14-25.38,38.38-49.12,61.58-68.09c23.09-18.87,49.52-35.58,76.2-48.82
			c99.75-49.54,216.99-60.47,320.34-15.88c77.39,33.391,150.65,97.53,206.53,159.79c33.24,37.03,61.81,78.32,85.86,121.84
			c48.63,88.011,72.83,186.7,96.78,283.591c13.3,53.81,27.6,107.52,48.42,158.989c30.58,75.62,70.95,143.9,161.63,145.351
			c63.47,1,135.35-28.23,168.92-84.42c24.11-40.34,14.26-86.09,3.61-128.92c-16.63-66.9-29.52-143.091-20.88-211.91
			c4.68-37.24,22.33-80.46,45.57-109.8c41.95-52.94,116.64-80.95,180.26-96.87c137.33-34.351,270.79,37.51,399.41,74.449
			c35.99,10.33,86.561,16.461,111.431-17.96c18.189-25.18,21.17-63.42,19.939-93.6c-3.52-86.09-0.21-171.05,72.5-229.04
			c30.561-24.37,65.51-43.78,101.38-59.12c30.94-13.24,64.311-23.8,97.34-30.189c32.08-6.2,65.2-9.301,97.891-8.08
			c40.06,1.5,79.569,9.569,117.79,21.399c64.16,19.87,127.97,48.04,187.41,79.29c57.909,30.45,112.21,70.561,176.789,86.03
			c49.711,11.9,45.471-36.05,34.171-68.46c-19.83-56.87-68.95-100.59-113.4-138.76c-54.771-47.03-113.33-91.971-180.82-119.09
			c-130.05-52.271-277.069-84.23-417.229-64.381c-73.5,10.41-145.431,29.131-219.91,31.971c-128.75,4.92-257.83-12.57-383.48-39.601
			c-82.78-17.819-166.07-43.91-233.94-96.34c-82.32-63.6-145.36-153.189-166.31-255.81c-8.14-39.83-9.43-81.04-5.63-121.46
			c13.69-145.761,92.93-269.36,123.46-410.2c8.22-37.97,13.65-76.47,17.54-115.11c12.79-127.3,10.24-256.17,32.93-382.43
			c8.22-45.78,18.74-91.11,31.21-135.91c11.92-42.78,26.32-84.83,42.02-126.36c27.24-72.05,58.51-142.46,87.97-213.59
			c15.52-37.46,30.13-75.27,44.77-113.08c49.85-128.75,103.36-259.59,168.37-381.55c47.64-89.37,111.26-176.07,201.939-225.35
			c112.57-61.18,249.57-74.05,375.63-73.98c47.32,0.03,94.641,0.69,141.94,1.88c162.35,4.1,326.93,9.69,488.13,30.33
			c179.2,22.93,356.47,62.47,534.061,95.19c89.72,16.53,179.76,32.18,270.8,39.29c63.64,4.97,127.92,11.2,191.7,5.38
			c61.939-5.66,117.56-36.4,178.79-41.76c90.34-7.91,178.989,17.77,269.439-2.75c72.6-16.48,148.36-66.021,217.88-12.061
			c32.92,25.55,22.48,64.061,9.01,96.4c-46.79,112.35-170.869,180.38-191.59,305.71c-12.45,75.33,15.521,142.17,29.98,214.38
			c6.819,34.04,14.96,68.06,17.069,102.97c3.78,62.3-6.289,126.7-22.949,186.601c-38.29,137.68-128.9,249.149-242.811,332.63
			c-33.779,24.76-68.819,47.87-105.09,68.81c-56.28,32.49-116.18,58.34-177.61,79.391c-92.079,31.56-193.699,59.59-291.84,56.029
			c-100.41-3.649-189.319-46.739-279.96-85.319C5804,6736.37,5729.34,6684.3,5648.48,6645c-39.931-19.4-83.011-33.13-123.801-50.71
			c-40.149-17.31-223.109-133.51-230.59-30.38c-2.82,39.03,20.141,80.32,30.18,117.37c9.921,36.59,17.7,73.77,28.79,110.04
			c26.07,85.27,73.511,164.17,146.131,217.5c95.369,70.029,214.63,94.31,318.069,149.25c36.62,19.449,71.3,42.189,103.351,68.51
			c117.72,96.67,171.529,233.93,214.739,375.78c17.86,58.649,28.301,122.859,63.69,174.33c15.72,22.85,43.52,62.27,75.32,44.96
			c61-33.221,51.14-151.561,42.899-206.87c-10.67-71.65-25.729-152.34-4-223.78c18.92-62.21,69.04-116.75,131.09-138.84
			c49.32-17.57,102.28-27.93,154.78-25.5c56.07,2.609,93.851,34.62,145.89,47.83c17.561,4.45,37.261,10.45,54.48,2.13
			c33.28-16.09,17.84-59,10.7-86.12c-28.74-109.12-57.51-238.44,4.88-341.81c23.43-38.82,65.18-60.04,104.07-80.301
			c77.97-40.609,160.649-68.93,243.899-96.5c68.431-22.649,136.5-52.08,185.7-106.64c99.03-109.83,82.25-259.84,82.25-395.5
			c0-33.65-0.36-63.69,9.8-96.25c16.65-53.32,48.271-100.9,73.41-150.38c35.35-69.58,73.69-138.39,104.3-210.22
			c26.931-63.181,58.05-125.221,74.46-192.271C7724.74,5390.8,7734.96,5254.23,7680.6,5129.16z M2692.58,6763.94
			c-5.51,21.989-7.76,50-25.41,66.109c-22.81,20.84-57.45,26.47-83.07,44.061c-57.43,39.439-107.88,93.21-138.72,156.02
			c-21.41,43.601-32.15,91.53-53.01,135.39c-24.94,52.45-72.53,90.171-112.75,130.53c-38.37,38.51-85.8,88.09-141.95,48.101
			c-25.22-17.95-36.94-49.841-63.26-66.78c-17.45-11.23-41.91-8.851-61.3-15.98c-20.07-7.38-38.82-18.33-60.24-21.56
			c-1.555-0.234-3.115-0.489-4.68-0.765c-1.143-0.2-2.29-0.424-3.438-0.646c-0.424-0.082-0.845-0.153-1.269-0.238
			c-0.94-0.188-1.884-0.397-2.828-0.6c-0.635-0.137-1.269-0.263-1.905-0.405c-0.863-0.193-1.729-0.406-2.593-0.611
			c-0.719-0.17-1.436-0.33-2.155-0.508c-0.992-0.246-1.986-0.512-2.98-0.771c-0.593-0.156-1.186-0.301-1.78-0.462
			c-1.042-0.281-2.083-0.583-3.126-0.881c-0.548-0.157-1.096-0.304-1.645-0.464c-0.993-0.292-1.987-0.603-2.981-0.908
			c-0.599-0.184-1.197-0.358-1.796-0.547c-1.065-0.337-2.129-0.692-3.194-1.045c-0.526-0.174-1.052-0.338-1.578-0.516
			c-1.145-0.388-2.29-0.794-3.433-1.199c-0.445-0.158-0.891-0.307-1.335-0.467c-1.214-0.438-2.427-0.895-3.64-1.353
			c-0.373-0.141-0.746-0.273-1.118-0.416c-1.172-0.448-2.342-0.915-3.512-1.382c-0.412-0.165-0.825-0.321-1.236-0.488
			c-1.213-0.49-2.421-1-3.63-1.51c-0.365-0.154-0.731-0.3-1.095-0.455c-1.273-0.545-2.542-1.105-3.809-1.67
			c-0.297-0.133-0.596-0.259-0.894-0.393c-1.312-0.59-2.619-1.197-3.924-1.809c-0.25-0.117-0.501-0.229-0.751-0.347
			c-1.384-0.653-2.763-1.324-4.138-2.002c-0.167-0.082-0.335-0.16-0.502-0.243c-1.418-0.702-2.829-1.42-4.235-2.147
			c-0.121-0.062-0.243-0.122-0.364-0.185l-0.057-0.029c-0.008-0.004-0.016-0.008-0.024-0.012c-0.168-0.087-0.338-0.17-0.506-0.258
			c-28.09-14.64-53.82-34.159-72.45-56.229c-7.562-8.964-13.842-18.707-19.121-28.98c0.007,0.017-0.008-0.016,0,0
			c2.956,6.072,67.722,146.989,74.945,162.842c7.241,15.889,25.336,81.932,12.065,91.288c-6.052,4.142-13.527,6.795-22.76,7.402
			c-25.925,1.705-53.794-25.745-70.531-42.141c-20.264-19.851-45.104-56.675-57.782-87.449c-0.086-0.038-0.171-0.074-0.257-0.112
			c-29.24-13.16-58.44-38.149-78.52-54.46c-34.58-28.09-69.17-62.21-85.13-104.75c-6.8-18.13-28.47-19.75-41.26-31.66
			c-20.76-19.359-35.48-54.199-48.12-79.21c-13.19-26.109-24.02-54.31-25.22-83.699c-0.19-4.431-0.15-8.891,0.13-13.37
			c2.64-41.99,64.19-77.96,24.15-118.681c-12.86-13.06-28.62-22.27-41.07-35.89c-8.5-9.3-16.94-18.62-25.52-27.8
			c-6.42-6.86-12.91-13.65-19.57-20.311c-35.24-35.22-71.46-69.43-106.56-104.79c-26.29-26.479-58.82-54.21-67.82-92.149
			c-5.38-22.681-9.96-40.97-25.75-56.86c-1.36-1.359-2.79-2.71-4.32-4.03c-15.39-13.399-26.48-30.43-7.53-48.449
			c8.02-7.63,17.78-14.07,25.9-21.03c39.55-33.94,81.69-64.72,121.24-98.67c53.33-45.79,93.55-103.68,156.62-137.69
			c50.23-27.09,105.03-47.72,157.55-69.979c65.15-27.601,139.33-74.12,211.7-76.17c74.56-2.12,155.91-32.311,219.14-72.38
			c31.08-19.69,52.17-42.87,72.42-73.16c27.97-41.84,61.87-73.3,111.37-86.59c46.92-12.601,95.45-0.641,125.15,40.54
			c4.99,6.909,9.64,14.59,12,22.449c8.88,29.5,0.78,63.301-14.83,89.021c-23.38,38.51-63.89,65.229-99.85,90.819
			c-42.69,30.391-71.94,62.301-103.94,103.62c-13.529,17.476-28.485,32.686-42.975,48.892c3.37-1.159,7.004-2.817,10.116-3.484
			c3.872-0.83,7.832-1.125,11.926-1.232c0.011-0.014,0.023-0.025,0.034-0.039l0.008-0.009c0.041-0.048,0.084-0.093,0.125-0.141
			c0.311-0.361,0.625-0.72,0.95-1.069c0.081-0.087,0.167-0.17,0.249-0.256c0.292-0.309,0.586-0.616,0.891-0.916
			c0.119-0.117,0.247-0.229,0.368-0.345c0.276-0.264,0.55-0.527,0.837-0.784c0.151-0.135,0.312-0.264,0.466-0.396
			c0.268-0.23,0.533-0.464,0.811-0.688c0.176-0.143,0.362-0.278,0.542-0.418c0.268-0.209,0.532-0.42,0.809-0.623
			c0.202-0.148,0.417-0.29,0.624-0.436c0.268-0.188,0.531-0.378,0.807-0.562c0.231-0.152,0.475-0.299,0.712-0.448
			c0.267-0.168,0.527-0.34,0.802-0.504c0.265-0.157,0.545-0.309,0.818-0.463c0.262-0.147,0.517-0.3,0.787-0.444
			c0.299-0.16,0.615-0.313,0.923-0.47c0.259-0.131,0.509-0.266,0.774-0.393c0.323-0.156,0.664-0.304,0.997-0.454
			c0.268-0.121,0.527-0.247,0.802-0.365c0.347-0.148,0.711-0.29,1.068-0.434c0.279-0.113,0.548-0.229,0.833-0.339
			c0.377-0.145,0.774-0.282,1.163-0.422c0.284-0.102,0.558-0.207,0.848-0.307c0.404-0.138,0.829-0.268,1.246-0.4
			c0.294-0.094,0.578-0.191,0.878-0.282c0.458-0.139,0.937-0.27,1.41-0.401c0.279-0.078,0.547-0.161,0.832-0.236
			c0.528-0.142,1.08-0.274,1.627-0.408c0.249-0.061,0.486-0.126,0.739-0.185c0.81-0.19,1.641-0.373,2.494-0.548
			c39.37-8.07,79.27,2.34,116.78,13.97c22.74,7.061,47.84,17.96,71.92,11.24c20.06-5.6,37.47-20.59,55.37-31.54
			c28.73-17.569,65.71-25.28,98.73-16.49c101.45,27.03,149.97,162.421,179.59,250.051
			C2736.82,6485.44,2726.25,6629.72,2692.58,6763.94z" color="15921648" style="fill:#f2f1f0;fill-opacity:1;stroke-width:10;stroke:rgb(0,0,0)"></path><path id="157964389" parent_id="157964387" order="2" structure_id="146034742" d="
			M1860.095,7291.731c-7.224-15.853-71.989-156.77-74.945-162.842c-0.008-0.016,0.007,0.017,0,0
			c-15.46-30.089-22.279-64.743-27.169-97.85c-10.44-70.59-15.5-142.04-12.13-213.39c2.81-59.41,8.65-127.511,42.56-183.771
			c16.31-27.05,38.41-49.62,61.81-73.5c20.86-21.3,42.43-43.32,60.2-69.29c9.65-14.09,18.18-28.7,26.44-42.82
			c7.87-13.479,15.31-26.21,23.6-38.46c8.73-12.909,20.08-23.75,32.1-35.229c10.5-10.03,21.36-20.41,31.2-32.85
			c21.4-27.07,37.23-57.131,52.55-86.2c14.87-28.221,38.39-55.971,50.41-84.49c2.038-4.835,3.78-9.311,5.501-13.431
			c0.027-0.064,0.054-0.132,0.081-0.195c0.216-0.515,0.431-1.019,0.646-1.521c0.076-0.18,0.153-0.363,0.229-0.541
			c0.199-0.46,0.398-0.908,0.599-1.359c0.094-0.211,0.187-0.429,0.281-0.638c0.196-0.436,0.395-0.86,0.593-1.286
			c0.1-0.215,0.198-0.436,0.299-0.648c0.192-0.405,0.388-0.8,0.583-1.197c0.11-0.225,0.219-0.455,0.33-0.677
			c0.203-0.402,0.411-0.794,0.617-1.188c0.108-0.205,0.214-0.417,0.323-0.62c0.212-0.394,0.431-0.776,0.648-1.161
			c0.11-0.194,0.218-0.395,0.33-0.588c0.224-0.384,0.456-0.758,0.686-1.133c0.113-0.184,0.222-0.372,0.336-0.553
			c0.246-0.389,0.501-0.766,0.756-1.144c0.106-0.158,0.209-0.322,0.317-0.479c0.272-0.394,0.556-0.776,0.84-1.158
			c0.1-0.133,0.193-0.271,0.294-0.402c0.306-0.401,0.625-0.792,0.945-1.181c0.083-0.101,0.16-0.205,0.244-0.305l0.023-0.027
			c0.012-0.014,0.023-0.029,0.035-0.043c-4.094,0.107-8.054,0.402-11.926,1.232c-3.111,0.667-6.746,2.325-10.116,3.484
			c-3.61,4.038-7.193,8.136-10.715,12.349c-42.9,51.29-63.09,117.75-104.57,170.21c-19.79,25.04-46.03,42.45-64.35,69.521
			c-17.81,26.33-31.99,54.93-49.96,81.17c-35.79,52.29-89.68,89.069-122.76,143.96c-35.72,59.25-42.78,127.399-45.98,195.029
			c-5.76,121.91,12.01,234.681,37.57,353.23c4.32,20.01,40.21,98.37-1.26,99.78c-11.889,0.407-24.499-3.045-37.103-8.698
			c12.678,30.774,37.518,67.599,57.782,87.449c16.737,16.396,44.606,43.846,70.531,42.141c9.233-0.607,16.708-3.261,22.76-7.402
			C1885.431,7373.663,1867.335,7307.62,1860.095,7291.731z" color="10069623" style="fill:#99a677;fill-opacity:1;stroke-width:10;stroke:rgb(0,0,0)"></path><path id="157964392" parent_id="157964387" order="3" structure_id="10335" d="M2691.92,6352.61
			c-29.62-87.63-78.14-223.021-179.59-250.051c-33.02-8.79-70-1.079-98.73,16.49c-17.9,10.95-35.31,25.94-55.37,31.54
			c-24.08,6.72-49.18-4.18-71.92-11.24c-37.51-11.63-77.41-22.04-116.78-13.97c-0.853,0.175-1.684,0.357-2.494,0.548
			c-0.253,0.059-0.49,0.124-0.739,0.185c-0.548,0.134-1.099,0.267-1.627,0.408c-0.285,0.075-0.553,0.158-0.832,0.236
			c-0.473,0.132-0.953,0.263-1.41,0.401c-0.301,0.091-0.584,0.188-0.878,0.282c-0.417,0.133-0.842,0.263-1.246,0.4
			c-0.29,0.1-0.563,0.205-0.848,0.307c-0.389,0.14-0.786,0.277-1.163,0.422c-0.285,0.109-0.555,0.226-0.833,0.339
			c-0.357,0.144-0.721,0.285-1.068,0.434c-0.274,0.118-0.534,0.244-0.802,0.365c-0.333,0.15-0.674,0.298-0.997,0.454
			c-0.265,0.127-0.516,0.262-0.774,0.393c-0.309,0.156-0.624,0.31-0.923,0.47c-0.27,0.145-0.525,0.297-0.787,0.444
			c-0.273,0.154-0.553,0.306-0.818,0.463c-0.275,0.164-0.535,0.336-0.802,0.504c-0.237,0.149-0.481,0.295-0.712,0.448
			c-0.276,0.184-0.539,0.374-0.807,0.562c-0.207,0.146-0.421,0.287-0.624,0.436c-0.277,0.203-0.541,0.414-0.809,0.623
			c-0.18,0.14-0.366,0.275-0.542,0.418c-0.277,0.225-0.542,0.458-0.811,0.688c-0.154,0.133-0.314,0.262-0.466,0.396
			c-0.287,0.257-0.561,0.521-0.837,0.784c-0.122,0.115-0.249,0.228-0.368,0.345c-0.305,0.3-0.599,0.607-0.891,0.916
			c-0.082,0.086-0.168,0.169-0.249,0.256c-0.325,0.35-0.639,0.708-0.95,1.069c-0.043,0.051-0.089,0.099-0.133,0.149l-0.069,0.082
			c-0.091,0.108-0.177,0.223-0.267,0.332c-0.321,0.389-0.64,0.779-0.945,1.181c-0.101,0.132-0.195,0.27-0.294,0.402
			c-0.284,0.382-0.567,0.765-0.84,1.158c-0.108,0.156-0.211,0.32-0.317,0.479c-0.255,0.378-0.51,0.755-0.756,1.144
			c-0.114,0.181-0.223,0.369-0.336,0.553c-0.23,0.375-0.462,0.749-0.686,1.133c-0.112,0.193-0.219,0.394-0.33,0.588
			c-0.218,0.385-0.437,0.768-0.648,1.161c-0.109,0.204-0.215,0.415-0.323,0.62c-0.207,0.395-0.415,0.786-0.617,1.188
			c-0.111,0.222-0.22,0.452-0.33,0.677c-0.195,0.397-0.391,0.792-0.583,1.197c-0.101,0.213-0.199,0.434-0.299,0.648
			c-0.198,0.426-0.397,0.851-0.593,1.286c-0.095,0.209-0.188,0.427-0.281,0.638c-0.2,0.451-0.4,0.899-0.599,1.359
			c-0.077,0.178-0.153,0.361-0.229,0.541c-0.216,0.503-0.431,1.006-0.646,1.521c-0.026,0.063-0.054,0.131-0.081,0.195
			c-1.721,4.12-3.463,8.596-5.501,13.431c-12.02,28.52-35.54,56.27-50.41,84.49c-15.32,29.069-31.15,59.13-52.55,86.2
			c-9.84,12.439-20.7,22.819-31.2,32.85c-12.02,11.479-23.37,22.32-32.1,35.229c-8.29,12.25-15.73,24.98-23.6,38.46
			c-8.26,14.12-16.79,28.73-26.44,42.82c-17.77,25.97-39.34,47.99-60.2,69.29c-23.4,23.88-45.5,46.45-61.81,73.5
			c-33.91,56.26-39.75,124.36-42.56,183.771c-3.37,71.35,1.69,142.8,12.13,213.39c4.89,33.106,11.709,67.761,27.169,97.85
			c5.278,10.273,11.559,20.017,19.121,28.98c18.63,22.07,44.36,41.59,72.45,56.229c0.129,0.067,0.258,0.132,0.387,0.197l0.143,0.072
			c0.14,0.072,0.281,0.142,0.421,0.214c1.406,0.728,2.817,1.445,4.235,2.147c0.167,0.082,0.335,0.161,0.502,0.243
			c1.375,0.678,2.753,1.349,4.138,2.002c0.25,0.118,0.501,0.229,0.751,0.347c1.305,0.611,2.612,1.219,3.924,1.809
			c0.297,0.134,0.596,0.26,0.894,0.393c1.267,0.564,2.536,1.125,3.809,1.67c0.364,0.155,0.73,0.302,1.095,0.455
			c1.208,0.51,2.417,1.02,3.63,1.51c0.411,0.167,0.825,0.323,1.236,0.488c1.17,0.467,2.34,0.934,3.512,1.382
			c0.372,0.143,0.746,0.275,1.118,0.416c1.212,0.458,2.425,0.915,3.64,1.353c0.445,0.16,0.89,0.309,1.335,0.467
			c1.144,0.405,2.288,0.812,3.433,1.199c0.526,0.178,1.051,0.342,1.578,0.516c1.064,0.353,2.129,0.708,3.194,1.045
			c0.599,0.188,1.197,0.363,1.796,0.547c0.994,0.306,1.988,0.616,2.981,0.908c0.549,0.16,1.097,0.307,1.645,0.464
			c1.042,0.298,2.084,0.6,3.126,0.881c0.594,0.161,1.187,0.306,1.78,0.462c0.994,0.26,1.988,0.525,2.98,0.771
			c0.719,0.178,1.437,0.338,2.155,0.508c0.865,0.205,1.73,0.418,2.593,0.611c0.637,0.143,1.27,0.269,1.905,0.405
			c0.943,0.202,1.887,0.411,2.828,0.6c0.424,0.085,0.845,0.156,1.269,0.238c1.147,0.223,2.295,0.446,3.438,0.646
			c1.564,0.275,3.125,0.53,4.68,0.765c21.42,3.229,40.17,14.18,60.24,21.56c19.39,7.13,43.85,4.75,61.3,15.98
			c26.32,16.939,38.04,48.83,63.26,66.78c56.15,39.989,103.58-9.591,141.95-48.101c40.22-40.359,87.81-78.08,112.75-130.53
			c20.86-43.859,31.6-91.789,53.01-135.39c30.84-62.81,81.29-116.58,138.72-156.02c25.62-17.591,60.26-23.221,83.07-44.061
			c17.65-16.109,19.9-44.12,25.41-66.109C2726.25,6629.72,2736.82,6485.44,2691.92,6352.61z" color="9543790" style="fill:#91a06e;fill-opacity:1;stroke-width:10;stroke:rgb(0,0,0)"></path></g><g id="157964416" order="0" group_label_id="113753816" group_label="Atlas - Developing Human Sulci" sub_image_id="111257617"><path id="157964425" parent_id="157964416" order="0" structure_id="10639" d="M3549.31,785.536c-0.572,0.148,33.746,23.73,33.746,23.73
			s40.12-8.412,40.52-7.801c0.398,0.611-55.329,80.421-56.013,80.033C3566.879,881.11,3549.88,785.389,3549.31,785.536z" color="7171696" style="fill:#6d6e70;fill-opacity:1;stroke-width:10;stroke:rgb(0,0,0)"></path><path id="157964424" parent_id="157964416" order="1" structure_id="10631" d="M7663.832,3660.337c-0.538-0.242,11.48,39.625,11.48,39.625
			s36.562,18.537,36.491,19.264c-0.071,0.726-93.476,28.125-93.767,27.395C7617.747,3745.89,7664.369,3660.579,7663.832,3660.337z" color="7171696" style="fill:#6d6e70;fill-opacity:1;stroke-width:10;stroke:rgb(0,0,0)"></path><path id="157964423" parent_id="157964416" order="2" structure_id="13222" d="M5223.271,8994.393c0.403-0.43-41.208-1.972-41.208-1.972
			s-29.378,28.587-30.043,28.285c-0.665-0.303,3.665-97.547,4.451-97.587C5157.256,8923.082,5222.867,8994.822,5223.271,8994.393z" color="7171696" style="fill:#6d6e70;fill-opacity:1;stroke-width:10;stroke:rgb(0,0,0)"></path><path id="157964422" parent_id="157964416" order="3" structure_id="13221" d="M3174.913,9812.207c0.448-0.384-40.738-6.509-40.738-6.509
			s-32.354,25.169-32.982,24.796c-0.627-0.374,14.411-96.547,15.197-96.499C3117.174,9734.045,3174.465,9812.589,3174.913,9812.207z
			" color="7171696" style="fill:#6d6e70;fill-opacity:1;stroke-width:10;stroke:rgb(0,0,0)"></path><path id="157964421" parent_id="157964416" order="4" structure_id="10624" d="M1384.46,10536.668c0.478-0.345-40.076-9.791-40.076-9.791
			s-34.292,22.459-34.887,22.035c-0.594-0.423,22.199-95.058,22.979-94.946
			C1333.255,10454.078,1383.981,10537.014,1384.46,10536.668z" color="7171696" style="fill:#6d6e70;fill-opacity:1;stroke-width:10;stroke:rgb(0,0,0)"></path><path id="157964419" parent_id="157964416" order="5" structure_id="10615" d="M263.047,3765.741c0.259,0.53,16.481-37.819,16.481-37.819
			s-16.286-37.618-15.768-38.131c0.519-0.514,89.883,38.078,89.639,38.826C353.157,3729.363,262.788,3765.211,263.047,3765.741z" color="7171696" style="fill:#6d6e70;fill-opacity:1;stroke-width:10;stroke:rgb(0,0,0)"></path><path id="157964420" parent_id="157964416" order="6" structure_id="10615" d="M437.96,8869.331c0.386,0.444,6.183-40.789,6.183-40.789
			s-25.426-32.153-25.058-32.784c0.369-0.63,96.658,13.641,96.617,14.427C515.659,8810.97,437.573,8868.885,437.96,8869.331z" color="7171696" style="fill:#6d6e70;fill-opacity:1;stroke-width:10;stroke:rgb(0,0,0)"></path><path id="157964418" parent_id="157964416" order="7" structure_id="10613" d="M284.631,5339.224c-0.026,0.589,32.562-25.331,32.562-25.331
			s3.688-40.825,4.39-41.028c0.701-0.204,60.724,76.429,60.153,76.969S284.657,5338.634,284.631,5339.224z" color="7171696" style="fill:#6d6e70;fill-opacity:1;stroke-width:10;stroke:rgb(0,0,0)"></path></g></g></svg>
