<svg id="the_svg_wrapper" class="svg_wrapper" width="100%" height="100%" version="1.1" xmlns="http://www.w3.org/2000/svg"><g id="master_group" transform="translate(0,0) scale(0.0546875)" width="49760" height="58080" image_id="102339949" image_url="/external/devhuman/prod14/3760000274/3760000274.aff"><g id="157960545" order="0" group_label_id="31" group_label="Atlas - Developing Human" sub_image_id="102339949"><clippath><path id="zap_container_graphics_clip" d="M 0 0 L 1498 0 L 1498 312 L 0 312 L 0 0" style="fill:#000NaN;fill-opacity:1;stroke-width:10;stroke:rgb(0,0,0)"></path></clippath><path id="157960547" parent_id="157960545" order="0" structure_id="10557" d="M5884.012,4175.508c-2.084,33.034-25.23,41.355-53.588,48.498
			c-38.279,9.645-77.494,6.605-114.92,18.416c-31.187,9.842-60.094,25.033-87.562,42.602c-11.128,7.115-22.737,10.076-33.003,18.906
			c-11.007,9.469-20.012,21.063-31.221,30.311c-46.311,38.205-87.166,86.338-120.943,136.334
			c-16.427,24.313-32.104,49.17-46.297,74.857c-7.066,12.791-14.07,25.775-19.986,39.146c-5.16,11.664-12.246,20.949-18.242,32.143
			c-5.584,10.424-9.033,20.877-14,31.025c-18.854,38.53-36.354,77.313-52.998,116.752c-8.385,19.869-17.922,39.643-25.474,59.776
			c-10.921,29.115-22.571,59.138-31.909,88.756c-9.393,29.804-14.766,59.951-22.086,90.244
			c-10.059,41.615-21.025,83.49-25.836,126.162c-3.169,28.112-6.282,56.168-7.727,85.063c-0.729,14.56-0.513,28.342-1.221,43.002
			c-2.496,51.73-0.654,103.181,1.999,154.992c1.116,21.785,4,42.834,4,65.002c0,27.629-3.968,56.701-8.002,84.019
			c-3.83,25.931-11.394,50.172-23.188,73.502c-5.846,11.565-10.514,24.565-19.084,34.476c-17.41,20.125-57.168,23.221-81.824,24.69
			c-33.688,2.013-67.275-2.688-100.949-2.685c-30.799,0.002-61.595-2.229-91.724,1.06c-62.082,6.772-117.903,26.813-174.233,52.701
			c-23.756,10.918-47.842,23.121-70.041,36.979c-13.977,8.728-29.098,17.752-41.359,29.224
			c-17.01,15.91-31.212,33.584-47.641,50.022c-8.965,8.974-13.97,20.465-22.961,29.008c-7.605,7.229-15.568,13.652-22.76,21.26
			c-17.438,18.449-33.027,39.814-49.737,59.222c-14.875,17.272-28.368,34.858-41.878,53.019
			c-9.635,12.946-19.1,25.225-30.652,36.559c-25.891,25.395-61.192,45.902-96.989,55.475c-15.662,4.188-30.256,1.479-46.966,1.479
			c-50.598-0.002-101.262,2.137-151.957,1.996c-25.302-0.068-50.557,3.359-75.553,4c-31.455,0.807-61.857,3.965-93.063,5.502
			c-29.91,1.473-61.046,3.074-90.437,4.502c-41.916,2.039-81.097,9.59-120,25.256c-13.093,5.271-25.729,11.455-38.002,18.477
			c-22.472,12.854-43.489,26.527-63.49,43.269c-18.715,15.662-39.839,29.176-58.513,45.494
			c-18.473,16.142-37.063,32.752-55.988,48.746c-9.691,8.19-19.016,15.33-29.294,22.506c-23.993,16.746-45.884,28.67-73.717,38.022
			c-34.994,11.761-77.216-3.789-111.999-9.006c-35.855-5.375-70.605-15.996-105.203-26.543
			c-31.362-9.561-65.829-20.588-98.701-22.895c-16.928-1.188-33.947,3.016-50.111,7.707c-21.154,6.141-44.901,10.467-66.642,13.611
			c-24.06,3.479-47.506,13.067-70.303,21.375c-21.379,7.791-42.343,16.53-62.936,25.975
			c-45.101,20.682-82.763,47.354-120.778,79.234c-33.845,28.381-63.957,60.893-91.515,95.244
			c-5.028,6.271-9.982,12.596-14.85,18.975c-14.523,19.041-28.013,36.621-39.931,56.563
			c-24.006,40.166-49.138,78.555-68.756,121.217c-24.332,52.916-46.186,108.104-55.062,165.994
			c-8.05,52.49-11.205,107.467-11.213,160.78c-0.004,27.413-3.687,53.044-5.007,79.985c-2.066,42.103,6.365,88.229-9.991,128.008
			c-9.054,22.021-29.216,37.61-49,50.002c-43.827,27.445-96.048,46.752-139.935,73.93c-38.843,24.055-72.707,42.146-110.065,68.07
			c-16.438,11.405-38.951,25.263-54.604,37.013c-22.898,17.19-45.933,34.756-68.567,52.222
			c-21.179,16.338-45.421,34.854-70.968,44.037c-29.86,10.729-55.899,24.928-86.86,12.729c-33-13-62.361-27.791-60-66
			c2.505-40.539,39.295-84.058,73-102c74.602-39.715,122.851-77.229,161-101c27.751-17.291,58-36,90.526-58.953
			c19.766-13.946,39.793-40.004,52.97-60.06c9.532-14.508,20.188-26.938,29.959-40.806c17.606-24.987,32.924-53.104,42.327-82.181
			c4.898-15.146,9.459-30.642,11.621-46.447c1.927-14.089,6.314-28.587,5.603-43.043c-2.676-54.211-20.615-112.52-43.012-161.566
			c-21.115-46.244-55.146-88.149-87.757-127.188c-13.148-15.742-23.95-35.248-28.246-54.745
			c-2.222-10.082-3.562-20.363-3.014-31.507c0.979-19.938,4.062-34.858,16.049-51.438c26.304-36.375,64.429-55.19,101.449-78.701
			c17.307-10.986,34.32-21.684,51.803-32.574c27.863-17.359,58.733-37.463,77.523-64.72c6.752-9.795,14.732-18.624,22.085-27.953
			c12.769-16.2,25.687-31.776,36.33-48.903c5.697-9.168,10.754-18.771,14.765-29.172c5.877-15.244,9.717-30.929,12.782-46.278
			c6.382-31.938,7.06-64.665,3.468-97.763c-4.367-40.248-22.017-75.629-40.955-110.97c-12.007-22.403-26.875-44.422-42.767-63.981
			c-24.649-30.342-56.405-54.361-89.632-74.574c-17.007-10.346-34.595-19.725-52.498-28.41
			c-52.343-25.395-111.152-39.5-168.288-51.556c-22.229-4.69-45.225-10.92-67.484-14.562c-11.018-1.801-22.354-2.563-33.052-4.901
			c-41.277-9.026-85.922-14.36-123.771-33.994c-33.416-17.334-56.426-49.802-74.07-82.06
			c-24.387-44.572-33.862-97.049-38.709-146.244c-6.087-61.764-26.879-116.155-44.538-174.785
			c-5.729-19.024-8.197-39.379,14.918-42.024c31.534-3.606,66.938,36.37,88.399,56.351c33.603,31.277,74.975,38.215,115.183,56.735
			c22.19,10.224,44.659,23.396,64.668,37.354c22.395,15.621,52.147,22.354,77.363,32.619c30.938,12.595,61.63,20.828,94.313,26.535
			c29.556,5.16,57.767,15.389,87.304,19.641c15.922,2.292,29.311-1.04,44.979-4.193c49.99-10.063,93.871-29.455,139.971-51.021
			c2.664-1.248,5.303-2.534,7.93-3.84c12.969-6.444,25.494-13.61,37.48-21.812c21.077-14.42,43.223-30.459,61.639-48.295
			c10.517-10.187,19.932-25.422,27.238-37.953c9.662-16.578,17.137-36.535,21.729-55.045c4.795-19.321,8.969-38.845,10.014-59.02
			c1.688-32.6,1.359-69.956-5.223-101.027c-6.638-31.328-15.873-61.101-20.772-92.899c-6.237-40.472,4.666-64.885,35.082-92.366
			c16.027-14.48,34.338-26.734,53.608-36.459c17.155-8.654,35.131-12.993,51.233-23.477c11.769-7.681,23.634-13.494,36.047-20.01
			c11.283-5.922,21.232-12.797,32.05-18.998c13.693-7.852,26.867-16.549,40.065-25.189c11.935-7.813,24.931-12.169,37.066-19.695
			c32.485-20.147,67.341-51.703,84.377-86.373c15.782-32.127,24.977-65.436,38.719-97.482c7.729-18.021,14.275-36.921,20.264-55.396
			c2.781-8.578,5.318-16.992,7.504-25.609c6.164-24.316,1.646-49.684-1.966-74.008c-4.939-33.289-12.868-68.536-23.084-100.014
			c-12.313-37.935-34.243-76.746-58.735-108.229c-12.093-15.544-26.184-29.445-41.754-41.493
			c-57.138-44.209-129.594-57.858-200.47-61.267c-31.541-1.519-63.618-0.646-94.95,2.018c-23.871,2.027-48.395,5.913-71.009,13.997
			c-26.088,9.325-51.339,14.155-78.14,20.993c-35.295,9.004-69.684,23.669-104.896,32.02c-27.993,6.639-54.25,17.646-81.043,29.226
			c-31.437,13.581-102.023,38.569-121.084,44.209c-73.869,21.854,9.31-88.726,40.973-112.36
			c13.199-9.854,25.562-22.748,37.563-34.008c11.708-10.986,24.481-19.272,36.59-29.809c25.893-22.523,51.807-45.499,80.408-64.861
			c15.6-10.563,31.458-21.971,47.581-31.406c24.695-14.454,47.608-30.928,73.029-44.262c34.8-18.252,65.771-41.491,103.972-52.783
			c16.782-4.961,34.837-11.189,51.469-17.061c33.303-11.752,65.764-21.423,100.029-29.417
			c42.313-9.873,87.246-18.042,127.491-32.767c24.418-8.935,51.892-10.538,75.51-21.479c14.544-6.733,29.271-13.794,43.703-21.033
			c43.453-21.799,76.426-61.678,94.459-106.371c31.802-78.811-0.125-190.293-69.957-239.461
			c-32.155-22.639-64.43-48.989-99.812-67.888c-58.803-31.405-119.943-60.189-184.949-76.123
			c-28.104-6.888-54.767-6.05-82.596-10.18c-32.399-4.81-64.104-10.931-97.063-10.319c-28.763,0.534-57.313,4.424-85.946,6.79
			c-40.886,3.378-81.923,7.13-121.964,16.431c-42.024,9.763-82.797,19.996-123.383,34.162
			c-75.854,26.479-156.743,50.457-222.189,98.238c-36.583,26.708-70.448,55.396-101.835,87.883
			c-16.877,17.472-33.117,35.066-56.648,43.265c-57.908,20.171-32.895-77.403-26.979-103.7c7.577-33.682,7.699-68.398,7.745-102.705
			c0.047-34.673,15.575-62.371,24.595-95.452c8.731-32.03,25.83-67.762,45.142-94.758c7.385-10.323,16.126-18.596,25.552-26.962
			c7.521-6.678,12.291-12.835,21.621-16.748c9.684-4.063,19.743-8.288,29.499-13.197c22.597-11.371,46.61-20.623,69.978-30.386
			c33.306-13.917,65.396-30.405,98.524-44.521c18.356-7.82,37.415-13.701,55.505-22.207c19.64-9.233,39.26-19.121,58.717-28.735
			c15.229-7.524,29.229-15.568,43.779-23.774c45.381-25.592,86.938-63.391,119.502-103.988
			c32.926-41.049,62.15-85.729,83.922-133.938c12.845-28.443,24.107-62.006,30.197-92.575c7.144-35.86,17.538-74.648,15.783-111.489
			c-1.013-21.238-4.155-40.85-7.053-61.511c-2.018-14.39-2.295-26.963-7.324-40.758c-5.668-15.546-12.457-30.594-18.423-46.021
			c-10.34-26.729-26.235-46.9-43.204-69.224c-13.173-17.327-30.068-32.841-46.253-47.753
			c-18.489-17.033-35.958-32.158-55.672-47.349c-13.764-10.604-31.858-18.752-47.312-26.675
			c-26.336-13.504-53.827-24.372-79.811-37.973c-18.923-9.903-39.379-16.741-57.735-27.763
			c-17.354-10.418-34.211-19.993-52.653-28.513c-29.297-13.532-60.635-21.842-90.344-34.339
			c-25.397-10.687-54.134-23.582-69.948-46.859c-21.82-32.118-27.679-71.491-27.291-110.29c0.215-21.525,4.784-43.877,7.982-65.512
			c3.021-20.419,6.084-41.076,8.013-61.446c2.129-22.461,11.082-43.626,11.026-66.525c-0.032-13.243,0.832-25.983,1.988-39.001
			c2.431-27.327,2.032-55.659,3.016-83.494c0.919-26.035,5.331-52.266,4.032-78.51c-1.27-25.635-5.793-50.536-7.038-75.492
			c-2.043-40.918-8.048-80.703-10.001-121.506c-0.886-18.492-3.213-36.967-5.495-55.002c-4.566-36.077-6.808-72.765-10.507-109.495
			c-2.413-23.951-4.033-45.331,4.792-68.579c6.339-16.696,16.126-33.012,27.306-47.313c21.777-27.854,56.654-34.694,89.822-37.617
			c36.779-3.237,76.131,14.036,105.033,35.232c14.861,10.899,30.491,28.7,41.323,43.57c14.056,19.295,24.985,43.493,35.972,64.979
			c7.588,14.842,16.877,29.462,25.227,43.75c17.879,30.605,29.673,64.229,48.365,94.754c15.666,25.583,33.404,46.356,52.543,69.292
			c11.627,13.936,28.568,24.719,42.126,36.494c46.099,40.045,100.907,66.685,162.489,65.938c24.121-0.293,47.304,0.248,70.164-7.238
			c26.957-8.829,55.004-14.497,80.836-26.535c23.631-11.012,48.979-19.117,71.98-31.825c29.729-16.424,57.582-36.95,87.489-52.657
			c14.724-7.731,34.076-10.777,50.504-13.788c37.748-6.919,76.556-7.58,114.704-3.993c27.022,2.542,53.254,8.322,78.297,17.968
			c10.757,4.145,21.369,8.698,32.162,12.844c26.041,10.003,52.149,23.512,76.865,36.5c39.414,20.712,77.748,45.028,120.96,57.21
			c19.117,5.392,38.55,6.328,57.259,12.468c23.827,7.819,49.42,12.896,73.811,18.825c11.895,2.895,23.697,5.303,35.472,8.136
			c26.431,6.357,52.58,14.989,79.505,19.308c33.416,5.357,65.18,10.895,97.992,20.771c16,4.815,32.334,6.859,48.504,10.009
			c25.979,5.058,48.35,8.935,61.168,34.807c10.556,21.304,9.531,48.945-13.646,61.179c-19.097,10.076-45.623,11.377-66.55,15.06
			c-27.909,4.911-55.907,8.101-83.976,10.953c-32.51,3.302-65.014,1.309-97.496,3.003c-21.193,1.104-44.027,2.034-65.003,4.955
			c-37.314,5.195-76.29,11.238-113.001,21.021c-26.703,7.115-52.535,17.347-77.324,29.512
			c-11.216,5.504-21.246,12.392-31.969,18.312c-11.021,6.086-23.551,9.052-34.496,15.458c-14.451,8.46-29.104,16.712-43.664,25.271
			c-27.296,16.043-53.212,34.494-81.551,49.212c-22.781,11.829-44.784,25.402-65.43,40.301
			c-37.562,27.104-60.644,59.963-85.96,97.641c-24.19,36.003-46.291,79.398-56.903,121.896c-4.9,19.626-7.697,40.358-9.691,60.949
			c-1.92,19.836,0.988,39.635,0.015,59.472c-2.671,54.38,13.806,102.241,33.479,151.896c11.478,28.968,24.399,57.018,34.906,86.411
			c4.457,12.466,12.914,22.958,20.744,33.667c2.766,3.783,5.454,7.592,7.856,11.525c21.366,34.97,51.508,55.056,83.991,78.5
			c15.185,10.959,29.773,22.77,46.258,31.757c23.043,12.562,46.479,25.015,71.663,32.752c19.782,6.077,45.357,13.157,66.071,13.471
			c23.138,0.35,47.048,3.789,70.045,6.991c16.006,2.229,32.504,1.807,48.959,0.988c16.291-0.812,31.177,2.582,46.998,1
			c28.851-2.887,57.584-1.592,86.418-2.654c30.666-1.13,60.791-7.484,91.17-11.266c27.348-3.402,55.112-4.834,82.366-9.09
			c18.985-2.964,38.419-7.226,57.358-11.045c38.463-7.757,75.834-14.079,115.066-17.913c21.403-2.092,46.728-3.11,68.002,0.095
			c33.112,4.987,66.52,4.777,99.616,9.822c35.216,5.368,69.486,15.351,103.947,24.122c27.641,7.036,54,17.343,81.06,26.247
			c23.848,7.848,45.694,16.68,67.692,28.989c33.015,18.476,66.867,28.598,97.317,51.521c30.123,22.676,61.638,42.552,90.441,67.142
			c12.498,10.667,22.377,22.075,35.684,31.812c23.57,17.248,38.004,39.257,57.642,60.271c20.633,22.078,45.951,39.824,67.25,61.21
			c18.612,18.688,38.729,35.354,59.217,51.908c18.297,14.782,29.328,36.064,41.504,55.88c14.842,24.156,33.301,58.397,3.026,79.767
			c-19.686,13.893-49.018,16.561-71.766,21.302c-12.104,2.522-24.705,5.095-37.014,6.927c-39.51,5.883-79.127,6.086-118.209,16.245
			c-47.211,12.271-87.851,35.076-129.041,60.744c-20.168,12.566-41.263,27.562-59.279,43.528
			c-21.076,18.679-42.08,36.393-62.002,55.52c-5.295,5.085-10.438,10.562-15.479,15.95c-7.983,8.525-15.524,17.248-22.974,25.986
			c-28.143,33.02-51.438,68.469-71.491,106.571c-12.008,22.812-21.414,46.863-32.674,70.036
			c-10.908,22.454-26.292,40.908-38.377,62.416c-5.971,10.625-11.992,21.607-17.476,32.488
			c-22.099,43.855-46.347,88.529-79.77,124.74c-40.215,43.57-70.764,95.055-110.463,138.744
			c-9.922,10.919-19.51,21.697-28.752,33.023c-26.353,32.291-48.403,68.949-69.018,105.021
			c-31.027,54.299-39.943,122.123-45.953,183.38c-3.694,37.676-1.002,76.562,0.948,114.601c2.052,39.996,4.191,80.035,6.002,119.992
			c0.97,21.455,6.738,43.801,12.134,64.625c9.287,35.85,33.45,66.971,56.117,96.058c10.176,13.058,18.11,26.248,31.541,36.589
			c25.926,19.961,58.752,30.131,89.079,39.938c33.257,10.754,66.259,13.459,102.66,11.732c19.009-0.9,36.004-2.62,54.004-5.863
			c7.82-1.408,15.702-3.688,23.367-6.051c13.519-4.164,23.078-7.902,35.522-14.14c5.814-2.921,10.77-6.063,15.571-10.325
			c19.652-17.432,39.782-34.172,59.009-52.082c10.124-9.432,19.462-18.573,28.278-29.248c17.646-21.367,34.213-42.736,52.278-64.005
			c27.185-32,56.41-61.026,84.633-91.938c22.89-25.07,44.842-50.893,68.629-75.088c16.571-16.856,32.47-38.771,51.321-52.939
			c6.996-5.26,14.111-7.771,20.457-14.422c7.205-7.552,12.912-16.441,20.601-23.555c13.354-12.356,27.312-23.025,39.554-36.526
			c24.727-27.271,51.387-53.065,77.235-79.337c22.207-22.566,47.61-43.229,71.013-64.615c10.744-9.818,19.207-20.891,30.489-30.275
			c20.771-17.281,41.824-35.578,61.726-53.551c13.758-12.424,28.819-24.542,45.309-33.17c13.205-6.912,27.092-7.121,41.736-7.818
			c13.162-0.629,39.44-11.682,38.28,11.293c-0.696,13.813-12.799,26.739-20.317,37.502c-8.461,12.11-12.816,24.783-19.879,36.988
			c-8.117,14.037-22.658,26.87-34.097,38.212c-26.188,25.974-54.226,48.979-80.304,74.828
			c-38.362,38.021-77.227,74.302-113.562,114.612c-15.853,17.588-33.422,34.394-49.354,51.551
			c-11.289,12.158-25.229,21.551-36.403,33.83c-10.951,12.033-19.004,26.752-30.625,38.207c-9.476,9.336-17.994,17.078-25.75,28.227
			c-23.164,33.289-50.647,64.081-74.649,97.259c-12.482,17.257-24.732,34.155-35.605,52.515
			c-10.516,17.752-22.492,34.067-32.287,52.189c-11.414,21.117-17.475,45.082-31.936,64.557
			c-28.756,38.719-58.097,76.429-92.924,109.707c-25.009,23.895-51.073,44.119-80.396,62.095
			c-14.662,8.987-23.965,25.242-38.821,33.175c-21.575,11.518-46.541,18.518-69.794,23.354
			c-23.264,4.84-47.024,11.035-69.918,17.455c-20.111,5.64-40.581,10.818-60.686,17.688c-18.34,6.267-36.717,10.968-55.238,16.78
			c-12.771,4.01-26.188,5.979-38.703,10.818c-10.594,4.096-18.297,8.927-29.265,12.15c-10.971,3.229-21.493,8.031-32.049,12.021
			c-35.86,13.559-71.902,28.27-107.334,41.495c-22.742,8.489-45.015,19.097-67.423,28.503
			c-35.115,14.743-70.263,33.541-103.166,52.729c-41.103,23.967-78.959,51.295-116.004,80.023
			c-16.937,13.137-35.652,24.922-52.979,37.766c-40.438,29.972-80.17,61.11-111.273,101.47c-13.104,17-28.934,32.655-37.903,52.478
			c-6.632,14.658-16.79,29.196-17.929,45.672c-1.216,17.606-6.466,33.701-9.951,51.408c-6.287,31.933-9.478,65.402-4.008,97.693
			c0.828,4.891,1.879,9.561,3.148,14.036c7.254,25.538,21.873,44.61,45.689,60.166c9.774,6.383,19.741,12.242,29.384,18.626
			c12.269,8.122,28.229,10.046,41.987,14.725c15.825,5.377,36.218,7.765,52.271,9.209c25.873,2.328,49.893,1.358,75.739,6.03
			c14.476,2.616,29.771-0.401,44.282-1.019c14.243-0.602,28.543,0.078,42.524,0.959c19.519,1.229,38.944-2.881,58.377-3.946
			c19.002-1.043,37.129,2.842,56.159,1.961c75.302-3.49,151.285-6.586,225.454-15.041c33.743-3.847,67.618-3.373,100.944-9.983
			c51.422-10.203,103.588-15.508,154.534-25.945c15.289-3.133,30.977-7.725,46.724-11.262c32.062-7.201,65.198-16.967,96.746-27.717
			c28.979-9.877,58.813-16.697,88.226-25.234c36.176-10.5,70.537-26.154,104.84-41.512c32.504-14.551,67.151-25.691,97.914-43.535
			c28.269-16.396,54.481-35.603,83.558-51.246c53.147-28.604,95.86-73.945,133.244-120.506
			c10.539-13.129,22.711-24.826,34.026-37.313c19.793-21.844,38.854-43.156,57.668-65.854c10.47-12.629,18.213-26.511,27.795-39.545
			c8.949-12.174,20.533-23.063,29.756-35.285c3.483-4.619,6.651-10.17,10.25-14.979c7.815-10.455,14.19-21.475,20.972-32.188
			c27.117-42.854,53.586-84.573,81.055-127.646c15.764-24.717,33.631-47.555,47.443-73.193
			c5.879-10.912,10.961-22.719,18.033-33.229c34.047-50.601,69.021-100.707,104.297-150.565
			c10.104-14.283,20.979-27.545,31.701-41.201c8.313-10.586,20.168-18.228,27.576-29.597c9.119-13.996,19.41-26.498,30.729-39.174
			c21.222-23.765,44.354-44.192,66.696-66.508c7.109-7.103,13.773-13.476,20.76-20.737c14.357-14.929,28.465-30.086,40.265-47.037
			c12.342-17.732,23.83-35.375,37.084-52.519c19.045-24.638,40.635-47.726,58.354-73.403c14.492-21.002,28.061-42.621,41.512-64.299
			c10.971-17.679,17.787-37.693,27.381-56.103c6.311-12.103,16.564-22.155,21.273-35.131c4.867-13.41,9.055-26.522,15.227-39.679
			c14.395-30.68,31.691-60.33,40.369-93.34c4.043-15.375,5.242-29.748,6.979-46.526c4.438-42.957-0.203-86.713,4.099-129.998
			c2.955-29.738,12.961-65.312,41.437-80.938c17.801-9.771,37.315-8.641,56.717-5.701c9.252,1.402,19.117,2.123,28.215,4.156
			c8.391,1.875,14.932,6.521,23.155,9.229c7.328,2.41,15.14,3.261,22.41,5.813c31.69,11.147,60.76,31.514,85.799,53.757
			c26.631,23.657,51.474,47.851,75.72,73.743c19.83,21.177,42.449,47.76,52.508,74.959
			C5884.506,4142.336,5885.057,4158.955,5884.012,4175.508z M3490.857,3048.127c14.885-13.884,34.18-24.128,52.061-33.525
			c36.072-18.957,75.303-32.26,110.085-53.627c38.098-23.402,67.806-59.883,107.469-80.073
			c36.586-18.624,86.607-39.395,128.443-31.31c35.614,6.883,76.839,31.859,103.093,55.902
			c39.072,35.787,41.284,71.188,33.098,122.083c-3.098,19.257-6.86,47.201-17.271,63.985c-10.848,17.486-31.963,20.5-50.197,28.955
			c-26.47,12.271-42.205,39.037-67.229,55.419c-84.575,55.362-219.088,64.403-315.965,44.092
			c-37.25-7.81-87.11-12.867-112.521-45.021C3431.086,3135.986,3458.967,3077.874,3490.857,3048.127z" color="15921648" style="fill:#f2f1f0;fill-opacity:1;stroke-width:10;stroke:rgb(0,0,0)"></path></g><g id="157960549" order="0" group_label_id="113753815" group_label="Atlas - Developing Human Gyri" sub_image_id="102339949"><path id="157960557" parent_id="157960549" order="0" structure_id="146034884" d="
			M6514.939,4761.354c1.582-76.564-2.514-155.397-10.725-228.763c-6.126-54.735-9.006-109.489-21.855-163.24
			c-12.35-51.642-27.549-102.479-42.797-153.317c-13.153-43.861-19.147-88.304-34.574-132.629
			c-17.896-51.42-36.373-102.53-65.943-150.262c-50.963-82.256-112.381-159.084-190.045-217.646
			c-30.215-22.784-57.906-50.459-90.057-71.507c-15.168-9.931-30.498-19.682-46-29.998c-37.944-25.254-79.233-43.918-123.877-53.323
			c-22.176-4.673-45.121-7.563-67.793-5.632c-17.336,1.478-34.254,7.396-51.426,10.127c-18.951,3.017-38.17,4.216-57.351,4.216
			c-26.257,0-51.521-2.308-73.153-5.273c-17.75-2.434-35.402-5.599-52.914-9.388c-16.906-3.659-33.703-8.711-51.192-7.27
			c-19.946,1.646-40.269,1.527-59.642,7.182c-2.984,0.871-6.123,2.113-9.256,2.406c-9.688,0.903-19.599,2.371-29.457,2.646
			c-13.135,0.365-26.362-0.832-39.615,0.345c-9.342,0.83-18.537,2.227-27.865,3.026c-13.197,1.134-26.332-0.171-39.479,1.881
			c-6.581,1.027-13.485,0.634-20.422,0.074c-69.956,515.679-251.535,793.683-302.04,862.652c5.089,3.779,1.611,13.226-2.706,17.576
			c-13.726,13.836-30.987,18.166-46.033,28.985c-7.626,5.483-15.201,10.806-22.763,16.375
			c-18.326,13.498-34.662,30.028-51.039,45.759c-9.893,9.501-20.119,19.325-30.592,28.637
			c-18.537,16.476-38.117,32.905-57.056,48.797c-11.354,9.528-23.101,19.383-34.417,29.08c-5.186,4.441-10.482,8.924-15.609,13.258
			c-20.688,17.49-42.076,35.576-61.051,55.498c-20.526,21.556-41.646,47.679-61.07,75.547c-6.742,9.674-13.077,19.883-19.203,29.754
			c-5.93,9.555-10.926,19.6-15.743,29.738c-4.188,8.816-8.242,17.704-12.655,26.4c-6.291,12.398-15.015,23.297-21.746,35.43
			c-10.021,18.063-19.648,36.293-30.529,54.029c-12.918,21.058-30.909,40.321-45.991,60.022
			c-11.115,14.521-26.416,26.091-40.259,37.714c-13.42,11.27-25.537,23.445-37.085,36.104
			c-17.149,18.799-33.045,38.654-50.084,58.148c-38.426,43.962-86.032,78.932-137.565,106.145
			c-26.438,13.959-53.172,27.301-81.389,37.308c-15.525,5.506-31.368,10.147-46.753,16.051
			c-10.491,4.024-21.256,8.817-31.907,13.793c-8.68,4.056-17.283,8.229-25.604,12.207c-26.91,12.903-53.705,24.2-83.053,31.426
			c-29.91,7.362-57.15,17.565-86.097,28.116c-37.839,13.79-75.841,27.152-113.323,42.135c-19.541,7.813-40.846,8.68-60.914,15.052
			c-27.202,8.64-52.861,18.365-80.013,27.626c-9.483,3.234-49.987,18.479-51.228-1.941l-540.828,220.338
			c7.253,25.537,21.873,44.61,45.689,60.166c9.773,6.383,19.74,12.242,29.384,18.625c12.268,8.123,28.229,10.047,41.987,14.724
			c15.824,5.378,36.218,7.765,52.271,9.21c25.874,2.328,49.894,1.359,75.74,6.031c14.475,2.615,29.771-0.403,44.282-1.019
			c14.242-0.603,28.541,0.077,42.524,0.959c19.519,1.229,38.944-2.881,58.376-3.948c19.003-1.043,37.129,2.843,56.16,1.961
			c75.302-3.49,151.285-6.586,225.454-15.04c33.743-3.849,67.618-3.373,100.944-9.983c51.422-10.203,103.588-15.508,154.533-25.945
			c15.289-3.133,30.978-7.725,46.725-11.262c32.061-7.201,65.197-16.967,96.746-27.717c28.979-9.877,58.813-16.697,88.225-25.234
			c36.177-10.5,70.538-26.154,104.841-41.512c32.504-14.551,67.151-25.691,97.914-43.535c28.267-16.396,54.481-35.603,83.556-51.246
			c53.149-28.604,95.861-73.946,133.244-120.506c10.541-13.129,22.713-24.826,34.027-37.313
			c19.794-21.844,38.854-43.157,57.668-65.854c10.469-12.629,18.214-26.512,27.796-39.545c8.949-12.174,20.532-23.063,29.755-35.285
			c3.484-4.619,6.652-10.17,10.25-14.979c7.816-10.454,14.191-21.474,20.973-32.187c27.115-42.854,53.586-84.573,81.055-127.647
			c15.764-24.716,33.63-47.554,47.443-73.194c5.877-10.91,10.959-22.717,18.031-33.229c34.047-50.6,69.021-100.707,104.297-150.566
			c10.105-14.283,20.979-27.545,31.703-41.201c8.313-10.586,20.166-18.228,27.574-29.597c9.121-13.996,19.412-26.498,30.73-39.173
			c21.223-23.764,44.354-44.193,66.696-66.509c7.108-7.103,13.774-13.476,20.76-20.737c14.356-14.929,28.465-30.086,40.265-47.037
			c12.342-17.732,23.83-35.375,37.084-52.519c19.045-24.636,40.635-47.724,58.354-73.403c14.492-21.002,28.063-42.621,41.512-64.299
			c10.972-17.678,17.787-37.693,27.383-56.102c6.31-12.102,16.564-22.157,21.273-35.132c4.867-13.409,9.055-26.522,15.227-39.679
			c14.394-30.679,31.689-60.33,40.369-93.338c4.041-15.377,5.242-29.75,6.978-46.527c4.438-42.957-0.203-86.713,4.099-129.998
			c2.955-29.739,12.961-65.313,41.436-80.939c17.801-9.771,37.316-8.641,56.717-5.7c9.254,1.401,19.117,2.123,28.215,4.155
			c8.393,1.875,14.934,6.521,23.156,9.229c7.328,2.41,15.139,3.26,22.41,5.812c31.69,11.148,60.76,31.515,85.799,53.758
			c26.631,23.656,51.475,47.85,75.721,73.742c19.83,21.178,42.447,47.76,52.506,74.959c5.498,14.869,6.049,31.488,5.004,48.041
			c-2.084,33.035-25.23,41.356-53.588,48.498c-38.279,9.646-77.494,6.605-114.92,18.416c-31.188,9.842-60.094,25.033-87.563,42.603
			c-11.127,7.116-22.736,10.077-33.002,18.907c-11.008,9.468-20.013,21.063-31.222,30.311
			c-46.31,38.205-87.166,86.338-120.942,136.334c-16.428,24.313-32.104,49.17-46.297,74.857
			c-7.066,12.791-14.07,25.775-19.986,39.146c-5.16,11.664-12.246,20.949-18.242,32.142c-5.584,10.425-9.033,20.878-14,31.026
			c-18.854,38.53-36.354,77.313-52.998,116.75c-8.385,19.869-17.922,39.645-25.475,59.777c-10.92,29.116-22.57,59.137-31.908,88.757
			c-9.394,29.804-14.767,59.95-22.086,90.244c-10.06,41.615-21.025,83.49-25.836,126.162c-3.17,28.112-6.283,56.168-7.728,85.063
			c-0.729,14.56-0.513,28.342-1.22,43.002c-2.496,51.729-0.655,103.181,1.998,154.992c1.117,21.785,4,42.834,4,65.002
			c0,27.629-3.967,56.701-8.002,84.018c-3.83,25.932-11.393,50.172-23.188,73.503c-5.846,11.565-10.514,24.565-19.084,34.474
			c-17.41,20.127-57.168,23.222-81.824,24.692c-33.688,2.013-67.275-2.688-100.949-2.685c-30.799,0.002-61.596-2.229-91.725,1.059
			c-62.082,6.773-117.902,26.814-174.232,52.702c-23.756,10.918-47.842,23.121-70.041,36.979
			c-13.977,8.727-29.098,17.752-41.359,29.224c-17.01,15.91-31.213,33.583-47.641,50.022c-8.965,8.974-13.971,20.465-22.961,29.008
			c-7.605,7.229-15.568,13.651-22.76,21.26c-17.438,18.449-33.027,39.813-49.738,59.221c-14.875,17.273-28.367,34.859-41.877,53.02
			c-9.635,12.946-19.1,25.225-30.653,36.559c-25.89,25.395-61.192,45.9-96.989,55.475c-15.662,4.188-30.256,1.479-46.965,1.479
			c-50.599-0.001-101.263,2.137-151.957,1.997c-25.303-0.069-50.558,3.358-75.554,3.999c-31.455,0.807-61.856,3.966-93.062,5.502
			c-29.91,1.473-61.046,3.074-90.438,4.503c-41.916,2.038-81.097,9.59-120,25.255c-13.093,5.271-25.729,11.455-38.002,18.477
			c-22.472,12.854-43.488,26.528-63.49,43.269c-18.715,15.663-39.839,29.177-58.513,45.494
			c-18.473,16.142-37.063,32.753-55.987,48.747c-9.691,8.189-19.017,15.33-29.295,22.505c-23.992,16.747-45.884,28.67-73.717,38.022
			c-34.994,11.762-77.216-3.789-111.999-9.006c-35.854-5.375-70.604-15.996-105.202-26.543
			c-31.362-9.561-65.83-20.588-98.701-22.895c-16.928-1.188-33.947,3.016-50.111,7.707c-21.155,6.141-44.902,10.467-66.643,13.613
			c-24.06,3.479-47.506,13.066-70.303,21.375c-21.379,7.789-42.343,16.528-62.935,25.973
			c-45.102,20.682-82.763,47.354-120.779,79.234c-33.844,28.383-63.957,60.894-91.514,95.246l201.428,201.428
			c3.195-6.082,8.244-11.127,14.668-12.672c11.858-2.852,21.916,9.626,30.063,17.102c19.557,17.938,38.604,36.799,60.699,51.656
			c21.611,14.531,52.545,22.219,75.421,34.328c27.911,14.775,49.037,31.051,75.235,48.689c20.484,13.793,42.498,21.34,65.338,29.982
			c20.327,7.688,45.449,8.625,67.668,9.7c74.637,3.61,145.02-26.08,211.946-55.476c53.716-23.59,109.046-43.235,163.024-66.191
			c81.188-34.525,158.046-78.529,239.952-111.458c120.502-48.438,256.261-53.597,383.326-74.659
			c39.586-6.563,78.981-16.365,118.062-25.449c24.93-5.795,49.84-11.604,73.682-21.214c43.084-17.362,84.254-39.741,122.842-65.562
			c34.869-23.332,64.604-53.492,99.471-76.487c50.824-33.521,108.834-53.135,163.256-79.687
			c54.457-26.563,100.707-66.938,156.219-91.439c34.422-15.191,71.455-15.188,106.225-27.878
			c68.334-24.938,130.82-64.05,198.182-91.83c35.391-14.597,72.271-25.459,107.52-40.438c7.799-3.312,15.857-8.279,23.305-12.389
			c97.008-53.52,186.782-139.296,254.117-226.688c64.292-83.442,101.006-177.379,118.3-280.658
			c3.128-18.686,7.778-37.574,8.933-56.473c3.354-55.081,7.07-110.652,1.174-165.698c-5.131-47.894-25.351-87.534-25.861-136.021
			c-0.585-55.31-3.055-110.623-8.176-165.703c-2.584-27.793-6.241-55.396-9.913-83.057c-3.622-27.292-2.624-54.823-3.978-82.252
			c-1.236-25.046-9.076-44.913,0.244-68.88c4.479-11.517,9.334-22.313,13.32-34.158c1.936-5.746,4.208-10.728,5.682-16.522
			c2.896-11.416,5.813-21.69,6.76-33.467c0.93-11.586,3.25-23.592,2.701-35.295c-1.063-22.59-1.773-46.373-3.982-68.828
			c-0.797-8.062-3.177-15.906-2.967-24.097c0.371-14.453,12.042-11.937,17.416-0.519c20.646,43.89,8.746,93.295,2.385,138.69
			c-2.688,19.19-2.545,38.446-3.477,58.37c-0.938,20.016-3.971,39.836-4.004,59.704c-0.03,18.86-0.084,39.724,2.701,58.037
			c1.348,8.862,0.844,19.099-0.041,28.01c-1.396,14.067,0.188,29.217-0.16,43.478c-0.426,17.545-1.647,35.061-2.502,52.586
			c-1.069,21.933-0.268,44.264-1.334,66.092c-0.994,20.353-2.391,41.256-1.332,61.98c1.008,19.729,3.571,38.352,7.345,57.38
			c19.099,96.376,60.331,210.437,160.165,249.656c35.032,13.763,70.212,28.558,108.07,28.12
			c39.815-0.458,79.264-8.279,117.861-17.529c132.23-31.705,215.479-174.474,275.896-285.145
			c23.701-43.414,44.211-88.404,67.062-132.236c29.045-55.711,60.06-117.961,66.354-181.418
			C6515.789,4860.189,6513.954,4809.137,6514.939,4761.354z" color="15650616" style="fill:#eecf38;fill-opacity:1;stroke-width:10;stroke:rgb(0,0,0)"></path><path id="157960556" parent_id="157960549" order="1" structure_id="146034876" d="
			M2364.982,6320.543c5.877-15.244,9.716-30.93,12.781-46.279c6.383-31.938,7.06-64.666,3.469-97.763
			c-4.367-40.247-22.018-75.628-40.955-110.97c-12.008-22.403-26.875-44.422-42.768-63.981
			c-24.648-30.341-56.405-54.362-89.631-74.574c-17.008-10.345-34.596-19.724-52.499-28.41
			c-52.343-25.394-111.152-39.5-168.288-51.556c-22.229-4.689-45.225-10.92-67.484-14.562c-11.018-1.802-22.354-2.562-33.052-4.901
			c-41.277-9.025-85.922-14.36-123.771-33.994c-33.416-17.334-56.427-49.801-74.071-82.06
			c-24.386-44.573-33.862-97.05-38.709-146.245c-6.086-61.764-26.878-116.154-44.538-174.785
			c-5.729-19.023-8.197-39.379,14.918-42.023c31.534-3.606,66.938,36.371,88.4,56.351c33.602,31.278,74.974,38.216,115.182,56.735
			c22.191,10.224,44.659,23.396,64.668,37.354c22.395,15.622,52.147,22.355,77.364,32.62c30.938,12.595,61.629,20.828,94.312,26.535
			c29.556,5.16,57.768,15.39,87.304,19.642c15.923,2.291,29.311-1.041,44.979-4.194c49.99-10.063,93.871-29.454,139.97-51.021
			c2.664-1.248,5.303-2.533,7.93-3.84l-280.332-319.543c-0.209,0.537-0.521,1.024-0.985,1.438
			c-4.159,3.695-10.313-3.314-13.511-5.372c-46.666-30.019-66.31-59.661-84.039-78.685c-27.795-29.82-51.646-61.405-79.961-90.75
			c-37.471-38.836-78.312-65.783-124.823-92.845c-47.816-27.819-97.948-52.212-151.845-65.69c-29.97-7.496-61.212-10.83-92.11-8.959
			c-27.608,1.67-59.059,8.726-83.742,21.676c-41.697,21.875-83.509,52.588-113.103,89.471c-16.306,20.32-31.15,44.785-40.745,69.075
			c-8.051,20.381-15.466,41.71-19.399,63.325c-13.896,76.339-17.677,157.925-7.104,234.956
			c10.509,76.544,22.84,153.571,37.316,229.469c17.51,91.799,26.369,185.313,38.246,277.952
			c3.468,27.049,7.586,54.048,13.746,80.629c4.771,20.596,9.493,41.447,14.83,62.604c5.271,20.903,11.33,41.51,16.296,62.449
			c5.208,21.957,10.43,44.756,18.446,65.992c13.797,36.551,28.303,80.266,65.488,99.438c8.576,4.422,18.085,7.994,27.053,11.44
			c9.952,3.826,20.466,3.219,30.577,5.252c20.589,4.142,37.183,16.817,55.782,26.254c8.28,4.199,16.562,8.51,25.276,11.761
			c53.522,19.949,119.688-8.858,170.942-24.715c21.121-6.537,42.943-11.431,64.393-16.813c17.656-4.435,35.39-8.557,53.188-12.367
			c31.149-6.67,62.496-12.41,93.979-17.271c14.659-2.266,29.538-3.672,44.129-6.288c13.952-2.503,27.264-9.341,40.589-12.638
			c7.426-1.838,26.485-8.604,34.045-5.305c5.33,2.325,5.717,8.24,3.408,12.352c-1.384,2.463-3.583,4.187-6.105,5.424
			l259.798,157.379C2355.916,6340.547,2360.973,6330.941,2364.982,6320.543z" color="12100205" style="fill:#b8a26d;fill-opacity:1;stroke-width:10;stroke:rgb(0,0,0)"></path><path id="157960555" parent_id="157960549" order="2" structure_id="12121" d="
			M2569.961,6578.949c-14.523,19.041-28.011,36.621-39.93,56.563c-24.005,40.166-49.137,78.556-68.755,121.217
			c-24.333,52.916-46.188,108.104-55.063,165.994c-8.05,52.49-11.205,107.467-11.213,160.78
			c-0.004,27.413-3.685,53.044-5.007,79.985c-2.065,42.103,6.366,88.229-9.991,128.008c-9.054,22.021-29.215,37.61-49,50.002
			c-43.826,27.445-96.048,46.752-139.933,73.93c-38.843,24.055-72.708,42.146-110.067,68.07
			c-16.438,11.405-38.951,25.263-54.603,37.013c-22.9,17.19-45.935,34.756-68.569,52.222c-21.178,16.338-45.42,34.854-70.967,44.037
			c-29.861,10.729-55.9,24.928-86.861,12.729c-33-13-62.359-27.791-60-66c2.505-40.539,39.295-84.058,73-102
			c74.604-39.715,122.853-77.229,161-101c27.751-17.291,58-36,90.527-58.953c19.765-13.946,39.792-40.004,52.969-60.06
			c9.533-14.508,20.188-26.938,29.959-40.806c17.607-24.987,32.924-53.104,42.328-82.181c4.898-15.146,9.459-30.642,11.62-46.447
			c1.927-14.089,6.315-28.587,5.603-43.043c-2.676-54.211-20.613-112.52-43.012-161.566
			c-21.115-46.244-55.146-88.149-87.756-127.188c-13.148-15.742-23.951-35.248-28.247-54.745
			c-2.221-10.082-3.56-20.363-3.013-31.507c0.979-19.938,4.061-34.858,16.048-51.438c26.304-36.375,64.429-55.19,101.451-78.701
			c17.306-10.986,34.319-21.684,51.802-32.574c27.864-17.359,58.734-37.463,77.523-64.72c6.752-9.795,14.731-18.624,22.086-27.953
			c12.768-16.2,25.686-31.776,36.33-48.903l-259.797-157.381c-3.224,1.582-6.973,2.373-10.224,2.91
			c-12.142,1.998-23.889,2.653-36.649,2.652c-20.526-0.002-39.771-0.083-60.149,3.148c-21.276,3.377-42.291,8.187-63.488,12.004
			c-30.832,5.551-61.582,11.648-91.97,19.299c-33.325,8.389-60.885,19.02-88.302,40.412c-14.364,11.207-28.255,22.767-41.524,35.189
			c-11.101,10.395-23.142,21.604-32.976,33.381c-9.462,11.335-16.005,25.424-23.839,38.188
			c-6.068,9.887-12.213,19.213-17.471,29.731c-14.276,28.562-32.461,54.763-45.103,84.419c-8.125,19.063-17.24,39.169-21.409,58.952
			c-4.012,19.034-13.021,36.894-18.553,55.575c-6.43,21.709-11.862,43.723-16.014,65.98c-3.441,18.463-5.535,37.731-4.596,56.686
			c0.776,15.639,0.225,32.51,5.775,46.871c5.949,15.391,9.657,31.32,17.582,45.908c7.671,14.117,15.902,27.174,25.309,40.285
			c8.303,11.573,17.188,22.664,25.643,34.086c15.92,21.516,38.28,40.818,59.821,56.834c23.542,17.502,52.78,26.468,80.157,35.188
			c26.146,8.326,53.273,16.062,80.342,21.818c14.563,3.098,27.892,6.479,41.86,11.025c9.097,2.961,19.409,7.025,25.779,14.508
			c5.273,6.194,8.396,21.908-2.975,23.688c-12.396,1.935-20.838-6.837-31.961-9.353c-6.911-1.563-14.507-1.939-21.692-2.658
			c-7.238-0.722-12.744-1.047-18.855-4.67c-9.377-5.558-17.099-13.651-26.831-18.617c-9.588-4.894-20.821-6.688-31.038-10.062
			c-10.738-3.544-21.059-4.132-31.97-6c-5.85-1.001-11.771-0.625-17.621-1.724c-11.326-2.129-20.814-4.817-32.493-4.119
			c-12.954,0.771-25.719,3.356-38.551,5.146c-8.28,1.153-15.944,3.548-23.976,6.108c-15.073,4.804-29.337,11.754-42.691,20.26
			c-20.869,13.287-40.104,26.004-58.701,42.354c-27.353,24.048-50.323,53.148-71.866,82.678
			c-14.604,20.02-24.767,43.142-36.113,65.207c-11.439,22.246-23.289,44.342-32.629,67.582
			c-4.092,10.184-6.188,20.668-10.002,31.016c-3.527,9.578-5.068,19.768-8.256,29.325c-3.604,10.812-6.785,21.603-8.86,32.829
			c-4.154,22.464-4.852,45.547-2.556,68.264c1.961,19.394,3.247,38.912,5.862,58.037c2.501,18.293,5.738,36.244,7.484,54.696
			c3.517,37.166,15.455,73.785,20.676,111.071c4.875,34.814,10.367,70.892,11.993,106.056c1.597,34.53,10.086,66.789,17.943,99.459
			c3.359,13.974,0.868,28.369,2.938,42.47c2.118,14.442,7.746,26.014,13.806,39.028c3.392,7.278,8.453,13.728,14.64,19.385
			c16.111,14.74,38.732,23.754,58.851,30.89c13.954,4.951,29.927,8.485,44.546,10.731c19.16,2.944,37.298,7.629,56.975,8.03
			c19.031,0.39,38.514,3.26,57.5,3.502c31.293,0.398,58.441-0.168,89.457-1.674c32.521-1.576,63.146-9.471,95.543-10.332
			c34.139-0.91,68.756-5.227,103.5-13.01c33.5-7.504,60.832-14.729,92.457-21.713c40.304-8.903,78.623-24.881,117.834-37.537
			c13.213-4.266,26.363-8.723,39.422-13.442c5.801-2.097,11.57-4.83,17.648-5.853c5.318-0.896,10.674-1.026,15.729-3.303
			c5.12-2.305,9.805-5.358,14.88-7.77c11.38-5.404,23.105-10.35,34.491-15.748c21.971-10.418,44.241-19.283,66.354-29.012
			c18.939-8.332,36.865-18.808,56.03-27.275c20.965-9.266,41.427-20.123,61.616-30.98c14.811-7.963,27.632-20.889,43.187-27.262
			c15.647-6.412,30.495-15.348,45.594-23.256c18.053-9.459,33.631-19.893,50.666-30.934c18.582-12.041,36.086-23.705,53.729-36.937
			c13.827-10.371,28.61-19.783,42.668-29.854c15.422-11.047,29.516-23.774,45.023-34.666c16.602-11.658,32.099-25.131,47.619-38.172
			c8.262-6.94,17.658-13.199,25.194-20.733c11.042-11.041,22.485-20.729,33.678-31.664c8.39-8.199,18.167-15.644,26.149-24.179
			c16.764-17.924,32.396-37.088,48-56.045c20.312-24.68,42.168-49.53,58.177-77.34c10.705-18.598,21.377-37.213,31.666-56.045
			c8.454-15.477,14.271-32.186,21.282-48.319c6.688-15.39,15.404-29.608,23.369-44.261c8.146-14.983,15.629-30.771,23.649-45.682
			c6.948-12.914,10.923-28.055,16.123-41.602c5.432-14.15,10.146-29.937,14.714-44.314c9.833-30.945,17.837-62.961,13.698-95.535
			c-5.01-39.42-28.568-75.908-60.024-99.771c-29.188-22.143-54.105-42.271-86.486-59.414c-16.101-8.521-38.816-15.819-55.651-22.748
			c-14.726-6.062-28.56-7.617-43.989-10.797c-20.433-4.213-41.35-7.985-60.549-16.475c-11.412-5.047-23.365-13.1-24.04-26.736
			c-0.255-5.153,1.123-11.055,3.831-16.209l-201.428-201.43C2579.781,6566.246,2574.826,6572.57,2569.961,6578.949z" color="12100205" style="fill:#b8a26d;fill-opacity:1;stroke-width:10;stroke:rgb(0,0,0)"></path><path id="157960551" parent_id="157960549" order="3" structure_id="12116" d="
			M3574.439,3220.029c96.877,20.312,231.39,11.271,315.965-44.092c25.023-16.384,40.761-43.146,67.229-55.42
			c18.234-8.455,39.352-11.47,50.197-28.955c10.411-16.783,14.176-44.729,17.271-63.984c8.188-50.896,5.977-86.296-33.098-122.083
			c-26.254-24.042-67.479-49.021-103.093-55.902c-41.836-8.085-91.856,12.686-128.442,31.309
			c-39.664,20.19-69.371,56.67-107.47,80.075c-34.782,21.366-74.013,34.668-110.085,53.627
			c-17.881,9.396-37.176,19.642-52.061,33.524c-31.892,29.747-59.771,87.858-28.938,126.881
			C3487.33,3207.163,3537.189,3212.219,3574.439,3220.029z" color="13939253" style="fill:#d4b235;fill-opacity:1;stroke-width:10;stroke:rgb(0,0,0)"></path><path id="157960553" parent_id="157960549" order="4" structure_id="12116" d="
			M3553.982,5482.434c-0.01-0.152-0.022-0.304-0.027-0.461c-0.432-14.328,25.443-23.408,35.33-28.438
			c13.498-6.865,27.766-13.117,42.277-17.536c74.293-22.612,152.729-46.345,229.839-57.508
			c38.787-5.615,72.87-22.362,110.515-32.115c14.202-3.679,29.122-5.069,42.74-10.558C4075,5311.5,4114,5298.5,4181.627,5272.96
			c47.564-17.963,89.357-48.638,128.016-81.778c23.301-19.977,43.023-43.588,62.627-67.084
			c23.506-28.174,51.805-54.424,73.444-83.817c19.685-26.737,46.949-54.649,60.192-85.372c3.736-8.673,4.237-17.412,9.316-26.159
			c8.932-15.375,19.438-29.583,29.779-44.231c17.498-24.781,41.401-43.727,57.52-69.693c6.152-9.916,12.52-20.17,19.32-29.932
			c19.539-28.035,40.791-54.32,61.455-76.02c19.123-20.079,40.599-38.234,61.363-55.794c5.122-4.331,10.418-8.81,15.591-13.241
			c11.335-9.712,23.085-19.57,34.449-29.107c18.915-15.871,38.476-32.285,56.967-48.724c10.417-9.258,20.616-19.058,30.479-28.528
			c15.015-14.422,30.541-29.336,47.301-42.816c16.654-13.396,33.914-26.658,49.795-40.91c6.084-5.46,15.205-24.964,24.463-23.534
			c1.576,0.243,2.811,0.749,3.752,1.448c50.506-68.971,232.084-346.973,302.041-862.652c-6.672-0.539-13.373-1.231-19.838-0.968
			c-7.045,0.289-14.15,0.673-21.185,1c-7.729,0.358-15.015,0.708-22.612,1.5c-19.072,1.988-37.984,3.89-57.021,6.353
			c-11.111,1.437-22.204,1.752-33.323,3.137c-23.278,2.898-46.126,9.383-69.269,13.286c-17.862,3.013-36.229,6.213-53.771,10.73
			c-17.567,4.526-34.604,10.115-52.379,14.024c-19.63,4.318-39.163,8.742-58.944,11.748c-18,2.732-36.102,6.326-54.037,9.292
			c-11.025,1.821-21.908,4.438-32.638,7.562c-15.933,4.642-31.481,10.467-47.353,15.311c-13.385,4.084-26.867,7.84-40.297,11.771
			c-12.566,3.681-24.636,8.862-37.223,12.447c-35.202,10.024-69.302,24.618-104.218,35.932
			c-15.845,5.134-31.425,11.708-46.728,18.254c-6.238,2.67-12.429,5.714-18.674,8.192c-3.76,1.492-7.315,2.908-10.918,4.908
			c-13.861,7.696-27.897,15.283-42.373,21.97c-13.27,6.129-27.293,11.364-40.17,18.049c-13.941,7.237-27.189,15.731-41.004,23.202
			c-10.362,5.604-19.976,12.88-29.271,19.916c-6.274,4.75-12.767,9.663-19.478,14.062c-34.342,22.509-68.401,49.79-107.19,85.854
			c-17.164,15.958-35.315,31.865-52.872,47.249c-6.395,5.601-12.775,11.196-19.12,16.796
			c-11.979,10.579-24.726,20.931-37.047,30.939c-22.521,18.295-45.804,37.212-65.644,58.454
			c-13.216,14.151-25.896,28.933-38.77,45.185l-0.5,0.633c-30.818,38.914-59.928,75.67-85.718,117.08
			c-18.727,30.064-32.599,53.983-44.984,77.557c-3.27,6.223-6.862,12.504-9.452,19.048c-2.17,5.49-0.396,10.976-0.107,16.585
			c0.258,5.041-0.845,9.982-2.737,14.631c-3.709,9.105-10.063,16.798-14.545,25.496c-5.026,9.764-7.709,19.909-10.466,30.477
			c-3.143,12.047-8.422,23.254-11.337,35.324c-2.825,11.699-5.655,23.4-9.068,34.944c-2.581,8.729-6.972,17.16-8.259,26.231
			c-0.694,4.891-0.063,13.748-5.99,15.742c-6.437,2.164-4.255-13.84-3.971-16.475c1.078-10.005,1.794-20.398,3.297-30.309
			c1.885-12.416,7.586-24.744,11.512-36.633c6.446-19.533,14.201-38.193,22.938-56.805c12.333-26.282,23.796-53.016,37.306-78.727
			c12.397-23.597,26.282-47.535,45.021-77.619c25.819-41.461,54.946-78.237,85.782-117.174l0.5-0.631
			c12.891-16.275,25.588-31.076,38.822-45.246c19.885-21.293,43.197-40.231,65.742-58.548c12.314-10.004,25.049-20.35,37.016-30.916
			c6.345-5.601,12.729-11.196,19.123-16.799c17.549-15.378,35.696-31.279,52.851-47.228c38.832-36.104,72.937-63.418,107.325-85.959
			c6.686-4.379,13.158-9.281,19.421-14.021c9.325-7.059,18.967-14.357,29.396-19.999c11.59-6.269,24.289-14.089,38.824-23.91
			c0.744-0.502,1.479-0.983,2.205-1.463c2.444-1.607,4.756-3.127,7.088-5.157l6.252-5.734c7.274-8.833,11.947-20.124,13.537-31.12
			c4.623-31.971-24.44-52.009-48.992-64.778c-14.398-7.488-27.063-18.08-37.138-30.793c-4.933-6.228-10.464-12.121-14.408-19.063
			c-1.567-2.76-6.44-12.62-4.367-15.872c3.991-6.259,11.06,8.711,12.304,11.676c3.063,7.307,5.015,15.098,10.069,21.396
			c9.634,11.993,21.729,22.008,35.381,29.106c17.617,9.162,33.377,22.667,52.47,28.822c23.473,7.565,46.268-0.636,69.51-4.916
			c32.937-6.064,64.92-16.261,96.652-26.786c15.111-5.012,30.221-10.034,45.406-14.816c37.951-11.952,75.584-21.773,113.97-31.859
			c48.961-12.865,97.851-27.313,147.979-34.85c24.684-3.711,47.353-5.543,70.516-15.326c9.335-3.943,17.9-10.247,25.188-17.512
			c10.943-10.909,20.229-20.282,28.006-33.996c11.722-20.664,22.883-43.063,31.526-65.203c4.364-11.179,6.563-23.766,10.801-35.368
			c3.921-10.737,6.545-21.229,8.924-32.352c3.351-15.665,8.354-30.981,8.699-47.544c0.405-19.417-2.524-38.781-2.454-58.208
			c0.048-12.675,1.994-24.821,1.997-37.678c0.009-32.66-3.958-62.386-13.31-93.751c-9.519-31.922-16.832-65.078-24.543-97.512
			c-5.289-22.26-14.267-44.162-19.98-66.56c-2.796-10.955-4.193-17.764-6.832-28.684c-6.87-28.425-17.193-62.169-31.184-88.054
			c-4.099-7.58-8.627-14.604-12.487-22.345c-5.382-10.787-9.44-17.399-14.329-28.354c-3.156-7.073-5.875-14.511-9.333-21.347
			c-11.897-23.527-24.728-49.026-39.847-70.854c-20.883-30.147-39.672-61.303-61.006-91.06
			c-8.125-11.332-18.125-21.375-27.328-32.033c-4.394-5.087-8.845-9.354-13.672-14.176c-9.582-9.563-21.106-16.842-31.457-25.496
			c-11.508-9.623-16.812-21.168-25.926-32.476c-4.008-4.974-9.076-9.514-13.535-14.204c-8.97-9.438-18.369-19.9-29.229-27.218
			c-15.944-10.738-33.226-24.714-48.667-36.021c-27.333-20.012-51.629-40.864-80-60.036
			c-51.333-34.688-92.246-69.021-144.667-117.402c-18.905-17.448-36.667-34.021-62-49.362
			c-13.828-8.374-32.457-15.321-47.333-21.346c-22.409-9.076-47.83-18.675-71.271-24.521c-28.65-7.145-60.681-8.836-90.393-8.833
			c-20.861,0.001-41.676,1.723-62.532,1.979c-18.258,0.224-35.507-1.593-53.808-0.646c-24.175,1.251-48.459,2.544-72.686,3.969
			c-10.909,0.642-22.596,2.097-33.297,2.72c-12.604,0.73-23.31,0.662-35.454,3.444c-14.874,3.406-31.386,3.699-46.563,6.024
			c-39.433,6.039-78.59,11.728-118.146,17.344c-11.447,1.626-23.109,3.991-34.853,4.528c-22.987,1.051-45.493,2.789-68.479,4.679
			c-25.52,2.097-50.058,7.539-75.19,9.951c-11.183,1.073-21.552,3.49-32.818,4.042c-17.778,0.872-35.024,2.434-52.853,2.675
			c-21.902,0.295-42.78,1.091-64.604,3.319c-17.219,1.758-33.194,6.059-49.864,9.875c-10.526,2.409-21.154,5.202-31.863,8.288
			c-18.073,5.208-38.088,8.313-56.663,11.215c-5.889,0.919-12.346,1.666-18.334,1.649c-16.327-0.045-32.496,2.351-48.719,3.027
			c-25.252,1.052-50.446-2.961-75.741-1.364c-12.091,0.763-23.212,2.028-35.21,2.667c-14.926,0.794-27.676,4.254-41.979,6.688
			c-17.426,2.969-36.618,6.496-52.358-3.215l-218.51,257.729c2.766,3.783,5.455,7.594,7.856,11.526
			c21.366,34.969,51.508,55.055,83.992,78.5c15.184,10.959,29.771,22.769,46.257,31.756c23.043,12.563,46.479,25.015,71.663,32.752
			c19.782,6.077,45.357,13.158,66.072,13.472c23.137,0.35,47.047,3.789,70.044,6.99c16.006,2.229,32.505,1.807,48.96,0.988
			c16.29-0.811,31.176,2.583,46.997,1c28.851-2.886,57.584-1.591,86.419-2.654c30.666-1.13,60.79-7.482,91.169-11.265
			c27.348-3.403,55.112-4.834,82.366-9.089c18.984-2.965,38.42-7.228,57.358-11.045c38.463-7.758,75.834-14.079,115.066-17.913
			c21.403-2.093,46.728-3.111,68.002,0.094c33.112,4.988,66.52,4.778,99.616,9.823c35.216,5.367,69.486,15.349,103.947,24.122
			c27.641,7.036,54,17.342,81.06,26.247c23.849,7.847,45.694,16.678,67.692,28.988c33.015,18.476,66.867,28.599,97.316,51.521
			c30.125,22.675,61.639,42.551,90.443,67.142c12.496,10.666,22.375,22.074,35.684,31.813
			c23.568,17.248,38.002,39.255,57.641,60.271c20.633,22.076,45.951,39.822,67.25,61.209c18.613,18.689,38.73,35.355,59.217,51.907
			c18.297,14.784,29.328,36.066,41.504,55.88c14.842,24.157,33.301,58.399,3.025,79.769c-19.684,13.891-49.016,16.559-71.764,21.301
			c-12.104,2.522-24.707,5.094-37.015,6.926c-39.51,5.884-79.127,6.086-118.209,16.245c-47.211,12.271-87.851,35.076-129.041,60.744
			c-20.168,12.568-41.263,27.563-59.278,43.53c-21.076,18.678-42.082,36.391-62.004,55.518c-5.293,5.085-10.437,10.563-15.479,15.95
			c-7.982,8.527-15.523,17.249-22.973,25.988c-28.143,33.018-51.438,68.468-71.492,106.57
			c-12.007,22.813-21.414,46.862-32.673,70.035c-10.907,22.454-26.292,40.91-38.377,62.416c-5.97,10.625-11.991,21.609-17.476,32.49
			c-22.099,43.854-46.347,88.529-79.77,124.74c-40.215,43.568-70.764,95.055-110.463,138.742
			c-9.922,10.92-19.51,21.697-28.752,33.024c-26.353,32.291-48.403,68.95-69.018,105.022
			c-31.027,54.299-39.943,122.123-45.953,183.379c-3.694,37.676-1.002,76.563,0.948,114.601
			c2.052,39.996,4.191,80.034,6.002,119.991c0.97,21.455,6.739,43.802,12.134,64.626c9.287,35.849,33.45,66.97,56.117,96.058
			c10.176,13.058,18.111,26.248,31.541,36.588c25.926,19.961,58.752,30.131,89.079,39.938
			c33.257,10.754,66.259,13.458,102.659,11.731c19.01-0.899,36.006-2.619,54.006-5.862c7.819-1.409,15.701-3.69,23.366-6.051
			c13.519-4.164,23.078-7.903,35.522-14.14c5.814-2.922,10.77-6.063,15.571-10.326c19.652-17.433,39.782-34.172,59.009-52.082
			c10.125-9.432,19.463-18.572,28.278-29.248c17.646-21.367,34.214-42.735,52.279-64.004c27.185-32,56.41-61.027,84.632-91.938
			c22.891-25.071,44.843-50.894,68.63-75.089c16.571-16.857,32.47-38.77,51.319-52.939c6.996-5.26,14.112-7.771,20.459-14.422
			c7.203-7.553,12.912-16.441,20.6-23.555c13.355-12.357,27.313-23.025,39.555-36.527c24.727-27.269,51.386-53.064,77.234-79.336
			c22.207-22.566,47.609-43.228,71.014-64.615c10.744-9.818,19.207-20.891,30.488-30.276c20.771-17.28,41.824-35.577,61.727-53.549
			c13.758-12.425,28.818-24.542,45.308-33.17c13.206-6.912,27.093-7.121,41.737-7.82c13.162-0.629,39.44-11.68,38.28,11.294
			c-0.696,13.813-12.8,26.74-20.317,37.502c-8.461,12.109-12.817,24.782-19.879,36.988c-8.117,14.037-22.658,26.869-34.098,38.211
			c-26.188,25.974-54.227,48.981-80.302,74.828c-38.362,38.022-77.228,74.304-113.562,114.614
			c-15.853,17.587-33.422,34.392-49.354,51.55c-11.29,12.158-25.229,21.552-36.403,33.83
			c-10.951,12.033-19.004,26.752-30.625,38.207c-9.476,9.337-17.994,17.079-25.75,28.227c-23.164,33.289-50.648,64.08-74.649,97.258
			c-12.483,17.258-24.733,34.156-35.606,52.515c-10.515,17.752-22.492,34.067-32.287,52.19
			c-11.414,21.117-17.474,45.082-31.936,64.556c-28.756,38.72-58.096,76.431-92.924,109.707
			c-25.008,23.896-51.073,44.12-80.396,62.097c-14.662,8.986-23.965,25.242-38.82,33.174
			c-21.575,11.519-46.541,18.519-69.794,23.354c-23.265,4.839-47.025,11.035-69.918,17.454
			c-20.112,5.64-40.581,10.817-60.687,17.688c-18.34,6.268-36.717,10.967-55.238,16.78c-12.771,4.01-26.187,5.979-38.702,10.819
			c-10.595,4.095-18.298,8.926-29.265,12.15c-10.972,3.229-21.493,8.029-32.05,12.021c-35.86,13.559-71.901,28.271-107.334,41.496
			c-22.741,8.487-45.015,19.096-67.422,28.502c-35.116,14.744-70.263,33.541-103.167,52.729
			c-41.102,23.966-78.959,51.294-116.003,80.021c-16.937,13.138-35.653,24.922-52.979,37.767
			c-40.438,29.972-80.17,61.11-111.272,101.47c-13.104,17-28.935,32.655-37.904,52.478c-6.632,14.658-16.79,29.196-17.928,45.672
			c-1.216,17.606-6.466,33.701-9.952,51.408c-6.287,31.933-9.477,65.403-4.007,97.694c0.828,4.89,1.878,9.56,3.147,14.035
			L3553.982,5482.434L3553.982,5482.434z" color="13939253" style="fill:#d4b235;fill-opacity:1;stroke-width:10;stroke:rgb(0,0,0)"></path><path id="157960554" parent_id="157960549" order="5" structure_id="12116" d="
			M6003.645,3164.703c-9.098-81.43-40.192-165.12-74.127-231.038c-21.791-42.328-48.685-84.507-76.52-123.166
			c-23.355-32.44-52.588-61.111-69.58-97.269c-20.148-42.873-37.566-89.81-49.029-135.552
			c-11.455-45.71-17.309-95.496-32.097-139.065c-19.065-56.174-45.458-106.863-72.888-159.356
			c-32.982-63.124-71.035-123.896-115.742-179.417c-28.441-35.324-59.088-75.5-92.449-106.311
			c-37.516-34.646-73.656-68.201-115.271-98.809c-26.703-19.64-51.475-41.461-83.512-51.169
			c-30.434-9.222-59.975-22.404-89.459-35.37c-13.543-5.955-27.393-11.21-41.561-15.48c-13.375-4.033-27.604-4.965-40.775-9.178
			c-48.754-15.591-98.701-28.527-149.646-26.021c-24.408,1.201-50.315-5.545-74.24,1.577c-24.317,7.24-44.251,25.022-71.487,23.506
			c-28.465-1.586-56.703-5.989-85.254-2.932c-96.313,10.315-142.021,100.52-142.803,190.14c-0.332,38.181,0.835,81.288,18.76,115.96
			c18.427,35.646,61.221,59.203,91.881,83.579c79.657,63.328,151.316,135.936,225.152,207.115
			c8.276,7.979,16.86,15.629,24.182,24.219c14.404,16.905,23.809,33.98,33.734,53.916c11.875,23.842,27.043,45.771,38.668,69.977
			c49.852,103.784,115.277,199.593,164.756,303.879c5.988,12.625,10.576,24.938,13.345,38.396
			c6.487,31.581,8.354,62.212,18.353,93.387c10.328,32.215,23.446,63.496,31.97,96.288c16.699,64.263,25.188,126.649,53.364,187.915
			c9.681,21.049,27.701,31.887,40.125,50.926c30.397,46.584,50.912,99.574,87.893,141.795
			c32.79,37.438,76.139,74.021,123.893,89.086c11.752,3.707,23.1,7.312,35.414,9.248c37.976,5.968,74.933,17.217,113.26,22.465
			c53.354,7.305,128.977,10.586,186.228-15.271c46.474-20.983,94.513-54.707,117.065-101.93
			c26.246-54.948,33.791-112.33,55.556-168.972C6015.384,3233.819,6008.172,3205.23,6003.645,3164.703z" color="13939253" style="fill:#d4b235;fill-opacity:1;stroke-width:10;stroke:rgb(0,0,0)"></path><path id="157960552" parent_id="157960549" order="6" structure_id="12115" d="
			M3661.962,2071.372c144.883-35.234,291.937-52.063,425.423-123.551c73.588-39.408,147.766-93.475,189.627-166.979
			c22.184-38.949,20.5-86.146,20.773-129.301c0.346-54.063-8.57-107.578-16.99-160.811
			c-12.033-76.084-54.066-126.781-113.611-171.202c-16.801-12.532-34.285-24.953-53.701-33.121
			c-17.616-7.411-36.471-8.888-53.668-16.899c-18.193-8.477-36.898-16.018-55.705-23.312
			c-33.207-12.887-68.207-26.716-102.373-37.084c-19.464-5.908-38.067-11.529-56.623-18.702
			c-34.264-13.246-69.395-22.18-97.936-45.794c-41.936-34.698-77.854-77.006-123.009-108.001
			c-36.347-24.942-72.662-52.078-109.042-76.489c-30.967-20.778-62.893-40.387-96.784-56.059
			c-31.58-14.604-61.242-32.814-92.992-47.06c-31.173-13.984-64.561-22.986-97.597-31.179
			c-58.883-14.604-123.227-11.281-180.781-29.085c-20.938-6.479-40.146-17.332-59.799-26.834
			c-18.92-9.148-38.128-17.874-55.452-29.901c-26.877-18.661-51.373-40.511-78.245-59.183
			c-15.146-10.524-30.165-21.896-45.826-31.708c-54.477-34.129-105.028-75.396-162.078-105.285
			c-32.397-16.978-65.867-23.361-99.742-35.421c-46.771-16.649-91.148-34.336-140.695-41.802
			c-39.636-5.975-78.619-1.242-118.02-1.242c-202.095,0-407.647-8.648-607.039,31.646c-53.426,10.797-106.041,25.846-156.174,47.396
			c-34.179,14.692-67.897,34.524-95.772,59.397c-10.396,9.275-20.532,18.367-30.974,27.654
			c-73.717,65.573-139.041,157.271-179.484,247.33c-7.081,15.768-12.381,32.772-19.827,48.042
			c-15.623,32.038-27.12,66.271-36.168,100.72c-6.127,23.325-8.873,46.933-13.164,71.352c-4.328,24.631-3.039,50.4-4.179,76.038
			c-1.154,25.948-1.964,51.688-0.668,77.704c1.247,25.024,2.193,50.599,3.372,75.398c1.14,24.03,8.402,46.979,13.01,70.349
			c5.739,29.113,7.176,59.969,14.525,88.493c4.807,18.66,9.311,37.402,13.077,56.304c9.811,49.208,13.387,100.619,8.179,150.888
			c-2.396,23.109-2.824,47.253-2.826,70.549c-0.002,17.306,1.336,33.894,1.336,51.407c-0.006,133.317,9.545,262.132,27.994,394.004
			c3.939,28.173,11.631,54.852,17.333,82.716c5.051,24.684,9.336,49.354,15.288,74.114
			c26.585,110.619,70.527,199.563,167.024,263.881c20.441,13.625,48.788,41.104,74.354,42.229c6.788,0.3,18.815,3.524,25.333,6.004
			c10.777,4.103,18.722,7.31,29.333,12.008c16.931,7.5,35.774,10.91,53.333,16.677c8.971,2.946,19.277,3.084,28.672,4.002
			c34.105,3.336,66.399-6.97,99.929-11.162l0.194-0.016c35.663-0.964,71.564-7.062,106.857-11.809
			c48.223-6.487,96.367-13.536,144.485-20.753c7.091-1.063,13.998-1.602,20.381-4.365c6.146-2.662,12.212-5.44,18.48-7.93
			c8.055-3.195,15.963-4.291,24.417-2.888c3.64,0.599,15.337-1.472,14.675,4.22c-0.854,7.342-28.822,7.561-33.818,8.323
			c-55.513,8.491-111.062,16.754-166.693,24.437c-27.302,3.771-54.623,7.437-82.002,10.588c-10.24,1.18-20.491,2.312-30.766,3.175
			c-14.296,1.202-30.59,1.969-44.115,5.387c-9.848,2.487-19.332,4.553-28.914,8.545c-19.468,8.108-37.799,19.319-55.114,31.604
			c-11.819,8.384-23.13,18.74-35.381,26.332c-43.736,27.097-87.809,44.422-138.822,52.021
			c-106.183,15.823-181.175,143.729-209.13,237.166c-12.489,41.744-27.788,82.623-29.334,126.744
			c-1.416,40.301-4.608,81.28-8.667,121.405c-3.489,34.461,0.967,73.875,4.667,107.394c6.065,54.957,1.729,117.125-7.771,171.619
			c-6.102,35.005-15.983,69.147-19.916,104.544c-4.407,39.691-4.518,79.681-4.519,119.566c0,31.102-0.439,61.063,3.312,91.389
			c9.744,78.805,21.931,157.142,34.697,235.494c10.825,66.429,23.794,132.051,46.987,195.416
			c14.065,38.431,28.989,76.856,48.507,112.901c14.891,27.502,31.843,64.775,68.218,64.57c6.247-0.035,13.438-1.602,19.613-2.713
			c16.636-2.998,29.505-14.52,40.877-26.273c13.339-13.789,25.488-38.674,38.729-52.551c14.727-15.434,35.502-36.815,50.278-52.196
			c77.292-80.451,146.616-134.281,221.736-238.549c53.587-74.381,110.247-127.912,163.005-177.203
			c11.604-10.841,22.822-22.507,35.327-34.203c30.899-28.903,63.541-55.856,97.412-81.196c8.74-6.539,17.792-13.998,25.578-22.101
			c8.299-8.635,14.275-18.791,21.93-27.906c8.726-10.395,17.716-24.553,27.324-34.126c27.466-27.371,63.041-40.626,96.31-59.867
			c52.184-30.182,86.29-40.478,128.178-49.528c13.688-2.958,27.608-4.545,41.58-5.33c5.076-0.284,48.037-2.763,41.123,10.237
			c-3.975,7.47-16.896,7.172-24.011,8.125c-19.395,2.597-51.928,5.549-70.768,10.923c-12.855,3.667-26.263,7.003-39.013,11.56
			c-12.884,4.604-24.428,11.335-36.597,17.451c-17.321,8.707-33.59,18.992-49.001,30.621
			c-21.576,16.279-42.507,33.414-64.608,48.916c-14.479,10.155-28.039,20.539-43.143,29.898
			c-15.875,9.84-31.794,20.241-46.789,31.387c-35.396,26.311-71.212,52.781-102.702,83.791
			c-12.22,12.033-23.762,23.398-35.401,34.274c-52.611,49.154-109.83,102.031-162.604,176.765
			c-69.753,98.778-144.629,158.317-221.984,238.836c-14.164,14.742-34.326,35.487-48.444,50.274
			c-15.916,16.67-31.808,41.842-44.62,61.599c-4.975,7.672-11.102,14.141-16.747,21.283c-4.429,5.604-7.99,12.031-11.635,18.16
			c-12.593,21.168-23.375,44.422-27.692,68.824c-3.577,20.215-7.236,46.78,2.423,65.76c15.387,30.229,53.484,45.076,82.051,59.985
			c36.379,18.985,73.727,36.274,112.729,49.196c59.755,19.799,122.234,26.541,182.122,45.562
			c27.205,8.642,55.427,21.532,84.599,19.515c32.259-2.233,64.689-23.267,93.084-37.433c16.582-8.271,31.442-19.522,47.748-28.293
			c35.05-18.851,70.643-39.978,106.28-58.854c19.997-10.595,39.119-24.597,59.622-33.951c15.189-6.929,29.971-14.135,45.064-21.267
			c15.67-7.405,31.879-14.125,47.591-21.345c28.37-13.037,59.884-28.881,90.862-34.199c38.549-6.617,77.82-23.893,114.318-37.47
			c32.777-12.19,68.48-13.592,101.185-25.741c15.254-5.667,24.473-18.164,39.187-24.825c8.115-3.673,17.36-5.812,25.687-2.015
			c21.542,9.842-5.971,30.885-15.797,36.018c-12.591,6.575-24.654,11.925-38.531,15.379c-8.167,2.032-16.497,3.734-24.522,6.296
			c-10.019,3.194-20.195,6.075-30.275,8.669c-24.689,6.35-49.271,17.148-73.049,26.707c-21.055,8.464-43.047,15.887-64.182,24.682
			c-46.773,19.461-94.826,37.381-139.166,62.043c-22.127,12.309-45.521,22.094-67.779,34.01
			c-28.426,15.221-55.121,33.354-83.645,48.612c-45.024,24.089-93.142,42.957-134.568,73.312
			c-19.479,14.272-41.44,26.187-57.832,44.283c-43.623,48.164,21.229,123.095,53.192,157.508
			c33.287,35.836,69.201,71.621,100.845,108.877c6.536,7.696,15.235,13.514,20.601,22.26c1.479,2.412,4.521,7.711,3.228,11.023
			l280.334,319.544c12.968-6.444,25.493-13.61,37.479-21.812c21.077-14.42,43.223-30.459,61.639-48.295
			c10.518-10.187,19.933-25.422,27.238-37.953c9.662-16.578,17.137-36.535,21.729-55.045c4.795-19.321,8.969-38.845,10.014-59.02
			c1.688-32.6,1.359-69.956-5.223-101.027c-6.638-31.328-15.873-61.101-20.772-92.899c-6.237-40.472,4.667-64.885,35.083-92.366
			c16.027-14.48,34.337-26.734,53.607-36.459c17.155-8.654,35.131-12.993,51.233-23.477c11.769-7.681,23.634-13.494,36.047-20.01
			c11.284-5.922,21.232-12.797,32.05-18.998c13.693-7.852,26.867-16.549,40.066-25.189c11.934-7.813,24.93-12.169,37.066-19.695
			c32.484-20.147,67.341-51.703,84.375-86.373c15.783-32.127,24.979-65.436,38.72-97.482c7.729-18.021,14.275-36.921,20.265-55.396
			c2.78-8.578,5.316-16.992,7.503-25.609c6.165-24.316,1.646-49.684-1.965-74.008c-4.94-33.289-12.868-68.536-23.084-100.014
			c-12.313-37.935-34.244-76.746-58.736-108.229c-12.092-15.544-26.185-29.445-41.753-41.493
			c-57.138-44.209-129.595-57.858-200.47-61.267c-31.541-1.519-63.618-0.646-94.951,2.018c-23.87,2.027-48.396,5.913-71.008,13.997
			c-26.088,9.325-51.341,14.155-78.142,20.993c-35.294,9.004-69.682,23.669-104.895,32.02c-27.994,6.639-54.25,17.646-81.044,29.226
			c-31.437,13.581-102.024,38.569-121.083,44.209c-73.87,21.854,9.309-88.726,40.972-112.36
			c13.199-9.854,25.562-22.748,37.563-34.008c11.707-10.986,24.48-19.272,36.59-29.809c25.891-22.523,51.806-45.499,80.408-64.861
			c15.599-10.563,31.457-21.971,47.58-31.406c24.695-14.454,47.608-30.928,73.028-44.262
			c34.802-18.252,65.772-41.491,103.974-52.783c16.781-4.961,34.836-11.189,51.468-17.061
			c33.303-11.752,65.764-21.423,100.03-29.417c42.313-9.873,87.246-18.042,127.49-32.767c24.417-8.935,51.893-10.538,75.51-21.479
			c14.545-6.733,29.271-13.794,43.702-21.033c43.454-21.799,76.427-61.678,94.46-106.371
			c31.803-78.811-0.126-190.293-69.958-239.461c-32.153-22.639-64.429-48.989-99.811-67.888
			c-58.804-31.405-119.943-60.189-184.949-76.123c-28.104-6.888-54.767-6.05-82.596-10.18c-32.399-4.81-64.104-10.931-97.063-10.319
			c-28.763,0.534-57.313,4.424-85.945,6.79c-40.888,3.378-81.922,7.13-121.966,16.431c-42.022,9.763-82.797,19.996-123.382,34.162
			c-75.854,26.479-156.743,50.457-222.189,98.238c-36.582,26.708-70.448,55.396-101.834,87.883
			c-16.877,17.472-33.117,35.066-56.649,43.265c-57.908,20.171-32.896-77.403-26.979-103.7c7.577-33.682,7.7-68.398,7.746-102.705
			c0.046-34.673,15.575-62.371,24.596-95.452c8.73-32.03,25.828-67.762,45.141-94.758c7.385-10.323,16.126-18.596,25.552-26.962
			c7.522-6.678,12.291-12.835,21.621-16.748c9.683-4.063,19.743-8.288,29.499-13.197c22.596-11.371,46.611-20.623,69.977-30.386
			c33.307-13.917,65.396-30.405,98.525-44.521c18.357-7.82,37.415-13.701,55.504-22.207c19.642-9.233,39.26-19.121,58.717-28.735
			c15.229-7.524,29.229-15.568,43.78-23.774c45.38-25.592,86.938-63.391,119.501-103.988
			c32.926-41.049,62.152-85.729,83.922-133.938c12.847-28.443,24.109-62.006,30.198-92.575
			c7.145-35.86,17.538-74.648,15.783-111.489c-1.012-21.238-4.155-40.85-7.052-61.511c-2.019-14.39-2.295-26.963-7.325-40.758
			c-5.668-15.546-12.456-30.594-18.422-46.021c-10.339-26.729-26.235-46.9-43.204-69.224
			c-13.172-17.327-30.068-32.841-46.253-47.753c-18.49-17.033-35.958-32.158-55.673-47.349
			c-13.764-10.604-31.858-18.752-47.312-26.675c-26.336-13.504-53.827-24.372-79.81-37.973
			c-18.924-9.903-39.379-16.741-57.735-27.763c-17.354-10.418-34.211-19.993-52.654-28.513
			c-29.296-13.532-60.634-21.842-90.343-34.339c-25.398-10.687-54.134-23.582-69.949-46.859
			c-21.818-32.118-27.678-71.491-27.291-110.29c0.215-21.525,4.784-43.877,7.983-65.512c3.02-20.419,6.084-41.076,8.013-61.446
			c2.128-22.461,11.081-43.626,11.026-66.525c-0.032-13.243,0.832-25.983,1.987-39.001c2.432-27.327,2.032-55.659,3.017-83.494
			c0.919-26.035,5.331-52.266,4.03-78.51c-1.268-25.635-5.791-50.536-7.036-75.492c-2.043-40.918-8.05-80.703-10.001-121.506
			c-0.887-18.492-3.213-36.967-5.495-55.002c-4.567-36.077-6.809-72.765-10.507-109.495c-2.413-23.951-4.033-45.331,4.792-68.579
			c6.339-16.696,16.126-33.012,27.305-47.313c21.778-27.854,56.655-34.694,89.823-37.617c36.777-3.237,76.131,14.036,105.033,35.232
			c14.86,10.899,30.49,28.7,41.322,43.57c14.057,19.295,24.986,43.493,35.973,64.979c7.588,14.842,16.877,29.462,25.226,43.75
			c17.88,30.605,29.673,64.229,48.366,94.754c15.666,25.583,33.404,46.356,52.543,69.292c11.627,13.936,28.566,24.719,42.126,36.494
			c46.099,40.045,100.905,66.685,162.487,65.938c24.123-0.293,47.306,0.248,70.164-7.238c26.959-8.829,55.004-14.497,80.838-26.535
			c23.629-11.012,48.978-19.117,71.98-31.825c29.729-16.424,57.582-36.95,87.489-52.657c14.723-7.731,34.077-10.777,50.504-13.788
			c37.748-6.919,76.556-7.58,114.704-3.993c27.021,2.542,53.254,8.322,78.297,17.968c10.756,4.145,21.369,8.698,32.162,12.844
			c26.041,10.003,52.148,23.512,76.865,36.5c39.414,20.712,77.748,45.028,120.96,57.21c19.118,5.392,38.55,6.328,57.258,12.468
			c23.828,7.819,49.42,12.896,73.81,18.825c11.896,2.895,23.698,5.303,35.474,8.136c26.43,6.357,52.58,14.989,79.505,19.308
			c33.416,5.357,65.18,10.895,97.992,20.771c16,4.815,32.334,6.859,48.502,10.009c25.979,5.058,48.351,8.935,61.168,34.807
			c10.558,21.304,9.532,48.945-13.646,61.179c-19.097,10.076-45.623,11.377-66.55,15.06c-27.909,4.911-55.907,8.101-83.977,10.953
			c-32.509,3.302-65.013,1.309-97.496,3.003c-21.193,1.104-44.027,2.034-65.003,4.955c-37.313,5.195-76.29,11.238-113.001,21.021
			c-26.701,7.115-52.533,17.347-77.322,29.512c-11.218,5.504-21.246,12.392-31.971,18.312c-11.021,6.086-23.551,9.052-34.496,15.458
			c-14.451,8.46-29.104,16.712-43.664,25.271c-27.296,16.043-53.212,34.494-81.551,49.212
			c-22.781,11.829-44.784,25.402-65.429,40.301c-37.563,27.104-60.645,59.963-85.96,97.641
			c-24.191,36.003-46.291,79.398-56.903,121.896c-4.899,19.626-7.698,40.358-9.69,60.949c-1.923,19.836,0.986,39.635,0.014,59.472
			c-2.671,54.38,13.806,102.241,33.479,151.896c11.479,28.968,24.4,57.018,34.907,86.411c4.456,12.466,12.914,22.958,20.744,33.667
			l218.509-257.729c-1.076-0.664-2.137-1.389-3.179-2.182c-15.832-12.041-3.318-41.008,6.977-52.94
			c23.737-27.515,64.027-42.49,97.211-54.444c125.363-45.158,259.968-46.882,389.621-72.272
			C3584.438,2090.239,3623.209,2080.796,3661.962,2071.372z" color="13939253" style="fill:#d4b235;fill-opacity:1;stroke-width:10;stroke:rgb(0,0,0)"></path></g><g id="157960559" order="0" group_label_id="113753816" group_label="Atlas - Developing Human Sulci" sub_image_id="102339949"><path id="157960564" parent_id="157960559" order="0" structure_id="146034836" d="M1473.84,6436.46c0.404,0.427,4.408-41.021,4.408-41.021
			s-26.795-31.021-26.454-31.666c0.343-0.646,97.159,9.438,97.151,10.226C1548.938,6374.784,1473.434,6436.031,1473.84,6436.46z" color="7171696" style="fill:#6d6e70;fill-opacity:1;stroke-width:10;stroke:rgb(0,0,0)"></path><path id="157960561" parent_id="157960559" order="1" structure_id="10639" d="M4414.007,1825.224c0.597,0.514,70.528-67.195,70.254-67.874
			c-0.274-0.676-41.263-0.071-41.263-0.071s-27.568-28.054-28.572-29.655C4414.938,1730.675,4413.42,1824.721,4414.007,1825.224z" color="7171696" style="fill:#6d6e70;fill-opacity:1;stroke-width:10;stroke:rgb(0,0,0)"></path><path id="157960563" parent_id="157960559" order="2" structure_id="13222" d="M5806.923,5617.167c0.78-0.067,68.942,69.259,69.33,68.813
			c0.388-0.446-41.253-0.48-41.253-0.48s-28.327,29.629-29.002,29.352C5805.324,5714.572,5806.141,5617.234,5806.923,5617.167" color="7171696" style="fill:#6d6e70;fill-opacity:1;stroke-width:10;stroke:rgb(0,0,0)"></path><path id="157960562" parent_id="157960559" order="3" structure_id="13221" d="M3296.689,7079.701c0.189-0.559-38.355,15.195-38.355,15.195
			s-14.979,38.156-15.708,38.153c-0.729-0.004-36.882-90.38-36.182-90.74C3207.145,7041.954,3296.5,7080.258,3296.689,7079.701z" color="7171696" style="fill:#6d6e70;fill-opacity:1;stroke-width:10;stroke:rgb(0,0,0)"></path></g></g></svg>
