<svg id="the_svg_wrapper" class="svg_wrapper" width="100%" height="100%" version="1.1" xmlns="http://www.w3.org/2000/svg"><g id="master_group" transform="translate(0,0) scale(0.0546875)" width="49791" height="68447" image_id="102291506" image_url="/external/devhuman/prod14/3760000363/3760000363.aff"><g id="157961246" order="0" group_label_id="31" group_label="Atlas - Developing Human" sub_image_id="102291506"><clippath><path id="zap_container_graphics_clip" d="M 0 0 L 1498 0 L 1498 312 L 0 312 L 0 0" style="fill:#000000;fill-opacity:1;stroke-width:10;stroke:rgb(0,0,0)"></path></clippath><path id="157961248" parent_id="157961246" order="0" structure_id="10557" d="
			M6341.504,5026c-30.301-50.735-59.31-94.937-81.333-151.333c-19.404-49.689-20-114.667-23.333-170
			c-3.101-51.468-2.667-108.667-25.334-143.333c-54.44-83.262-146.805-19.588-191.784,4.989
			c-95.919,52.41-158.492,71.343-254.216,91.011c-66.797,13.725-142.217,33.112-208,41.333
			c-62.851,7.854-125.95,5.095-188.667,3.333c-75.064-2.108-133.246-2.437-201.333-24c-62.904-19.922-124.435-43.818-182.667-75.333
			c-70.073-37.922-143.598-86.809-191.716-155.061c-28.27-40.099-43.814-83.224-48.612-131.848
			c-4.289-43.475-8.848-97.646,9.663-137.76c16.853-36.52,51.871-75.027,80.207-105.275c32.795-35.01,68.906-60.556,113.995-75.083
			c72.005-23.198,175.283-41.901,285.114-41.918c67.445-0.011,134.832-2.889,202.197-5.926
			c107.428-4.842,142.098-31.376,223.152-73.131c44-22.667,82.541-32.895,108.703-73.958c29.181-45.799,40.023-59.128-10.036-94.041
			c-38.31-26.718-82.698-29.823-125.333-11.333c-178.538,77.428-420.623,79.958-571.629-59.857
			c-59.152-54.771-123.533-165.971-179.705-288.143c-53.334-116-112.571-221.478-158.139-338.037
			c-21.12-54.026-42.192-155.878-69.194-276.63c-9.177-41.036-38.455-185.42-106.666-235.333
			c-26.598-19.463-70.24-56.689-102.666-50c-43.314,8.937-71.746,53.892-81.334,92c-7.303,29.022-26.938,137.73-24,170
			c8.002,87.881,34.144,138.338,46.667,178c12.366,39.166,22.159,70.087,30,109.333c22.865,114.446,29.204,195.496,31.333,241.333
			c3.017,64.941-8.843,134.065-11.334,201.333c-2.567,69.314-26.057,134.534-54.563,195.778
			c-30.284,65.063-37.375,90.013-100.103,135.555c-68.111,49.451-148.267,91.493-231.333,118.667
			c-73.933,24.186-162.299,49.329-240,52c-83.898,2.885-193.247-6.318-285.541-38.36c-43.142-14.979-82.562-34.94-113.906-61.003
			c-60.097-49.975-85.863-107.681-96.553-194.637c-10.151-82.572,38.138-139.691,102.667-186
			c112.518-80.748,172.336-56.865,182-129.333c10.942-82.067-36.792-90.383-111.526-241.696
			c-34.77-70.398-63.953-146.132-87.807-220.971c-22.838-71.654-29.201-109.75-32-185.333c-2-54-4.536-100.536-4.667-151.333
			c-0.128-49.542,7.333-105.654,7.333-156c0-54.24-11.44-109.153-14.667-163.333c-3.525-59.188-3.465-89.764-8.383-140.952
			c-4.052-42.168-18.902-90.723-40.95-128.381c-19.981-34.128-53.417-63.837-90.667-82c-34.998-17.064-91.344-10.898-108.715,24.358
			c-28.94,58.738-33.052,104.773-36.618,172.976c-2.562,48.996,8.715,104.446,14,152c5.251,47.242,12,91.333,12,140.666
			c0,155.274-36.667,347.334-181.333,410c-78.138,33.848-173.333,52.667-266,42.667c-45.369-4.896-90.243-21.38-132-35.333
			c-142.674-47.676-170.897-81.083-274-183.334c-82.547-81.865-155.29-176.484-242.667-254
			c-79.521-70.546-153.832-147.511-224.72-226.803c-46.398-51.898-103.253-107.505-155.28-209.864
			c-32.453-63.848-46.678-145.381-57.333-215.333c-19.204-126.08,0-217.334-96.7-359.741
			c-37.165-54.73-112.68-90.847-181.967-72.926c-64.413,16.66-99.275,108.841-111.333,167.333
			c-20.401,98.98-11.88,204.155-2,303.333c2.917,29.274,22.521,193.505,27.982,243.526c10.378,95.045,23.476,182.029,56.685,272.474
			c27.255,74.231,73.691,145.982,141.333,190c89.602,58.309,116.592,65.575,194,101.333c76.853,35.502,149.693,79.823,212.667,136
			c43.608,38.902,127.72,132.311,153.821,205.904c30.49,85.965-3.411,172.835-60.243,240.323
			c-56.497,67.09-138.911,102.439-219.587,139.002c-92.748,42.035-197.991,57.436-286.657,110.769
			c-44.649,26.856-64.771,56.096-67.333,108c-2.583,52.326,11.074,75.954,54.527,102.021c69.78,41.861,74.911,45.066,197.473,44.646
			c25.476-0.088,103.173,20.432,322-1.333c47.984-4.772,101.191-6.065,150.315-7.976c106.574-4.144,257.658,3.383,355.704,51.517
			c117.976,57.92,180.888,153.301,245.124,257.086c9.143,14.773,18.313,29.717,27.673,44.747
			c39.862,64.01,71.241,130.12,83.183,204.625c33.882,211.392-9.254,376.775-68.351,563.772
			c-24.397,77.199-112.372,243.467-185.025,314.652c-120.412,117.98-216.991,166.411-365.75,225.66
			c-44.409,17.688-103.596,40.635-139.541,83.915c-38.754,46.663-71.203,91.216-64.667,164.667c7.242,81.33,98.62,97.053,148,88.667
			c41.561-7.058,84.045-20.033,126.773-27.309c52.776-8.985,107.639-26.434,161.227-27.357c84.961-1.465,122.78,3.334,203.333,42
			c18.229,8.75,57.275,30.692,74.667,42.667c71.558,49.27,109.475,107.548,115.215,209.439
			c7.999,141.974-45.193,285.863-185.888,342.562c-26.365,10.623-68.361,26.687-96,29.333c-62.667,6-49.382-3.264-162,50
			c-46.023,21.768-119.714,45.516-230.667,85.999c-86.532,31.572-176.201,65.146-262,98.667
			c-44.627,17.436-94.377,33.82-141.034,47.813c-58.583,17.57-278.156,68.433-337.633,66.186
			c-69.647-2.632-131.34-1.781-157.486-6.943c-37.145-7.333-110.873-35.529-114.011,27.003
			c-1.062,21.169,12.493,36.146,14.831,57.94c2.876,26.811-3.617,56.327-14.012,79.987c-33.478,76.201-57.206,97.388-56.655,142.012
			c0.801,64.843,63.769-19.843,67.941-24.325c32.575-34.995,76.239-57.654,116.896-81.746
			c54.638-32.376,118.896-51.969,181.161-63.929c62.382-11.982,128.724-33.893,191.333-45.333
			c124.72-22.791,251.333-16.666,372.666-5.333c130.733,12.212,209.963-32.378,248.667-74.666
			c28.846-31.517,54.577-74.511,81.272-112.812c37.535-53.854,58.123-88.276,134.174-135.146
			c61.34-37.804,149.503-89.178,219.887-78.041c53.258,8.427,45.394,36.202,40.632,194.176
			c-1.991,66.033-19.984,125.26-16.632,209.824c4.302,108.534,7.571,176.076-14,306.666c-0.487,2.951-1.051,5.902-1.655,8.852
			c-23.658,115.501-134.88,228.902-185.678,267.814c-44.711,34.248-113.878,73.682-168.667,92.668
			c-202,70-408.216,121.438-617.666,152.334c-75.735,11.172-151.131,24.048-227.529,25.968
			c-75.814,1.907-142.5-1.369-159.877,19.112c-8.033,9.47-38.361,53.601,49.072,82.584c77.293,25.625,185.468,54.837,259.957,91.434
			c17.17,8.437,52.949,38.15,98.044,92.568c24.936,30.091,30.691,114.333,17.333,167.333c-13.299,52.76-42.948,81.927-75.5,111.823
			c-10.859,9.973-22.042,20.027-33.049,31.065c-88.666,88.921-296.186,113.277-411.862,119.333
			c-49.329,2.582-146.895-35.513-173.589,31.112c-18.387,45.889,27.623,99.752,44.509,139.927
			c43.486,103.463,50.888,145.803,32.824,264.74c-7.364,48.494-21.694,101.009-31.333,147.333
			c-9.216,44.295-18.082,90.738-29.333,135.333c-17.79,70.512-41.214,110.419-30,138c25.022,61.547,94.408-47.961,102-68.667
			c22-60,51.091-125.291,79.333-183.333c63.669-130.846,111.976-220.025,208-316c58.818-58.787,162.956-152.4,275.979-164.473
			c37.416-3.996,68.708-3.811,96.507,1.246c59.773,10.871,103.38,44.283,156.847,107.228
			c52.666,62.001,54.285,195.272,16.191,289.177c-33.732,83.153-74.16,135.336-132.191,216.823
			c-14.83,20.824-49.266,65.475-42.847,92.723c18.275,77.577,152.166-41.041,171.513-59.389
			c47.434-44.981,77.314-92.313,110.667-146.666c68.387-111.446,116.667-224.667,172.667-344.667
			c19.976-42.806,38.118-92.387,58.667-135.334c19.331-40.404,56.061-126.303,107.333-194.666
			c48.751-65.002,97.245-88.8,180.389-126.788c47.326-21.623,96.892-43.894,146.944-55.879
			c23.491-5.625,103.095-16.729,135.238-46.211c39.919-36.616,29.462-48.089,30.71-161.585
			c0.451-41.048,25.709-146.087,55.321-208.117c32.476-68.032,110.64-118.445,199.714-139.683
			c68.722-16.385,143.937-15.407,209.683,8.262c32.03,11.531,60.393,22.345,88.666,42.666
			c21.333,15.333,45.733,28.873,66.667,45.333c41.081,32.308,78.478,66.365,123.909,92.575
			c30.04,17.332,144.886,78.505,178.759,32.758c22.32-30.146-10-90.667-33.244-117.929c-58.591-68.72-33.805-78.695-81.844-122.557
			c-67.876-61.973-74.649-85.763-115.047-183.324c-38.18-92.204-33.541-147.821-5.2-228.189
			c51.248-145.33,129.441-225.791,258.167-258.863c152.07-39.07,267.627,15.886,388.501,108.863
			c49.984,38.449,88.615,70.741,115.145,132.497c22.297,51.905,48.933,104.256,66.188,158.837
			c31.798,100.575,57.334,196.668,88.175,302.729c19.577,67.326,25.407,146.385,82.493,193.939
			c47.951,39.945,89.25-21.315,97.685-64.778c3.612-18.611-9.639-100.086-33.685-176.556
			c-50.785-161.5-100.517-317.769-20.891-486.89c18.881-40.102,40.499-68.371,74.702-90.009
			c24.172-15.291,54.625-27.271,94.854-37.766c49.334-12.87,108.365-10.553,226.667,51.333
			c80.879,42.311,124.552,127.174,156,209.334c19.382,50.637,54.988,79.312,155.334,279.999
			c24.581,49.162,61.009,95.863,88.667,143.334c39.065,67.053,72.353,132.127,142.667,171.333
			c68.467,38.177,139.945,56.311,201.333,36.667c39.115-12.517,79.731-35.146,98.667-74.667
			c36.805-76.813-101.61-130.289-147.896-158.933c-66.81-41.345-154.889-86.138-206.104-148.401
			c-34-41.334-55.109-99.559-71.333-150.667c-12.654-39.866-23.568-92.144-22.952-139.172c0.341-25.996,4.201-50.39,13.243-70.193
			c26.737-58.557,83.467-100.555,137.71-130.635c52.814-29.288,110.456-52.252,169.333-66.667
			c54.12-13.25,110.15-8.302,165.561-10.484c106.682-4.197,234.391,14.569,287.178,5.16c71.955-12.83,102.549-32.157,84.596-109.342
			c-12.087-51.965-33.407-70.748-91.333-90c-97.847-32.52-194.388-15.618-294.667-20.667
			c-97.234-4.895-132.668,3.999-261.334-25.334c-84.376-19.235-130.287-18.706-232.001-86.667
			c-42.781-28.585-83.934-62.629-120.419-98.636c-33.131-32.694-79.19-48.619-122.426-65.996
			c-94.744-38.079-191.101-49.847-291.155-65.367c-46.458-7.206-105.333-21.333-157.333-20c-24.701,0.633-169.137-7.566-216-12.667
			c-126.123-13.727-153.249-18.73-259.283-76.735c-50.115-27.415-118.714-74.594-137.384-132.599
			c-7.876-24.476-10.598-49.282-9.169-73.737c3.317-56.754,29.021-111.61,64.763-156.007
			c33.172-41.205,137.438-120.354,190.015-150.388c88.154-50.356,236.089-94.986,356.393-109.869
			c64.666-8,201.552-30.505,249.358-37.397c45.65-6.582,98.827-11.337,143.935-24.819c51.415-15.367,105.048-52.064,148.04-85.783
			c34.001-26.667,104.001-104,162.035-175.237c63.9-78.438,70.002-89.979,181.3-144.096c100.86-49.04,258.501-87.815,366.79-41.849
			c77.091,32.724,130.544,81.848,203.129,145.435c36.949,32.369,57.032,69.792,82.506,110.089
			c24.872,39.344,46.016,91.358,94.909,107.657c69.453,23.152,90.55-15.697,103.333-78.666
			C6418.894,5152.561,6370.171,5074,6341.504,5026z M4907.501,5179.33c-137.156,92.288-351.453,90.239-496.669,80
			c-67.983-4.793-146.335-31.854-209.399-62.981c-72.123-35.6-122.855-103.366-190.601-176.352
			c-49.533-53.364-41.737-61.983-143.334-166c-28-28.667-155.8-127.04-179.334-151.333
			c-41.333-42.667-92.976-84.513-120.332-133.341c-22.879-40.837-27.619-98.912-23.667-144.656
			c4.925-57.005-14.259-79.216,124-148.667c55.335-27.796,224.643-83.93,291.335-87.333c83.344-4.252,107.928-1.218,202.666,24
			c95.283,25.363,119.77,35.039,174.668,89.333c61.187,60.515,101.993,141.368,141.333,217.334
			c84.934,164.011,106.433,202.173,282.668,314.663C4924.138,4938.231,5098.905,5050.54,4907.501,5179.33z" color="15921648" style="fill:#f2f1f0;fill-opacity:1;stroke-width:10;stroke:rgb(0,0,0)"></path></g><g id="157961251" order="0" group_label_id="113753815" group_label="Atlas - Developing Human Gyri" sub_image_id="102291506"><path id="157961260" parent_id="157961251" order="0" structure_id="12157" d="
			M1014.368,7319.421c24.902-18.328,50.653-37.279,76.237-53.075c138.599-85.565,152.761-93.07,206.56-107.016
			c14.131-3.663,32.138-51.107,96.002-76.329c31.004-12.244,59.029-20,96.333-20c49.5,0,101.057,6.271,151.167,6.667
			c21,0.166,40.342,2.173,59.833,0.499c25.169-2.162,42.914-2.431,60.833-5.666c75.789-13.684,75.134-13.062,140.833-14
			c17.575-0.251,52.553-6.86,103.5-7.667c76.682-1.214,126.602-12.605,177.667-24.167c59.088-13.379,15.502,5.215,89.5,3.001
			c11.167-0.334,66.884-15.66,91.103-25.931c4.041-1.72,6.859-0.125,7.985,2.525c0.412,0.972,0.586,1.993,0.568,3.002
			l272.021-39.081c0.604-2.949,1.167-5.9,1.655-8.852c21.57-130.59,18.302-198.132,14-306.666
			c-3.352-84.564,14.641-143.791,16.632-209.824c4.762-157.974,12.626-185.749-40.632-194.176
			c-70.384-11.137-158.547,40.237-219.887,78.041c-76.051,46.87-96.639,81.293-134.174,135.146
			c-26.695,38.302-52.427,81.296-81.272,112.812c-38.704,42.288-117.934,86.878-248.667,74.666
			c-121.333-11.333-247.945-17.458-372.666,5.333c-62.609,11.44-128.952,33.351-191.333,45.333
			c-62.266,11.96-126.523,31.553-181.161,63.929c-40.657,24.092-84.321,46.751-116.896,81.746
			c-4.173,4.482-67.14,89.168-67.941,24.325c-0.551-44.624,23.177-65.811,56.655-142.012c10.395-23.66,16.888-53.177,14.012-79.987
			c-2.338-21.795-15.894-36.771-14.831-57.94c3.138-62.532,76.866-34.336,114.011-27.003c26.146,5.162,87.839,4.312,157.486,6.943
			c59.477,2.247,279.049-48.615,337.633-66.186c46.657-13.993,96.407-30.378,141.034-47.813
			c85.799-33.521,175.468-67.095,262-98.667c110.953-40.483,184.643-64.231,230.667-85.999c112.618-53.264,99.333-44,162-50
			c27.639-2.646,69.635-18.71,96-29.333c140.695-56.699,193.887-200.589,185.888-342.562
			c-5.74-101.892-43.657-160.17-115.215-209.439c-17.391-11.975-56.438-33.917-74.667-42.667
			c-80.553-38.666-118.372-43.465-203.333-42c-53.588,0.924-108.451,18.372-161.227,27.357
			c-42.728,7.275-85.212,20.251-126.773,27.309c-49.38,8.386-140.758-7.337-148-88.667c-6.536-73.451,25.913-118.004,64.667-164.667
			c35.945-43.28,95.132-66.228,139.541-83.915c148.759-59.249,245.338-107.68,365.75-225.66
			c72.653-71.186,160.627-237.454,185.025-314.652c59.097-186.997,102.232-352.38,68.351-563.772
			c-11.942-74.506-43.321-140.615-83.183-204.625c-9.36-15.03-18.53-29.973-27.673-44.747l-313.277,160.522
			c0.7,3.319-0.758,7.137-5.925,8.994c-13.448,4.833-57.735,23.241-88.37,52.455c-47.939,45.716-62.995,74.421-61.906,96.404
			c1.861,37.604-3.308,83.645-2.363,119.56c1.451,55.115,10.221,159.221-17.957,261.331
			c-11.251,40.773-37.333,91.205-77.029,110.108c-35.775,17.036-81.406,25.378-140.826,55.763
			c-43.076,22.027-44.633,12.737-95.884,38.368c-36.518,18.263-72.703,39.383-106.122,64.365
			c-82.646,61.778-109.794,91.872-147.37,133.522c-8.84,9.799-17.115,25.031-27.733,36.416
			c-57.249,61.381-110.723,151.922-129.057,207.458c-20.936,63.42-5.005,37.879-25,132.317c-2.718,12.841-6.035,38.2-8.979,51.51
			c-12.128,54.837-18.903,79.865-3.781,144.134c17.521,74.459,32.607,151.695,61.906,232.978
			c9.139,25.354,28.238,65.336,56.551,114.308c6.892,11.92,13.08,24.784,19.064,37.224c4.285,8.907,8.478,17.623,12.843,25.885
			c4.621,8.746,10.772,6.62,43.86,19.172c13.705,5.198,69.543,26.384,111.999,22.683c9.897-0.862,78.837-8.08,108.69-11.341
			c17.942-1.96,37.242-3.298,53.4-4.727c28.481-2.518,45.376-12.152,66.632-8.508c37.195,6.377,65.972-7.675,83.262-11.372
			c26.636-5.695,45.663-11.853,63.281-18.724c7.878-3.073,15.319-5.975,22.919-8.648c58.55-20.596,101.08-41.255,132.134-56.34
			c8.594-4.175,16.016-7.78,22.788-10.909c28.813-13.314,80.776-35.309,118.226-50.383c19.309-7.772,25.468-12.804,31.04-16.564
			c3.333-2.25,11.347-2.045,12.647,2.238c1.555,5.114-2.918,10.551-8.531,12.864c-21.443,8.85-20.521-0.126-33.732,5.193
			c-37.328,15.027-89.198,36.986-117.972,50.282c-6.737,3.113-14.143,6.71-22.717,10.876
			c-31.141,15.127-73.79,35.845-132.555,56.516c-7.537,2.651-14.947,5.541-22.793,8.602c-21.781,8.495-46.453,18.118-84.75,26.934
			c-18.357,4.226-45.009,18.95-70.808,22.591c-19.505,2.753-36.311-5.407-61.256-3.202c-16.118,1.425-33.045,3.274-50.966,5.231
			c-18.129,1.981-45.146,13.649-87.201,11.678c-7.087-0.332-22.847-0.642-34.498-0.945c-18.739-0.488-31.713,0.279-51.51,5.198
			c-3.733,0.928-44.714,19.188-52.455,24.573c-21.915,15.246-58.126,34.498-76.556,48.675c-8.824,6.787-20.673,18.161-26.637,26.82
			c-11.739,17.042-21.149,33.719-28.708,47.114c-2.561,4.538-4.979,8.824-7.199,12.611c-0.372,0.636-1.041,0.989-1.728,0.989
			c-0.343,0-0.691-0.088-1.009-0.274c-0.953-0.559-1.273-1.783-0.714-2.736c2.203-3.759,4.614-8.032,7.166-12.556
			c7.817-13.854,17.602-31.195,29.906-48.878c5.763-8.281,14.155-19.992,19.472-29.234c9.92-17.246,29.376-42.606,42.059-66.159
			c4.914-9.126,14.852-32.976,4.755-51.058c-5.683-10.179-10.963-21.154-16.389-32.433c-5.952-12.373-12.107-25.167-18.923-36.956
			c-11.645-20.143-23.497-40.984-35.092-62.465c-16.438-30.451-36.094-58.009-60.527-84.09
			c-26.06-27.816-42.66-19.142-46.312-23.157c-2.874-3.161,5.047-15.528,3.781-50.564c-1.418-39.223-9.25-78.151-9.452-108.218
			c-0.536-79.832,4.55-120.038,10.397-166.817c1.89-15.122,8.625-43.403,11.342-56.235c9.761-46.103,29.747-81.266,44.83-126.955
			c18.472-55.953,46.507-107.988,68.585-150.44c17.274-33.215,37.993-49.366,56.236-63.797
			c12.184-9.638,23.968-21.275,32.797-31.062c37.728-41.819,64.986-72.034,147.945-134.046
			c96.005-71.765,189.294-109.922,242.679-130.246c77.117-29.365,138.68-54.509,151.222-144.133
			c19.375-138.462,41.182-185.64,17.484-273.145c-6.143-22.684-27.788-104.562-95.458-138.463
			c-61.157-30.638-131.847-42.059-206.04-49.62c-17.575-1.791-34.583-5.821-50.669-6.597c-89.862-4.332-173.305-5.154-270.556-2.669
			c-35.389,0.905-59.011,0.968-77.992,1.019c-43.573,0.117-61.609,0.166-138.777,10.23c-49.349,6.437-66.45,5.982-100.518,5.075
			c-25.996-0.692-61.485-1.635-127.809-0.236c-23.998,3.481-79.33,10.147-100.662,17.481
			c-83.965,28.864-169.321,78.347-224.667,173.333c-34.403,59.042-28.427,44.779-60.667,272c-7.387,52.062-24.048,99.868-32,132
			c-11.192,45.22-17.553,80.072-25.333,126c-23.178,136.837-39.333,263.333-48.667,402.667
			c-1.632,24.357-4.144,75.484-10.633,150.218c-8.397,96.7,3.14,195.258,3.154,291.029c0.013,77.768,8.146,150.547,12.002,228.022
			c1.87,37.571,12.81,78.063,18.143,118.73c8.483,64.688,15.144,119.453,12.103,184.344c-3.884,82.895-38.162,169.918-23.55,279.176
			c4.881,36.495-2.697,73.66-0.851,110.817c3.867,77.831-3.036,126.325-3.036,150.998c0,102.156,13.292,194.918,19.333,294
			c4.288,70.332,4,114.667,36.667,202c40.774,109.007,45.873,132.003,112.053,136.237c54.824,3.507,152.613-42.236,185.864-55.18h0
			c13.231-7.262,24.543-13.885,30.461-18.075C990.762,7336.794,1002.762,7327.962,1014.368,7319.421z" color="14837888" style="fill:#e26880;fill-opacity:1;stroke-width:10;stroke:rgb(0,0,0)"></path><path id="157961255" parent_id="157961251" order="1" structure_id="146034876" d="
			M1124.366,7854.414c10.797,2.649,24.235,5.946,53.304,16.146c34.333,12.048,68.373,22.42,107.124,32.642
			c17.616,4.646,31.212,7.591,42.137,9.956c18.544,4.016,30.796,6.668,44.895,13.719c7.379,3.69,27.72,3.844,37.885,2.957
			c5.567-0.483,8.188,2.116,8.938,5.254c0.229,0.962,0.129,1.796-0.204,2.522L1634,8065.822c32.552-29.896,62.2-59.063,75.5-111.823
			c13.358-53,7.603-137.242-17.333-167.333c-45.095-54.418-80.874-84.132-98.044-92.568
			c-74.488-36.597-182.663-65.809-259.957-91.434c-87.433-28.983-57.104-73.114-49.072-82.584
			c17.377-20.481,84.063-17.205,159.877-19.112c76.398-1.92,151.794-14.796,227.529-25.968
			c209.45-30.896,415.666-82.334,617.666-152.334c54.788-18.986,123.955-58.42,168.667-92.668
			c50.798-38.912,162.021-152.313,185.678-267.814l-272.021,39.081c-0.058,3.35-2.317,6.562-5.783,7.347
			c-6.445,1.461-30.545,1.872-69.206,17.557c-29.351,11.908-64.913,23.983-104.667,29.499
			c-63.812,8.854-122.376,4.815-186.667,5.834c-39.124,0.619-74.59-4.808-104-3.334c-78.214,3.922-110.944,6.744-140.125,12.013
			c-18.015,3.253-35.019,11.309-60.375,13.487c-19.572,1.681-40.565,4.371-61.833,5.334c-49.836,2.255-93.125,14.019-139.167,26.833
			c-27.062,7.531-56.833,15.167-84.5,24c-30.078,9.603-63.355,9.438-94.386,17.351c-3.168,0.809-6.198,1.577-9.109,2.314
			c-66.258,16.801-70.224,17.807-219.964,110.251c-25.446,15.709-51.13,34.612-75.968,52.893
			c-11.62,8.552-23.635,17.395-35.217,25.595c-5.185,3.671-14.142,9.027-24.817,15.01h0
			c-30.067,19.569-159.96,120.111-151.506,204.687c11.267,112.721,90.916,141.472,149.632,186.726
			c19.428,14.975,46.667,41.334,65.295,53.91c15.92,8.579,32.382,17.45,48.9,25.119
			C1101.667,7848.844,1110.211,7850.94,1124.366,7854.414z" color="12100205" style="fill:#b8a26d;fill-opacity:1;stroke-width:10;stroke:rgb(0,0,0)"></path><path id="157961257" parent_id="157961251" order="2" structure_id="12125" d="
			M6443.504,7164.664c-69.514-21.114-130.51-18.001-169.334-18.001c-47.197,0-95.81-2.666-142.666-2.666
			c-112.396,0-149.887-3.84-203.334-13.334c-101.333-18-146.305-0.531-188.667-30c-17.552-12.21-43.573-15.844-51.269-23.695
			l-292.353-76.804c-0.616,47.028,10.298,99.306,22.952,139.172c16.224,51.108,37.333,109.333,71.333,150.667
			c51.216,62.264,139.295,107.057,206.104,148.401c46.285,28.644,184.7,82.119,147.896,158.933
			c-18.936,39.521-59.552,62.15-98.667,74.667c-61.388,19.644-132.866,1.51-201.333-36.667
			c-70.314-39.206-103.602-104.28-142.667-171.333c-27.658-47.471-64.086-94.172-88.667-143.334
			c-100.346-200.688-135.952-229.362-155.334-279.999c-31.448-82.16-75.121-167.023-156-209.334
			c-118.302-61.886-177.333-64.203-226.667-51.333c-40.229,10.494-70.683,22.475-94.854,37.766
			c-34.203,21.638-55.821,49.907-74.702,90.009c-79.626,169.121-29.895,325.39,20.891,486.89
			c24.046,76.47,37.297,157.944,33.685,176.556c-8.435,43.463-49.733,104.724-97.685,64.778
			c-57.086-47.555-62.916-126.613-82.493-193.939c-30.841-106.061-56.377-202.153-88.175-302.729
			c-17.256-54.581-43.892-106.932-66.188-158.837c-26.529-61.756-65.16-94.048-115.145-132.497
			c-120.874-92.978-236.431-147.934-388.501-108.863c-24.823,6.378-47.76,14.525-68.994,24.553l105.172,241.761
			c1.028-0.283,2.05-0.452,3.051-0.486c8.976-0.299,22.691,29.815,31.713,50.264c17.951,40.689,32.441,39.256,48.17,41.587
			c20.11,2.98,41.283,6.149,46.673,68.215c0.835,9.612,11.113,25.252,19.738,34.397c37.497,39.759,75.266,85.334,98.857,137.728
			c35.805,79.514,75.916,173.352,101.945,266.464c21.728,77.722,32.062,148.793,31.29,215.704l0.009-0.002
			c2.879,26.68,15.211,65.556,19.546,80.013c14.03,46.791,33.888,67.223,80,83.333c41.878,14.632,89.88,11.133,134,13.333
			c89.974,4.486,171.335-4,261.333,1.333c51.102,3.028,174.128-36.517,219.541-81.95c28.403-28.416,52.667-61.197,66.013-98.946
			c16.886-47.764,21.113-81.103,13.051-130.959l-0.001-0.009c-7.875-29.316-13.946-58.901-20.213-89.453
			c-8.608-41.975-17.511-85.378-31.781-129.004c-34.641-105.899-84.328-234.09-107.517-265.305
			c-6.033-8.121-10.85-15.167-14.76-21.39c-10.851-17.27-13.894-27.626-19.668-36.464c-5.85-8.953-8.595-12.892-13.728-24.591
			c-1.46-3.324,0.316-6.152,2.884-7.244c2.289-0.974,5.209-0.564,7.023,2.111c7.903,11.668,16.868,22.402,20.055,31.395
			c6.069,17.134-0.562,20.912,6.871,32.738c3.848,6.122,8.59,13.059,14.533,21.06c24.313,32.729,73.846,161.707,108.107,266.445
			c14.341,43.843,23.267,87.36,31.898,129.444c3.631,17.702,7.197,35.078,11.085,52.261v-0.001
			c13.272,37.195,36.974,84.706,49.939,115.195c52.769,124.084,145.453,218.951,275.332,280.207
			c136.669,64.458,246.416,97.968,435.711,98.273c82.349,0.126,222.902-67.233,364.959-152.481
			c33.923-20.357,65.866-41.701,97.088-66.541c31.208-24.829,64.368-65.323,85.58-98.125
			c50.007-77.339,92.925-162.918,128.666-248.001c17.457-41.557,37.305-84.692,43.219-138.141
			c4.115-37.193,3.771-75.822,5.141-116.233C6515.584,7251.157,6528.906,7190.605,6443.504,7164.664z" color="11243864" style="fill:#ab9158;fill-opacity:1;stroke-width:10;stroke:rgb(0,0,0)"></path><path id="157961258" parent_id="157961251" order="3" structure_id="12123" d="
			M3563.497,6998c-28.34,80.368-32.979,135.985,5.2,228.189c40.397,97.562,47.171,121.352,115.047,183.324
			c48.039,43.861,23.253,53.837,81.844,122.557c23.244,27.262,55.564,87.783,33.244,117.929
			c-33.873,45.747-148.719-15.426-178.759-32.758c-45.431-26.21-82.828-60.268-123.909-92.575
			c-20.933-16.46-45.333-30-66.667-45.333c-28.273-20.321-56.636-31.135-88.666-42.666c-65.746-23.669-140.961-24.646-209.683-8.262
			c-89.075,21.237-167.238,71.65-199.714,139.683c-29.612,62.03-54.87,167.069-55.321,208.117
			c-1.248,113.496,9.209,124.969-30.71,161.585c-32.144,29.482-111.748,40.586-135.238,46.211
			c-50.053,11.985-99.618,34.256-146.944,55.879c-44.945,20.535-79.763,36.927-109.971,57.919l190.476,291.316
			c5.187-1.631,12.059,13.763,51.675,24.893c19.916,5.594,53.27,7.142,74.767,3.991c42.169-6.183,89.577-24.19,130.666-39.333
			c196.826-72.537,253.939-80.562,341.208-149.769c39.838-31.593,71.158-73.265,98.792-115.564
			c25.666-39.288,48.316-68.955,50.667-116c0.458-9.154-1.333-43.333-7.991-64.94c-7.083-17.498-12.173-31.737-16.921-45.024
			c-13.691-38.312-24.506-68.573-74.21-146.83c-0.592-0.933-0.316-2.168,0.616-2.761c0.144-0.092,0.295-0.154,0.45-0.205
			c0.848-0.279,1.809,0.032,2.311,0.821c49.943,78.635,60.824,109.081,74.6,147.628c4.257,11.912,8.792,24.596,14.797,39.715
			c11.016,18.93,37.546,52.329,43.016,58.263c50.036,54.288,120.378,88.796,190.536,103.774
			c68.999,14.73,140.336,23.844,210.797,26.893c60.85,2.633,123.408-14.021,177.333-29.333c54-15.333,106.965-41.034,145.795-79.942
			c23.42-23.468,45.904-50.432,56.871-81.391c10.671-30.127,22.661-73.975,25.797-103.957
			c2.245-165.641-63.942-328.107-132.898-481.246c-21.918-48.676-56.3-91.523-91.247-129.27
			c-10.889-11.761-24.899-22.358-36.567-31.035c-40.424-30.062-82.046-60.981-110.699-100.228
			c-11.815-16.184-23.037-24.832-24.832-46.673c-0.884-10.705,9.22-23.505,18.79-26.142l-105.172-241.761
			C3663.791,6805.662,3604.862,6880.695,3563.497,6998z" color="13285249" style="fill:#cab781;fill-opacity:1;stroke-width:10;stroke:rgb(0,0,0)"></path><path id="157961259" parent_id="157961251" order="4" structure_id="12122" d="
			M2382.832,8166.668c-51.273,68.363-88.002,154.262-107.333,194.666c-20.548,42.947-38.69,92.528-58.667,135.334
			c-56,120-104.279,233.221-172.667,344.667c-33.352,54.353-63.233,101.685-110.667,146.666
			c-19.347,18.348-153.238,136.966-171.513,59.389c-6.419-27.248,28.017-71.898,42.847-92.723
			c58.031-81.487,98.459-133.67,132.191-216.823c38.094-93.904,36.475-227.176-16.191-289.177
			c-53.467-62.944-97.074-96.356-156.847-107.228l-70.94,222.606c0.941,0.014,1.804,0.229,2.576,0.676
			c25.317,14.628-48.143,69.296-67.456,91.277c-25.199,28.68-49.333,63.334-66.667,100
			c-39.944,84.497-85.333,159.334-124.139,249.223c-30.277,70.133-53.717,146.999-49.862,224.777
			c1.922,38.78-0.484,92.292,28.667,121.333c42.048,41.888,95.651,31.722,149.699,33.994c64.395,2.706,128.807,7.052,193.275,3.944
			c93.219-4.494,260.178-31.996,353.025-125.271c85.386-85.779,189.315-161.38,246.367-270.839
			c21.154-40.586,29.104-89.186,65.633-120.496c28-24,69.257-50.645,88.667-86.666c35.364-65.63,86.73-146.436,120.138-218.811
			c13.102-28.385,24.237-61.713,27.196-91.856c6.01-61.25-23.908-77.795-18.553-84.542c0.725-0.914,1.403-1.452,2.112-1.675
			l-190.476-291.316C2427.576,8115.641,2405.229,8136.805,2382.832,8166.668z" color="13285249" style="fill:#cab781;fill-opacity:1;stroke-width:10;stroke:rgb(0,0,0)"></path><path id="157961256" parent_id="157961251" order="5" structure_id="12121" d="
			M1667.479,8340.193c-113.023,12.072-217.161,105.686-275.979,164.473c-96.024,95.975-144.331,185.154-208,316
			c-28.243,58.042-57.333,123.333-79.333,183.333c-7.592,20.706-76.978,130.214-102,68.667c-11.214-27.581,12.21-67.488,30-138
			c11.251-44.595,20.117-91.038,29.333-135.333c9.639-46.324,23.969-98.839,31.333-147.333
			c18.063-118.938,10.662-161.277-32.824-264.74c-16.886-40.175-62.896-94.038-44.509-139.927
			c26.694-66.625,124.261-28.53,173.589-31.112c115.676-6.056,323.196-30.412,411.862-119.333
			c11.007-11.038,22.189-21.093,33.049-31.065l-215.555-128.213c-1.944,4.244-12.083,4.744-14.261,4.642
			c-18.506-0.866-40.204-14.667-43.573-15.97c-10.208-3.949-20.552-6.188-34.528-9.215c-10.963-2.374-24.608-5.328-42.311-9.998
			c-38.855-10.249-72.992-20.65-107.427-32.734c-28.886-10.135-42.219-13.407-52.933-16.035
			c-14.391-3.531-23.078-5.663-56.07-20.981c-16.626-7.721-33.142-16.62-49.113-25.227c-3.771-2.032-7.574-4.081-11.402-6.128
			c-22.032-10.646-97.061-30.723-132.662-39.97c-108.496-28.18-155.898-15.489-195.333,52
			c-24.212,41.436-34.753,97.199-48.482,142.464c-26.109,86.084-48.853,167.537-44.853,262.203
			c3.617,85.6,19.279,162.265,44.667,231.334c11.424,31.082,26.493,63.869,43.333,92c18.271,30.522,37.333,54.667,18,91.334
			c-22.912,43.453-26.176,83.838-31.333,134c-9.063,88.147-2.134,113.224-2.134,296.91c0,64.033,1.935,117.493,7.467,183.756
			c2.766,33.125,4.43,67.72,20,97.333c14.345,27.284,45.905,46.594,74,54.667c58,16.667,121.333,24,181.315,29.029
			c70.17,5.884,171.452,0.522,220.021-15.69c140.025-46.741,153.123-139.707,179.333-248.666
			c21.958-91.284,44.32-175.05,94.2-260.112c38.437-65.547,76.925-117.748,123.134-181.222
			c21.785-29.925,50.945-66.599,73.451-96.54c17.473-23.245,48.337-66.95,62.096-66.747l70.94-222.606
			C1736.187,8336.383,1704.895,8336.197,1667.479,8340.193z" color="12100205" style="fill:#b8a26d;fill-opacity:1;stroke-width:10;stroke:rgb(0,0,0)"></path><path id="157961254" parent_id="157961251" order="6" structure_id="12116" d="
			M3688.164,4702.664c23.534,24.293,151.334,122.666,179.334,151.333c101.597,104.017,93.801,112.636,143.334,166
			c67.745,72.985,118.478,140.752,190.601,176.352c63.064,31.128,141.416,58.188,209.399,62.981
			c145.216,10.239,359.513,12.288,496.669-80c191.404-128.79,16.637-241.099-146.666-345.334
			c-176.235-112.49-197.734-150.652-282.668-314.663c-39.34-75.966-80.146-156.819-141.333-217.334
			c-54.898-54.295-79.385-63.97-174.668-89.333c-94.738-25.218-119.322-28.252-202.666-24c-66.692,3.403-236,59.537-291.335,87.333
			c-138.259,69.451-119.075,91.662-124,148.667c-3.952,45.745,0.788,103.819,23.667,144.656
			C3595.188,4618.151,3646.831,4659.997,3688.164,4702.664z M3958.25,4540.439c0.859-0.691,2.12-0.552,2.811,0.311
			c11.548,14.416,32.118,23.489,52.012,32.264c9.965,4.396,21.178,9.312,29.761,12.987c65.19,27.912,105.97,77.883,143.334,145.333
			c12.832,23.165,29.576,52.935,40.666,76c14.359,29.861,34.286,57.599,52,86.667c7.284,11.953,49.038,60.932,68.862,74.42
			c4.896,3.331,5.447,3.241,11.801,6.095c6.401,2.872,2.209,11.373-3.761,9.207c-7.132-2.594-8.888-4.93-14.135-7.65
			c-44.03-22.83-52.057-24.101-82.101-73.404c-17.816-29.238-32.267-56.051-46.667-86c-11.066-23.014-28.558-53.604-41.333-76.667
			c-27.441-49.536-99.574-130.722-133.01-150.273c-7.862-4.598-17.174-8.705-27.032-13.054
			c-20.334-8.969-41.359-18.243-53.519-33.422C3957.248,4542.388,3957.388,4541.129,3958.25,4540.439z" color="13939253" style="fill:#d4b235;fill-opacity:1;stroke-width:10;stroke:rgb(0,0,0)"></path><path id="157961261" parent_id="157961251" order="7" structure_id="12116" d="
			M6863.503,5129.33c-10.739-45.948-16.358-94.905-24.667-142.667c-15.292-87.906-43.626-180.113-70-264
			c-56.603-180.029-45.122-215.53-74.667-268.667c-72.829-130.983-79.88-243.308-111.999-284
			c-60.708-76.91-74.083-116.667-187.636-139.262c-44.514-8.857-90.946-12.485-137.944-15.001
			c-24.781-1.327-45.385,3.33-68.34,9.738c-13.801,3.854-52.748,15.859-76.851,25.935h-0.001
			c-10.492,6.429-20.736,12.479-31.712,18.961c-10.607,6.265-21.576,12.742-34.255,20.429c-7.782,4.717-15.508,9.525-23.687,14.614
			c-22.995,14.309-46.772,29.105-71.206,41.366c-83.644,41.971-112.588,60.252-135.845,74.942
			c-15.817,9.991-28.312,17.882-53.317,30.08c-14.489,7.068-28.2,13.939-41.461,20.584c-40.306,20.199-78.376,39.277-127.69,58.482
			c-55.132,21.47-111.836,23-171.869,24.62c-6.081,0.165-12.18,0.329-18.295,0.516c-3.375,0.103-6.82,0.153-10.324,0.153
			c-47.354,0-106.881-9.176-187.155-21.551c-11.193-1.726-22.76-3.509-34.715-5.331c-14.646-2.232-28.284-4.676-42.722-7.262
			c-14.977-2.684-30.463-5.458-47.445-8.031c-17.368-2.631-37.148-13.979-55.666-8.592c-5.243,1.526-16.853-4.378-14.11-11.974
			c0.671-1.859,3.29-3.605,6.568-3.245c6.734,0.741,13.329,6.142,21.077,6.801c18.164,1.546,27.84,10.798,42.73,13.054
			c17.035,2.581,32.548,5.36,47.551,8.048c14.412,2.582,28.024,5.021,42.62,7.246c11.957,1.823,23.525,3.606,34.722,5.332
			c86.004,13.258,148.147,22.835,196.746,21.353c6.121-0.187,12.225-0.352,18.311-0.516c59.675-1.61,116.041-3.131,170.525-24.349
			c49.141-19.137,87.13-38.175,127.35-58.331c13.27-6.65,26.991-13.526,41.499-20.603c24.809-12.102,37.221-19.942,52.936-29.867
			c23.331-14.736,52.367-33.076,136.187-75.135c24.27-12.178,47.969-26.925,70.887-41.187c8.188-5.096,15.924-9.909,23.726-14.639
			c12.699-7.698,23.678-14.182,34.295-20.452c8.272-4.885,16.127-9.524,23.985-14.265c30.532-23.996,64.53-52.155,91.197-69.328
			c32.39-20.857,43.993-37.52,66-74.667c16.739-28.255,23.184-85.429,24.666-194c0.945-69.253-24.896-168.351-50.916-233.139
			c-31.507-78.45-63.751-154.861-101.263-230.868c-46.291-93.796-107.986-193.788-190.488-281.993
			c-45.696-48.855-102.001-90.667-139.561-147.222c-24.655-37.125-61.409-80.618-187.106-182.111
			c-102.604-82.847-211.229-147.611-313.334-231.334c-57.721-47.33-86.779-55.571-112.666-75.334
			c-23.271-17.767-51.64-59.779-124.667-109.333c-29.305-19.885-89.194-102.413-229.333-198.667
			c-95.565-65.639-204.26-101.036-317.753-118.22c-47.277-7.159-105.054-1.306-152.246-3.779
			c-53.034-2.779-87.403,1.884-133.334,24.667c-84.704,42.015-148.275,83.594-198.666,127.333
			c-111.561,96.839-109.41,107.147-151.811,209.033c-29.506,70.9-53.522,148.966-70.782,227.326
			c-20.577,93.418-15.03,92.416,17.925,254.306c21.626,106.244,56.359,149.225,100.001,228
			c53.271,96.157,84.862,239.202,84.862,349.334c0,107.227,15.806,223.329-94.194,281.329
			c-27.309,14.399-56.971,31.967-82.822,48.693c-34.587,22.377-68.719,45.068-75.491,39.601l-235.891,212.687
			c92.294,32.042,201.643,41.245,285.541,38.36c77.701-2.671,166.067-27.814,240-52c83.066-27.174,163.222-69.216,231.333-118.667
			c62.728-45.542,69.818-70.491,100.103-135.555c28.507-61.244,51.996-126.464,54.563-195.778
			c2.491-67.268,14.351-136.393,11.334-201.333c-2.129-45.837-8.468-126.888-31.333-241.333c-7.841-39.246-17.634-70.167-30-109.333
			c-12.523-39.662-38.665-90.119-46.667-178c-2.938-32.27,16.697-140.978,24-170c9.588-38.108,38.02-83.063,81.334-92
			c32.426-6.689,76.068,30.537,102.666,50c68.211,49.914,97.489,194.297,106.666,235.333
			c27.002,120.751,48.074,222.604,69.194,276.63c45.567,116.559,104.805,222.038,158.139,338.037
			c56.172,122.171,120.553,233.372,179.705,288.143c151.006,139.816,393.091,137.286,571.629,59.857
			c42.635-18.49,87.023-15.384,125.333,11.333c50.06,34.913,39.217,48.242,10.036,94.041
			c-26.162,41.063-64.703,51.292-108.703,73.958c-81.055,41.755-115.725,68.289-223.152,73.131
			c-67.365,3.037-134.752,5.915-202.197,5.926c-109.831,0.018-213.109,18.72-285.114,41.918
			c-45.089,14.527-81.2,40.072-113.995,75.083c-28.336,30.248-63.354,68.755-80.207,105.275
			c-18.511,40.114-13.952,94.285-9.663,137.76c4.798,48.624,20.343,91.749,48.612,131.848
			c48.118,68.252,121.643,117.139,191.716,155.061c58.232,31.515,119.763,55.411,182.667,75.333
			c68.087,21.563,126.269,21.892,201.333,24c62.717,1.762,125.816,4.521,188.667-3.333c65.783-8.221,141.203-27.608,208-41.333
			c95.724-19.668,158.297-38.602,254.216-91.011c44.979-24.577,137.344-88.251,191.784-4.989
			c22.667,34.667,22.233,91.865,25.334,143.333c3.333,55.333,3.929,120.311,23.333,170c22.023,56.397,51.032,100.598,81.333,151.333
			c28.667,48,77.39,126.561,65.999,182.667c-12.783,62.969-33.88,101.818-103.333,78.666
			c-48.894-16.299-70.037-68.313-94.909-107.657c-25.474-40.297-45.557-77.72-82.506-110.089
			c-72.585-63.587-126.038-112.711-203.129-145.435c-108.289-45.966-265.93-7.191-366.79,41.849
			c-111.298,54.117-117.399,65.658-181.3,144.096c-58.034,71.237-128.034,148.57-162.035,175.237
			c-42.992,33.719-96.625,70.416-148.04,85.783c-45.107,13.482-98.284,18.237-143.935,24.819
			c-47.807,6.893-184.692,29.397-249.358,37.397c-120.304,14.883-268.238,59.513-356.393,109.869
			c-52.576,30.033-156.843,109.183-190.015,150.388c-35.741,44.396-61.445,99.253-64.763,156.007
			c-1.429,24.455,1.293,49.262,9.169,73.737c18.67,58.005,87.269,105.184,137.384,132.599
			c106.034,58.005,133.16,63.009,259.283,76.735c46.863,5.101,191.299,13.3,216,12.667c52-1.333,110.875,12.794,157.333,20
			c100.055,15.521,196.411,27.288,291.155,65.367c43.235,17.377,89.295,33.302,122.426,65.996
			c36.485,36.007,77.638,70.051,120.419,98.636c101.714,67.961,147.625,67.432,232.001,86.667
			c128.666,29.333,164.1,20.439,261.334,25.334c100.279,5.049,196.82-11.853,294.667,20.667c57.926,19.252,79.246,38.035,91.333,90
			c17.953,77.185-12.641,96.512-84.596,109.342c-52.787,9.409-180.496-9.357-287.178-5.16c-55.41,2.183-111.44-2.766-165.561,10.484
			c-58.877,14.415-116.519,37.379-169.333,66.667c-54.243,30.08-110.973,72.078-137.71,130.635
			c-9.042,19.804-12.902,44.197-13.243,70.193l292.353,76.804c-1.785-1.821-2.586-3.869-2.064-6.305
			c2-9.333,13.474,8.655,51.333,21.333c19.274,6.454,39.3,13.174,59.973,14.115c47.821,2.178,94.518,3.428,144.083,5.932
			c110.071,5.561,206.652,20.686,288.611,19.953c74.667-0.667,154.876-8.615,226.001-36
			c90.589-34.881,148.763-101.534,186.666-200.667c31.384-82.084,58.643-125.419,71.334-266
			c10.082-111.673,7.075-168.068-37.538-261.195c-29.129-60.805-59.356-76.456-66.082-93.1
			c-16.107-39.859,23.449-86.996,38.411-123.087c18.597-44.856,32.427-90.207,45.875-134.617
			c38.413-126.854,39.367-176.928,56.768-224.133c5.891-15.981,13.665-31.635,25.419-49.827
			c53.244-82.405,74.062-196.032,89.813-291.374C6894.166,5286.595,6894.159,5260.495,6863.503,5129.33z M5606.569,5673.322
			c-18.681,33.43-59.766,55.472-83.774,63.259c-60.347,19.572-116.83,29.064-180.658,64.968
			c-74.145,41.707-66.153,57.319-137.915,58.071c-49.982,0.523-98.022-19.888-161.852-18.178
			c-66.563,1.783-135.063-0.571-214.279,7.978c-31.871,3.438-100.872,2.279-153.303,14.817
			c-62.532,14.954-124.026,19.921-188.065,22.796c-76.882,3.45-79.786,6.839-106.001,5.129c-16.702-1.09-17.838-4.055-19.946-10.828
			c-0.625-2.004-0.608-3.837-0.121-5.516c2.985-10.291,24.295-14.562,32.605-13.86c35.229,2.985,35.147-10.858,126.517-26.785
			c62.119-10.828,106.787-20.015,169.829-31.915c17.4-3.284,109.985-18.663,127.657-21.086
			c70.667-9.688,145.461-20.67,211.431-30.203c141.06-20.385,236.211-32.375,296.916-45.593
			c55.41-12.064,183.741-56.378,233.089-86.624c17.667-10.828,61.068-45.544,66.676-49.58
			c31.475-22.655,54.394-50.186,78.076-82.065c14.817-19.946,26.28-32.095,31.887-54.003c5.873-22.949,9.152-47.488,9.425-71.967
			c0.174-15.579,0.715-34.266,1.287-54.049c1.313-45.368,2.803-96.79,0.428-130.435c-0.078-1.102,0.753-2.058,1.854-2.136
			c8.328-0.474,16.772,36.272,16.667,38.469c-1.364,28.652-13.188,23.491-13.806,51.29c-0.32,14.422-0.741,28.961-1.146,42.927
			c-0.572,19.766-1.112,38.435-1.285,53.979c-0.278,25.019-3.662,50.111-9.721,73.562c-5.687,22.014-9.375,46.095-19.063,66.041
			c-25.904,53.332-31.746,46.047-74.657,76.936c-19.575,14.086-21.938,25.352-23.305,39.694
			C5620.707,5632.158,5620.312,5648.729,5606.569,5673.322z" color="13939253" style="fill:#d4b235;fill-opacity:1;stroke-width:10;stroke:rgb(0,0,0)"></path><path id="157961253" parent_id="157961251" order="8" structure_id="12115" d="
			M1074.817,4145.275L1074.817,4145.275c69.383-1.544,105.962-0.572,132.594,0.137c34.919,0.928,50.856,1.353,99.894-5.043
			c77.421-10.098,95.531-10.146,139.284-10.264c18.96-0.051,42.557-0.114,77.9-1.018c97.353-2.489,180.886-1.664,270.85,2.672
			c16.039,0.773,34.731-2.122,52.367-1.695c228.68,5.542,163.537-16.387,239.119-14.65c47.256,1.084,97.573-8.184,172.014-13.231
			c27.881-1.891,56.308-21.808,61.434-29.299c6.021-8.8,13.258-4.633,14.432,0.93l313.277-160.522
			c-64.236-103.785-127.148-199.166-245.124-257.086c-98.046-48.134-249.13-55.661-355.704-51.517
			c-49.124,1.91-102.331,3.203-150.315,7.976c-218.827,21.766-296.524,1.246-322,1.333c-122.562,0.421-127.693-2.784-197.473-44.646
			c-43.453-26.067-57.11-49.696-54.527-102.021c2.562-51.904,22.685-81.144,67.333-108c88.667-53.333,193.91-68.734,286.657-110.769
			c80.676-36.563,163.09-71.913,219.587-139.002c56.832-67.488,90.733-154.358,60.243-240.323
			c-26.101-73.593-110.212-167.002-153.821-205.904c-62.974-56.177-135.814-100.498-212.667-136
			c-77.408-35.758-104.398-43.025-194-101.333c-67.642-44.018-114.078-115.769-141.333-190
			c-33.208-90.445-46.307-177.429-56.685-272.474c-5.461-50.021-25.065-214.252-27.982-243.526
			c-9.88-99.178-18.401-204.353,2-303.333c12.058-58.493,46.92-150.674,111.333-167.333c69.287-17.92,144.802,18.196,181.967,72.926
			c96.7,142.407,77.496,233.661,96.7,359.741c10.655,69.951,24.88,151.484,57.333,215.333
			c52.027,102.359,108.882,157.966,155.28,209.864c70.888,79.292,145.199,156.257,224.72,226.803
			c87.377,77.516,160.119,172.135,242.667,254c103.103,102.251,131.326,135.658,274,183.334c41.757,13.953,86.631,30.437,132,35.333
			c92.667,10,187.862-8.819,266-42.667c144.667-62.666,181.333-254.726,181.333-410c0-49.333-6.749-93.424-12-140.666
			c-5.285-47.554-16.562-103.004-14-152c3.566-68.202,7.678-114.238,36.618-172.976c17.372-35.257,73.717-41.423,108.715-24.358
			c37.25,18.163,70.686,47.872,90.667,82c22.048,37.658,36.898,86.213,40.95,128.381c4.918,51.188,4.858,81.763,8.383,140.952
			c3.227,54.181,14.667,109.094,14.667,163.333c0,50.346-7.461,106.458-7.333,156c0.131,50.798,2.667,97.333,4.667,151.333
			c2.799,75.583,9.162,113.679,32,185.333c23.854,74.839,53.037,150.572,87.807,220.971
			c74.734,151.312,122.469,159.628,111.526,241.696c-9.663,72.468-69.482,48.586-182,129.333
			c-64.529,46.309-112.818,103.428-102.667,186c10.69,86.956,36.457,144.662,96.553,194.637
			c31.344,26.062,70.764,46.024,113.906,61.003l235.891-212.687c-0.119-0.097-0.25-0.18-0.353-0.294
			c-4.635-5.168,48.667-41.333,91.333-66.667c32.919-19.546,66.823-49.759,91.333-80c47.051-58.052,44.838-130.275,52-203.333
			c5.953-60.729-3.933-114.087-16.667-172c-8.878-40.378-22.098-92.6-39.332-131.335c-33.598-75.511-77.341-144.754-112.667-221.333
			c-24.091-52.225-42.88-106.719-51.494-163.711c-7.931-52.462,3.378-98.633,13.488-150.032
			c8.827-44.875,28.881-92.766,43.337-134.253c59.152-169.755,60.449-151.038,78.862-244.442
			c16.472-83.558,47.669-162.023,48.662-242.367c0.535-43.316-8.418-84.217-20.915-123.096
			c-16.039-49.896-40.379-95.635-55.273-146.099c-23.712-80.336-48.464-140.165-120.001-190.666
			c-53.222-37.572-114.051-62.935-166.85-98.865c-100.491-68.386-40.483-73.135-242.483-149.802
			c-104.677-39.729-153.783-56.778-282.667-60c-49.002-1.225-92.591-2.785-152.667,8c-169.095,30.357-206.306,36.849-278.667,81.333
			c-93.45,57.449-190.185,199.689-202.377,228.481c-36.037,85.101-48.909,175.556-66.29,266.853
			c-11.36,59.673-23.333,125.333-24.667,189.333c-1.87,89.795,20.946,126.103,54.947,192.702
			c39.483,77.337,77.052,152.631,121.719,229.965c19.214,33.267,39.48,63.88,59.062,96.901
			c17.278,29.136,56.547,91.552,47.604,96.431s-45.098-68.654-63.333-100c-18.514-31.826-40.667-63.333-62.957-100.694
			c-44.376-74.381-85.149-151.25-126.091-228.01c-49.764-93.301-69.694-123.918-119.619-156.63
			c-24.735-16.206-45.791-44.726-70.667-60.667c-26.599-17.043-63.256-23.681-87.333-45.333
			c-39.093-35.21,1.191-94.948,15.333-132.667c8.589-22.909,15.207-57.428,41.038-103.31
			c38.296-68.023,75.713-137.112,96.296-205.356c26.801-88.862,43.272-220.255,32.689-295.578
			c-18.911-134.593-146.885-221.695-215.355-269.756c-31.227-21.919-151.856-84.014-216.02-103.248
			c-60.621-18.171-118.647-36.085-184.239-43.784c-46.008-5.4-220.048-25.225-305.741-16.969c-90.462,8.715-187.333,44-274,80
			c-131.964,54.815-206,97.333-355.333,239.333c-65.118,61.92-88.475,186.446-90.667,233.333
			c-1.533,32.79-18.78,133.248-2.808,294.822c11.508,116.418,43.649,218.79,46.142,295.844
			c1.471,45.481,28.974,186.209,36.667,225.333c8.807,44.795,7.978,83.598,17.333,136c17.124,95.909,37.333,182,53.333,285.333
			c5.928,38.283,55.91,180.769,124.358,278.976c43.868,62.939,132.437,114.969,205.872,136.994
			c45.702,13.707,93.93,10.233,143.347,12.669c94.877,4.675,187.831,4.339,273.706,38.336c10.232,4.051,32.075,11.99,28.05,18.359
			s-71.731-15.74-104-22.667c-168.972-36.275-327.567-35.688-492.512,55.303c-32.378,17.862-50.18,33.071-67.522,66.754
			c-48.102,93.425-74.692,209.213-78.633,276.609c-2.804,47.948-8.39,103.647-11.334,154
			c-8.272,141.458-16.172,132.819-9.78,286.377c4.642,111.501,7.779,224.957,90.632,329.333
			c23.466,29.562,53.216,54.923,89.147,67.624c11.504,4.066,65.515,14.967,88.839,14.645c0.368-0.008,0.727-0.016,1.094-0.024
			C1074.783,4145.275,1074.801,4145.275,1074.817,4145.275z" color="13939253" style="fill:#d4b235;fill-opacity:1;stroke-width:10;stroke:rgb(0,0,0)"></path></g><g id="157961315" order="0" group_label_id="113753816" group_label="Atlas - Developing Human Sulci" sub_image_id="102291506"><path id="157961321" parent_id="157961315" order="0" structure_id="146034836" d="M774.208,7660.088c-0.424,0.176,0.01,21.848,0.161,28.812
			c-62.058-22.087-88.462-13.527-128.333-0.583c-7.976,2.59-16.225,5.268-25.525,7.97c-0.929,0.271-2.205,0.71-3.718,1.259
			c-18.729-2.273-92.679-9.145-92.971-8.577c-0.336,0.649,26.773,31.397,26.773,31.397s-3.372,39.019-3.948,40.984
			c1.754-2.078,55.728-46.869,70.634-59.724c1.821-0.67,3.341-1.206,4.346-1.498c9.361-2.72,17.639-5.407,25.644-8.007
			c39.051-12.677,64.93-21.064,125.573,0.482c-4.87,4.858-19.478,19.402-20.484,20.047c2.295-0.401,72.829,0.137,73.202-0.309
			C825.941,7711.891,774.713,7659.877,774.208,7660.088z" color="7171696" style="fill:#6d6e70;fill-opacity:1;stroke-width:10;stroke:rgb(0,0,0)"></path><path id="157961318" parent_id="157961315" order="1" structure_id="10639" d="M4092.997,1782.507c-0.588-0.052,23.857,33.656,23.857,33.656
			s40.621,5.501,40.792,6.21c0.173,0.71-79.053,57.267-79.566,56.671C4077.565,1878.45,4093.584,1782.56,4092.997,1782.507z" color="7171696" style="fill:#6d6e70;fill-opacity:1;stroke-width:10;stroke:rgb(0,0,0)"></path><path id="157961320" parent_id="157961315" order="2" structure_id="10631" d="M6705.698,7141.434c-0.165-0.565-22.679,34.463-22.679,34.463
			s9.646,39.84,9.047,40.258s-82.09-52.821-81.723-53.517S6705.862,7142,6705.698,7141.434z" color="7171696" style="fill:#6d6e70;fill-opacity:1;stroke-width:10;stroke:rgb(0,0,0)"></path><path id="157961324" parent_id="157961315" order="3" structure_id="13222" d="M4275.09,8128.856c0.534-0.249-37.532-17.126-37.532-17.126
			s-37.89,15.642-38.395,15.112c-0.505-0.527,39.61-89.217,40.354-88.961C4240.26,8038.139,4274.557,8129.107,4275.09,8128.856z" color="7171696" style="fill:#6d6e70;fill-opacity:1;stroke-width:10;stroke:rgb(0,0,0)"></path><path id="157961323" parent_id="157961315" order="4" structure_id="13221" d="M2861.734,8579.808c0.197-0.557-38.546,14.701-38.546,14.701
			s-15.466,37.964-16.196,37.952c-0.73-0.011-35.72-90.844-35.017-91.194C2772.68,8540.916,2861.537,8580.363,2861.734,8579.808z" color="7171696" style="fill:#6d6e70;fill-opacity:1;stroke-width:10;stroke:rgb(0,0,0)"></path><path id="157961317" parent_id="157961315" order="5" structure_id="10624" d="M1386.193,9517.779c0.528-0.264-37.972-16.125-37.972-16.125
			s-37.463,16.639-37.981,16.125s37.231-90.236,37.981-90S1385.667,9518.043,1386.193,9517.779z" color="7171696" style="fill:#6d6e70;fill-opacity:1;stroke-width:10;stroke:rgb(0,0,0)"></path><path id="157961319" parent_id="157961315" order="6" structure_id="10615" d="M709.806,4142.714c0.138,0.574,24.328-33.318,24.328-33.318
			s-7.696-40.263-7.078-40.651c0.619-0.389,79.423,56.752,79.022,57.429S709.669,4142.141,709.806,4142.714z" color="7171696" style="fill:#6d6e70;fill-opacity:1;stroke-width:10;stroke:rgb(0,0,0)"></path><path id="157961322" parent_id="157961315" order="7" structure_id="10615" d="M800.244,7461.581c-0.105-0.58-72.828,5.85-72.986,6.374
			c-0.133,0.436,16.586,13.675,22.192,18.098c-50.859,20.339-111.46-14.148-144.12-32.742c-7.438-4.234-13.314-7.579-17.254-9.207
			c-1.059-0.438-2.077-0.91-3.122-1.421c-11.246-14.521-58.929-72.495-59.539-72.302c-0.697,0.218-3.451,41.117-3.451,41.117
			s-30.192,25.164-31.892,26.048c2.655-0.22,71.845,6.52,91.864,8.101c1.551,0.785,3.047,1.507,4.613,2.154
			c3.708,1.531,9.486,4.821,16.803,8.986c26,14.802,69.387,39.502,112.248,39.502c12.13,0,24.225-1.987,35.864-6.73
			c0.637,6.715,2.589,27.501,2.446,28.694C755.058,7516.227,800.35,7462.152,800.244,7461.581z" color="7171696" style="fill:#6d6e70;fill-opacity:1;stroke-width:10;stroke:rgb(0,0,0)"></path></g><g id="157961357" order="0" group_label_id="141667008" group_label="Atlas - Developing Human Hotspots" sub_image_id="102291506"><path id="157961359" parent_id="157961357" order="0" structure_id="10173" d="
			M5086.998,2774.12c-1.944-1.945-5.126-1.945-7.071,0l-57.387,57.388c-1.945,1.945-1.945,5.127,0,7.071l57.387,57.389
			c1.945,1.944,5.127,1.944,7.071,0l57.389-57.389c1.944-1.944,1.944-5.126,0-7.071L5086.998,2774.12z M5094.426,2821
			c-2.75,0-5,2.25-5,5v29.813c0,2.75-2.25,5-5,5h-1.926c-2.75,0-5-2.25-5-5V2826c0-2.75-2.25-5-5-5h-8.242c-2.75,0-5-2.25-5-5
			v-1.727c0-2.75,2.25-5,5-5h38.41c2.75,0,5,2.25,5,5V2816c0,2.75-2.25,5-5,5H5094.426z" color="13939253" style="fill:#d4b235;fill-opacity:1;stroke-width:10;stroke:rgb(0,0,0)"></path></g></g></svg>
