<svg id="the_svg_wrapper" class="svg_wrapper" width="100%" height="100%" version="1.1" xmlns="http://www.w3.org/2000/svg"><g id="master_group" transform="translate(0,0) scale(0.02734375)" width="52479" height="70303" image_id="102291535" image_url="/external/devhuman/prod14/3760000394/3760000394.aff"><g id="157963098" order="0" group_label_id="31" group_label="Atlas - Developing Human" sub_image_id="102291535"><clippath><path id="zap_container_graphics_clip" d="M 0 0 L 1498 0 L 1498 312 L 0 312 L 0 0" style="fill:#000000;fill-opacity:1;stroke-width:10;stroke:rgb(0,0,0)"></path></clippath><path id="157963100" parent_id="157963098" order="0" structure_id="10557" d="M6604.169,6819.175c-24-16.667-49.326,36.918-205.333,138
			c-59.199,38.356-142.313,70.02-210.667,86c-242.819,56.768-492.381,37.999-716.165-128.317
			c-123.934-92.107-189.555-143.709-225.17-183.681c-60.983-68.443-111.344-176.801-138.304-278.777
			c-12.165-46.013-19.567-90.728-21.028-129.89c-4.071-109.164,26.966-198.925,118.096-261.342
			c79.76-54.629,173.548-62.61,266.57-69.325c144.345-10.418,150.758-8.075,269.799-14.545c91.216-4.958,192.173,9.518,280.2-14.788
			c30.71-8.48,104.188-31.417,104-71.334c-0.381-81.041-135.851-77.75-183.334-87.333c-72.666-14.666-153.216-45.01-223.333-73.333
			c-135.333-54.667-226.987-111.826-292.006-185.729c-92.536-105.179-58.715-162.678-50.661-188.939
			c66.572-217.065,319.545-276.881,471.333-324.666c72-22.667,157.479-31.215,231.999-38.667c91.215-9.121,188.385-11.605,336,5.333
			c41.126,4.719,125.049,47.243,163.69-3.604c29.123-38.322-10.357-70.396-41.691-100.396c-58.083-55.61-105.956-61.007-214-86.667
			c-70.232-16.68-160.058-29.381-235.334-39.333c-73.059-9.659-150.812-0.144-224.199-7.439
			c-164.46-16.349-230.808-15.895-345.8-15.895c-49.751,0-213.076,15.66-387.142,27.925
			c-112.354,7.917-233.021,28.971-345.526,18.075c-64.379-6.235-196.183-61.357-228-104.667
			c-111.41-151.646,15.688-288.236,69.334-344c31.154-32.385,99.983-96.019,267.332-191.333
			c66.529-37.893,104.786-57.37,136.666-114.667c47.006-84.481,47.521-165.258,57.207-272.251
			c22.126-244.415,32.126-150.415-69.874-403.748c-16.712-41.508-45.265-108.54-68-165.334
			c-12.35-30.845-23.062-71.751-23.39-105.392c-1.242-127.792-10.546-232.186,56.861-351.17
			c53.632-94.67,159.455-124.33,266.841-124.636c47.688-0.136,86.438,7.897,123.689,23.197c112,46,195.537,143.581,264,243.334
			c63.538,92.576,128.794,186.234,193.333,278c42.667,60.666,80,113.999,121.333,172.665
			c50.513,71.698,248.776,357.132,297.333,286.667c17.411-25.267-36.105-96.435-39.368-101.074
			c-30.639-43.572-43.836-85.704-69.299-113.593c-54.09-59.242-93.98-79.841-173.334-190
			c-56.667-78.667-112.001-148-166.668-228.667c-69.902-103.147-81.459-106.367-114.667-148c-44.667-56-151.334-168-180.001-196
			c-70.158-68.526-189.196-176.978-324.667-194c-168.31-21.148-219.123,14.85-294.666,124
			c-40.239,58.139-73.593,127.175-86.667,197.334c-18.439,98.95-15.926,204.866-20.992,304.825
			c-3.931,77.544,0.018,149.526,16.305,225.33c36.256,168.746,60.814,318.074-13.312,488.51
			c-63.798,146.685-263.564,189.816-491.999,187.333c-69.437-0.754-152.504-27.454-178.173-38.353
			c-50.334-21.371-85.612-69.804-126.494-133.647c-48.667-76-79.607-152.926-98.667-237.333
			c-33.19-146.984-40.877-234.438-40.829-252.69c0.547-208.209-7.673-360.054,77.496-637.978
			c32.296-105.388,41.404-108.888,64.593-230.666c11.099-58.284,26.808-115.489,35.751-175.531
			c17.506-117.524,7.089-172.056-28.343-285.137c-29.416-93.875-91.344-203.188-254.667-329.333
			c-82-63.334-165.518-125.193-257.333-183.334c-74.808-47.371-86.134-49.271-128.667-74c-34.419-20.011-63.333-42-102-55.333
			c-130.507-45.004-127.898,65.601-118.56,114.844c12.052,63.556,23.303,108.611,22.395,173.885
			c-1.696,121.909-9.119,260.992-66.348,363.136c-53.487,95.468-113.488,182.802-193.488,268.802
			c-45.359,48.761-103.485,81.754-164,86c-55.485,3.891-151.138,0.997-280.666,7.999c-13.168,0.712-25.693,1.545-37.674,2.483
			c-157.33,12.323-217.218,43.558-310.326,77.517c-80.893,29.505-89.643,43.987-140.667,38.001
			c-168.053-19.713-283.044-225.077-325.333-371.334c-46.866-162.087-38.607-246.304-39.234-283.502
			c-2.099-124.498-0.657-256.325,15.234-377.831c16.14-123.412,53.334-184.723,74-273.333
			c42.502-182.239-103.534-202.26-168.001-222.666c-185.333-58.667-267.739-75.922-366.782-82.852
			c-62.781-4.394-157.517,0.604-181.601,70.925c-14.462,42.234,4.796,200.588,11.716,243.26
			c9.432,58.166,9.219,115.158,9.217,173.77c0,134.936-22.327,170.514-40.55,247.563c-24.958,105.515-32.064,212.293,5.213,312.835
			c67.423,181.849,126.984,228.308,220.121,296.498c77.824,56.978,208.541,213.549,232,256c28,50.667,154,254.331,154,317.333
			c0,104.69-15.591,202.792-66,254c-84,85.333-150.676,74.667-235.334,74.667c-80.293,0-213.789-13.598-266.452,50.293
			c-29.767,36.114-18.825,91.457-18.881,137.707c-0.077,63.299,6.928,128.062,43.333,179.333
			c45.998,64.78,79.07,95.274,155.334,118.667c65.253,20.015,135.329,39.94,202,63.333
			c78.761,27.636,117.742,36.017,194.601,105.784c63.399,57.549,65.928,112.72,170.732,140.216
			c50.676,13.295,86.15-1.754,134.667-6.667c51.476-5.212,104.234-5.201,157.073-7.238c123.93-4.776,165.177,6.022,284.927,59.905
			c42.228,19,94.003,44.658,134,68c49.614,28.955,97.021,93.091,118,157.333c19.505,59.728-25.376,138.087-55.333,188.667
			c-32.717,55.239-89.641,99.403-145.497,130.762c-0.259,0.146-0.515,0.296-0.773,0.443
			c-97.328,55.01-161.238,160.261-238.395,210.795c-107.512,70.416-241.782,122.605-369.333,142
			c-74.325,11.301-151.574,14.834-226.481,12.128c-95.305-3.442-197.5-41.658-278.784-90.021
			c-37.458-22.287-65.696-56.693-99.173-83.916c-43.953-35.743-88.11-53.297-140.896-41.524
			c-55.46,12.37-52.601,64.372-53.956,107.451c-5.047,160.451,15.435,87.007,26.835,332.365
			c7.482,161.026,7.167,274.66-15.001,441.723c-19.877,149.795-29.877,186.521-29.877,337.795
			c0,114.256,75.511,299.236,103.334,374.667c37.513,101.701,50.562,93.777,106.668,172.001c73.072,101.874,130.513,155.634,142,236
			c14.128,98.815,34.094,120.742-11.334,242.667c-29.481,79.124-84.188,132.991-145.117,188.089
			c-32.415,29.312-63.5,56.373-100.882,89.909c-39.786,35.692-73.277,76.751-103.333,121.333
			c-12.253,18.174-40.855,80.654-24.667,98c30.775,32.974,90.96-41.89,185.333-85.333c81.391-37.467,106.632-66.413,239.333-149.334
			c97.262-60.775,132.589-94.637,160.675-116.067c59.325-45.266,126.457-89.832,197.078-123.751
			c74.875-35.961,155.765-57.503,239.58-57.518c99.116-0.016,179.752-3.691,256.667,58c64.531,51.76,80.994,99.682,107.421,182.227
			c0.058,0.182,0.115,0.359,0.173,0.541c20.36,63.61,3.456,179.184-20.42,236.934c-39.282,95.015-92.637,157.393-165.174,230.963
			c-87.05,88.289-183.707,161.033-285.371,231.092c-70.994,48.924-138.629,108.908-206.629,170.242
			c-48.388,43.645-76,105.999-110.667,164.666c-29.511,49.942-10.315,75.55-63.333,150.667c-3.911,5.541-7.871,11.027-11.878,16.465
			c-28.837,39.13-60.214,75.629-94.789,110.203c-39.333,39.333-170.667,170.666-206,211.999
			c-126.294,147.739-104.386,151.225-110.095,307.351c-1.498,40.97,26.162,227.329,28.761,279.316
			c9.904,198.099,49.327,273.347,61.626,273.37c17.95,0.034,20.441-31.708,19.707-69.37c-1.252-64.238,9.464-209.222,33.362-291.893
			c36.609-126.657,109.071-240.925,187.971-326.107c83.223-89.851,205.641-201.188,332.667-276
			c69.663-41.028,146.126-64.013,222.81-56.233c42.935,4.355,85.939,18.354,127.857,44.233
			c85.639,52.87,114.166,128.525,109.663,239.193c-4.154,102.101-55.542,182.969-117.658,262.149
			c-60.667,77.333-131.106,160.345-172.667,248c-26.711,56.337,5.057,77.729,52.667,50.667c63.333-36,114.413-103.588,161.333-156
			c62.667-70,117.156-131.361,176.667-198c73.784-82.621,147.089-163.151,181.333-272c26.297-83.587-6.463-113.855,6.667-309.333
			c7.03-104.665,26.233-142.626,84-233.334c28.211-44.299,43.125-70.733,80.758-94.948c17.108-11.009,38.913-21.559,68.797-33.119
			c99.779-38.6,191.884-52.708,296.362-31.995c63.808,12.65,102.725,14.053,172.577-3.097
			c82.174-20.175,154.185-55.025,236.193-67.739c67.314-10.436,114.869-14.324,177.98-6.436c137.53,17.19,138.783,35.842,247.333,60
			c40.655,9.048,57.289,12.9,67.333-39.334c3.333-17.333-96.819-97.271-128.667-122.666c-45.824-36.539-85.333-71.334-130.667-114
			c-66.748-62.819-76.042-81.902-108.667-152c-43.175-92.769-87.213-162.673-102-238c-17.842-90.891,17.497-211.661,50-274.667
			c45.574-88.342,78.592-136.919,170.667-198c3.402-2.257,6.787-4.46,10.16-6.619c92.243-59.06,174.388-81.461,304.365-59.982
			c129.121,21.337,208.44,70.859,304.143,165.269c84.393,83.254,197.565,247.466,230.14,330.776
			c18.255,46.687,25.18,87.972,37.86,136.556c8.29,31.762,24.373,65.438,33.999,166.667c4.779,50.258-1.228,105.633,22,150
			c27.213,51.977,41.897,84.911,70,85.333c26.445,0.396,57.088-54.25,72.667-74c40.961-51.927,45.226-157.891,56.762-212.426
			c11.017-52.076,42.651-107.772,71.726-152.372c57.371-88.007,109.931-126.883,231.512-104.535
			c156.415,28.75,200,119.333,295.958,243.719c41.482,53.771,74.564,118.812,126.708,163.614
			c53.729,46.164,125.019,41.033,180.667-11.333c83.313-78.402,77.837-114.025,187.334-209.334
			c53.791-46.818,92.059-87.356,224.877-134.202c1.695-0.598,3.396-1.196,5.123-1.797
			c140.413-48.803,235.205-67.961,302.666-114.667c83.904-58.09,144.663-166.919,194.666-240.001
			C6607.948,6901.805,6628.104,6835.797,6604.169,6819.175z M2308.833,5394.5c-45.229,61.53-79.576,124.222-112.002,196.674
			c-58.474,130.652-42.211,174.651-34.665,301.333c7.506,126.02,60.667,230,6,343.995c-35.05,73.09-71.38,105.704-168.667,146.666
			c-65.658,27.645-152.928,57.466-224,56.666c-121.328-1.366-189.153-73.919-265.333-166.667
			c-114.276-139.129-190.456-261.98-221.333-438.669c-12-68.667-0.731-196.075,18-259.332
			c40.232-135.866,79.747-217.632,187.333-306c125.061-102.72,211.017-142.767,308.996-184.655
			c105.423-45.071,226.553-66.232,343.669-59.344c81.874,4.815,221.023,27.093,237.333,142.666
			C2394.919,5244.039,2354.613,5332.219,2308.833,5394.5z" color="15921648" style="fill:#f2f1f0;fill-opacity:1;stroke-width:10;stroke:rgb(0,0,0)"></path></g><g id="157963159" order="0" group_label_id="113753815" group_label="Atlas - Developing Human Gyri" sub_image_id="102291535"><path id="157963167" parent_id="157963159" order="0" structure_id="12157" d="
			M2191.5,6911.836c-76.915-61.691-157.551-58.016-256.667-58c-83.815,0.015-164.705,21.557-239.58,57.518
			c-70.621,33.919-137.753,78.485-197.078,123.751c-28.086,21.431-63.414,55.292-160.675,116.067
			c-132.701,82.921-157.942,111.867-239.333,149.334c-94.373,43.443-154.558,118.307-185.333,85.333
			c-16.189-17.346,12.414-79.826,24.667-98c30.057-44.582,63.547-85.641,103.333-121.333
			c37.383-33.536,68.467-60.597,100.882-89.909c60.929-55.098,115.636-108.965,145.117-188.089
			c45.428-121.925,25.462-143.852,11.334-242.667c-11.487-80.366-68.928-134.126-142-236
			c-56.106-78.224-69.155-70.3-106.668-172.001c-27.823-75.431-103.334-260.411-103.334-374.667c0-151.273,10-188,29.877-337.795
			c22.169-167.062,22.484-280.696,15.001-441.723c-11.4-245.358-31.882-171.915-26.835-332.365
			c1.355-43.079-1.504-95.081,53.956-107.451c52.785-11.773,96.942,5.781,140.896,41.524c33.477,27.223,61.715,61.628,99.173,83.916
			c81.284,48.364,183.479,86.579,278.784,90.021c74.907,2.706,152.156-0.827,226.481-12.128
			c127.551-19.395,261.821-71.584,369.333-142c77.157-50.534,141.067-155.785,238.395-210.795l-350.087-116.415
			c-0.001,0.023,0.001,0.042,0,0.064c-0.222,3.315-2.062,22.119-17.904,19.082c-17.197-3.298-22.734-1.178-45.467,6.832
			c-8.843,3.115-38.046,13.899-47.822,16.02c-28.712,6.228-72.806,11.763-102.779,11.207c-53.199-0.988-104.333-3-149.667-8
			c-49.855-5.499-153-14.333-178-39c-22.446-22.146-31.498-20.207-56.667-43c-13.448-12.179-24.866-32.123-40.072-45.299
			c-20.529-17.789-74.143-45.318-128.261-73.368c-75.385-39.071-151.003-77.331-232.667-96.333
			c-23.078-5.37-47.033-8.7-71.319-10.438c-46.038,1.772-157.144,14.607-184.018,17.769c-37.087,4.363-80.066,9.345-116.667,16
			c-58.667,10.667-105.333,27.333-131.333,90.667c-24.107,58.724-56.162,112.504-60,176c-5.091,84.262-4.618,172.678,7.334,249.333
			c19.333,124-2.167,158.341,8.667,207.333c13.778,62.3-9.001,144.313-15.999,206.667c-8.201,73.07-15.776,157.543-18,278
			c-2.669,144.608-25.073,189.002-22,287.335c2.667,85.333,2.667,160.666,9.333,247.333c3.722,48.387,26.85,114.332,27.2,216.761
			c0.134,39.239,53.338,231.075,51.468,267.239c-2.755,53.278,36.5,135.319,72.667,230.667c26.573,70.055,31.077,74.541,78,116.666
			c79.665,71.519,68.089,116.029,114,123.334c5.787,0.921,51.292-2.815,64.667-6c14-3.334,15.333,8,4,14.666
			c-16.771,9.864-72.835-10.421-122,26c-18,13.334-60.94,57.009-78.413,71.269c-118.039,96.335-66.975,86.027-95.587,130.731
			c-6.057,9.464-14.652,27.74-6.667,66.667c8.708,42.453,7.566,134.557,9.833,178.382c4.924,95.223,39.501,306.951,67.501,396.285
			c85.746,273.572,214.796,186.803,236.667,172c76.911-52.056,72.568-117.075,174.576-144.756
			c38.282-10.385,78.815,19.859,108.09-22.577c29.374-42.58,229.835-173.302,263.333-196.667
			c131.918-92.017,202.351-134.15,231.275-149.543c79.464-42.287,168.045-86.571,250.058-123.124
			c32.715-14.58,112.809-65.49,123.333-46.667c0.102,0.182,0.186,0.366,0.276,0.55l296.812-119.987
			C2272.494,7011.518,2256.031,6963.596,2191.5,6911.836z" color="14837888" style="fill:#e26880;fill-opacity:1;stroke-width:10;stroke:rgb(0,0,0)"></path><path id="157963168" parent_id="157963159" order="1" structure_id="12157" d="
			M2146.833,5025.167c-117.117-6.889-238.246,14.272-343.669,59.344c-97.979,41.889-183.936,81.936-308.996,184.655
			c-107.587,88.368-147.101,170.134-187.333,306c-18.731,63.257-30,190.665-18,259.332
			c30.877,176.688,107.057,299.54,221.333,438.669c76.18,92.748,144.005,165.301,265.333,166.667
			c71.072,0.8,158.342-29.021,224-56.666c97.287-40.962,133.617-73.576,168.667-146.666c54.666-113.995,1.506-217.976-6-343.995
			c-7.546-126.682-23.809-170.681,34.665-301.333c32.426-72.452,66.774-135.144,112.002-196.674
			c45.78-62.281,86.086-150.461,75.333-226.667C2367.856,5052.26,2228.707,5029.982,2146.833,5025.167z" color="14837888" style="fill:#e26880;fill-opacity:1;stroke-width:10;stroke:rgb(0,0,0)"></path><path id="157963170" parent_id="157963159" order="2" structure_id="12125" d="
			M7004.5,6842.156c-2.477-49.808,6.913-135.959-14.453-219.457c-19.158-74.868-51.957-138.55-96.214-202.548
			c-16.384-23.689-39.704-50.847-63.47-67.366c-107.996-75.069-226.688-34.583-345.864-10.633
			c-81.86,16.451-173.337,36.764-242.941,83.308c-35.289,23.597-89.287,44.902-129.728,52.691c-48.688,9.377-80.81-2.715-130-2.667
			c-49.943,0.049-102-6.666-142.312-11.01c-49.4-5.323-97.586-2.758-147.021-4.991c-46.776-2.114-105.283-8.309-152-10.667
			c-21.977-1.109-109.021,9.449-115.875-11.204l-316.092,14.787c26.96,101.977,77.32,210.334,138.304,278.777
			c35.615,39.972,101.236,91.573,225.17,183.681c223.784,166.316,473.346,185.085,716.165,128.317
			c68.354-15.98,151.468-47.644,210.667-86c156.007-101.082,181.333-154.667,205.333-138c23.935,16.622,3.779,82.63-21.333,119.333
			c-50.003,73.082-110.762,181.911-194.666,240.001c-67.461,46.706-162.253,65.864-302.666,114.667
			c-1.727,0.601-3.428,1.199-5.123,1.797c-132.818,46.846-171.086,87.384-224.877,134.202
			c-109.497,95.309-104.021,130.932-187.334,209.334c-55.648,52.366-126.938,57.497-180.667,11.333
			c-52.144-44.802-85.226-109.843-126.708-163.614c-95.958-124.386-139.543-214.969-295.958-243.719
			c-121.581-22.348-174.141,16.528-231.512,104.535c-29.074,44.6-60.709,100.296-71.726,152.372
			c-11.536,54.535-15.801,160.499-56.762,212.426c-15.579,19.75-46.222,74.396-72.667,74c-28.103-0.422-42.787-33.356-70-85.333
			c-23.228-44.367-17.221-99.742-22-150c-9.626-101.229-25.709-134.905-33.999-166.667c-12.681-48.584-19.605-89.869-37.86-136.556
			c-32.574-83.311-145.747-247.522-230.14-330.776c-95.702-94.409-175.021-143.932-304.143-165.269
			c-129.977-21.479-212.122,0.923-304.365,59.982l140.741,287.99c3.337-0.78,8.04,1.597,9.428,7.14
			c4.015,16.058,3.586,27.197,12.919,45.196c6.99,13.48,14.996,26.529,23.304,37.687c11.643,15.636,20.294,24.087,32.269,35.785
			c18.076,17.659,42.832,41.845,94.635,107.596c27.751,35.223,50.812,64.737,77.514,98.912
			c17.473,22.363,36.475,46.684,59.318,75.837c11.366,14.507,21.928,26.853,32.141,38.793c23.91,27.952,48.634,56.855,84.48,114.698
			c29.048,46.873,45.357,134.194,77.851,308.162l3.743,20.033c4.237,22.664,8.995,44.447,13.858,65.642
			c14.791,48.784,30.397,101.017,96.64,114.016c65.368,12.827,132.363,9.573,198.663,9.123c98-0.666,216.977-25.537,304.667-68.666
			c46.082-22.665,90.734-61.794,117.333-105.334c11.562-18.926,42.338-77.056,51.007-105.724c3.71-22.953,6.497-44.062,3.015-58.194
			c-3.546-14.396-4.351-43.556-3.543-62.75c0.253-6.013,0-51.303-0.934-65.525c-0.175-2.667,3.239-5.068,5.451-0.296
			c5.521,11.912,6.623,13.852,6.453,28.394c-0.021,1.836-3.55,20.649-3.227,38.072c0.238,12.853-5.17,41.448-0.316,61.148
			c3.685,14.958,0.789,36.696-3.025,60.244h0.001c-2.882,57.298,23.953,86.728,56.074,122.418
			c30.885,34.317,71.442,61.414,111.08,83.341c82.286,45.516,173.027,72.196,263.957,81.008
			c85.543,8.29,186.473-5.451,259.34-35.812c48-20,99.149-41.386,136-68c60-43.333,100.933-84.224,152-128.666
			c39.105-34.032,69.454-69.802,96.667-110.666c25.853-38.819,51.241-81.327,74.73-121.245
			c43.59-74.075,38.488-80.778,51.771-85.599c0.752-0.272,1.559-0.54,2.44-0.812c21.921-6.777,8.34,11.574,139.059,42.989
			c86,20.667,206.53-25.414,260.667-60.001c86.801-55.455,138.686-123.613,182.666-195.333
			c28.475-46.434,60.429-95.563,88.667-141.334c26.244-42.539,32.59-70.288,45.333-111.333
			C7012.754,7079.151,7010.118,6955.136,7004.5,6842.156z" color="11243864" style="fill:#ab9158;fill-opacity:1;stroke-width:10;stroke:rgb(0,0,0)"></path><path id="157963165" parent_id="157963159" order="3" structure_id="12123" d="
			M4270.331,7969.754c-32.402-173.478-48.666-260.553-77.319-306.789c-35.686-57.583-59.212-85.087-84.12-114.206
			c-10.24-11.972-20.829-24.352-32.249-38.926c-22.845-29.155-41.849-53.477-59.322-75.841
			c-26.699-34.172-49.757-63.683-77.504-98.9c-51.642-65.547-76.29-89.627-94.287-107.209
			c-11.649-11.381-20.852-20.37-32.683-36.258c-8.303-11.15-16.31-24.169-23.329-37.639c-9.623-18.467-18.196-31.125-22.323-47.633
			c-1.042-4.177,0.697-6.553,3.211-7.14l-140.741-287.99c-3.373,2.159-6.757,4.362-10.16,6.619
			c-92.074,61.081-125.093,109.658-170.667,198c-32.503,63.006-67.842,183.776-50,274.667c14.787,75.327,58.826,145.231,102,238
			c32.625,70.098,41.919,89.181,108.667,152c45.333,42.666,84.843,77.461,130.667,114c31.847,25.395,132,105.333,128.667,122.666
			c-10.044,52.234-26.678,48.382-67.333,39.334c-108.55-24.158-109.804-42.81-247.333-60c-63.111-7.889-110.667-4-177.98,6.436
			c-82.008,12.714-154.02,47.564-236.193,67.739c-69.852,17.149-108.769,15.747-172.577,3.097
			c-104.478-20.713-196.583-6.604-296.362,31.995c-29.884,11.561-51.688,22.11-68.797,33.119l144.834,292.769
			c0.816-0.25,1.731,0.04,2.235,0.783c3.949,5.829,13.104,25.277,23.704,47.797c0.671,1.427,1.349,2.864,2.028,4.307l0-0.001
			c13.437,21.284,70,55.174,102.77,67.284c67.642,24.997,165.292,8.912,234-5.333c96.918-20.094,173.622-35.337,262.116-64.167
			c46.551-15.166,82.774-30.944,125.345-37.349c24.665-3.71,42.88,5.688,65.873,10.183c74.66,14.594,151.219,20.072,227.626,18.067
			c104.499-2.737,220.299-10.322,315.707-56.735c70.202-34.15,149.11-90.037,172-149.334c4.192-10.859,15.372-69.757,10.757-97.355
			l0.001-0.014c-6.001-25.684-11.98-52.173-17.184-80.01L4270.331,7969.754z" color="13285249" style="fill:#cab781;fill-opacity:1;stroke-width:10;stroke:rgb(0,0,0)"></path><path id="157963166" parent_id="157963159" order="4" structure_id="12122" d="
			M2521.505,8133.844c-57.767,90.708-76.971,128.669-84,233.334c-13.129,195.478,19.63,225.746-6.667,309.333
			c-34.244,108.849-107.549,189.379-181.333,272c-59.511,66.639-114,128-176.667,198c-46.921,52.412-98,120-161.333,156
			c-47.609,27.062-79.378,5.67-52.667-50.667c41.56-87.655,112-170.667,172.667-248c62.116-79.181,113.503-160.049,117.658-262.149
			c4.503-110.668-24.024-186.323-109.663-239.193c-41.917-25.879-84.922-39.878-127.857-44.233l-78.294,237.449
			c5.389-0.274,10.729,0.704,14.17,4.145c6.2,6.2,6.81,24.862-0.496,31.223c-33.517,29.172-42.621,41.134-79.294,64.922
			c-3.083,2-9.76,5.984-12.073,8.85c-34.905,43.227-65.399,80.776-85.067,102.514c-23.731,26.229-42.159,60.381-69.091,113.515
			c-17.043,38.367-14.646,52.968-15.678,62.951c-5.036,48.711-59.499,77.865-78.055,119.827
			c-70.493,159.465-0.972,398.745,131.352,450.787c81.971,32.238,150.85,19.156,231.169-9.667
			c84.034-30.157,170.971-66.165,249.537-113.345c69.385-41.666,137.19-83.275,196.037-140.003
			c65.974-63.599,129.855-122.998,193.974-180.266c64.594-57.692,116.667-110,173.635-179.905
			c46.513-57.075,98.672-130.085,127.032-198.762c22.535-54.572,24.484-109.175,20.666-188
			c-2.798-57.8-29.333-178.001-46.74-230.954l0-0.001c-4.898-10.122-10.075-21.118-15.009-31.6
			c-10.091-21.437-19.622-41.686-23.396-47.256c-0.62-0.915-0.38-2.158,0.534-2.777c0.171-0.116,0.355-0.193,0.543-0.25
			l-144.834-292.769C2564.63,8063.11,2549.717,8089.545,2521.505,8133.844z" color="13285249" style="fill:#cab781;fill-opacity:1;stroke-width:10;stroke:rgb(0,0,0)"></path><path id="157963169" parent_id="157963159" order="5" structure_id="12121" d="
			M2299.094,7094.604c-0.058-0.182-0.115-0.359-0.173-0.541l-296.812,119.987c9.201,18.874-43.84,49.463-67.609,50.784
			c-33.133,1.842-63.777,24.097-95.333,36.666c-83.215,33.146-69.988,34.436-230.667,122.667
			c-105.036,57.678-88.609,74.521-170.667,125.333c-60.753,37.62-122.784,79.934-181.272,121.087
			c-65.638,46.184-125.787,76.125-153.749,108.815c-23.493,27.467-41.979,51.099-75.313,71.099
			c-75.046,45.027-81.888,7.768-135.333,38.667c-42.667,24.667-81.438,61.715-114,96c-40.112,42.234-73.641,101.239-75.333,152
			c-0.969,29.062,13.333,80.001,14,106.667c1.029,41.169,26.558,42.454,24.667,58.665c-0.015,0.125-0.042,0.239-0.058,0.363
			c-2.48,18.365-27.675,16.686-40.679,49.535c-19.098,48.246-74.471,202.483-96.596,326.767
			c-22.109,124.188-23.099,160.214,6.667,285.334c33.325,140.082-2.749,81.229,56.667,262
			c31.333,95.333,63.123,203.949,100.708,298.933c12.722,32.15,32.143,63.162,49.561,92.347
			c57.459,96.272,93.065,117.388,216.398,163.389c46.185,17.227,94.294,24.969,144,20.001c138.524-13.844,190.301-28.544,234-66
			c36.249-31.068,42.483-67.68,47.076-113.16c9.874-97.761-0.153-202.172-0.153-301.26c0-51.394,8.177-94.858,29.749-140.842
			c41.314-88.062,4.29-54.603,39.157-102.9c10.05-13.921,49.173-27.319,74.17-66.267v0.001
			c24.829-48.719,42.666-80.865,65.458-106.055c19.598-21.66,50.054-59.165,84.92-102.344c2.312-2.863,8.257-15.858,9.733-19.222
			c17.841-40.638,19.823-64.922,55.01-83.259c3.489-1.819,9.807-3.826,16.061-4.145l78.294-237.449
			c-76.683-7.779-153.147,15.205-222.81,56.233c-127.025,74.812-249.444,186.149-332.667,276
			c-78.899,85.183-151.361,199.45-187.971,326.107c-23.898,82.671-34.614,227.654-33.362,291.893
			c0.734,37.662-1.757,69.404-19.707,69.37c-12.299-0.023-51.722-75.271-61.626-273.37c-2.599-51.987-30.259-238.347-28.761-279.316
			c5.708-156.126-16.199-159.611,110.095-307.351c35.333-41.333,166.667-172.666,206-211.999
			c34.575-34.574,65.951-71.073,94.789-110.203c4.007-5.438,7.967-10.924,11.878-16.465
			c53.018-75.117,33.822-100.725,63.333-150.667c34.667-58.667,62.278-121.021,110.667-164.666
			c68-61.334,135.635-121.318,206.629-170.242c101.665-70.059,198.321-142.803,285.371-231.092
			c72.538-73.57,125.892-135.948,165.174-230.963C2302.55,7273.787,2319.455,7158.214,2299.094,7094.604z" color="12100205" style="fill:#b8a26d;fill-opacity:1;stroke-width:10;stroke:rgb(0,0,0)"></path><path id="157963164" parent_id="157963159" order="6" structure_id="12116" d="
			M2540.271,1872.379c-7.15,19.431-12.798,34.778-25.96,57.292c-11.607,19.854-24.354,29.38-35.599,37.784
			c-7.428,5.551-13.843,10.346-18.472,17.167c-0.387,0.57-1.016,0.877-1.657,0.877c-0.031,0-0.061-0.012-0.092-0.014
			l-42.668,371.503c11.98-0.938,24.505-1.771,37.674-2.483c129.527-7.002,225.18-4.108,280.666-7.999
			c60.515-4.246,118.641-37.239,164-86c80-86,140-173.334,193.488-268.802c57.229-102.145,64.652-241.228,66.348-363.136
			c0.908-65.274-10.342-110.33-22.395-173.885c-9.338-49.243-11.948-159.848,118.56-114.844c38.667,13.333,67.581,35.322,102,55.333
			c42.533,24.729,53.859,26.629,128.667,74c91.815,58.141,175.333,120,257.333,183.334
			c163.324,126.145,225.251,235.458,254.667,329.333c35.432,113.081,45.849,167.612,28.343,285.137
			c-8.943,60.042-24.652,117.247-35.751,175.531c-23.188,121.777-32.297,125.277-64.593,230.666
			c-85.169,277.924-76.949,429.769-77.496,637.978c-0.048,18.252,7.639,105.706,40.829,252.69
			c19.06,84.407,50,161.333,98.667,237.333c40.882,63.843,76.16,112.276,126.494,133.647
			c25.669,10.899,108.736,37.598,178.173,38.353c228.435,2.482,428.201-40.648,491.999-187.333
			c74.126-170.436,49.567-319.765,13.312-488.51c-16.287-75.804-20.235-147.786-16.305-225.33
			c5.066-99.959,2.553-205.875,20.992-304.825c13.074-70.159,46.428-139.195,86.667-197.334
			c75.543-109.15,126.356-145.148,294.666-124c135.471,17.022,254.509,125.474,324.667,194c28.667,28,135.334,140,180.001,196
			c33.208,41.633,44.765,44.853,114.667,148c54.667,80.667,110.001,150,166.668,228.667c79.354,110.159,119.244,130.758,173.334,190
			c25.463,27.889,38.66,70.021,69.299,113.593c3.263,4.64,56.779,75.807,39.368,101.074
			c-48.557,70.465-246.82-214.969-297.333-286.667c-41.333-58.667-78.666-111.999-121.333-172.665
			c-64.539-91.766-129.795-185.424-193.333-278c-68.463-99.753-152-197.334-264-243.334c-37.251-15.3-76.002-23.333-123.689-23.197
			c-107.386,0.306-213.209,29.965-266.841,124.636c-67.407,118.984-58.104,223.378-56.861,351.17
			c0.327,33.641,11.04,74.547,23.39,105.392c22.735,56.794,51.288,123.826,68,165.334c102,253.333,92,159.333,69.874,403.748
			c-9.686,106.993-10.201,187.77-57.207,272.251c-31.88,57.297-70.137,76.774-136.666,114.667
			c-167.349,95.315-236.178,158.948-267.332,191.333c-53.646,55.764-180.744,192.354-69.334,344
			c31.817,43.31,163.621,98.432,228,104.667c112.506,10.896,233.173-10.158,345.526-18.075
			c174.065-12.265,337.391-27.925,387.142-27.925c114.992,0,181.34-0.454,345.8,15.895c73.387,7.295,151.141-2.22,224.199,7.439
			c75.276,9.953,165.102,22.654,235.334,39.333c108.044,25.66,155.917,31.056,214,86.667c31.334,30,70.814,62.075,41.691,100.396
			c-38.642,50.846-122.564,8.323-163.69,3.604c-147.615-16.939-244.785-14.455-336-5.333c-74.521,7.452-159.999,16-231.999,38.667
			c-151.788,47.785-404.761,107.601-471.333,324.666c-8.054,26.262-41.875,83.761,50.661,188.939
			c65.019,73.902,156.673,131.062,292.006,185.729c70.117,28.323,150.667,58.667,223.333,73.333
			c47.483,9.583,182.953,6.292,183.334,87.333c0.188,39.917-73.29,62.854-104,71.334c-88.027,24.306-188.984,9.83-280.2,14.788
			c-119.041,6.47-125.454,4.127-269.799,14.545c-93.022,6.715-186.811,14.696-266.57,69.325
			c-91.13,62.417-122.167,152.178-118.096,261.342c1.461,39.162,8.863,83.877,21.028,129.89l316.092-14.787
			c-0.817-2.465-0.504-5.369,1.209-8.796c11.333-22.667,36.171,3.188,66,5.333c36.729,2.642,83.802,7.734,122.743,9.243
			c79.264,3.07,152.416-5.461,229.922-17.91c49.092-7.885,99.581-3.418,148.116-5.953c46.351-2.421,100.419-14.01,145.216-20.714
			c77.916-11.659,156.764-12.346,231.334-38.665c68-24,103.083-62.397,162-92.666c39.368-20.226,86.792-36.929,124.667-58
			c35.518-19.76,66.887-61.021,94-91.333c56.002-62.611,100.151-163.137,124.667-255.999c24.207-91.694,13.336-158.573-68-223.332
			c-76.562-60.959-84.552-45.74-170-61.333c-38.148-6.961-90.593-36.245-169.91-52.118c-34.109-6.826-59.591-23.577-92.091-33.882
			c-34.77-11.023-74.083-12.082-108.925-20.8c-92.606-23.172-179.794-44.37-270.182-68.164
			c-39.068-10.285-72.694-21.117-112.227-36.369c-20.615-7.952-44.972-19.665-66.969-24.46
			c-16.606-3.619-56.832,11.017-53.698-11.54s156.958,24.872,186.001,31.333c105.822,23.538,208.022,42.332,314.07,62.609
			c130.993,25.047,173.631,40.561,257.372,90.015c154.312,91.131,282.561,4.527,333.221-61.291
			c75.282-97.808,86.29-169.476,112.666-299.333c8.666-42.666,18.176-87.946,27.998-129.333
			c35.261-148.596,14.591-336.334-30.667-421.334c-32.225-60.521-90.84-83.783-148.526-115.552
			c-28.451-15.668-78.14-39.115-112.048-52.101l0,0c-27.517-7.923-53.281-14.868-81.574-22.062
			c-23.359-5.939-60.966-14.333-145.127-26.626c-9.371-1.369-20.401-4.068-33.174-7.194c-30.096-7.365-71.312-17.452-123.206-17.452
			c-44.872,0-80.159-7.079-121.018-15.275c-43.86-8.799-93.573-18.771-169.161-23.244c-56.174-3.324-114.722-4.48-178.985-3.536
			c-20.605,0.325-48.29-6.327-86.603-15.506c-20.45-4.899-43.629-10.452-69.968-15.938c-6.551-1.365-13.776-2.294-21.426-3.278
			c-4.97-0.639-35.659-3.529-72.982,17.645c-17.25,9.786-53.259,43.261-221.861,79.134c-105.478,22.442-94.094,27.533-215.999,60
			c-64.389,17.149-132.904,34.012-188.667,47.333c-119.999,28.667-202.866,54.899-204.666,48
			c-1.551-5.948,8.334-16.787,78.002-32.001c104.047-22.723,185.166-50.691,231.735-64.873
			c97.216-29.604,204.06-63.433,299.598-97.793c76-27.333,114.676-82.323,148-104c68.666-44.667,107.283-109.445,114-119.333
			c14.079-20.728,29.874-43.378,38.629-69.181c44.958-132.508,63.833-220.113,56.1-260.38
			c-8.555-44.543-20.317-67.299-31.691-89.306c-5.635-10.901-11.462-22.174-16.86-35.955
			c-17.304-44.17-27.558-68.622-46.755-101.901c-23.418-40.594-45.164-81.961-66.195-121.965
			c-9.677-18.407-19.682-37.439-29.814-56.336c-32.45-60.524-70.962-129.887-117.409-187.116
			c-34.551-42.57-61.785-94.629-88.123-144.974c-8.809-16.837-17.917-34.248-27.108-50.922
			c-10.312-18.706-20.183-39.813-29.728-60.225c-8.109-17.342-16.495-35.274-25.138-51.712c-0.514-0.978-0.138-2.187,0.84-2.701
			c0.979-0.512,2.188-0.137,2.701,0.84c8.686,16.52,17.091,34.495,25.22,51.879c9.518,20.353,19.358,41.398,29.606,59.988
			c9.214,16.713,18.332,34.143,27.15,50.999c26.247,50.17,53.387,102.048,87.685,144.307c46.669,57.5,85.291,127.06,117.829,187.746
			c10.14,18.912,20.149,37.952,29.83,56.366c21.013,39.97,42.74,81.301,66.119,121.827c19.333,33.514,29.636,58.081,47.015,102.441
			c5.323,13.587,11.102,24.767,16.688,35.578c11.506,22.26,23.402,45.277,32.066,90.388c7.977,41.533-10.42,127.371-56.24,262.419
			c-8.886,26.192-12.416,42.562-23.749,73.896c-12.075,33.386-34.127,74.489-32,106.667c2.432,36.813,30.651,47.192,46.685,49.254
			c7.729,0.994,15.028,1.933,21.731,3.329c26.396,5.499,49.605,11.059,70.083,15.965c38.027,9.109,65.489,15.7,85.612,15.396
			c64.366-0.947,123.008,0.213,179.28,3.542c75.865,4.489,125.723,14.491,169.711,23.315c40.65,8.155,75.756,15.197,120.231,15.197
			c52.376,0,93.863,10.153,124.157,17.566c12.673,3.102,23.617,5.78,32.801,7.122c84.344,12.319,122.081,20.744,145.535,26.708
			c27.73,7.05,53.029,13.861,79.923,21.584l0,0c41.239,9.34,230.794,48.844,247.226-4.118
			c7.618-24.552,11.348-45.279,11.348-145.208c0-46.667-15.145-131.109-19.194-169.856c-12.14-116.144-32.859-227.75-71.87-333.927
			c-25.316-68.903-34.572-120.81-49.604-156.217c-23.859-56.205-47.633-108.015-77.334-161.333
			c-41.477-74.457-88.498-142.433-145.999-206c-33.446-36.976-74.425-74.428-106.667-112
			c-80.667-94-172.719-182.252-254.667-272.667c-116.979-129.063-164.586-207.729-179.681-227.486
			c-118.707-155.364-252.322-296.513-410.988-415.18c-41.229-30.836-83.729-63.12-124.667-93.333
			c-64.093-47.303-155.268-97.381-211.334-112c-45.517-11.867-97.528-25.874-144.024-30.472
			c-71.802-7.102-144.446-8.952-216.054,1.239c-73.669,10.485-117.169,37.369-177.924,76.566
			c-50.655,32.681-97.077,74.002-132.789,122.729c-38.189,64.06-46.241,88.6-52.298,107.058
			c-3.269,9.962-5.851,17.831-12.348,28.962c-14.97,25.647-29.859,50.526-44.259,74.587
			c-51.316,85.748-99.788,166.741-147.827,274.42c-28.997,64.997-37.226,95.539-50.407,148.267
			c-4.918,19.672-11.616,38.076-18.095,55.874c-9.015,24.769-18.337,50.382-23.483,80.687c-4.788,28.192-6.489,42.831-6.399,56.141
			c0.064,9.669,4.949,14.776,6.408,27.731c0.436,3.865,2.477,71.821,5.944,98.073c3.826,28.967,2.139,73.471,5.945,101.54
			c14.514,106.997,68.855-5.032,35.167,205.063c-9.748,60.797-14.809,160.561-4.954,202.093c3.782,15.948,11.83,43.828-9.938,48.993
			c-0.155,0.037-0.311,0.055-0.464,0.055c-16.052,0-53.396-19.79-56.467-32.702c-9.642-40.639,4.64-126.938,7.925-190.205
			c6.934-133.582,16.547-206.202,11.394-244.194c-3.847-28.357-3.784-60.293-3.468-89.653c0.291-26.896-1.486-90.229-1.486-94.11
			c0-13.374,0.101-22.404,0.019-32.196c-0.114-13.595,1.57-28.681,6.431-57.299c5.207-30.663,14.592-56.448,23.668-81.384
			c6.443-17.702,13.105-36.007,17.973-55.476c13.237-52.951,21.502-83.624,50.636-148.927
			c48.137-107.897,96.667-188.99,148.048-274.845c14.394-24.051,29.277-48.921,44.235-74.549
			c6.283-10.765,8.807-18.456,12.002-28.193c6.149-18.74,14.342-43.698,53.317-108.952c7.57-16.255,9.476-30.381,13.571-53.586
			c6-34,3.554-93.564,2.001-124.667c-6.313-126.388-38.582-244.431-120.667-326.667c-51.383-51.475-119.999-92.667-165.999-144.667
			c-21.857-24.708-34.963-61.337-52.19-90.182c-48.212-80.727-97.762-105.146-136.474-139.151
			c-13.894-12.205-139.04-118.018-189.214-156.299c-70.249-53.598-139.452-77.034-219.452-113.701
			c-70.159-32.156-145.916-59.011-218-86.667c-132.783-50.942-283.679-110.131-415.333-108.667
			c-56.194,0.625-106.667,5.333-163.678,16.517c-34.813,6.83-88.388,23.884-177.655,54.816c-89.028,30.849-117.687,58.874-160,112
			c-56.142,70.489-87.333,158.667-85.956,240.453c0.787,46.68,7.533,94.982,20.623,137.551
			c18.832,61.243,50.706,115.941,80.054,172.144c23.946,45.856,55.796,55.318,53.946,70.523c-1.854,15.242-21.277,13.586-88.667,66
			c-24,18.667-38.667,58.667-53.276,99.854l0,0c-3.605,15.189-7.649,30.048-13.361,45.138
			C2543.417,1863.826,2541.809,1868.197,2540.271,1872.379z" color="13939253" style="fill:#d4b235;fill-opacity:1;stroke-width:10;stroke:rgb(0,0,0)"></path><path id="157963161" parent_id="157963159" order="7" structure_id="12115" d="
			M1262.833,4196.833c34,19.667,96.154,58.616,142.286,108.457c31.047,33.543,69.129,56.067,84.381,64.877
			c51.496,29.746,119.387,39.816,169,43.333c45.7,3.241,97.897-0.653,151,0.333c38.285,0.715,62.854-2.305,108.455-11.542
			c9.305-1.885,28.756-6.182,39.342-8.717c46.918-11.234,50.196-8.143,55.597-17.433c2.388-4.108,8.584-3.98,8.245,1.82
			l350.087,116.415c0.259-0.146,0.514-0.297,0.773-0.443c55.856-31.359,112.78-75.523,145.497-130.762
			c29.958-50.58,74.838-128.938,55.333-188.667c-20.979-64.243-68.386-128.379-118-157.333c-39.997-23.342-91.772-49-134-68
			c-119.75-53.882-160.997-64.681-284.927-59.905c-52.839,2.037-105.597,2.025-157.073,7.238
			c-48.517,4.913-83.991,19.962-134.667,6.667c-104.804-27.496-107.333-82.667-170.732-140.216
			c-76.859-69.768-115.84-78.148-194.601-105.784c-66.67-23.394-136.747-43.318-202-63.333
			c-76.264-23.393-109.336-53.887-155.334-118.667c-36.406-51.271-43.411-116.033-43.333-179.333
			c0.056-46.25-10.886-101.593,18.881-137.707c52.663-63.891,186.158-50.293,266.452-50.293c84.658,0,151.334,10.667,235.334-74.667
			c50.409-51.208,66-149.31,66-254c0-63.002-126-266.667-154-317.333c-23.459-42.451-154.177-199.022-232-256
			c-93.137-68.19-152.698-114.649-220.121-296.498c-37.278-100.542-30.171-207.32-5.213-312.835
			c18.224-77.05,40.55-112.628,40.55-247.563c0.002-58.612,0.214-115.604-9.217-173.77c-6.92-42.671-26.178-201.026-11.716-243.26
			c24.083-70.32,118.819-75.318,181.601-70.925c99.043,6.93,181.45,24.185,366.782,82.852
			c64.467,20.406,210.503,40.427,168.001,222.666c-20.666,88.611-57.86,149.922-74,273.333
			c-15.892,121.506-17.333,253.333-15.234,377.831c0.627,37.198-7.631,121.415,39.234,283.502
			c42.289,146.257,157.28,351.621,325.333,371.334c51.023,5.986,59.773-8.496,140.667-38.001
			c93.107-33.959,152.996-65.194,310.326-77.517l42.668-371.503c-0.356-0.016-0.713-0.116-1.029-0.332
			c-0.914-0.62-1.152-1.864-0.532-2.778c5.006-7.376,11.67-12.357,19.387-18.124c10.941-8.177,23.343-17.445,34.541-36.599
			c12.984-22.209,18.578-37.41,25.66-56.655c1.543-4.194,3.155-8.576,4.929-13.261c5.266-13.911,9.106-27.676,12.505-41.713
			c3.207-21.204,6.075-58.309,3.873-78.53c-3.985-36.594-12.541-68.179-12.624-100.512c-0.131-50.805,16.417-53.028,7.958-172.821
			c-3.865-54.729-13.894-107.152-28.303-160.879c-11.997-44.73-13.95-94.666-18.504-140.347c-3.632-36.441,9.215-75.55-19.86-167.44
			c-13.811-43.648-27.474-92.671-43.968-134.912c-14.508-37.153-44.851-65.598-67.597-97.43
			c-26.833-37.552-30.438-81.338-64.113-114.344c-39.497-38.714-87.368-68.354-134.492-97.18
			c-88.497-54.133-188.229-70.792-285.83-106.134c-44.169-15.994-86.061-30.423-130.667-45.333
			c-70.779-23.659-136.667-42-211.813-55.243c-76.3-13.446-100.865-20.071-320.345-23.077
			c-84.335-1.155-188.142,1.562-314.507,9.653c-114.155,7.31-103.569,8.213-213.146,9.358
			c-131.781,1.376-239.578,13.646-312.854,103.976c-67.048,82.652-102.847,168.179-122.667,268.667
			c-17.146,86.927-20.561,107.2-11.534,197.4c7.172,71.659-22.332,80.658-4.466,144.6c12.667,45.333,0.45,54.832,8.668,97.333
			c8.472,43.814,39.314,113.524,75.333,232.667c26,86,30.666,170.667,19.333,264.667c-6.616,54.875-2.325,146.182-0.666,296
			c1.087,98.182,35.333,194,62.805,284.611c21.205,69.94,76.181,138.54,137.862,176.057c119.061,72.416,326,80,421.05,100.404
			c27.52,5.908,59.581,14.672,84.283,30.929c36.11,23.765,70.839,39.156,66,45.333c-8.08,10.314-42.814-17.507-58.667-25.333
			c-15.181-7.493-38.667-30-73.45-39.173c-16.959-4.473-54.55-9.493-75.883-10.16c-71.876-2.246-128.473-12.788-200.145-4.832
			c-99.689,11.066-162.522,61.499-199.188,152.832c-16.614,41.384-41.081,94.617-51.333,136.001
			c-21.664,87.443-38.941,212.965-34.507,302.141c12.543,252.237,21.411,252.754,33.175,374.526
			c15.647,161.964,27.199,235.065,35.333,264.667c13.771,50.11,22.026,125.834,31.333,176.667
			c7.099,38.767,19.145,87.896,34,124.667c23.53,58.243,20.418,45.311,82.112,43.666c19.861-0.529,71.75,7.357,93.221,8.333
			c88,4,170,10.667,231.16,26.245l-0.065,0.006c38.084,4.172,77.325,12.077,118.628,23.887
			C1150.038,4155.124,1214.009,4168.592,1262.833,4196.833z" color="13939253" style="fill:#d4b235;fill-opacity:1;stroke-width:10;stroke:rgb(0,0,0)"></path></g><g id="157963208" order="0" group_label_id="113753816" group_label="Atlas - Developing Human Sulci" sub_image_id="102291535"><path id="157963216" parent_id="157963208" order="0" structure_id="10639" d="M2564.123,802.558c-0.571,0.148,33.763,23.706,33.763,23.706
			s40.113-8.439,40.513-7.83c0.399,0.612-55.271,80.462-55.954,80.074C2581.761,898.12,2564.693,802.412,2564.123,802.558z" color="7171696" style="fill:#6d6e70;fill-opacity:1;stroke-width:10;stroke:rgb(0,0,0)"></path><path id="157963215" parent_id="157963208" order="1" structure_id="10631" d="M6886.362,6153.122c-0.47-0.356,2.288,41.19,2.288,41.19
			s31.463,26.275,31.231,26.968c-0.233,0.692-97.405,6.412-97.524,5.634C6822.238,6226.138,6886.831,6153.479,6886.362,6153.122z" color="7171696" style="fill:#6d6e70;fill-opacity:1;stroke-width:10;stroke:rgb(0,0,0)"></path><path id="157963214" parent_id="157963208" order="2" structure_id="13222" d="M4408.225,8336.686c0.409-0.425-41.178-2.518-41.178-2.518
			s-29.755,28.194-30.415,27.884c-0.661-0.312,4.958-97.489,5.744-97.518C4343.161,8264.507,4407.815,8337.11,4408.225,8336.686z" color="7171696" style="fill:#6d6e70;fill-opacity:1;stroke-width:10;stroke:rgb(0,0,0)"></path><path id="157963213" parent_id="157963208" order="3" structure_id="13221" d="M3024.46,8622.846c0.273-0.522-40.227,9.15-40.227,9.15
			s-20.637,35.418-21.358,35.305s-22.626-94.957-21.88-95.204C2941.741,8571.85,3024.187,8623.368,3024.46,8622.846z" color="7171696" style="fill:#6d6e70;fill-opacity:1;stroke-width:10;stroke:rgb(0,0,0)"></path><path id="157963212" parent_id="157963208" order="4" structure_id="10624" d="M1610.1,9809.543c0.427-0.406-41.027-4.32-41.027-4.32
			s-30.963,26.863-31.609,26.523s9.227-97.18,10.013-97.172C1548.263,9734.58,1609.672,9809.949,1610.1,9809.543z" color="7171696" style="fill:#6d6e70;fill-opacity:1;stroke-width:10;stroke:rgb(0,0,0)"></path><path id="157963210" parent_id="157963208" order="5" structure_id="10615" d="M393.032,4143.383c0.264,0.527,16.125-37.973,16.125-37.973
			s-16.638-37.463-16.125-37.981c0.514-0.519,90.237,37.231,90,37.981C482.796,4106.16,392.769,4142.855,393.032,4143.383z" color="7171696" style="fill:#6d6e70;fill-opacity:1;stroke-width:10;stroke:rgb(0,0,0)"></path><path id="157963211" parent_id="157963208" order="6" structure_id="10615" d="M577.256,8045.149c0.429,0.405,2.091-41.201,2.091-41.201
			s-28.501-29.462-28.197-30.125c0.305-0.663,97.536,3.948,97.571,4.733C648.757,7979.342,576.827,8044.745,577.256,8045.149z" color="7171696" style="fill:#6d6e70;fill-opacity:1;stroke-width:10;stroke:rgb(0,0,0)"></path></g></g></svg>
