<svg id="the_svg_wrapper" class="svg_wrapper" height="100%" version="1.1" xmlns="http://www.w3.org/2000/svg"><g id="master_group" transform="translate(0,0) scale(0.03125)" width="1936" height="1641" image_id="100883914" image_url="/external/devmouse/prod17/0201080451/0201080451.aff"><g id="125600082" order="1" group_label_id="28" group_label="Atlas - Adult Mouse" sub_image_id="100883914"><clippath><path id="zap_container_graphics_clip" d="M 0 0 L 1498 0 L 1498 424 L 0 424 L 0 0" style="fill:#f2f1f0;fill-opacity:1;stroke-width:10;stroke:#000000"></path></clippath><path id="174629524" parent_id="125600082" order="0" structure_id="8" d="M6177.272,4522.661
			c101.471-142.438,118.033-241.216,218.771-460.695c102.195-222.646,241.293-457.733,298.405-719.679
			c45.905-210.552,121.33-477.759,142.948-763.024c17.523-231.18-6.666-494.807-56.804-701.993
			c-44.114-182.235-108.43-421.489-201.598-533.801c-311.713-375.731-740.377-454.514-1117.862-565.422
			C4819.607,589.565,3887.464,615.432,3053.21,815.17c-936.383,224.193-1761.35,673.64-2146.698,1406.395
			c-256.554,487.831-303.622,826.688-96.172,1231.26c72.406,141.215,141.857,288.907,247.43,314.839
			c57.039,14.016,68.76,12.232,95.757,77.765c31.107,75.486,40.126,174.927,58.83,276.824
			c33.558,182.806,89.335,370.539,133.116,449.858c202.192,366.367,465.892,426.679,867.55,571.511
			c167.414,60.367,428.347,199.763,630.499,306.983c498.311,264.311,1185.661,421.921,1799.23,256.847
			c311.306-83.756,572.971-406.155,867.795-608.99C5781.751,4911.871,6033.665,4724.288,6177.272,4522.661z" color="12573411" style="fill:#f2f1f0;fill-opacity:1;stroke-width:10;stroke:#000000"></path><path id="174629525" parent_id="125600082" order="1" structure_id="8" d="M7075.711,4175.438
			c-73.154-344.351-24.45-871.93,398.37-883.247c260.2-6.959,673.326,169.237,893.458,442.31
			c235.831,292.549,191.351,689.035,43.764,1001.789c-132.863,281.562-516.428,526.781-772.6,389.36
			C7324.109,4956.889,7146.294,4507.62,7075.711,4175.438z" color="12573411" style="fill:#f2f1f0;fill-opacity:1;stroke-width:10;stroke:#000000"></path><path id="174629526" parent_id="125600082" order="2" structure_id="8" d="M7855.677,2969.543
			c108.926,29.431,214.58,137.751,312.949,136.746c133.89-1.359,245.632-100.673,359.4-128.741
			c464.631-114.627-77.501-596.969-268.575-719.138c-112.288-71.787-140.954-320.845-461.644-411.767
			c-360.531-102.215-529.761,168.411-528.141,502.205c1.351,276.479,0.61,508.749,286.091,612.161
			C7634.593,2989.569,7746.759,2940.112,7855.677,2969.543z" color="12573411" style="fill:#f2f1f0;fill-opacity:1;stroke-width:10;stroke:#000000"></path><path id="174629527" parent_id="125600082" order="3" structure_id="688" d="M6780.594,1877.271
			c-44.114-182.235-108.43-421.489-201.598-533.801c-311.713-375.731-740.377-454.514-1117.862-565.422
			C4819.607,589.565,3887.464,615.432,3053.21,815.17c-936.383,224.193-1761.35,673.64-2146.698,1406.395
			c-256.554,487.831-303.622,826.688-96.172,1231.26c72.406,141.215,141.857,288.907,247.43,314.839
			c57.039,14.016,68.76,12.232,95.757,77.765c31.107,75.486,40.126,174.927,58.83,276.824
			c33.558,182.806,89.335,370.539,133.116,449.858c202.192,366.367,465.892,426.679,867.55,571.511
			c167.414,60.367,428.347,199.763,630.499,306.983c498.311,264.311,1185.661,421.921,1799.23,256.847
			c311.306-83.756,572.971-406.155,867.795-608.99c271.204-186.59,523.118-374.173,666.726-575.8
			c101.471-142.438,118.033-241.216,218.771-460.695c102.195-222.646,241.293-457.733,298.405-719.679
			c45.905-210.552,121.33-477.759,142.948-763.024C6854.921,2348.083,6830.731,2084.457,6780.594,1877.271z M5886.896,3137.991
			c-2.215,25.117-4.426,50.068-6.548,74.855c-15.323,181.165-74.03,407.288-179.099,580.647c-1.837,3.033-3.757,6.063-5.595,9.097
			c-29.074,46.032-64.106,87.56-103.498,124.044c-0.084-0.003-0.086,0.081-0.169,0.078c-10.413,8.459-22.352,17.792-36.332,28.566
			c-15.43,11.902-33.328,25.567-54.38,41.645c-167.832,108.124-379.478,138.46-545.391,58.868
			c-59.217-60.966,60.921-45.877,115.798-40.481c102.522,10.002,278.312,3.243,371.923-31.115
			c200.116-73.521,323.571-483.072,350.282-736.286c18.511-175.988,6.967-391.685-6.863-565.09
			c-11.493-144.156-14.669-217.204-101.753-380.185c-40.452-75.775-131.127-132.966-199.317-174.51
			c-68.848-41.896-153.669-82.079-234.893-96.311c-85.04-14.925-174.481-21.637-243.984,3.485
			c-161.161,58.286-233.132,82.254-346.94,202.336c-98.762,104.084-145.234,201.901-188.671,333.739
			c-58.134,176.612-84.381,357.8-58.011,547.654c23.334,167.589,49.299,310.072,111.762,468.018
			c35.003,88.543,99.661,178.097,198.854,264.13c67.134,58.189,224.252,177.303,157.484,179.573
			c-85.903-31.458-158.263-78.874-218.955-137.798c24.066,24.531,43.921,47.608,19.588,38.328
			c-101.041-38.643-207.917-68.529-272.929,33.263c-20.502,31.936-54.009,87.264-94.515,124.8c0,0-0.083-0.002-0.086,0.081
			c-19.209,12.878-37.626,27.196-56.109,35.008c-1.183,0.551-2.447,1.015-3.794,1.477c-0.086,0.081-0.252,0.076-0.338,0.157
			c-13.275,3.542-26.878,3.988-40.699,0.344c-70.429-18.512,52.889-132.903,71.903-150.623
			c74.004-69.102,128.873-139.665,127.063-249.026c-1.289-77.83-42.767-149.798-79.06-216.449
			c-36.854-67.418-74.854-32.979-136.352-13.716c-40.383,12.692-138.425,56.264-174.476,33.894
			c26.979-34.195,75.722-46.789,121.936-59.708c-6.002,0.807-11.845,1.179-17.563,1.133c-54.744-0.425-83.815-45.853-126.425-70.016
			c16.028,31.183-54.803,75.584-70.631,95.105c-33.007,40.668-59.441,90.611-86.885,135.022
			c-98.502,159.456,76.907,347.877,227.989,397.781c12.143,4.014,34.352,5.896,56.003,9.764
			c26.213,4.747,51.674,12.475,57.575,30.736c12.416,38.374-44.694,64.599-80.988,74.239
			c-87.923-7.336-185.727-42.551-240.734-113.736c-1.045-1.364-2.09-2.728-3.052-4.089c-0.802-1.107-1.524-2.128-2.326-3.235
			c-4.888-6.976-9.69-14.032-14.323-21.168c-4.633-7.136-9.097-14.35-13.392-21.643c-4.293-7.376-8.502-14.75-12.543-22.202
			c-3.248-6.013-6.329-12.02-9.326-18.025c-46.803-92.881-73.535-196.697-89.828-298.133c-7.585-46.992-12.592-105.5-29.905-144.68
			c-10.535-48.826-19.573-97.527-21.491-147.359c6.336-32.254,1.461-71.914,7.493-102.26
			c23.791-121.224,74.196-216.594,140.329-319.689c72.677-113.331,143.736-225.457,230.308-328.97
			c46.438-55.544,91.572-112.209,137.11-168.363c8.47-10.515,16.938-20.947,25.572-31.374c1.038-1.305,2.075-2.609,3.196-3.911
			c8.642-10.677,17.447-21.266,26.253-31.855c7.944-9.613,15.972-19.224,24.081-28.749c1.815-2.283,3.712-4.48,5.695-6.758
			c57.181-66.829,137.434-129.917,191.522-202.336c26.711-24.504,54.396-48.064,83.219-70.591
			c15.52-12.149,31.188-23.627,46.926-34.603c172.319-119.336,359.863-167.116,577.019-136.095
			c113.438,16.149,237.747,60.456,349.786,125.759c133.364,77.75,249.375,185.188,309.008,310.703
			C5940.373,2565.027,5912.121,2857.803,5886.896,3137.991z" color="11599800" style="fill:#f2f1f0;fill-opacity:1;stroke-width:10;stroke:#000000"></path><path id="174629593" parent_id="125600082" order="4" structure_id="12993" d="M4314.037,653.759l-0.017-2.334
			c-117.302,2.501-236.382,8.871-356.316,18.885c-302.306,25.423-609.531,74.304-904.533,144.876
			c-936.389,224.266-1761.366,673.738-2146.733,1406.441c-256.505,487.897-303.577,826.746-96.124,1231.281
			c32.307,63.119,62.558,125.263,98.059,178.718l244.826-124.027c-126.439-174.689-257.567-345.76-274.796-569.707
			c-17.959-233.473,110.011-446.954,216.513-644.37c289.045-535.582,774.955-904.228,1333.203-1127.905
			c337.867-135.39,692.902-223.6,1050.298-289.23c166.376-30.54,336.106-61.733,506.79-85.396
			c116.189-16.124,232.864-28.816,349.119-35.516L4314.037,653.759z" color="1605732" style="fill:#f2f1f0;fill-opacity:1;stroke-width:10;stroke:#000000"></path><path id="174629594" parent_id="125600082" order="5" structure_id="12994" d="M4334.324,755.476
			c-116.255,6.7-232.93,19.392-349.119,35.516c-170.683,23.663-340.413,54.856-506.79,85.396
			c-357.396,65.63-712.431,153.84-1050.298,289.23c-558.248,223.677-1044.158,592.323-1333.203,1127.905
			c-106.502,197.416-234.472,410.897-216.513,644.37c17.229,223.946,148.357,395.017,274.796,569.707l221.563-112.267
			c-34.522-155.316-72.674-309.069-60.058-471.3c14.72-189.27,67.116-372.298,177.299-529.087
			c188.649-268.454,494.576-459.366,764.688-636.955c335.703-220.583,705.834-414.505,1090.384-534.894
			c142.09-44.404,285.759-85.677,432.855-109.677c89.713-14.542,179.873-27.237,270.4-38.171
			c91.948-11.06,184.347-20.356,277.117-28.058c21.48-1.807,42.951-3.281,64.326-4.341L4334.324,755.476z" color="1605732" style="fill:#f2f1f0;fill-opacity:1;stroke-width:10;stroke:#000000"></path><path id="174629595" parent_id="125600082" order="6" structure_id="12995" d="M4391.773,1042.85
			c-21.375,1.06-42.846,2.534-64.326,4.341c-92.77,7.702-185.168,16.998-277.117,28.058c-90.527,10.934-180.688,23.629-270.4,38.171
			c-147.097,24-290.765,65.273-432.855,109.677c-384.55,120.389-754.681,314.312-1090.384,534.894
			c-270.112,177.589-576.039,368.501-764.688,636.955c-110.183,156.789-162.58,339.817-177.299,529.087
			c-12.617,162.231,25.535,315.983,60.058,471.3l257.351-130.509c16.923-93.738,41.494-186.674,67.061-276.497
			c72.748-256.574,206.886-481.72,417.917-648.816c93.144-73.644,179.678-149.393,268.382-228.166
			c163.456-144.852,334.726-250.71,522.049-361.115c80.815-47.646,167.38-89.293,250.652-132.45
			c76.846-40.005,152.258-82.386,228.714-123.319c58.421-31.274,121.471-52.327,181.539-79.969
			c162.969-74.911,336.116-147.114,514.396-197.492c108.853-30.841,219.562-53.624,330.995-63.797L4391.773,1042.85z" color="1605732" style="fill:#f2f1f0;fill-opacity:1;stroke-width:10;stroke:#000000"></path><path id="174629596" parent_id="125600082" order="7" structure_id="12996" d="M4413.816,1153.203
			c-111.434,10.173-222.142,32.956-330.995,63.797c-178.28,50.378-351.427,122.581-514.396,197.492
			c-60.068,27.642-123.118,48.695-181.539,79.969c-76.456,40.933-151.868,83.313-228.714,123.319
			c-83.272,43.157-169.837,84.804-250.652,132.45c-187.324,110.405-358.593,216.263-522.049,361.115
			c-88.704,78.773-175.238,154.522-268.382,228.166c-211.031,167.096-345.169,392.242-417.917,648.816
			c-25.567,89.823-50.138,182.759-67.061,276.497l571.801-289.829c7.917-20.37,17.664-40.604,29.42-61.114
			c58.078-101.322,142.187-182.727,236.411-250.337c158.569-113.723,359.89-217.894,545.762-277.228
			c114.941-36.754,209.31-106.528,312.2-168.138c115.272-68.929,230.547-137.941,346.219-206.275
			c171.391-101.353,344.537-202.822,527.817-276.571c99.861-40.101,202.825-72.026,310.099-91.322L4413.816,1153.203z" color="1605732" style="fill:#f2f1f0;fill-opacity:1;stroke-width:10;stroke:#000000"></path><path id="174629610" parent_id="125600082" order="8" structure_id="12997" d="M2649.069,3365.036
			c62.491-72.243,133.928-136.195,201.59-203.44c160.919-159.926,326.028-315.817,503.069-457.903
			c256.959-206.227,534.025-386.517,821.283-547.488c113.067-63.359,239.059-97.706,353.215-156.916
			c16.414-8.514,32.912-17.05,49.494-25.527l-65.881-329.752c-107.274,19.295-210.238,51.221-310.099,91.322
			c-183.28,73.749-356.426,175.218-527.817,276.571c-115.672,68.334-230.947,137.346-346.219,206.275
			c-102.891,61.61-197.259,131.384-312.2,168.138c-185.872,59.334-387.193,163.504-545.762,277.228
			c-94.224,67.61-178.333,149.015-236.411,250.337c-11.756,20.511-21.503,40.745-29.42,61.114
			c-25.082,63.989-32.757,128.64-29.833,201.764c3.239,79.636,5.605,163.583-50.483,227.191c-3.275,3.742-6.626,7.232-9.889,10.558
			l16.825,3.563c4.21-4.383,8.751-8.673,13.621-12.786c67.153-56.873,163.142-78.074,249.185-69.124
			c70.83,7.35,182.05,69.211,160.409,158.813c-1.145,4.739-2.771,9.461-4.75,14.174c0.813-1.424,1.612-2.856,2.382-4.304
			C2578.175,3454.453,2611.781,3408.143,2649.069,3365.036z" color="1605732" style="fill:#f2f1f0;fill-opacity:1;stroke-width:10;stroke:#000000"></path><path id="174629609" parent_id="125600082" order="9" structure_id="12998" d="M4577.721,1973.762
			c-16.582,8.478-33.08,17.014-49.494,25.527c-114.156,59.21-240.148,93.557-353.215,156.916
			c-287.258,160.971-564.324,341.261-821.283,547.488c-177.041,142.086-342.15,297.978-503.069,457.903
			c-67.663,67.245-139.099,131.197-201.59,203.44c-37.288,43.106-70.895,89.417-97.691,139.807c-0.77,1.447-1.569,2.88-2.382,4.304
			c-13.372,31.857-43.137,63.36-53.624,97.563c-3.31,10.828-6.291,21.833-8.443,33.028l30.317-7.643l4.142,0.951
			c6.249-29.172,17.29-56.79,29.712-77.281c103.583-170.984,288.799-318.72,432.331-454.883
			c223.998-212.585,468.523-396.405,719.82-575.029c105.779-75.203,210.214-153.028,322.705-217.95
			c92.057-52.997,178.953-109.225,271.546-154.703c59.7-29.32,121.856-54.15,189.279-70.66
			c-8.179,14.942-17.761,29.345-28.334,43.469c26.711-24.504,54.396-48.064,83.219-70.591c15.52-12.149,31.188-23.627,46.926-34.603
			l-2.081-3.061L4577.721,1973.762z" color="1605732" style="fill:#f2f1f0;fill-opacity:1;stroke-width:10;stroke:#000000"></path><path id="174629563" parent_id="125600082" order="10" structure_id="36" d="M1183.007,3969.45l183.419-46.397
			c20.183,46.767,40.703,93.375,62.836,138.946c28.277,58.252,57.221,116.523,93.042,170.404l-269.14,78.896
			c-21.078-82.728-39.312-171.629-55.529-258.137C1192.208,4024.158,1187.672,3996.014,1183.007,3969.45z" color="40053" style="fill:#f2f1f0;fill-opacity:1;stroke-width:10;stroke:#000000"></path><path id="174629562" parent_id="125600082" order="11" structure_id="180" d="M1620.688,4012.661
			c27.472-13.144,40.518-35.035,44.999-60.672l2.821,0.497c-16.543,89.163,12.986,162.042,70.471,216.455l-216.673,63.462
			c-35.822-53.881-64.765-112.152-93.042-170.404c-22.134-45.571-42.654-92.18-62.836-138.946l131.266-33.204
			c6.332,14.854,13.089,29.388,20.187,43.681C1531.604,3961.101,1576.395,4033.831,1620.688,4012.661z" color="40053" style="fill:#f2f1f0;fill-opacity:1;stroke-width:10;stroke:#000000"></path><path id="174629561" parent_id="125600082" order="12" structure_id="148" d="M1653.816,3850.43c9.966,33.635,17.343,70.365,11.871,101.56
			c-4.481,25.637-17.527,47.528-44.999,60.672c-44.293,21.17-89.084-51.561-102.808-79.132
			c-7.098-14.293-13.855-28.826-20.187-43.681L1653.816,3850.43z" color="40053" style="fill:#f2f1f0;fill-opacity:1;stroke-width:10;stroke:#000000"></path><path id="174629560" parent_id="125600082" order="13" structure_id="187" d="M1668.507,3952.486l-2.821-0.497
			c5.473-31.194-1.904-67.925-11.871-101.56l150.498-38.078c8.904,24.1,21.734,47.895,40.147,71.848
			c88.533,114.912,217.359,126.496,346.448,152.262l-451.931,132.48C1681.493,4114.528,1651.964,4041.649,1668.507,3952.486z" color="40053" style="fill:#f2f1f0;fill-opacity:1;stroke-width:10;stroke:#000000"></path><path id="174629559" parent_id="125600082" order="14" structure_id="638" d="M2394.298,3976.874l-203.389,59.587
			c-129.089-25.766-257.915-37.35-346.448-152.262c-18.413-23.953-31.244-47.748-40.147-71.848l347.103-87.769
			c8.971,15.848,18.138,30.699,26.925,44.206C2224.035,3839.127,2305.472,3916.233,2394.298,3976.874z" color="40053" style="fill:#f2f1f0;fill-opacity:1;stroke-width:10;stroke:#000000"></path><path id="174629568" parent_id="125600082" order="15" structure_id="897" d="M1366.427,3923.053l-183.419,46.397
			c-17.083-97.123-35.427-173.353-102.522-194.771c-75.441-24.074-127.973-76.763-172.113-143.054l244.826-124.027
			c0.886,1.108,1.686,2.299,2.487,3.405C1246.501,3636.57,1305.016,3780.896,1366.427,3923.053z" color="1158531" style="fill:#f2f1f0;fill-opacity:1;stroke-width:10;stroke:#000000"></path><path id="174629567" parent_id="125600082" order="16" structure_id="1106" d="M1405.502,3548.707
			c18.957,113.352,46.133,233.773,92.19,341.142l-131.266,33.204c-61.411-142.156-119.925-286.482-210.741-412.049
			c-0.802-1.106-1.602-2.297-2.487-3.405l221.563-112.267C1386.072,3446.182,1396.962,3497.186,1405.502,3548.707z" color="1158531" style="fill:#f2f1f0;fill-opacity:1;stroke-width:10;stroke:#000000"></path><path id="174629566" parent_id="125600082" order="17" structure_id="1010" d="M1632.111,3264.823
			c-14.547,80.548-23.438,161.59-22.38,241.664c0.455,36.783-0.474,100.68,0.017,137.242c1.442,46.066,6.313,91.73,21.106,137.426
			c5.901,18.262,15.292,42.792,22.961,69.274l-156.123,39.419c-46.058-107.368-73.234-227.79-92.19-341.142
			c-8.541-51.521-19.431-102.525-30.742-153.375L1632.111,3264.823z" color="1158531" style="fill:#f2f1f0;fill-opacity:1;stroke-width:10;stroke:#000000"></path><path id="174629565" parent_id="125600082" order="18" structure_id="1058" d="M2203.912,2974.995l-571.801,289.829
			c-14.547,80.548-23.438,161.59-22.38,241.664c0.68,46.461-1.365,92.012,0.017,137.242c1.442,46.066,6.313,91.73,21.106,137.426
			c5.901,18.262,15.292,42.792,22.961,69.274l150.498-38.078c-21.6-58.479-19.714-118.959-17.757-187.774
			c50.233-48.267,97.866-113.615,165.612-135.619c63.707-20.701,112.177-24.576,161.538-74.451
			c3.263-3.325,6.614-6.815,9.889-10.558c56.088-63.608,53.722-147.555,50.483-227.191
			C2171.155,3103.635,2178.83,3038.984,2203.912,2974.995z" color="1158531" style="fill:#f2f1f0;fill-opacity:1;stroke-width:10;stroke:#000000"></path><path id="174629564" parent_id="125600082" order="19" structure_id="857" d="M2151.417,3724.583l-347.103,87.769
			c-21.6-58.479-19.714-118.959-17.757-187.774c50.233-48.267,97.866-113.615,165.612-135.619
			c63.707-20.701,112.177-24.576,161.538-74.451l16.825,3.563C2050.509,3502.344,2097.97,3630.763,2151.417,3724.583z" color="1158531" style="fill:#f2f1f0;fill-opacity:1;stroke-width:10;stroke:#000000"></path><path id="174629572" parent_id="125600082" order="20" structure_id="801" d="M6556.343,1317.009l-81.59,54.378
			c-120.03-147.909-335.676-246.674-489.926-296.585c-203.982-66.167-406.782-138.719-611.596-202.075
			c-273.25-84.478-558.809-120.194-844.156-122.305c-64.688-0.505-129.695,1.399-194.751,5.053l-20.288-101.716l-0.017-2.334
			c423.246-9.229,822.399,31.219,1147.116,126.666C5829.599,886.287,6246.788,963.935,6556.343,1317.009z" color="558476" style="fill:#f2f1f0;fill-opacity:1;stroke-width:10;stroke:#000000"></path><path id="174629571" parent_id="125600082" order="21" structure_id="561" d="M6474.753,1371.387l-309.105,205.914
			c-4.087-2.868-8.091-5.733-12.179-8.601c-68.565-48.892-140.231-94.287-211.053-140.074
			c-78.027-50.412-158.489-97.308-241.345-139.186c-125.434-63.433-268.662-110.945-413.884-144.09
			c-121.779-27.726-244.22-52.719-367.646-72.404c-176.299-28.108-349.981-39.717-527.769-30.097l-57.449-287.374
			c65.056-3.654,130.063-5.558,194.751-5.053c285.348,2.11,570.906,37.827,844.156,122.305
			c204.813,63.355,407.613,135.908,611.596,202.075C6139.077,1124.713,6354.723,1223.479,6474.753,1371.387z" color="558476" style="fill:#f2f1f0;fill-opacity:1;stroke-width:10;stroke:#000000"></path><path id="174629570" parent_id="125600082" order="22" structure_id="913" d="M6165.647,1577.301l-69.577,43.822
			c-57.334,0-134.976-29.8-167.224-50.167c-90.779-57.334-196.96-98.456-289.345-142.438
			c-56.022-26.69-107.901-57.683-164.209-83.795c-71.238-33.037-153.03-54.712-231.139-75.86
			c-87.704-23.839-177.202-40.308-266.346-57.517c-132.679-25.618-258.203-59.453-393.992-63.647
			c-56.731-1.78-113.487,0.275-170,5.505l-22.043-110.354c177.788-9.62,351.47,1.988,527.769,30.097
			c123.426,19.685,245.866,44.678,367.646,72.404c145.222,33.145,288.45,80.658,413.884,144.09
			c82.855,41.878,163.317,88.773,241.345,139.186c70.821,45.787,142.487,91.182,211.053,140.074
			C6157.557,1571.568,6161.561,1574.433,6165.647,1577.301z" color="558476" style="fill:#f2f1f0;fill-opacity:1;stroke-width:10;stroke:#000000"></path><path id="174629569" parent_id="125600082" order="23" structure_id="937" d="M6096.07,1621.123l-288.991,195.037
			c-54.248-21.637-109.998-37.396-151.279-51.744c-349.993-121.429-689.667-174.694-1061.404-132.484
			c-27.771,3.129-55.32,7.265-82.556,12.078l-98.024-490.807c56.513-5.23,113.27-7.285,170-5.505
			c135.789,4.194,261.313,38.03,393.992,63.647c89.144,17.209,178.642,33.678,266.346,57.517
			c78.108,21.147,157.932,43.638,231.139,75.86c68.938,30.343,120.417,63.375,176.439,90.065
			c92.385,43.983,200.8,86.887,289.295,145.384C5977.611,1604.355,6062.626,1618.734,6096.07,1621.123z" color="558476" style="fill:#f2f1f0;fill-opacity:1;stroke-width:10;stroke:#000000"></path><path id="174629607" parent_id="125600082" order="24" structure_id="457" d="M5655.8,1764.416
			c-349.993-121.429-689.667-174.694-1061.404-132.484c-27.771,3.129-55.32,7.265-82.556,12.078l65.881,329.752
			c201.774-103.157,416.144-197.615,646.787-136.387c112.851,29.958,205.857,104.82,304.732,163.882l277.839-185.096
			C5752.831,1794.523,5697.081,1778.764,5655.8,1764.416z" color="558476" style="fill:#f2f1f0;fill-opacity:1;stroke-width:10;stroke:#000000"></path><path id="174629608" parent_id="125600082" order="25" structure_id="497" d="M4577.721,1973.762l8.79,43.993l2.081,3.061
			c172.319-119.336,359.863-167.116,577.019-136.095c113.438,16.149,237.747,60.456,349.786,125.759l13.844-9.222
			c-98.875-59.062-191.882-133.923-304.732-163.882C4993.865,1776.146,4779.495,1870.605,4577.721,1973.762z" color="558476" style="fill:#f2f1f0;fill-opacity:1;stroke-width:10;stroke:#000000"></path><path id="174629558" parent_id="125600082" order="26" structure_id="996" d="M1345.468,4572.232
			c-36.042-66.645-66.35-159.057-92.303-260.934l269.14-78.896c16.311,24.561,33.984,48.159,53.613,70.396
			c60.989,69.021,159.313,82.989,228.626,140.741c22.073,18.387,39.093,41.467,54.138,66.575l-478.163,122.563
			C1368.559,4613.494,1356.957,4593.403,1345.468,4572.232z" color="2201702" style="fill:#f2f1f0;fill-opacity:1;stroke-width:10;stroke:#000000"></path><path id="174629557" parent_id="125600082" order="27" structure_id="328" d="M2059.171,4458.7l-200.488,51.415
			c-15.045-25.108-32.065-48.188-54.138-66.575c-69.313-57.752-167.638-71.72-228.626-140.741
			c-19.629-22.236-37.302-45.835-53.613-70.396l216.673-63.462c26.792,25.442,59.617,46.887,96.731,64.118
			c60.976,28.415,130.717,56.495,175.413,109.128C2040.408,4376.705,2049.161,4417.81,2059.171,4458.7z" color="2201702" style="fill:#f2f1f0;fill-opacity:1;stroke-width:10;stroke:#000000"></path><path id="174629556" parent_id="125600082" order="28" structure_id="1101" d="M2337,4289.5c-103.5,18-123,61-190.383,111.236
			c-28.438,21.201-58.429,40.362-86.395,62.079c-0.295-1.342-0.674-2.688-1.05-4.115c-10.01-40.891-18.764-81.995-48.049-116.513
			c-44.696-52.633-114.437-80.713-175.413-109.128c-37.114-17.231-69.939-38.676-96.731-64.118l451.931-132.48
			c4.892,0.973,9.7,1.943,14.506,2.997c78.905,16.585,232.391,93.405,188.646,183.295l0.904,0.442
			C2380.398,4257.551,2358.408,4285.777,2337,4289.5z" color="2201702" style="fill:#f2f1f0;fill-opacity:1;stroke-width:10;stroke:#000000"></path><path id="174629555" parent_id="125600082" order="29" structure_id="783" d="M2622.566,4089.173
			c-90.395,3.35-194.272,55.677-227.601,134.022l-0.904-0.442c43.745-89.89-109.74-166.71-188.646-183.295
			c-4.806-1.054-9.615-2.024-14.506-2.997l203.389-59.587c65.677,44.892,135.447,80.727,197.817,98.259
			c11.664,3.25,21.714,4.619,30.229,4.278L2622.566,4089.173z" color="2201702" style="fill:#f2f1f0;fill-opacity:1;stroke-width:10;stroke:#000000"></path><path id="174629539" parent_id="125600082" order="30" structure_id="111" d="M2657.041,3905.968
			c-0.279-1.926-0.641-3.854-1.086-5.784c-17.696-90.219-124.031-95.16-160.522-169.488c-14.348-29.09-14.374-60.441-8.503-90.958
			c2.152-11.195,5.133-22.2,8.443-33.028c12.039-39.263,49.491-74.969,58.374-111.736c21.642-89.602-89.579-151.463-160.409-158.813
			c-86.043-8.95-182.032,12.251-249.185,69.124c-4.87,4.113-9.411,8.403-13.621,12.786
			c-80.022,84.273-32.562,212.692,20.885,306.513c8.971,15.848,18.138,30.699,26.925,44.206
			c45.693,70.338,127.13,147.444,215.956,208.085c65.677,44.892,135.447,80.727,197.817,98.259
			c11.664,3.25,21.714,4.619,30.229,4.278C2684.02,4077.329,2669.454,3988.449,2657.041,3905.968z" color="2201702" style="fill:#f2f1f0;fill-opacity:1;stroke-width:10;stroke:#000000"></path><path id="174629554" parent_id="125600082" order="31" structure_id="704" d="M1870.246,4637.18
			c-69.569,74.398-183.251,181.227-197.685,287.125c-111.899-67.301-207.693-155.571-292.041-291.626l478.163-122.563
			c17.033,28.499,31.491,59.594,47.819,89.408C1894.229,4611.848,1882.114,4624.427,1870.246,4637.18z" color="2201702" style="fill:#f2f1f0;fill-opacity:1;stroke-width:10;stroke:#000000"></path><path id="174629553" parent_id="125600082" order="32" structure_id="694" d="M2059.171,4458.7c0.376,1.428,0.755,2.773,1.05,4.115
			c-54.228,42.149-105.391,87.971-153.719,136.708c-16.329-29.814-30.786-60.909-47.819-89.408L2059.171,4458.7z" color="2201702" style="fill:#f2f1f0;fill-opacity:1;stroke-width:10;stroke:#000000"></path><path id="174629576" parent_id="125600082" order="33" structure_id="836" d="M6579.02,1343.502
			c58.85,70.961,105.979,199.288,143.865,330.103c-3.843-8.531-6.724-12.781-8.406-12.246
			c-42.892,12.955-105.064,41.287-168.867,74.159c2.328-17.36,6.429-35.504,10.754-55.642
			c25.829-119.582-11.688-222.371-81.612-308.489l81.59-54.378C6564.019,1325.649,6571.521,1334.533,6579.02,1343.502z" color="892817" style="fill:#f2f1f0;fill-opacity:1;stroke-width:10;stroke:#000000"></path><path id="174629575" parent_id="125600082" order="34" structure_id="427" d="M6474.753,1371.387l-291.573,194.234l116.703,315.231
			c10.849-8.283,26.188-18.83,44.78-30.814c0.445-0.988,0.888-1.893,1.413-2.795c0.491,0.348,0.983,0.612,1.391,0.957
			c33.543-21.392,77.133-47.167,123.47-72.782c24.398-13.564,49.714-27.103,74.675-39.9c2.328-17.36,6.429-35.504,10.754-55.642
			C6582.194,1560.294,6544.678,1457.505,6474.753,1371.387z" color="892817" style="fill:#f2f1f0;fill-opacity:1;stroke-width:10;stroke:#000000"></path><path id="174629574" parent_id="125600082" order="35" structure_id="988" d="M6183.18,1565.621l-17.532,11.68l-61.742,41.139
			l-114.44,76.252l-182.386,121.468c83.188,33.132,162.821,79.837,181.261,155.653c16.948,69.603,9.49,141.264,35.993,209.138
			l5.606,5.163c52.469-56.541,93.919-112.644,135.597-164.988c34.933-43.865,70.041-85.14,112.022-121.8
			c5.814-5.088,11.793-10.087,17.853-15.001c0.938-0.724,1.878-1.531,2.985-2.333c0.481-0.373,0.985-0.756,1.486-1.139
			L6183.18,1565.621z" color="892817" style="fill:#f2f1f0;fill-opacity:1;stroke-width:10;stroke:#000000"></path><path id="174629573" parent_id="125600082" order="36" structure_id="977" d="M6024.333,2180.951l5.606,5.163
			c-12.73,13.729-26.127,27.439-40.274,41.128c-61.896,59.691-116.57,82.316-168.906,81.412l3.646,12.527
			c-59.633-125.514-175.644-232.953-309.008-310.703l291.683-194.318c83.188,33.132,162.821,79.837,181.261,155.653
			C6005.288,2041.417,5997.83,2113.078,6024.333,2180.951z" color="892817" style="fill:#f2f1f0;fill-opacity:1;stroke-width:10;stroke:#000000"></path><path id="174629528" parent_id="125600082" order="37" structure_id="698" d="M5756.503,4930.656
			c-24.979-42.035-38.579-89.045-44.878-137.161c-2.976-22.731-4.329-45.708-4.47-68.527c-0.317-51.541,9.719-99.851-36.153-134.719
			c-64.877-49.308-127.346-33.09-200.02-48.119c-86.755-17.938-139.415-93.16-223.452-40.085
			c-136.053,85.927-270.28,157.323-388.688,267.072c-61.666,57.156-85.788,143.224-144.059,201.827
			c-24.678,24.816-59.547,57.466-85.817,91.629c-9.572,8.636-18.971,17.575-29.193,25.124c-4.041,2.984-8.21,5.751-12.569,8.195
			c-25.039,14.039-49.336,14.615-76.231,6.055c-28.227-8.984-53.168-37.082-81.356-43.71c-0.399-0.241-0.793-0.489-1.193-0.729
			c-84.857-50.808-186.347-64.595-281.873-82.627c-94.739-17.883-187.339-39.748-282.055-58.383
			c-107.058-21.063-211.376-61.757-315.485-93.894c-121.526-37.515-244.602-69.724-366.551-105.797
			c-118.083-34.93-232.307-81.095-346.906-125.844c-104.205-40.688-228.661-64.975-325.126-121.188
			c-59.652-34.742-111.864-82.425-156.622-134.654c-71.608-83.585-139.887,20.938-207.23,65.537
			c-29.577,19.591-58.35,40.325-86.333,62.067c-53.927,41.899-104.92,87.551-153.064,136.027
			c-12.496,12.582-24.805,25.348-36.917,38.294c-69.582,74.392-183.375,181.36-197.675,287.353
			c32.809,18.496,64.82,36.406,99.379,51.134c145.536,61.983,292.398,114.489,441.068,168.094
			c167.414,60.363,428.347,199.759,630.499,306.979c138.251,73.334,282.558,136.095,431.098,184.584
			c77.671,25.357,152.145,46.71,232.72,61.354c104.811,19.062,206.998,51.029,312.5,66.498
			c109.444,16.046,221.519,11.489,331.78,10.818c120.964-0.732,242.034-10.625,361.109-32.271
			c90.874-16.522,175.333-38.002,255.471-84.554c11.118-6.459,22.209-12.322,32.457-18.076c1.287-0.116,2.582-0.254,3.889-0.422
			c9.422-1.207,15.442-6.655,23.89-10.541c16.501-7.592,31.058-16.237,46.502-27.053c17.543-12.284,37.004-21.531,54.817-33.382
			c11.608-7.724,20.52-13.039,24.367-19.882c21.231-11.053,38.051-30.21,58.578-47.082
			c71.177-58.525,242.253-198.266,273.247-225.093c16.397-14.197,39.234-29.073,56.674-47.237
			c3.573-3.236,7.596-7.014,12.366-11.274c44.614-39.852,94.183-77.054,145.214-109.413c5.193-3.003,10.358-6.232,15.501-9.631
			c2.159-1.32,4.317-2.65,6.48-3.953c-0.074-0.089-0.151-0.178-0.226-0.267c15.826-10.886,31.447-23.136,46.996-35.002
			C5629.37,5012.625,5691.635,4970.818,5756.503,4930.656z" color="10146493" style="fill:#f2f1f0;fill-opacity:1;stroke-width:10;stroke:#000000"></path><path id="174629552" parent_id="125600082" order="38" structure_id="276" d="M3455.622,5428.926
			c-178.13-84.373-338.883-200.771-519.227-279.077c-77.903-33.826-142.5-83.007-220.679-116.068
			c-88.958-37.62-172.81-70.336-265.315-93.532c-123.461-30.96-255.522-41.033-358.084-119.879
			c-39.145-30.093-76.992-63.422-108.254-101.789c-28.717-35.242-56.58-77.521-76.451-118.279l-0.434-1.546
			c-12.496,12.582-24.805,25.348-36.917,38.294c-69.582,74.392-183.375,181.36-197.675,287.353
			c32.809,18.496,64.82,36.406,99.379,51.134c145.536,61.983,292.398,114.489,441.068,168.094
			c167.414,60.363,428.347,199.759,630.499,306.979c138.251,73.334,282.558,136.095,431.098,184.584
			c77.671,25.357,152.145,46.71,232.714,61.353c72.308,13.148,149.215,48.041,222.02,52.192
			c72.397,4.126,81.042-54.573,88.025-115.832c0.316-2.773,0.646-5.578,0.983-8.397c-0.623-0.001-1.246-0.008-1.869-0.008
			c0.623,0,1.246,0.007,1.869,0.008c0.315-2.641,0.642-5.309,0.973-7.986c-26.328-13.947-102.504-59.24-135.409-71.916
			C3601.274,5512.762,3534.493,5466.284,3455.622,5428.926z" color="6998970" style="fill:#f2f1f0;fill-opacity:1;stroke-width:10;stroke:#000000"></path><path id="174629551" parent_id="125600082" order="39" structure_id="284" d="M3712.82,5368.919
			c-41.085-37.039-89.385-62.578-133.153-96.273c-180.063-138.624-348.853-253.714-566.234-328.915
			c-200.175-69.25-409.819-107.674-608.118-182.227c-87.538-32.908-161.56-43.479-221.863-117.967
			c-9.374-11.578-18.943-22.991-28.91-34.063c-44.014-48.897-73.531-81.898-94.22-146.445l-0.079-0.301
			c-53.927,41.899-104.92,87.551-153.064,136.027l0.434,1.546c19.871,40.759,47.734,83.037,76.451,118.279
			c31.262,38.367,69.109,71.696,108.254,101.789c102.562,78.846,234.623,88.919,358.084,119.879
			c92.505,23.196,176.357,55.912,265.315,93.532c78.178,33.062,142.775,82.242,220.679,116.068
			c180.344,78.307,341.097,194.704,519.227,279.077c78.871,37.358,145.653,83.836,228.312,115.68
			c32.905,12.676,109.081,57.969,135.409,71.916c6.251-50.613,14.993-107.572,16.723-160.4
			C3800.009,5424.25,3739.169,5392.674,3712.82,5368.919z" color="6998970" style="fill:#f2f1f0;fill-opacity:1;stroke-width:10;stroke:#000000"></path><path id="174629550" parent_id="125600082" order="40" structure_id="291" d="M2154.541,4609.474
			c9.967,11.072,19.536,22.485,28.91,34.063c60.303,74.488,134.325,85.059,221.863,117.967
			c198.299,74.553,407.943,112.977,608.118,182.227c217.381,75.201,386.171,190.291,566.234,328.915
			c43.768,33.695,92.068,59.234,133.153,96.273c26.35,23.755,87.189,55.331,123.245,87.202c0.542-16.537,0.403-32.675-0.724-48.08
			c-8.294-113.244-38.124-230.928-27.25-344.717c4.029-42.227,28.243-99.953-0.326-138.654
			c-21.667-29.325-70.77-38.368-103.058-50.133c-171.028-62.31-347.875-106.155-522.248-157.729
			c-118.083-34.93-232.307-81.095-346.906-125.844c-104.205-40.688-228.661-64.975-325.126-121.188
			c-59.652-34.742-111.864-82.425-156.622-134.654c-71.608-83.585-139.887,20.938-207.23,65.537
			c-29.577,19.591-58.35,40.325-86.333,62.067l0.079,0.301C2081.01,4527.575,2110.527,4560.576,2154.541,4609.474z" color="6998970" style="fill:#f2f1f0;fill-opacity:1;stroke-width:10;stroke:#000000"></path><path id="174629546" parent_id="125600082" order="41" structure_id="216" d="M5294.241,5077.742
			c-4.779-3.479-18.909-16.964-38.234-35.988l-19.392,5.629c1.428,1.597,2.732,3.296,3.885,5.117
			c32.592,51.518-133.294,150.76-160.823,184.563c-52.278,64.227-194.169,199.759-269.449,245.783
			c24.318,34.21,54.023,67.774,93.929,73.16c50.675,6.842,74.514-27.429,108.552-55.406
			c71.177-58.525,242.253-198.266,273.247-225.093c29.667-25.687,80.423-53.588,82.132-99.184
			C5369.658,5134.541,5324.226,5099.596,5294.241,5077.742z" color="6416311" style="fill:#f2f1f0;fill-opacity:1;stroke-width:10;stroke:#000000"></path><path id="174629545" parent_id="125600082" order="42" structure_id="224" d="M5079.677,5237.063
			c27.529-33.803,193.415-133.045,160.823-184.563c-21.033-33.247-90.426-28.193-117.99-15.781
			c-71.44,32.164-127.451,91.987-177.13,150.647c-34.467,40.697-77.454,74.777-112.994,114.849
			c-14.173,15.977-57.896,60.18-87.504,92.499c14.866,17.469,27.752,33.087,36.748,46.075c8.799,12.705,18.207,27.439,28.598,42.057
			C4885.508,5436.821,5027.398,5301.289,5079.677,5237.063z" color="6416311" style="fill:#f2f1f0;fill-opacity:1;stroke-width:10;stroke:#000000"></path><path id="174629544" parent_id="125600082" order="43" structure_id="232" d="M5056.798,4843.864
			c-35.397-33.317-91.712-115.531-146.13-105.125c-79.609,15.225-153.659,189.752-195.885,232.205
			c-36.268,36.472-94.569,89.856-115.193,140.111c-34.047,83.105,76.714,203.079,145.292,283.658
			c29.608-32.319,73.331-76.522,87.504-92.499c35.54-40.071,78.527-74.151,112.994-114.849
			c49.679-58.66,105.689-118.483,177.13-150.647c26.055-11.732,89.474-16.884,114.105,10.664l19.392-5.629
			C5199.796,4986.417,5099.534,4884.094,5056.798,4843.864z" color="6416311" style="fill:#f2f1f0;fill-opacity:1;stroke-width:10;stroke:#000000"></path><path id="174629549" parent_id="125600082" order="44" structure_id="408" d="M4826.176,5538.878
			c-13.875-16.842-27.646-33.766-41.336-50.754l-0.34,0.376c-11.875,12.789-66.654,47.255-86.212,58.433
			c-121.288,69.339-277.318,79.171-413.501,86.336c-51.02,2.684-101.486,4.781-152.646,4.962
			c-98.364,0.348-196.503-11.895-294.458-13.543c-1.323,8-2.641,16.048-3.913,24.179c-2.263,14.455-4.378,29.17-6.121,44.317
			c-9.01,78.384,30.701,73.675,100.803,78.396c74.229,4.994,148.841,2.735,223.175,2.283
			c120.964-0.732,242.034-10.625,361.109-32.271c90.874-16.522,175.333-38.002,255.471-84.554
			C4825.313,5623.862,4881.79,5606.392,4826.176,5538.878z" color="5888683" style="fill:#f2f1f0;fill-opacity:1;stroke-width:10;stroke:#000000"></path><path id="174629548" parent_id="125600082" order="45" structure_id="416" d="M4722.192,5409.324
			c-21.735,3.908-56.39,19.84-77.279,26.582c-61.871,19.983-132.601,27.187-196.529,39.671
			c-99.257,19.38-190.539,14.736-290.683,9.26c-58.919-3.223-119.861,15.039-176.845,7.186
			c-33.729-4.648-89.833-34.893-128.403-36.756c0.168,3.973,0.343,7.944,0.492,11.917c2.094,55.992-6.695,105.696-15.264,157.504
			c97.955,1.648,196.094,13.891,294.458,13.543c51.16-0.181,101.626-2.278,152.646-4.962
			c136.183-7.165,292.213-16.997,413.501-86.336c19.558-11.178,74.337-45.644,86.212-58.433l0.34-0.376
			C4763.783,5461.994,4742.927,5435.708,4722.192,5409.324z" color="5888683" style="fill:#f2f1f0;fill-opacity:1;stroke-width:10;stroke:#000000"></path><path id="174629547" parent_id="125600082" order="46" structure_id="424" d="M4614.623,5270.844
			c-56.958-73.785-104.393-164.35-186.199-213.335c-113.663-68.056-274.248-72.442-400.6-109.146
			c-54.101-15.712-125.937-29.545-166.494,21.834c-40.419,51.207-32.361,143.346-28.406,203.511
			c6.169,93.878,15.544,187.555,19.531,281.56c38.57,1.863,94.673,32.107,128.403,36.756c56.984,7.854,117.926-10.408,176.845-7.186
			c100.144,5.477,191.426,10.12,290.683-9.26c63.928-12.484,134.658-19.688,196.529-39.671
			c20.889-6.742,55.543-22.674,77.279-26.582C4686.077,5363.369,4650.341,5317.113,4614.623,5270.844z" color="5888683" style="fill:#f2f1f0;fill-opacity:1;stroke-width:10;stroke:#000000"></path><path id="174629543" parent_id="125600082" order="47" structure_id="1140" d="M5711.625,4793.495
			c-47.698,24.378-97.85,39.795-146.491,63.05c-56.554,27.158-90.732,79.716-140.523,115.404
			c-42.052,30.116-91.789,42.399-139.27,60.855c24.491,22.729,49.367,44.857,74.664,66.368
			c77.387,65.793,143.811,9.274,208.956-40.443c60.409-46.104,122.674-87.911,187.542-128.073
			C5731.523,4888.621,5717.924,4841.611,5711.625,4793.495z" color="11070675" style="fill:#f2f1f0;fill-opacity:1;stroke-width:10;stroke:#000000"></path><path id="174629542" parent_id="125600082" order="48" structure_id="1141" d="M5707.155,4724.968
			c-0.317-51.541,9.719-99.851-36.153-134.719c-64.877-49.308-127.346-33.09-200.02-48.119
			c-86.755-17.938-139.415-93.16-223.452-40.085c-70.021,44.216-165.64,90.662-215.842,157.265
			c-84.663,112.34,48.998,161.244,94.764,211.979c51.238,56.79,104.093,110.663,158.889,161.516
			c47.48-18.456,97.218-30.739,139.27-60.855c49.791-35.688,83.97-88.246,140.523-115.404
			c48.642-23.255,98.793-38.672,146.491-63.05C5708.649,4770.764,5707.296,4747.787,5707.155,4724.968z" color="11070675" style="fill:#f2f1f0;fill-opacity:1;stroke-width:10;stroke:#000000"></path><path id="174629532" parent_id="125600082" order="49" structure_id="399" d="M5071.683,4015.31
			c83.977,8.192,217.101,5.136,313.964-15.119c-18.943,3.108-38.201,3.787-58.012,0.783c-18.955-2.876-36.891-4.7-55.574-9.29
			c-104.055-25.564-206.907-76.185-296.985-132.71c-24.831-15.581-44.667-35.97-67.496-53.247
			c-20.275-15.345-40.507-30.358-60.331-45.752c-18.63-14.467-39.334-28.776-59.586-41.291
			c-11.695-7.228-61.974-32.522-40.037-46.452c9.728-6.172,20.89-7.799,32.911-6.239c-7.59-3.321-15.115-6.878-22.502-10.946
			c-77.102-42.467-113.28-126.019-139.171-205.599c-89.636-275.453-144.372-640.832,13.063-901.365
			c41.778-69.158,108.779-137.185,170.49-188.657c165.521-138.052,388.346-153.113,549.783-47.604
			c-37.038-29.139-75.702-51.328-111.702-60.728c-55.997-14.626-117.024-13.202-168.806-44.989
			c-57.364-35.226-3.605-123.67,26.64-153.28c20.161-19.743,38.721-29.292,59.741-32.863c-54.231-3.747-106.67-0.685-150.996,15.337
			c-161.161,58.286-233.132,82.254-346.94,202.336c-98.762,104.084-145.234,201.901-188.671,333.739
			c-57.792,175.573-84.062,355.668-58.462,544.304c0.149,1.098,0.291,2.194,0.444,3.292c0.239,1.718,0.48,3.417,0.719,5.129
			c10.058,71.846,20.668,139.139,34.519,205.079c18.04,85.845,41.573,169.419,76.513,257.81c0.103,0.259,0.208,0.52,0.311,0.778
			c35.016,88.175,99.446,177.339,198.117,263.019c0.138,0.11,0.273,0.221,0.411,0.33c12.118,9.627,23.557,19.36,34.484,29.114
			c51.456,42.833,118.308,97.885,135.201,128.142c17.074,14.201,34.945,27.263,54.511,38.723
			C4908.696,3996.334,5019.59,4010.188,5071.683,4015.31z" color="8310859" style="fill:#f2f1f0;fill-opacity:1;stroke-width:10;stroke:#000000"></path><path id="174629531" parent_id="125600082" order="50" structure_id="407" d="M5521.111,2524.897
			c-120.044-307.558-479.306-365.134-718.694-165.473c-61.711,51.472-128.712,119.499-170.49,188.657
			c-157.436,260.534-102.7,625.912-13.063,901.365c25.891,79.58,62.069,163.132,139.171,205.599
			c17.955,9.889,36.724,16.782,55.273,24.503c14.748,6.141,29.357,12.811,43.3,21.935c29.31,19.163,55.875,47.162,88.978,60.115
			c82.596,32.321,203.885,3.992,278.114-39.657c64.723-38.063,112.084-104.055,155.938-163.41
			c101.878-137.909,137.779-285.398,159.608-453.17c11.167-85.88,14.626-171.007,13.747-257.526
			C5551.918,2741.436,5560.627,2626.136,5521.111,2524.897z M5017.331,3521.779c-64.12,10.487-156.67-23.021-189.487-83.813
			c-65.617-121.566-74.848-256.147-93.592-389.987c-18.167-129.738,17.971-277.081,98.264-381.738
			c59.701-77.818,171.565-223.664,281.468-212.082c110.668,11.663,150.762,162.005,172.599,249.834
			c0.423,1.681,0.83,3.366,1.237,5.059c40.354,167.516,18.305,350.37-39.02,510.613
			C5208.341,3332.776,5154.703,3499.312,5017.331,3521.779z" color="6727741" style="fill:#f2f1f0;fill-opacity:1;stroke-width:10;stroke:#000000"></path><path id="174629530" parent_id="125600082" order="51" structure_id="415" d="M5286.582,2703.995
			c-21.837-87.829-61.931-238.171-172.599-249.834c-109.902-11.582-221.767,134.263-281.468,212.082
			c-80.293,104.657-116.431,252-98.264,381.738c18.744,133.84,27.975,268.42,93.592,389.987
			c32.817,60.791,125.367,94.3,189.487,83.813c137.372-22.468,191.01-189.003,231.469-302.112
			c57.324-160.244,79.373-343.098,39.02-510.613C5287.412,2707.361,5287.005,2705.676,5286.582,2703.995z" color="8310859" style="fill:#f2f1f0;fill-opacity:1;stroke-width:10;stroke:#000000"></path><path id="174629582" parent_id="125600082" order="52" structure_id="1121" d="M6714.479,1661.359c1.683-0.536,4.563,3.715,8.406,12.246
			c22.098,76.17,41.002,153.25,57.271,220.332c50.14,207.206,75.959,448.656,58.465,679.787c-0.67,8.902-1.423,17.803-2.177,26.703
			c-0.37,4.242-0.741,8.484-1.195,12.723c-7.847,79.488-20.344,161.261-38.087,245.72c-19.277,91.502-35.211,179.765-53.072,268.39
			c-0.093,0.331-0.103,0.664-0.195,0.995c-17.763,76.371-35.148,148.25-49.442,214.046l-68.545-17.374
			c1.228-5.051,2.539-10.101,3.769-15.234c26.48-107.307,45.594-216.491,58.408-327.021
			c24.162-207.595,54.721-417.258,38.329-626.673c-15.138-191.953-94.246-353.873-169.597-527.777
			c-14.475-33.43-15.497-61.975-11.205-92.703C6609.414,1702.646,6671.587,1674.314,6714.479,1661.359z" color="3323941" style="fill:#f2f1f0;fill-opacity:1;stroke-width:10;stroke:#000000"></path><path id="174629581" parent_id="125600082" order="53" structure_id="715" d="M6726.413,2355.998
			c16.392,209.415-14.167,419.079-38.329,626.673c-12.814,110.53-31.928,219.714-58.408,327.021
			c-129.559-18.025-9.653-381.902-3.335-448.676c20.626-218.118,11.978-438.902-41.997-651.97
			c-35.387-139.583-111.524-279.907-109.521-426.598l-3.886-7.031c24.398-13.564,49.714-27.103,74.675-39.9
			c-4.292,30.728-3.27,59.273,11.205,92.703C6632.167,2002.125,6711.275,2164.045,6726.413,2355.998z" color="3323941" style="fill:#f2f1f0;fill-opacity:1;stroke-width:10;stroke:#000000"></path><path id="174629580" parent_id="125600082" order="54" structure_id="764" d="M6626.341,2861.017
			c-6.318,66.774-126.224,430.65,3.335,448.676c-1.229,5.134-2.541,10.184-3.769,15.234l-151.908-38.421
			c68.376-246.526,98.521-506.146,65.488-746.134c-13.122-95.676-42.106-211.146-74.228-301.359
			c-20.693-58.12-54.813-110.285-81.424-165.572c-22.432-46.83-65.53-170.289-39.173-223.403c0.933-0.557,1.868-1.198,2.804-1.838
			c33.543-21.392,77.133-47.167,123.47-72.782l3.886,7.031c-2.003,146.691,74.135,287.015,109.521,426.598
			C6638.318,2422.115,6646.967,2642.899,6626.341,2861.017z" color="3323941" style="fill:#f2f1f0;fill-opacity:1;stroke-width:10;stroke:#000000"></path><path id="174629579" parent_id="125600082" order="55" structure_id="52" d="M6539.487,2540.372
			c33.032,239.988,2.888,499.608-65.488,746.134l-150.088-37.953c2.363-18.609,4.479-37.31,6.262-56.019
			c17.009-178.866,3.918-360.671,8.782-540.549c2.515-91.396-8.877-189.273-25.156-279.452
			c-24.058-133.341-118.041-343.961-36.24-473.208c5.814-5.088,11.793-10.087,17.853-15.001c0.938-0.724,1.878-1.531,2.985-2.333
			c10.912-8.444,26.816-19.415,46.267-31.953c-26.357,53.114,16.741,176.573,39.173,223.403
			c26.61,55.287,60.73,107.452,81.424,165.572C6497.381,2329.225,6526.365,2444.696,6539.487,2540.372z" color="3323941" style="fill:#f2f1f0;fill-opacity:1;stroke-width:10;stroke:#000000"></path><path id="174629578" parent_id="125600082" order="56" structure_id="92" d="M6165.536,2021.125
			c34.933-43.865,70.041-85.14,112.022-121.8c-81.801,129.247,12.183,339.867,36.24,473.208
			c16.279,90.179,27.671,188.057,25.156,279.452c-4.864,179.877,8.227,361.683-8.782,540.549
			c-1.782,18.709-3.898,37.41-6.262,56.019l-93.379-23.666c18.376-106.704,25.799-215.302,23.466-323.845
			c-3.677-163.945-15.345-331.286-47.285-492.365c-6.639-33.374-70.189-340.766-37.751-384.869L6165.536,2021.125z" color="3323941" style="fill:#f2f1f0;fill-opacity:1;stroke-width:10;stroke:#000000"></path><path id="174629577" parent_id="125600082" order="57" structure_id="387" d="M6029.939,2186.114
			c52.469-56.541,93.919-112.644,135.597-164.988l3.426,2.682c-32.438,44.103,31.112,351.495,37.751,384.869
			c31.94,161.08,43.608,328.42,47.285,492.365c2.333,108.543-5.09,217.142-23.466,323.845l-343.637-86.896
			c25.226-280.188,53.478-572.963-62.491-816.81l-3.646-12.527c52.336,0.904,107.01-21.721,168.906-81.412
			C6003.813,2213.553,6017.209,2199.843,6029.939,2186.114z" color="3323941" style="fill:#f2f1f0;fill-opacity:1;stroke-width:10;stroke:#000000"></path><path id="174629587" parent_id="125600082" order="58" structure_id="526" d="M6694.452,3342.301c-1.637,7.708-3.44,15.411-5.324,23.028
			c-21.152,78.275-47.049,159.167-80.502,244.848c-0.091,0.247-0.181,0.495-0.271,0.742
			c-55.012,134.261-122.013,262.011-181.39,385.559c-0.621,1.316-1.239,2.549-1.86,3.865
			c-44.533,91.202-86.407,182.729-121.613,280.199l-132.435-57.628c34.383-53.887,69.01-107.516,107.05-158.046
			c85.434-113.301,160.261-237.743,218.551-367.075c54.467-120.936,97.031-245.545,129.25-372.866L6694.452,3342.301z" color="3323941" style="fill:#f2f1f0;fill-opacity:1;stroke-width:10;stroke:#000000"></path><path id="174629586" parent_id="125600082" order="59" structure_id="543" d="M6473.999,3286.506l151.908,38.421
			c-32.219,127.321-74.783,251.931-129.25,372.866c-58.29,129.332-133.117,253.774-218.551,367.075
			c-38.04,50.53-72.667,104.159-107.05,158.046l-136.554-59.413c87.429-121.917,172.898-245.306,242.558-378.566
			C6356.24,3633.518,6424.946,3463.376,6473.999,3286.506z" color="3323941" style="fill:#f2f1f0;fill-opacity:1;stroke-width:10;stroke:#000000"></path><path id="174629585" parent_id="125600082" order="60" structure_id="664" d="M6323.911,3248.553l150.088,37.953
			c-49.053,176.87-117.759,347.012-196.938,498.429c-69.659,133.261-155.129,256.649-242.558,378.566l-104.351-45.407
			c12.756-17.564,25.838-34.868,39.163-51.916c95.258-121.61,192.487-245.082,247.081-391.027
			C6268.097,3537.126,6305.168,3394.601,6323.911,3248.553z" color="3323941" style="fill:#f2f1f0;fill-opacity:1;stroke-width:10;stroke:#000000"></path><path id="174629584" parent_id="125600082" order="61" structure_id="712" d="M6230.532,3224.887l93.379,23.666
			c-18.743,146.048-55.814,288.573-107.515,426.598c-54.594,145.945-151.823,269.417-247.081,391.027
			c-13.325,17.048-26.407,34.352-39.163,51.916l-81.867-35.596c39.969-42.138,77.018-87.11,110.535-134.017
			c106.033-148.652,162.221-335.992,218.375-507.491C6200.387,3370.193,6218.031,3297.988,6230.532,3224.887z" color="3323941" style="fill:#f2f1f0;fill-opacity:1;stroke-width:10;stroke:#000000"></path><path id="174629583" parent_id="125600082" order="62" structure_id="550" d="M5557.798,3956.174
			c11.69-9.423,23.144-19.27,34.189-29.462c0.083,0.003,0.085-0.081,0.169-0.078c51.893-42.132,65.445-61.341,103.498-124.044
			c1.838-3.033,3.758-6.063,5.595-9.097c105.068-173.359,163.775-399.482,179.099-580.647c2.122-24.787,4.333-49.738,6.548-74.855
			l343.637,86.896c-12.501,73.102-30.146,145.307-53.337,216.104c-56.154,171.499-112.342,358.839-218.375,507.491
			c-33.518,46.906-70.566,91.879-110.535,134.017L5557.798,3956.174z" color="3323941" style="fill:#f2f1f0;fill-opacity:1;stroke-width:10;stroke:#000000"></path><path id="174629592" parent_id="125600082" order="63" structure_id="259" d="M6171.057,4222.914l132.435,57.628
			c-0.544,1.568-1.087,3.054-1.632,4.623c-21.872,53.741-41.882,100.615-68.34,148.473c-0.091,0.248-0.265,0.493-0.353,0.657
			c-39.694,64.741-96.091,139.18-170.879,224.102c-4.826,5.532-9.988,11.139-15.317,16.74
			c-49.023,49.718-103.778,98.689-162.606,147.211c-35.934,29.245-72.509,57.555-107.018,83.589
			c-23.276-43.52-36.747-82.924-43.051-125.126c122.681-74.389,178.354-214.3,269.228-319.526
			C6066.464,4388.366,6118.518,4305.383,6171.057,4222.914z" color="3323941" style="fill:#f2f1f0;fill-opacity:1;stroke-width:10;stroke:#000000"></path><path id="174629591" parent_id="125600082" order="64" structure_id="324" d="M6034.503,4163.501l136.554,59.413
			c-52.539,82.469-104.593,165.452-167.533,238.37c-90.873,105.227-146.547,245.138-269.228,319.526
			c-4.291-27.971-5.464-57.104-4.214-89.336c0.97-25.319,0.41-46.681-5.059-65.513l7.477-1.956
			c66.168-127.773,127.915-217.401,213.103-336.713C5975.125,4246.025,6004.895,4204.849,6034.503,4163.501z" color="3323941" style="fill:#f2f1f0;fill-opacity:1;stroke-width:10;stroke:#000000"></path><path id="174629590" parent_id="125600082" order="65" structure_id="371" d="M5930.152,4118.094l104.351,45.407
			c-29.608,41.348-59.378,82.524-88.9,123.792c-85.188,119.312-146.935,208.939-213.103,336.713l-7.477,1.956
			c-7.358-25.641-23.681-46.866-57.356-67.751c-26.547-16.43-52.63-22.842-77.224-25.875l0.202-1.245
			C5732.314,4419.388,5824.409,4262.418,5930.152,4118.094z" color="3323941" style="fill:#f2f1f0;fill-opacity:1;stroke-width:10;stroke:#000000"></path><path id="174629589" parent_id="125600082" order="66" structure_id="419" d="M5480.978,4092.065
			c8.043,54.342,47.448,111.243,90.125,126.381c63.392,22.647,146.654-14.341,193.768-55.524
			c28.903-25.359,56.85-52.247,83.415-80.424l81.867,35.596c-105.743,144.324-197.838,301.294-339.507,412.997l-0.202,1.245
			c-74.61-9.292-135.258,12.33-152.022-122.388c-6.642-53.802,56.232-224.109,40.378-317.527L5480.978,4092.065z" color="3323941" style="fill:#f2f1f0;fill-opacity:1;stroke-width:10;stroke:#000000"></path><path id="174629588" parent_id="125600082" order="67" structure_id="1133" d="M5480.978,4092.065l-2.179,0.355
			c-4.224-24.467-13.769-43.582-31.313-54.087c19.95-15.441,37.765-29.109,53.79-41.411c19.533-12.535,38.348-26.175,56.522-40.749
			l290.487,126.324c-26.565,28.177-54.512,55.064-83.415,80.424c-47.113,41.184-130.376,78.172-193.768,55.524
			C5528.426,4203.309,5489.021,4146.407,5480.978,4092.065z" color="3323941" style="fill:#f2f1f0;fill-opacity:1;stroke-width:10;stroke:#000000"></path><path id="174629529" parent_id="125600082" order="68" structure_id="502" d="M5443.578,3984.147
			c-37.689,13.846-75.678,22.932-115.943,16.826c-18.955-2.876-36.891-4.7-55.574-9.29
			c-104.055-25.564-206.907-76.185-296.985-132.71c-24.831-15.581-44.667-35.97-67.496-53.247
			c-20.275-15.345-40.507-30.358-60.331-45.752c-18.63-14.467-39.334-28.776-59.586-41.291
			c-11.695-7.228-61.974-32.522-40.037-46.452c54.165-34.367,152.641,71.641,197.96,89.367
			c82.596,32.321,203.885,3.992,278.114-39.657c64.723-38.063,112.084-104.055,155.938-163.41
			c101.878-137.909,137.779-285.398,159.608-453.17c11.167-85.88,14.626-171.007,13.747-257.526
			c-1.074-106.399,7.635-221.698-31.873-322.929c-39.467-101.117-172.143-245.489-280.621-273.813
			c-55.997-14.626-117.024-13.202-168.806-44.989c-57.364-35.226-3.605-123.67,26.64-153.28
			c35.983-35.238,66.863-38.014,115.746-32.251c95.139,11.216,190.766,58.142,271.88,107.526
			c68.174,41.505,158.827,98.748,199.312,174.507c87.072,162.982,90.247,236.027,101.739,380.184
			c13.828,173.404,25.402,389.067,6.861,565.084C5767.182,3501.077,5643.694,3910.631,5443.578,3984.147z" color="5227076" style="fill:#f2f1f0;fill-opacity:1;stroke-width:10;stroke:#000000"></path><path id="174629540" parent_id="125600082" order="69" structure_id="583" d="M3580.358,3437.975c-1.539,0.989-3.061,1.998-4.55,3.012
			c-89.58,60.787-182.887,112.174-281.069,158.021c-169.018,78.921-344.4,158.534-529.492,191.14
			c-67.702,11.924-172.566,25.882-224.413-32.964c-44.399-50.394-21.275-149.39,10.313-201.533
			c103.546-170.918,288.752-318.688,432.27-454.876c224.03-212.582,468.546-396.319,719.874-574.978
			c105.768-75.181,210.145-152.991,322.717-217.909c151.413-87.313,288.915-183.224,460.781-225.409
			c-50.796,92.277-153.301,167.316-221.743,248.036c-74.872,88.322-145.731,179.952-220.001,268.783
			c-86.584,103.555-157.639,215.614-230.321,328.943c-66.147,103.123-116.552,198.493-140.368,319.717
			c-7.35,37.416,1.636,88.814-13.788,123.268C3645.886,3403.994,3609.74,3419.031,3580.358,3437.975z" color="9099911" style="fill:#f2f1f0;fill-opacity:1;stroke-width:10;stroke:#000000"></path><path id="174629537" parent_id="125600082" order="70" structure_id="952" d="M4493.236,4219.071
			c-9.84-52.717-37.505-145.556-100.6-155.657c-50.316-8.049-92.241,43.301-134.068,60.946
			c-38.661,16.307-137.503,21.256-141.646,21.04c-94.064-4.957-202.86-42.197-259.281-121.965
			c-78.648-111.181-117.96-248.163-139.358-381.185c-15.969-99.289-20.56-249.916-153.7-161.147
			c-186.988,124.676-384.81,224.173-599.187,291.992c-90.442,28.613-247.698,24.067-284.723,134.377
			c-35.43,105.634,96.245,191.083,163.67,248.134c84.736,71.718,162.961,152.743,247.723,222.472
			c111.107,91.398,246.005,139.064,383.532,174.661c146.83,38.014,281.215,88.2,435.241,66.908
			C4128.562,4589.553,4554.8,4548.662,4493.236,4219.071z" color="10546845" style="fill:#f2f1f0;fill-opacity:1;stroke-width:10;stroke:#000000"></path><path id="174629533" parent_id="125600082" order="71" structure_id="966" d="M4413.171,4579.44
			c-16.075-67.958-90.588-32.565-131.992-12.677c-65.089,31.237-137.673,51.288-209.566,65.268
			c-94.968,18.468-192.247,24.234-288.769,18.622c-23.14-1.343-400.315-76.524-550.442-152.873
			c-126.612-64.377-217.355-157.533-319.095-254.702c-64.479-61.577-134.695-116.378-220.636-145.031
			c-131.13-43.728-369.94,75.022-294.051,240.873c38.359,83.829,169.872,142.932,249.928,167.5
			c81.172,24.914,138.309,41.497,215.817,73.406c147.742,60.824,304.705,114.941,458.95,153.911
			c152.202,38.445,321.203,97.174,474.146,132.961c141.255,33.054,337.018,130.076,478.883,54.415
			C4392.563,4859.134,4442.61,4703.806,4413.171,4579.44z" color="10546845" style="fill:#f2f1f0;fill-opacity:1;stroke-width:10;stroke:#000000"></path><path id="174629538" parent_id="125600082" order="72" structure_id="131" d="M4126.454,4044.202c-19.526-3.479-38.506-8.904-55.265-14.447
			c-111.563-36.882-220.693-133.396-250.002-249.225c-29.618-117.012,58.276-229.523,177.792-248.085
			c35.942-5.579,73.513,2.458,109.081-4.932c67.164-13.959,177.23-105.81,225.536-17.264
			c36.357,66.655,77.802,138.614,79.08,216.469C4414.701,3850.3,4269.89,4069.734,4126.454,4044.202z" color="9497485" style="fill:#f2f1f0;fill-opacity:1;stroke-width:10;stroke:#000000"></path><path id="174629536" parent_id="125600082" order="73" structure_id="311" d="M4684.279,3913.677
			c87.732,77.081,194.689,134.971,306.241,162.276c72.943,17.865,155.548,36.288,230.395,21.186
			c39.158-7.891,79.65-12.155,117.407-25.76c31.743-11.432,57.617-34.229,93.479-11.908c55.338,34.438,16.994,114.99-33.558,134.113
			c-72.756,27.526-170.442,3.846-246.201,8.944c-112.54,7.574-224.47,25.708-333.444,54.866
			c-71.396,19.106-188.82,116.504-262.202,76.825c-39.133-21.186-36.528-68.783-41.762-106.749
			c-6.056-43.854-18.167-88.603-41.705-126.84c-20.56-33.407-60.466-56.729-69.997-96.893c-0.432-1.786-0.7-3.594-0.83-5.429
			c-2.768-38.404,56.672-84.997,87.544-97.441c58.252-23.494,138.455,9.689,192.523,30.351c19.029,7.274,10.977-5.318-4.946-22.88
			L4684.279,3913.677z" color="10348444" style="fill:#f2f1f0;fill-opacity:1;stroke-width:10;stroke:#000000"></path><path id="174629535" parent_id="125600082" order="74" structure_id="451" d="M5423.637,4284.222
			c-17.824-97.589-334.616-55.855-406.118-45.075c-156.354,23.563-316.116,68.133-446.57,160.756
			c-92.298,65.533-125.253,154.555-132.855,262.179c-0.529,7.37-1.237,14.748-2.092,22.15
			c-12.876,111.03-59.221,225.246-3.411,332.928c102.48,197.724,299.464-117.428,360.353-206.181
			c86.592-126.214,217.226-189.02,339.613-276.019c57.316-40.741,111.344-57.621,169.742-95.354
			C5353.941,4406.231,5436.065,4352.289,5423.637,4284.222z" color="10348444" style="fill:#f2f1f0;fill-opacity:1;stroke-width:10;stroke:#000000"></path><path id="174629541" parent_id="125600082" order="75" structure_id="672" d="M4214.145,3445.707c41.406-22.678,58.01-54.197,64.298-90.387
			c5.196-29.968,3.33-63.133,2.618-97.135c-0.33-15.587-0.419-31.349,0.525-47.057c2.522-41.804-3.035-105.885-19.751-161.671
			c-11.124-37.064-27.18-70.465-49.087-91.223c-126.332-119.823-354.348,119.747-406.128,216.579
			c-30.903,57.795-56.742,153.948-30.378,207.791c0.258,0.488,0.509,0.98,0.776,1.464c35.586,64.489,117.265,5.961,180.54,5.677
			c12.376-3.647,23.78-4.695,31.547,0.289c5.719,3.646,9.469,7.634,11.642,11.86c42.61,24.163,71.681,69.591,126.425,70.016
			c5.718,0.046,11.561-0.326,17.563-1.133c22.923-6.409,45.224-12.898,63.937-22.144
			C4210.479,3447.688,4212.302,3446.716,4214.145,3445.707z" color="10016505" style="fill:#f2f1f0;fill-opacity:1;stroke-width:10;stroke:#000000"></path><path id="174629597" parent_id="125600082" order="76" structure_id="512" d="M7075.711,4175.438
			c-73.154-344.351-24.45-871.93,398.37-883.247c260.2-6.959,673.326,169.237,893.458,442.31
			c235.831,292.549,191.351,689.035,43.764,1001.789c-132.863,281.562-516.428,526.781-772.6,389.36
			C7324.109,4956.889,7146.294,4507.62,7075.711,4175.438z" color="15790208" style="fill:#f2f1f0;fill-opacity:1;stroke-width:10;stroke:#000000"></path><path id="174629598" parent_id="125600082" order="77" structure_id="512" d="M7855.677,2969.543
			c108.926,29.431,214.58,137.751,312.949,136.746c133.89-1.359,245.632-100.673,359.4-128.741
			c464.631-114.627-77.501-596.969-268.575-719.138c-112.288-71.787-140.954-320.845-461.644-411.767
			c-360.531-102.215-529.761,168.411-528.141,502.205c1.351,276.479,0.61,508.749,286.091,612.161
			C7634.593,2989.569,7746.759,2940.112,7855.677,2969.543z" color="15790208" style="fill:#f2f1f0;fill-opacity:1;stroke-width:10;stroke:#000000"></path><path id="174629605" parent_id="125600082" order="78" structure_id="10677" d="M8050.821,2529.87
			c29.709-62.659,67.675-121.03,90.788-186.751c16.908-48.103,27-96.998,40.283-145.854l3.248-20.55
			c-70.493-104.594-146.707-261.848-387.333-330.071c-360.531-102.215-529.761,168.411-528.141,502.205
			c1.351,276.479,0.61,508.749,286.091,612.161c71.376,25.858,170.075-12.234,268.947,2.168
			c43.689-75.456,123.08-241.487,132.636-263.746C7982.876,2639.957,8026.772,2580.607,8050.821,2529.87z M7839.797,2687.554
			c-36.976,73.069-65.194,151.612-151.282,178.866c-173.665,54.98-236.556-285.985-245.175-389.621
			c-8.563-102.993-10.898-432.481,162.758-414.783c46.133,4.701,85.982,38.006,129.641,51.366
			c81.017,24.796,189.837-51.85,230.012,51.533c36.357,93.567,18.354,172.948-12.151,264.156
			C7923.077,2520.336,7882.976,2602.215,7839.797,2687.554z" color="16776337" style="fill:#f2f1f0;fill-opacity:1;stroke-width:10;stroke:#000000"></path><path id="174629604" parent_id="125600082" order="79" structure_id="10675" d="M7688.515,2866.42
			c86.088-27.254,114.307-105.796,151.282-178.866c43.179-85.339,83.28-167.218,113.802-258.482
			c30.505-91.208,48.509-170.588,12.151-264.156c-40.175-103.383-148.995-26.737-230.012-51.533
			c-43.658-13.36-83.508-46.666-129.641-51.366c-173.656-17.698-171.32,311.79-162.758,414.783
			C7451.959,2580.435,7514.85,2921.4,7688.515,2866.42z" color="15525716" style="fill:#f2f1f0;fill-opacity:1;stroke-width:10;stroke:#000000"></path><path id="174629603" parent_id="125600082" order="80" structure_id="10680" d="M8259.451,2258.41
			c-28.033-17.922-50.855-46.895-74.311-81.696l-3.248,20.55c-13.283,48.857-23.375,97.752-40.283,145.854
			c-23.113,65.721-61.079,124.092-90.788,186.751c-24.049,50.738-67.945,110.087-93.48,169.562
			c-9.556,22.259-88.946,188.29-132.636,263.746c10.333,1.505,20.667,3.581,30.972,6.366
			c108.926,29.431,214.58,137.751,312.949,136.746c133.89-1.359,245.632-100.673,359.4-128.741
			C8992.657,2862.92,8450.525,2380.579,8259.451,2258.41z M8251.214,2822.326c-14.561,74.982-132.839,132.045-195.282,154.64
			c-42.364,15.322-77.028,21.532-115.364-7.248c-94.52-70.965,30.294-92.68,71.413-132.297
			c36.276-34.974,137.047-323.897,221.751-217.291C8266.646,2661.558,8260.875,2772.56,8251.214,2822.326z" color="16776337" style="fill:#f2f1f0;fill-opacity:1;stroke-width:10;stroke:#000000"></path><path id="174629602" parent_id="125600082" order="81" structure_id="10678" d="M8251.214,2822.326
			c9.661-49.767,15.433-160.768-17.482-202.196c-84.704-106.606-185.475,182.316-221.751,217.291
			c-41.119,39.617-165.933,61.333-71.413,132.297c38.336,28.78,73,22.57,115.364,7.248
			C8118.375,2954.372,8236.653,2897.308,8251.214,2822.326z" color="15525716" style="fill:#f2f1f0;fill-opacity:1;stroke-width:10;stroke:#000000"></path><path id="174629601" parent_id="125600082" order="82" structure_id="10689" d="M8367.539,3734.5
			c-220.132-273.072-633.258-449.269-893.458-442.31c-340.708,9.119-438.495,353.453-425.352,667.019
			c71.152,41.257,174.574,99.127,216.759,112.31c67.198,21,251.994,83.999,310.793,138.598s100.798,172.196,58.799,214.195
			s-149.067,81.396-251.994,67.199c-81.222-11.203-171.772-37.346-236.797-59.75c94.164,277.032,254.016,566.002,492.414,693.889
			c256.172,137.421,639.736-107.799,772.6-389.36C8558.89,4423.535,8603.37,4027.049,8367.539,3734.5z M7236.922,3671.668
			c9.811,4.932,19.127,10.021,27.556,14.837l-1.265-1.704c-33.259-18.839-76.64-43.421-88.996-53.309
			c-8.729-6.995-34.563-13.104-34.95-23.549c28.346-3.29,64.772,8.757,102.372,23.844c-33.07-19.585-54.125-46.465-37.061-83.21
			c31.93-68.694,131.528-91.239,195.844-114.627c191.14-69.5,366.563,27.233,519.61,134.149
			c253.07,176.786,488.268,484.201,501.38,803.898c8.358,203.812-107.633,378.457-248.691,515.545
			c-140.425,136.473-336.188,216.27-517.364,103.294c-79.878-49.808-144.006-153.122-157.753-244.951
			c-14.317-95.623,30.758-159.638,136.168-145.605c90.043,11.98,221.954,50.576,270.007-58.004
			c50.057-113.077-36.813-301.478-98.386-396.095c-60.693-93.271-176.521-169.237-275.412-216.354
			c-92.257-43.956-195.885-54.142-288.793-95.371c-42.535-18.878-159.209-93.893-148.359-147.997
			C7106.21,3619.709,7179.917,3643.016,7236.922,3671.668" color="16776337" style="fill:#f2f1f0;fill-opacity:1;stroke-width:10;stroke:#000000"></path><path id="174629600" parent_id="125600082" order="83" structure_id="10687" d="M7376.843,3677.428
			c104.263,24.471,211.016,34.511,303.109,95.88c131.439,87.589,257.686,174.084,346.735,365.613
			c43.87,94.365,94.146,225.772,82.475,332.643c-2.816,25.708-0.879,107.979-32.598,112.064
			c-13.877-0.396,3.524-104.593-7.789-165.587c-15.904-85.652-45.921-144.441-81.123-226.036
			c-30.196-69.997-54.011-91.395-109.902-142.093c-82.864-75.157-149.996-164.834-262.617-196.463
			c-117.465-32.996-219.871-86.849-316.857-146.606c-35.625-21.947-185.768-118.546-205.447-20.384
			c-10.85,54.104,105.824,129.119,148.359,147.997c92.908,41.229,196.536,51.415,288.793,95.371
			c98.891,47.117,214.719,123.084,275.412,216.354c61.573,94.617,148.442,283.018,98.386,396.095
			c-48.053,108.58-179.964,69.984-270.007,58.004c-105.41-14.032-150.485,49.982-136.168,145.605
			c13.747,91.829,77.875,195.144,157.753,244.951c181.177,112.976,376.939,33.179,517.364-103.294
			c141.059-137.088,257.05-311.733,248.691-515.545c-13.112-319.697-248.31-627.112-501.38-803.898
			c-153.048-106.916-328.471-203.649-519.61-134.149c-64.315,23.388-163.914,45.933-195.844,114.627
			c-38.449,82.796,116.626,115.511,166.648,127.521C7373.091,3676.541,7374.963,3676.984,7376.843,3677.428z" color="15525716" style="fill:#f2f1f0;fill-opacity:1;stroke-width:10;stroke:#000000"></path><path id="174629599" parent_id="125600082" order="84" structure_id="10692" d="M7635.08,4424.312
			c41.999-41.999,0-159.597-58.799-214.195s-243.595-117.598-310.793-138.598c-42.185-13.183-145.606-71.053-216.759-112.31
			c3.168,75.571,12.774,149.355,26.981,216.229c17.096,80.456,40.481,167.779,70.578,256.323
			c65.024,22.404,155.575,48.547,236.797,59.75C7486.013,4505.708,7593.081,4466.311,7635.08,4424.312z" color="16776337" style="fill:#f2f1f0;fill-opacity:1;stroke-width:10;stroke:#000000"></path><path id="174629606" parent_id="125600082" order="85" structure_id="81" d="M4524.324,3757.289
			c-84.301-99.5-113.082-234.652-138.721-358.377c-26.521-127.942-52.547-264.066-39.359-395.194
			c7.071-70.324-22.696-227.784,16.253-351.707c13.335-42.433,19.78,36.366,15.512,68.817
			c-16.973,129.107-11.447,237.631-4.865,362.841c7.161,136.312,26.421,273.107,65.002,404.266
			c19.113,64.973,42.955,129.703,73.426,190.27c24.207,48.119,68.6,112.914,102.034,158.326
			C4585.047,3814.88,4548.235,3785.506,4524.324,3757.289z" color="11184810" style="fill:#f2f1f0;fill-opacity:1;stroke-width:10;stroke:#000000"></path></g></g></svg>
